<?xml version="1.0" encoding="UTF-8" standalone="no"?>
<!-- Created with Inkscape (http://www.inkscape.org/) -->

<svg
   width="38.800304mm"
   height="47.625mm"
   viewBox="0 0 38.800304 47.625"
   version="1.1"
   id="svg5"
   inkscape:version="1.1.2 (0a00cf5339, 2022-02-04)"
   sodipodi:docname="2023-05-18-Franz.svg"
   xmlns:inkscape="http://www.inkscape.org/namespaces/inkscape"
   xmlns:sodipodi="http://sodipodi.sourceforge.net/DTD/sodipodi-0.dtd"
   xmlns="http://www.w3.org/2000/svg"
   xmlns:svg="http://www.w3.org/2000/svg">
  <sodipodi:namedview
     id="namedview7"
     pagecolor="#ffffff"
     bordercolor="#666666"
     borderopacity="1.0"
     inkscape:pageshadow="2"
     inkscape:pageopacity="0.0"
     inkscape:pagecheckerboard="0"
     inkscape:document-units="mm"
     showgrid="false"
     fit-margin-top="0"
     fit-margin-left="0"
     fit-margin-right="0"
     fit-margin-bottom="0"
     inkscape:zoom="0.77504209"
     inkscape:cx="94.188433"
     inkscape:cy="69.673635"
     inkscape:window-width="1920"
     inkscape:window-height="1044"
     inkscape:window-x="0"
     inkscape:window-y="0"
     inkscape:window-maximized="1"
     inkscape:current-layer="layer1" />
  <defs
     id="defs2" />
  <g
     inkscape:label="Ebene 1"
     inkscape:groupmode="layer"
     id="layer1"
     transform="translate(54.472605,-51.557637)">
    <g
       id="g181"
       transform="matrix(0.67735253,0,0,0.67735253,-11.316038,24.317984)">
      <path
         style="fill:#a6cda6;stroke-width:0.264583"
         d="m -62.364522,110.41947 h -1.349076 v -3.07353 -3.07353 l 1.754685,0.11173 1.754685,0.11173 0.758857,0.84931 0.758856,0.8493 v 1.04171 1.04171 l -0.301244,0.66116 -0.301241,0.66116 -0.863224,0.40963 -0.863222,0.40962 z m 0.803992,-0.87091 1.094737,-0.14683 0.426617,-0.42662 0.42662,-0.42662 v -1.17173 -1.17172 l -0.42662,-0.42662 -0.426617,-0.42662 -1.094737,-0.14684 -1.094735,-0.14683 v 2.31863 2.31864 z m 4.312687,0.78968 -0.28112,0.0923 -0.181901,-0.18191 -0.181901,-0.1819 v -1.94028 -1.94027 h 0.396875 0.396875 v 0.3175 0.3175 l 0.3175,-0.3175 0.3175,-0.3175 h 0.608542 0.608542 v 0.3793 0.3793 l -0.727604,0.0837 -0.727605,0.0837 -0.132291,1.5669 -0.132292,1.5669 z m 4.779037,0.0812 h -0.396875 v -3.04271 -3.04271 h 0.390035 0.390036 l 1.098793,2.00207 1.098796,2.00206 1.099043,-1.93592 1.099042,-1.93591 h 0.388691 0.388689 l 0.07481,2.97656 0.07481,2.97656 h -0.39484 -0.394841 l -0.07684,-2.18281 -0.07685,-2.18281 -0.853975,1.63437 -0.853974,1.63437 -0.240527,0.14865 -0.240525,0.14865 -0.299749,-0.36117 -0.299752,-0.36118 -0.78377,-1.42185 -0.783767,-1.42184 -0.0048,2.18281 -0.0048,2.18281 z m 7.746619,0 h -0.746506 l -0.315542,-0.69254 -0.315542,-0.69254 0.615109,-0.49808 0.615111,-0.49809 h 0.616532 0.616532 l 0.179213,-0.28997 0.179213,-0.28998 -0.432459,-0.43245 -0.432459,-0.43246 -0.535652,0.33452 -0.535651,0.33452 -0.266671,-0.16481 -0.266668,-0.16481 0.309829,-0.37332 0.309828,-0.37332 h 1.016627 1.016627 l 0.273894,0.51177 0.273891,0.51177 v 1.6049 1.60489 h -0.248968 -0.24897 l -0.177768,-0.28764 -0.177771,-0.28763 -0.287636,0.28763 -0.287637,0.28764 z m 0.575593,-0.84775 0.669097,-0.0783 0.08781,-0.46302 0.08781,-0.46302 h -0.648462 -0.648462 l -0.294685,0.35507 -0.294685,0.35507 0.18624,0.18624 0.186241,0.18624 z m 3.038335,0.76652 -0.28112,0.0923 -0.181901,-0.18191 -0.181901,-0.1819 v -1.94028 -1.94027 h 0.396875 0.396875 v 0.3175 0.3175 l 0.3175,-0.3175 0.3175,-0.3175 h 0.608542 0.608542 v 0.3793 0.3793 l -0.727605,0.0837 -0.727604,0.0837 -0.132291,1.5669 -0.132292,1.5669 z m 4.201118,0.0732 -0.480415,-0.008 -0.443174,-0.25858 -0.443177,-0.25858 -0.29237,-0.88588 -0.29237,-0.8859 0.244962,-0.64429 0.244962,-0.6443 0.405974,-0.33693 0.405971,-0.33692 0.990201,0.0832 0.9902,0.0832 0.121095,0.36807 0.121091,0.36807 -0.701381,-0.17603 -0.701384,-0.17604 -0.523737,0.28029 -0.523738,0.2803 v 0.88434 0.88433 l 0.386038,0.32039 0.386038,0.32038 0.804587,-0.17672 0.804587,-0.17672 v 0.2763 0.2763 l -0.511773,0.27389 -0.511773,0.27389 -0.480414,-0.008 z m 3.437191,0.004 -0.580308,0.004 -0.411879,-0.58804 -0.411877,-0.58804 v -1.52863 -1.52863 h 0.529167 0.529166 v 1.73737 1.73736 l 0.727605,-0.0837 0.727604,-0.0837 0.07877,-1.65365 0.07877,-1.65365 h 0.516543 0.516541 v 1.96876 1.96877 l -0.294164,0.1818 -0.294166,0.1818 -0.17584,-0.28451 -0.175839,-0.28452 -0.38989,0.24657 -0.389893,0.24656 -0.580311,0.004 z m 4.476817,-0.004 -0.721506,-0.008 -0.468585,-0.2728 -0.468585,-0.2728 0.142703,-0.2309 0.142706,-0.2309 0.921192,0.14949 0.921194,0.14949 v -0.42794 -0.42795 l -0.926042,-0.38692 -0.926041,-0.38693 v -0.64256 -0.64256 l 0.379592,-0.31503 0.37959,-0.31504 0.856803,0.0842 0.856805,0.0842 0.109967,0.33492 0.109966,0.33491 -0.854552,-0.0703 -0.854551,-0.0703 -0.118798,0.33617 -0.1188,0.33618 0.8232,0.28696 0.823199,0.28697 0.277802,0.51908 0.277801,0.51908 -0.421777,0.64372 -0.42178,0.64371 -0.721503,-0.008 z m 4.291081,0.008 h -0.382378 v -3.0548 -3.05479 l 1.76485,0.0782 1.764853,0.0782 0.109281,0.33072 0.109281,0.33073 h -1.477259 -1.477256 v 0.92605 0.92604 h 1.190625 1.190625 v 0.38166 0.38166 l -1.124479,0.0814 -1.12448,0.0814 -0.08064,1.25677 -0.08064,1.25677 z m 4.239527,0 h -0.40518 l -0.137607,-0.3586 -0.137607,-0.35859 0.07977,-1.68014 0.07976,-1.68014 1.256771,-0.081 1.256771,-0.081 v 0.39998 0.39999 h -0.63315 -0.633151 l -0.160599,0.41851 -0.1606,0.41851 v 1.30128 1.30128 z m 3.521589,0 h -0.746506 l -0.315542,-0.69254 -0.315542,-0.69254 0.615108,-0.49808 0.615112,-0.49809 h 0.616532 0.616532 l 0.179213,-0.28997 0.179213,-0.28998 -0.432459,-0.43245 -0.432459,-0.43246 -0.535652,0.33452 -0.535651,0.33452 -0.266671,-0.16481 -0.266669,-0.16481 0.30983,-0.37332 0.309827,-0.37332 h 1.016627 1.016628 l 0.273894,0.51177 0.273891,0.51177 v 1.6049 1.60489 h -0.248968 -0.24897 l -0.177768,-0.28764 -0.177771,-0.28763 -0.287637,0.28763 -0.287636,0.28764 z m 0.575593,-0.84775 0.669097,-0.0783 0.08781,-0.46302 0.08781,-0.46302 h -0.648462 -0.648462 l -0.294685,0.35507 -0.294685,0.35507 0.18624,0.18624 0.18624,0.18624 z m 3.038335,0.76612 -0.28112,0.0927 -0.181901,-0.18191 -0.181901,-0.1819 v -1.89291 -1.89292 l 1.59534,-0.044 1.595339,-0.044 0.268867,0.70717 0.268867,0.70718 -0.07827,1.33995 -0.07827,1.33995 h -0.396875 -0.396875 l -0.08067,-1.5875 -0.08067,-1.5875 -0.223422,-0.22472 -0.223422,-0.22472 -0.543539,0.17251 -0.543536,0.17251 -0.07841,1.61871 -0.07841,1.61871 z m 5.1759114,0.0816 h -1.5875 v -0.30669 -0.30668 l 1.054997,-1.39734 1.0549943,-1.39733 -0.9282325,-0.0819 -0.9282324,-0.0819 0.00238,-0.26459 0.00238,-0.26458 1.4582511,-0.0794 1.4582511,-0.0794 v 0.31989 0.31989 l -1.0669033,1.41311 -1.0669058,1.4131 h 1.0669058 1.0669033 v 0.39688 0.39687 h -1.5875001 z m -26.4583344,-28.224212 -1.190625,0.136564 -0.529166,-0.128624 -0.529167,-0.128627 -0.885725,-0.276384 -0.885721,-0.276387 -1.760112,-1.653786 -1.760109,-1.653788 -2.39332,-0.132951 -2.393321,-0.132953 -1.181523,-0.522645 -1.181526,-0.522644 -0.817933,-0.817933 -0.817935,-0.817933 -0.496523,-1.010828 -0.496522,-1.010827 -0.0973,-2.513542 -0.0973,-2.513541 -1.521447,-1.588688 -1.521449,-1.588688 -0.498155,-0.924854 -0.498155,-0.924854 -0.0053,-1.984375 -0.0053,-1.984375 0.706967,-1.190625 0.706966,-1.190625 1.343555,-1.31297 1.343554,-1.312971 v -2.095916 -2.095916 l 0.314537,-1.049828 0.314536,-1.049828 1.138624,-1.266426 1.138627,-1.266425 1.030737,-0.41242 1.03074,-0.41242 2.387663,-0.04831 2.387667,-0.04831 1.41229,-1.442338 1.412288,-1.442339 1.322916,-0.684475 1.322917,-0.684475 1.5875,-5.02e-4 1.5875,-5.03e-4 1.190625,0.600992 1.190625,0.600993 1.455208,1.396405 1.455209,1.396405 2.432121,0.160269 2.432122,0.16027 1.075653,0.430392 1.075655,0.430391 1.138627,1.266426 1.138624,1.266425 0.314536,1.049828 0.314537,1.049828 v 2.095916 2.095917 l 1.343554,1.31297 1.343555,1.31297 0.672134,1.135011 0.672134,1.13501 0.133541,1.663638 0.13354,1.663638 -0.552926,1.249983 -0.552926,1.249979 -1.570639,1.639913 -1.570635,1.639912 -0.0973,2.513541 -0.0973,2.513542 -0.496522,1.010828 -0.496523,1.010827 -0.817935,0.817933 -0.817933,0.817933 -1.181526,0.522644 -1.181523,0.522645 -2.393321,0.129982 -2.39332,0.129982 -1.637996,1.56047 -1.637993,1.56047 -0.875549,0.364734 -0.875546,0.364736 -1.190625,0.136562 z m -0.667827,-8.023704 h 2.713131 l 0.69714,-0.54837 0.69714,-0.548371 v -3.040898 -3.040899 l 0.304191,-0.577919 0.304194,-0.577918 0.291119,-0.194387 0.291121,-0.194384 3.120879,-0.004 3.120883,-0.0041 0.64943,-0.649433 0.649433,-0.649431 v -2.893131 -2.893132 l -0.505502,-0.624624 -0.5055,-0.624624 -3.451048,-0.132292 -3.451045,-0.132292 -0.342932,-0.343534 -0.342932,-0.343535 -0.132291,-3.450943 -0.132292,-3.450942 -0.624623,-0.505002 -0.624626,-0.505002 h -2.719501 -2.719501 l -0.624626,0.505002 -0.624623,0.505002 -0.132292,3.485347 -0.132291,3.485347 -0.513591,0.375276 -0.513591,0.375276 h -3.136455 -3.136459 l -0.64943,0.649432 -0.649433,0.649432 v 2.934469 2.93447 l 0.649433,0.649431 0.64943,0.649433 h 3.136459 3.136455 l 0.513591,0.375277 0.513591,0.375274 0.132291,3.485348 0.132292,3.485346 0.624623,0.505002 0.624626,0.505003 z m -0.910619,-9.692804 -0.253973,0.253973 -0.240708,-0.638397 -0.240707,-0.638397 -0.197112,-0.926042 -0.197114,-0.926042 -0.134253,-0.226685 -0.134249,-0.226685 -0.165365,0.254919 -0.165364,0.254918 -2.329789,0.141841 -2.329791,0.141842 0.08083,-0.56695 0.08083,-0.56695 2.021496,0.09192 2.021493,0.09192 0.318651,-0.96552 0.318651,-0.965519 0.298416,0.09947 0.298418,0.09947 0.392435,1.567875 0.392436,1.567875 0.560514,-2.910416 0.560517,-2.910417 h 0.365393 0.365395 l 0.185094,0.926042 0.185097,0.926041 0.316516,1.559837 0.316513,1.559837 0.171691,-0.274713 0.171691,-0.274714 2.513541,-0.0945 2.513542,-0.0945 v 0.529167 0.529167 l -2.288349,-0.09185 -2.28835,-0.09184 -0.357484,0.723905 -0.357484,0.723906 -0.264583,-0.02334 -0.264583,-0.02334 -0.424119,-2.063929 -0.42412,-2.063929 -0.145878,0.396875 -0.145875,0.396875 -0.422971,2.236507 -0.422971,2.236509 -0.253971,0.253971 z"
         id="path195" />
      <path
         style="fill:#73b48a;stroke-width:0.264583"
         d="m -61.713758,110.15359 -1.76485,0.14809 -0.117497,-0.11749 -0.117493,-0.1175 v -2.73403 -2.73402 h 1.740143 1.740146 l 0.773396,0.7734 0.773398,0.77339 v 1.19622 1.19623 l -0.631195,0.73381 -0.631198,0.73381 z m -0.135731,-0.52787 h 1.070361 l 0.64943,-0.64943 0.649433,-0.64943 v -0.9501 -0.95009 l -0.649433,-0.64943 -0.64943,-0.64944 h -1.070361 -1.070359 v 2.24896 2.24896 z m 4.485891,0.66146 -0.264583,0.16352 v -2.13228 -2.13228 h 0.264583 0.264583 v 0.3175 0.3175 l 0.3175,-0.3175 0.3175,-0.3175 h 0.63059 0.630592 l -0.11012,0.33073 -0.110119,0.33073 -0.507244,0.0946 -0.50724,0.0946 -0.330729,0.26851 -0.33073,0.26851 v 1.2749 1.27491 z m 5.063988,-0.0228 -0.22768,0.14071 -0.169195,-0.16919 -0.169196,-0.1692 v -2.75343 -2.75342 l 0.452599,0.0872 0.452599,0.0872 0.888431,1.58589 0.888428,1.58588 0.218787,0.22367 0.218784,0.22367 0.986502,-1.87732 0.986501,-1.87731 h 0.505344 0.505343 l -0.0751,2.84427 -0.0751,2.84427 -0.264583,-0.0631 -0.264584,-0.0631 -0.132291,-2.12232 -0.132292,-2.12232 -0.926042,1.72208 -0.926041,1.72208 -0.3066,2.7e-4 -0.306601,2.6e-4 -0.940946,-1.65365 -0.940948,-1.65364 -0.0092,2.0349 -0.0092,2.03491 -0.22768,0.14071 z m 7.553513,0.1551 h -0.381873 l -0.317291,-0.38231 -0.317291,-0.38231 0.08646,-0.60988 0.08646,-0.60987 1.124479,-0.24926 1.124479,-0.24925 -0.004,-0.27991 -0.004,-0.27992 -0.248626,-0.39323 -0.248629,-0.39323 -0.804511,0.30367 -0.804508,0.30367 -0.140846,-0.22789 -0.140848,-0.2279 0.519184,-0.27786 0.519184,-0.27785 h 0.663847 0.663851 l 0.411879,0.58804 0.411877,0.58803 v 1.38073 1.38072 l -0.246301,0.15222 -0.2463,0.15222 -0.166632,-0.26961 -0.166632,-0.26962 -0.495715,0.2653 -0.495716,0.2653 h -0.38187 z m 0.09159,-0.52917 h 0.29028 l 0.511773,-0.27389 0.511773,-0.27389 v -0.38757 -0.38756 l -0.595312,0.004 -0.595313,0.004 -0.369284,0.23383 -0.369282,0.23383 0.162542,0.42358 0.162541,0.42358 h 0.290282 z m 3.69786,-0.83538 -0.135075,1.41358 -0.198438,-0.2009 -0.198438,-0.20091 v -1.94028 -1.94027 h 0.264584 0.264583 v 0.3175 0.3175 l 0.3175,-0.3175 0.3175,-0.3175 h 0.608542 0.608542 v 0.39687 0.39688 h -0.645843 -0.645845 l -0.211268,0.33073 -0.211269,0.33073 z m 3.984424,1.36455 h -0.211678 l -0.69714,-0.54837 -0.69714,-0.54837 v -1.03913 -1.03913 l 0.529167,-0.52917 0.529167,-0.52916 h 0.639818 0.63982 l 0.418513,0.1606 0.418515,0.1606 v 0.24826 0.24827 l -0.876863,-0.16451 -0.876864,-0.1645 -0.330835,0.39863 -0.330832,0.39863 0.08322,1.01066 0.08322,1.01065 1.124479,-0.0228 1.124479,-0.0228 v 0.22782 0.22783 l -0.678682,0.25803 -0.678683,0.25804 h -0.211677 z m 3.698938,-0.008 -0.410104,-0.008 -0.463021,-0.26968 -0.463021,-0.26969 v -1.83893 -1.83894 h 0.264584 0.264583 v 1.57819 1.57819 l 0.488259,0.26131 0.488263,0.26131 0.570071,-0.39929 0.570074,-0.3993 v -1.4402 -1.44021 h 0.264583 0.264583 v 2.14906 2.14907 l -0.408088,-0.33868 -0.408088,-0.33869 -0.306287,0.30629 -0.306287,0.30628 z m 4.039061,-0.0128 -0.480415,-0.0209 -0.330729,-0.13345 -0.330729,-0.13346 v -0.27121 -0.27122 l 0.686766,0.17237 0.686768,0.17236 0.371565,-0.30837 0.371568,-0.30837 v -0.19201 -0.192 l -1.058334,-0.47724 -1.058333,-0.47724 v -0.56836 -0.56836 l 0.3175,-0.3175 0.3175,-0.3175 h 0.586901 0.586904 l 0.418513,0.1606 0.418515,0.1606 v 0.21964 0.21964 l -0.926041,-0.15027 -0.926042,-0.15028 v 0.51063 0.51064 l 0.926042,0.33486 0.926041,0.33486 v 0.76731 0.76732 l -0.511773,0.27389 -0.511773,0.27389 -0.480414,-0.0209 z m 8.945644,-0.17313 -0.200919,0.20284 -0.1808,-0.18081 -0.180798,-0.1808 v -1.94028 -1.94027 h 0.242536 0.242533 l 0.121269,0.33073 0.121266,0.33073 0.350573,-0.33073 0.350573,-0.33073 h 0.47625 0.47625 v 0.3793 0.3793 l -0.727604,0.0837 -0.727604,0.0837 -0.0813,1.45521 -0.0813,1.45521 -0.20092,0.20284 z m 3.323733,0.19401 h -0.381873 l -0.317291,-0.38231 -0.317291,-0.38231 0.08646,-0.60988 0.08646,-0.60987 1.12448,-0.24926 1.124479,-0.24925 v -0.48666 -0.48665 l -0.413748,-0.15877 -0.413747,-0.15877 -0.635138,0.28939 -0.635137,0.28939 -0.149151,-0.24134 -0.149151,-0.24133 0.519184,-0.27786 0.519184,-0.27785 h 0.663847 0.66385 l 0.41188,0.58804 0.411877,0.58803 v 1.38073 1.38072 l -0.246301,0.15222 -0.2463,0.15222 -0.166632,-0.26961 -0.166632,-0.26962 -0.495716,0.2653 -0.495715,0.2653 z m 0.09159,-0.52917 h 0.29028 l 0.511773,-0.27389 0.511773,-0.27389 v -0.38757 -0.38756 l -0.595313,0.004 -0.595312,0.004 -0.369284,0.23383 -0.369282,0.23383 0.162541,0.42358 0.162542,0.42358 h 0.290282 z m 3.695076,-1.07277 -0.132292,1.65121 -0.198437,-0.20102 -0.198438,-0.20103 v -1.94028 -1.94027 h 0.264584 0.264583 v 0.3175 0.3175 l 0.3175,-0.3175 0.3175,-0.3175 h 0.687917 0.687916 l 0.3175,0.3175 0.3175,0.3175 v 1.85208 1.85208 l -0.249428,-0.25135 -0.249425,-0.25135 -0.0813,-1.42796 -0.0813,-1.42796 -0.463021,-0.29048 -0.463021,-0.29048 -0.463021,0.2903 -0.46302,0.29031 z m 5.133729,1.37902 -1.480857,0.0906 -0.099592,-0.16176 -0.099592,-0.16176 1.1678391,-1.55803 1.1678418,-1.55803 -1.0426012,-0.0814 -1.0426013,-0.0814 v -0.24937 -0.24937 h 1.4552084 1.4552084 v 0.28038 0.28037 l -1.0495042,1.37327 -1.0495016,1.37327 1.0495016,0.0814 1.0495042,0.0814 v 0.22488 0.22488 z m -16.643104,-0.0417 h -0.396875 v -2.77813 -2.77812 h 1.719791 1.719792 v 0.26458 0.26458 h -1.322917 -1.322916 v 1.05834 1.05833 h 1.190625 1.190625 v 0.26458 0.26459 h -1.190625 -1.190625 v 1.19062 1.19063 z M -35.270889,82.097433 h -1.5875 l -1.058333,-0.493543 -1.058334,-0.493541 -1.579218,-1.617315 -1.579216,-1.617314 h -2.408235 -2.408235 l -1.43469,-0.727604 -1.434687,-0.727604 -0.837351,-1.113105 -0.837348,-1.113104 -0.288949,-1.347314 -0.288946,-1.347314 v -1.781953 -1.781953 l -1.476206,-1.44617 -1.476206,-1.44617 -0.555849,-1.058334 -0.555853,-1.058333 V 61.20697 59.487179 l 0.555853,-1.058334 0.555849,-1.058333 1.476206,-1.44617 1.476206,-1.44617 v -1.781953 -1.781953 l 0.288946,-1.347314 0.288949,-1.347314 0.837348,-1.113105 0.837351,-1.113104 1.434687,-0.727605 1.43469,-0.727604 h 2.408235 2.408235 l 1.579216,-1.617314 1.579218,-1.617314 1.058334,-0.493542 1.058333,-0.493541 h 1.5875 1.5875 l 1.058333,0.493541 1.058334,0.493542 1.579218,1.617314 1.579216,1.617314 h 2.408235 2.408235 l 1.43469,0.727604 1.434687,0.727605 0.837351,1.113104 0.837348,1.113105 0.288949,1.347314 0.288946,1.347314 v 1.781953 1.781953 l 1.476206,1.44617 1.476206,1.44617 0.564528,1.058333 0.564528,1.058334 v 1.719791 1.719792 l -0.564528,1.058333 -0.564528,1.058334 -1.476206,1.44617 -1.476206,1.44617 v 1.781953 1.781953 l -0.288946,1.347314 -0.288949,1.347314 -0.837348,1.113104 -0.837351,1.113105 -1.434687,0.727604 -1.43469,0.727604 h -2.408235 -2.408235 l -1.579216,1.617314 -1.579218,1.617315 -1.058334,0.493541 -1.058333,0.493543 z m -0.02003,-7.934293 2.930443,-0.0084 0.419804,-0.322313 0.419801,-0.322315 0.307803,-0.577919 0.3078,-0.577919 v -3.045097 -3.0451 l 0.58804,-0.41188 0.588036,-0.411877 h 3.092609 3.092609 l 0.707702,-0.841055 0.707702,-0.841057 -0.08887,-2.710177 -0.08887,-2.710174 -0.641432,-0.682103 -0.641435,-0.682103 h -3.070008 -3.070008 l -0.588037,-0.411878 -0.588039,-0.411878 v -3.139697 -3.139696 l -0.684977,-0.814051 -0.68498,-0.81405 h -2.90725 -2.907249 l -0.773396,0.773397 -0.773398,0.773398 v 3.18035 3.180349 l -0.588039,0.411878 -0.588037,0.411878 h -3.092609 -3.092608 l -0.68498,0.81405 -0.684977,0.814051 v 2.605232 2.605233 l 0.684977,0.814049 0.68498,0.814052 h 3.092608 3.092609 l 0.566457,0.396761 0.566457,0.396764 0.08773,3.286895 0.08773,3.286895 0.641432,0.681968 0.641434,0.681967 2.930441,-0.0084 z m -0.929394,-9.78117 h -0.209973 l -0.117803,-0.198437 -0.117803,-0.198438 -0.336791,-1.521354 -0.336788,-1.521354 h -0.127167 -0.127164 l -0.293754,0.375328 -0.293751,0.375327 -2.116666,0.08769 -2.116667,0.08769 v -0.52525 -0.52525 l 2.037442,0.08503 2.037446,0.08503 0.436578,-1.014988 0.436581,-1.014988 0.225205,0.529167 0.225208,0.529166 0.357355,1.322917 0.357354,1.322917 0.327538,-1.719792 0.327536,-1.719792 0.272658,-1.389062 0.272659,-1.389063 h 0.227065 0.227065 l 0.303567,1.521354 0.303568,1.521355 0.259823,1.011749 0.259824,1.011749 0.315264,-0.257082 0.315264,-0.257082 2.38125,-0.09321 2.38125,-0.09321 v 0.529167 0.529167 l -2.412405,-0.09128 -2.412404,-0.09128 -0.177041,0.70539 -0.177041,0.705389 -0.320971,-0.106305 -0.320971,-0.106306 -0.376529,-2.029157 -0.376528,-2.029157 h -0.161092 -0.161092 l -0.493564,2.778125 -0.493564,2.778125 z"
         id="path193" />
      <path
         style="fill:#8fc148;stroke-width:0.264583"
         d="m -61.976413,110.15489 h -1.472602 v -2.77813 -2.77812 h 1.336056 1.336056 l 0.729099,0.37703 0.729102,0.37703 0.316092,0.69375 0.316095,0.69375 v 0.66215 0.66215 l -0.399613,0.77277 -0.399614,0.77276 -0.509034,0.27243 -0.509035,0.27243 z m 0.24719,-0.52917 h 1.190625 l 0.529167,-0.52917 0.529166,-0.52916 v -1.10743 -1.10743 l -0.575286,-0.61236 -0.575289,-0.61237 h -1.144503 -1.144505 v 2.24896 2.24896 z m 4.365625,0.52917 h -0.264583 l 0.0084,-2.05052 0.0084,-2.05052 0.343154,0.45163 0.343154,0.45163 0.421664,-0.42167 0.421667,-0.42166 0.43416,0.1666 0.43416,0.1666 -0.167344,0.27077 -0.167344,0.27077 -0.262972,-0.16253 -0.262974,-0.16252 -0.512493,0.4638 -0.512495,0.4638 v 1.28191 1.28191 h -0.264584 z m 4.7625,0 h -0.264583 v -2.77813 -2.77812 h 0.378341 0.378343 l 1.115304,2.02043 1.115301,2.02043 1.086043,-2.01635 1.086043,-2.01635 0.330729,-0.004 0.330729,-0.004 v 2.77812 2.77813 h -0.253883 -0.253884 l -0.07684,-2.18282 -0.07685,-2.18281 -0.926042,1.70408 -0.926041,1.70408 -0.276241,0.0857 -0.276241,0.0858 -0.914384,-1.72145 -0.914384,-1.72144 -0.198438,-0.002 -0.198437,-0.002 v 2.11667 2.11667 z m 8.460563,-0.0575 -1.326756,0.0748 -0.169428,-0.44153 -0.169426,-0.44152 0.266462,-0.42706 0.266464,-0.42705 0.978175,-0.24801 0.978176,-0.24801 -0.07805,-0.54574 -0.07805,-0.54574 -0.994936,0.0304 -0.994937,0.0304 0.299728,-0.36115 0.299731,-0.36115 h 0.708435 0.708438 l 0.3175,0.3175 0.3175,0.3175 -0.0011,1.60073 -0.0011,1.60073 -1.326756,0.0748 z m -0.319699,-0.20712 h 0.484553 l 0.3175,-0.3175 0.3175,-0.3175 v -0.50493 -0.50493 l -0.727604,0.17969 -0.727604,0.1797 -0.233569,0.22808 -0.233572,0.22808 0.159121,0.41465 0.15912,0.41466 z m 3.23622,0.26459 h -0.264584 l 0.0084,-2.05052 0.0084,-2.05052 0.343154,0.45163 0.343154,0.45163 0.421664,-0.42167 0.421666,-0.42166 0.483537,0.20941 0.483537,0.20942 -0.529167,0.11866 -0.529167,0.11866 -0.463021,0.41057 -0.46302,0.41057 v 1.28191 1.28191 h -0.264584 z m 4.226698,0 h -0.757108 l -0.41188,-0.58804 -0.411877,-0.58804 v -0.81728 -0.81728 l 0.553408,-0.59401 0.553405,-0.59401 0.815279,0.0811 0.815282,0.0811 0.09103,0.27813 0.09104,0.27812 -0.92629,-0.10813 -0.926288,-0.10814 -0.283525,0.74572 -0.283525,0.74573 0.154266,0.61464 0.154265,0.61463 0.646322,0.29449 0.646324,0.29448 0.381156,-0.31633 0.381153,-0.31633 0.154329,0.24971 0.154326,0.2497 -0.416994,0.16002 -0.416994,0.16002 z m 4.2907,-0.0597 -1.272183,0.0554 -0.315317,-0.31532 -0.315315,-0.31531 v -1.66688 -1.66687 h 0.264584 0.264583 v 1.5551 1.5551 l 0.404709,0.33588 0.404712,0.33588 0.653622,-0.29781 0.653624,-0.29781 v -1.59317 -1.59317 h 0.264583 0.264583 v 1.92683 1.92684 z m 3.504361,0.0597 h -0.87803 l -0.140909,-0.228 -0.140909,-0.22799 0.976362,0.0296 0.976363,0.0296 0.09533,-0.46801 0.09534,-0.46802 -0.928312,-0.38787 -0.928311,-0.38787 -0.167463,-0.27096 -0.167463,-0.27096 0.162904,-0.51327 0.162904,-0.51326 0.534728,-0.16972 0.534728,-0.16971 0.673585,0.16905 0.673584,0.16906 -0.169826,0.16983 -0.169825,0.16982 -0.853583,0.0157 -0.853583,0.0157 v 0.35898 0.35898 l 0.922584,0.43562 0.922581,0.43562 0.09145,0.47488 0.09145,0.47488 -0.318828,0.38417 -0.318828,0.38416 h -0.878031 z m 4.5147,0 h -0.396875 v -2.77813 -2.77812 h 1.719791 1.719792 v 0.26458 0.26458 h -1.322917 -1.322916 v 1.05834 1.05833 h 1.190625 1.190625 v 0.26458 0.26459 h -1.190625 -1.190625 v 1.19062 1.19063 z m 4.101041,0 h -0.264583 v -1.98438 -1.98437 h 0.264583 0.264584 v 0.43788 0.43788 l 0.483854,-0.43788 0.483854,-0.43788 h 0.442188 0.442187 v 0.26458 0.26458 h -0.488159 -0.488159 l -0.437882,0.48386 -0.437883,0.48385 v 1.23594 1.23594 z m 4.230175,-0.0526 -1.325973,0.0797 -0.171291,-0.44638 -0.171291,-0.44638 0.266461,-0.42706 0.266465,-0.42705 0.978175,-0.24801 0.978175,-0.24801 -0.07805,-0.54574 -0.07805,-0.54574 -1.044681,0.0348 -1.044681,0.0348 0.499939,-0.36556 0.499938,-0.36556 h 0.557972 0.557972 l 0.3175,0.3175 0.3175,0.3175 -5.1e-5,1.60073 -5.3e-5,1.60073 z m -0.322644,-0.21198 h 0.484553 l 0.3175,-0.3175 0.3175,-0.3175 v -0.50493 -0.50493 l -0.727604,0.17969 -0.727604,0.1797 -0.233569,0.22808 -0.233572,0.22808 0.159121,0.41465 0.15912,0.41466 z m 3.23622,0.26459 h -0.264584 v -2.03729 -2.0373 l 0.286314,0.28632 0.286316,0.28631 0.778748,-0.29394 0.778751,-0.29395 0.45629,0.28661 0.45629,0.2866 0.07823,1.75832 0.07823,1.75832 h -0.264046 -0.264049 l -0.07877,-1.65365 -0.07877,-1.65364 -0.609875,-0.0865 -0.609875,-0.0865 -0.382313,0.31729 -0.382312,0.31729 v 1.42281 1.42282 z m 5.4901039,-0.0462 -1.5213542,0.0462 v -0.2168 -0.2168 l 1.0742216,-1.43685 1.0742243,-1.43684 -1.0742243,-0.0814 -1.0742216,-0.0814 v -0.24937 -0.24937 h 1.4552084 1.4552084 v 0.21679 0.2168 l -1.0583334,1.41849 -1.0583333,1.41849 v 0.20158 0.20159 l 1.1244792,0.10128 1.1244792,0.10128 z M -35.270889,82.097433 h -1.5875 l -1.058333,-0.493543 -1.058334,-0.493541 -1.579218,-1.617315 -1.579216,-1.617314 h -2.408235 -2.408235 l -1.43469,-0.727604 -1.434687,-0.727604 -0.837351,-1.113105 -0.837348,-1.113104 -0.288949,-1.347314 -0.288946,-1.347314 v -1.781953 -1.781953 l -1.476206,-1.44617 -1.476206,-1.44617 -0.555849,-1.058334 -0.555853,-1.058333 V 61.20697 59.487179 l 0.555853,-1.058334 0.555849,-1.058333 1.476206,-1.44617 1.476206,-1.44617 v -1.781953 -1.781953 l 0.288946,-1.347314 0.288949,-1.347314 0.837348,-1.113105 0.837351,-1.113104 1.434687,-0.727605 1.43469,-0.727604 h 2.408235 2.408235 l 1.557684,-1.57411 1.557687,-1.57411 1.334733,-0.574188 1.334733,-0.574186 1.484077,0.134571 1.484077,0.134572 1.03918,0.53752 1.03918,0.537521 1.44617,1.476205 1.446171,1.476205 h 2.408989 2.408991 l 1.43469,0.727604 1.434687,0.727605 0.837351,1.113104 0.837348,1.113105 0.288949,1.347314 0.288946,1.347314 v 1.781953 1.781953 l 1.486358,1.44617 1.48636,1.44617 0.540994,1.190625 0.540996,1.190625 -0.0048,1.455208 -0.0048,1.455209 -0.428074,1.007837 -0.428075,1.007841 -1.594461,1.660466 -1.594462,1.660464 v 1.750444 1.750444 l -0.288946,1.347314 -0.288949,1.347314 -0.837348,1.113104 -0.83735,1.113105 -1.434688,0.727604 -1.43469,0.727604 h -2.408234 -2.408235 l -1.579216,1.617314 -1.579219,1.617315 -1.058333,0.493541 -1.058334,0.493543 h -1.5875 z m 0,-7.955182 2.910417,0.01246 0.419804,-0.322313 0.419801,-0.322315 0.307803,-0.577919 0.3078,-0.577919 V 69.30915 66.264049 l 0.588039,-0.411879 0.588037,-0.411877 h 2.962198 2.962198 l 0.4283,-0.164354 0.4283,-0.164354 0.38709,-0.748548 0.387088,-0.748549 v -2.506381 -2.50638 l -0.684977,-0.81405 -0.68498,-0.81404 h -3.092608 -3.092609 l -0.588037,-0.411878 -0.588039,-0.411878 v -3.139697 -3.139696 l -0.684977,-0.814051 -0.68498,-0.81405 h -2.995668 -2.995668 l -0.68498,0.81405 -0.684977,0.814051 v 3.139696 3.139697 l -0.588039,0.411878 -0.588037,0.411878 h -3.092609 -3.092608 l -0.68498,0.81405 -0.684977,0.814051 v 2.510635 2.510635 l 0.3078,0.577919 0.307803,0.577918 0.419801,0.322316 0.419804,0.322313 3.049982,0.0084 3.049984,0.0084 0.588037,0.411877 0.588039,0.411879 v 3.040843 3.040846 l 0.391308,0.756706 0.391308,0.756708 0.336296,0.135308 0.336296,0.135308 2.910417,0.01246 z m -0.951587,-9.876785 -0.214342,0.132472 -0.273201,-1.014586 -0.273198,-1.014586 -0.169098,-0.845481 -0.169095,-0.845481 h -0.23151 -0.231511 v 0.375163 0.375164 l -1.785937,0.1012 -1.785938,0.1012 -0.46079,0.212546 -0.460791,0.212546 -0.173077,-0.451029 -0.173074,-0.45103 0.360407,-0.222745 0.36041,-0.222746 0.317281,0.263319 0.317277,0.263318 1.53488,-0.08002 1.53488,-0.08001 0.245512,-0.859896 0.24551,-0.859896 h 0.216111 0.216109 l 0.289034,1.124479 0.289033,1.124479 0.209267,0.661459 0.209264,0.661458 0.60697,-3.241146 0.60697,-3.241146 h 0.195022 0.195022 l 0.464288,2.447396 0.464288,2.447396 0.229995,0.251354 0.229994,0.251354 v -0.3175 -0.3175 h 2.06375 2.06375 l 0.275797,-0.275797 0.275796,-0.275796 0.291153,0.350816 0.291153,0.350816 -0.215803,0.349173 -0.215799,0.349172 -0.54542,-0.2919 -0.545423,-0.2919 h -1.598099 -1.598099 l -0.441659,0.854075 -0.441661,0.854075 -0.188965,-0.523346 -0.188966,-0.523346 -0.35075,-1.785938 -0.350753,-1.785937 h -0.173288 -0.173287 l -0.477525,2.78593 -0.477523,2.78593 z"
         id="path191" />
      <path
         style="fill:#70ae1d;stroke-width:0.264583"
         d="m -61.976413,110.15489 h -1.472602 v -2.77813 -2.77812 h 1.336056 1.336056 l 0.729099,0.37703 0.729102,0.37703 0.316092,0.69375 0.316095,0.69375 v 0.66215 0.66215 l -0.399613,0.77277 -0.399614,0.77276 -0.509034,0.27243 -0.509035,0.27243 z m 0.24719,-0.52917 h 1.190625 l 0.529167,-0.52917 0.529166,-0.52916 v -1.10743 -1.10743 l -0.575286,-0.61236 -0.575289,-0.61237 h -1.144503 -1.144505 v 2.24896 2.24896 z m 4.365625,0.52917 h -0.264583 l 0.0084,-2.05052 0.0084,-2.05052 0.343154,0.45163 0.343154,0.45163 0.421664,-0.42167 0.421667,-0.42166 0.43416,0.1666 0.43416,0.1666 -0.167344,0.27077 -0.167344,0.27077 -0.262972,-0.16253 -0.262974,-0.16252 -0.512493,0.4638 -0.512495,0.4638 v 1.28191 1.28191 h -0.264584 z m 4.7625,0 h -0.264583 v -2.77813 -2.77812 h 0.378341 0.378343 l 1.115304,2.02043 1.115301,2.02043 1.086043,-2.01635 1.086043,-2.01635 0.330729,-0.004 0.330729,-0.004 v 2.77812 2.77813 h -0.253883 -0.253884 l -0.07684,-2.18282 -0.07685,-2.18281 -0.926042,1.70408 -0.926041,1.70408 -0.276241,0.0857 -0.276241,0.0858 -0.914384,-1.72145 -0.914384,-1.72144 -0.198438,-0.002 -0.198437,-0.002 v 2.11667 2.11667 z m 8.460563,-0.0575 -1.326756,0.0748 -0.169428,-0.44153 -0.169426,-0.44152 0.266462,-0.42706 0.266464,-0.42705 0.978175,-0.24801 0.978176,-0.24801 -0.07805,-0.54574 -0.07805,-0.54574 -0.994936,0.0304 -0.994937,0.0304 0.299728,-0.36115 0.299731,-0.36115 h 0.708435 0.708438 l 0.3175,0.3175 0.3175,0.3175 -0.0011,1.60073 -0.0011,1.60073 -1.326756,0.0748 z m -0.319699,-0.20712 h 0.484553 l 0.3175,-0.3175 0.3175,-0.3175 v -0.50493 -0.50493 l -0.727604,0.17969 -0.727604,0.1797 -0.233569,0.22808 -0.233572,0.22808 0.159121,0.41465 0.15912,0.41466 z m 3.23622,0.26459 h -0.264584 l 0.0084,-2.05052 0.0084,-2.05052 0.343154,0.45163 0.343154,0.45163 0.421664,-0.42167 0.421666,-0.42166 0.483537,0.20941 0.483537,0.20942 -0.529167,0.11866 -0.529167,0.11866 -0.463021,0.41057 -0.46302,0.41057 v 1.28191 1.28191 h -0.264584 z m 4.226698,0 h -0.757108 l -0.41188,-0.58804 -0.411877,-0.58804 v -0.81728 -0.81728 l 0.553408,-0.59401 0.553405,-0.59401 0.815279,0.0811 0.815282,0.0811 0.09103,0.27813 0.09104,0.27812 -0.92629,-0.10813 -0.926288,-0.10814 -0.283525,0.74572 -0.283525,0.74573 0.154266,0.61464 0.154265,0.61463 0.646322,0.29449 0.646324,0.29448 0.381156,-0.31633 0.381153,-0.31633 0.154329,0.24971 0.154326,0.2497 -0.416994,0.16002 -0.416994,0.16002 z m 4.2907,-0.0597 -1.272183,0.0554 -0.315317,-0.31532 -0.315315,-0.31531 v -1.66688 -1.66687 h 0.264584 0.264583 v 1.5551 1.5551 l 0.404709,0.33588 0.404712,0.33588 0.653622,-0.29781 0.653624,-0.29781 v -1.59317 -1.59317 h 0.264583 0.264583 v 1.92683 1.92684 z m 3.504361,0.0597 h -0.87803 l -0.140909,-0.228 -0.140909,-0.22799 0.976362,0.0296 0.976363,0.0296 0.09533,-0.46801 0.09534,-0.46802 -0.928312,-0.38787 -0.928311,-0.38787 -0.167463,-0.27096 -0.167463,-0.27096 0.162904,-0.51327 0.162904,-0.51326 0.534728,-0.16972 0.534728,-0.16971 0.673585,0.16905 0.673584,0.16906 -0.169826,0.16983 -0.169825,0.16982 -0.853583,0.0157 -0.853583,0.0157 v 0.35898 0.35898 l 0.922584,0.43562 0.922581,0.43562 0.09145,0.47488 0.09145,0.47488 -0.318828,0.38417 -0.318828,0.38416 h -0.878031 z m 4.5147,0 h -0.396875 v -2.77813 -2.77812 h 1.719791 1.719792 v 0.26458 0.26458 h -1.322917 -1.322916 v 1.05834 1.05833 h 1.190625 1.190625 v 0.26458 0.26459 h -1.190625 -1.190625 v 1.19062 1.19063 z m 4.101041,0 h -0.264583 v -1.98438 -1.98437 h 0.264583 0.264584 v 0.43788 0.43788 l 0.483854,-0.43788 0.483854,-0.43788 h 0.442188 0.442187 v 0.26458 0.26458 h -0.488159 -0.488159 l -0.437882,0.48386 -0.437883,0.48385 v 1.23594 1.23594 z m 4.230175,-0.0526 -1.325973,0.0797 -0.171291,-0.44638 -0.171291,-0.44638 0.266461,-0.42706 0.266465,-0.42705 0.978175,-0.24801 0.978175,-0.24801 -0.07805,-0.54574 -0.07805,-0.54574 -1.044681,0.0348 -1.044681,0.0348 0.499939,-0.36556 0.499938,-0.36556 h 0.557972 0.557972 l 0.3175,0.3175 0.3175,0.3175 -5.1e-5,1.60073 -5.3e-5,1.60073 z m -0.322644,-0.21198 h 0.484553 l 0.3175,-0.3175 0.3175,-0.3175 v -0.50493 -0.50493 l -0.727604,0.17969 -0.727604,0.1797 -0.233569,0.22808 -0.233572,0.22808 0.159121,0.41465 0.15912,0.41466 z m 3.23622,0.26459 h -0.264584 v -2.03729 -2.0373 l 0.286314,0.28632 0.286316,0.28631 0.778748,-0.29394 0.778751,-0.29395 0.45629,0.28661 0.45629,0.2866 0.07823,1.75832 0.07823,1.75832 h -0.264046 -0.264049 l -0.07877,-1.65365 -0.07877,-1.65364 -0.609875,-0.0865 -0.609875,-0.0865 -0.382313,0.31729 -0.382312,0.31729 v 1.42281 1.42282 z m 5.4901039,-0.0462 -1.5213542,0.0462 v -0.2168 -0.2168 l 1.0742216,-1.43685 1.0742243,-1.43684 -1.0742243,-0.0814 -1.0742216,-0.0814 v -0.24937 -0.24937 h 1.4552084 1.4552084 v 0.21679 0.2168 l -1.0583334,1.41849 -1.0583333,1.41849 v 0.20158 0.20159 l 1.1244792,0.10128 1.1244792,0.10128 z m -26.8551059,-28.102312 -1.521457,0.111717 -0.956451,-0.357915 -0.95645,-0.357917 -0.763341,-0.551122 -0.763342,-0.551122 -1.179568,-1.212133 -1.179568,-1.212136 h -2.019528 -2.019527 l -1.205759,-0.362881 -1.20576,-0.362879 -0.940025,-0.716991 -0.940024,-0.716992 -0.674392,-1.353328 -0.674391,-1.353328 v -2.404483 -2.404486 l -1.476645,-1.44617 -1.476647,-1.44617 -0.640019,-1.247976 -0.640022,-1.247974 0.0026,-1.53015 0.0026,-1.53015 0.628677,-1.322917 0.628676,-1.322916 1.485406,-1.446171 1.485405,-1.44617 0.0058,-2.390288 0.0058,-2.390288 0.485489,-1.058333 0.485489,-1.058334 0.762003,-0.754203 0.762005,-0.754202 1.061799,-0.551545 1.061803,-0.551544 2.513541,-0.108569 2.513542,-0.10857 1.5875,-1.534484 1.5875,-1.534485 0.926042,-0.4838 0.926041,-0.4838 h 1.852084 1.852083 l 0.926042,0.4838 0.926042,0.4838 1.5875,1.534485 1.5875,1.534484 2.513541,0.10857 2.513542,0.108569 1.061802,0.551544 1.0618,0.551545 0.762005,0.754202 0.762003,0.754203 0.485489,1.058334 0.485489,1.058333 0.0058,2.360067 0.0058,2.360067 1.724644,1.78642 1.724642,1.786421 0.418483,1.001567 0.418481,1.001568 v 1.477848 1.477849 l -0.418481,1.001567 -0.418483,1.001567 -1.724642,1.786422 -1.724644,1.786419 v 2.374265 2.374262 l -0.674391,1.353328 -0.674392,1.353328 -0.940024,0.716992 -0.940025,0.716991 -1.20576,0.362879 -1.205759,0.362881 h -2.018416 -2.018416 l -1.312971,1.343554 -1.312972,1.343555 -1.124376,0.6659 -1.124376,0.665901 -1.521457,0.111718 z m -0.520771,-7.580567 2.059019,0.01035 0.896247,-0.374475 0.896247,-0.374475 0.285879,-0.534173 0.28588,-0.534172 v -3.009533 -3.009532 l 0.375277,-0.513591 0.375275,-0.51359 3.477056,-0.132292 3.477056,-0.132292 0.50741,-0.661458 0.50741,-0.661458 0.0059,-2.592827 0.0059,-2.592816 -0.401687,-0.776778 -0.401688,-0.776778 -0.5905,-0.125745 -0.5905,-0.125746 -3.001589,-0.08158 -3.00159,-0.08158 -0.371848,-0.508532 -0.371848,-0.508532 v -3.095119 -3.095118 l -0.463021,-0.57176 -0.463021,-0.57176 -1.190625,-0.270298 -1.190625,-0.270297 -2.093928,0.182668 -2.093929,0.182668 -0.61805,0.618051 -0.618051,0.618052 v 3.072129 3.072129 l -0.273892,0.511772 -0.273894,0.511773 h -2.909604 -2.909607 l -0.896247,0.374476 -0.896247,0.374475 -0.28588,0.534172 -0.285879,0.534172 v 2.513711 2.513712 l 0.2629,0.69148 0.262901,0.691481 0.952836,0.398121 0.952836,0.398119 2.710545,-0.08019 2.710543,-0.08019 0.439346,0.363125 0.439343,0.363127 v 3.159999 3.159995 l 0.285417,0.533305 0.285413,0.533305 0.839066,0.364987 0.839062,0.364987 2.05902,0.01035 z m -0.89394,-10.160315 -0.214342,0.132472 -0.273201,-1.014586 -0.273198,-1.014586 -0.169098,-0.845481 -0.169095,-0.845481 h -0.23151 -0.231511 v 0.375163 0.375164 l -1.785937,0.1012 -1.785938,0.1012 -0.46079,0.212546 -0.460791,0.212546 -0.173077,-0.451029 -0.173074,-0.45103 0.360407,-0.222745 0.36041,-0.222746 0.317281,0.263319 0.317277,0.263318 1.53488,-0.08002 1.53488,-0.08001 0.245512,-0.859896 0.24551,-0.859896 h 0.216111 0.216109 l 0.289034,1.124479 0.289033,1.124479 0.209267,0.661459 0.209264,0.661458 0.60697,-3.241146 0.60697,-3.241146 h 0.195022 0.195022 l 0.464288,2.447396 0.464288,2.447396 0.229995,0.251354 0.229994,0.251354 v -0.3175 -0.3175 h 2.06375 2.06375 l 0.275797,-0.275797 0.275796,-0.275796 0.291153,0.350816 0.291153,0.350816 -0.215803,0.349173 -0.215799,0.349172 -0.54542,-0.2919 -0.545423,-0.2919 h -1.598099 -1.598099 l -0.441659,0.854075 -0.441661,0.854075 -0.188965,-0.523346 -0.188966,-0.523346 -0.35075,-1.785938 -0.350753,-1.785937 h -0.173288 -0.173287 l -0.477525,2.78593 -0.477523,2.78593 z"
         id="path189" />
      <path
         style="fill:#4c9822;stroke-width:0.264583"
         d="m -61.976413,110.15489 h -1.472602 v -2.77813 -2.77812 h 1.336056 1.336056 l 0.729099,0.37703 0.729102,0.37703 0.316092,0.69375 0.316095,0.69375 v 0.66215 0.66215 l -0.399613,0.77277 -0.399614,0.77276 -0.509034,0.27243 -0.509035,0.27243 z m 0.24719,-0.52917 h 1.190625 l 0.529167,-0.52917 0.529166,-0.52916 v -1.10743 -1.10743 l -0.575286,-0.61236 -0.575289,-0.61237 h -1.144503 -1.144505 v 2.24896 2.24896 z m 4.365625,0.52917 h -0.264583 l 0.0084,-2.05052 0.0084,-2.05052 0.343154,0.45163 0.343154,0.45163 0.421664,-0.42167 0.421667,-0.42166 0.43416,0.1666 0.43416,0.1666 -0.167344,0.27077 -0.167344,0.27077 -0.262972,-0.16253 -0.262974,-0.16252 -0.512493,0.4638 -0.512495,0.4638 v 1.28191 1.28191 h -0.264584 z m 4.7625,0 h -0.264583 v -2.77813 -2.77812 h 0.378341 0.378343 l 1.115304,2.02043 1.115301,2.02043 1.086043,-2.01635 1.086043,-2.01635 0.330729,-0.004 0.330729,-0.004 v 2.77812 2.77813 h -0.253883 -0.253884 l -0.07684,-2.18282 -0.07685,-2.18281 -0.926042,1.70408 -0.926041,1.70408 -0.276241,0.0857 -0.276241,0.0858 -0.914384,-1.72145 -0.914384,-1.72144 -0.198438,-0.002 -0.198437,-0.002 v 2.11667 2.11667 z m 8.460563,-0.0575 -1.326756,0.0748 -0.169428,-0.44153 -0.169426,-0.44152 0.266462,-0.42706 0.266464,-0.42705 0.978175,-0.24801 0.978176,-0.24801 -0.07805,-0.54574 -0.07805,-0.54574 -0.994936,0.0304 -0.994937,0.0304 0.299728,-0.36115 0.299731,-0.36115 h 0.708435 0.708438 l 0.3175,0.3175 0.3175,0.3175 -0.0011,1.60073 -0.0011,1.60073 -1.326756,0.0748 z m -0.319699,-0.20712 h 0.484553 l 0.3175,-0.3175 0.3175,-0.3175 v -0.50493 -0.50493 l -0.727604,0.17969 -0.727604,0.1797 -0.233569,0.22808 -0.233572,0.22808 0.159121,0.41465 0.15912,0.41466 z m 3.23622,0.26459 h -0.264584 l 0.0084,-2.05052 0.0084,-2.05052 0.343154,0.45163 0.343154,0.45163 0.421664,-0.42167 0.421666,-0.42166 0.483537,0.20941 0.483537,0.20942 -0.529167,0.11866 -0.529167,0.11866 -0.463021,0.41057 -0.46302,0.41057 v 1.28191 1.28191 h -0.264584 z m 4.226698,0 h -0.757108 l -0.41188,-0.58804 -0.411877,-0.58804 v -0.81728 -0.81728 l 0.553408,-0.59401 0.553405,-0.59401 0.815279,0.0811 0.815282,0.0811 0.09103,0.27813 0.09104,0.27812 -0.92629,-0.10813 -0.926288,-0.10814 -0.283525,0.74572 -0.283525,0.74573 0.154266,0.61464 0.154265,0.61463 0.646322,0.29449 0.646324,0.29448 0.381156,-0.31633 0.381153,-0.31633 0.154329,0.24971 0.154326,0.2497 -0.416994,0.16002 -0.416994,0.16002 z m 4.2907,-0.0597 -1.272183,0.0554 -0.315317,-0.31532 -0.315315,-0.31531 v -1.66688 -1.66687 h 0.264584 0.264583 v 1.5551 1.5551 l 0.404709,0.33588 0.404712,0.33588 0.653622,-0.29781 0.653624,-0.29781 v -1.59317 -1.59317 h 0.264583 0.264583 v 1.92683 1.92684 z m 3.504361,0.0597 h -0.87803 l -0.140909,-0.228 -0.140909,-0.22799 0.976362,0.0296 0.976363,0.0296 0.09533,-0.46801 0.09534,-0.46802 -0.928312,-0.38787 -0.928311,-0.38787 -0.167463,-0.27096 -0.167463,-0.27096 0.162904,-0.51327 0.162904,-0.51326 0.534728,-0.16972 0.534728,-0.16971 0.673585,0.16905 0.673584,0.16906 -0.169826,0.16983 -0.169825,0.16982 -0.853583,0.0157 -0.853583,0.0157 v 0.35898 0.35898 l 0.922584,0.43562 0.922581,0.43562 0.09145,0.47488 0.09145,0.47488 -0.318828,0.38417 -0.318828,0.38416 h -0.878031 z m 4.5147,0 h -0.396875 v -2.77813 -2.77812 h 1.719791 1.719792 v 0.26458 0.26458 h -1.322917 -1.322916 v 1.05834 1.05833 h 1.190625 1.190625 v 0.26458 0.26459 h -1.190625 -1.190625 v 1.19062 1.19063 z m 4.101041,0 h -0.264583 v -1.98438 -1.98437 h 0.264583 0.264584 v 0.43788 0.43788 l 0.483854,-0.43788 0.483854,-0.43788 h 0.442188 0.442187 v 0.26458 0.26458 h -0.488159 -0.488159 l -0.437882,0.48386 -0.437883,0.48385 v 1.23594 1.23594 z m 4.230175,-0.0526 -1.325973,0.0797 -0.171291,-0.44638 -0.171291,-0.44638 0.266461,-0.42706 0.266465,-0.42705 0.978175,-0.24801 0.978175,-0.24801 -0.07805,-0.54574 -0.07805,-0.54574 -1.044681,0.0348 -1.044681,0.0348 0.499939,-0.36556 0.499938,-0.36556 h 0.557972 0.557972 l 0.3175,0.3175 0.3175,0.3175 -5.1e-5,1.60073 -5.3e-5,1.60073 z m -0.322644,-0.21198 h 0.484553 l 0.3175,-0.3175 0.3175,-0.3175 v -0.50493 -0.50493 l -0.727604,0.17969 -0.727604,0.1797 -0.233569,0.22808 -0.233572,0.22808 0.159121,0.41465 0.15912,0.41466 z m 3.23622,0.26459 h -0.264584 v -2.03729 -2.0373 l 0.286314,0.28632 0.286316,0.28631 0.778748,-0.29394 0.778751,-0.29395 0.45629,0.28661 0.45629,0.2866 0.07823,1.75832 0.07823,1.75832 h -0.264046 -0.264049 l -0.07877,-1.65365 -0.07877,-1.65364 -0.609875,-0.0865 -0.609875,-0.0865 -0.382313,0.31729 -0.382312,0.31729 v 1.42281 1.42282 z m 5.4901039,-0.0462 -1.5213542,0.0462 v -0.2168 -0.2168 l 1.0742216,-1.43685 1.0742243,-1.43684 -1.0742243,-0.0814 -1.0742216,-0.0814 v -0.24937 -0.24937 h 1.4552084 1.4552084 v 0.21679 0.2168 l -1.0583334,1.41849 -1.0583333,1.41849 v 0.20158 0.20159 l 1.1244792,0.10128 1.1244792,0.10128 z m -33.0859399,-32.253829 -0.846874,-0.02089 -0.330729,-0.133453 -0.330729,-0.133453 V 77.324506 77.08197 h 0.529167 0.529166 v -1.5875 -1.5875 l 0.463021,-0.01934 0.463021,-0.01934 -1.455208,-0.513672 -1.455209,-0.513673 -2.469499,-1.222751 -2.469502,-1.222751 -0.142872,-0.372324 -0.142875,-0.372321 0.13934,-0.139338 0.139338,-0.139338 1.073433,0.547624 1.07343,0.547624 0.07669,5.3e-4 0.07669,5.29e-4 V 68.285193 66.10196 l -0.264583,-0.194387 -0.264584,-0.194384 3.18823,-0.004 3.188229,-0.004 0.3175,0.3175 0.3175,0.3175 v 3.139477 3.139477 l 0.272425,0.509034 0.272429,0.509035 0.772766,0.399613 0.772768,0.399614 h 2.112582 2.112581 l 0.744829,-0.267883 0.744828,-0.26788 -0.926041,0.80156 -0.926042,0.801561 -1.852083,0.895871 -1.852084,0.895871 -1.402085,0.290243 -1.402085,0.29024 -0.846873,-0.02088 z m 13.200248,-0.508277 h -0.09035 l -0.164928,-0.824643 -0.164928,-0.824643 0.479732,-0.658566 0.479732,-0.658567 -1.538502,-1.467482 -1.538502,-1.467482 -0.03974,-0.422746 -0.03974,-0.422746 -0.185106,1.190625 -0.185105,1.190625 -0.03974,-3.126248 -0.03974,-3.126248 0.273892,-0.511773 0.273894,-0.511773 2.173501,-0.01932 2.173505,-0.01931 1.421421,-0.201983 1.421424,-0.201986 0.50383,-0.638595 0.50383,-0.638599 -0.07317,-2.967816 -0.07317,-2.967817 -0.471543,-0.471767 -0.471541,-0.471766 -0.851376,-0.333118 -0.851374,-0.333118 0.727604,0.139721 0.727605,0.139721 V 56.439082 56.15902 l 0.883097,-1.311325 0.8831,-1.311325 0.129585,0.06499 0.129585,0.06499 -1.207268,-1.127464 -1.20727,-1.127464 -2.120519,-1.046722 -2.120519,-1.046721 -2.248958,-0.56699 -2.248959,-0.566991 -0.870055,-0.133228 -0.870056,-0.133228 -1.972593,0.184847 -1.972594,0.184847 -0.573521,0.46441 -0.573521,0.464409 -0.188736,1.166815 -0.188732,1.166814 -0.03312,-0.87729 -0.03312,-0.87729 0.3079,-0.577918 0.307901,-0.577919 -0.423841,0.349556 -0.423844,0.349557 -1.77759,-0.06444 -1.777592,-0.06444 -0.631804,0.77322 -0.631804,0.773221 -0.934273,1.648736 -0.934273,1.648736 -0.796383,2.435716 -0.796382,2.435716 0.08881,2.701501 0.0888,2.701503 0.396875,0.499128 0.396875,0.499129 -1.123526,-1.199666 -1.123527,-1.199666 -0.928807,-1.852083 -0.928806,-1.852084 -0.297754,-2.138729 -0.297757,-2.138729 0.460801,-0.70327 0.460801,-0.70327 0.23564,0.145635 0.235644,0.145635 v 0.65967 0.659671 l 1.36254,-0.07997 1.362538,-0.07997 0.966214,-2.409785 0.966213,-2.409784 1.155838,-1.945566 1.15584,-1.945567 2.267974,-2.352664 2.267974,-2.352663 1.060455,-0.560169 1.060456,-0.560169 h 1.852083 1.852083 l 1.058334,0.562126 1.058333,0.562127 1.673516,1.738236 1.673514,1.738236 -0.167775,0.271467 -0.167775,0.271467 h -0.513554 -0.513551 v 1.190625 1.190625 l -0.01241,0.170851 -0.01241,0.170852 2.195211,0.711211 2.195214,0.711211 1.322916,0.69195 1.322917,0.69195 0.79375,0.53565 0.79375,0.53565 2.585702,2.586691 2.585701,2.586692 0.549611,1.130379 0.549611,1.130378 v 1.526775 1.526775 l -0.416372,0.996519 -0.416372,0.996519 -1.579822,1.645221 -1.579824,1.645222 -0.649761,0.05377 -0.649764,0.05378 -0.150323,-0.391732 -0.150321,-0.391731 h -1.066638 -1.066636 l -0.01879,-0.463021 -0.01879,-0.463021 -0.525772,1.852084 -0.525772,1.852083 -0.889506,1.852083 -0.889505,1.852084 -1.352926,1.785937 -1.352925,1.785938 h -0.09035 z m -2.670038,-6.879167 h 0.132292 v -0.132292 -0.132291 h -0.132292 -0.132292 v 0.132291 0.132292 z m -7.672917,-22.489583 h 0.132292 V 47.845512 47.71322 h -0.132292 -0.132291 v 0.132292 0.132292 z m 6.847938,25.664583 h -0.132291 l 0.16352,-0.264583 0.163521,-0.264584 h 0.132291 0.132292 l -0.163521,0.264584 -0.16352,0.264583 z m -15.579188,-7.9375 h -0.132292 v -0.132292 -0.132291 h 0.132292 0.132292 v 0.132291 0.132292 z m 10.69008,-1.439421 -0.214342,0.132472 -0.273201,-1.014586 -0.273198,-1.014586 -0.169098,-0.845481 -0.169095,-0.845481 h -0.23151 -0.231511 v 0.375163 0.375164 l -1.785937,0.1012 -1.785938,0.1012 -0.46079,0.212546 -0.460791,0.212546 -0.173077,-0.451029 -0.173074,-0.45103 0.360407,-0.222745 0.36041,-0.222746 0.317281,0.263319 0.317277,0.263318 1.53488,-0.08002 1.53488,-0.08001 0.245512,-0.859896 0.24551,-0.859896 h 0.216111 0.216109 l 0.289034,1.124479 0.289033,1.124479 0.209267,0.661459 0.209264,0.661458 0.60697,-3.241146 0.60697,-3.241146 h 0.195022 0.195022 l 0.464288,2.447396 0.464288,2.447396 0.229995,0.251354 0.229994,0.251354 v -0.3175 -0.3175 h 2.06375 2.06375 l 0.275797,-0.275797 0.275796,-0.275796 0.291153,0.350816 0.291153,0.350816 -0.215803,0.349173 -0.215799,0.349172 -0.54542,-0.2919 -0.545423,-0.2919 h -1.598099 -1.598099 l -0.441659,0.854075 -0.441661,0.854075 -0.188965,-0.523346 -0.188966,-0.523346 -0.35075,-1.785938 -0.350753,-1.785937 h -0.173288 -0.173287 l -0.477525,2.78593 -0.477523,2.78593 z"
         id="path187" />
      <path
         style="fill:#368b23;stroke-width:0.264583"
         d="m -61.976413,110.15489 h -1.472602 v -2.77813 -2.77812 h 1.336056 1.336056 l 0.729099,0.37703 0.729102,0.37703 0.316092,0.69375 0.316095,0.69375 v 0.66215 0.66215 l -0.399613,0.77277 -0.399614,0.77276 -0.509034,0.27243 -0.509035,0.27243 z m 0.24719,-0.52917 h 1.190625 l 0.529167,-0.52917 0.529166,-0.52916 v -1.10743 -1.10743 l -0.575286,-0.61236 -0.575289,-0.61237 h -1.144503 -1.144505 v 2.24896 2.24896 z m 4.365625,0.52917 h -0.264583 l 0.0084,-2.05052 0.0084,-2.05052 0.394298,0.52157 0.394298,0.52157 -0.138128,0.35996 -0.138131,0.35996 v 1.16899 1.16899 h -0.264584 z m 4.7625,0 h -0.264583 v -2.77813 -2.77812 h 0.378341 0.378343 l 1.110298,2.01136 1.110297,2.01136 0.752886,-1.28375 0.752885,-1.28376 0.304114,-0.72761 0.304118,-0.7276 h 0.364776 0.364775 v 2.77812 2.77813 h -0.253883 -0.253884 l -0.07684,-2.18282 -0.07685,-2.18281 -0.926042,1.70408 -0.926041,1.70408 -0.276241,0.0857 -0.276241,0.0858 -0.914384,-1.72145 -0.914384,-1.72144 -0.198438,-0.002 -0.198437,-0.002 v 2.11667 2.11667 z m 8.460563,-0.0575 -1.326756,0.0748 -0.169428,-0.44153 -0.169426,-0.44152 0.266462,-0.42706 0.266464,-0.42705 0.978175,-0.24801 0.978176,-0.24801 -0.07805,-0.54574 -0.07805,-0.54574 -1.04468,0.0348 -1.044681,0.0348 0.499938,-0.36556 0.499938,-0.36556 h 0.363699 0.363699 l 0.511773,0.27389 0.511773,0.27389 -0.0011,1.64434 -0.0011,1.64434 -1.326756,0.0748 z m -0.319699,-0.20712 h 0.484553 l 0.3175,-0.3175 0.3175,-0.3175 v -0.50493 -0.50493 l -0.727604,0.17969 -0.727604,0.1797 -0.233569,0.22808 -0.233572,0.22808 0.159121,0.41465 0.15912,0.41466 z m 3.23622,0.26459 h -0.264584 l 0.0084,-2.05052 0.0084,-2.05052 0.343154,0.45163 0.343154,0.45163 0.421664,-0.42167 0.421666,-0.42166 0.483537,0.20941 0.483537,0.20942 -0.529167,0.11866 -0.529167,0.11866 -0.463021,0.41057 -0.46302,0.41057 v 1.28191 1.28191 h -0.264584 z m 4.226698,0 h -0.757108 l -0.41188,-0.58804 -0.411877,-0.58804 v -0.82105 -0.82105 l 0.612365,-0.57529 0.612365,-0.57528 h 0.424328 0.424331 l 0.418513,0.1606 0.418515,0.1606 v 0.18314 0.18315 l -0.918903,-0.10728 -0.918906,-0.10727 -0.319048,0.70023 -0.319045,0.70023 0.245763,0.68954 0.245764,0.68953 0.462105,0.29006 0.462108,0.29007 0.517814,-0.32339 0.517816,-0.32338 0.143039,0.23144 0.143036,0.23144 -0.416994,0.16002 -0.416994,0.16002 z m 4.2907,-0.0597 -1.272183,0.0554 -0.315317,-0.31532 -0.315315,-0.31531 v -1.66688 -1.66687 h 0.264584 0.264583 v 1.5551 1.5551 l 0.404709,0.33588 0.404712,0.33588 0.653622,-0.29781 0.653624,-0.29781 v -1.59317 -1.59317 h 0.264583 0.264583 v 1.92683 1.92684 z m 3.504361,0.0597 h -0.87803 l -0.140909,-0.228 -0.140909,-0.22799 0.976362,0.0296 0.976363,0.0296 0.09533,-0.46801 0.09534,-0.46802 -0.928312,-0.38787 -0.928311,-0.38787 -0.167463,-0.27096 -0.167463,-0.27096 0.162904,-0.51327 0.162904,-0.51326 0.534728,-0.16972 0.534728,-0.16971 0.673585,0.16905 0.673584,0.16906 -0.169826,0.16983 -0.169825,0.16982 -0.853583,0.0157 -0.853583,0.0157 v 0.35898 0.35898 l 0.922584,0.43562 0.922581,0.43562 0.09145,0.47488 0.09145,0.47488 -0.318828,0.38417 -0.318828,0.38416 h -0.878031 z m 4.5147,0 h -0.396875 v -2.77813 -2.77812 h 1.719791 1.719792 v 0.26458 0.26458 h -1.322917 -1.322916 v 1.05834 1.05833 h 1.190625 1.190625 v 0.26458 0.26459 h -1.190625 -1.190625 v 1.19062 1.19063 z m 4.101041,0 h -0.264583 v -1.98438 -1.98437 h 0.264583 0.264584 v 0.43788 0.43788 l 0.483854,-0.43788 0.483854,-0.43788 h 0.442188 0.442187 v 0.26458 0.26458 h -0.488159 -0.488159 l -0.437882,0.48386 -0.437883,0.48385 v 1.23594 1.23594 z m 4.22723,-0.0575 -1.326756,0.0748 -0.169428,-0.44153 -0.169426,-0.44152 0.266461,-0.42706 0.266465,-0.42705 0.978175,-0.24801 0.978175,-0.24801 -0.07805,-0.54574 -0.07805,-0.54574 -1.044681,0.0348 -1.044681,0.0348 0.499939,-0.36556 0.499938,-0.36556 h 0.363699 0.363699 l 0.511773,0.27389 0.511773,0.27389 -0.0011,1.64434 -0.0011,1.64434 -1.326756,0.0748 z m -0.319699,-0.20712 h 0.484553 l 0.3175,-0.3175 0.3175,-0.3175 v -0.50493 -0.50493 l -0.727604,0.17969 -0.727604,0.1797 -0.233569,0.22808 -0.233572,0.22808 0.159121,0.41465 0.15912,0.41466 z m 3.23622,0.26459 h -0.264584 v -2.03729 -2.0373 l 0.29704,0.29704 0.29704,0.29704 0.629002,-0.28659 0.629002,-0.28659 0.661458,0.30138 0.661458,0.30138 v 1.72546 1.72547 h -0.251957 -0.25196 l -0.07877,-1.65365 -0.07877,-1.65364 -0.609875,-0.0865 -0.609875,-0.0865 -0.382313,0.31729 -0.382312,0.31729 v 1.42281 1.42282 z m 5.4901039,-0.0462 -1.5213542,0.0462 v -0.2168 -0.2168 l 1.0742216,-1.43685 1.0742243,-1.43684 -1.0742243,-0.0814 -1.0742216,-0.0814 v -0.24937 -0.24937 h 1.4552084 1.4552084 v 0.21679 0.2168 l -1.0583334,1.41849 -1.0583333,1.41849 v 0.20158 0.20159 l 1.1244792,0.10128 1.1244792,0.10128 z m -48.2203139,-3.28087 -0.79375,0.18692 0.442505,-0.45047 0.442505,-0.45046 0.455261,0.1747 0.45526,0.1747 -0.104015,0.0888 -0.104016,0.0888 z m 18.256793,-29.625871 -0.793208,0.187648 0.153453,-0.153453 0.153451,-0.153453 1.896528,-0.922983 1.896525,-0.922983 v -0.25349 -0.253492 l -1.256771,-0.0991 -1.25677,-0.0991 2.02888,-0.04769 2.028884,-0.04769 0.484658,-0.163023 0.484661,-0.16302 -1.258657,0.925001 -1.25866,0.925002 -1.254882,0.527087 -1.254884,0.527087 z m 3.703624,-2.236615 h 0.132292 V 74.833012 74.70072 h -0.132292 -0.132291 v 0.132292 0.132292 z m -4.412567,-0.807927 -0.08535,-0.01418 -1.984375,-0.595273 -1.984376,-0.595276 -0.79375,-0.43829 -0.79375,-0.438287 0.289309,-0.01058 0.289309,-0.01058 1.555104,0.535035 1.555107,0.535035 0.338397,-0.129857 0.3384,-0.129855 v -3.150907 -3.150907 l -0.33073,-0.26851 -0.330729,-0.268507 -0.529166,-0.130072 -0.529167,-0.130072 0.576413,-0.03069 0.576413,-0.03069 0.415775,0.415774 0.415774,0.415774 v 3.120419 3.120419 l 0.54837,0.69714 0.54837,0.697141 -0.08535,-0.01418 z m -1.143683,-0.779573 h 0.132292 V 73.245512 73.11322 h -0.132292 -0.132291 v 0.132292 0.132292 z m 14.816667,-0.264584 h -0.132291 v -0.132291 -0.132292 h 0.132291 0.132292 v 0.132292 0.132291 z m 0.964531,-1.984832 -0.736166,1.587042 -0.152374,-0.582676 -0.152373,-0.582679 0.811768,-2.126485 0.811765,-2.126485 -0.355264,-0.663819 -0.355264,-0.663816 -1.476645,-0.03756 -1.476644,-0.03757 1.830128,-0.185616 1.830131,-0.185618 0.649308,-0.754867 0.649309,-0.754867 -0.182663,1.176486 -0.182666,1.176485 -0.38809,1.5875 -0.388094,1.5875 z m 0.358386,-5.158918 h 0.132292 v -0.132291 -0.132292 h -0.132292 -0.132292 v 0.132292 0.132291 z m 6.66005,0.484267 -1.381874,1.364708 -0.325922,-2.048447 -0.325922,-2.048446 1.655583,-2.439932 1.655585,-2.439932 0.302422,-0.008 0.302421,-0.008 0.200417,0.463021 0.200416,0.46302 0.111964,1.360856 0.111964,1.360857 -0.562592,1.307778 -0.562591,1.307777 -1.381871,1.364708 z m -31.308928,-2.07115 -0.04262,-5.29e-4 -0.727218,-0.859896 -0.727218,-0.859896 -0.729615,-1.5875 -0.729618,-1.5875 -0.170238,-0.926042 -0.170241,-0.926041 0.276585,0.396875 0.276585,0.396875 0.02339,-0.396875 0.02339,-0.396875 0.484384,1.361588 0.484383,1.361587 0.452475,0.953517 0.452471,0.953516 h 0.219941 0.21994 l 0.08842,-1.256771 0.08841,-1.256771 0.124519,2.315722 0.124518,2.315722 -0.04263,-5.29e-4 z m -0.486539,-1.588117 h 0.132291 v -0.132291 -0.132292 h -0.132291 -0.132292 v 0.132292 0.132291 z m 12.56439,1.31158 -0.211351,0.385535 -0.267798,-1.046995 -0.267798,-1.046995 -0.175057,-0.859896 -0.175056,-0.859895 h -0.243562 -0.24356 v 0.396875 0.396875 h -1.799166 -1.799167 l -0.275797,0.275797 -0.275796,0.275796 -0.338685,-0.408088 -0.338683,-0.408089 0.230836,-0.03201 0.230833,-0.03201 1.97212,-0.03413 1.972122,-0.03413 0.248965,-0.859896 0.248968,-0.859896 h 0.207332 0.207336 l 0.325427,1.521354 0.325427,1.521354 0.195318,0.223957 0.195315,0.223957 0.273852,-1.28229 0.273851,-1.28229 0.309873,-1.785938 0.309874,-1.785937 h 0.2046 0.204597 l 0.467302,2.447395 0.467299,2.447396 0.109077,0.12463 0.109077,0.124629 0.18405,-0.294714 0.184052,-0.294714 2.38125,-0.06166 2.38125,-0.06166 0.230833,0.03331 0.230836,0.03331 -0.338683,0.408089 -0.338685,0.408088 -0.275796,-0.275796 -0.275797,-0.275797 h -1.931458 -1.931459 v 0.346305 0.346305 l -0.353528,0.483478 -0.353526,0.483478 -0.490725,-2.417283 -0.490723,-2.417283 h -0.168023 -0.168024 l -0.471207,2.711979 -0.471207,2.711979 z m 16.436582,-0.713359 -0.500068,0.130771 -0.756703,-1.88585 -0.756701,-1.88585 -0.144618,1.455208 -0.144621,1.455209 -0.119963,-2.293571 -0.119964,-2.293571 0.713176,0.838363 0.713179,0.838362 0.808175,1.619968 0.808178,1.619969 v 0.13511 0.13511 z m -18.131415,-15.254288 -0.418515,0.160599 v -0.138707 -0.138708 l 1.550746,-1.035549 1.55075,-1.03555 1.241853,-0.347698 1.241857,-0.347698 0.266623,0.266624 0.266623,0.266624 -2.19933,0.896295 -2.199331,0.896294 1.190625,0.158698 1.190625,0.158699 -1.632005,0.03974 -1.632009,0.03974 z m 2.624193,-5.187683 h -4.630208 v -0.215082 -0.215082 l 0.757824,-0.726042 0.757825,-0.726041 1.268601,-0.381793 1.2686,-0.381793 h 0.571386 0.571387 l 1.304792,0.390024 1.304793,0.390023 0.727604,0.679018 0.727604,0.679017 v 0.253875 0.253876 z"
         id="path185" />
      <path
         style="fill:#0d721e;stroke-width:0.264583"
         d="m -62.112959,110.15489 h -1.336056 v -2.80993 -2.80992 l 1.583875,0.11456 1.583878,0.11457 0.651357,0.61192 0.651356,0.61192 0.166839,0.7596 0.166838,0.75961 -0.307443,0.93156 -0.307441,0.93156 -0.758573,0.39227 -0.758574,0.39228 z m 0.623083,-0.38371 1.033098,-0.1648 0.250669,-0.15492 0.250671,-0.15492 0.382908,-0.91643 0.38291,-0.91644 -0.298804,-0.90538 -0.298802,-0.90538 -0.490583,-0.26255 -0.490585,-0.26256 h -1.075727 -1.075727 v 2.20486 2.20487 l 0.198437,0.19922 0.198438,0.19922 z m 4.126278,0.38371 h -0.264583 v -1.85209 -1.85208 h 0.264583 0.264583 v 0.27959 0.27958 l 0.58804,-0.41188 0.588036,-0.41187 h 0.205714 0.20571 v 0.26458 0.26458 h -0.519858 -0.519856 l -0.273894,0.51178 -0.273892,0.51177 v 1.20802 1.20802 z m 4.818346,-0.002 -0.188137,-0.002 -0.01931,-2.7763 -0.01931,-2.77631 h 0.326123 0.326123 l 1.102288,2.00843 1.102292,2.00843 0.158771,-0.15877 0.158771,-0.15877 0.955101,-1.76461 0.955098,-1.76461 0.321297,-0.1071 0.321294,-0.1071 v 2.80018 2.80017 h -0.281395 -0.281395 l 0.0355,-2.05052 0.0355,-2.05052 -0.02217,-0.26459 -0.0222,-0.26458 -1.063815,1.91823 -1.063816,1.91823 -0.189457,-0.004 -0.189458,-0.005 -1.058333,-1.91373 -1.058333,-1.91374 -0.07645,2.3151 -0.07645,2.3151 -0.188135,-0.002 z m 7.857736,0.002 h -0.78644 l -0.166094,-0.43284 -0.166095,-0.43284 0.268904,-0.42706 0.268904,-0.42705 0.500806,-0.0899 0.500808,-0.0899 -0.50601,0.38239 -0.50601,0.38238 0.178572,0.46535 0.178573,0.46535 0.650161,-0.12428 0.65016,-0.12429 -0.139901,0.22637 -0.139898,0.22636 z m 1.772018,0 h -0.103984 l -0.160599,-0.41852 -0.1606,-0.41851 v -0.48813 -0.48813 l -0.463021,-0.12099 -0.463021,-0.12101 0.481423,-0.0307 0.481423,-0.0307 -0.08455,-0.59531 -0.08455,-0.59531 -1.04468,0.0348 -1.044681,0.0348 0.499938,-0.36556 0.499938,-0.36556 h 0.459698 0.459697 l 0.415775,0.41577 0.415774,0.41578 v 1.5686 1.5686 z m 1.666997,0 h -0.240097 v -1.85209 -1.85208 h 0.236276 0.236276 l 0.108302,0.33073 0.108301,0.33073 -0.104481,1.52135 -0.104481,1.52136 z m 4.572934,-0.008 -0.711989,-0.008 -0.452382,-0.26373 -0.452379,-0.26373 -0.167151,-0.89099 -0.16715,-0.89099 0.294865,-0.55096 0.294867,-0.55096 0.547746,-0.29315 0.547746,-0.29314 0.636815,0.15983 0.636815,0.15983 v 0.21372 0.21371 l -0.836861,-0.12282 -0.836859,-0.12283 -0.353766,0.48381 -0.353764,0.4838 v 0.70217 0.70217 l 0.518507,0.46924 0.518504,0.46925 0.694287,-0.17426 0.694291,-0.17425 -0.170077,0.27518 -0.170074,0.27519 -0.711991,-0.008 z m 3.389053,0.008 h -0.687917 l -0.3175,-0.3175 -0.3175,-0.3175 v -1.53459 -1.53458 h 0.251958 0.25196 l 0.07877,1.65365 0.07877,1.65364 0.609875,0.0865 0.609875,0.0865 0.382312,-0.3173 0.382313,-0.31729 v -1.42281 -1.42281 h 0.264583 0.264583 v 1.85208 1.85209 h -0.264583 -0.264583 v -0.3175 -0.3175 l -0.3175,0.3175 -0.3175,0.3175 z m 4.063741,0 h -0.857512 l -0.140909,-0.228 -0.140909,-0.22799 0.976362,0.0296 0.976363,0.0296 0.09239,-0.45273 0.09239,-0.45274 -1.006065,-0.47372 -1.006062,-0.47372 -0.08587,-0.4459 -0.08587,-0.44591 0.686724,-0.44996 0.686723,-0.44995 0.58623,0.30787 0.586232,0.30788 -0.583015,-0.11122 -0.583017,-0.11122 -0.449594,0.32875 -0.449593,0.32875 0.190807,0.30873 0.190804,0.30873 0.90795,0.37937 0.907949,0.37937 v 0.48975 0.48975 l -0.3175,0.3175 -0.3175,0.3175 z m 4.555569,0 h -0.37652 v -2.77813 -2.77812 h 1.699437 1.69944 v 0.26458 0.26458 h -1.322917 -1.322916 v 1.05834 1.05833 h 1.058333 1.058333 v 0.26458 0.26459 h -1.058333 -1.058333 v 1.19062 1.19063 z m 4.056203,0 h -0.240096 v -1.85209 -1.85208 h 0.236276 0.236275 l 0.108302,0.33073 0.108302,0.33073 -0.104481,1.52135 -0.104482,1.52136 z m 3.704736,0 h -0.78644 l -0.166095,-0.43284 -0.166094,-0.43284 0.268904,-0.42706 0.268904,-0.42705 0.500806,-0.0899 0.500808,-0.0899 -0.50601,0.38239 -0.50601,0.38238 0.178572,0.46535 0.178573,0.46535 0.65016,-0.12428 0.650161,-0.12429 -0.139901,0.22637 -0.139899,0.22636 z m 1.824022,-1.5807 -0.08031,1.71299 -0.198438,-0.48466 -0.198437,-0.48466 v -0.48813 -0.48813 l -0.463021,-0.12099 -0.463021,-0.12101 0.481423,-0.0307 0.481422,-0.0307 -0.08455,-0.59531 -0.08455,-0.59531 -1.044681,0.0348 -1.044681,0.0348 0.499939,-0.36556 0.499938,-0.36556 h 0.428027 0.428027 l 0.461611,0.33753 0.46161,0.33754 z m 1.63948,1.5807 h -0.264584 v -1.8241 -1.82409 l 0.595313,0.002 0.595312,0.002 0.555869,-0.18275 0.555871,-0.18276 0.436316,0.43632 0.436319,0.43632 v 1.5686 1.5686 h -0.264583 -0.264583 v -1.5958 -1.59581 l -0.397468,-0.15252 -0.397465,-0.15252 -0.660868,0.16587 -0.660866,0.16586 v 1.58246 1.58246 h -0.264583 z m 5.4901039,-0.0416 -1.5213542,0.0416 v -0.1744 -0.17439 l 1.0583334,-1.40175 1.0583334,-1.40176 v -0.12843 -0.12843 l -1.1244792,-0.10128 -1.1244792,-0.10128 1.5527576,-0.0462 1.5527576,-0.0462 -0.7414128,0.99219 -0.7414128,0.99219 -0.5069814,0.66145 -0.5069787,0.66146 1.2831366,0.15687 1.283134,0.15687 z m -32.3898189,-3.24412 -0.484661,0.15389 0.513591,-0.41848 0.51359,-0.41847 h 0.214014 0.214013 v 0.26458 0.26458 h -0.242943 -0.242946 z m 20.637501,0 -0.484662,0.15389 0.513591,-0.41848 0.513591,-0.41847 h 0.198398 0.1984 l 0.16352,0.26458 0.163521,0.26458 h -0.390851 -0.39085 z m -13.481821,-32.039173 -0.694036,0.454748 0.179604,-0.290605 0.179605,-0.290605 0.514429,-0.275315 0.514432,-0.275315 v 0.111173 0.11117 z m -5.788258,-0.923057 h -0.132291 v -0.132291 -0.132292 h 0.132291 0.132292 v 0.132292 0.132291 z m 16.167146,-6.950823 -0.159854,0.15985 0.0209,-0.507116 0.02088,-0.507119 0.138965,0.347266 0.138964,0.347265 -0.159851,0.159854 z m 0.27828,-1.180079 -0.131775,0.325694 0.0098,-0.79375 0.0098,-0.79375 0.12197,0.468056 0.12197,0.468056 -0.131773,0.325694 z m -25.647999,-1.394106 -0.05784,-8e-6 -0.677973,-0.859887 -0.677974,-0.859888 -0.212942,-0.396875 -0.212939,-0.396875 0.773083,0.79375 0.773086,0.79375 0.17567,0.46302 0.175673,0.463021 z m 11.848407,8e-6 h -0.132292 v -0.132291 -0.132292 h 0.132292 0.132291 v 0.132292 0.132291 z m -0.264584,-1.058333 h -0.132291 v -0.132292 -0.132291 h 0.132291 0.132292 v 0.132291 0.132292 z m 0.529167,0 h -0.132292 v -0.132292 -0.132291 h 0.132292 0.132292 v 0.132291 0.132292 z m 2.38125,-0.264583 h -0.132292 V 62.926762 62.79447 h 0.132292 0.132292 v 0.132292 0.132292 z m -3.147438,-0.865408 -0.159854,0.159852 0.02088,-0.507118 0.02088,-0.507118 0.138964,0.347266 0.138964,0.347265 -0.15985,0.159853 z m 1.058333,-0.264584 -0.159853,0.159853 0.02087,-0.507118 0.02088,-0.507118 0.138964,0.347265 0.138965,0.347266 -0.159851,0.159852 z m 2.618272,0.07166 h -0.132292 v -0.132291 -0.132292 h 0.132292 0.132291 v 0.132292 0.132291 z m -8.995834,-0.264583 h -0.132292 v -0.132292 -0.132291 h 0.132292 0.132292 v 0.132291 0.132292 z m 2.356197,-0.264583 -1.872139,0.132291 -1.59e-4,-0.264583 -1.56e-4,-0.264583 1.785244,0.08694 1.785245,0.08694 0.128765,-0.422855 0.128764,-0.422856 -0.04171,0.468208 -0.04171,0.468207 z m 5.888823,0.06615 -0.133453,0.33073 V 61.20697 60.545512 l 0.133453,0.330729 0.133453,0.330729 z m 5.006195,0.149919 -0.02204,-0.04852 -2.116667,-0.156409 -2.116666,-0.156408 2.139381,-0.125802 2.139378,-0.125801 -7.93e-4,0.330729 -7.94e-4,0.330729 -0.02204,-0.04852 z m 0.507119,0.04852 h -0.132292 v -0.132292 -0.132291 h 0.132292 0.132292 v 0.132291 0.132292 z M -42.150056,61.20697 h -0.132292 v -0.132291 -0.132292 h 0.132292 0.132292 v 0.132292 0.132291 z m 5.054645,-0.07166 -0.159853,0.159853 0.02088,-0.507118 0.02088,-0.507118 0.138965,0.347265 0.138964,0.347266 -0.159851,0.159852 z m 8.703689,0.07166 h -0.132292 v -0.132291 -0.132292 h 0.132292 0.132292 v 0.132292 0.132291 z m -7.100814,-0.727604 -0.133453,0.330729 v -0.661458 -0.661458 l 0.133453,0.330729 0.133453,0.330729 z m 1.307542,-0.137804 -0.159853,0.159853 0.02088,-0.507118 0.02088,-0.507118 0.138964,0.347265 0.138965,0.347266 -0.159851,0.159852 z m 12.984128,-0.457508 h -0.09738 l -0.480359,-0.530789 -0.480356,-0.530789 0.138927,-0.138927 0.138925,-0.138926 0.438814,0.669715 0.438817,0.669716 z m -16.18669,-0.264584 h -0.132291 v -0.132291 -0.132292 h 0.132291 0.132292 v 0.132292 0.132291 z m 2.159604,-0.463021 -0.133454,0.33073 V 58.82572 58.164262 l 0.133454,0.330729 0.133453,0.330729 z m 0.778375,-0.137803 -0.159854,0.159852 0.02088,-0.507118 0.02088,-0.507118 0.138964,0.347266 0.138965,0.347265 -0.159851,0.159853 z m -3.758232,-10.776259 h -0.228627 l 1.008039,-0.684979 1.008036,-0.684979 0.125632,0.125632 0.125632,0.125632 -0.905041,0.559347 -0.905045,0.559347 z"
         id="path183" />
    </g>
  </g>
</svg>
