<?xml version="1.0" encoding="UTF-8" standalone="no"?>
<!-- Created with Inkscape (http://www.inkscape.org/) -->

<svg
   width="26.246685mm"
   height="18.30234mm"
   viewBox="0 0 26.246685 18.30234"
   version="1.1"
   id="svg5"
   inkscape:version="1.1.2 (0a00cf5339, 2022-02-04)"
   sodipodi:docname="2023-03-30-Tempel.svg"
   xmlns:inkscape="http://www.inkscape.org/namespaces/inkscape"
   xmlns:sodipodi="http://sodipodi.sourceforge.net/DTD/sodipodi-0.dtd"
   xmlns="http://www.w3.org/2000/svg"
   xmlns:svg="http://www.w3.org/2000/svg">
  <sodipodi:namedview
     id="namedview7"
     pagecolor="#ffffff"
     bordercolor="#666666"
     borderopacity="1.0"
     inkscape:pageshadow="2"
     inkscape:pageopacity="0.0"
     inkscape:pagecheckerboard="0"
     inkscape:document-units="mm"
     showgrid="false"
     fit-margin-top="0"
     fit-margin-left="0"
     fit-margin-right="0"
     fit-margin-bottom="0"
     inkscape:zoom="8.1853164"
     inkscape:cx="83.686442"
     inkscape:cy="42.148646"
     inkscape:window-width="1920"
     inkscape:window-height="1044"
     inkscape:window-x="0"
     inkscape:window-y="0"
     inkscape:window-maximized="1"
     inkscape:current-layer="layer1" />
  <defs
     id="defs2" />
  <g
     inkscape:label="Ebene 1"
     inkscape:groupmode="layer"
     id="layer1"
     transform="translate(-70.271291,-130.58824)">
    <path
       style="fill:#000000;stroke-width:0.0846667"
       d="m 70.271291,148.55191 v -0.33866 h 5.503333 5.503332 v 0.33866 0.33867 h -5.503332 -5.503333 z m 11.176005,0.21167 c 0,-0.10921 0.27281,-0.127 1.94733,-0.127 1.67452,0 1.94733,0.0178 1.94733,0.127 0,0.10921 -0.27281,0.127 -1.94733,0.127 -1.67452,0 -1.94733,-0.0178 -1.94733,-0.127 z m 3.99538,-0.1905 0.0263,-0.3175 5.5245,-0.0218 5.5245,-0.0218 v 0.33928 0.33928 h -5.55078 -5.55077 z m -3.99538,-0.1862 c 0,-0.17003 0.0404,-0.17363 1.94733,-0.17363 1.60804,0 1.94733,0.0206 1.94733,0.11794 0,0.0649 -0.0493,0.13684 -0.10946,0.15994 -0.0602,0.0231 -0.9365,0.0482 -1.94733,0.0557 -1.80105,0.0134 -1.83787,0.0102 -1.83787,-0.15994 z m -10.752672,-0.59697 v -0.33866 h 5.291667 5.291665 v 0.33866 0.33867 h -5.291665 -5.291667 z m 10.752672,0.21167 c 0,-0.10921 0.27281,-0.127 1.94733,-0.127 1.67452,0 1.94733,0.0178 1.94733,0.127 0,0.10921 -0.27281,0.127 -1.94733,0.127 -1.67452,0 -1.94733,-0.0178 -1.94733,-0.127 z m 3.97933,-0.21167 v -0.33866 h 5.334 5.334 v 0.33866 0.33867 h -5.334 -5.334 z m -3.97933,-0.21166 c 0,-0.10921 0.27281,-0.127 1.94733,-0.127 1.67452,0 1.94733,0.0178 1.94733,0.127 0,0.1092 -0.27281,0.127 -1.94733,0.127 -1.67452,0 -1.94733,-0.0178 -1.94733,-0.127 z m -5.228172,-0.27516 -5.0165,-0.0225 v -0.29566 -0.29566 h 5.037667 5.037665 v 0.33866 c 0,0.18627 -0.01,0.32945 -0.0212,0.31819 -0.0117,-0.0113 -2.2786,-0.0306 -5.037672,-0.043 z m 5.228172,-0.14818 c 0,-0.1092 0.27281,-0.127 1.94733,-0.127 1.67452,0 1.94733,0.0178 1.94733,0.127 0,0.10921 -0.27281,0.127 -1.94733,0.127 -1.67452,0 -1.94733,-0.0178 -1.94733,-0.127 z m 3.97933,-0.16933 v -0.29633 h 5.08 5.08 v 0.29633 0.29633 h -5.08 -5.08 z m -3.97933,-0.16933 c 0,-0.10921 0.27281,-0.127 1.94733,-0.127 1.67452,0 1.94733,0.0178 1.94733,0.127 0,0.1092 -0.27281,0.127 -1.94733,0.127 -1.67452,0 -1.94733,-0.0178 -1.94733,-0.127 z m -9.030741,-2.2225 c 0.147689,-5.20443 0.165989,-7.10757 0.06892,-7.16756 -0.05364,-0.0332 -0.09752,-0.13422 -0.09752,-0.22461 0,-0.15103 0.06453,-0.16433 0.797278,-0.16433 0.840779,0 0.994413,0.0733 0.747761,0.35665 -0.110815,0.12732 -0.114579,0.58655 -0.03088,3.76767 0.114363,4.34645 0.118237,5.35834 0.02051,5.35834 -0.04069,0 -0.10229,-2.0193 -0.136879,-4.48733 -0.03689,-2.63249 -0.09512,-4.48733 -0.140855,-4.48733 -0.04644,0 -0.05986,0.71029 -0.03319,1.75683 0.115993,4.55095 0.134167,7.21783 0.04919,7.21783 -0.05682,0 -0.09186,-0.55788 -0.09971,-1.5875 -0.0067,-0.87312 -0.03742,-2.90195 -0.06835,-4.5085 l -0.05625,-2.921 -0.01631,4.5085 c -0.01054,2.91168 -0.04604,4.5085 -0.100239,4.5085 -0.05412,0 -0.09198,-1.60109 -0.106591,-4.5085 l -0.02267,-4.5085 -0.02041,4.5085 c -0.01487,3.2841 -0.0464,4.5085 -0.116123,4.5085 -0.07044,0 -0.0858,-1.18479 -0.05816,-4.48733 0.02065,-2.46803 0.0066,-4.48733 -0.03129,-4.48733 -0.03786,0 -0.06884,1.49892 -0.06884,3.33094 0,3.59399 -0.06713,5.64372 -0.184842,5.64372 -0.04066,0 -0.05434,-0.44767 -0.0304,-0.99483 0.07809,-1.78493 0.119124,-8.02773 0.05133,-7.8105 -0.03633,0.11642 -0.07121,0.87842 -0.07751,1.69333 -0.02887,3.73466 -0.127644,7.112 -0.207989,7.112 -0.05556,0 -0.06587,-0.66213 -0.03,-1.92616 z m 2.895323,0.42333 c 0.176554,-5.46219 0.196184,-7.42951 0.07547,-7.56317 -0.0664,-0.0735 -0.120725,-0.19734 -0.120725,-0.27516 0,-0.12279 0.111958,-0.1415 0.846667,-0.1415 0.734709,0 0.846667,0.0187 0.846667,0.1415 0,0.0778 -0.05353,0.20165 -0.118949,0.27516 -0.102016,0.11464 -0.102754,0.76612 -0.0052,4.57681 0.06257,2.44372 0.09704,4.45984 0.07662,4.48027 -0.02043,0.0204 -0.05984,0.0145 -0.08757,-0.0133 -0.02774,-0.0277 -0.08641,-2.04222 -0.130389,-4.47662 -0.04398,-2.4344 -0.102141,-4.44688 -0.129252,-4.47218 -0.02711,-0.0253 -0.02175,1.98283 0.01191,4.4625 0.04427,3.26115 0.03542,4.5085 -0.03198,4.5085 -0.06629,0 -0.09561,-1.0935 -0.101592,-3.78883 -0.0046,-2.08386 -0.04,-4.11268 -0.07862,-4.5085 -0.0416,-0.42637 -0.05593,1.11773 -0.03517,3.78883 0.02276,2.92826 0.0058,4.5085 -0.04838,4.5085 -0.05374,0 -0.08343,-1.59668 -0.08343,-4.48733 0,-2.93511 -0.02929,-4.48733 -0.08467,-4.48733 -0.05538,0 -0.08467,1.55222 -0.08467,4.48733 0,2.89065 -0.02969,4.48733 -0.08343,4.48733 -0.05418,0 -0.07135,-1.58064 -0.04897,-4.5085 0.0201,-2.63 0.0059,-4.17337 -0.0341,-3.70416 -0.0377,0.44238 -0.07281,2.4712 -0.07802,4.5085 -0.0067,2.63307 -0.03642,3.70416 -0.102665,3.70416 -0.06716,0 -0.0815,-1.25907 -0.05133,-4.5085 0.02483,-2.67451 0.01527,-3.90578 -0.0235,-3.02683 -0.03594,0.81492 -0.07017,2.41512 -0.07605,3.556 -0.0124,2.4046 -0.08912,3.97933 -0.19386,3.97933 -0.04048,0 -0.05161,-0.67395 -0.02482,-1.50283 z m 2.917148,0.67733 c -5.08e-4,-0.45402 0.04266,-2.47587 0.09594,-4.49299 0.0722,-2.73224 0.0724,-3.69196 9.3e-4,-3.76344 -0.0528,-0.0528 -0.09594,-0.16451 -0.09594,-0.24833 0,-0.13606 0.08624,-0.1524 0.80434,-0.1524 0.71809,0 0.80433,0.0163 0.80433,0.1524 0,0.0838 -0.0442,0.19655 -0.0981,0.25052 -0.0744,0.0744 -0.0723,1.17556 0.009,4.55202 0.0587,2.44965 0.0838,4.47686 0.0558,4.50493 -0.0281,0.0281 -0.0677,0.0343 -0.0881,0.0139 -0.0204,-0.0204 -0.0634,-1.90319 -0.0955,-4.18395 -0.0321,-2.28076 -0.0884,-4.29924 -0.12512,-4.48551 -0.0687,-0.34852 -0.0289,5.67218 0.0502,7.59883 0.0246,0.59923 0.0112,1.0795 -0.0302,1.0795 -0.11415,0 -0.18566,-2.22817 -0.18566,-5.7849 0,-1.76989 -0.0286,-3.1894 -0.0635,-3.15445 -0.0349,0.0349 -0.0495,2.06059 -0.0324,4.50144 0.0225,3.21103 0.005,4.43791 -0.0627,4.43791 -0.0673,0 -0.1003,-1.27813 -0.11654,-4.5085 l -0.0227,-4.5085 -0.0204,4.5085 c -0.0133,2.93562 -0.0499,4.5085 -0.10507,4.5085 -0.0552,0 -0.0904,-1.57015 -0.10099,-4.5085 l -0.0163,-4.5085 -0.0563,2.921 c -0.0309,1.60655 -0.0617,3.63538 -0.0683,4.5085 -0.008,1.04143 -0.0426,1.5875 -0.10073,1.5875 -0.0862,0 -0.0753,-1.53117 0.0503,-7.00616 0.0267,-1.16507 0.0136,-1.9685 -0.0322,-1.9685 -0.045,0 -0.10372,1.88019 -0.14026,4.48733 -0.0349,2.49243 -0.0961,4.48733 -0.13767,4.48733 -0.0411,0 -0.07521,-0.37147 -0.07572,-0.8255 z m 2.88128,0.46567 c 9.2e-4,-0.19791 0.0371,-1.65523 0.0804,-3.2385 0.13048,-4.77 0.13263,-5.36479 0.0198,-5.47766 -0.056,-0.056 -0.10187,-0.17045 -0.10187,-0.25427 0,-0.1366 0.0878,-0.1524 0.84667,-0.1524 0.67733,0 0.84666,0.0242 0.84666,0.12095 0,0.0665 -0.0583,0.17927 -0.1296,0.25055 -0.11505,0.11505 -0.11993,0.54112 -0.0434,3.79488 0.0474,2.01591 0.10223,4.03877 0.12186,4.49526 0.026,0.60471 0.009,0.82112 -0.0624,0.79735 -0.11059,-0.0368 -0.1114,-0.0594 -0.1907,-5.33557 -0.0299,-1.99296 -0.076,-3.60204 -0.10231,-3.57572 -0.0546,0.0546 -0.0407,2.34244 0.0381,6.2468 0.0403,1.99369 0.0292,2.68816 -0.0426,2.68816 -0.0703,0 -0.10001,-0.69047 -0.10821,-2.51883 -0.006,-1.38536 -0.0385,-3.41418 -0.0718,-4.5085 -0.0464,-1.52655 -0.0586,-0.94026 -0.0522,2.51887 0.005,2.47969 -0.0202,4.50852 -0.0552,4.5085 -0.0349,-2e-5 -0.0675,-1.28591 -0.0724,-2.85754 -0.0123,-3.96163 -0.0496,-6.03456 -0.10954,-6.0945 -0.028,-0.028 -0.0509,1.97476 -0.0509,4.45056 0,3.32448 -0.0254,4.50144 -0.0969,4.50144 -0.0724,0 -0.0812,-1.13962 -0.0347,-4.49705 0.0448,-3.23908 0.0364,-4.48109 -0.0301,-4.44 -0.0647,0.04 -0.0923,1.38339 -0.0923,4.49705 0,3.29668 -0.0251,4.44 -0.0976,4.44 -0.0731,0 -0.0865,-1.13456 -0.0535,-4.5085 0.0243,-2.47967 0.0157,-4.10845 -0.019,-3.6195 -0.0347,0.48895 -0.0678,1.71153 -0.0735,2.71685 -0.0153,2.70348 -0.112,5.41115 -0.19317,5.41115 -0.0392,0 -0.0704,-0.16192 -0.0695,-0.35983 z m 2.92413,-0.46567 c 0.022,-0.45402 0.079,-2.48236 0.1265,-4.50741 0.077,-3.27884 0.0722,-3.69232 -0.0436,-3.777 -0.0715,-0.0523 -0.13003,-0.15756 -0.13003,-0.23392 0,-0.11941 0.11844,-0.13883 0.84666,-0.13883 0.75887,0 0.84667,0.0158 0.84667,0.1524 0,0.0838 -0.0467,0.19913 -0.10386,0.25625 -0.11482,0.11483 -0.11477,0.1252 0.0273,5.58951 0.0805,3.09681 0.074,3.59478 -0.0457,3.47512 -0.0207,-0.0207 -0.0759,-2.0317 -0.12268,-4.46891 -0.0468,-2.43721 -0.1088,-4.45502 -0.13781,-4.48403 -0.029,-0.029 -0.0251,1.97564 0.009,4.45479 0.0461,3.38317 0.037,4.50753 -0.0362,4.50753 -0.0725,0 -0.0976,-1.14332 -0.0976,-4.44 0,-3.06252 -0.0281,-4.45737 -0.0906,-4.496 -0.0642,-0.0397 -0.0728,1.25343 -0.0294,4.44001 0.046,3.37436 0.0369,4.49599 -0.0364,4.49599 -0.0725,0 -0.0976,-1.15613 -0.0976,-4.49233 0,-2.47078 -0.0286,-4.47463 -0.0635,-4.45301 -0.0349,0.0216 -0.0635,2.04308 -0.0635,4.49212 0,2.91193 -0.0293,4.45289 -0.0847,4.45305 -0.0555,1.7e-4 -0.0817,-1.55317 -0.0761,-4.50829 0.007,-3.43555 -0.006,-4.04509 -0.0524,-2.5612 -0.0335,1.07103 -0.066,3.09985 -0.0721,4.5085 -0.008,1.86025 -0.0376,2.56116 -0.10803,2.56116 -0.0719,0 -0.0829,-0.69447 -0.0426,-2.68816 0.0775,-3.84117 0.093,-6.19195 0.0411,-6.24386 -0.0445,-0.0445 -0.14967,4.64565 -0.16401,7.31603 -0.007,1.3885 -0.0309,1.61599 -0.16637,1.61599 -0.0396,0 -0.054,-0.37147 -0.032,-0.8255 z m 2.91489,0.508 c -6.8e-4,-0.17462 0.0435,-2.17969 0.0984,-4.4557 0.0757,-3.14309 0.076,-4.17607 0.001,-4.29568 -0.23098,-0.36986 -0.15154,-0.41378 0.74832,-0.41378 0.46566,0 0.84666,0.0296 0.84666,0.0658 0,0.0362 -0.0614,0.15356 -0.13655,0.26078 -0.12413,0.17723 -0.12791,0.5311 -0.0416,3.89234 0.11392,4.4343 0.11686,5.26372 0.0187,5.26372 -0.0415,0 -0.10275,-1.9949 -0.13768,-4.48733 -0.0362,-2.58312 -0.0955,-4.48733 -0.1397,-4.48733 -0.0451,0 -0.0584,0.83099 -0.0322,2.01083 0.12516,5.64677 0.13442,6.96383 0.049,6.96383 -0.0569,0 -0.0919,-0.51506 -0.0994,-1.4605 -0.006,-0.80327 -0.0372,-2.8321 -0.0685,-4.5085 l -0.0571,-3.048 -0.0161,4.5085 c -0.0104,2.91182 -0.0458,4.5085 -0.10004,4.5085 -0.0541,0 -0.092,-1.60109 -0.10659,-4.5085 l -0.0227,-4.5085 -0.0204,4.5085 c -0.0148,3.26341 -0.0466,4.5085 -0.11539,4.5085 -0.0694,0 -0.0857,-1.20692 -0.0605,-4.48733 0.019,-2.46803 0.005,-4.48733 -0.032,-4.48733 -0.0366,0 -0.0667,1.53352 -0.0669,3.40783 -3.3e-4,3.63375 -0.0643,5.56683 -0.1842,5.56683 -0.0406,0 -0.0542,-0.50482 -0.0303,-1.12183 0.0793,-2.04629 0.11824,-7.89877 0.0512,-7.6835 -0.0363,0.11642 -0.0712,0.84032 -0.0775,1.60867 -0.0287,3.46984 -0.12978,7.19666 -0.19511,7.19666 -0.0394,0 -0.0723,-0.14287 -0.073,-0.3175 z m 2.92556,-1.18533 c 0.17233,-5.2939 0.1932,-7.42974 0.0739,-7.56317 -0.0657,-0.0735 -0.1195,-0.19734 -0.1195,-0.27516 0,-0.12279 0.11195,-0.1415 0.84666,-0.1415 0.73471,0 0.84667,0.0187 0.84667,0.1415 0,0.0778 -0.0536,0.20165 -0.11917,0.27516 -0.10227,0.11471 -0.10328,0.76432 -0.007,4.57867 0.0616,2.44475 0.0962,4.46087 0.0768,4.48028 -0.0193,0.0194 -0.0579,0.0126 -0.0856,-0.0152 -0.0277,-0.0277 -0.0864,-2.04222 -0.13039,-4.47662 -0.044,-2.4344 -0.10214,-4.44688 -0.12926,-4.47218 -0.0271,-0.0253 -0.0217,1.98283 0.0119,4.4625 0.0443,3.26115 0.0354,4.5085 -0.032,4.5085 -0.0662,0 -0.0961,-1.05984 -0.10313,-3.66183 -0.005,-2.01401 -0.0405,-4.04283 -0.0778,-4.5085 -0.0393,-0.49089 -0.0534,1.04782 -0.0336,3.66183 0.0222,2.92768 0.005,4.5085 -0.0492,4.5085 -0.0538,0 -0.0834,-1.59668 -0.0834,-4.48733 0,-2.93511 -0.0293,-4.48733 -0.0847,-4.48733 -0.0554,0 -0.0847,1.55222 -0.0847,4.48733 0,2.89065 -0.0297,4.48733 -0.0834,4.48733 -0.0542,0 -0.0714,-1.58064 -0.049,-4.5085 0.0201,-2.63 0.006,-4.17337 -0.0341,-3.70416 -0.0377,0.44238 -0.0728,2.4712 -0.078,4.5085 -0.007,2.64448 -0.0363,3.70416 -0.10314,3.70416 -0.0678,0 -0.0821,-1.24541 -0.0519,-4.5085 0.0232,-2.50497 0.0136,-3.88768 -0.0216,-3.1115 -0.0348,0.76835 -0.0686,2.334 -0.0751,3.47921 -0.0138,2.45724 -0.0934,4.14079 -0.19572,4.14079 -0.0404,0 -0.0513,-0.67483 -0.0244,-1.50283 z m 2.91733,0.635 c -2.5e-4,-0.47731 0.0425,-2.49958 0.095,-4.49393 0.0705,-2.6804 0.0706,-3.65088 4.3e-4,-3.7211 -0.0523,-0.0523 -0.095,-0.16358 -0.095,-0.2474 0,-0.13606 0.0862,-0.1524 0.80433,-0.1524 0.7181,0 0.80434,0.0163 0.80434,0.1524 0,0.0838 -0.0444,0.19676 -0.0986,0.25099 -0.075,0.075 -0.0734,1.16422 0.007,4.55391 0.058,2.45042 0.0833,4.47742 0.0563,4.50445 -0.027,0.027 -0.0662,0.0321 -0.0871,0.0112 -0.0209,-0.0209 -0.065,-1.96079 -0.098,-4.31094 -0.0331,-2.35016 -0.0897,-4.36826 -0.12599,-4.48468 -0.0675,-0.21684 -0.0245,6.01949 0.0538,7.8105 0.0239,0.54716 0.0102,0.99483 -0.0304,0.99483 -0.1201,0 -0.18408,-1.9308 -0.18444,-5.56683 -1.7e-4,-1.87431 -0.0313,-3.40783 -0.0692,-3.40783 -0.0379,0 -0.0519,2.0193 -0.0313,4.48733 0.0275,3.28204 0.012,4.48733 -0.0574,4.48733 -0.0687,0 -0.10124,-1.24661 -0.11764,-4.5085 l -0.0227,-4.5085 -0.0204,4.5085 c -0.0133,2.93562 -0.0499,4.5085 -0.10508,4.5085 -0.0552,0 -0.0903,-1.56998 -0.10073,-4.5085 l -0.0161,-4.5085 -0.0572,3.00567 c -0.0315,1.65312 -0.0623,3.68194 -0.0686,4.5085 -0.007,0.96833 -0.0424,1.50283 -0.0987,1.50283 -0.0844,0 -0.0699,-2.18092 0.0476,-7.13316 0.0255,-1.0765 0.0118,-1.8415 -0.0331,-1.8415 -0.0441,0 -0.10347,1.90755 -0.13963,4.48733 -0.0346,2.46803 -0.0962,4.48733 -0.13688,4.48733 -0.0407,0 -0.0742,-0.39052 -0.0744,-0.86783 z m -20.404258,-9.24983 v -0.46567 h 11.006668 11.00667 v 0.46567 0.46566 H 83.394626 72.387958 Z m 0,-1.143 v -0.59267 h 11.006668 11.00667 v 0.59267 0.59266 H 83.394626 72.387958 Z m -1.084865,-0.94974 0.02653,-0.2724 6.033748,-1.72444 6.033745,-1.72443 6.03126,1.72456 6.03125,1.72455 0.0265,0.27228 0.0265,0.27228 h -12.118 -12.118064 z m 22.336203,-0.32559 c -0.11642,-0.0421 -2.47017,-0.72245 -5.23057,-1.51177 l -5.01889,-1.43514 -5.01411,1.43584 c -2.757754,0.78971 -5.109352,1.47001 -5.225768,1.51177 -0.126913,0.0455 3.975173,0.0759 10.244668,0.0759 6.33919,0 10.37299,-0.0302 10.24467,-0.0766 z m -19.727338,-0.0717 c 0.06985,-0.0398 2.232025,-0.67282 4.804838,-1.4067 l 4.67783,-1.33435 4.67783,1.33435 c 2.57281,0.73388 4.73499,1.36648 4.80484,1.40576 0.0699,0.0393 -4.19735,0.0719 -9.48267,0.0724 -5.359026,5.1e-4 -9.553493,-0.0311 -9.482668,-0.0714 z"
       id="path67" />
  </g>
</svg>
