<?xml version="1.0" encoding="UTF-8" standalone="no"?>
<svg
   viewBox="0 0 227 80"
   version="1.1"
   id="svg15"
   sodipodi:docname="2024-03-05-OE24-Logo.svg"
   inkscape:version="1.1.2 (0a00cf5339, 2022-02-04)"
   width="227"
   height="80"
   xmlns:inkscape="http://www.inkscape.org/namespaces/inkscape"
   xmlns:sodipodi="http://sodipodi.sourceforge.net/DTD/sodipodi-0.dtd"
   xmlns="http://www.w3.org/2000/svg"
   xmlns:svg="http://www.w3.org/2000/svg">
  <sodipodi:namedview
     id="namedview17"
     pagecolor="#ffffff"
     bordercolor="#666666"
     borderopacity="1.0"
     inkscape:pageshadow="2"
     inkscape:pageopacity="0"
     inkscape:pagecheckerboard="0"
     showgrid="false"
     inkscape:zoom="6.1627907"
     inkscape:cx="105.63396"
     inkscape:cy="40.079245"
     inkscape:window-width="1920"
     inkscape:window-height="1044"
     inkscape:window-x="0"
     inkscape:window-y="0"
     inkscape:window-maximized="1"
     inkscape:current-layer="svg15"
     fit-margin-top="0"
     fit-margin-left="0"
     fit-margin-right="0"
     fit-margin-bottom="0" />
  <defs
     id="defs7">
    <linearGradient
       x1="128.98779"
       y1="2.1038497"
       x2="128.98779"
       y2="82.384637"
       id="a"
       gradientTransform="scale(1.2621362,0.79230751)"
       gradientUnits="userSpaceOnUse">
      <stop
         stop-color="#FFFF79"
         offset="0%"
         id="stop2" />
      <stop
         stop-color="#FED717"
         offset="100%"
         id="stop4" />
    </linearGradient>
  </defs>
  <rect
     style="fill:#d0013a;fill-opacity:1;stroke-width:0"
     id="rect66"
     width="227"
     height="80"
     x="0"
     y="0" />
  <g
     fill-rule="nonzero"
     fill="none"
     id="g13"
     transform="translate(6,6)">
    <path
       d="m 46.5,34.4 c 0,11.8 -4.2,19.8 -13.4,19.8 -9.9,0 -13.6,-9 -13.6,-19.8 0,-11.7 4.2,-19.6 13.6,-19.6 9.6,0 13.4,8.8 13.4,19.6 z m 22.6,1.5 C 67.3,20.2 68.2,17.2 61.5,15.3 55.4,4.4 43.8,0.4 33,0.4 17.3,0.4 0,8.8 0,34.2 0,59.4 17.4,67.9 33,67.9 43.6,67.9 55,64 61.2,53.5 71.8,53.6 70.1,44 69.1,35.9 Z M 76.3,28 C 77.7,18.5 83,14.5 89,14.5 c 7.3,0 11.4,4.4 12.4,13.5 z m -0.2,11.5 h 42.7 v -2.9 c 0,-6.3 -0.2,-9.4 -1.5,-13.8 l -10.9,-8.3 c 1.1,-1.6 2.9,-3.9 4.2,-5.4 C 105.2,4 98.1,0.5 89.2,0.5 80,0.5 68.1,4.6 61.6,15.4 64.3,20.3 66,26.5 66,34.3 66,42.4 64.2,48.7 61.3,53.6 67.2,64 78.3,68 89.7,68 c 6.2,0 12.1,-0.8 17.1,-2.8 0,-2.1 -0.1,-5.7 0.6,-9.7 0.8,-4.7 3.4,-8.8 3.4,-8.8 -4.4,4 -12,7.6 -19.6,7.6 -8.2,0.1 -14.1,-4 -15.1,-14.8 z"
       fill="#ffffff"
       id="path9" />
    <path
       d="m 186.8,22.1 h 0.2 v 18.7 h -13.8 c 0,-0.1 13.6,-18.7 13.6,-18.7 z M 204,65.5 V 54.2 h 11 V 40.7 H 204 V 1.2 H 185 L 155.3,41.6 V 54.2 H 187 v 11.3 z m -43.1,0 V 52.1 h -29.2 c 0.3,-2.9 6.8,-7 15.2,-12.3 C 159.4,32 160.4,25.6 160.4,19.1 160.4,7.3 152,0 137.2,0 124.8,0 116.9,5.7 110.8,14 l 12.3,8.9 c 3.8,-5.2 9.2,-8.4 13.6,-8.4 4.2,0 6.6,2.2 6.6,5.9 0,6.3 -4,7.9 -14.3,14.4 -17.2,10.9 -18.5,20.1 -18.5,29.4 v 1.4 z"
       fill="url(#a)"
       id="path11"
       style="fill:url(#a)" />
  </g>
</svg>
