<?xml version="1.0" encoding="UTF-8" standalone="no"?>
<!-- Created with Inkscape (http://www.inkscape.org/) -->

<svg
   version="1.1"
   id="svg2"
   xml:space="preserve"
   width="1058.2667"
   height="264.57333"
   viewBox="0 0 1058.2667 264.57333"
   sodipodi:docname="2024-02-20-Heimat-Umwelt-Logo.svg"
   inkscape:version="1.1.2 (0a00cf5339, 2022-02-04)"
   xmlns:inkscape="http://www.inkscape.org/namespaces/inkscape"
   xmlns:sodipodi="http://sodipodi.sourceforge.net/DTD/sodipodi-0.dtd"
   xmlns="http://www.w3.org/2000/svg"
   xmlns:svg="http://www.w3.org/2000/svg"><defs
     id="defs6" /><sodipodi:namedview
     id="namedview4"
     pagecolor="#ffffff"
     bordercolor="#666666"
     borderopacity="1.0"
     inkscape:pageshadow="2"
     inkscape:pageopacity="0.0"
     inkscape:pagecheckerboard="0"
     showgrid="false"
     inkscape:zoom="1.2841753"
     inkscape:cx="528.74401"
     inkscape:cy="132.38068"
     inkscape:window-width="1920"
     inkscape:window-height="1044"
     inkscape:window-x="0"
     inkscape:window-y="0"
     inkscape:window-maximized="1"
     inkscape:current-layer="g10" /><g
     id="g8"
     inkscape:groupmode="layer"
     inkscape:label="ink_ext_XXXXXX"
     transform="matrix(1.3333333,0,0,-1.3333333,0,264.57333)"><g
       id="g10"
       transform="scale(0.1)"><path
         d="m 5272.06,841.262 c -0.84,1.527 -2.21,2.726 -3.78,3.418 -2.84,1.23 -6.38,1.672 -10.93,1.679 h -51.25 l 38.91,99.36 h -73.33 l -38.9,-99.36 h -55.7 c -4.07,0 -7.75,-0.5 -11.01,-1.589 -2,-0.649 -3.74,-1.989 -4.82,-3.79 -1.06,-1.8 -1.48,-3.91 -1.48,-6.191 0,-1.957 0.3,-3.801 1.11,-5.43 0.8,-1.629 2.2,-2.98 3.86,-3.699 2.65,-1.18 6.1,-1.89 10.6,-2.398 l 0.16,-0.024 h 48.56 l -20.13,-52.609 c -18.23,-33.09 -49.48,-78.258 -63.56,-104.809 -5.37,-10.109 -10.77,-19.621 -16.22,-28.66 -12.3,-20.441 -24.81,-38.199 -37.53,-53.172 -5.48,-6.468 -10.15,-11.718 -14.43,-16.027 -4.52,-4.52 -8.54,-7.859 -12.35,-9.981 -3.82,-2.16 -7.39,-3.152 -11.39,-3.152 -0.99,0 -2.01,0.063 -3.04,0.184 -7.04,0.898 -12.2,4.136 -16.28,10.258 -0.54,0.832 -1.04,1.941 -1.57,3.171 0.13,5.11 0.51,10.239 1.29,15.469 0.91,6.281 2.92,14.57 6.04,24.828 3.09,10.231 7.76,23.774 13.99,40.571 6.23,16.812 13.93,36.992 23.06,60.519 12,30.703 24.95,61.942 38.89,93.633 13.93,31.687 27.03,60.641 39.26,86.801 l 0.01,0.047 85.61,189.731 -137.57,-5.13 -0.06,-18.66 32.61,-0.12 h 0.04 0.29 c 3.35,-0.06 4.94,-1.02 6.24,-2.84 1.3,-1.86 2.11,-5.1 2.1,-9.43 0.01,-8.02 -2.64,-19.43 -6.72,-31.75 -6.09,-18.532 -15.31,-39.301 -23,-55.45 -3.85,-8.07 -7.31,-15.012 -9.8,-19.949 -1.26,-2.461 -2.26,-4.441 -2.98,-5.813 l -0.81,-1.597 -0.24,-0.512 -0.09,-0.219 c -0.09,-0.179 -5.91,-13.019 -14.73,-32.461 -13.31,-29.3 -33.34,-73.398 -50.41,-110.82 -8.52,-18.687 -16.31,-35.738 -22.12,-48.398 -2.91,-6.34 -5.33,-11.571 -7.13,-15.391 -1.74,-3.781 -2.92,-6.262 -3.16,-6.711 -1.76,-3.269 -9.15,-15.859 -16.28,-27.918 -3.57,-6.051 -7.08,-11.949 -9.82,-16.531 -2.74,-4.559 -4.77,-7.91 -5.15,-8.469 -0.14,-0.211 -1.05,-1.473 -2.43,-3.301 -9.78,-12.949 -45.39,-58.558 -65.82,-76.691 -21.01,-18.719 -40.26,-27.738 -57.61,-27.707 -2.05,0 -4.06,0.117 -6.08,0.359 -9.84,1.239 -17.4,5.008 -23.12,11.418 -0.77,0.879 -1.48,2.012 -2.22,3.262 -0.21,1.961 -0.4,3.867 -0.4,5.918 -0.02,5.883 1.12,13.75 3.52,23.461 2.36,9.719 5.56,19.93 9.62,30.66 4.08,10.781 8.15,21.102 12.22,30.93 3.83,9.23 7.53,18.129 11.19,26.742 16.84,0.109 34.04,1.769 51.55,5.039 18.42,3.437 35.95,10.559 52.61,21.34 l 0.03,0.008 0.04,0.043 c 16.19,11.257 28.77,24.679 37.64,40.238 8.83,15.441 13.35,29.969 13.35,43.621 0.06,15.539 -5.55,28.09 -16.64,36.551 -10.93,8.386 -24.98,12.488 -41.78,12.476 -24.13,0.012 -47.99,-7.148 -71.44,-21.316 -23.37,-14.141 -44.45,-32.871 -63.14,-56.172 -16.33,-20.371 -29.42,-42.441 -39.61,-65.93 -15.34,-22.308 -40.5,-55.101 -51.22,-67.32 -5.25,-6.02 -23.44,-23.941 -40.17,-40.18 -4.52,-4.41 -8.93,-8.672 -12.97,-12.582 6.22,10.274 12.6,21.852 19.23,35.121 h 0.01 c 4.86,9.223 10.41,21.332 16.69,36.27 6.25,14.93 12.65,31.203 19.15,48.781 6.51,17.621 11.95,34.52 16.31,50.731 4.36,16.269 6.58,29.8 6.59,40.781 0.02,13.906 -3.77,24.609 -11.91,31.109 -7.71,6.207 -17.15,9.309 -27.76,9.289 -13.16,0.051 -24,-4.699 -31.48,-14.058 -7.32,-9.063 -11.12,-19.16 -11.1,-29.942 -0.01,-6.781 1.84,-13.058 5.54,-18.57 3.87,-5.93 10.42,-8.922 18.29,-8.859 1.92,0 3.86,0.281 5.79,0.73 h 3.58 c 1.84,0 3.21,-0.312 4.23,-0.801 1,-0.488 1.69,-1.121 2.28,-2.09 1.32,-2.281 2.11,-5.609 2.11,-10.082 0.02,-9.437 -3.62,-26.57 -11.06,-50.687 -7.39,-24.133 -17.2,-49.133 -29.39,-74.961 -12.2,-25.801 -25.41,-47.469 -39.67,-65.031 -14.17,-17.489 -27.68,-25.641 -40.28,-25.61 -6.6,0.02 -11.72,2 -16.01,6.051 -4.04,3.82 -6.28,9.981 -6.3,19.168 -0.01,5.41 1.02,12.813 3.17,22.051 2.12,9.281 4.87,19.41 8.21,30.391 5.25,15.339 12.7,35.96 22.31,61.878 v 0 l 59.91,156.102 h -68.11 L 4438.89,730 h 0.01 c -3.86,-8.199 -8.77,-18.75 -14.78,-31.719 -6,-12.941 -13.21,-28.07 -21.61,-45.351 -8.38,-17.282 -16.55,-33.11 -24.45,-47.481 -7.89,-14.359 -14.96,-26.539 -21.15,-36.578 -7.13,-10.93 -13.97,-19.262 -20.41,-25.019 -5.88,-5.223 -11.87,-7.731 -18.23,-8.102 -3.25,0.352 -5.19,1.48 -6.7,3.539 -1.5,2.109 -2.49,5.641 -2.48,10.691 0,5.36 1.11,11.149 3.41,17.36 l 10.72,24.66 40.4,78.602 2.15,5.058 c 7.73,16.422 13.66,31.07 17.81,43.961 4.16,13.039 6.26,26.93 6.26,41.629 0.01,20.141 -4.57,37.449 -13.81,51.699 -9.13,14.121 -20.28,21.891 -33.09,21.871 -9.63,0 -19.39,-4.66 -29.3,-13.34 -9.67,-8.46 -21.27,-19.05 -30.43,-31.871 -8.99,-12.66 -14.25,-22.437 -22.19,-38.621 -4.08,-8.316 -18.34,-42.566 -31.67,-74.957 -13.31,-32.351 -25.63,-62.699 -25.63,-62.699 l -0.15,-0.383 -0.01,-0.019 c -0.52,-1.219 -1.04,-2.418 -1.64,-3.821 -2.4,-5.687 -5.23,-11.757 -8.57,-18.179 -3.29,-6.348 -7.32,-12.989 -12.06,-19.871 -4.7,-6.797 -9.82,-12.629 -15.39,-17.5 -5.44,-4.739 -10.51,-6.86 -15.38,-6.86 -4,0.051 -6.31,1.172 -8,3.231 -1.69,2.109 -2.8,5.769 -2.79,11.179 0,5.379 1.1,11.153 3.41,17.371 2.3,6.239 5.33,13.559 9.02,21.86 0.92,0.898 1.3,1.75 1.67,2.73 l 40.41,78.66 2.15,5.059 c 7.75,16.41 13.67,31.063 17.81,43.961 4.18,13.051 6.28,26.93 6.28,41.641 0,20.121 -4.57,37.437 -13.82,51.691 -9.12,14.129 -20.27,21.887 -33.08,21.859 -9.63,0 -19.41,-4.652 -29.3,-13.332 -9.84,-8.589 -19.22,-19.218 -28.23,-31.859 -8.95,-12.59 -17.05,-25.441 -24.33,-38.512 -4.69,-8.437 -10.06,-18.109 -15.97,-28.797 1.28,5.739 2.41,11.09 3.34,16.039 1.97,10.282 2.95,21.301 2.95,32.981 -0.01,21.488 -3.87,37.5 -12.18,47.98 -8.05,10.129 -18.18,15.547 -29.67,15.5 -10.39,0.028 -20.19,-4.082 -28.97,-11.902 -8.64,-7.66 -17.31,-17.809 -26.07,-30.449 l -0.01,-0.02 -0.04,-0.058 c -6.78,-10.641 -14.37,-23.434 -22.79,-38.364 -5.76,-10.199 -12.65,-22.687 -20.54,-37.128 1.69,6.839 3.26,13.511 4.64,19.949 2.93,13.64 4.4,26.582 4.4,38.84 0,17.66 -3.43,31.953 -10.58,42.711 -7.15,10.832 -17.99,16.5 -31.27,16.421 -10.96,0.02 -21.68,-4.871 -31.88,-14.082 -5.03,-4.558 -8.03,-8.058 -11.48,-12.679 -3.46,-4.59 -7.44,-10.309 -14.81,-19.77 -17.3,-22.199 -37.21,-61.781 -54.55,-98.879 -17.3,-37.043 -31.99,-71.672 -38.23,-83 -12.6,-22.941 -24.99,-40.492 -36.8,-53.722 l -0.03,-0.039 c -14.17,-15.61 -26.85,-22.899 -37.51,-22.821 -4.49,0 -7.98,0.742 -10.56,2.102 -2.56,1.347 -4.31,3.199 -5.52,5.879 -2.7,6.109 -4.09,12.769 -4.09,20.101 0,12.481 3.4,30.188 10.32,52.867 6.95,22.743 15.45,46.821 25.54,72.231 10.08,25.449 20.39,50.172 30.97,74.18 10.54,24.011 20.63,45.832 30.24,65.511 L 3849.1,1010 h -87.23 l -38.27,-74.109 -0.03,-0.051 c -22.53,-47.5 -46.65,-92.238 -72.29,-134.192 -25.63,-41.929 -58.88,-88.347 -99.68,-139.226 -9.58,-11.981 -19.9,-24.332 -30.92,-37.063 -11,-12.648 -23.56,-25.679 -37.67,-39.089 -14.03,-13.321 -28.75,-24.461 -44.17,-33.469 -15.3,-8.949 -29.59,-13.313 -42.88,-13.313 -15.35,0.024 -25.65,4.34 -31.94,12.551 -6.44,8.449 -9.85,20.5 -9.85,36.461 -0.03,20.898 8.1,49.961 24.62,86.77 16.52,36.871 37.74,76.179 63.63,117.91 26.03,41.949 48.57,84.961 80.39,118.121 22.95,23.961 55.21,42.527 84.35,57.621 14.55,7.558 28.31,14.25 39.76,20.406 11.48,6.16 20.6,11.652 26.13,17.272 l 4.8,4.92 -80.66,0.25 -0.85,-0.8 -0.94,-0.86 c -2.2,-1.96 -8.11,-6.97 -15.76,-11.422 -7.59,-4.418 -16.89,-8.215 -25.79,-8.274 -6.37,1.504 -88.9,20.576 -177.04,20.576 -5.39,0 -10.79,-0.07 -16.2,-0.21 -83.15,-2.35 -144.53,-43.132 -167.94,-60.632 -23.77,-17.777 -37.58,-41.777 -49.16,-64.449 -11.69,-22.91 -17.62,-44.48 -17.62,-64.777 -0.02,-28.512 9.55,-52.281 28.64,-70.531 19.24,-18.5 47.86,-27.512 85.3,-27.512 9.78,0 19.45,0.871 29,2.57 4.91,0.903 8.78,2.18 11.69,4.172 2.9,1.93 4.82,5.02 4.77,8.43 0.03,1.937 -0.98,3.847 -2.41,5.031 -2.14,1.816 -4.99,2.738 -8.74,3.406 -3.74,0.653 -8.42,0.953 -14.12,0.953 -18.42,0 -34.1,3.071 -47.09,9.11 -13.15,6.097 -23.7,13.879 -31.81,23.359 -8.21,9.621 -14.01,19.621 -17.49,30.02 -3.53,10.601 -5.26,20.269 -5.26,29.019 0,13.922 3.59,27.852 10.85,41.93 7.1,13.723 20.42,26.109 40.28,37 16.44,8.922 33.76,13.652 51.25,18.109 22.04,5.633 49.96,11.571 76.37,13.371 21.72,1.5 93.55,1.762 140.45,1.75 14.09,0 25.78,-0.007 33.38,-0.039 l -55.79,-38.468 -0.11,-0.114 c -32.78,-27.976 -63.9,-49.199 -88.78,-81.379 -24.64,-31.89 -43.88,-63.828 -57.71,-95.808 -13.82,-32 -20.77,-62.211 -20.77,-90.563 -0.02,-34.66 9.43,-64.457 28.36,-89.027 18.94,-24.68 44.68,-37.242 76.22,-37.18 13.8,0 27.52,2.598 41.05,7.75 13.58,5.188 27.88,13.77 42.94,25.68 15.08,11.898 31.75,27.891 50.1,47.91 18.35,20.039 38.82,45.219 61.45,75.539 v 0 c 15.92,20.731 33.74,45.531 53.46,74.391 l 0.03,0.027 0.02,0.051 c 0.24,0.371 0.44,0.66 0.68,1.031 -0.26,-0.648 -0.55,-1.359 -0.77,-1.98 v 0 c -9.65,-23.641 -17.15,-45.879 -22.47,-66.692 -5.35,-20.898 -8.03,-41.566 -8.03,-62.008 0,-29.73 6.59,-53.851 20.05,-72.031 13.31,-18.129 30.48,-27.57 50.62,-27.508 19.23,-0.011 36.05,9.008 51.81,24.649 16.04,15.859 38.65,36.719 60.63,83.14 l 35.1,74.098 0.03,0.102 c 3.53,8.949 14.1,31.789 24.99,53.941 5.43,11.07 10.98,22 15.77,30.981 4.76,8.949 8.88,16.027 11.17,19.078 4.94,6.59 9.45,11.5 13.37,14.629 3.94,3.16 7.17,4.421 9.55,4.402 1.41,0 2.43,-0.199 3.1,-0.5 l 1.28,-1.02 c 0.85,-1.339 1.36,-3.16 1.36,-5.652 0.01,-3.75 -1.23,-9.711 -3.82,-17.48 -2.61,-7.879 -7.54,-21.7 -14.75,-41.379 v 0 l -90.95,-229.602 h 74.72 l 23.79,58.75 v 0 c 13.92,33.121 28.2,64.543 42.83,94.313 14.63,29.699 32.02,61.359 52.17,94.949 11.47,19.14 20.36,31.941 26.29,38.07 5.97,6.27 11.03,8.91 14.47,8.828 1.05,0.024 2.5,-0.468 4.36,-1.906 1.24,-0.992 2.08,-2.633 2.11,-6.004 0.01,-3.84 -0.99,-9.269 -3.11,-16.078 -2.13,-6.859 -6.81,-20.199 -14.01,-39.891 v 0 l -88.75,-231.031 h 74.72 l 33.88,86.91 c 12.97,32.16 25.3,60.332 37.05,84.532 11.72,24.152 26.41,49.371 44.15,75.71 l 1.45,2.192 v 0 c 3.32,4.777 6.44,9.199 9.32,13.269 2.81,3.989 6.45,8.598 11,13.84 4.48,5.188 8.82,9.539 13,13 4.08,3.449 7.31,4.809 8.95,4.75 2.15,-0.031 3.18,-0.543 3.82,-1.23 0.65,-0.68 1.22,-2.039 1.22,-4.512 0,-5.258 -1.47,-11.93 -4.51,-19.891 -3.08,-8.027 -7.22,-17.078 -12.48,-27.078 l -0.01,-0.031 -50.49,-101.711 -0.02,-0.058 c -5.35,-11.641 -9.73,-22.809 -13.11,-33.508 -3.47,-10.864 -5.19,-21.973 -5.19,-33.332 -0.01,-18.871 5.74,-36.461 17.13,-52.52 11.37,-16.199 26.41,-24.711 44.17,-24.66 12.22,-0.012 23.34,4.27 32.93,12.621 6.73,5.848 12.9,12.938 18.57,21.098 l 0.02,0.043 2.05,3.047 0.01,0.031 c 19.72,30.351 40.46,76.789 58.06,118.551 8.78,20.89 16.76,40.578 23.39,56.449 6.61,15.832 11.93,27.949 15.13,33.238 6.66,11.113 14.14,20.563 19.97,27.211 2.9,3.34 5.38,5.973 7.15,7.762 0.87,0.898 1.56,1.578 2.03,2.039 l 0.63,0.609 c 4.05,3.41 7.26,4.762 8.91,4.699 2.14,-0.019 3.16,-0.527 3.8,-1.226 0.65,-0.684 1.22,-2.051 1.22,-4.524 0,-5.238 -1.46,-11.91 -4.5,-19.878 -3.08,-8.04 -7.23,-17.079 -12.47,-27.09 l -0.04,-0.059 -50.49,-101.699 -0.01,-0.043 c -5.34,-11.629 -9.72,-22.797 -13.1,-33.488 -3.47,-10.871 -5.2,-21.981 -5.2,-33.34 -0.02,-16.61 4.46,-32.231 13.29,-46.692 1.2,-1.937 2.47,-3.898 3.84,-5.82 11.37,-16.199 26.41,-24.707 44.17,-24.68 8.28,0 14.94,1.532 20.97,4.582 6,3.02 11.3,7.469 17.27,13.188 12.21,11.73 25.84,32.211 41.31,61.68 l 0.02,0.07 v -0.027 c 2.87,5.726 7.78,15.218 14.76,28.429 2.43,4.641 4.65,8.938 6.77,13.129 -3.08,-16.469 -4.67,-29.422 -4.68,-38.808 0,-7.442 0.87,-15.661 2.58,-24.704 1.71,-9.187 4.96,-18.148 9.67,-26.796 4.78,-8.821 11.49,-16.161 20.04,-21.93 8.71,-5.91 19.44,-8.813 31.9,-8.813 h 0.13 l 11.61,0.993 0.09,0.019 c 14.05,2.141 37.83,10.039 48.25,15.629 11.53,6.219 25.32,16.34 41.58,30.371 16.29,14.098 34.98,33.301 56.12,57.609 v 0 c 3.78,4.2 7.94,9.071 12.42,14.481 -0.8,-7.082 -1.34,-14.121 -1.34,-21.082 -0.03,-27.039 8.43,-49.231 25.39,-65.891 16.87,-16.668 38.69,-25.008 64.77,-24.988 20.21,-0.012 38.62,5.309 54.95,15.961 15.86,10.348 28.99,22.5 39.48,36.43 2.71,2.597 5.45,5.168 8.36,8.07 12.1,12.148 25.05,27.398 38.77,45.32 -0.32,-4.57 -0.54,-9.019 -0.54,-13.261 0,-29.219 6.07,-52.032 18.65,-68.122 12.3,-15.796 26.41,-24.218 41.94,-24.187 13.34,-0.031 25.8,5.711 36.97,16.648 v 0 l 9.61,9.09 -0.06,-0.058 c 9.07,8.718 20.76,21.32 33.78,38.437 11.84,15.594 24.77,35.793 38.77,60.473 -0.72,-2.699 -1.56,-5.539 -2.16,-8.082 -2.72,-11.27 -4.06,-23.297 -4.06,-35.989 0,-23.992 5.54,-43.57 16.83,-58.371 11.17,-14.718 25.3,-22.468 41.62,-22.418 15.81,-0.019 30.09,7.411 42.22,21.559 12.08,14.07 24.77,36 38.29,65.961 l -0.01,-0.031 c 5.78,12.539 9.39,20.808 10.93,25.109 1.51,4.32 2.29,8.102 2.31,11.449 0.04,3.063 -1.2,6.043 -3.52,7.992 -1.99,1.649 -4.12,2.84 -6.59,2.86 -3.69,0.07 -7.15,-1.84 -8.97,-5.031 l -0.01,-0.008 c -1.68,-2.86 -4.27,-9.031 -8.15,-19.192 l -0.21,-0.5 v -0.679 c -3.74,-9.399 -7.5,-18.34 -11.28,-26.789 -3.79,-8.559 -8.68,-18.102 -14.64,-28.59 -5.9,-10.371 -12.47,-19.051 -19.69,-26.031 -7.16,-6.899 -13.77,-10.008 -19.98,-9.989 -3.09,-0.019 -5.42,0.449 -6.98,1.168 -1.57,0.723 -2.39,1.582 -2.97,2.84 -1.5,3.43 -2.26,7.352 -2.26,11.832 -0.01,7.641 2.17,18.461 6.7,32.25 4.54,13.91 8.73,25.879 12.57,35.918 v 0 l 79.32,199.449 h 53.54 c 5.97,0.012 10.82,0.614 14.67,1.973 2.21,0.789 4.11,2.23 5.3,4.211 1.2,1.969 1.69,4.297 1.69,6.828 0,1.789 -0.34,3.512 -1.18,5.012 z m -457.94,-23.614 c 5.08,3.731 10.15,5.481 15.5,5.493 4.72,-0.032 8.19,-1.332 11,-3.922 2.51,-2.289 4.11,-6.571 4.11,-13.367 0.02,-3.141 -1.43,-9.68 -4.52,-18.911 -3.08,-9.203 -7.25,-19.082 -12.47,-29.562 -5.16,-10.309 -11.74,-19.809 -19.74,-28.5 -7.91,-8.641 -16.4,-14.457 -25.47,-17.617 -6.87,-2.282 -14.71,-3.442 -23.57,-3.442 h -4.11 c 20.03,46.032 34.93,77.032 44.44,92.551 4.77,7.828 9.76,13.57 14.83,17.277 z m -214.69,-56.359 0.03,-0.059 -0.03,0.059"
         style="fill:#008350;fill-opacity:1;fill-rule:nonzero;stroke:none"
         id="path12" /><path
         d="m 1647.54,879.52 c 13.49,-0.051 24.92,6.71 33.42,19.3 8.39,12.352 12.76,24.461 12.76,36.258 0.01,8.223 -2.36,15.852 -7.01,22.563 -4.96,7.187 -13.38,10.679 -24.02,10.629 -12.93,0.031 -24.46,-5.969 -33.95,-17.258 -9.47,-11.211 -14.4,-23.371 -14.39,-36.133 -0.02,-10.18 3.13,-18.891 9.47,-25.438 6.25,-6.582 14.41,-9.941 23.72,-9.921"
         style="fill:#008350;fill-opacity:1;fill-rule:nonzero;stroke:none"
         id="path14" /><path
         d="m 2572.29,832.309 -1.2,-2.637 1.19,2.637 c -2.82,1.242 -6.36,1.691 -10.9,1.711 h -51.28 l 41.1,108.152 h -73.28 l -41.1,-108.152 h -40.28 c -4.09,0 -7.75,-0.52 -11.01,-1.598 -2,-0.652 -3.75,-1.981 -4.82,-3.781 -1.07,-1.809 -1.49,-3.911 -1.49,-6.2 0,-1.98 0.3,-3.812 1.11,-5.441 0.8,-1.629 2.18,-2.98 3.85,-3.699 2.65,-1.172 6.12,-1.903 10.61,-2.391 l 0.15,-0.031 h 33.14 l -30.63,-78.348 c -15.35,-24.519 -31.65,-49.492 -40.79,-66.711 -7.39,-13.929 -14.86,-26.8 -22.41,-38.699 -10.3,-16.25 -20.73,-30.672 -31.32,-43.133 l 0.03,0.024 -0.51,-0.582 v -0.02 c -7.81,-9.18 -15.19,-15.441 -21.23,-19.351 -6,-3.957 -10.87,-5.45 -12.81,-5.387 l -0.56,0.047 -0.09,0.043 v 0 c -1.72,0.879 -2.79,1.398 -3.37,2.136 -0.58,0.684 -1.23,1.961 -1.25,5.364 0,2.648 0.43,6.398 1.53,11.636 4.02,19.243 4.02,19.071 8.6,31.602 4.54,12.461 14.52,38.66 29.91,78.57 l 0.03,0.059 1.42,4.281 60.74,147.418 h -68.25 l -9.71,-22.277 c -2.29,6.578 -5.2,12.097 -8.86,16.539 -5.58,6.629 -15.5,9.308 -29.28,9.351 -17.14,-0.011 -36.02,-6.91 -56.74,-20.312 -20.73,-13.399 -40.64,-31.508 -59.77,-54.27 -19.18,-22.808 -34.72,-48.328 -46.6,-76.461 -6.87,-16.257 -11.67,-32.527 -14.58,-48.808 l -0.83,-0.969 v 0.02 c -0.7,-1.02 -1.6,-2.653 -2.87,-5.02 -3.7,-7 -9.75,-19.43 -12.71,-26.441 -2.36,-5.692 -5.22,-11.739 -8.55,-18.168 -3.3,-6.371 -7.33,-12.992 -12.07,-19.883 -4.68,-6.789 -9.81,-12.609 -15.38,-17.481 -5.43,-4.75 -10.5,-6.847 -15.39,-6.847 -4,0.039 -6.31,1.129 -8,3.219 -1.69,2.101 -2.8,5.761 -2.79,11.179 0,5.36 1.11,11.153 3.42,17.36 2.31,6.222 5.33,13.543 9,21.839 0.94,0.903 1.33,1.801 1.71,2.793 l 40.38,78.629 2.21,5.141 v 0 c 7.7,16.371 13.64,30.98 17.77,43.871 4.17,13.039 6.26,26.93 6.26,41.617 0.01,20.153 -4.56,37.461 -13.8,51.699 -9.13,14.153 -20.29,21.911 -33.09,21.891 -9.63,-0.019 -19.39,-4.66 -29.31,-13.34 -9.82,-8.597 -19.22,-19.23 -28.22,-31.879 -8.95,-12.59 -17.06,-25.41 -24.32,-38.488 -4.7,-8.441 -10.07,-18.133 -15.98,-28.832 1.28,5.75 2.41,11.121 3.35,16.059 1.95,10.3 2.93,21.281 2.93,33 -0.01,21.48 -3.84,37.472 -12.17,47.953 -8.05,10.136 -18.19,15.558 -29.67,15.527 -10.39,0.02 -20.17,-4.098 -28.96,-11.918 -8.66,-7.66 -17.32,-17.812 -26.06,-30.441 l -0.03,-0.051 -0.04,-0.039 c -6.77,-10.641 -14.36,-23.43 -22.78,-38.36 -5.77,-10.191 -12.67,-22.691 -20.55,-37.121 1.71,6.86 3.27,13.512 4.64,19.961 2.93,13.602 4.4,26.539 4.4,38.809 0,17.66 -3.43,31.961 -10.59,42.723 -7.15,10.828 -17.98,16.5 -31.26,16.437 -10.98,0 -21.68,-4.891 -31.87,-14.098 -10.09,-9.101 -18.93,-20.05 -26.5,-32.761 -7.53,-12.602 -13.61,-24.758 -18.24,-36.469 -0.83,-2.102 -1.5,-3.902 -2.16,-5.699 v 0 l -59.82,-142.043 0.11,-0.071 c -7.41,-19.488 -15.36,-34.32 -25.5,-49.769 -5.19,-7.899 -10.1,-13.719 -14.59,-17.481 -4.49,-3.769 -8.44,-5.359 -11.82,-5.359 -1.63,-0.027 -4.11,0.711 -7.21,2.492 -1.03,0.61 -1.84,1.52 -2.52,3.207 -0.66,1.703 -1.07,4.133 -1.07,7.25 0,7.231 1.72,15.703 5.24,25.332 3.56,9.739 8.69,21.809 15.4,36.18 l 36.79,77.18 0.03,0.05 c 6.75,15.942 11.83,29.469 15.25,40.68 3.43,11.32 5.16,22.91 5.16,34.738 0.01,17.313 -4.35,33.711 -12.98,49.012 -4.4,7.781 -9.88,13.789 -16.43,17.809 -6.55,4.019 -14.14,6.031 -22.52,6.031 -10.94,0 -21.61,-4.602 -31.81,-13.32 -10.1,-8.621 -19.07,-19.2 -26.89,-31.668 -7.3,-11.641 -18.56,-30.762 -24.1,-42.133 l -62.74,-110.731 -12.52,-22.718 -0.03,-0.078 c -11.25,-23.75 -30.78,-46.563 -47.62,-60.731 -17.95,-15.101 -35.08,-22.391 -51.48,-22.391 -10.09,0.008 -17.65,2.711 -23.27,7.891 -5.45,5.008 -8.43,13.199 -8.44,25.27 0,5.871 1.14,13.75 3.52,23.461 2.37,9.726 5.58,19.937 9.62,30.668 4.08,10.781 8.16,21.101 12.23,30.921 3.82,9.231 7.54,18.118 11.17,26.731 16.87,0.117 34.06,1.789 51.57,5.058 18.42,3.411 35.97,10.559 52.61,21.321 l 0.05,0.031 0.03,0.02 c 16.17,11.277 28.75,24.687 37.63,40.226 8.83,15.453 13.36,30 13.37,43.633 0.05,15.559 -5.55,28.109 -16.65,36.551 -10.94,8.398 -25,12.508 -41.78,12.5 -24.15,0.008 -48,-7.153 -71.45,-21.321 -23.38,-14.14 -44.44,-32.882 -63.14,-56.203 -18.68,-23.277 -33.38,-48.66 -44.05,-76.117 -3.24,-8.289 -5.91,-16.519 -8.17,-24.652 -2.49,-3.778 -7.67,-11.008 -18.83,-27.25 -7.53,-10.957 -24.13,-33.539 -31.02,-45.078 -6.26,-10.59 -20.12,-21.922 -28.33,-28.871 -7.8,-6.629 -15.7,-9.75 -24.08,-9.758 -8.94,0.058 -14.76,3.019 -18.83,9.136 -4.2,6.391 -6.38,14.551 -6.38,24.743 -0.01,13.359 4.11,33.879 12.49,61.148 8.37,27.27 19.28,57.25 32.72,89.883 13.43,32.609 28.19,65.488 44.27,98.609 16.07,33.117 31.06,61.391 44.95,84.867 l -0.01,-0.027 c 33.55,55.617 65.04,96.629 94.28,123.019 29.31,26.51 52.95,39.35 69.79,39.26 4.04,0.01 6.82,-0.67 8.22,-1.55 1.33,-0.91 1.74,-1.62 1.83,-3.39 -0.04,-0.1 -0.27,-0.61 -0.9,-1.34 -0.67,-0.8 -1.72,-1.84 -3.11,-3.03 l 0.03,0.02 -0.02,-0.01 c -6.62,-5.58 -10.4,-11.9 -10.4,-18.79 -0.01,-7.74 3.79,-14.92 10.66,-21.26 7.08,-6.57 16.47,-9.8 27.58,-9.78 13.53,-0.03 24.68,4.09 32.72,12.42 7.89,8.08 12.03,17.59 12,27.99 0.02,9.12 -2.3,16.94 -7.1,23.05 -4.62,5.91 -10.38,10.23 -17.11,12.82 -6.44,2.49 -12.47,3.99 -18.08,4.51 l -0.06,0.01 0.05,-0.01 c -5.36,0.48 -10.24,0.73 -14.68,0.73 -18.65,0 -38.89,-3.56 -60.74,-10.59 -21.86,-7.05 -44.07,-17.36 -66.58,-30.91 -22.53,-13.59 -44.68,-30.27 -66.43,-50.1 -21.78,-19.831 -41.61,-42.088 -59.5,-66.741 v 0 c -10.16,-13.551 -20.43,-28.898 -30.8,-46.027 -10.17,-16.781 -22.3,-38.102 -36.37,-63.852 h -99.75 l 32.01,70.149 v 0 c 14.85,31.152 28.62,56.5 41.26,76.066 12.43,19.265 24.92,32.505 37.19,39.895 9.36,1.39 18.05,2.68 26.04,3.87 8.32,1.22 16.52,3.05 24.58,5.51 8.12,2.45 14.87,5.43 20.23,9 5.58,3.64 8.92,8.79 8.87,14.68 0,3.55 -1.18,7.15 -3.27,10.81 -1.3,2.29 -3.4,4 -5.92,5.03 -2.54,1.04 -5.48,1.48 -8.86,1.48 -8.35,-0.01 -18.4,-2.8 -30.39,-8.17 -11.73,-5.26 -26.37,-12.66 -43.88,-22.1 h -0.83 l -0.71,-0.45 c -3.65,-2.29 -6.71,-3.55 -9.01,-3.92 h -0.03 0.01 c -2.46,-0.43 -8.5,-0.68 -17.55,-0.68 -19.06,0 -42.26,1.67 -69.58,5.03 l -36.792,4.33 h -0.027 c -57.262,6.26 -99.856,9.38 -127.934,9.4 -15.953,0 -31.668,-0.75 -47.14,-2.18 -15.61,-1.48 -32.004,-4.76 -49.231,-9.85 -17.343,-5.13 -34.179,-12.95 -50.492,-23.42 -16.402,-10.53 -30.726,-23.86 -42.926,-39.984 l -0.015,-0.023 -0.012,-0.023 c -9.277,-12.68 -16.731,-26.122 -22.352,-40.29 -5.66,-14.269 -8.496,-29.089 -8.496,-44.339 0,-13.801 2.473,-27.719 7.371,-41.7 4.926,-14.062 12.582,-27.132 22.895,-39.152 10.363,-12.09 23.207,-21.828 38.434,-29.211 15.347,-7.406 33.113,-11.09 53.183,-11.09 20.113,0 40.445,4.153 60.938,12.473 20.476,8.289 39.257,19.75 56.316,34.367 17.074,14.633 30.66,31.383 40.688,50.242 10.054,18.86 15.136,38.239 15.128,57.961 0.02,17.328 -4.761,31.207 -14.55,41 -9.383,9.27 -17.071,14.414 -24.411,14.547 -2.316,0 -4.519,-0.5 -6.242,-1.992 -1.73,-1.492 -2.453,-3.785 -2.433,-5.965 0.047,-1.441 0.527,-2.371 1.109,-3.441 0.559,-0.969 1.336,-2.032 2.274,-3.211 h -0.008 c 4.59,-6.91 6.726,-13.117 6.722,-18.59 0.012,-12.789 -4.382,-28.008 -13.375,-45.52 -9.015,-17.55 -20.992,-34.507 -35.972,-50.937 -14.965,-16.391 -31.328,-29.781 -49.09,-40.184 -17.68,-10.379 -34.813,-15.468 -51.516,-15.476 -10.254,0 -19.734,1.75 -28.492,5.199 -8.73,3.469 -15.727,8.32 -21.164,14.648 -7.16,8.973 -10.879,21.2 -10.887,37.09 0,14.449 3.36,28.531 10.153,42.332 6.836,13.91 15.906,26.758 27.246,38.578 11.406,11.86 23.863,22.442 37.406,31.692 13.574,9.301 27.23,17.031 41.004,23.191 h 0.015 c 26.204,11.908 52.739,19.888 79.618,23.938 27.031,4.05 53.195,6.09 78.535,6.09 6.156,0 15.277,-0.25 27.277,-0.7 11.992,-0.5 27.855,-1.22 47.555,-2.17 h 0.04 0.01 c 28.12,-0.94 47.61,-1.58 58.69,-1.91 -32.31,-18.54 -59.98,-41.412 -82.82,-68.662 -24.643,-29.449 -49.807,-67.219 -75.53,-113.258 -13.058,-0.05 -21.519,-0.492 -26.007,-1.531 -2.571,-0.578 -4.844,-1.937 -6.305,-4.039 -1.469,-2.07 -2.066,-4.629 -2.066,-7.43 0.007,-2.242 0.371,-4.308 1.351,-6.09 0.953,-1.789 2.606,-3.179 4.524,-3.859 1.761,-0.641 4.058,-1.043 7.234,-1.422 2.465,-0.289 5.578,-0.508 9.051,-0.73 l -35.571,-73.891 -0.011,-0.008 c -12.473,-26.371 -24.446,-49.148 -35.918,-68.25 -11.399,-19 -26.285,-37.941 -44.657,-56.789 -18.234,-18.711 -40.613,-34 -67.238,-45.89 -26.484,-11.813 -57.304,-17.762 -92.547,-17.762 -25.699,0 -46.976,3.449 -63.812,10.23 -17.028,6.84 -30.117,15.211 -39.352,24.911 l -0.023,0.031 -0.031,0.031 c -8.356,8.348 -14.34,17.906 -18.047,28.797 -3.797,11.101 -5.621,20.351 -5.617,27.562 0,6.348 1.242,11.457 3.574,15.457 l 0.008,0.012 c 1.179,2.059 2.39,3.469 3.48,4.281 1.098,0.829 1.996,1.11 3.012,1.129 0.89,0 2.031,-0.351 3.504,-1.441 1.453,-1.059 3.152,-2.809 4.961,-5.297 l 0.011,-0.012 0.012,-0.019 c 3.027,-4.039 6.242,-7.27 9.676,-9.66 3.906,-2.692 9.16,-3.743 15.719,-3.762 11.308,-0.02 21.64,4.32 30.48,12.68 9,8.453 13.566,19.613 13.531,32.761 0.024,12.211 -4.422,23.078 -13.078,31.961 -8.765,9.02 -20.75,13.52 -35.254,13.489 -18.125,0.019 -34.609,-7.52 -48.945,-22.161 -14.559,-14.757 -21.762,-34.769 -21.738,-59.339 -0.012,-23.649 6.933,-45.211 20.726,-64.418 l 0.016,-0.012 0.015,-0.039 c 9.84,-13.281 21.915,-24.129 36.2,-32.512 14.156,-8.309 28.726,-14.289 43.675,-17.969 14.778,-3.64 27.665,-5.82 38.711,-6.57 10.879,-0.73 21.403,-1.078 31.563,-1.078 50.762,0 95.098,7.367 133.012,22.18 37.773,14.777 69.351,33.937 94.656,57.546 25.152,23.454 45.637,47.922 61.418,73.422 15.695,25.352 30.301,53.25 43.812,83.641 l 20.865,46.578 h 99.09 c -2.45,-6.16 -5.03,-12.687 -7.8,-19.828 -3.39,-8.723 -7.24,-19.57 -11.58,-32.602 -6.76,-20.269 -12.19,-39.57 -16.31,-57.937 -4.13,-18.5 -6.19,-36.981 -6.19,-55.442 -0.01,-36.011 8.14,-64.359 24.8,-84.781 16.4,-20.109 34.7,-30.629 54.54,-30.609 17.96,0.058 40.93,10.73 56.67,27.64 8.8,9.5 23.37,26.481 37.08,46.809 0.56,-25.719 8.93,-46.988 25.27,-63.051 16.87,-16.648 38.69,-25.019 64.77,-24.988 20.21,0 38.62,5.328 54.94,15.98 16.13,10.489 29.48,22.86 40.04,37.122 9.87,13.328 21.41,28.968 27.44,41.699 v 0 l 2.08,4.078 77.66,137.101 12.86,22.379 0.01,0.012 c 4.28,7.609 8.67,14.629 13.18,21.02 4.44,6.328 9.11,11.558 13.94,15.699 4.78,4.129 8.71,5.808 11.44,5.789 1.9,0 3.29,-0.289 4.15,-0.668 0.88,-0.383 1.24,-0.762 1.54,-1.332 0.99,-2.008 1.5,-4.16 1.5,-6.629 0.03,-3.98 -1.99,-11.309 -6.25,-21.23 -4.29,-10 -9.57,-20.989 -15.78,-32.95 l -0.02,-0.05 -33.2,-68.571 -0.01,-0.008 c -7.72,-16.91 -13.78,-31.902 -18.14,-45.011 -4.42,-13.239 -6.64,-26.539 -6.64,-39.852 -0.01,-22.117 5.81,-41.34 17.52,-57.238 11.59,-15.879 25.93,-24.289 42.35,-24.258 11.89,-0.012 23.11,4.977 33.34,14.477 10.1,9.363 18.58,20.429 25.46,33.203 6.01,11.148 11.01,21.718 15.13,31.769 h 0.01 l 62.45,147.66 0.16,-0.05 1.09,2.82 c 0.45,1.187 0.88,2.258 1.4,3.648 v 0 c 0.91,1.84 1.63,3.512 2.13,5 h 0.01 c 7.13,18.071 15.67,33.692 25.58,46.903 4.95,6.609 9.46,11.476 13.37,14.617 3.92,3.152 7.17,4.441 9.54,4.41 1.4,0.012 2.43,-0.199 3.11,-0.488 l 1.28,-1.02 c 0.84,-1.371 1.36,-3.179 1.36,-5.672 0.01,-3.757 -1.22,-9.699 -3.81,-17.468 -2.63,-7.879 -7.56,-21.68 -14.76,-41.371 L 1653.4,532.172 h 74.74 l 23.79,58.738 v 0 c 13.92,33.121 28.19,64.551 42.84,94.301 14.6,29.73 32,61.371 52.15,94.961 11.47,19.137 20.36,31.93 26.28,38.066 6,6.274 11.06,8.903 14.49,8.832 1.03,0 2.51,-0.48 4.35,-1.922 1.24,-0.976 2.09,-2.609 2.11,-5.976 0.02,-3.863 -0.98,-9.301 -3.1,-16.09 -2.13,-6.852 -6.81,-20.172 -14.01,-39.832 v 0 L 1788.28,532.172 H 1863 l 33.88,86.887 v 0 c 12.96,32.16 25.31,60.351 37.06,84.55 11.69,24.121 26.41,49.371 44.13,75.731 l 1.46,2.172 v 0 c 3.33,4.769 6.45,9.187 9.32,13.258 2.81,3.992 6.47,8.589 11,13.82 4.48,5.219 8.82,9.551 13,13.031 4.07,3.449 7.31,4.801 8.96,4.719 2.15,-0.012 3.16,-0.52 3.8,-1.199 0.65,-0.7 1.21,-2.059 1.22,-4.532 0.01,-5.238 -1.45,-11.918 -4.49,-19.879 -3.08,-8.031 -7.24,-17.058 -12.48,-27.089 l -0.02,-0.012 -50.51,-101.75 -0.01,-0.051 c -5.34,-11.609 -9.71,-22.777 -13.11,-33.488 -3.45,-10.84 -5.19,-21.981 -5.19,-33.328 -0.01,-18.852 5.74,-36.473 17.12,-52.512 11.4,-16.211 26.42,-24.719 44.2,-24.66 12.2,-0.008 23.33,4.269 32.91,12.59 9.41,8.199 17.78,18.66 25.13,31.41 l -0.01,-0.012 c 2.89,4.942 5.89,10.453 8.96,16.434 1.98,-18 6.88,-32.512 15.03,-43.301 10.59,-14.121 22.63,-21.723 35.85,-21.723 13.63,0.024 27.07,7.582 40.34,21.84 13.13,14.113 26.67,32.024 40.69,53.774 l 0.02,0.027 0.03,0.031 c 1.39,2.34 3.79,6.039 7.13,11.07 3.39,5.09 8.57,13.141 15.55,24.2 0.17,0.281 0.31,0.519 0.48,0.769 -1.5,-6.289 -2.84,-13.301 -4.01,-21.121 -1.46,-9.738 -2.2,-18.769 -2.2,-27.109 v -0.078 l 0.11,-1.903 v 0 c 0.29,-17.718 4.26,-32.429 12.34,-43.699 l 0.04,-0.051 1.52,-1.929 c 8,-10.289 18.24,-15.848 30,-15.821 11.39,-0.019 22.05,4.742 31.56,13.774 5.33,5.058 10.19,10.718 14.69,16.84 8.33,8.097 17.53,18.757 27.77,32.226 7.59,10.012 15.64,21.902 24.12,35.652 -1.04,-7.32 -1.62,-14.921 -1.62,-22.789 0,-23.992 5.51,-43.57 16.81,-58.382 11.17,-14.727 25.3,-22.457 41.62,-22.411 15.83,-0.039 30.08,7.403 42.21,21.571 12.1,14.07 24.77,35.992 38.31,65.953 l -0.01,-0.031 c 5.79,12.55 9.39,20.808 10.92,25.129 1.5,4.269 2.32,8.05 2.33,11.41 0.04,3.082 -1.21,6.039 -3.55,7.992 -1.97,1.668 -4.12,2.848 -6.57,2.859 -3.69,0.09 -7.17,-1.82 -8.98,-5.011 -1.69,-2.86 -4.28,-9.04 -8.16,-19.211 l -0.19,-0.5 v -0.68 c -3.77,-9.41 -7.53,-18.328 -11.28,-26.809 -3.81,-8.531 -8.69,-18.07 -14.67,-28.59 -5.89,-10.359 -12.46,-19.019 -19.67,-26.011 -7.16,-6.899 -13.78,-10 -19.97,-10 -3.1,0 -5.43,0.453 -7,1.172 -1.57,0.75 -2.39,1.597 -2.96,2.847 -1.5,3.442 -2.27,7.34 -2.27,11.813 -0.02,7.66 2.17,18.5 6.7,32.269 4.55,13.891 8.72,25.84 12.55,35.879 v 0 l 77.14,190.68 h 53.55 c 5.96,0.031 10.79,0.609 14.65,1.992 2.2,0.758 4.09,2.231 5.28,4.199 1.19,1.969 1.69,4.301 1.69,6.828 0,1.801 -0.34,3.512 -1.18,5.024 -0.84,1.519 -2.22,2.699 -3.78,3.387 z m -336.08,-25.539 0.7,0.691 c 3.23,3.23 6.58,6 10.01,8.301 3.16,2.097 6.49,3.097 10.28,3.109 3.49,-0.012 6.62,-1.371 9.85,-4.562 2.98,-3 4.53,-7.008 4.55,-12.707 0.04,-12.161 -5.72,-32.852 -17.45,-61.27 -11.73,-28.5 -26.21,-58.184 -43.47,-89.113 -17.25,-30.887 -34.23,-56.707 -50.92,-77.469 -8.34,-10.352 -15.68,-18.059 -21.92,-23.059 -6.23,-5.062 -11.32,-7.25 -14.75,-7.203 -4.02,0.032 -6.38,1.114 -8.03,3.094 -1.68,1.969 -2.77,5.406 -2.76,10.578 -0.02,3.539 1.1,9.352 3.47,17.078 2.36,7.731 5.93,17.434 10.73,29.032 9.57,23.23 21.67,49.371 36.32,78.39 14.63,29.039 28.67,55.192 42.1,78.461 13.38,23.18 23.93,38.828 31.29,46.649 z m -833.24,9.402 c 5.08,3.726 10.15,5.476 15.5,5.476 4.72,-0.019 8.19,-1.316 11.01,-3.91 2.5,-2.297 4.11,-6.566 4.11,-13.367 0.03,-3.133 -1.44,-9.68 -4.54,-18.91 -3.08,-9.223 -7.23,-19.082 -12.46,-29.531 -5.17,-10.34 -11.75,-19.852 -19.73,-28.539 -7.92,-8.629 -16.41,-14.45 -25.5,-17.61 v 0 c -6.84,-2.293 -14.69,-3.453 -23.55,-3.453 h -4.12 c 20.03,46.031 34.95,77.043 44.45,92.563 4.79,7.828 9.77,13.57 14.83,17.281 z m -297.6,220.268 -0.01,-0.01 z m -593.89,-373.87 -0.015,-0.039 0.023,0.039 z"
         style="fill:#008350;fill-opacity:1;fill-rule:nonzero;stroke:none"
         id="path16" /><path
         d="m 3721.16,563.77 c 0.02,0 0.04,0.011 0.05,0.039 v 0 l -0.05,-0.039"
         style="fill:#008350;fill-opacity:1;fill-rule:nonzero;stroke:none"
         id="path18" /><path
         d="m 3044.24,825.461 c -8.03,4.758 -16,7.25 -23.84,7.25 -15.63,0.039 -28.9,-5.941 -38.96,-17.582 -10.01,-11.539 -23.31,-35.039 -40.23,-62.391 l -0.01,-0.027 -2.61,-4.313 -0.01,-0.019 -0.01,-0.027 c -12.5,-21.622 -22.46,-38.442 -29.88,-50.411 -6.66,-10.722 -14.32,-22.14 -22.71,-34.019 -2.44,4.976 -5.32,10.918 -8.6,17.879 -4.31,9.07 -9.34,20.25 -15.1,33.461 -5.76,13.168 -11.28,26.578 -16.55,40.238 -5,12.961 -8.87,24.441 -11.69,34.52 l 0.87,0.859 c 13.42,11.531 25.19,21.859 35.3,31.012 10.19,9.199 20.22,19.359 30.15,30.5 9.99,11.218 18.08,22.98 24.21,35.238 6.17,12.32 9.33,24.301 9.33,35.902 0.04,15.41 -4.56,27.239 -14.14,34.418 -9.15,6.871 -19.94,10.332 -32.02,10.321 -13.16,0 -26.88,-4.309 -41.14,-12.661 -14.28,-8.359 -27.51,-19.898 -39.7,-34.539 -12.26,-14.691 -22.14,-31.91 -29.69,-51.648 -7.59,-19.801 -11.36,-40.731 -11.36,-62.692 0,-12.191 1.38,-25.261 4.05,-39.152 l -38.97,-29.918 c -27.04,-20.769 -47.97,-39.969 -62.84,-57.769 -15.13,-18.082 -22.67,-40.371 -22.65,-66.379 0,-8.492 1.24,-17.172 3.7,-26.032 2.51,-9.058 7.03,-17.71 13.5,-25.91 6.57,-8.351 15.64,-15.109 27.04,-20.308 11.55,-5.274 25.66,-7.813 42.3,-7.813 23.46,0 44.28,4.762 62.3,14.383 16.5,8.816 31.79,19.949 45.97,33.137 l 8.74,-25.559 0.69,-1.41 c 5.24,-16.68 9.42,-31.129 12.52,-43.25 3.06,-12.02 4.59,-24.398 4.59,-37.141 -0.02,-32.168 -9.15,-56.32 -27.19,-73.218 -18.24,-17.051 -40.45,-25.52 -67.24,-25.532 -22.23,0 -40.8,4.379 -55.89,12.961 -7.52,4.27 -13,9.141 -16.59,14.489 -3.59,5.371 -5.36,11.25 -5.37,17.941 0.01,1.949 0.45,3.672 1.44,5.43 0.75,1.199 1.39,1.679 3.59,1.769 1.17,0.012 3.27,-0.539 5.92,-1.859 l 0.12,-0.078 0.14,-0.051 c 4.01,-1.481 7.05,-2.332 9.67,-2.34 7.09,-0.043 13.63,3.098 19.05,8.82 5.51,5.758 8.4,12.879 8.37,20.758 0.02,8.539 -3.67,16.551 -10.55,23.66 -7.02,7.34 -16.51,11 -27.68,10.969 -12.27,0.031 -23.25,-4.687 -32.34,-13.828 -9.23,-9.199 -13.86,-21.418 -13.83,-35.941 -0.02,-21.161 10.18,-40.547 29.84,-57.7 19.9,-17.418 47.85,-25.968 83.39,-25.961 24.91,0 47.28,5.153 66.97,15.473 19.58,10.289 35.79,24.051 48.56,41.231 12.69,17.078 22.21,35.628 28.57,55.648 6.3,19.969 9.5,39.238 9.5,57.84 0,19.019 -2.68,38.148 -8.04,57.379 -5.19,18.652 -12,38.293 -20.39,58.972 9,11.539 19.49,26.829 31.59,46.149 12.51,19.961 26.93,43.39 43.28,70.32 l -0.03,-0.058 2.2,3.668 v 0 c 5.25,8.101 9.52,14.269 12.79,18.468 1.53,1.973 3.01,3.383 4.32,4.203 1.33,0.848 2.44,1.161 3.49,1.161 1.19,0 2.02,-0.153 2.42,-0.321 l 0.39,-0.25 -0.01,0.028 c 0.49,-0.957 1.06,-2.887 1.49,-5.5 v -1.848 -0.289 l 0.06,-0.281 c 1.01,-5.102 2.68,-9.621 5.04,-13.563 1.46,-2.437 3.78,-4.207 6.6,-5.269 2.81,-1.071 6.11,-1.547 9.96,-1.547 9.39,-0.043 18.03,3.617 25.41,10.508 7.66,7.109 11.41,17.359 11.38,29.902 0,6.988 -0.98,12.976 -3.11,17.969 -2.12,4.988 -5.45,8.968 -9.84,11.57 z m -77.51,-65.512 -0.02,-0.039 0.03,0.051 z m -131.25,157.36 c 4.37,5.062 8.74,8.492 13.06,10.441 4.55,2.039 8.49,2.98 11.79,2.98 4.65,0 9.69,-1.492 15.12,-4.64 2.21,-1.32 3.94,-3.43 5.23,-6.809 1.27,-3.39 1.98,-7.992 1.98,-13.761 0,-4.122 -0.46,-8.879 -1.39,-14.301 -0.91,-5.16 -3.12,-11.989 -6.68,-20.258 -3.44,-8.051 -9.31,-17.231 -17.6,-27.43 -7.47,-9.179 -17.38,-18.34 -29.48,-27.453 -4.49,18.211 -6.81,34.402 -6.81,48.332 0,12.77 1.42,23.539 4.18,32.289 2.8,8.871 6.37,15.731 10.6,20.61 z m -18.93,-276.797 c 3.82,-10.071 6.47,-16.91 7.92,-20.543 1.3,-3.258 3.26,-8.598 5.81,-15.77 -9.91,-10.117 -19.39,-16.828 -28.28,-20.078 -9.61,-3.512 -18.09,-5.199 -25.3,-5.199 -17.06,0.027 -31.8,6.316 -44.82,19.316 -12.89,12.903 -19.31,29.532 -19.34,50.59 0.03,21.031 6.35,38.473 19.08,52.871 12.28,13.821 27.53,27.25 45.58,40.332 1.6,-5.75 3.26,-11.32 5.02,-16.621 2.17,-6.519 4.59,-13.289 7.25,-20.301 2.65,-7 5.56,-14.129 8.71,-21.39 3.11,-7.188 9.23,-21.617 18.37,-43.207"
         style="fill:#008350;fill-opacity:1;fill-rule:nonzero;stroke:none"
         id="path20" /><path
         d="m 2047.71,1569.25 c 13.59,0 18.49,-5.31 18.49,-12.21 0,-22.81 -32.63,-5.83 -41.86,-58.37 l -38.07,-214.37 c -2.17,-13.26 -8.15,-39.8 -8.15,-53.06 0,-24.41 26.1,-17.51 26.1,-34.49 0,-11.14 -8.16,-15.92 -23.92,-15.92 h -98.96 c -13.59,0 -19.57,4.25 -19.57,12.74 0,22.28 32.07,4.77 41.32,58.37 l 36.42,213.83 c 2.72,14.34 8.16,38.74 8.16,54.14 0,22.29 -27.18,16.97 -27.18,33.42 0,9.03 5.98,15.92 25.01,15.92 z m 106.89,-55.48 c 9.9,0 12.95,-3.34 24.74,-23.39 l 96.28,-166 h 0.76 c 8.38,59.42 22.84,134.44 22.84,153.37 0,15.6 -17.51,14.12 -17.51,24.89 0,6.31 5.71,11.13 12.93,11.13 h 49.48 c 6.47,0 9.89,-3.34 9.89,-8.53 0,-15.23 -20.93,-5.21 -26.63,-41.23 l -33.49,-202.75 c -2.66,-15.97 -5.33,-20.79 -24.35,-20.79 -14.85,0 -17.51,6.68 -26.27,25.24 -33.1,70.56 -80.29,144.08 -109.98,196.82 h -0.76 c -6.84,-56.08 -27.4,-171.19 -27.4,-186.05 0,-13.74 20.93,-10.39 20.93,-24.51 0,-4.82 -5.7,-10.02 -15.98,-10.02 h -52.14 c -6.47,0 -11.41,1.86 -11.41,10.39 0,15.61 24.73,1.11 31.58,43.82 10.28,65.73 28.55,147.43 28.55,181.97 0,16.33 -21.32,12.25 -21.32,25.25 0,5.94 6.47,10.39 22.84,10.39 z m 322.76,0 c 9.52,0 12.95,-3.71 12.95,-8.53 0,-15.97 -22.84,-4.1 -29.31,-40.85 l -26.64,-150.03 c -1.52,-9.28 -5.71,-27.85 -5.71,-37.14 0,-17.08 18.27,-12.25 18.27,-24.13 0,-7.8 -5.71,-11.14 -16.75,-11.14 h -69.26 c -9.51,0 -13.7,2.97 -13.7,8.91 0,15.59 22.46,3.35 28.93,40.85 l 25.49,149.65 c 1.91,10.03 5.72,27.11 5.72,37.88 0,15.59 -19.04,11.88 -19.04,23.4 0,6.31 4.19,11.13 17.51,11.13 z m 258.8,0 c 9.89,0 12.18,-1.48 12.18,-37.13 0,-11.88 -4.57,-17.82 -13.7,-17.82 -9.14,0 -11.8,7.79 -19.03,15.59 -7.23,7.8 -19.03,15.6 -46.81,15.6 -12.56,0 -15.6,-3.35 -17.88,-13.74 -10.66,-49.02 -31.98,-183.82 -31.98,-199.05 0,-15.96 18.27,-12.62 18.27,-24.13 0,-6.32 -4.56,-11.14 -16.74,-11.14 h -69.26 c -11.8,0 -15.23,3.34 -15.23,9.66 0,13.73 24.36,7.42 28.93,36.39 7.61,46.04 31.96,181.21 31.96,194.95 0,4.09 -3.04,7.06 -11.03,7.06 -29.68,0 -44.91,-8.54 -55.18,-17.08 -9.9,-8.54 -14.46,-17.09 -22.45,-17.09 -6.09,0 -10.28,3.71 -10.28,9.66 0,8.16 14.47,48.27 20.55,48.27 z m 125.62,0 c 9.52,0 12.94,-3.71 12.94,-8.53 0,-15.97 -22.83,-4.1 -29.3,-40.85 l -26.64,-150.03 c -1.52,-9.28 -5.71,-27.85 -5.71,-37.14 0,-17.08 18.27,-12.25 18.27,-24.13 0,-7.8 -5.71,-11.14 -16.75,-11.14 h -69.26 c -9.51,0 -13.7,2.97 -13.7,8.91 0,15.59 22.45,3.35 28.93,40.85 l 25.49,149.65 c 1.91,10.03 5.72,27.11 5.72,37.88 0,15.59 -19.04,11.88 -19.04,23.4 0,6.31 4.19,11.13 17.51,11.13 z m 70.81,-181.21 c -6.47,-11.52 -25.5,-46.42 -25.5,-57.93 0,-13.74 17.13,-11.52 17.13,-21.54 0,-7.8 -6.86,-11.14 -17.13,-11.14 h -47.95 c -7.22,0 -11.03,2.6 -11.03,8.54 0,14.11 14.83,8.54 25.11,29.33 40.34,82.44 92.09,171.2 130.91,219.1 11.42,14.11 20.17,20.06 28.93,20.06 12.17,0 19.79,-5.21 23.97,-14.87 30.83,-70.55 47.95,-181.21 58.61,-222.79 6.85,-27.11 17.89,-16.72 17.89,-29.71 0,-6.69 -5.71,-9.66 -15.99,-9.66 h -69.64 c -8.37,0 -12.56,2.97 -12.56,9.28 0,15.97 21.31,5.2 21.31,26.36 0,13 -5.32,40.48 -8.37,54.97 z m 111.12,25.24 c -8.37,36.4 -18.3,75.34 -30.48,110.98 -23.59,-34.17 -55.14,-86.47 -67.32,-110.98 z m 334.17,155.97 c 9.9,0 12.18,-1.48 12.18,-37.13 0,-11.88 -4.56,-17.82 -13.7,-17.82 -9.13,0 -11.79,7.79 -19.03,15.59 -7.23,7.8 -19.03,15.6 -46.8,15.6 -12.57,0 -15.61,-3.35 -17.89,-13.74 -10.66,-49.02 -31.97,-183.82 -31.97,-199.05 0,-15.96 18.27,-12.62 18.27,-24.13 0,-6.32 -4.57,-11.14 -16.74,-11.14 h -69.27 c -11.8,0 -15.22,3.34 -15.22,9.66 0,13.73 24.35,7.42 28.93,36.39 7.6,46.04 31.96,181.21 31.96,194.95 0,4.09 -3.05,7.06 -11.03,7.06 -29.69,0 -44.92,-8.54 -55.19,-17.08 -9.89,-8.54 -14.46,-17.09 -22.45,-17.09 -6.09,0 -10.28,3.71 -10.28,9.66 0,8.16 14.47,48.27 20.55,48.27 z m 125.62,0 c 9.52,0 12.94,-3.71 12.94,-8.53 0,-15.97 -22.83,-4.1 -29.3,-40.85 l -26.64,-150.03 c -1.52,-9.28 -5.7,-27.85 -5.7,-37.14 0,-17.08 18.27,-12.25 18.27,-24.13 0,-7.8 -5.72,-11.14 -16.76,-11.14 h -69.26 c -9.51,0 -13.69,2.97 -13.69,8.91 0,15.59 22.44,3.35 28.92,40.85 l 25.5,149.65 c 1.9,10.03 5.71,27.11 5.71,37.88 0,15.59 -19.04,11.88 -19.04,23.4 0,6.31 4.19,11.13 17.51,11.13 z m 105.82,0 c 10.66,0 16.37,-3.34 16.37,-8.91 0,-18.57 -26.26,-7.06 -26.26,-33.41 0,-52 21.31,-141.49 43.38,-184.2 60.89,92.09 98.18,171.93 98.18,188.28 0,17.08 -21.69,12.24 -21.69,25.61 0,7.44 6.47,12.63 16.36,12.63 h 49.47 c 10.29,0 14.47,-4.08 14.47,-11.13 0,-13 -11.03,-3.35 -27.02,-36.4 -14.84,-30.45 -68.5,-140.36 -109.6,-195.7 -23.21,-31.56 -29.3,-33.8 -40.72,-33.8 -10.27,0 -15.6,1.49 -20.93,10.78 -25.5,44.93 -46.43,136.66 -57.84,217.98 -4.57,32.67 -19.41,23.03 -19.41,35.64 0,6.69 4.19,12.63 14.84,12.63 z m 514.5,55.48 c 14.67,0 22.28,-3.71 22.28,-15.92 0,-33.96 -5.44,-58.37 -21.2,-58.37 -13.59,0 -14.68,10.09 -24.48,20.16 -9.79,10.09 -28.26,20.18 -77.74,20.18 -72.32,0 -76.66,-3.19 -83.74,-44.05 l -14.67,-84.37 h 94.6 c 39.69,0 39.69,20.16 55.46,20.16 7.08,0 11.96,-6.36 11.96,-14.33 0,-5.83 -2.17,-58.89 -26.09,-58.89 -14.15,0 -11.98,19.1 -48.95,19.1 h -92.96 c -5.44,-31.84 -19.58,-97.63 -19.58,-131.07 0,-20.7 8.71,-27.06 39.14,-27.06 92.44,0 110.92,7.42 131.58,24.41 14.15,11.14 21.2,22.29 34.8,22.29 6.53,0 13.6,-4.25 13.6,-11.15 0,-5.84 -14.14,-69.51 -31.54,-69.51 h -289.24 c -13.61,0 -19.59,4.25 -19.59,12.74 0,22.28 32.07,4.77 41.33,58.37 l 37.51,213.83 c 4.9,28.66 8.16,38.74 8.16,54.14 0,22.29 -27.19,16.97 -27.19,33.42 0,9.03 5.99,15.92 25.01,15.92 z m -354.54,4.41 H 2114.42 v -24.57 h 1654.86 z m -86.2,-364.2 H 2028.22 v -24.57 h 1654.86 v 24.57"
         style="fill:#1c80cb;fill-opacity:1;fill-rule:nonzero;stroke:none"
         id="path22" /><path
         d="m 6517.48,666.219 c -229.03,0 -443.94,42.64 -605.16,120.062 -155.25,74.559 -240.75,171.489 -240.75,272.919 0,101.4 85.5,198.3 240.75,272.85 161.22,77.42 376.13,120.05 605.16,120.05 229.04,0 443.95,-42.63 605.16,-120.05 155.27,-74.55 240.77,-171.45 240.77,-272.85 0,-101.43 -85.5,-198.36 -240.77,-272.919 -161.2,-77.422 -376.12,-120.062 -605.16,-120.062"
         style="fill:#b6cfee;fill-opacity:1;fill-rule:nonzero;stroke:none"
         id="path24" /><path
         d="m 6517.48,1426.54 c 225.27,0 436.27,-41.74 594.1,-117.53 143.79,-69.05 226.26,-160.1 226.26,-249.81 0,-89.751 -82.47,-180.821 -226.26,-249.868 -157.83,-75.801 -368.81,-117.543 -594.1,-117.543 -225.28,0 -436.26,41.742 -594.09,117.543 -143.78,69.047 -226.25,160.117 -226.25,249.868 0,89.71 82.47,180.76 226.25,249.81 157.84,75.79 368.82,117.53 594.09,117.53 m 0,51.12 c -481.3,0 -871.47,-187.36 -871.47,-418.46 0,-231.169 390.17,-418.528 871.47,-418.528 481.31,0 871.49,187.359 871.49,418.528 0,231.1 -390.18,418.46 -871.49,418.46 v 0"
         style="fill:#008350;fill-opacity:1;fill-rule:nonzero;stroke:none"
         id="path26" /><path
         d="m 6089.73,1181.62 c 0,18.06 0,24.55 -10.66,27.33 -11.12,3.24 -13.9,7.41 -13.9,15.75 0,12.51 12.51,15.75 22.7,15.75 h 88.03 c 10.19,0 22.7,-3.24 22.7,-15.75 0,-8.34 -5.09,-11.11 -9.27,-12.98 -14.36,-7.41 -15.28,-13.89 -15.28,-30.1 V 960.16 c 0,-14.359 0,-21.781 9.73,-26.879 9.73,-5.09 14.82,-7.871 14.82,-16.211 0,-12.5 -12.51,-15.75 -22.7,-15.75 h -88.03 c -10.19,0 -22.7,3.25 -22.7,15.75 0,8.34 5.1,11.121 11.58,14.371 12.05,5.09 12.98,12.5 12.98,28.719 v 221.46"
         style="fill:#008350;fill-opacity:1;fill-rule:nonzero;stroke:none"
         id="path28" /><path
         d="m 6284.79,1181.62 c 0,17.14 -1.4,22.69 -13.44,28.26 -5.1,2.31 -11.12,6.48 -11.12,14.82 0,12.51 12.5,15.75 22.69,15.75 h 88.04 c 10.19,0 22.7,-3.24 22.7,-15.75 0,-8.34 -4.64,-12.51 -11.12,-14.82 -12.05,-4.64 -13.44,-8.35 -13.44,-28.26 v -78.77 h 138.07 v 78.77 c 0,16.21 -0.47,22.69 -13.44,28.26 -5.56,2.31 -11.11,6.48 -11.11,14.82 0,12.51 12.49,15.75 22.69,15.75 h 88.03 c 10.2,0 22.7,-3.24 22.7,-15.75 0,-8.34 -5.56,-12.51 -11.12,-14.82 -13.89,-5.57 -13.44,-12.98 -13.44,-28.26 V 960.16 c 0,-14.359 -0.45,-20.851 10.66,-26.879 8.81,-5.09 13.9,-7.871 13.9,-16.211 0,-12.5 -12.5,-15.75 -22.7,-15.75 h -88.03 c -10.2,0 -22.69,3.25 -22.69,15.75 0,8.34 4.16,11.121 10.18,13.43 12.97,5.102 14.37,15.301 14.37,29.66 V 1068.1 H 6369.1 V 960.16 c 0,-16.219 -0.46,-20.851 11.59,-27.34 7.88,-4.629 12.97,-7.41 12.97,-15.75 0,-12.5 -12.51,-15.75 -22.7,-15.75 h -88.04 c -10.19,0 -22.69,3.25 -22.69,15.75 0,8.34 5.09,11.121 14.36,15.75 8.8,4.629 10.2,11.121 10.2,27.34 v 221.46"
         style="fill:#008350;fill-opacity:1;fill-rule:nonzero;stroke:none"
         id="path30" /><path
         d="m 6789.8,1240.45 c 10.66,0 22.7,-3.24 22.7,-14.82 0,-9.73 -5.1,-12.51 -13.44,-15.75 -14.82,-6.02 -15.74,-12.52 -16.67,-27.81 -2.32,-35.2 -5.1,-92.19 -5.1,-146.39 0,-88.039 40.77,-105.641 83.85,-105.641 45.88,0 82.93,21.32 82.93,107.491 0,53.74 -5.55,101.93 -6.95,154.74 -0.45,11.12 -5.09,12.51 -16.21,18.07 -6.49,3.25 -12.04,6.48 -12.04,14.82 0,14.83 15.74,15.29 27.33,15.29 h 40.3 c 11.59,0 27.34,-0.46 27.34,-15.29 0,-8.34 -5.55,-11.57 -12.05,-14.82 -11.11,-5.56 -15.74,-6.95 -15.74,-20.39 0,-29.18 7.41,-94.05 7.41,-152.42 0,-113.042 -60.7,-143.159 -145.02,-143.159 -75.98,0 -145.47,27.801 -145.47,145.939 0,50.96 6.03,117.67 6.03,140.84 0,18.06 0,24.56 -10.67,27.34 -11.12,3.23 -13.89,7.41 -13.89,15.74 0,12.51 12.51,16.22 22.69,16.22 h 92.67"
         style="fill:#008350;fill-opacity:1;fill-rule:nonzero;stroke:none"
         id="path32" /></g></g></svg>
