<?xml version="1.0" encoding="UTF-8" standalone="no"?>
<!-- Created with Inkscape (http://www.inkscape.org/) -->

<svg
   width="331.78201mm"
   height="42.027mm"
   viewBox="0 0 331.78201 42.027"
   version="1.1"
   id="svg5"
   inkscape:version="1.1.2 (0a00cf5339, 2022-02-04)"
   sodipodi:docname="2024-03-30-Salzburger-Nachrichten-Logo.svg"
   xmlns:inkscape="http://www.inkscape.org/namespaces/inkscape"
   xmlns:sodipodi="http://sodipodi.sourceforge.net/DTD/sodipodi-0.dtd"
   xmlns="http://www.w3.org/2000/svg"
   xmlns:svg="http://www.w3.org/2000/svg">
  <sodipodi:namedview
     id="namedview7"
     pagecolor="#ffffff"
     bordercolor="#666666"
     borderopacity="1.0"
     inkscape:pageshadow="2"
     inkscape:pageopacity="0.0"
     inkscape:pagecheckerboard="0"
     inkscape:document-units="mm"
     showgrid="false"
     inkscape:zoom="0.77504209"
     inkscape:cx="397.39777"
     inkscape:cy="458.03964"
     inkscape:window-width="1920"
     inkscape:window-height="1044"
     inkscape:window-x="0"
     inkscape:window-y="0"
     inkscape:window-maximized="1"
     inkscape:current-layer="layer1"
     fit-margin-top="0"
     fit-margin-left="0"
     fit-margin-right="0"
     fit-margin-bottom="0" />
  <defs
     id="defs2" />
  <g
     inkscape:label="Ebene 1"
     inkscape:groupmode="layer"
     id="layer1"
     transform="translate(-0.001)">
    <path
       fill="#0358a9"
       d="M 12.517,0 4.442,5.572 v 10.787 l 4.335,2.074 -8.776,12.2 v 0.1 L 0.679,31.238 22.298,1.315 21.629,0.824 19.062,4.296 12.518,0.003 Z m 155.242,0 -4.406,4.04 2.9,2.11 v 27.977 l 1.516,-0.364 3.954,1.347 V 2.694 Z m 10.412,0 -4.326,4.383 v -1.78 h -1.026 v 31.98 l 1.023,-0.008 V 5.966 l 3.324,1.664 v 24.988 l 5.051,2.522 3.166,-4.054 -2.663,-1.323 V 3.896 Z m 73.93,1.827 -1.411,5.3 1.411,-0.707 2.9,-4.59 z M 23.166,1.983 1.538,31.85 l 0.669,0.55 1.609,-2.241 8.921,4.976 7.255,-5.842 V 16.659 L 15.301,14.315 23.85,2.501 Z m 47.135,0 -3.527,1.393 -1.949,-0.517 v 28.314 l 5.619,3.941 9.024,-4.028 v -20.38 l -5.353,-3.205 -3.814,3.527 z m -22.2,0 -3.516,1.392 -1.978,-0.517 v 29.545 l 3.958,2.787 3.19,-4.193 -1.655,-1.234 z m 175.4,0.012 -3.5,1.394 -2,-0.548 v 7.91 l -5.634,-3.168 -6.329,5.534 v 18.059 l 7.618,4.023 3.669,-5.07 -0.689,-0.513 -1.021,1.412 -4.066,-2.4 V 13.203 l 4.286,2.279 2.165,-2.51 v 19.492 l 3.969,2.749 3.2,-4.215 -1.684,-1.237 0.006,-16.533 3.859,2.055 -0.033,17.179 4.007,2.843 3.081,-4.427 -1.659,-1.119 0.026,-18.035 -4.525,-4.107 -4.753,3.451 z m 53.287,0 -3.5,1.394 -2,-0.548 v 7.91 l -5.634,-3.168 -6.329,5.534 v 18.059 l 7.618,4.023 3.669,-5.07 -0.691,-0.513 -1.021,1.412 -4.066,-2.4 V 13.203 l 4.288,2.279 2.165,-2.51 v 19.492 l 3.97,2.749 3.2,-4.215 -1.685,-1.237 0.007,-16.533 3.856,2.057 -0.033,17.179 4.007,2.843 3.081,-4.427 -1.658,-1.119 0.025,-18.035 -4.526,-4.107 -4.751,3.451 V 1.993 Z m 19.191,2.657 -7.2,8.785 h 1.693 v 18.966 l 4.569,2.8 3.7,-4.582 -2.755,-1.994 V 13.459 h 1.629 l 2.9,-5 h -4.526 z m -286.168,1.2 5.824,2.94 -2.868,4.228 -2.956,-1.529 z m 101.527,1.531 -5.576,2.327 -2,-2.091 -2.53,4.291 1.786,0.784 -0.059,19.8 5.109,2.549 2.933,-4.093 -2.366,-1.256 v -16.47 l 2.4,1.4 3.7,-2.966 z m 44.551,0 -5.576,2.327 -2,-2.091 -2.532,4.291 1.742,0.834 -0.015,19.754 5.109,2.549 2.933,-4.093 -2.368,-1.256 v -16.47 l 2.4,1.4 3.694,-2.966 z m 89.987,0 -5.576,2.327 -2,-2.091 -2.532,4.291 1.787,0.784 -0.058,19.8 5.108,2.549 2.933,-4.093 -2.366,-1.256 v -16.47 l 2.4,1.4 3.694,-2.966 z m 79.8,0 -4.8,3.686 V 7.453 l -3.664,1.214 -1.831,-1.049 v 24.845 l 3.969,2.75 3.2,-4.215 -1.685,-1.236 0.007,-16.536 3.866,2.148 -0.044,17.089 4.008,2.843 3.081,-4.428 -1.66,-1.117 0.033,-18.054 z m -70.21,0 -3.686,1.282 -1.882,-1.047 v 24.845 l 3.351,2.9 3.953,-4.274 -1.722,-1.324 z m -115.153,0.068 -7.325,5.644 v 17.969 l 8.293,4.039 3.632,-5.028 -0.7,-0.5 -0.984,1.389 -4.76,-2.475 v -6.484 l 7.061,-5.589 z m 167.877,0 -7.324,5.644 v 17.969 l 8.293,4.039 3.634,-5.028 -0.7,-0.5 -0.986,1.389 -4.758,-2.475 v -6.484 l 7.061,-5.589 z m -253.335,0.05 -4.153,3.531 4.918,2.615 -3.464,3.652 3.577,2.471 v 14.584 l -2.66,-1.271 -2.718,3.567 4.363,3.079 6.457,-4.093 V 17.955 l -3.154,-2.728 3.635,-4.45 z m 139.28,0.022 -7.081,5.742 v 18.507 l 4.406,3.394 4.718,-4.212 v 1.509 l 4.671,2.675 3.038,-4.054 -2.1,-1.323 V 11.583 Z m -163.443,0 -6.982,5.742 v 18.506 l 4.406,3.394 4.718,-4.212 v 1.511 l 4.673,2.673 3.043,-4.054 -2.1,-1.32 V 11.583 L 30.7,7.53 Z m 90.855,0 -6.939,5.794 -0.013,18.892 4.458,2.821 4.664,-3.48 v 5.068 l -5.645,-0.329 -3.286,4.538 0.694,0.512 c 0.052,-0.087 0.861,-1.206 0.9,-1.258 l 7.788,1.946 5.039,-6.98 V 11.583 l -7.661,-4.054 z m -35.864,0.158 -3.722,4.115 c -0.038,0.013 1.813,1.845 1.813,1.783 v 17.434 l 5.762,4.093 4.59,-2.16 3.282,2.16 3.184,-4.093 -2,-1.282 -0.017,-19.769 -2.678,-2.281 -4.241,4.526 1.35,1.372 0.007,16.6 -3.759,-1.612 V 10.154 L 85.693,7.686 Z m -56.43,5.541 3.674,1.873 V 30.13 l -3.674,-1.481 z m 163.344,0 3.674,1.822 v 15.049 l -3.674,-1.444 z m -122.275,0 3.729,1.847 v 15.129 l -3.729,-1.582 z m 49.7,0 3.729,1.865 v 15.096 l -3.729,-1.564 z m 18.492,0.273 3.113,4.976 -3.113,2.427 z m 167.876,0 3.115,4.976 -3.115,2.427 z m -294.909,6.268 3.037,1.594 v 7.214 l -6.894,-3.51 z"
       id="path4" />
  </g>
</svg>
