<?xml version="1.0" encoding="UTF-8" standalone="no"?>
<!-- Created with Inkscape (http://www.inkscape.org/) -->

<svg
   viewBox="0 0 300 99.999998"
   version="1.1"
   id="svg5"
   inkscape:version="1.2.2 (b0a8486541, 2022-12-01)"
   sodipodi:docname="2025-10-12-demokratie-logo.svg"
   inkscape:export-filename="2023-04-08-Demokratie.png"
   inkscape:export-xdpi="514.04718"
   inkscape:export-ydpi="514.04718"
   xmlns:inkscape="http://www.inkscape.org/namespaces/inkscape"
   xmlns:sodipodi="http://sodipodi.sourceforge.net/DTD/sodipodi-0.dtd"
   xmlns="http://www.w3.org/2000/svg"
   xmlns:svg="http://www.w3.org/2000/svg">
  <sodipodi:namedview
     id="namedview7"
     pagecolor="#ffffff"
     bordercolor="#666666"
     borderopacity="1.0"
     inkscape:pageshadow="2"
     inkscape:pageopacity="1"
     inkscape:pagecheckerboard="0"
     inkscape:document-units="mm"
     showgrid="false"
     fit-margin-top="0"
     fit-margin-left="0"
     fit-margin-right="0"
     fit-margin-bottom="0"
     inkscape:zoom="2.8939464"
     inkscape:cx="153.94204"
     inkscape:cy="97.617565"
     inkscape:window-width="1920"
     inkscape:window-height="1008"
     inkscape:window-x="0"
     inkscape:window-y="0"
     inkscape:window-maximized="1"
     inkscape:current-layer="layer1"
     units="px"
     inkscape:showpageshadow="2"
     inkscape:deskcolor="#d1d1d1" />
  <defs
     id="defs2" />
  <g
     inkscape:label="Ebene 1"
     inkscape:groupmode="layer"
     id="layer1"
     transform="translate(17.452145,-70.007403)">
    <g
       id="g965">
      <rect
         style="fill:#ffffff;stroke:#ffffff;stroke-width:1.30983"
         id="rect909"
         width="298.69016"
         height="98.69017"
         x="-16.797224"
         y="70.662315" />
      <rect
         style="fill:#ffffff;stroke-width:0.264583"
         id="rect29"
         width="26.246666"
         height="18.302338"
         x="70.271301"
         y="130.58824" />
      <path
         style="fill:#4b0082;fill-opacity:1;stroke-width:0.416342"
         d="m -17.452145,163.34217 v -1.66533 h 27.06221 27.0622 v 1.66533 1.66539 h -27.0622 -27.06221 z m 54.95712,1.04088 c 0,-0.53704 1.34153,-0.62452 9.575846,-0.62452 8.23432,0 9.575841,0.0875 9.575841,0.62452 0,0.53703 -1.341521,0.62451 -9.575841,0.62451 -8.234316,0 -9.575846,-0.0875 -9.575846,-0.62451 z m 19.64697,-0.93678 0.129328,-1.56128 27.166293,-0.1072 27.166284,-0.10719 v 1.66838 1.66838 H 84.318339 57.022863 Z m -19.64697,-0.91562 c 0,-0.83611 0.19867,-0.85381 9.575846,-0.85381 7.90741,0 9.575841,0.1013 9.575841,0.57996 0,0.31914 -0.242428,0.6729 -0.53826,0.78649 -0.296029,0.1136 -4.605165,0.23702 -9.575842,0.2739 -8.856525,0.0659 -9.037585,0.0502 -9.037585,-0.78649 z m -52.87541,-2.93555 v -1.66533 h 26.02135 26.02135 v 1.66533 1.66538 h -26.02135 -26.02135 z m 52.87541,1.04087 c 0,-0.53703 1.34153,-0.62451 9.575846,-0.62451 8.23432,0 9.575841,0.0875 9.575841,0.62451 0,0.53703 -1.341521,0.62451 -9.575841,0.62451 -8.234316,0 -9.575846,-0.0875 -9.575846,-0.62451 z m 19.568046,-1.04087 v -1.66533 h 26.229523 26.229516 v 1.66533 1.66538 H 83.302544 57.073021 Z m -19.568046,-1.04082 c 0,-0.53703 1.34153,-0.62451 9.575846,-0.62451 8.23432,0 9.575841,0.0875 9.575841,0.62451 0,0.53698 -1.341521,0.62451 -9.575841,0.62451 -8.234316,0 -9.575846,-0.0875 -9.575846,-0.62451 z m -25.70912,-1.35308 -24.66824,-0.11064 v -1.45389 -1.45388 h 24.77233 24.77232 v 1.66533 c 0,0.91597 -0.0492,1.62005 -0.10425,1.56468 -0.0576,-0.0556 -11.20484,-0.15048 -24.77235,-0.21145 z m 25.70912,-0.72867 c 0,-0.53698 1.34153,-0.62451 9.575846,-0.62451 8.23432,0 9.575841,0.0875 9.575841,0.62451 0,0.53704 -1.341521,0.62452 -9.575841,0.62452 -8.234316,0 -9.575846,-0.0875 -9.575846,-0.62452 z m 19.568046,-0.83266 v -1.45718 h 24.9805 24.980499 v 1.45718 1.45718 H 82.053521 57.073021 Z M 37.504975,154.8072 c 0,-0.53703 1.34153,-0.62451 9.575846,-0.62451 8.23432,0 9.575841,0.0875 9.575841,0.62451 0,0.53699 -1.341521,0.62451 -9.575841,0.62451 -8.234316,0 -9.575846,-0.0875 -9.575846,-0.62451 z M -6.9029755,143.87823 c 0.72625,-25.59237 0.81623,-34.95091 0.33891,-35.24591 -0.26377,-0.16325 -0.47955,-0.66001 -0.47955,-1.1045 0,-0.74268 0.31732,-0.80808 3.92055,-0.80808 4.13447,0 4.88995,0.36045 3.67706,1.7538 -0.54491998,0.62609 -0.56343998,2.88432 -0.15185,18.52722 0.56237,21.37333 0.58142,26.34922 0.10086,26.34922 -0.20009,0 -0.50300998,-9.92976 -0.67309998,-22.0661 -0.1814,-12.94506 -0.46774,-22.06609 -0.69264,-22.06609 -0.22836002,0 -0.29436002,3.4928 -0.16321002,8.63907 0.57039002,22.37894 0.65976002,35.49312 0.24189002,35.49312 -0.27941002,0 -0.45171002,-2.74334 -0.49032002,-7.80641 -0.033,-4.2935 -0.18401,-14.27011 -0.3361,-22.17019 l -0.27661,-14.36379 -0.0802,22.17019 c -0.0518,14.31796 -0.2264,22.1702 -0.49292,22.1702 -0.26613,0 -0.45231,-7.87324 -0.52415,-22.1702 l -0.11148,-22.17019 -0.10036,22.17019 c -0.0731,16.1493 -0.22817,22.1702 -0.57103,22.1702 -0.34638,0 -0.42192,-5.82612 -0.286,-22.0661 0.10155,-12.13634 0.0325,-22.06609 -0.15386,-22.06609 -0.18617,0 -0.33852,7.37082 -0.33852,16.37963 0,17.67317 -0.3301,27.75256 -0.90894,27.75256 -0.19995,0 -0.26722,-2.20139 -0.1495,-4.89201 0.38401,-8.77725 0.58579,-39.47572 0.25242,-38.40751 -0.17865,0.57249 -0.35017,4.31956 -0.38115,8.32682 -0.14197,18.36489 -0.62768,34.9727 -1.02277,34.9727 -0.27322,0 -0.32391,-3.25598 -0.14752,-9.47175 z m 14.23752,2.0817 c 0.86819,-26.85989 0.96472,-36.53403 0.37112,-37.19129 -0.32652,-0.36143 -0.59366,-0.97041 -0.59366,-1.35308 0,-0.60382 0.55055,-0.69582 4.1634205,-0.69582 3.61287,0 4.16342,0.092 4.16342,0.69582 0,0.38257 -0.26323,0.9916 -0.58492,1.35308 -0.50166,0.56373 -0.50528,3.76733 -0.0256,22.5061 0.30769,12.0168 0.47719,21.93091 0.37678,22.03137 -0.10047,0.10032 -0.29426,0.0713 -0.43063,-0.0654 -0.13641,-0.13621 -0.42491,-10.04246 -0.64117,-22.01343 -0.21627,-11.97097 -0.50227,-21.86718 -0.63559,-21.99159 -0.13331,-0.12441 -0.10695,9.75041 0.0586,21.94399 0.21769,16.03645 0.17418,22.1702 -0.15726,22.1702 -0.32598,0 -0.47015,-5.37721 -0.49957,-18.63128 -0.0226,-10.24721 -0.1967,-20.22378 -0.38661,-22.17019 -0.20456,-2.09664 -0.27503,5.49635 -0.17294,18.63127 0.11192,14.39949 0.0285,22.1702 -0.23791,22.1702 -0.26426,0 -0.41026,-7.85155 -0.41026,-22.06609 0,-14.43318 -0.14403,-22.06609 -0.41636,-22.06609 -0.27232,0 -0.41636,7.63291 -0.41636,22.06609 0,14.21454 -0.14599,22.06609 -0.41026,22.06609 -0.26642,0 -0.35086,-7.77268 -0.2408,-22.1702 0.0988,-12.93282 0.029,-20.52221 -0.16769,-18.21491 -0.18539,2.17536 -0.35804,12.15193 -0.38366,22.17019 -0.0329,12.94792 -0.17909,18.21492 -0.5048405,18.21492 -0.33025,0 -0.40077,-6.19138 -0.25241,-22.1702 0.1221,-13.15169 0.0751,-19.20636 -0.11556,-14.88419 -0.17673,4.0073 -0.34506,11.87615 -0.37397,17.48634 -0.061,11.82444 -0.43824,19.56805 -0.95329,19.56805 -0.19906,0 -0.25379,-3.3141 -0.12205,-7.39005 z m 14.3448405,3.33071 c -0.003,-2.23261 0.20978,-12.17489 0.47179,-22.09392 0.35503,-13.43558 0.35602,-18.15492 0.005,-18.50642 -0.25964,-0.25964 -0.47178,-0.80897 -0.47178,-1.22114 0,-0.66907 0.42408,-0.74942 3.95528,-0.74942 3.53116,0 3.95523,0.0802 3.95523,0.74942 0,0.41208 -0.21735,0.96652 -0.4824,1.23191 -0.36586,0.36586 -0.35552,5.78072 0.0443,22.3842 0.28866,12.04596 0.41208,22.0146 0.27439,22.15264 -0.13817,0.13818 -0.33291,0.16866 -0.43322,0.0684 -0.10031,-0.10032 -0.31176,-9.35879 -0.46961,-20.57424 -0.15786,-11.21546 -0.4347,-21.14118 -0.61527,-22.05715 -0.33783,-1.71382 -0.14212,27.8925 0.24685,37.36665 0.12097,2.94666 0.0551,5.30836 -0.1485,5.30836 -0.56132,0 -0.91297,-10.95685 -0.91297,-28.44679 0,-8.7033 -0.14064,-15.68363 -0.31226,-15.51176 -0.17162,0.17162 -0.24341,10.13279 -0.15932,22.13548 0.11064,15.78998 0.0246,21.82307 -0.30832,21.82307 -0.33095,0 -0.49322,-6.28511 -0.57308,-22.1702 l -0.11163,-22.17019 -0.10031,22.17019 c -0.0654,14.43568 -0.24538,22.1702 -0.51668,22.1702 -0.27144,0 -0.44453,-7.72109 -0.4966,-22.1702 l -0.0802,-22.17019 -0.27685,14.36378 c -0.15195,7.90009 -0.30341,17.8767 -0.33586,22.1702 -0.0394,5.12115 -0.20948,7.80641 -0.49534,7.80641 -0.42387,0 -0.37027,-7.52942 0.24735,-34.45224 0.1313,-5.72914 0.0669,-9.67994 -0.15833,-9.67994 -0.22129,0 -0.51004,9.24568 -0.68973,22.06609 -0.17161,12.25632 -0.47256,22.06609 -0.67697,22.06609 -0.20211,0 -0.36984,-1.82668 -0.37235,-4.05933 z m 14.16848,2.2899 c 0.005,-0.97321 0.18243,-8.13946 0.39536,-15.92507 0.64162,-23.4561 0.65219,-26.38093 0.0974,-26.93596 -0.27538,-0.27538 -0.50094,-0.83818 -0.50094,-1.25035 0,-0.67172 0.43175,-0.74942 4.163437,-0.74942 3.330714,0 4.16338,0.11901 4.16338,0.59476 0,0.32701 -0.286685,0.88155 -0.637297,1.23207 -0.565749,0.56574 -0.589747,2.66091 -0.213417,18.66102 0.233086,9.91308 0.502709,19.86033 0.599238,22.10508 0.127852,2.97361 0.04426,4.0378 -0.306848,3.92091 -0.543817,-0.18096 -0.5478,-0.2921 -0.937752,-26.23724 -0.147031,-9.80023 -0.373723,-17.71276 -0.503099,-17.58333 -0.26849,0.2685 -0.200143,11.51877 0.187352,30.71815 0.198172,9.80381 0.143589,13.21882 -0.209481,13.21882 -0.345696,0 -0.491793,-3.39534 -0.532113,-12.38615 -0.02949,-6.8124 -0.18932,-16.78897 -0.353073,-22.1702 -0.228169,-7.50668 -0.288159,-4.62365 -0.256686,12.38635 0.02459,12.19368 -0.09934,22.17029 -0.271445,22.17019 -0.171619,-1e-4 -0.331926,-6.32336 -0.356022,-14.05173 -0.06047,-19.481 -0.243903,-29.67447 -0.538651,-29.96922 -0.137688,-0.13769 -0.250298,9.71073 -0.250298,21.88528 0,16.34787 -0.124905,22.13548 -0.476495,22.13548 -0.35603,0 -0.3993,-5.604 -0.17064,-22.1139 0.2203,-15.92791 0.17899,-22.0354 -0.14801,-21.83334 -0.31816,0.19669 -0.45388,6.80271 -0.45388,22.11388 0,16.21117 -0.12343,21.83336 -0.47994,21.83336 -0.35946,0 -0.42536,-5.57912 -0.26308,-22.1702 0.11949,-12.19358 0.0772,-20.20298 -0.0934,-17.7986 -0.17063,2.40437 -0.3334,8.41631 -0.36143,13.35989 -0.0752,13.29415 -0.55075,26.60891 -0.9499,26.60891 -0.19276,0 -0.34618,-0.79623 -0.34176,-1.76944 z m 14.379171,-2.2899 c 0.108183,-2.23261 0.388477,-12.20681 0.622054,-22.16483 0.378641,-16.12343 0.355038,-18.15669 -0.214399,-18.5731 -0.351596,-0.25718 -0.639413,-0.77479 -0.639413,-1.15028 0,-0.58719 0.58242,-0.68269 4.163384,-0.68269 3.731684,0 4.163436,0.0777 4.163436,0.74942 0,0.41208 -0.229647,0.97921 -0.510727,1.26009 -0.564618,0.56467 -0.564372,0.61566 0.134248,27.48597 0.395851,15.22832 0.363888,17.67705 -0.224728,17.08863 -0.101791,-0.10179 -0.373233,-9.99072 -0.603269,-21.97552 -0.230135,-11.98478 -0.535016,-21.9072 -0.67767,-22.04986 -0.142606,-0.1426 -0.123428,9.71506 0.04426,21.90608 0.226693,16.63647 0.181944,22.16543 -0.178011,22.16543 -0.356513,0 -0.479941,-5.62219 -0.479941,-21.83336 0,-15.0597 -0.138179,-21.91876 -0.445518,-22.10872 -0.315698,-0.19522 -0.357988,6.16364 -0.144572,21.8334 0.226202,16.59315 0.181453,22.10868 -0.178994,22.10868 -0.356513,0 -0.47994,-5.68518 -0.47994,-22.09068 0,-12.14987 -0.140638,-22.00365 -0.312257,-21.89733 -0.171617,0.10622 -0.312255,10.04669 -0.312255,22.08965 0,14.31918 -0.144081,21.89673 -0.416506,21.89752 -0.272917,6.4e-4 -0.401753,-7.63759 -0.374216,-22.16916 0.03442,-16.89405 -0.0295,-19.89141 -0.257673,-12.5945 -0.164733,5.26671 -0.324549,15.24327 -0.354546,22.17019 -0.03934,9.14764 -0.184895,12.59431 -0.531229,12.59431 -0.353563,0 -0.407654,-3.41501 -0.209482,-13.21882 0.3811,-18.88865 0.45732,-30.44843 0.202106,-30.70369 -0.218825,-0.21882 -0.73599,22.84462 -0.806506,35.976 -0.03442,6.82784 -0.151948,7.94651 -0.818112,7.94651 -0.194729,0 -0.26554,-1.82668 -0.157357,-4.05934 z m 14.333744,2.49805 c -0.0032,-0.85868 0.213908,-10.71845 0.483869,-21.91055 0.372252,-15.4559 0.37373,-20.53549 0.0052,-21.12367 -1.135826,-1.81876 -0.745182,-2.03473 3.679807,-2.03473 2.289844,0 4.163386,0.14556 4.163386,0.32357 0,0.17801 -0.301931,0.75512 -0.671473,1.28237 -0.610405,0.87151 -0.62899,2.61163 -0.204569,19.14027 0.560198,21.80532 0.574653,25.88393 0.09196,25.88393 -0.204073,0 -0.505267,-9.80977 -0.677035,-22.06609 -0.178008,-12.70229 -0.469613,-22.06609 -0.68696,-22.06609 -0.221774,0 -0.287178,4.08632 -0.158338,9.88809 0.615464,27.76755 0.660998,34.24409 0.240953,34.24409 -0.279802,0 -0.451912,-2.53277 -0.488792,-7.1819 -0.02949,-3.95001 -0.182932,-13.92663 -0.336843,-22.17019 l -0.28079,-14.9883 -0.07917,22.17019 c -0.05117,14.31865 -0.22522,22.1702 -0.491935,22.1702 -0.266037,0 -0.452408,-7.87324 -0.52415,-22.1702 l -0.111629,-22.17019 -0.10031,22.17019 c -0.07278,16.04757 -0.229157,22.1702 -0.567426,22.1702 -0.34127,0 -0.42142,-5.93494 -0.297503,-22.06609 0.09343,-12.13635 0.02459,-22.06609 -0.157358,-22.06609 -0.179976,0 -0.327989,7.54095 -0.328976,16.75773 -0.0019,17.86868 -0.316186,27.37445 -0.905785,27.37445 -0.199646,0 -0.266528,-2.48242 -0.149,-5.51651 0.389953,-10.06247 0.581435,-38.84158 0.251775,-37.78301 -0.178505,0.57248 -0.350124,4.13221 -0.3811,7.91051 -0.141133,17.06266 -0.638186,35.38901 -0.959437,35.38901 -0.193748,0 -0.355532,-0.70256 -0.358978,-1.56129 z m 14.386206,-5.82876 c 0.847422,-26.03234 0.950048,-36.53516 0.363398,-37.19129 -0.323071,-0.36143 -0.587631,-0.97041 -0.587631,-1.35308 0,-0.60382 0.550506,-0.69582 4.163385,-0.69582 3.61288,0 4.163431,0.092 4.163431,0.69582 0,0.38257 -0.263572,0.9916 -0.586011,1.35308 -0.5029,0.56407 -0.507869,3.75848 -0.0344,22.51524 0.302918,12.02187 0.47306,21.93598 0.37766,22.03143 -0.0949,0.0954 -0.284719,0.0619 -0.420929,-0.0747 -0.136216,-0.13621 -0.424866,-10.04245 -0.64118,-22.01343 -0.216367,-11.97096 -0.502267,-21.86718 -0.635631,-21.99158 -0.133261,-0.12442 -0.106705,9.7504 0.05853,21.94398 0.217844,16.03645 0.174078,22.1702 -0.157357,22.1702 -0.32553,0 -0.472562,-5.21168 -0.507133,-18.00676 -0.02459,-9.90374 -0.199155,-19.8803 -0.382577,-22.17019 -0.19325,-2.41392 -0.262591,5.15257 -0.165224,18.00675 0.109164,14.39664 0.02459,22.1702 -0.241934,22.1702 -0.26456,0 -0.410114,-7.85155 -0.410114,-22.06609 0,-14.43317 -0.144083,-22.06609 -0.416509,-22.06609 -0.272426,0 -0.416502,7.63292 -0.416502,22.06609 0,14.21454 -0.146051,22.06609 -0.410114,22.06609 -0.266527,0 -0.351104,-7.77268 -0.240953,-22.1702 0.09884,-12.93281 0.02949,-20.52221 -0.167683,-18.21491 -0.18539,2.17537 -0.35799,12.15193 -0.383564,22.17019 -0.0344,13.00402 -0.178499,18.21492 -0.507178,18.21492 -0.333403,0 -0.403725,-6.12421 -0.255215,-22.1702 0.114081,-12.31798 0.06688,-19.11735 -0.106215,-15.30055 -0.171129,3.7783 -0.33734,11.47726 -0.369303,17.10874 -0.06786,12.08328 -0.459288,20.36201 -0.962432,20.36201 -0.198665,0 -0.252266,-3.31842 -0.119986,-7.39005 z m 14.345744,3.12256 c -0.0013,-2.34713 0.20899,-12.29149 0.467154,-22.09855 0.346678,-13.18065 0.347168,-17.95291 0.0019,-18.29822 -0.257177,-0.25717 -0.467154,-0.80439 -0.467154,-1.21656 0,-0.66907 0.423885,-0.74942 3.955234,-0.74942 3.531196,0 3.955266,0.0802 3.955266,0.74942 0,0.41208 -0.21832,0.96755 -0.48485,1.23422 -0.36881,0.36881 -0.36094,5.72496 0.0344,22.39349 0.28521,12.04975 0.40962,22.01736 0.27685,22.15028 -0.13277,0.13277 -0.32554,0.15785 -0.42831,0.0551 -0.10277,-0.10278 -0.31963,-9.64203 -0.48191,-21.19871 -0.162758,-11.55672 -0.441088,-21.48057 -0.619538,-22.05306 -0.331925,-1.06629 -0.12048,29.60037 0.26456,38.40752 0.11752,2.69062 0.0501,4.892 -0.14949,4.892 -0.590587,0 -0.905198,-9.49456 -0.906973,-27.37445 -6.45e-4,-9.21677 -0.153911,-16.75773 -0.340283,-16.75773 -0.186371,0 -0.255215,9.92975 -0.153917,22.06609 0.135229,16.13917 0.05898,22.06609 -0.282261,22.06609 -0.337824,0 -0.49784,-6.13011 -0.578487,-22.1702 l -0.111623,-22.17019 -0.100316,22.17019 c -0.0654,14.43569 -0.24538,22.1702 -0.516722,22.1702 -0.271439,0 -0.444039,-7.72026 -0.49533,-22.1702 l -0.07917,-22.17019 -0.28128,14.78014 c -0.154898,8.12909 -0.306357,18.10565 -0.337333,22.1702 -0.0344,4.76168 -0.2085,7.39005 -0.485353,7.39005 -0.415025,0 -0.343722,-10.7245 0.234074,-35.07675 0.125394,-5.29361 0.05801,-9.05543 -0.162771,-9.05543 -0.216857,0 -0.508804,9.38022 -0.686619,22.06609 -0.170141,12.13634 -0.473052,22.06609 -0.673092,22.06609 -0.200142,0 -0.364876,-1.92036 -0.365857,-4.26749 z M -7.0435955,103.59718 v -2.28989 H 47.080821 101.20525 v 2.28989 2.28985 H 47.080821 -7.0435955 Z m 0,-5.620611 v -2.91441 H 47.080821 101.20525 v 2.91441 2.914361 H 47.080821 -7.0435955 Z m -5.3347395,-4.67027 0.13045,-1.33951 29.67048,-8.4798 29.67047,-8.479744 29.658244,8.480384 29.658191,8.48034 0.13032,1.33892 0.13031,1.33891 H 47.080821 -12.508795 Z m 109.836509,-1.60107 c -0.572486,-0.20702 -12.146866,-3.55259 -25.720911,-7.43401 L 47.057267,77.214036 22.400775,84.274669 c -13.5610305,3.88333 -25.1248305,7.22865 -25.6973005,7.43401 -0.62408,0.22374 19.5476005,0.37323 50.3773465,0.37323 31.172468,0 51.008356,-0.14851 50.377353,-0.37668 z M 0.4505445,91.352659 c 0.34349,-0.19572 10.9758205,-3.30854 23.6274205,-6.91734 l 23.002856,-6.56156 23.002861,6.56156 c 12.651591,3.6088 23.283938,6.71956 23.627422,6.91271 0.343728,0.19326 -20.640138,0.35357 -46.630283,0.35602 -26.352586,0.003 -46.97854648,-0.15293 -46.6302765,-0.3511 z"
         id="path67" />
      <g
         aria-label="demokratie.at"
         id="text308"
         style="font-size:26.6667px;-inkscape-font-specification:'sans-serif, Normal';fill:#4b0082;stroke:#4b0082"
         transform="matrix(0.74370249,0,0,0.74370249,135.52706,-48.60943)">
        <path
           d="m -13.378807,236.99287 q -0.986668,0 -1.813336,-0.48 -0.800001,-0.50666 -1.280002,-1.30666 -0.48,-0.80001 -0.48,-1.78667 v -8.32001 q 0,-0.98667 0.48,-1.78667 0.480001,-0.8 1.280002,-1.28 0.826668,-0.50667 1.813336,-0.50667 h 8.9866777 v -5.06668 h 3.1733373 v 20.53336 z m 0.133333,-3.17333 h 8.3466774 q 0.2133336,0 0.3466671,-0.13334 0.1600002,-0.16 0.1600002,-0.37333 v -8.10668 q 0,-0.21333 -0.1600002,-0.34666 -0.1333335,-0.16 -0.3466671,-0.16 h -8.3466774 q -0.213333,0 -0.373334,0.16 -0.133333,0.13333 -0.133333,0.34666 v 8.10668 q 0,0.21333 0.133333,0.37333 0.160001,0.13334 0.373334,0.13334 z"
           style="font-weight:600;font-family:Orbitron;-inkscape-font-specification:'Orbitron Semi-Bold'"
           id="path184" />
        <path
           d="m 4.5678935,236.99287 q -0.9866679,0 -1.7866689,-0.48 -0.8000011,-0.50666 -1.3066684,-1.30666 -0.48000057,-0.80001 -0.48000057,-1.78667 v -8.32001 q 0,-0.98667 0.48000057,-1.78667 0.5066673,-0.8 1.3066684,-1.28 0.800001,-0.50667 1.7866689,-0.50667 h 8.5600105 q 1.013335,0 1.813336,0.50667 0.800001,0.48 1.280002,1.28 0.48,0.8 0.48,1.78667 v 5.76 H 4.167893 v 2.45334 q 0,0.21333 0.1333335,0.37333 0.1600002,0.13334 0.3733338,0.13334 H 16.701242 v 3.17333 z M 4.167893,227.95286 h 9.360012 v -2.74667 q 0,-0.21333 -0.16,-0.34666 -0.133334,-0.16 -0.346668,-0.16 H 4.6745603 q -0.2133336,0 -0.3733338,0.16 -0.1333335,0.13333 -0.1333335,0.34666 z"
           style="font-weight:600;font-family:Orbitron;-inkscape-font-specification:'Orbitron Semi-Bold'"
           id="path186" />
        <path
           d="m 19.527896,236.99287 v 0 -15.46668 h 19.466692 q 1.013334,0 1.813335,0.50667 0.800001,0.48 1.280002,1.28 0.48,0.8 0.48,1.78667 v 11.89334 h -3.173337 v -11.78668 q 0,-0.21333 -0.16,-0.34666 -0.133334,-0.16 -0.346667,-0.16 H 33.15458 q -0.186667,0 -0.346667,0.16 -0.133333,0.13333 -0.133333,0.34666 v 11.78668 h -3.226671 v -11.78668 q 0,-0.21333 -0.133334,-0.34666 -0.133333,-0.16 -0.346667,-0.16 h -5.760007 q -0.186667,0 -0.346667,0.16 -0.133334,0.13333 -0.133334,0.34666 v 11.78668 z"
           style="font-weight:600;font-family:Orbitron;-inkscape-font-specification:'Orbitron Semi-Bold'"
           id="path188" />
        <path
           d="m 49.101285,236.99287 q -0.986667,0 -1.786668,-0.48 -0.800002,-0.50666 -1.306669,-1.30666 -0.48,-0.80001 -0.48,-1.78667 v -8.32001 q 0,-0.98667 0.48,-1.78667 0.506667,-0.8 1.306669,-1.28 0.800001,-0.50667 1.786668,-0.50667 h 8.560011 q 1.013335,0 1.813336,0.50667 0.800001,0.48 1.280001,1.28 0.480001,0.8 0.480001,1.78667 v 8.32001 q 0,0.98666 -0.480001,1.78667 -0.48,0.8 -1.280001,1.30666 -0.800001,0.48 -1.813336,0.48 z m 0.106667,-3.17333 h 8.346677 q 0.213334,0 0.346668,-0.13334 0.16,-0.16 0.16,-0.37333 v -8.10668 q 0,-0.21333 -0.16,-0.34666 -0.133334,-0.16 -0.346668,-0.16 h -8.346677 q -0.213333,0 -0.373334,0.16 -0.133333,0.13333 -0.133333,0.34666 v 8.10668 q 0,0.21333 0.133333,0.37333 0.160001,0.13334 0.373334,0.13334 z"
           style="font-weight:600;font-family:Orbitron;-inkscape-font-specification:'Orbitron Semi-Bold'"
           id="path190" />
        <path
           d="m 64.06129,236.99287 v 0 -20.53336 h 3.173337 v 11.20002 h 3.120004 l 5.653341,-6.13334 h 3.520004 v 0.74667 l -6.346674,6.98667 6.346674,6.98668 v 0.74666 h -3.520004 l -5.653341,-6.13334 h -3.120004 v 6.13334 z"
           style="font-weight:600;font-family:Orbitron;-inkscape-font-specification:'Orbitron Semi-Bold'"
           id="path192" />
        <path
           d="m 81.234641,236.99287 v 0 -11.89334 q 0,-0.98667 0.480001,-1.78667 0.506667,-0.8 1.306668,-1.28 0.826668,-0.50667 1.786669,-0.50667 h 8.613344 v 3.17334 h -8.506677 q -0.213334,0 -0.373334,0.16 -0.133333,0.13333 -0.133333,0.34666 v 11.78668 z"
           style="font-weight:600;font-family:Orbitron;-inkscape-font-specification:'Orbitron Semi-Bold'"
           id="path194" />
        <path
           d="m 98.941303,236.99287 q -0.986668,0 -1.813336,-0.48 -0.800001,-0.50666 -1.280001,-1.30666 -0.480001,-0.80001 -0.480001,-1.78667 v -5.76001 h 12.533345 v -2.45334 q 0,-0.21333 -0.16,-0.34666 -0.13333,-0.16 -0.34666,-0.16 H 95.367965 v -3.17334 h 12.133345 q 1.01334,0 1.81334,0.50667 0.8,0.48 1.28,1.28 0.48,0.8 0.48,1.78667 v 11.89334 z m 0.106667,-3.17333 h 8.85334 v -3.25334 h -9.360008 v 2.74667 q 0,0.21333 0.133334,0.37333 0.16,0.13334 0.373334,0.13334 z"
           style="font-weight:600;font-family:Orbitron;-inkscape-font-specification:'Orbitron Semi-Bold'"
           id="path196" />
        <path
           d="m 117.47466,236.99287 q -0.98667,0 -1.81334,-0.48 -0.8,-0.50666 -1.28,-1.30666 -0.48,-0.80001 -0.48,-1.78667 v -16.72002 h 3.17334 v 4.82667 h 6.18667 v 3.17334 h -6.18667 v 8.61334 q 0,0.21333 0.13333,0.37333 0.16,0.13334 0.37334,0.13334 h 5.68 v 3.17333 z"
           style="font-weight:600;font-family:Orbitron;-inkscape-font-specification:'Orbitron Semi-Bold'"
           id="path198" />
        <path
           d="m 125.448,236.99287 v 0 -15.46668 h 3.17334 v 15.46668 z m 0,-17.33335 v 0 -3.20001 h 3.17334 v 3.20001 z"
           style="font-weight:600;font-family:Orbitron;-inkscape-font-specification:'Orbitron Semi-Bold'"
           id="path200" />
        <path
           d="m 134.96799,236.99287 q -0.98667,0 -1.78667,-0.48 -0.8,-0.50666 -1.30667,-1.30666 -0.48,-0.80001 -0.48,-1.78667 v -8.32001 q 0,-0.98667 0.48,-1.78667 0.50667,-0.8 1.30667,-1.28 0.8,-0.50667 1.78667,-0.50667 h 8.56001 q 1.01333,0 1.81333,0.50667 0.80001,0.48 1.28001,1.28 0.48,0.8 0.48,1.78667 v 5.76 h -12.53335 v 2.45334 q 0,0.21333 0.13333,0.37333 0.16,0.13334 0.37334,0.13334 h 12.02668 v 3.17333 z m -0.4,-9.04001 h 9.36001 v -2.74667 q 0,-0.21333 -0.16,-0.34666 -0.13333,-0.16 -0.34667,-0.16 h -8.34667 q -0.21334,0 -0.37334,0.16 -0.13333,0.13333 -0.13333,0.34666 z"
           style="font-weight:600;font-family:Orbitron;-inkscape-font-specification:'Orbitron Semi-Bold'"
           id="path202" />
        <path
           d="m 149.928,236.99287 v 0 -3.17333 h 3.17334 v 3.17333 z"
           style="font-weight:600;font-family:Orbitron;-inkscape-font-specification:'Orbitron Semi-Bold'"
           id="path204" />
        <path
           d="m 159.42137,236.99287 q -0.98667,0 -1.81334,-0.48 -0.8,-0.50666 -1.28,-1.30666 -0.48,-0.80001 -0.48,-1.78667 v -5.76001 h 12.53335 v -2.45334 q 0,-0.21333 -0.16,-0.34666 -0.13334,-0.16 -0.34667,-0.16 h -12.02668 v -3.17334 h 12.13335 q 1.01333,0 1.81333,0.50667 0.8,0.48 1.28001,1.28 0.48,0.8 0.48,1.78667 v 11.89334 z m 0.10666,-3.17333 h 8.85335 v -3.25334 h -9.36001 v 2.74667 q 0,0.21333 0.13333,0.37333 0.16,0.13334 0.37333,0.13334 z"
           style="font-weight:600;font-family:Orbitron;-inkscape-font-specification:'Orbitron Semi-Bold'"
           id="path206" />
        <path
           d="m 177.95473,236.99287 q -0.98667,0 -1.81333,-0.48 -0.8,-0.50666 -1.28,-1.30666 -0.48001,-0.80001 -0.48001,-1.78667 v -16.72002 h 3.17334 v 4.82667 h 6.18668 v 3.17334 h -6.18668 v 8.61334 q 0,0.21333 0.13334,0.37333 0.16,0.13334 0.37333,0.13334 h 5.68001 v 3.17333 z"
           style="font-weight:600;font-family:Orbitron;-inkscape-font-specification:'Orbitron Semi-Bold'"
           id="path208" />
      </g>
    </g>
  </g>
</svg>
