<?xml version="1.0" encoding="UTF-8" standalone="no"?>
<svg
   version="1.0"
   viewBox="0 0 936.55254 188.40148"
   preserveAspectRatio="xMidYMid"
   id="svg20"
   sodipodi:docname="2025-11-21-AFA.svg"
   inkscape:version="1.4.2 (ebf0e940d0, 2025-05-08)"
   xmlns:inkscape="http://www.inkscape.org/namespaces/inkscape"
   xmlns:sodipodi="http://sodipodi.sourceforge.net/DTD/sodipodi-0.dtd"
   xmlns="http://www.w3.org/2000/svg"
   xmlns:svg="http://www.w3.org/2000/svg">
  <defs
     id="defs20">
    <clipPath
       clipPathUnits="userSpaceOnUse"
       id="clipPath40">
      <rect
         style="fill:#000000;fill-opacity:1;stroke:#ffffff;stroke-width:15.9828"
         id="rect40"
         width="9365.5254"
         height="1884.0148"
         x="4871.3101"
         y="-2422.0085"
         transform="scale(1,-1)" />
    </clipPath>
    <clipPath
       clipPathUnits="userSpaceOnUse"
       id="clipPath41">
      <rect
         style="fill:#000000;fill-opacity:1;stroke:#ffffff;stroke-width:15.9828"
         id="rect41"
         width="9365.5254"
         height="1884.0148"
         x="4871.3101"
         y="-2422.0085"
         transform="scale(1,-1)" />
    </clipPath>
    <clipPath
       clipPathUnits="userSpaceOnUse"
       id="clipPath42">
      <rect
         style="fill:#000000;fill-opacity:1;stroke:#ffffff;stroke-width:15.9828"
         id="rect42"
         width="9365.5254"
         height="1884.0148"
         x="4871.3101"
         y="-2422.0085"
         transform="scale(1,-1)" />
    </clipPath>
    <clipPath
       clipPathUnits="userSpaceOnUse"
       id="clipPath43">
      <rect
         style="fill:#000000;fill-opacity:1;stroke:#ffffff;stroke-width:15.9828"
         id="rect43"
         width="9365.5254"
         height="1884.0148"
         x="4871.3101"
         y="-2422.0085"
         transform="scale(1,-1)" />
    </clipPath>
    <clipPath
       clipPathUnits="userSpaceOnUse"
       id="clipPath44">
      <rect
         style="fill:#000000;fill-opacity:1;stroke:#ffffff;stroke-width:15.9828"
         id="rect44"
         width="9365.5254"
         height="1884.0148"
         x="4871.3101"
         y="-2422.0085"
         transform="scale(1,-1)" />
    </clipPath>
    <clipPath
       clipPathUnits="userSpaceOnUse"
       id="clipPath45">
      <rect
         style="fill:#000000;fill-opacity:1;stroke:#ffffff;stroke-width:15.9828"
         id="rect45"
         width="9365.5254"
         height="1884.0148"
         x="4871.3101"
         y="-2422.0085"
         transform="scale(1,-1)" />
    </clipPath>
    <clipPath
       clipPathUnits="userSpaceOnUse"
       id="clipPath46">
      <rect
         style="fill:#000000;fill-opacity:1;stroke:#ffffff;stroke-width:15.9828"
         id="rect46"
         width="9365.5254"
         height="1884.0148"
         x="4871.3101"
         y="-2422.0085"
         transform="scale(1,-1)" />
    </clipPath>
    <clipPath
       clipPathUnits="userSpaceOnUse"
       id="clipPath47">
      <rect
         style="fill:#000000;fill-opacity:1;stroke:#ffffff;stroke-width:15.9828"
         id="rect47"
         width="9365.5254"
         height="1884.0148"
         x="4871.3101"
         y="-2422.0085"
         transform="scale(1,-1)" />
    </clipPath>
    <clipPath
       clipPathUnits="userSpaceOnUse"
       id="clipPath48">
      <rect
         style="fill:#000000;fill-opacity:1;stroke:#ffffff;stroke-width:15.9828"
         id="rect48"
         width="9365.5254"
         height="1884.0148"
         x="4871.3101"
         y="-2422.0085"
         transform="scale(1,-1)" />
    </clipPath>
    <clipPath
       clipPathUnits="userSpaceOnUse"
       id="clipPath49">
      <rect
         style="fill:#000000;fill-opacity:1;stroke:#ffffff;stroke-width:15.9828"
         id="rect49"
         width="9365.5254"
         height="1884.0148"
         x="4871.3101"
         y="-2422.0085"
         transform="scale(1,-1)" />
    </clipPath>
    <clipPath
       clipPathUnits="userSpaceOnUse"
       id="clipPath50">
      <rect
         style="fill:#000000;fill-opacity:1;stroke:#ffffff;stroke-width:15.9828"
         id="rect50"
         width="9365.5254"
         height="1884.0148"
         x="4871.3101"
         y="-2422.0085"
         transform="scale(1,-1)" />
    </clipPath>
    <clipPath
       clipPathUnits="userSpaceOnUse"
       id="clipPath51">
      <rect
         style="fill:#000000;fill-opacity:1;stroke:#ffffff;stroke-width:15.9828"
         id="rect51"
         width="9365.5254"
         height="1884.0148"
         x="4871.3101"
         y="-2422.0085"
         transform="scale(1,-1)" />
    </clipPath>
    <clipPath
       clipPathUnits="userSpaceOnUse"
       id="clipPath52">
      <rect
         style="fill:#000000;fill-opacity:1;stroke:#ffffff;stroke-width:15.9828"
         id="rect52"
         width="9365.5254"
         height="1884.0148"
         x="4871.3101"
         y="-2422.0085"
         transform="scale(1,-1)" />
    </clipPath>
    <clipPath
       clipPathUnits="userSpaceOnUse"
       id="clipPath53">
      <rect
         style="fill:#000000;fill-opacity:1;stroke:#ffffff;stroke-width:15.9828"
         id="rect53"
         width="9365.5254"
         height="1884.0148"
         x="4871.3101"
         y="-2422.0085"
         transform="scale(1,-1)" />
    </clipPath>
    <clipPath
       clipPathUnits="userSpaceOnUse"
       id="clipPath54">
      <rect
         style="fill:#000000;fill-opacity:1;stroke:#ffffff;stroke-width:15.9828"
         id="rect54"
         width="9365.5254"
         height="1884.0148"
         x="4871.3101"
         y="-2422.0085"
         transform="scale(1,-1)" />
    </clipPath>
    <clipPath
       clipPathUnits="userSpaceOnUse"
       id="clipPath55">
      <rect
         style="fill:#000000;fill-opacity:1;stroke:#ffffff;stroke-width:15.9828"
         id="rect55"
         width="9365.5254"
         height="1884.0148"
         x="4871.3101"
         y="-2422.0085"
         transform="scale(1,-1)" />
    </clipPath>
    <clipPath
       clipPathUnits="userSpaceOnUse"
       id="clipPath56">
      <rect
         style="fill:#000000;fill-opacity:1;stroke:#ffffff;stroke-width:15.9828"
         id="rect56"
         width="9365.5254"
         height="1884.0148"
         x="4871.3101"
         y="-2422.0085"
         transform="scale(1,-1)" />
    </clipPath>
    <clipPath
       clipPathUnits="userSpaceOnUse"
       id="clipPath57">
      <rect
         style="fill:#000000;fill-opacity:1;stroke:#ffffff;stroke-width:15.9828"
         id="rect57"
         width="9365.5254"
         height="1884.0148"
         x="4871.3101"
         y="-2422.0085"
         transform="scale(1,-1)" />
    </clipPath>
    <clipPath
       clipPathUnits="userSpaceOnUse"
       id="clipPath58">
      <rect
         style="fill:#000000;fill-opacity:1;stroke:#ffffff;stroke-width:15.9828"
         id="rect58"
         width="9365.5254"
         height="1884.0148"
         x="4871.3101"
         y="-2422.0085"
         transform="scale(1,-1)" />
    </clipPath>
    <clipPath
       clipPathUnits="userSpaceOnUse"
       id="clipPath59">
      <rect
         style="fill:#000000;fill-opacity:1;stroke:#ffffff;stroke-width:15.9828"
         id="rect59"
         width="9365.5254"
         height="1884.0148"
         x="4871.3101"
         y="-2422.0085"
         transform="scale(1,-1)" />
    </clipPath>
  </defs>
  <sodipodi:namedview
     id="namedview20"
     pagecolor="#ffffff"
     bordercolor="#000000"
     borderopacity="0.25"
     inkscape:showpageshadow="2"
     inkscape:pageopacity="0.0"
     inkscape:pagecheckerboard="0"
     inkscape:deskcolor="#d1d1d1"
     inkscape:document-units="pt"
     inkscape:zoom="0.68115385"
     inkscape:cx="546.86618"
     inkscape:cy="179.8419"
     inkscape:window-width="1920"
     inkscape:window-height="1052"
     inkscape:window-x="0"
     inkscape:window-y="0"
     inkscape:window-maximized="1"
     inkscape:current-layer="g20" />
  <g
     transform="matrix(0.1,0,0,-0.1,-487.13101,242.20085)"
     fill="#000000"
     stroke="none"
     id="g20"
     style="fill:#2d92b4;fill-opacity:1">
    <path
       d="M 0,1480 V 530 h 7713 c 4241,0 7969,3 8282,7 l 570,8 -410,6 c -225,3 -623,7 -882,8 -308,1 -473,4 -473,11 0,7 163,10 469,10 258,0 483,3 500,6 28,6 31,10 31,45 0,32 3,39 20,39 19,0 20,7 20,139 0,177 8,261 26,261 11,0 14,38 14,200 0,193 1,200 20,200 19,0 20,7 20,139 0,177 8,261 26,261 11,0 14,38 14,200 0,193 1,200 20,200 18,0 20,7 20,80 v 80 H 8000 0 Z m 15037,808 c -2,-13 -4,-3 -4,22 0,25 2,35 4,23 2,-13 2,-33 0,-45 z m -9509,-68 c 60,-26 72,-46 72,-118 0,-62 -9,-92 -26,-92 -8,0 -37,11 -65,25 -142,73 -279,45 -279,-57 0,-61 36,-90 192,-157 166,-72 205,-96 256,-165 29,-40 42,-89 43,-168 2,-97 -45,-190 -121,-243 l -39,-27 32,-47 c 29,-41 32,-55 36,-129 5,-130 -38,-210 -142,-264 -126,-64 -338,-64 -466,2 -42,21 -51,40 -51,110 0,101 18,110 120,58 50,-26 78,-33 137,-36 114,-6 163,24 163,99 0,67 -42,98 -243,179 -175,72 -250,162 -251,304 0,59 4,82 27,128 25,51 96,129 126,139 10,4 6,15 -13,43 -33,50 -46,97 -46,171 1,125 74,217 206,259 76,25 263,17 332,-14 z m 4692,-150 c 0,-27 -3,-30 -34,-30 -22,0 -36,-6 -40,-16 -13,-33 -6,-44 24,-44 25,0 30,-4 30,-25 0,-21 -5,-25 -30,-25 h -30 v -135 -135 h -30 -30 v 135 c 0,128 -1,135 -20,135 -15,0 -20,7 -20,25 0,18 5,25 20,25 15,0 20,7 20,25 0,31 24,81 42,88 7,3 32,6 56,6 40,1 42,0 42,-29 z m 1017,15 c 38,-16 53,-31 79,-79 16,-30 12,-40 -21,-50 -16,-5 -25,2 -39,28 -22,41 -52,56 -113,56 -91,0 -143,-60 -143,-165 0,-107 52,-165 148,-165 28,0 67,8 87,17 32,15 35,20 35,60 v 43 h -60 c -57,0 -60,1 -60,25 0,25 0,25 95,25 h 96 l -3,-82 -3,-82 -49,-31 c -44,-27 -58,-30 -130,-30 -88,0 -125,14 -171,63 -28,29 -55,107 -55,157 0,52 28,130 57,160 61,61 171,83 250,50 z m -4967,-10 c 18,-9 34,-30 45,-58 24,-62 5,-114 -51,-143 l -41,-20 27,-32 c 14,-17 45,-61 68,-97 l 41,-65 h -38 c -37,0 -40,3 -89,79 -29,43 -59,84 -67,91 -9,8 -41,15 -71,18 l -54,4 v -96 -96 h -30 -30 v 215 215 h 130 c 96,0 139,-4 160,-15 z m 830,-56 v -70 l 22,15 c 26,19 87,21 121,5 39,-18 47,-50 47,-184 v -125 h -30 -30 v 125 c 0,113 -2,125 -19,135 -34,18 -68,12 -90,-16 -18,-23 -21,-41 -21,-135 v -109 h -30 -30 v 215 215 h 30 30 z m 2230,-144 v -215 h -30 -30 v 215 215 h 30 30 z m 3200,0 v -215 h -30 c -16,0 -30,5 -30,11 0,5 -10,3 -22,-5 -31,-22 -86,-20 -125,4 -47,28 -67,73 -68,150 0,105 46,160 133,160 21,0 48,-7 60,-16 l 22,-15 v 70 71 h 30 30 z m 970,144 v -70 l 22,15 c 29,20 107,21 135,1 32,-22 43,-75 43,-197 v -108 h -30 -30 v 108 c 0,66 -5,117 -13,132 -16,33 -64,38 -98,11 -22,-18 -24,-27 -27,-135 l -4,-116 h -29 -29 v 215 215 h 30 30 z m -6060,12 c 0,-44 3,-50 23,-53 14,-2 23,-11 25,-25 3,-19 -1,-23 -22,-23 h -26 v -110 c 0,-109 0,-110 24,-110 17,0 25,-7 28,-25 3,-13 3,-27 0,-30 -11,-11 -69,-4 -90,11 -21,14 -22,22 -22,140 0,117 -1,124 -20,124 -15,0 -20,7 -20,25 0,18 5,25 20,25 16,0 20,7 20,36 0,23 6,42 18,50 32,25 42,17 42,-35 z m 2030,-1 c 0,-47 2,-50 25,-50 20,0 25,-5 25,-25 0,-20 -5,-25 -25,-25 h -26 l 3,-107 c 3,-105 3,-107 28,-113 18,-4 25,-13 25,-30 0,-37 -55,-41 -90,-6 -24,24 -25,31 -25,141 0,108 -1,115 -20,115 -14,0 -20,7 -20,21 0,12 8,23 20,26 15,4 20,14 20,39 0,23 7,38 22,48 34,24 38,20 38,-34 z m 4370,0 c 0,-47 2,-50 25,-50 20,0 25,-5 25,-25 0,-20 -5,-25 -25,-25 h -26 l 3,-107 c 3,-105 3,-107 28,-113 18,-4 25,-13 25,-30 0,-37 -55,-41 -90,-6 -24,24 -25,31 -25,141 0,108 -1,115 -20,115 -14,0 -20,7 -20,21 0,12 8,23 20,26 15,4 20,14 20,43 0,28 5,39 23,48 35,17 37,15 37,-38 z m -4790,10 c 0,-27 -3,-30 -30,-30 -27,0 -30,3 -30,30 0,27 3,30 30,30 27,0 30,-3 30,-30 z m 110,0 c 0,-27 -3,-30 -30,-30 -27,0 -30,3 -30,30 0,27 3,30 30,30 27,0 30,-3 30,-30 z m 1180,0 c 0,-27 -3,-30 -30,-30 -27,0 -30,3 -30,30 0,27 3,30 30,30 27,0 30,-3 30,-30 z m 110,0 c 0,-27 -3,-30 -30,-30 -27,0 -30,3 -30,30 0,27 3,30 30,30 27,0 30,-3 30,-30 z m -3829,-87 c 36,-31 59,-78 59,-123 v -30 h -119 -120 l 10,-32 c 20,-72 99,-92 149,-38 45,48 91,39 64,-12 -47,-90 -200,-91 -256,0 -27,44 -29,141 -4,190 38,74 154,98 217,45 z m 317,11 c 26,-18 55,-71 47,-84 -13,-21 -50,-10 -67,20 -14,24 -24,30 -53,30 -61,0 -96,-61 -82,-147 13,-78 93,-112 136,-57 12,15 21,33 21,41 0,10 8,12 28,7 36,-9 35,-7 19,-45 -22,-52 -51,-72 -110,-76 -40,-3 -60,1 -85,17 -92,57 -94,237 -3,293 34,21 119,22 149,1 z m 781,2 c 28,-15 56,-61 46,-77 -12,-19 -52,-9 -63,16 -10,21 -18,25 -56,25 -25,0 -48,-6 -55,-14 -21,-25 0,-45 71,-67 81,-24 118,-55 118,-97 0,-65 -66,-108 -152,-100 -42,4 -57,11 -80,37 -38,43 -37,71 2,71 19,0 30,-5 30,-14 0,-8 10,-22 22,-30 42,-30 118,-14 118,23 0,26 -16,36 -85,56 -65,18 -92,37 -106,72 -12,32 8,81 40,98 34,18 114,19 150,1 z m 344,-6 c 30,-23 35,-53 39,-203 l 3,-97 h -28 c -15,0 -30,6 -33,14 -5,12 -11,11 -37,-5 -43,-26 -116,-25 -150,1 -34,27 -45,81 -23,115 22,33 60,51 126,59 78,10 89,18 70,53 -13,23 -23,28 -62,31 -42,3 -49,0 -68,-26 -16,-22 -28,-28 -46,-24 -30,5 -30,21 -3,56 29,36 52,45 125,45 47,1 67,-4 87,-19 z m 164,5 c 5,-14 8,-14 29,0 37,24 108,19 141,-9 28,-24 28,-25 31,-160 l 4,-136 h -31 -31 v 113 c 0,86 -4,118 -16,135 -19,28 -63,29 -95,3 -22,-18 -24,-27 -27,-135 l -4,-116 h -29 -29 v 153 c 0,85 3,157 7,160 12,13 44,7 50,-8 z m 312,-32 c 7,-27 22,-79 33,-118 l 21,-70 32,115 c 31,112 32,115 60,115 30,0 28,6 71,-160 l 18,-70 36,115 c 33,107 38,115 63,118 15,2 27,0 27,-5 0,-4 -22,-75 -48,-158 -47,-148 -48,-150 -78,-153 l -31,-3 -28,110 c -16,61 -30,109 -32,107 -2,-2 -17,-50 -32,-107 -27,-103 -28,-104 -59,-107 -18,-2 -32,-1 -32,2 0,2 -20,70 -45,149 -25,80 -45,150 -45,156 0,6 13,11 29,11 26,0 30,-5 40,-47 z m 630,23 c 23,-21 30,-60 33,-199 l 3,-97 h -28 c -15,0 -30,6 -33,14 -5,12 -12,11 -40,-6 -27,-16 -46,-19 -85,-16 -58,6 -86,28 -95,74 -12,64 37,106 136,118 78,10 89,18 70,53 -13,23 -23,28 -62,31 -39,3 -49,-1 -66,-22 -20,-26 -72,-37 -72,-15 0,21 22,51 53,70 42,26 155,23 186,-5 z m 625,-7 c 34,-30 56,-79 56,-126 0,-23 -2,-23 -120,-23 -77,0 -120,-4 -120,-10 0,-21 30,-70 49,-80 38,-20 81,-12 111,20 50,53 94,29 54,-29 -36,-51 -142,-67 -202,-31 -47,29 -76,98 -69,161 12,100 63,149 154,149 44,0 58,-5 87,-31 z m 506,-89 c 0,-107 2,-122 20,-140 22,-22 37,-24 74,-10 33,12 46,61 46,178 v 93 l 28,-3 27,-3 3,-157 3,-158 h -31 c -21,0 -30,5 -30,16 0,13 -5,12 -26,-5 -52,-41 -143,-18 -163,40 -12,34 -15,251 -4,262 3,4 17,7 30,7 23,0 23,-1 23,-120 z m 327,104 c 5,-15 7,-15 15,0 10,18 83,23 93,5 4,-5 4,-21 1,-33 -5,-19 -12,-23 -43,-22 -34,1 -39,-2 -50,-34 -6,-19 -12,-77 -12,-127 l -1,-93 h -30 -30 v 153 c 0,85 3,157 7,160 12,13 44,7 50,-9 z m 833,-1 c 0,-15 1,-15 18,0 20,18 68,22 90,9 9,-6 10,-16 3,-34 -8,-21 -15,-25 -36,-21 -16,4 -33,-1 -45,-12 -18,-16 -20,-31 -20,-132 v -113 h -30 -30 v 160 160 h 25 c 17,0 25,-6 25,-17 z m 210,-116 c 5,-136 10,-147 58,-147 13,0 34,11 47,25 24,23 25,30 25,140 v 115 h 30 30 v -160 -160 h -25 c -15,0 -25,6 -25,15 0,12 -6,11 -32,-5 -49,-30 -103,-26 -139,9 l -29,29 v 137 136 l 28,-3 27,-3 z m 326,118 c 5,-13 8,-13 27,0 28,19 107,19 134,0 32,-22 43,-75 43,-197 v -108 h -30 -30 v 108 c 0,66 -5,117 -13,132 -16,33 -64,38 -98,11 -22,-18 -24,-27 -27,-135 l -4,-116 h -29 -29 v 153 c 0,85 3,157 7,160 12,12 44,7 49,-8 z m 664,-2 c 0,-15 1,-15 18,0 20,18 68,22 90,9 9,-6 10,-16 3,-34 -8,-20 -14,-24 -39,-20 -50,7 -62,-23 -62,-150 v -108 h -30 -30 v 160 160 h 25 c 17,0 25,-6 25,-17 z m 356,-2 c 37,-22 64,-76 64,-125 v -36 h -115 c -110,0 -115,-1 -115,-21 0,-11 13,-34 29,-50 40,-39 82,-39 123,1 32,32 78,41 78,15 0,-8 -15,-32 -34,-53 -34,-36 -36,-37 -104,-37 -61,0 -74,3 -97,25 -41,38 -55,73 -55,137 1,104 53,163 145,163 31,0 61,-7 81,-19 z m 341,-16 c 40,-40 41,-69 0,-73 -16,-2 -27,1 -27,9 0,24 -33,49 -65,49 -51,0 -78,-37 -79,-109 -1,-76 24,-115 76,-119 29,-2 40,2 57,24 11,15 21,33 21,41 0,12 7,13 27,8 37,-9 38,-10 24,-44 -21,-48 -55,-73 -109,-79 -112,-10 -179,84 -152,214 16,77 60,114 136,114 51,0 59,-3 91,-35 z m 794,12 c 39,-26 54,-53 64,-114 l 7,-43 h -121 c -116,0 -121,-1 -121,-21 0,-34 53,-79 94,-79 35,0 76,27 76,50 0,6 14,10 30,10 22,0 30,-5 30,-18 0,-49 -66,-92 -143,-92 -85,0 -147,69 -147,163 0,61 19,106 59,140 43,36 122,38 172,4 z m 806,-469 c -2,-13 -4,-3 -4,22 0,25 2,35 4,23 2,-13 2,-33 0,-45 z M 8072,1050 c 77,-192 74,-180 45,-180 -21,0 -28,8 -43,50 l -18,50 h -66 -66 l -15,-47 c -13,-41 -19,-48 -43,-51 -24,-3 -28,-1 -21,15 4,10 30,77 57,148 63,164 65,167 90,163 17,-2 33,-31 80,-148 z m 968,-15 V 870 h -25 -25 v 158 c 0,87 3,162 7,165 3,4 15,7 25,7 17,0 18,-12 18,-165 z m 670,146 c 0,-13 -9,-20 -30,-24 -37,-8 -43,-44 -7,-49 12,-2 22,-10 22,-18 0,-8 -10,-16 -22,-18 -22,-3 -23,-7 -23,-103 0,-99 0,-99 -25,-99 h -25 v 100 c 0,82 -3,100 -15,100 -8,0 -15,9 -15,20 0,11 7,20 15,20 9,0 15,9 15,25 0,36 33,65 75,65 28,0 35,-4 35,-19 z m 708,-58 c 17,-43 46,-117 65,-165 l 35,-88 h -27 c -23,0 -29,7 -44,50 l -18,50 h -64 -63 l -17,-50 c -14,-42 -21,-50 -41,-50 -13,0 -24,4 -24,9 0,5 24,72 53,148 30,76 57,146 60,156 4,9 17,17 30,17 20,0 28,-11 55,-77 z m 492,58 c 0,-13 -9,-20 -30,-24 -37,-8 -43,-44 -7,-49 12,-2 22,-10 22,-18 0,-8 -10,-16 -22,-18 -22,-3 -23,-7 -23,-103 0,-99 0,-99 -25,-99 h -25 v 100 c 0,82 -3,100 -15,100 -8,0 -15,9 -15,20 0,11 7,20 15,20 9,0 15,9 15,25 0,36 33,65 75,65 28,0 35,-4 35,-19 z m 60,-69 5,-83 40,40 c 23,25 48,41 62,41 32,0 29,-10 -16,-54 l -39,-38 44,-69 c 24,-38 44,-71 44,-74 0,-3 -11,-5 -25,-5 -19,0 -33,13 -60,55 -19,31 -40,53 -45,50 -6,-3 -10,-28 -10,-56 0,-46 -2,-49 -25,-49 h -25 v 166 165 l 23,-3 c 20,-3 22,-9 27,-86 z m 220,-77 V 870 h -25 -25 v 158 c 0,87 3,162 7,165 3,4 15,7 25,7 17,0 18,-12 18,-165 z m -2040,115 c 0,-33 3,-40 20,-40 13,0 20,-7 20,-20 0,-13 -7,-20 -20,-20 -18,0 -20,-7 -20,-79 0,-70 2,-79 20,-84 12,-3 20,-14 20,-26 0,-16 -6,-21 -27,-21 -51,0 -63,23 -63,122 0,72 -3,88 -15,88 -8,0 -15,9 -15,20 0,11 7,20 15,20 10,0 15,10 15,26 0,24 23,53 43,54 4,0 7,-18 7,-40 z m -320,5 c 0,-20 -5,-25 -25,-25 -20,0 -25,5 -25,25 0,20 5,25 25,25 20,0 25,-5 25,-25 z m 80,0 c 0,-20 -5,-25 -25,-25 -18,0 -25,5 -25,18 0,24 8,32 32,32 13,0 18,-7 18,-25 z m 888,-2 c 3,-19 -1,-23 -22,-23 -21,0 -26,5 -26,26 0,21 4,25 23,22 14,-2 23,-11 25,-25 z m 82,2 c 0,-20 -5,-25 -25,-25 -20,0 -25,5 -25,25 0,20 5,25 25,25 20,0 25,-5 25,-25 z m 1450,0 c 0,-20 -5,-25 -25,-25 -20,0 -25,5 -25,25 0,20 5,25 25,25 20,0 25,-5 25,-25 z m 80,0 c 0,-20 -5,-25 -25,-25 -18,0 -25,5 -25,18 0,24 8,32 32,32 13,0 18,-7 18,-25 z m 1379,-20 c 18,-6 22,-4 16,6 -5,8 -6,12 -2,9 3,-3 7,-9 8,-15 2,-5 11,-19 22,-30 38,-40 49,-76 45,-137 -2,-33 -9,-63 -16,-67 -7,-4 -8,-12 -2,-21 15,-23 12,-36 -3,-15 -10,13 -16,15 -21,6 -4,-6 -3,-18 3,-25 8,-9 7,-13 -4,-13 -8,0 -11,5 -8,10 4,6 -4,7 -23,1 -49,-14 -153,-12 -159,4 -3,8 -12,11 -21,8 -10,-4 -13,-2 -8,6 5,8 2,9 -11,4 -15,-5 -16,-4 -6,8 9,11 9,15 0,18 -21,7 -36,115 -20,145 5,11 7,24 3,29 -4,5 -6,8 -4,7 7,-3 47,38 47,49 0,6 22,12 50,15 27,2 51,6 54,9 4,4 10,3 60,-11 z m 56,6 c -3,-5 4,-16 16,-24 13,-9 16,-17 10,-22 -6,-3 -11,-1 -11,5 0,6 -5,8 -12,4 -6,-4 -8,-3 -4,4 3,6 2,13 -4,17 -10,6 -5,25 6,25 3,0 3,-4 -1,-9 z m -4628,-42 c 8,-8 13,-8 17,0 4,6 26,11 50,11 67,0 80,-21 84,-141 l 4,-99 h -26 -26 v 88 c 0,96 -7,112 -52,112 -38,0 -48,-24 -48,-119 0,-80 0,-81 -25,-81 h -25 v 120 c 0,109 2,120 18,120 10,0 23,-5 29,-11 z m 233,-31 c 6,-24 17,-63 25,-88 l 13,-45 16,60 c 32,112 31,110 57,110 21,0 25,-7 40,-72 9,-39 19,-77 21,-84 2,-6 15,27 28,75 22,76 27,86 47,86 13,0 23,-3 23,-6 0,-3 -16,-57 -36,-120 -33,-108 -36,-114 -62,-114 -26,0 -28,4 -46,83 -10,45 -21,75 -24,67 -3,-8 -13,-44 -22,-80 -14,-58 -19,-65 -42,-68 -18,-2 -28,2 -32,15 -18,63 -59,200 -63,211 -3,7 4,12 21,12 21,0 27,-6 36,-42 z m 470,22 c 17,-17 20,-33 20,-104 0,-46 3,-91 6,-100 5,-12 0,-16 -19,-16 -14,0 -27,5 -29,11 -2,6 -14,5 -33,-5 -44,-23 -82,-20 -110,9 -28,27 -30,42 -14,79 12,26 41,39 112,51 32,5 38,10 35,28 -2,18 -11,23 -45,25 -34,3 -44,-1 -53,-17 -13,-24 -50,-28 -50,-6 0,9 11,27 25,40 32,33 124,36 155,5 z m 470,-7 c 23,-21 31,-38 33,-68 l 2,-40 -87,-3 c -51,-2 -88,-7 -88,-13 0,-18 49,-59 70,-59 12,0 32,11 46,25 47,47 81,24 37,-25 -36,-39 -87,-49 -136,-25 -70,33 -85,149 -26,207 39,39 106,39 149,1 z m 378,-70 c 2,-79 6,-94 22,-103 23,-12 65,2 74,25 3,9 6,53 6,97 0,77 1,79 23,76 21,-3 22,-7 25,-120 l 3,-118 h -26 c -14,0 -25,5 -25,11 0,5 -10,3 -22,-5 -33,-23 -75,-20 -103,9 -23,22 -25,31 -25,125 0,99 0,101 23,98 21,-3 22,-8 25,-95 z m 242,85 c 0,-9 3,-9 12,0 16,16 78,16 78,0 0,-24 -16,-39 -33,-32 -35,13 -47,-14 -47,-107 0,-88 0,-89 -25,-89 h -25 v 120 c 0,113 1,120 20,120 11,0 20,-5 20,-12 z m 580,-77 c 0,-68 4,-93 16,-105 20,-21 37,-20 63,2 17,14 21,30 23,102 3,80 4,85 26,88 22,3 22,2 22,-118 V 868 l -32,3 c -18,2 -45,-1 -61,-5 -40,-12 -83,9 -96,46 -12,34 -15,181 -4,191 3,4 15,7 25,7 16,0 18,-9 18,-89 z m 830,69 c 17,-17 20,-33 20,-104 0,-46 3,-91 6,-100 5,-12 0,-16 -20,-16 -14,0 -26,4 -26,9 0,5 -20,1 -44,-7 -54,-20 -93,-10 -115,29 -12,22 -12,31 -2,57 13,32 37,44 114,57 32,5 38,10 35,28 -2,18 -11,23 -45,25 -34,3 -44,-1 -53,-17 -13,-24 -50,-28 -50,-6 0,9 11,27 25,40 32,33 124,36 155,5 z m 198,-3 c -2,-17 -9,-21 -29,-19 -35,4 -49,-30 -49,-123 0,-73 -1,-75 -25,-75 h -25 v 113 c 0,63 2,116 5,118 2,3 32,5 65,6 58,2 61,1 58,-20 z m 72,-66 c 0,-68 4,-93 16,-105 20,-21 37,-20 63,2 17,14 21,30 23,102 3,80 4,85 26,88 22,3 22,2 22,-118 V 868 l -32,5 c -18,2 -41,0 -52,-5 -10,-5 -34,-7 -53,-3 -47,9 -63,49 -63,160 0,84 0,85 25,85 25,0 25,-1 25,-89 z m 250,79 c 0,-7 6,-7 19,0 33,17 89,12 111,-10 17,-17 20,-33 20,-120 V 870 h -25 c -25,0 -25,1 -25,84 0,104 -4,116 -41,116 -44,0 -59,-31 -59,-122 0,-77 0,-78 -25,-78 h -25 v 113 c 0,63 3,117 7,120 10,11 43,8 43,-3 z m 338,-2 c 9,-9 12,-9 12,0 0,7 11,12 25,12 h 25 V 986 c 0,-67 -5,-137 -11,-155 -26,-73 -156,-83 -188,-14 -21,45 10,52 51,11 10,-10 28,-18 40,-18 27,0 58,27 58,51 0,15 -6,17 -34,12 -52,-8 -84,4 -106,40 -34,55 -19,159 27,186 25,14 86,14 101,-1 z m 2599,-410 c -2,-13 -4,-3 -4,22 0,25 2,35 4,23 2,-13 2,-33 0,-45 z m -574,-115 c -13,-2 -33,-2 -45,0 -13,2 -3,4 22,4 25,0 35,-2 23,-4 z m 1280,-30 c -145,-2 -381,-2 -525,0 -145,1 -27,2 262,2 289,0 407,-1 263,-2 z"
       id="path1"
       style="fill:#2d92b4;fill-opacity:1"
       clip-path="url(#clipPath59)" />
    <path
       d="m 5192,1644 c -46,-32 -70,-116 -48,-168 19,-45 54,-70 152,-107 47,-18 87,-36 90,-41 8,-13 62,30 79,62 8,16 15,52 15,81 0,46 -4,55 -33,83 -29,27 -195,106 -222,106 -6,0 -21,-7 -33,-16 z"
       id="path2"
       style="fill:#2d92b4;fill-opacity:1"
       clip-path="url(#clipPath58)" />
    <path
       d="m 6040,1970 v -72 l 90,4 c 100,5 130,20 130,68 0,48 -31,65 -131,68 l -89,4 z"
       id="path3"
       style="fill:#2d92b4;fill-opacity:1"
       clip-path="url(#clipPath57)" />
    <path
       d="m 12341,1911 c -40,-40 -40,-145 0,-187 30,-32 73,-31 104,1 21,21 25,33 25,88 0,50 -5,70 -21,91 -25,32 -79,36 -108,7 z"
       id="path4"
       style="fill:#2d92b4;fill-opacity:1"
       clip-path="url(#clipPath56)" />
    <path
       d="m 6475,1905 c -46,-45 -35,-55 60,-55 70,0 85,3 85,15 0,30 -47,65 -85,65 -25,0 -44,-8 -60,-25 z"
       id="path5"
       style="fill:#2d92b4;fill-opacity:1"
       clip-path="url(#clipPath55)" />
    <path
       d="m 7969,1796 c -83,-16 -109,-45 -73,-80 23,-23 78,-20 108,7 25,21 48,88 30,86 -5,-1 -34,-7 -65,-13 z"
       id="path6"
       style="fill:#2d92b4;fill-opacity:1"
       clip-path="url(#clipPath54)" />
    <path
       d="m 9068,1795 c -63,-13 -88,-29 -88,-54 0,-45 80,-57 124,-18 25,21 48,88 30,86 -5,-1 -35,-7 -66,-14 z"
       id="path7"
       style="fill:#2d92b4;fill-opacity:1"
       clip-path="url(#clipPath53)" />
    <path
       d="m 9643,1908 c -46,-52 -41,-58 57,-58 50,0 90,2 90,5 0,16 -31,63 -45,69 -36,13 -82,6 -102,-16 z"
       id="path8"
       style="fill:#2d92b4;fill-opacity:1"
       clip-path="url(#clipPath52)" />
    <path
       d="m 12875,1905 c -46,-45 -35,-55 60,-55 94,0 101,6 64,54 -28,36 -89,37 -124,1 z"
       id="path9"
       style="fill:#2d92b4;fill-opacity:1"
       clip-path="url(#clipPath51)" />
    <path
       d="m 14022,1923 c -11,-4 -42,-54 -42,-68 0,-3 40,-5 90,-5 h 90 l -11,27 c -5,14 -17,32 -27,39 -17,13 -75,17 -100,7 z"
       id="path10"
       style="fill:#2d92b4;fill-opacity:1"
       clip-path="url(#clipPath50)" />
    <path
       d="m 7963,1070 -22,-60 h 49 49 l -21,60 c -12,33 -24,60 -27,60 -4,0 -16,-27 -28,-60 z"
       id="path11"
       style="fill:#2d92b4;fill-opacity:1"
       clip-path="url(#clipPath49)" />
    <path
       d="m 10345,1088 c -10,-29 -20,-59 -23,-65 -3,-9 10,-13 43,-13 34,0 46,4 43,13 -3,6 -13,36 -22,65 -10,28 -19,52 -20,52 -1,0 -10,-24 -21,-52 z"
       id="path12"
       style="fill:#2d92b4;fill-opacity:1"
       clip-path="url(#clipPath48)" />
    <path
       d="m 12700,1101 c 0,-6 -6,-8 -14,-5 -7,3 -27,-11 -45,-32 -29,-32 -32,-42 -27,-80 9,-76 34,-105 96,-111 25,-2 50,2 67,12 15,9 20,14 10,11 -12,-4 -24,6 -43,35 -27,43 -48,47 -51,8 0,-13 -1,-29 -2,-36 -1,-6 -8,-10 -17,-9 -13,2 -16,18 -16,87 l -1,84 55,3 c 65,3 88,-12 81,-53 -3,-14 -9,-28 -14,-31 -5,-3 -9,-10 -9,-15 0,-6 5,-7 12,-3 7,4 8,3 4,-4 -7,-11 13,-52 25,-52 12,0 40,81 32,93 -4,7 -8,17 -8,22 -2,21 -18,44 -39,59 -31,20 -96,32 -96,17 z"
       id="path13"
       style="fill:#2d92b4;fill-opacity:1"
       clip-path="url(#clipPath47)" />
    <path
       d="m 12692,1023 c 3,-17 42,-27 60,-17 13,8 -4,34 -21,34 -14,0 -14,-2 -1,-10 9,-6 10,-10 3,-10 -6,0 -15,5 -18,10 -10,17 -27,11 -23,-7 z"
       id="path14"
       style="fill:#2d92b4;fill-opacity:1"
       clip-path="url(#clipPath46)" />
    <path
       d="m 8826,971 c -56,-12 -63,-71 -9,-71 39,0 73,26 73,56 0,25 -8,27 -64,15 z"
       id="path15"
       style="fill:#2d92b4;fill-opacity:1"
       clip-path="url(#clipPath45)" />
    <path
       d="m 9266,1048 c -9,-12 -16,-26 -16,-30 0,-5 29,-8 65,-8 70,0 82,11 47,43 -27,25 -78,22 -96,-5 z"
       id="path16"
       style="fill:#2d92b4;fill-opacity:1"
       clip-path="url(#clipPath44)" />
    <path
       d="m 11326,971 c -60,-13 -62,-71 -2,-71 37,0 66,27 66,62 0,19 -13,21 -64,9 z"
       id="path17"
       style="fill:#2d92b4;fill-opacity:1"
       clip-path="url(#clipPath43)" />
    <path
       d="m 12190,1051 c -5,-11 -10,-38 -10,-61 0,-23 5,-50 10,-61 14,-25 61,-25 83,-1 21,24 22,90 1,120 -20,28 -69,30 -84,3 z"
       id="path18"
       style="fill:#2d92b4;fill-opacity:1"
       clip-path="url(#clipPath42)" />
    <path
       d="m 15778,573 c 12,-2 32,-2 45,0 12,2 2,4 -23,4 -25,0 -35,-2 -22,-4 z"
       id="path19"
       style="fill:#2d92b4;fill-opacity:1"
       clip-path="url(#clipPath41)" />
    <path
       d="m 16918,573 c 23,-2 61,-2 85,0 23,2 4,4 -43,4 -47,0 -66,-2 -42,-4 z"
       id="path20"
       style="fill:#2d92b4;fill-opacity:1"
       clip-path="url(#clipPath40)" />
  </g>
</svg>
