<?xml version="1.0" encoding="UTF-8" standalone="no"?>
<svg
   id="Ebene_1"
   data-name="Ebene 1"
   viewBox="0 0 399.99999 89.999998"
   version="1.1"
   sodipodi:docname="2025-10-15-EMUs.svg"
   inkscape:version="1.2.2 (b0a8486541, 2022-12-01)"
   xmlns:inkscape="http://www.inkscape.org/namespaces/inkscape"
   xmlns:sodipodi="http://sodipodi.sourceforge.net/DTD/sodipodi-0.dtd"
   xmlns="http://www.w3.org/2000/svg"
   xmlns:svg="http://www.w3.org/2000/svg">
  <sodipodi:namedview
     id="namedview16"
     pagecolor="#ffffff"
     bordercolor="#000000"
     borderopacity="0.25"
     inkscape:showpageshadow="2"
     inkscape:pageopacity="0.0"
     inkscape:pagecheckerboard="0"
     inkscape:deskcolor="#d1d1d1"
     showgrid="false"
     inkscape:zoom="2.4436096"
     inkscape:cx="154.48458"
     inkscape:cy="-15.34615"
     inkscape:window-width="1920"
     inkscape:window-height="1052"
     inkscape:window-x="0"
     inkscape:window-y="0"
     inkscape:window-maximized="1"
     inkscape:current-layer="Ebene_1" />
  <defs
     id="defs7">
    <style
       id="style2">.cls-1{fill:none;}.cls-2{clip-path:url(#clip-path);}.cls-3{fill:#e6007e;}.cls-4{fill:#1d1d1b;}</style>
    <clipPath
       id="clip-path"
       transform="translate(0 0.5)">
      <rect
         class="cls-1"
         y="-0.5"
         width="381.10001"
         height="77.120003"
         id="rect4"
         x="0" />
    </clipPath>
  </defs>
  <rect
     style="fill:#ffffff;fill-opacity:1;stroke:#ffffff;stroke-width:1.41982"
     id="rect228"
     width="398.58017"
     height="88.580177"
     x="0.70991516"
     y="0.70991135" />
  <g
     class="cls-2"
     clip-path="url(#clip-path)"
     id="g13"
     transform="translate(9.4738562,24.605024)">
    <path
       class="cls-3"
       d="m 378.1,15.7 c 0.5,-0.4 0.8,-0.5 1,-0.1 a 0.6,0.6 0 0 1 0.1,0.4 0.5,0.5 0 0 1 -0.2,0.4 h -0.4 c -0.2,-0.1 -0.3,-0.3 -0.5,-0.6 z M 376,27.8 a 1.3,1.3 0 0 1 -0.1,-0.6 c 0,-0.4 0.1,-0.5 0.3,-0.6 a 0.4,0.4 0 0 1 0.4,0.2 1,1 0 0 1 0.5,0.4 l 0.3,0.2 -0.5,0.4 A 0.5,0.5 0 0 1 376.5,28 0.6,0.6 0 0 1 376,27.8 m -1.4,-2.7 c 0,-0.2 0.2,-0.3 0.4,-0.3 h 0.8 l 0.7,0.3 a 0.6,0.6 0 0 1 0.2,0.7 c 0,0.2 -0.1,0.3 -0.4,0.3 a 0.9,0.9 0 0 1 -0.7,0 l -0.7,-0.3 c -0.2,-0.2 -0.3,-0.4 -0.2,-0.6 z m -1.5,0.3 h -0.6 v 0.2 a 4.3,4.3 0 0 0 -0.1,0.5 c -0.2,0.4 -0.4,0.5 -0.7,0.5 a 0.8,0.8 0 0 1 -0.6,-0.4 1.4,1.4 0 0 1 -0.3,-0.9 1.9,1.9 0 0 1 0.7,-1.2 h 1.9 l 0.3,0.4 a 1.1,1.1 0 0 1 -0.1,0.5 c 0,0.1 -0.2,0.2 -0.5,0.2 z m -3.2,0.4 h -0.5 c -0.1,-0.1 -0.1,-0.2 0,-0.4 0.1,-0.2 0.2,-0.2 0.4,-0.3 0.2,-0.1 0.4,0.6 0.1,0.8 z m -1.2,-1.4 -0.3,-0.4 0.3,-0.4 0.3,0.4 -0.4,0.4 z m 8.8,-11 a 12.4,12.4 0 0 0 -3,-1.6 20,20 0 0 0 -2.9,-1 l -2.7,-0.7 -2.1,-0.6 A 6,6 0 0 1 365.4,8.8 1.2,1.2 0 0 1 365,7.7 1.3,1.3 0 0 1 365.7,6.8 2.8,2.8 0 0 1 367,6.5 l 1.4,0.3 a 2.4,2.4 0 0 1 0.9,1.4 v 0.2 c 0,0.1 0.1,0.2 0.3,0.2 h 10.2 a 5.8,5.8 0 0 0 -0.7,-3.5 7.8,7.8 0 0 0 -2.4,-2.7 11.1,11.1 0 0 0 -3.7,-1.8 20.2,20.2 0 0 0 -4.4,-1 23.7,23.7 0 0 0 -4.6,0.1 15,15 0 0 0 -4.3,1 8.9,8.9 0 0 0 -4.3,3.2 8.8,8.8 0 0 0 -1.8,4.5 8.2,8.2 0 0 0 0.8,4.6 8.1,8.1 0 0 0 3.2,3.7 l 2.3,1.1 2.4,0.8 2.4,0.6 2.7,0.7 a 3.7,3.7 0 0 1 1.4,0.8 1.6,1.6 0 0 1 0.5,1 1.6,1.6 0 0 1 -0.1,1 1.6,1.6 0 0 1 -0.7,0.7 l -1,0.3 a 4.8,4.8 0 0 1 -1.2,0 l -1.1,-0.5 a 3.1,3.1 0 0 1 -0.8,-1.1 l -0.4,-1 h -6.9 a 2.3,2.3 0 0 0 -1.1,0.2 l -0.6,0.4 a 1.4,1.4 0 0 0 -1.2,-0.6 h -1.3 a 7,7 0 0 0 0.6,2.7 8,8 0 0 0 1.6,2.6 10.9,10.9 0 0 0 2.6,2.1 9.9,9.9 0 0 0 3.5,1.4 23.9,23.9 0 0 0 8.5,0.8 16.3,16.3 0 0 0 6.1,-1.8 11,11 0 0 0 3.8,-3.6 10.3,10.3 0 0 0 1.4,-4.4 8,8 0 0 0 -0.7,-4.3 7.9,7.9 0 0 0 -2.7,-3.3 z"
       transform="translate(0,0.5)"
       id="path9" />
    <path
       class="cls-4"
       d="m 327.4,33.6 a 4.4,4.4 0 0 1 0.6,-1 0.8,0.8 0 0 1 0.5,-0.5 h 0.7 l 1,0.2 a 1.8,1.8 0 0 1 -0.9,1.4 3,3 0 0 1 -1.9,0.1 z m -0.5,2.4 h -1.7 l -0.4,-0.3 a 5.2,5.2 0 0 1 1.3,-1.5 1.1,1.1 0 0 1 1,0.1 1,1 0 0 1 0.3,0.8 0.7,0.7 0 0 1 -0.5,0.7 z m -3,-5.2 1.1,0.2 c -0.2,0.5 -0.4,0.8 -0.7,0.9 a 0.9,0.9 0 0 1 -1,0 c 0.2,-0.7 0.4,-1 0.6,-1.1 M 323.7,27 c 0.3,0.1 0.5,0.1 0.6,0.3 a 0.2,0.2 0 0 1 0,0.3 0.5,0.5 0 0 1 -0.2,0.4 l -0.2,0.4 -0.5,-0.5 a 0.8,0.8 0 0 1 -0.2,-0.4 c -0.1,-0.1 0,-0.2 0.1,-0.3 l 0.3,-0.2 z m 3,-10.4 -0.3,-0.9 h 0.6 l 0.3,0.3 c 0,0.2 0.1,0.3 0.1,0.5 0,0.2 0.1,0.3 0.1,0.4 a 0.9,0.9 0 0 1 -0.8,-0.4 m -13.1,11 h 0.4 l 0.5,0.6 0.9,1.3 h -0.5 l -0.7,-0.2 -0.7,-0.6 A 2.3,2.3 0 0 1 313,27.5 h 0.6 m -0.1,-8.9 -0.2,-0.3 c 0,-0.2 0.1,-0.2 0.3,-0.2 0.2,0 0.2,0.1 0.2,0.3 l -0.3,0.2 M 305,9.3 c -0.2,0.1 -0.3,0 -0.4,-0.1 l -0.2,-0.5 a 0.9,0.9 0 0 1 0.1,-0.5 L 304.9,8 a 0.5,0.5 0 0 1 0.4,0.2 l 0.4,0.5 -0.4,0.4 -0.4,0.2 z m 31.5,14.5 a 1.5,1.5 0 0 1 -0.2,-1.1 2.3,2.3 0 0 1 0.3,-1.1 1.5,1.5 0 0 1 0.8,0.2 c 0.3,0.1 0.4,0 0.6,-0.2 a 3.3,3.3 0 0 0 0.2,-1.4 29.3,29.3 0 0 0 0.1,-3.4 v -6.5 c 0,-2.7 -0.1,-6.1 -0.1,-10.3 h -14.9 c 0,4.3 0,8 0.1,11.1 V 19 c 0,2.2 -0.1,3.9 -0.2,5.3 a 9.8,9.8 0 0 1 -0.6,3 3.1,3.1 0 0 1 -1.2,1.5 8.8,8.8 0 0 1 -2,0.4 c -1.7,0 -2.8,-0.5 -3.3,-1.6 a 12.3,12.3 0 0 1 -1,-5.1 c 0,-2.3 0,-5.3 0.1,-9.1 0.1,-3.8 0.1,-8.1 -0.1,-13.3 l -1.7,-0.2 h -11.8 l -1.3,0.2 a 5.4,5.4 0 0 0 -0.1,1.6 31.1,31.1 0 0 0 -0.1,3.2 v 4.3 c 0,1.4 0.1,2.9 0.1,4.3 0,1.4 0.1,2.7 0.2,3.9 a 16.5,16.5 0 0 0 0.2,2.7 14.3,14.3 0 0 0 -0.4,2.2 v 2.4 a 17.9,17.9 0 0 0 0.2,2.4 14.2,14.2 0 0 0 0.5,2.2 14.7,14.7 0 0 0 2.2,4.9 11.9,11.9 0 0 0 3.5,3.2 13.5,13.5 0 0 0 4.6,1.9 22.7,22.7 0 0 0 5.5,0.8 29.9,29.9 0 0 0 9.3,-0.5 21.5,21.5 0 0 0 6.1,-2.5 11.8,11.8 0 0 0 3.6,-3.4 12.5,12.5 0 0 0 1.7,-3.5 8.8,8.8 0 0 0 0.6,-2.8 c 0,-0.8 0,-1.2 -0.1,-1.2 L 337.3,26 a 0.5,0.5 0 0 1 -0.4,-0.6 0.4,0.4 0 0 1 0.2,-0.5 l 0.6,-0.4 0.5,-0.4 c 0.1,-0.1 0,-0.3 -0.1,-0.6 l -0.8,0.2 -0.8,0.2 z m -55.4,3.3 v 0.3 a 0.8,0.8 0 0 1 -0.6,0.2 l -1.5,0.3 -3,0.4 -0.9,-0.2 -0.6,-0.6 a 0.9,0.9 0 0 1 0.4,-0.7 4.6,4.6 0 0 1 2,-0.5 v -3.1 l 0.5,0.4 0.4,0.3 0.3,0.7 a 2.1,2.1 0 0 0 0.4,0.6 c 0.1,0.3 0.3,0.4 0.5,0.6 l 0.8,0.2 a 1.4,1.4 0 0 1 1.1,0.2 0.8,0.8 0 0 1 0.3,0.9 z m -2.8,7.5 0.3,-0.3 0.5,-0.5 0.6,-0.4 h 0.6 a 3,3 0 0 1 -0.5,2 1.4,1.4 0 0 1 -1,0.6 0.8,0.8 0 0 1 -0.7,-0.4 0.8,0.8 0 0 1 0.2,-0.9 z M 273.6,26 c -0.1,-0.1 -0.2,-0.2 -0.2,-0.3 0,-0.1 0.1,-0.2 0.4,-0.3 l 0.2,0.3 h -0.4 z m -9,-5.5 h -0.3 L 264,20.2 q 0.3,-0.9 0.6,-0.6 l 0.9,0.5 -0.6,0.3 -0.3,0.2 z m -2,-0.9 0.4,-0.5 q 0,0.1 0.6,0.3 l -0.7,0.4 -0.3,-0.3 z m -1.2,10.6 h -0.2 a 0.4,0.4 0 0 1 -0.1,-0.3 c 0.1,-0.2 0.1,-0.3 0.3,-0.4 a 1,1 0 0 1 0.7,-0.2 c 0,0.4 0,0.7 -0.1,0.8 a 1.1,1.1 0 0 1 -0.6,0.2 z m -1.3,2.3 a 0.8,0.8 0 0 1 0.1,-0.3 l 0.7,0.2 a 1.6,1.6 0 0 1 -0.1,0.4 c -0.4,-0.1 -0.7,-0.2 -0.7,-0.3 m -2.8,-14.7 c 0.4,-0.2 0.7,-0.1 0.8,0.1 l 0.6,0.7 c -0.1,0.4 -0.3,0.7 -0.6,0.7 a 0.9,0.9 0 0 1 -0.7,-0.3 2,2 0 0 1 -0.4,-0.8 0.4,0.4 0 0 1 0.2,-0.5 z m 0,19.8 a 0.8,0.8 0 0 1 -0.5,-0.5 1.4,1.4 0 0 1 0.2,-0.6 0.5,0.5 0 0 1 0.4,-0.2 h 0.5 l 0.2,0.2 v 0.2 c 0,0.1 -0.1,0.2 -0.2,0.3 l -0.5,0.7 z m -2.4,-15.4 -0.4,-0.5 0.3,-0.4 c 0.2,0.2 0.4,0.3 0.3,0.4 l -0.3,0.5 z M 245.2,6.4 c 0.1,-0.1 0.3,0 0.5,0.1 a 0.8,0.8 0 0 1 0.4,0.4 c 0.1,0.2 0,0.3 -0.1,0.5 a 1.3,1.3 0 0 1 -0.9,0.5 c -0.5,-0.7 -0.4,-1.2 0.1,-1.5 m -4,26.8 0.8,-0.8 a 0.8,0.8 0 0 0 0.4,0.4 c 0.1,0.2 0.2,0.2 0.1,0.3 -0.1,0.1 -0.3,0.5 -0.5,0.5 h -0.3 l -0.3,-0.2 -0.3,-0.4 z m -0.9,-3.4 c 0.3,-0.5 0.5,-0.8 0.6,-0.8 0.1,0 0.4,0.2 0.8,0.7 h -1.4 z m -1,2.9 a 0.8,0.8 0 0 0 -0.8,0.1 l -0.4,0.5 -0.4,0.6 A 0.6,0.6 0 0 1 237,34 c -0.1,-0.9 -0.2,-1.5 -0.2,-1.9 a 1.6,1.6 0 0 1 0,-1 c 0,-0.3 0.2,-0.5 0.5,-0.7 l 1.4,-1.1 a 2.8,2.8 0 0 1 0.9,1 5.6,5.6 0 0 1 0.4,1.2 c 0,0.4 0.1,0.8 0.1,1.2 a 5.9,5.9 0 0 0 0.2,1.3 h -1.1 v -0.3 a 6.4,6.4 0 0 0 0.2,-0.9 z M 263.9,0.1 c -0.6,3.6 -1.1,6.5 -1.5,8.6 -0.4,2.1 -0.6,3.6 -0.8,4.6 -0.2,1 -0.2,1.6 -0.2,1.8 0,0.2 0.1,0.2 0.2,0.1 l 0.5,-0.4 q 0.3,-0.2 0.6,0.3 a 1.2,1.2 0 0 1 -0.4,1.3 3.3,3.3 0 0 1 -1.2,0.5 24.3,24.3 0 0 1 -0.7,3.3 c -0.1,0.2 -0.3,-0.3 -0.5,-1.7 -0.2,-1.4 -0.4,-3.6 -0.7,-6.7 -0.3,-3.1 -0.9,-7.1 -1.7,-11.9 h -21.2 v 31.7 c 0.1,1.9 0.1,3.5 0.1,4.8 V 39 h 2.5 a 3,3 0 0 0 2.1,-0.9 1.5,1.5 0 0 1 0.8,-0.4 0.7,0.7 0 0 1 0.7,0.4 1.8,1.8 0 0 0 0.5,0.7 l 0.8,0.2 a 4.8,4.8 0 0 0 1.7,0 h 3.6 c 0.2,-0.1 0.3,-0.4 0.3,-1 a 21.1,21.1 0 0 0 0.1,-2.9 c 0,-1.3 0,-3.3 -0.1,-5.8 -0.1,-5.2 -0.1,-9.2 -0.2,-12.2 -0.1,-3 -0.2,-5 -0.2,-6.1 0,-1.1 0,-1.1 0.1,-0.3 0.1,0.8 0.4,2.5 0.7,4.9 0.3,2.4 0.8,5.7 1.3,9.6 0.5,3.9 1.4,8.5 2.3,13.7 h 11.3 c 0.5,-2.2 0.8,-4 1.1,-5.3 a 25.1,25.1 0 0 0 0.4,-3 6.8,6.8 0 0 0 0.1,-1.2 l -0.2,-0.3 h -0.2 c -0.1,-0.1 -0.1,-0.3 -0.1,-0.8 h 1.1 L 269,16.6 c 0.5,-2.6 0.9,-4.5 1.2,-5.4 0.3,-0.9 0.4,-1.2 0.4,-0.7 a 13.1,13.1 0 0 1 0,2.9 c -0.1,1.5 -0.2,3.3 -0.3,5.5 -0.1,2.2 -0.3,4.4 -0.3,6.8 0,2.4 -0.1,4.7 -0.1,7 a 37.9,37.9 0 0 0 0.4,6.2 h 14.5 v -39 l -2,-0.2 h -17.1 l -1.9,0.2 z m -52.3,33 -1.3,0.9 -0.8,0.3 a 0.6,0.6 0 0 1 -0.6,-0.1 l -0.6,-0.7 a 7.2,7.2 0 0 1 3.3,-0.4 M 200.4,8.8 h -1.9 l 0.9,-2.7 0.8,0.5 0.7,0.6 a 1.4,1.4 0 0 1 0.4,1 c 0,0.3 -0.3,0.6 -0.9,0.6 z m -3.5,5.3 c -0.3,-0.4 -0.4,-0.6 -0.4,-0.7 l 0.4,-0.4 c 0.2,0.2 0.3,0.4 0.4,0.4 z m -3.6,-1.4 v 0.2 h -0.1 z m -0.8,8.6 a 4.4,4.4 0 0 1 -0.7,1.2 c -0.2,0 -0.6,-0.2 -1.2,-0.8 l 0.4,-0.8 a 0.9,0.9 0 0 0 0.1,-0.5 0.8,0.8 0 0 0 -0.1,-0.4 3.9,3.9 0 0 1 -0.4,-0.9 0.8,0.8 0 0 1 0.9,-0.1 1.8,1.8 0 0 1 0.8,0.5 1.9,1.9 0 0 1 0.4,0.9 1.3,1.3 0 0 1 -0.1,0.9 z m -2.2,-6.9 V 14 h 0.3 l -0.2,0.3 z M 190,3.4 h -0.1 c -0.1,0 -0.1,0 0,-0.1 0.1,-0.1 0.1,-0.1 0.1,0 m 14.5,3.9 -0.6,0.2 c 0,-0.1 0,-0.2 -0.2,-0.4 l 0.5,-0.2 z m 4.2,-6 -0.7,0.6 -0.3,0.2 -0.2,-0.2 -0.4,-0.3 0.4,-0.6 h 0.6 l 0.7,0.3 z m 7.3,6 h -0.3 A 0.3,0.3 0 0 0 215.8,7 h 0.2 z m -14.4,21.6 c 0,-1.1 -0.1,-1.9 -0.1,-2.5 a 1.7,1.7 0 0 1 0.2,-1.3 c 0.1,-0.3 0.5,-0.4 1.1,-0.5 h 7.9 c 2.1,0.1 4.8,0 8.2,-0.1 V 14.3 l -1.5,-0.2 h -6.8 a 1.1,1.1 0 0 0 -0.6,0.3 l -1.1,0.5 -1.3,0.5 A 3.1,3.1 0 0 1 206,15.2 l 0.9,-0.9 a 9,9 0 0 0 -2.8,-0.2 7.4,7.4 0 0 1 -2.6,-0.2 v -3.5 h 18.1 V 0.9 c -0.1,-0.6 -0.2,-1 -0.4,-1.1 h -17.4 l -4.4,0.2 -2.1,0.3 a 6.1,6.1 0 0 0 0.7,2.1 2.1,2.1 0 0 0 0.8,0.6 l 1,0.7 A 4.7,4.7 0 0 1 199,6 2.9,2.9 0 0 1 197.6,5.7 l -1,-0.6 -0.9,-0.2 c -0.3,-0.1 -0.6,0.1 -1,0.6 a 1.4,1.4 0 0 0 0.9,1.2 l 1.2,0.6 A 0.8,0.8 0 0 1 196.7,8 l -0.5,0.2 -0.7,0.2 a 1.3,1.3 0 0 0 -0.8,0.7 0.9,0.9 0 0 1 -0.7,0.3 l -0.8,-0.2 c -0.3,0 -0.4,-0.2 -0.5,-0.4 a 1.3,1.3 0 0 1 0.1,-0.6 2.7,2.7 0 0 0 -0.2,-1.3 l -0.7,-0.8 -0.6,-0.6 c -0.2,-0.1 -0.2,-0.3 -0.1,-0.6 a 0.9,0.9 0 0 1 0.6,-0.4 l 0.8,-0.2 a 1.6,1.6 0 0 0 0.9,-0.3 2.4,2.4 0 0 0 0.8,-0.9 l -1,-0.4 -0.7,-0.4 a 1.4,1.4 0 0 1 -0.2,-0.6 2.8,2.8 0 0 1 -0.1,-1 6.3,6.3 0 0 0 -2.6,-0.7 h -2.6 c -0.1,0.3 -0.1,0.6 -0.2,0.8 -0.1,0.2 0.1,0.5 0.6,0.7 a 1.3,1.3 0 0 1 0.7,0.8 1.2,1.2 0 0 1 -0.6,0.9 1.2,1.2 0 0 0 -0.6,1.2 1,1 0 0 0 0.9,1 h 0.7 c 0.2,0 0.3,0.2 0.4,0.5 a 1.6,1.6 0 0 1 -0.4,1 2.4,2.4 0 0 1 -0.9,0.6 h -0.6 C 187,7.4 187,7.5 187,7.8 v 2 c 0,0.9 0,2.4 -0.1,4.5 a 2,2 0 0 0 0.2,0.9 0.9,0.9 0 0 0 0.3,0.6 l 0.5,0.5 0.7,0.6 -0.9,0.4 a 0.7,0.7 0 0 0 -0.6,0.4 3.5,3.5 0 0 0 -0.2,1.3 v 19.9 c -0.1,0.1 0.2,0.3 0.6,0.3 l 2.4,0.2 h 29.4 l 0.9,-5.1 A 45.1,45.1 0 0 0 221,29 H 201.6 Z M 122.5,16.1 a 6.9,6.9 0 0 1 -2.2,0.3 h -3.8 V 10 l 1.3,-0.2 h 3.5 l 1.2,0.3 a 2.4,2.4 0 0 1 1.5,1.3 2.7,2.7 0 0 1 0.5,1.8 2.6,2.6 0 0 1 -0.5,1.7 2.3,2.3 0 0 1 -1.5,1.2 z m -6.5,-8.7 0.3,-0.2 0.3,0.2 -0.2,0.4 -0.4,-0.3 z m -5,13.6 -0.3,-0.4 c -0.1,-0.1 -0.1,-0.2 -0.2,-0.4 l 0.3,-0.2 0.3,-0.2 0.3,0.2 0.4,0.4 -0.4,0.3 A 0.5,0.5 0 0 1 111,20.9 Z M 135.7,4.2 c 0.1,0.6 0.1,1 0,1.1 -0.1,0.1 -0.4,0.1 -1,-0.1 -0.6,-0.2 0.2,-0.9 1,-0.9 z m -2.1,16.4 a 14.3,14.3 0 0 0 4.1,-4 12.3,12.3 0 0 0 1.7,-4.6 10,10 0 0 0 -0.5,-4.5 9.3,9.3 0 0 0 -2.6,-3.9 12.3,12.3 0 0 0 -4.6,-2.8 17.9,17.9 0 0 0 -6.4,-1.1 h -23.4 v 39.4 h 14.5 V 28.2 a 12.2,12.2 0 0 1 0.1,-2.2 1,1 0 0 1 0.5,-0.8 1.6,1.6 0 0 1 1,-0.1 l 1.6,0.2 a 4.9,4.9 0 0 1 2.7,0.6 3.1,3.1 0 0 1 1.3,1.7 8.8,8.8 0 0 1 0.3,2.4 c 0,0.9 -0.1,1.9 -0.1,2.9 a 17.1,17.1 0 0 0 0,3.2 10.9,10.9 0 0 0 0.7,3 h 14.1 c 0,-2.6 0,-4.8 -0.1,-6.6 a 41.9,41.9 0 0 0 -0.4,-4.4 14.5,14.5 0 0 0 -0.6,-2.9 9.5,9.5 0 0 0 -1,-1.7 5.3,5.3 0 0 0 -1.3,-1.3 l -1.7,-1.4 z M 81.7,0.2 V 0 h -0.8 v 0.3 c 0,0.1 0.3,0 0.8,0 z m 1.6,6.9 h 0.9 A 2.1,2.1 0 0 1 85,7.7 C 84.5,8.1 84.2,8.3 84,8.2 A 2,2 0 0 1 83.3,7.1 Z m 0.5,6.6 h 0.4 a 4.5,4.5 0 0 1 0.1,0.8 H 83.8 Z M 85.7,6.8 H 85.4 L 84.8,7 85,6.8 85.3,6.6 h 0.3 c 0.1,0 0.1,0.1 0.1,0.3 z m -4.5,12.5 a 0.8,0.8 0 0 1 0.2,-0.5 l 0.5,-0.3 1,-0.2 a 2.3,2.3 0 0 1 -0.1,1.5 2.8,2.8 0 0 1 -1.6,0.4 v -0.9 m -0.7,-4.1 0.2,0.4 h -0.4 a 0.5,0.5 0 0 1 0.2,-0.4 m -2.1,10.2 c -0.2,0 -0.3,-0.2 -0.3,-0.5 0,-0.3 0.2,-0.5 0.6,-0.6 l 0.9,-0.3 0.8,-0.2 h 0.2 l -0.7,0.8 -0.5,0.5 -0.4,0.2 h -0.6 z m 0.3,-7.2 c 0.1,1 -0.1,1.5 -0.7,1.4 l -0.5,-0.2 c -0.2,-0.2 -0.3,-0.3 -0.3,-0.5 a 0.5,0.5 0 0 1 0.3,-0.4 1.7,1.7 0 0 1 1.2,-0.3 z m -1.8,7.4 c -0.5,0.4 -0.8,0.6 -1,0.5 h -0.6 a 1.9,1.9 0 0 1 0.4,-1 h 0.7 l 0.6,0.3 c 0.1,0.2 0.1,0.3 0,0.4 z m 9,-8 C 85.6,17.4 85.4,17.2 85.5,17 a 0.9,0.9 0 0 1 0.3,-0.5 l 0.5,-0.7 a 2.3,2.3 0 0 0 0.3,-1.3 v -2.3 a 4.3,4.3 0 0 0 0,-1.6 3.5,3.5 0 0 0 -0.3,-1.1 L 85.5,8.8 Q 86.7,7.9 86.7,7.3 C 86.7,6.8 86.6,6.5 86.3,6.4 86,6.3 85.5,5.8 85.5,5.4 A 3.7,3.7 0 0 0 85,4.3 h 0.1 c 0,-0.1 0.1,-0.1 0.1,0 l 0.4,0.3 0.8,0.8 C 86.5,4.3 86.6,3.5 86.7,2.8 A 8.6,8.6 0 0 0 86.8,1.3 1.5,1.5 0 0 0 86.4,0.5 1.3,1.3 0 0 0 85.7,0 C 85.4,-0.2 85.2,-0.1 85.1,0.1 A 2.8,2.8 0 0 0 84.6,0.9 L 84.3,2 A 1.9,1.9 0 0 1 83.8,2.9 0.9,0.9 0 0 1 83.1,3.2 3.6,3.6 0 0 1 81.9,2.3 1.2,1.2 0 0 0 81.1,1.9 0.9,0.9 0 0 0 80.4,2.2 0.8,0.8 0 0 0 80.1,2.9 1.1,1.1 0 0 0 80.3,3.7 L 81.2,5 A 0.6,0.6 0 0 1 81,5.9 L 80.4,6.2 A 0.7,0.7 0 0 1 79.8,6 L 79.3,5.6 78.6,5 A 1.6,1.6 0 0 0 77.7,4.6 H 77.2 L 76.8,4.9 A 1.1,1.1 0 0 1 76,5.1 0.9,0.9 0 0 1 75.4,4.7 0.8,0.8 0 0 1 75.2,4 l 0.3,-0.5 a 0.8,0.8 0 0 1 0.8,-0.1 h 0.8 A 1.9,1.9 0 0 0 77.6,2 1.6,1.6 0 0 0 77.2,0.8 1.5,1.5 0 0 0 76.3,0.2 1,1 0 0 0 75.4,0.3 c 0,0.3 0.1,0.5 0.1,0.7 a 6.4,6.4 0 0 0 0.2,0.7 L 74.6,1.9 74.1,1.6 a 1.5,1.5 0 0 0 -1,-0.8 L 71.9,0.3 c 0,0.3 -0.1,1.2 -0.1,2.4 0,1.2 -0.1,2.8 -0.1,4.6 v 13 c 0,2.3 0,4.6 0.1,6.8 V 33 c 0.1,1.7 0.1,3.1 0.2,4.2 a 6.7,6.7 0 0 0 0.1,1.9 h 14.5 a 15.4,15.4 0 0 0 0.1,-1.7 c 0,-1.1 0.1,-2.4 0.1,-3.9 v -4.9 c 0.1,-1.8 0,-3.5 0,-5 0,-1.5 -0.2,-2.9 -0.3,-4 C 86.4,18.5 86.3,17.9 86,17.7 Z M 7.1,3 A 1.6,1.6 0 0 1 7.1,2.3 1,1 0 0 1 7.5,1.8 0.9,0.9 0 0 1 8.4,1.6 0.5,0.5 0 0 1 8.9,1.9 V 2.4 A 1.3,1.3 0 0 1 8.4,3 0.9,0.9 0 0 1 7.7,3.3 0.6,0.6 0 0 1 7.1,3 M 43.9,0 a 3.5,3.5 0 0 1 -0.4,1.1 h -1 c -0.1,-0.6 -0.2,-1 -0.2,-1.2 0,-0.2 -0.2,-0.1 -0.3,0.2 A 16.9,16.9 0 0 0 41.7,2.2 C 41.6,3.3 41.4,4.7 41.2,6.6 41,8.5 40.7,10.8 40.4,13.7 40.1,16.6 39.8,20 39.3,24 H 39.1 A 0.6,0.6 0 0 1 39,23.6 C 38.9,23.3 38.8,22.7 38.6,21.9 38.4,21.1 38.3,19.7 38,17.9 L 36.8,11 35,-0.1 H 23.3 l -0.9,0.2 a 0.5,0.5 0 0 0 -0.3,0.5 v 0.8 c -1.3,7.8 -2.2,13.5 -2.7,17.4 -0.5,3.9 -1,5.7 -1.3,5.6 C 17.8,24.3 17.5,22.2 17.2,18.1 16.9,14 16.3,8 15.5,-0.1 H 0 l 4.5,19.6 c 1.4,6.5 2.9,13 4.4,19.6 H 24 c 0.9,-5.5 1.6,-10 2.1,-13.3 0.5,-3.3 0.9,-5.7 1.2,-7.1 0.3,-1.4 0.5,-2 0.7,-1.6 a 14.2,14.2 0 0 1 0.7,3.3 l 1.2,7.5 c 0.5,3.2 1.1,6.9 2,11.2 H 47 l 9.5,-39 A 9.9,9.9 0 0 0 54.2,-0.1 H 43.9 Z"
       transform="translate(0,0.5)"
       id="path11" />
  </g>
</svg>
