<?xml version="1.0" encoding="UTF-8" standalone="no"?>
<svg
   zoomAndPan="magnify"
   viewBox="0 0 1200 374.99998"
   preserveAspectRatio="xMidYMid"
   version="1.2"
   id="svg39"
   sodipodi:docname="2025-10-13-Eiche.svg"
   inkscape:version="1.2.2 (b0a8486541, 2022-12-01)"
   inkscape:export-batch-path="/tmp/DieEiche/logos/2025"
   inkscape:export-batch-name="DE_Logo_quer_ZIVILSCHUTZVEREIN_EF-2025"
   xmlns:inkscape="http://www.inkscape.org/namespaces/inkscape"
   xmlns:sodipodi="http://sodipodi.sourceforge.net/DTD/sodipodi-0.dtd"
   xmlns:xlink="http://www.w3.org/1999/xlink"
   xmlns="http://www.w3.org/2000/svg"
   xmlns:svg="http://www.w3.org/2000/svg">
  <sodipodi:namedview
     id="namedview39"
     pagecolor="#ffffff"
     bordercolor="#666666"
     borderopacity="1.0"
     inkscape:showpageshadow="2"
     inkscape:pageopacity="0.0"
     inkscape:pagecheckerboard="0"
     inkscape:deskcolor="#d1d1d1"
     inkscape:zoom="0.56485678"
     inkscape:cx="662.11474"
     inkscape:cy="555.00794"
     inkscape:window-width="1920"
     inkscape:window-height="1008"
     inkscape:window-x="0"
     inkscape:window-y="0"
     inkscape:window-maximized="1"
     inkscape:current-layer="layer1"
     showgrid="false" />
  <defs
     id="defs3">
    <color-profile
       name="Coated-FOGRA39-ISO-12647-2:2004"
       xlink:href="file:///usr/share/color/icc/CoatedFOGRA39.icc"
       id="color-profile257" />
    <linearGradient
       id="linearGradient39"
       inkscape:collect="always">
      <stop
         style="stop-color:#000603;stop-opacity:1;"
         offset="0"
         id="stop39" />
      <stop
         style="stop-color:#006937;stop-opacity:1;"
         offset="0.33000001"
         id="stop40" />
    </linearGradient>
    <rect
       x="663.47186"
       y="1372.0098"
       width="1179.2274"
       height="157.73105"
       id="rect39" />
    <clipPath
       id="01449b262b">
      <path
         d="M 0,1038.8516 H 1507.8438 V 1536 H 0 Z m 0,0"
         id="path1" />
    </clipPath>
    <clipPath
       id="8af76c30df">
      <path
         d="M 0,0.851562 H 1507.8438 V 498 H 0 Z m 0,0"
         id="path2" />
    </clipPath>
    <clipPath
       id="15efc3b184">
      <rect
         x="0"
         width="1508"
         y="0"
         height="498"
         id="rect2" />
    </clipPath>
    <clipPath
       id="7a5f1eecbf">
      <path
         d="M 0.28125,1 H 948 V 69 H 0.28125 Z m 0,0"
         id="path3" />
    </clipPath>
    <clipPath
       id="a984eb1e8b">
      <rect
         x="0"
         width="949"
         y="0"
         height="70"
         id="rect3" />
    </clipPath>
    <linearGradient
       inkscape:collect="always"
       xlink:href="#linearGradient39"
       id="linearGradient40"
       x1="1255.3749"
       y1="1472.0708"
       x2="1255.3749"
       y2="1388.713"
       gradientUnits="userSpaceOnUse" />
  </defs>
  <g
     inkscape:groupmode="layer"
     id="layer1"
     inkscape:label="Ebene1">
    <g
       aria-label="ZIVILSCHUTZVEREIN"
       transform="matrix(0.9013277,0,0,0.86014228,-439.73584,-910.34795)"
       id="text39"
       style="font-weight:bold;font-size:106.667px;line-height:1.25;font-family:Arial;-inkscape-font-specification:'Arial, Bold';text-align:center;letter-spacing:0px;word-spacing:0px;white-space:pre;shape-inside:url(#rect39);fill:url(#linearGradient40)">
      <path
         d="m 798.57768,1469.0634 h -52.80016 v -7.2533 l 40.10679,-60.3736 h -38.82679 v -8.5333 h 50.45349 v 7.2533 l -40.10679,60.3736 h 41.17346 z"
         style="font-weight:500;font-family:'Helvetica Neue';-inkscape-font-specification:'Helvetica Neue Medium'"
         id="path221" />
      <path
         d="m 834.52451,1469.0634 h -27.52008 v -5.5467 l 8.96003,-2.0266 v -60.9069 l -8.96003,-2.1333 v -5.5467 h 27.52008 v 5.5467 l -8.96002,2.1333 v 60.9069 l 8.96002,2.0266 z"
         style="font-weight:500;font-family:'Helvetica Neue';-inkscape-font-specification:'Helvetica Neue Medium'"
         id="path223" />
      <path
         d="m 902.89814,1392.9032 -27.20009,76.1602 h -9.60003 l -27.20008,-76.1602 h 10.0267 l 17.17338,48.8535 q 1.70668,4.6933 2.88001,8.8533 1.17334,4.0534 1.92001,7.7867 0.74667,-3.7333 1.92,-7.8933 1.17334,-4.16 2.88001,-8.9601 l 17.06672,-48.6401 z"
         style="font-weight:500;font-family:'Helvetica Neue';-inkscape-font-specification:'Helvetica Neue Medium'"
         id="path225" />
      <path
         d="m 934.68495,1469.0634 h -27.52009 v -5.5467 l 8.96003,-2.0266 v -60.9069 l -8.96003,-2.1333 v -5.5467 h 27.52009 v 5.5467 l -8.96003,2.1333 v 60.9069 l 8.96003,2.0266 z"
         style="font-weight:500;font-family:'Helvetica Neue';-inkscape-font-specification:'Helvetica Neue Medium'"
         id="path227" />
      <path
         d="m 949.40507,1469.0634 v -76.1602 h 9.60003 v 67.6269 h 33.2801 v 8.5333 z"
         style="font-weight:500;font-family:'Helvetica Neue';-inkscape-font-specification:'Helvetica Neue Medium'"
         id="path229" />
      <path
         d="m 1048.4987,1448.69 q 0,10.1334 -7.36,15.7867 -7.36,5.6534 -19.8401,5.6534 -6.4,0 -11.84,-0.96 -5.44,-0.96 -9.0667,-2.6667 v -9.1733 q 3.84,1.7066 9.4934,3.0933 5.76,1.3867 11.84,1.3867 8.5334,0 12.8001,-3.3067 4.3733,-3.3067 4.3733,-8.96 0,-3.7334 -1.6,-6.2934 -1.6,-2.56 -5.5467,-4.6933 -3.84,-2.24 -10.7734,-4.6934 -9.7067,-3.52 -14.72,-8.64 -4.9067,-5.12 -4.9067,-13.9734 0,-6.08 3.0934,-10.3467 3.0933,-4.3733 8.5333,-6.72 5.5467,-2.3467 12.6934,-2.3467 6.2933,0 11.52,1.1734 5.2267,1.1733 9.4934,3.0933 l -2.9867,8.2134 q -3.9467,-1.7067 -8.64,-2.8801 -4.5867,-1.1733 -9.6,-1.1733 -7.1467,0 -10.7734,3.0933 -3.6267,2.9867 -3.6267,8.0001 0,3.84 1.6,6.4 1.6,2.56 5.2267,4.5867 3.6267,2.0266 9.8134,4.3733 6.72,2.4534 11.3067,5.3334 4.6933,2.7733 7.04,6.72 2.4533,3.9467 2.4533,9.92 z"
         style="font-weight:500;font-family:'Helvetica Neue';-inkscape-font-specification:'Helvetica Neue Medium'"
         id="path231" />
      <path
         d="m 1096.4988,1400.2632 q -12.2667,0 -19.3067,8.2134 -7.04,8.2133 -7.04,22.5067 0,14.1867 6.5067,22.5067 6.6133,8.2134 19.7334,8.2134 5.0133,0 9.4933,-0.8533 4.4801,-0.8534 8.7467,-2.1334 v 8.32 q -4.2666,1.6001 -8.8533,2.3467 -4.48,0.7467 -10.7734,0.7467 -11.6267,0 -19.4134,-4.8 -7.7867,-4.8 -11.7334,-13.6534 -3.84,-8.8534 -3.84,-20.8001 0,-11.52 4.16,-20.2667 4.2667,-8.8534 12.4801,-13.76 8.2133,-5.0134 19.9467,-5.0134 12.0534,0 21.0134,4.48 l -3.84,8.1067 q -3.52,-1.6 -7.8934,-2.88 -4.2666,-1.28 -9.3867,-1.28 z"
         style="font-weight:500;font-family:'Helvetica Neue';-inkscape-font-specification:'Helvetica Neue Medium'"
         id="path233" />
      <path
         d="m 1189.5125,1469.0634 h -9.6001 v -35.5201 h -39.0401 v 35.5201 h -9.6 v -76.1602 h 9.6 v 32.2134 h 39.0401 v -32.2134 h 9.6001 z"
         style="font-weight:500;font-family:'Helvetica Neue';-inkscape-font-specification:'Helvetica Neue Medium'"
         id="path235" />
      <path
         d="m 1268.2326,1442.1833 q 0,7.8934 -3.2,14.2934 -3.2,6.2934 -9.8133,10.0267 -6.5067,3.6267 -16.6401,3.6267 -14.1867,0 -21.6534,-7.68 -7.36,-7.7867 -7.36,-20.4801 v -49.0668 h 9.6 v 49.3868 q 0,9.28 4.9067,14.4 5.0133,5.1201 15.04,5.1201 10.3467,0 14.9334,-5.4401 4.6934,-5.5466 4.6934,-14.1867 v -49.2801 h 9.4933 z"
         style="font-weight:500;font-family:'Helvetica Neue';-inkscape-font-specification:'Helvetica Neue Medium'"
         id="path237" />
      <path
         d="m 1312.3929,1469.0634 h -9.6 v -67.7335 h -23.7868 v -8.4267 h 57.0669 v 8.4267 h -23.6801 z"
         style="font-weight:500;font-family:'Helvetica Neue';-inkscape-font-specification:'Helvetica Neue Medium'"
         id="path239" />
      <path
         d="m 1394.0998,1469.0634 h -52.8002 v -7.2533 l 40.1068,-60.3736 h -38.8268 v -8.5333 h 50.4535 v 7.2533 l -40.1068,60.3736 h 41.1735 z"
         style="font-weight:500;font-family:'Helvetica Neue';-inkscape-font-specification:'Helvetica Neue Medium'"
         id="path241" />
      <path
         d="m 1462.26,1392.9032 -27.2001,76.1602 h -9.6 l -27.2001,-76.1602 h 10.0267 l 17.1734,48.8535 q 1.7067,4.6933 2.88,8.8533 1.1733,4.0534 1.92,7.7867 0.7467,-3.7333 1.92,-7.8933 1.1734,-4.16 2.88,-8.9601 l 17.0668,-48.6401 z"
         style="font-weight:500;font-family:'Helvetica Neue';-inkscape-font-specification:'Helvetica Neue Medium'"
         id="path243" />
      <path
         d="m 1515.1669,1469.0634 h -42.5601 v -76.1602 h 42.5601 v 8.4267 h -32.9601 v 23.7867 h 31.0401 v 8.32 h -31.0401 v 27.2001 h 32.9601 z"
         style="font-weight:500;font-family:'Helvetica Neue';-inkscape-font-specification:'Helvetica Neue Medium'"
         id="path245" />
      <path
         d="m 1552.927,1392.9032 q 14.1867,0 20.9067,5.44 6.8267,5.3334 6.8267,16.2134 0,6.08 -2.24,10.1333 -2.24,4.0534 -5.76,6.5067 -3.4134,2.3467 -7.2534,3.7334 l 20.9068,34.1334 h -11.2001 l -18.4534,-31.4667 h -15.1467 v 31.4667 h -9.6 v -76.1602 z m -0.5334,8.32 h -10.88 v 28.2668 h 11.4134 q 9.28,0 13.5467,-3.6267 4.2667,-3.7334 4.2667,-10.88 0,-7.4667 -4.48,-10.5601 -4.4801,-3.2 -13.8668,-3.2 z"
         style="font-weight:500;font-family:'Helvetica Neue';-inkscape-font-specification:'Helvetica Neue Medium'"
         id="path247" />
      <path
         d="m 1640.8206,1469.0634 h -42.5602 v -76.1602 h 42.5602 v 8.4267 h -32.9601 v 23.7867 h 31.0401 v 8.32 h -31.0401 v 27.2001 h 32.9601 z"
         style="font-weight:500;font-family:'Helvetica Neue';-inkscape-font-specification:'Helvetica Neue Medium'"
         id="path249" />
      <path
         d="m 1679.0073,1469.0634 h -27.52 v -5.5467 l 8.96,-2.0266 v -60.9069 l -8.96,-2.1333 v -5.5467 h 27.52 v 5.5467 l -8.96,2.1333 v 60.9069 l 8.96,2.0266 z"
         style="font-weight:500;font-family:'Helvetica Neue';-inkscape-font-specification:'Helvetica Neue Medium'"
         id="path251" />
      <path
         d="m 1754.101,1469.0634 h -11.2 l -40.7468,-63.2535 h -0.4267 q 0.2133,3.7333 0.5333,9.28 0.32,5.5467 0.32,11.4134 v 42.5601 h -8.8533 v -76.1602 h 11.0934 l 40.6401,63.0402 h 0.4267 q -0.1067,-1.7067 -0.3201,-5.12 -0.1066,-3.4134 -0.32,-7.4667 -0.1066,-4.0534 -0.1066,-7.4667 v -42.9868 h 8.96 z"
         style="font-weight:500;font-family:'Helvetica Neue';-inkscape-font-specification:'Helvetica Neue Medium'"
         id="path253" />
    </g>
    <path
       style="fill:#006937;fill-opacity:1;fill-rule:nonzero;stroke:none"
       d="m 145.62813,179.7236 c -0.79297,-1.25781 -2.22656,-3.11328 -3.04297,-4.37109 -1.92188,-2.95703 -3.99609,-5.82422 -6.28906,-8.49219 -1.85157,-2.16406 -3.85938,-4.19531 -6.06641,-6.02734 -4.45703,-3.72657 -9.53125,-6.19922 -15.22266,-7.32422 -2.51562,-0.50781 -5.02734,-0.97266 -7.52343,-1.58985 -9.464847,-2.33984 -17.226567,-7.4375 -22.832027,-15.35937 -0.375,-0.52734 -1.71875,-2.55859 -1.71875,-2.55859 0.59375,0.41796 2.20312,1.98437 2.91015,2.64843 4.25781,4.01563 8.98047,7.32422 14.382807,9.66407 2.89063,1.23437 5.89063,2.09765 8.98047,2.71484 2.53516,0.50781 5.11719,0.90625 7.65625,1.47656 5.91016,1.30469 11.02735,4.10547 15.46485,8.23438 3.99218,3.70703 7.10156,8.07422 9.66015,12.83984 1.25782,2.36328 2.42578,4.76953 3.35547,7.28516 z m 0,0"
       id="path12" />
    <path
       style="fill:#006937;fill-opacity:1;fill-rule:nonzero;stroke:none"
       d="m 145.62813,108.33688 c 0,0 -1.58985,-1.83203 -1.58985,-1.83203 -1.36718,-1.60937 -2.66796,-3 -4.07812,-4.34765 -1.67969,-1.60938 -3.53125,-2.957037 -5.71484,-3.863287 -1.32422,-0.55078 -2.73438,-0.83593 -4.125,-1.10156 -1.14844,-0.24219 -2.31641,-0.48437 -3.42188,-0.85937 -4.19141,-1.45703 -7.36719,-4.0625 -9.52734,-7.90235 -0.13282,-0.21875 -0.44141,-0.85937 -0.44141,-0.85937 l 1.23438,0.85937 c 2.3164,1.85547 4.83203,3.39844 7.65625,4.3711 1.71875,0.59375 3.52734,0.88281 5.3164,1.1914 1.65235,0.26563 3.28516,0.64063 4.8086,1.36719 2.27343,1.05859 4.14843,2.60547 5.71484,4.52344 0.41797,0.507807 0.79297,1.039057 1.14453,1.566397 0.35547,0.53125 0.68359,1.10547 0.99219,1.67969 0.3125,0.57422 0.59765,1.14453 0.83984,1.74219 0.28906,0.64062 0.53125,1.32422 0.75,1.98437 0.17578,0.50782 0.33203,0.9961 0.44141,1.48047 z m 0,0"
       id="path13" />
    <path
       style="fill:#006937;fill-opacity:1;fill-rule:nonzero;stroke:none"
       d="m 104.35078,193.58298 c -9.593747,1.1914 -16.941397,-3.92969 -24.992177,-6.33594 -5.14063,-1.54297 -10.98828,-2.82422 -15.00391,2.25391 -4.16797,5.27343 -1.23437,10.52343 2.07422,14.76171 7.94141,10.21875 16.45703,19.96875 24.55469,30.07813 3.66015,4.56641 7.80859,8.98047 8.51562,15.20312 -17.67187,14.14454 -17.44922,16.24219 3.398437,31.60157 34.45703,25.375 37.98828,33.01172 34.89844,77.36718 -26.5625,-18.51562 -52.902347,-35.85937 -78.074217,-54.75 -22.4336,-16.85937 -33.17969,-40.02734 -33.00391,-68.64843 0.44141,-68.62891 0.13281,-137.281247 0.13281,-207.058597 36.20313,0 72.09766,0 108.917967,0 -10.0625,12.71094 -0.375,27.53907 -4.89843,40.29297 -6.50782,3.35547 -10.89844,-1.36719 -15.83985,-2.84375 -4.78906,-1.43359 -9.19922,-3.24609 -13.58984,0.75 -4.832027,4.39063 -4.257807,9.70703 -2.273437,14.8711 3.089837,8.03515 6.617187,15.89062 10.191407,23.722647 2.6914,5.9375 3.42187,11.9375 -2.02735,16.17578 -5.95703,4.63282 -10.789057,0.28907 -15.730467,-3.39843 -6.39843,-4.78907 -11.55859,-16.01954 -21.22265,-9.6211 -10.17188,6.73047 -6.90625,18.02735 -4.10156,28.09375 3.76953,13.52735 10.60937,24.25 24,30.60547 10.722647,5.05469 18.445307,12.80078 14.074207,26.87891 z m 0,0"
       id="path14" />
    <path
       style="fill:#006937;fill-opacity:1;fill-rule:nonzero;stroke:none"
       d="m 199.96407,232.1572 c -4.14844,5.40625 -10.01563,10.10546 -9.79297,19.24218 16.10156,9.64063 17.89062,15.53516 2.82422,23.83203 -33.97657,18.71094 -47.03516,46.1875 -43.10938,83.28125 h -4.23437 v -68.67187 l 1.58593,-1.83203 c 1.36719,-1.61328 2.67188,-3.00391 4.08203,-4.34766 1.67579,-1.61328 3.53125,-2.95703 5.71485,-3.86328 1.32422,-0.55078 2.73437,-0.81641 4.125,-1.10156 1.14844,-0.24219 2.3164,-0.48828 3.41797,-0.86328 4.1914,-1.45313 7.37109,-4.0586 9.53125,-7.89844 0.13281,-0.21875 0.4414,-0.85938 0.4414,-0.85938 l -1.23437,0.85938 c -2.31641,1.85547 -4.83203,3.39844 -7.65625,4.39062 -1.71875,0.59766 -3.53125,0.88282 -5.31641,1.19141 -1.65625,0.26563 -3.28515,0.66406 -4.80859,1.36719 -2.27344,1.0625 -4.14844,2.60547 -5.71485,4.52734 -0.39843,0.50781 -0.79296,1.03516 -1.14843,1.56641 -0.35157,0.52734 -0.6836,1.10156 -0.99219,1.67578 -0.30859,0.57422 -0.59375,1.14844 -0.83594,1.74219 -0.28906,0.64062 -0.53125,1.32422 -0.75,1.98828 -0.15625,0.48437 -0.33203,0.96875 -0.4414,1.45703 v -16.48438 c 3.08593,0 5.58203,-2.49609 5.58203,-5.58593 0,-3.08985 -2.4961,-5.58203 -5.58203,-5.58203 v -13.04297 c 0.79296,-1.25782 2.22656,-3.10938 3.04296,-4.36719 1.91797,-2.95703 3.99219,-5.82813 6.28907,-8.49609 1.85156,-2.16407 3.85937,-4.19141 6.0664,-6.02344 4.45703,-3.73047 9.53125,-6.20313 15.22266,-7.32813 2.51172,-0.50781 5.02734,-0.96875 7.51953,-1.58984 9.46484,-2.33594 17.23047,-7.43359 22.83594,-15.35547 0.375,-0.53125 1.71875,-2.5625 1.71875,-2.5625 -0.59375,0.42188 -2.20703,1.98828 -2.91016,2.64844 -4.25781,4.01562 -8.98047,7.32812 -14.38281,9.66797 -2.89063,1.23437 -5.89063,2.09375 -8.98047,2.71093 -2.53906,0.50782 -5.11719,0.90625 -7.65625,1.48047 -5.91016,1.30078 -11.03125,4.10547 -15.46484,8.23047 -3.99219,3.70703 -7.10157,8.07813 -9.66016,12.84375 -1.25781,2.35938 -2.42969,4.76563 -3.37891,7.28125 l -0.30859,0.90625 v -36.83203 c 4.45703,0 8.07422,-3.61719 8.07422,-8.07422 0,-4.46094 -3.61719,-8.07812 -8.07422,-8.07812 v -16.39453 c 0.79688,-1.25782 2.23047,-3.11329 3.04688,-4.3711 1.91796,-2.95703 3.99218,-5.82422 6.28515,-8.49609 1.85547,-2.16016 3.86328,-4.19141 6.06641,-6.02344 4.45703,-3.73047 9.53125,-6.20312 15.22265,-7.32812 2.51563,-0.50782 5.03125,-0.96875 7.52344,-1.58594 9.46485,-2.33985 17.23047,-7.4375 22.83203,-15.35938 0.375,-0.53125 1.72266,-2.5625 1.72266,-2.5625 -0.59766,0.42188 -2.20703,1.98828 -2.91406,2.64844 -4.25782,4.01953 -8.97657,7.32813 -14.38282,9.66797 -2.89062,1.23437 -5.89062,2.09375 -8.97656,2.71484 -2.53906,0.50782 -5.12109,0.90235 -7.65625,1.47657 -5.91406,1.30078 -11.03125,4.10546 -15.46484,8.23046 -3.99219,3.70704 -7.10547,8.07813 -9.66406,12.84375 -1.25782,2.36329 -2.42579,4.76563 -3.375,7.28125 l -0.3086,0.90625 v -23.72265 c 4.45703,0 8.07422,-3.61719 8.07422,-8.07813 0,-4.45703 -3.61719,-8.07422 -8.07422,-8.07422 v -31.49218 l 1.58985,-1.82813 c 1.36718,-1.61328 2.66796,-3.0039 4.08203,-4.34765 1.67578,-1.61329 3.52734,-2.957037 5.71093,-3.863287 1.32422,-0.55078 2.73829,-0.8164 4.125,-1.10156 1.14844,-0.24609 2.31641,-0.48828 3.42188,-0.86328 4.19141,-1.45703 7.36719,-4.08203 9.53125,-7.89844 0.12891,-0.19922 0.4375,-0.85937 0.4375,-0.85937 l -1.23438,0.85937 c -2.3164,1.85157 -4.83203,3.39844 -7.65625,4.39063 -1.71875,0.59765 -3.52734,0.90625 -5.3164,1.1914 -1.65235,0.26563 -3.28516,0.66407 -4.8086,1.36719 -2.26953,1.0586 -4.14843,2.60547 -5.71484,4.523437 -0.39453,0.50781 -0.79297,1.03906 -1.14453,1.56641 -0.35547,0.55468 -0.68359,1.10546 -0.99219,1.67968 -0.30859,0.57422 -0.59765,1.14844 -0.83984,1.74219 -0.28516,0.64063 -0.52735,1.32422 -0.75,1.98828 -0.15235,0.48438 -0.33203,0.96875 -0.44141,1.45313 V 89.801733 c 3.08985,0 5.58203,-2.4961 5.58203,-5.58594 0,-3.08984 -2.49218,-5.58203 -5.58203,-5.58203 v -52.30078 c 3.17578,1.41406 7.8086,3.3789 10.4336,7.92187 5.89062,10.15235 -3.13282,24.38672 2.5625,33.94141 6.30859,4.08203 11.26953,-1.25781 16.71875,-2.5586 12.22265,-2.9375 17.87109,1.65235 14.76171,13.96875 -2.09765,8.23047 -6.3125,15.95313 -9.79687,23.808597 -3.04297,6.88672 -4.76563,13.46094 2.95703,18.44922 6.85938,4.43359 10.94141,-0.99219 15.26563,-4.7461 6,-5.20703 11.93359,-14.03515 20.47265,-8.53906 8.86719,5.69141 6.64063,15.97656 4.25781,25.15625 -3.77343,14.58594 -10.32421,26.65625 -24.99609,33.41016 -11.11719,5.12109 -18.10937,13.32812 -13.25781,27.03125 9.88281,2.00781 16.85547,-4.52344 24.99609,-6.50782 5.49219,-1.34765 11.03125,-2.9375 14.84766,2.22657 3.83594,5.21093 0.96875,10.48437 -2.44922,14.80859 -7.25781,9.15625 -15.15625,18.05078 -22.37109,27.45313 z m 0,0"
       id="path15" />
    <path
       style="fill:#006937;fill-opacity:1;fill-rule:nonzero;stroke:none"
       d="m 145.62813,196.11813 v 16.17578 c -4.45703,0 -8.07422,-3.61718 -8.07422,-8.07421 0,-4.48047 3.61719,-8.10157 8.07422,-8.10157 z m 0,0"
       id="path16" />
    <path
       style="fill:#006937;fill-opacity:1;fill-rule:nonzero;stroke:none"
       d="m 145.62813,139.8486 v 16.17578 c -4.45703,0 -8.07422,-3.62109 -8.07422,-8.07812 0,-4.48047 3.61719,-8.09766 8.07422,-8.09766 z m 0,0"
       id="path17" />
    <path
       style="fill:#006937;fill-opacity:1;fill-rule:nonzero;stroke:none"
       d="m 145.62813,78.457983 v 11.1875 c -3.08985,0 -5.60156,-2.49219 -5.60156,-5.58203 0,-3.08985 2.51171,-5.60547 5.60156,-5.60547 z m 0,0"
       id="path18" />
    <path
       style="fill:#006937;fill-opacity:1;fill-rule:nonzero;stroke:none"
       d="m 145.62813,262.14548 v 11.1875 c -3.08985,0 -5.58203,-2.49219 -5.58203,-5.58203 0,-3.08985 2.49218,-5.60547 5.58203,-5.60547 z m 0,0"
       id="path19" />
    <path
       style="fill:#006937;fill-opacity:1;fill-rule:nonzero;stroke:none"
       d="m 145.62813,289.81735 c 0,0 -1.58985,-1.83203 -1.58985,-1.83203 -1.36718,-1.60937 -2.66796,-3 -4.07812,-4.34766 -1.67969,-1.60937 -3.53125,-2.95703 -5.71484,-3.85937 -1.32422,-0.55469 -2.73438,-0.83984 -4.125,-1.10547 -1.14844,-0.24219 -2.31641,-0.48437 -3.42188,-0.85937 -4.19141,-1.45704 -7.36719,-4.0625 -9.52734,-7.90235 -0.13282,-0.21875 -0.44141,-0.85937 -0.44141,-0.85937 l 1.23438,0.85937 c 2.3164,1.85547 4.83203,3.39844 7.65625,4.3711 1.71875,0.59375 3.52734,0.88281 5.3164,1.1914 1.65235,0.26563 3.28516,0.66016 4.8086,1.36719 2.27343,1.05859 4.14843,2.60547 5.71484,4.52344 0.41797,0.50781 0.79297,1.03906 1.14453,1.5664 0.35547,0.53125 0.68359,1.10547 0.99219,1.67969 0.3125,0.57422 0.59765,1.14453 0.83984,1.74219 0.28906,0.64062 0.53125,1.32422 0.75,1.98437 0.17578,0.50782 0.33203,0.9961 0.44141,1.48047 z m 0,0"
       id="path20" />
    <path
       style="fill:#006937;fill-opacity:1;fill-rule:nonzero;stroke:none"
       d="m 145.62813,249.10251 c -0.79297,-1.25781 -2.22656,-3.10938 -3.04297,-4.36719 -1.92188,-2.95703 -3.99609,-5.82812 -6.28906,-8.49609 -1.85157,-2.16407 -3.85938,-4.19532 -6.06641,-6.02735 -4.45703,-3.72656 -9.53125,-6.19922 -15.22266,-7.32422 -2.51562,-0.50781 -5.02734,-0.97265 -7.52343,-1.58984 -9.464847,-2.33984 -17.226567,-7.4375 -22.832027,-15.35937 -0.375,-0.52735 -1.71875,-2.5586 -1.71875,-2.5586 0.59375,0.41797 2.20312,1.98438 2.91015,2.64844 4.25781,4.01562 8.98047,7.32422 14.382807,9.66406 2.89063,1.23828 5.89063,2.09766 8.98047,2.71485 2.53516,0.50781 5.11719,0.90625 7.65625,1.48046 5.91016,1.30079 11.02735,4.10157 15.46485,8.23047 3.99218,3.70703 7.10156,8.07422 9.66015,12.84375 1.25782,2.35938 2.42578,4.76563 3.35547,7.28125 z m 0,0"
       id="path21" />
    <g
       style="fill:#006937;fill-opacity:1"
       id="g23"
       transform="translate(-318.66484,-573.59671)">
      <g
         transform="translate(601.43431,789.03402)"
         id="g22"
         style="fill:#006937;fill-opacity:1">
        <path
           style="stroke:none;fill:#006937;fill-opacity:1"
           d="m 56.359375,-118.71875 c 12.007813,0 22.332031,2.15625 30.96875,6.46875 8.632813,4.30469 15.289065,10.86719 19.968755,19.6875 4.6875,8.824219 7.03125,19.890625 7.03125,33.203125 0,13.324219 -2.34375,24.398437 -7.03125,33.21875 -4.67969,8.824219 -11.335942,15.386719 -19.968755,19.6875 C 78.691406,-2.148438 68.367188,0 56.359375,0 H 17.9375 V -118.71875 Z M 54.96875,-11.859375 c 9.90625,0 18.101562,-1.539063 24.59375,-4.625 6.5,-3.082031 11.425781,-8.113281 14.78125,-15.09375 3.363281,-6.988281 5.046875,-16.25 5.046875,-27.78125 0,-11.582031 -1.683594,-20.851563 -5.046875,-27.8125 -3.355469,-6.957031 -8.28125,-11.976563 -14.78125,-15.062505 -6.492188,-3.08203 -14.6875,-4.625 -24.59375,-4.625 h -23.0625 v 95.000005 z m 0,0"
           id="path22" />
      </g>
    </g>
    <g
       style="fill:#006937;fill-opacity:1"
       id="g25"
       transform="translate(-318.66484,-573.59671)">
      <g
         transform="translate(727.61262,789.03402)"
         id="g24"
         style="fill:#006937;fill-opacity:1">
        <path
           style="stroke:none;fill:#006937;fill-opacity:1"
           d="M 31.90625,0 H 17.9375 v -118.71875 h 13.96875 z m 0,0"
           id="path23" />
      </g>
    </g>
    <g
       style="fill:#006937;fill-opacity:1"
       id="g27"
       transform="translate(-318.66484,-573.59671)">
      <g
         transform="translate(777.54805,789.03402)"
         id="g26"
         style="fill:#006937;fill-opacity:1">
        <path
           style="stroke:none;fill:#006937;fill-opacity:1"
           d="m 31.90625,-55.953125 v 44.421875 h 60.5 V 0 H 17.9375 v -118.71875 h 73.171875 v 11.53125 H 31.90625 v 39.703125 H 84.125 v 11.53125 z m 0,0"
           id="path25" />
      </g>
    </g>
    <g
       style="fill:#04693b;fill-opacity:1"
       id="g29"
       transform="translate(-318.66484,-573.59671)">
      <g
         transform="translate(877.82489,789.03402)"
         id="g28">
        <path
           style="stroke:none;fill:#006937;fill-opacity:1"
           d=""
           id="path27" />
      </g>
    </g>
    <g
       style="fill:#006937;fill-opacity:1"
       id="g31"
       transform="translate(-318.66484,-573.59671)">
      <g
         transform="translate(918.5852,789.03402)"
         id="g30"
         style="fill:#006937;fill-opacity:1">
        <path
           style="stroke:none;fill:#006937;fill-opacity:1"
           d="m 31.90625,-55.953125 v 44.421875 h 60.5 V 0 H 17.9375 v -118.71875 h 73.171875 v 11.53125 H 31.90625 v 39.703125 H 84.125 v 11.53125 z m 0,0"
           id="path29" />
      </g>
    </g>
    <g
       style="fill:#006635;fill-opacity:1"
       id="g33"
       transform="translate(-318.66484,-573.59671)">
      <g
         transform="translate(1018.8621,789.03402)"
         id="g32"
         style="fill:#006635;fill-opacity:1">
        <path
           style="stroke:none;fill:#006635;fill-opacity:1"
           d="M 31.90625,0 H 17.9375 v -118.71875 h 13.96875 z m 0,0"
           id="path31" />
      </g>
    </g>
    <g
       style="fill:#006937;fill-opacity:1"
       id="g35"
       transform="translate(-318.66484,-573.59671)">
      <g
         transform="translate(1068.7975,789.03402)"
         id="g34"
         style="fill:#006937;fill-opacity:1">
        <path
           style="stroke:none;fill:#006937;fill-opacity:1"
           d="m 65.609375,1.703125 c -10.398437,0 -19.65625,-2.378906 -27.78125,-7.140625 C 29.710938,-10.207031 23.351562,-17.175781 18.75,-26.34375 c -4.59375,-9.175781 -6.890625,-20.179688 -6.890625,-33.015625 0,-12.820313 2.296875,-23.820313 6.890625,-33 4.601562,-9.175785 10.960938,-16.144535 19.078125,-20.906255 8.125,-4.76953 17.382813,-7.15625 27.78125,-7.15625 11.09375,0 20.320313,2.10157 27.6875,6.29688 7.363285,4.19922 12.671875,10.51562 15.921875,18.953125 l -8.9375,5.9375 H 98.25 C 95,-96.003906 90.773438,-100.8125 85.578125,-103.65625 c -5.1875,-2.84375 -11.84375,-4.26563 -19.96875,-4.26563 -7.46875,0 -14.101563,1.66797 -19.890625,5 -5.792969,3.335942 -10.398438,8.617192 -13.8125,15.843755 -3.40625,7.21875 -5.109375,16.460937 -5.109375,27.71875 0,11.261719 1.703125,20.492187 5.109375,27.6875 3.414062,7.199219 8.019531,12.464844 13.8125,15.796875 5.789062,3.335938 12.421875,5 19.890625,5 8.601563,0 15.640625,-1.9375 21.109375,-5.8125 5.46875,-3.875 9.53125,-10.140625 12.1875,-18.796875 h 2.03125 l 9.32813,4.625 c -2.8125,10.5 -8.02344,18.554687 -15.625005,24.15625 -7.605469,5.605469 -17.28125,8.40625 -29.03125,8.40625 z m 0,0"
           id="path33" />
      </g>
    </g>
    <g
       style="fill:#006937;fill-opacity:1"
       id="g37"
       transform="translate(-318.66484,-573.59671)">
      <g
         transform="translate(1185.2323,789.03402)"
         id="g36"
         style="fill:#006937;fill-opacity:1">
        <path
           style="stroke:none;fill:#006937;fill-opacity:1"
           d="m 93.625,-70.5625 v -48.15625 h 13.89063 V 0 H 93.625 V -58.703125 H 31.90625 V 0 H 17.9375 v -118.71875 h 13.96875 v 48.15625 z m 0,0"
           id="path35" />
      </g>
    </g>
    <g
       style="fill:#006937;fill-opacity:1"
       id="g39"
       transform="translate(-318.66484,-573.59671)">
      <g
         transform="translate(1310.761,789.03402)"
         id="g38"
         style="fill:#006937;fill-opacity:1">
        <path
           style="stroke:none;fill:#006937;fill-opacity:1"
           d="m 31.90625,-55.953125 v 44.421875 h 60.5 V 0 H 17.9375 v -118.71875 h 73.171875 v 11.53125 H 31.90625 v 39.703125 H 84.125 v 11.53125 z m 0,0"
           id="path37" />
      </g>
    </g>
  </g>
</svg>
