<?xml version="1.0" encoding="UTF-8" standalone="no"?>
<!-- Created with Inkscape (http://www.inkscape.org/) -->

<svg
   viewBox="0 0 79.374998 26.458333"
   version="1.1"
   id="svg5"
   inkscape:version="1.2.2 (b0a8486541, 2022-12-01)"
   sodipodi:docname="2025-10-12-demokratie-grundrechte-logo.svg"
   xmlns:inkscape="http://www.inkscape.org/namespaces/inkscape"
   xmlns:sodipodi="http://sodipodi.sourceforge.net/DTD/sodipodi-0.dtd"
   xmlns="http://www.w3.org/2000/svg"
   xmlns:svg="http://www.w3.org/2000/svg">
  <sodipodi:namedview
     id="namedview7"
     pagecolor="#ffffff"
     bordercolor="#000000"
     borderopacity="0.25"
     inkscape:showpageshadow="2"
     inkscape:pageopacity="0.0"
     inkscape:pagecheckerboard="0"
     inkscape:deskcolor="#d1d1d1"
     inkscape:document-units="mm"
     showgrid="false"
     inkscape:zoom="12.414927"
     inkscape:cx="45.268087"
     inkscape:cy="22.674318"
     inkscape:window-width="1920"
     inkscape:window-height="1052"
     inkscape:window-x="0"
     inkscape:window-y="0"
     inkscape:window-maximized="1"
     inkscape:current-layer="layer1" />
  <defs
     id="defs2">
    <rect
       x="51.550846"
       y="341.52435"
       width="646.96313"
       height="273.21948"
       id="rect113" />
  </defs>
  <g
     inkscape:label="Ebene 1"
     inkscape:groupmode="layer"
     id="layer1"
     transform="translate(15.69661,1.3229162)">
    <g
       id="g286">
      <rect
         style="fill:#b4d8dd;fill-opacity:1;stroke:#b4d8dd;stroke-width:0.287352;stroke-opacity:1"
         id="rect1934"
         width="79.087646"
         height="26.17098"
         x="-15.552934"
         y="-1.1792402" />
      <g
         aria-label="Initiative für
Demokratie &amp; Grundrechte"
         transform="matrix(0.26458333,0,0,0.26458333,-75.202521,-85.154496)"
         id="text111"
         style="font-weight:600;font-size:21.3333px;font-family:Orbitron;-inkscape-font-specification:'Orbitron Semi-Bold';white-space:pre;shape-inside:url(#rect113);stroke:#000000">
        <path
           d="m 310.90433,361.38943 v -0.89599 h 0.27734 q 0.72533,0 1.23733,-0.256 0.512,-0.27734 0.512,-1.28 v -10.36798 q 0,-1.00267 -0.512,-1.25867 -0.512,-0.27733 -1.23733,-0.27733 h -0.27734 v -0.896 h 6.208 v 0.896 h -0.27734 q -0.72533,0 -1.23733,0.27733 -0.512,0.256 -0.512,1.25867 v 10.36798 q 0,1.00266 0.512,1.28 0.512,0.256 1.23733,0.256 h 0.27734 v 0.89599 z"
           style="font-weight:normal;font-family:serif;-inkscape-font-specification:serif;text-align:center;text-anchor:middle"
           id="path178" />
        <path
           d="m 318.52034,361.38943 v -0.89599 h 0.17066 q 0.72533,0 1.23733,-0.256 0.512,-0.27734 0.512,-1.28 v -6.65599 q 0,-0.93867 -0.512,-1.19467 -0.49066,-0.256 -1.19466,-0.256 H 318.627 v -0.89599 h 3.456 l 0.27733,1.72799 h 0.10667 q 0.66133,-1.19466 1.47199,-1.55733 0.832,-0.384 1.856,-0.384 1.68533,0 2.624,1.00267 0.95999,0.98133 0.95999,3.17866 v 5.03466 q 0,1.00266 0.42667,1.28 0.448,0.256 1.17333,0.256 h 0.10667 v 0.89599 h -3.712 v -7.35998 q 0,-1.38667 -0.53333,-2.15467 -0.512,-0.768 -1.81333,-0.768 -0.96,0 -1.536,0.49067 -0.55466,0.46933 -0.81066,1.25866 -0.23467,0.78934 -0.23467,1.70667 v 4.50133 q 0,0.93866 0.49067,1.19466 0.512,0.23467 1.216,0.23467 h 0.10666 v 0.89599 z"
           style="font-weight:normal;font-family:serif;-inkscape-font-specification:serif;text-align:center;text-anchor:middle"
           id="path180" />
        <path
           d="m 335.11765,347.82146 q -0.512,0 -0.87466,-0.29867 -0.34134,-0.29867 -0.34134,-1.024 0,-0.74666 0.34134,-1.024 0.36266,-0.29866 0.87466,-0.29866 0.49067,0 0.85333,0.29866 0.36267,0.27734 0.36267,1.024 0,0.72533 -0.36267,1.024 -0.36266,0.29867 -0.85333,0.29867 z m -2.94399,13.56797 v -0.89599 h 0.27733 q 0.704,0 1.216,-0.23467 0.53333,-0.256 0.53333,-1.19466 v -6.76266 q 0,-0.93867 -0.53333,-1.19467 -0.512,-0.256 -1.216,-0.256 h -0.064 v -0.89599 h 3.81866 v 9.00265 q 0,1.00266 0.512,1.28 0.512,0.256 1.23733,0.256 h 0.27733 v 0.89599 z"
           style="font-weight:normal;font-family:serif;-inkscape-font-specification:serif;text-align:center;text-anchor:middle"
           id="path182" />
        <path
           d="m 343.62963,361.60277 q -1.62133,0 -2.368,-0.72533 -0.72533,-0.74667 -0.72533,-2.58133 v -7.12533 h -1.62133 v -0.85333 q 0.384,0 0.85333,-0.14933 0.46934,-0.17067 0.81067,-0.53333 0.36267,-0.384 0.59733,-0.93867 0.23467,-0.55466 0.384,-1.36533 h 0.98133 v 2.624 h 2.79467 v 1.21599 h -2.79467 v 7.18933 q 0,1.08799 0.448,1.59999 0.448,0.512 1.17333,0.512 0.384,0 0.704,-0.0427 0.32,-0.0427 0.66133,-0.10667 v 0.93867 q -0.27733,0.12799 -0.83199,0.23466 -0.55467,0.10667 -1.06667,0.10667 z"
           style="font-weight:normal;font-family:serif;-inkscape-font-specification:serif;text-align:center;text-anchor:middle"
           id="path184" />
        <path
           d="m 349.45361,347.82146 q -0.512,0 -0.87467,-0.29867 -0.34133,-0.29867 -0.34133,-1.024 0,-0.74666 0.34133,-1.024 0.36267,-0.29866 0.87467,-0.29866 0.49066,0 0.85333,0.29866 0.36267,0.27734 0.36267,1.024 0,0.72533 -0.36267,1.024 -0.36267,0.29867 -0.85333,0.29867 z m -2.944,13.56797 v -0.89599 h 0.27734 q 0.70399,0 1.21599,-0.23467 0.53334,-0.256 0.53334,-1.19466 v -6.76266 q 0,-0.93867 -0.53334,-1.19467 -0.512,-0.256 -1.21599,-0.256 h -0.064 v -0.89599 h 3.81866 v 9.00265 q 0,1.00266 0.512,1.28 0.512,0.256 1.23733,0.256 h 0.27733 v 0.89599 z"
           style="font-weight:normal;font-family:serif;-inkscape-font-specification:serif;text-align:center;text-anchor:middle"
           id="path186" />
        <path
           d="m 357.21892,361.60277 q -1.42933,0 -2.36799,-0.832 -0.93867,-0.832 -0.93867,-2.58133 0,-1.70666 1.19467,-2.51733 1.21599,-0.81066 3.66932,-0.896 l 1.77067,-0.064 v -1.28 q 0,-0.76799 -0.128,-1.34399 -0.128,-0.59734 -0.55467,-0.93867 -0.42666,-0.34133 -1.30133,-0.34133 -0.81067,0 -1.23733,0.29866 -0.42667,0.29867 -0.576,0.832 -0.128,0.512 -0.128,1.19467 -0.896,0 -1.36533,-0.29867 -0.448,-0.32 -0.448,-1.04533 0,-0.74667 0.512,-1.19466 0.53333,-0.448 1.408,-0.64 0.87466,-0.21334 1.91999,-0.21334 1.96267,0 2.92267,0.832 0.98133,0.832 0.98133,2.85866 v 5.52533 q 0,0.896 0.29866,1.216 0.29867,0.32 1.024,0.32 h 0.064 v 0.89599 h -2.87999 l -0.34134,-1.83466 h -0.17066 q -0.448,0.59733 -0.87467,1.06667 -0.42666,0.448 -1.00266,0.72533 -0.55467,0.256 -1.45067,0.256 z m 0.49067,-1.32267 q 1.30133,0 2.06933,-0.78933 0.768,-0.81066 0.768,-2.176 v -1.72799 l -1.36533,0.064 q -1.81333,0.0853 -2.51733,0.74666 -0.68267,0.64 -0.68267,1.89867 0,1.98399 1.728,1.98399 z"
           style="font-weight:normal;font-family:serif;-inkscape-font-specification:serif;text-align:center;text-anchor:middle"
           id="path188" />
        <path
           d="m 369.97623,361.60277 q -1.62133,0 -2.368,-0.72533 -0.72533,-0.74667 -0.72533,-2.58133 v -7.12533 h -1.62133 v -0.85333 q 0.384,0 0.85333,-0.14933 0.46933,-0.17067 0.81067,-0.53333 0.36266,-0.384 0.59733,-0.93867 0.23466,-0.55466 0.384,-1.36533 h 0.98133 v 2.624 h 2.79466 v 1.21599 h -2.79466 v 7.18933 q 0,1.08799 0.448,1.59999 0.448,0.512 1.17333,0.512 0.384,0 0.704,-0.0427 0.32,-0.0427 0.66133,-0.10667 v 0.93867 q -0.27733,0.12799 -0.832,0.23466 -0.55466,0.10667 -1.06666,0.10667 z"
           style="font-weight:normal;font-family:serif;-inkscape-font-specification:serif;text-align:center;text-anchor:middle"
           id="path190" />
        <path
           d="m 375.8002,347.82146 q -0.512,0 -0.87466,-0.29867 -0.34133,-0.29867 -0.34133,-1.024 0,-0.74666 0.34133,-1.024 0.36266,-0.29866 0.87466,-0.29866 0.49067,0 0.85334,0.29866 0.36266,0.27734 0.36266,1.024 0,0.72533 -0.36266,1.024 -0.36267,0.29867 -0.85334,0.29867 z m -2.94399,13.56797 v -0.89599 h 0.27733 q 0.704,0 1.216,-0.23467 0.53333,-0.256 0.53333,-1.19466 v -6.76266 q 0,-0.93867 -0.53333,-1.19467 -0.512,-0.256 -1.216,-0.256 h -0.064 v -0.89599 h 3.81866 v 9.00265 q 0,1.00266 0.512,1.28 0.512,0.256 1.23733,0.256 h 0.27734 v 0.89599 z"
           style="font-weight:normal;font-family:serif;-inkscape-font-specification:serif;text-align:center;text-anchor:middle"
           id="path192" />
        <path
           d="m 380.85619,351.98145 q -0.23466,-0.68267 -0.576,-0.896 -0.32,-0.23467 -1.00266,-0.23467 v -0.89599 h 5.33332 v 0.89599 h -0.27733 q -1.28,0 -1.28,1.024 0,0.17067 0.0427,0.36267 0.0427,0.192 0.128,0.42667 l 1.45066,4.03199 q 0.29867,0.78933 0.576,1.728 0.27734,0.91733 0.42667,1.47199 0.10667,-0.448 0.448,-1.30133 0.34133,-0.85333 0.61866,-1.62133 l 1.536,-4.15999 q 0.192,-0.512 0.192,-0.91733 0,-1.04534 -1.408,-1.04534 h -0.14933 v -0.89599 h 4.56533 v 0.89599 h -0.256 q -0.61867,0 -0.93867,0.32 -0.29866,0.32 -0.68266,1.344 l -3.37067,8.87465 h -1.94133 z"
           style="font-weight:normal;font-family:serif;-inkscape-font-specification:serif;text-align:center;text-anchor:middle"
           id="path194" />
        <path
           d="m 397.66684,361.60277 q -2.32533,0 -3.64799,-1.536 -1.30133,-1.536 -1.30133,-4.30933 0,-2.98666 1.23733,-4.50132 1.23733,-1.51467 3.49866,-1.51467 2.06933,0 3.24266,1.28 1.19467,1.28 1.19467,3.81866 v 0.98133 h -7.10399 q 0.0427,2.32533 0.832,3.392 0.81066,1.04533 2.34666,1.04533 1.10933,0 1.87733,-0.448 0.78933,-0.46933 1.17333,-1.04533 0.14933,0.064 0.27733,0.256 0.128,0.192 0.128,0.46933 0,0.42667 -0.40533,0.91733 -0.40533,0.49067 -1.23733,0.85334 -0.832,0.34133 -2.112,0.34133 z m 2.06933,-6.93332 q 0,-1.70667 -0.53333,-2.73067 -0.512,-1.04533 -1.792,-1.04533 -1.17333,0 -1.83466,0.98133 -0.64,0.96 -0.74667,2.79467 z"
           style="font-weight:normal;font-family:serif;-inkscape-font-specification:serif;text-align:center;text-anchor:middle"
           id="path196" />
        <path
           d="m 409.08016,361.38943 v -0.89599 h 0.27733 q 0.72534,0 1.23733,-0.256 0.512,-0.27734 0.512,-1.28 v -7.99999 h -1.94133 v -1.00266 h 1.94133 v -1.06667 q 0,-1.89866 1.00267,-2.90133 1.024,-1.024 2.77333,-1.024 1.664,0 2.32533,0.42667 0.66133,0.40533 0.66133,1.06667 0,0.57599 -0.49067,0.89599 -0.49066,0.29867 -1.25866,0.29867 0,-0.64 -0.29867,-1.17333 -0.29866,-0.53333 -1.10933,-0.53333 -0.91733,0 -1.25866,0.70399 -0.34134,0.704 -0.34134,2.048 v 1.25867 h 3.008 v 1.00266 h -3.008 v 7.99999 q 0,1.00266 0.512,1.28 0.512,0.256 1.23733,0.256 h 0.81067 v 0.89599 z"
           style="font-weight:normal;font-family:serif;-inkscape-font-specification:serif;text-align:center;text-anchor:middle"
           id="path198" />
        <path
           d="m 422.20012,361.60277 q -1.68533,0 -2.60266,-0.98133 -0.91733,-1.00267 -0.91733,-3.2 v -5.11999 q 0,-0.93867 -0.53333,-1.19467 -0.512,-0.256 -1.216,-0.256 h -0.064 v -0.89599 h 3.81866 v 7.35998 q 0,1.38667 0.46933,2.15467 0.46933,0.768 1.77067,0.768 1.40799,0 2.04799,-0.93867 0.64,-0.96 0.64,-2.51733 v -4.39466 q 0,-1.00266 -0.512,-1.25866 -0.512,-0.27734 -1.23733,-0.27734 h -0.064 v -0.89599 h 3.81866 v 9.10932 q 0,0.93866 0.512,1.19466 0.53333,0.23467 1.23733,0.23467 h 0.064 v 0.89599 h -3.39199 l -0.27734,-1.72799 h -0.10666 q -0.66133,1.19466 -1.536,1.57866 -0.87466,0.36267 -1.92,0.36267 z m 2.944,-13.69598 q -0.46933,0 -0.78933,-0.256 -0.29867,-0.27733 -0.29867,-0.93867 0,-0.68266 0.29867,-0.93866 0.32,-0.256 0.78933,-0.256 0.448,0 0.768,0.256 0.32,0.256 0.32,0.93866 0,0.66134 -0.32,0.93867 -0.32,0.256 -0.768,0.256 z m -4.05333,0 q -0.46933,0 -0.78933,-0.256 -0.29867,-0.27733 -0.29867,-0.93867 0,-0.68266 0.29867,-0.93866 0.32,-0.256 0.78933,-0.256 0.448,0 0.768,0.256 0.32,0.256 0.32,0.93866 0,0.66134 -0.32,0.93867 -0.32,0.256 -0.768,0.256 z"
           style="font-weight:normal;font-family:serif;-inkscape-font-specification:serif;text-align:center;text-anchor:middle"
           id="path200" />
        <path
           d="m 430.62679,361.38943 v -0.89599 h 0.064 q 0.72533,0 1.23733,-0.256 0.512,-0.27734 0.512,-1.28 v -6.65599 q 0,-0.93867 -0.53334,-1.19467 -0.512,-0.256 -1.21599,-0.256 h -0.064 v -0.89599 h 3.28532 l 0.40534,2.11199 h 0.10666 q 0.27734,-0.64 0.59733,-1.17333 0.32,-0.53333 0.85334,-0.832 0.53333,-0.32 1.47199,-0.32 1.17334,0 1.728,0.40534 0.576,0.40533 0.576,1.15199 0,0.66134 -0.46933,1.088 -0.448,0.42667 -1.51467,0.42667 0,-0.87467 -0.256,-1.25867 -0.256,-0.40533 -0.87466,-0.40533 -0.59733,0 -1.00267,0.46933 -0.40533,0.46934 -0.63999,1.19467 -0.23467,0.72533 -0.34134,1.51466 -0.10666,0.768 -0.10666,1.38667 v 3.34933 q 0,0.93866 0.512,1.19466 0.53333,0.23467 1.23733,0.23467 h 0.59733 v 0.89599 z"
           style="font-weight:normal;font-family:serif;-inkscape-font-specification:serif;text-align:center;text-anchor:middle"
           id="path202" />
        <path
           d="m 237.69911,388.51141 v -0.89599 h 0.27733 q 0.72533,0 1.23733,-0.256 0.512,-0.27734 0.512,-1.28 V 375.6261 q 0,-0.93866 -0.53333,-1.19466 -0.512,-0.256 -1.216,-0.256 h -0.27733 v -0.896 h 6.52799 q 3.30666,0 5.11999,1.98399 1.83466,1.984 1.83466,5.61066 0,2.32533 -0.78933,4.05333 -0.768,1.70666 -2.304,2.64533 -1.53599,0.93866 -3.86132,0.93866 z m 6.03732,-1.08799 q 2.53866,0 3.79733,-1.68534 1.28,-1.70666 1.28,-4.86399 0,-3.17866 -1.25867,-4.84266 -1.25866,-1.68533 -3.79733,-1.68533 h -1.87733 v 13.07732 z"
           style="font-weight:normal;font-family:serif;-inkscape-font-specification:serif;text-align:center;text-anchor:middle"
           id="path204" />
        <path
           d="m 258.52039,388.72475 q -2.32533,0 -3.64799,-1.536 -1.30133,-1.536 -1.30133,-4.30933 0,-2.98666 1.23733,-4.50132 1.23733,-1.51467 3.49866,-1.51467 2.06933,0 3.24266,1.28 1.19467,1.28 1.19467,3.81866 v 0.98133 h -7.10399 q 0.0427,2.32533 0.832,3.392 0.81066,1.04533 2.34666,1.04533 1.10933,0 1.87733,-0.448 0.78933,-0.46933 1.17333,-1.04533 0.14933,0.064 0.27733,0.256 0.128,0.192 0.128,0.46933 0,0.42667 -0.40533,0.91733 -0.40533,0.49067 -1.23733,0.85333 -0.832,0.34134 -2.112,0.34134 z m 2.06933,-6.93333 q 0,-1.70666 -0.53333,-2.73066 -0.512,-1.04533 -1.792,-1.04533 -1.17333,0 -1.83466,0.98133 -0.64,0.96 -0.74667,2.79466 z"
           style="font-weight:normal;font-family:serif;-inkscape-font-specification:serif;text-align:center;text-anchor:middle"
           id="path206" />
        <path
           d="m 264.40838,388.51141 v -0.89599 h 0.27733 q 0.72534,0 1.17333,-0.256 0.46934,-0.27734 0.46934,-1.28 v -6.65599 q 0,-0.93867 -0.46934,-1.19467 -0.46933,-0.256 -1.17333,-0.256 h -0.064 v -0.896 h 3.34933 l 0.27733,1.728 h 0.10667 q 0.64,-1.19466 1.42933,-1.55733 0.81067,-0.384 1.792,-0.384 1.024,0 1.856,0.448 0.83199,0.42667 1.23733,1.49333 h 0.17066 q 0.64,-1.19466 1.49333,-1.55733 0.87467,-0.384 1.856,-0.384 1.64267,0 2.56,1.00267 0.91733,0.98133 0.91733,3.17866 v 5.03466 q 0,1.00266 0.448,1.28 0.46933,0.256 1.19466,0.256 h 0.064 v 0.89599 h -3.71199 v -7.35998 q 0,-1.38667 -0.512,-2.15467 -0.49067,-0.768 -1.728,-0.768 -0.87466,0 -1.40799,0.448 -0.512,0.42667 -0.74667,1.152 -0.21333,0.72533 -0.21333,1.57866 v 4.672 q 0,1.00266 0.448,1.28 0.46933,0.256 1.19466,0.256 h 0.064 v 0.89599 h -3.71199 v -7.35998 q 0,-1.38667 -0.512,-2.15467 -0.49067,-0.768 -1.728,-0.768 -0.91733,0 -1.472,0.49067 -0.53333,0.46933 -0.768,1.25866 -0.23466,0.78934 -0.23466,1.70667 v 4.50132 q 0,0.93867 0.512,1.19467 0.53333,0.23467 1.23733,0.23467 h 0.064 v 0.89599 z"
           style="font-weight:normal;font-family:serif;-inkscape-font-specification:serif;text-align:center;text-anchor:middle"
           id="path208" />
        <path
           d="m 290.09366,388.72475 q -2.30399,0 -3.62666,-1.472 -1.32266,-1.472 -1.32266,-4.47999 0,-2.98667 1.25866,-4.43733 1.28,-1.472 3.75466,-1.472 2.304,0 3.62667,1.472 1.32266,1.45066 1.32266,4.43733 0,3.00799 -1.28,4.47999 -1.25866,1.472 -3.73333,1.472 z m 0.0427,-1.10933 q 1.6,0 2.24,-1.216 0.66133,-1.23733 0.66133,-3.62666 0,-2.38933 -0.66133,-3.584 -0.66133,-1.19466 -2.26133,-1.19466 -1.6,0 -2.26133,1.19466 -0.64,1.19467 -0.64,3.584 0,2.38933 0.66133,3.62666 0.66133,1.216 2.26133,1.216 z"
           style="font-weight:normal;font-family:serif;-inkscape-font-specification:serif;text-align:center;text-anchor:middle"
           id="path210" />
        <path
           d="m 296.66432,388.51141 v -0.89599 h 0.17066 q 0.72534,0 1.23734,-0.256 0.512,-0.27734 0.512,-1.28 v -11.43465 q 0,-0.93867 -0.53334,-1.19467 -0.512,-0.256 -1.216,-0.256 h -0.17066 v -0.89599 h 3.92533 v 8.23465 q 0,0.27733 -0.0213,0.72533 0,0.448 -0.0213,0.896 -0.0213,0.448 -0.0427,0.768 0,0.29867 0,0.29867 l 2.66666,-2.92267 q 0.68267,-0.768 0.91734,-1.17333 0.256,-0.42666 0.256,-0.72533 0,-0.27733 -0.256,-0.34133 -0.256,-0.0853 -0.78934,-0.0853 v -0.896 h 4.71466 v 0.896 q -0.72533,0 -1.45066,0.53334 -0.72533,0.512 -1.55733,1.45066 l -1.49333,1.68533 2.83733,4.22399 q 0.55466,0.85334 1.08799,1.30134 0.55467,0.448 1.28,0.448 h 0.064 v 0.89599 h -0.29866 q -0.91734,0 -1.536,-0.064 -0.61867,-0.064 -1.04533,-0.256 -0.40534,-0.21333 -0.78934,-0.61866 -0.36266,-0.42667 -0.81066,-1.13067 l -2.13333,-3.34932 -1.57866,1.17333 v 1.91999 q 0,0.93867 0.51199,1.19467 0.53334,0.23467 1.23734,0.23467 h 0.064 v 0.89599 z"
           style="font-weight:normal;font-family:serif;-inkscape-font-specification:serif;text-align:center;text-anchor:middle"
           id="path212" />
        <path
           d="m 309.46428,388.51141 v -0.89599 h 0.064 q 0.72533,0 1.23733,-0.256 0.512,-0.27734 0.512,-1.28 v -6.65599 q 0,-0.93867 -0.53334,-1.19467 -0.512,-0.256 -1.21599,-0.256 h -0.064 v -0.896 h 3.28532 l 0.40534,2.112 h 0.10666 q 0.27734,-0.64 0.59733,-1.17333 0.32,-0.53333 0.85334,-0.832 0.53333,-0.32 1.47199,-0.32 1.17334,0 1.728,0.40533 0.576,0.40534 0.576,1.152 0,0.66134 -0.46933,1.088 -0.448,0.42667 -1.51467,0.42667 0,-0.87467 -0.256,-1.25867 -0.256,-0.40533 -0.87466,-0.40533 -0.59733,0 -1.00267,0.46933 -0.40533,0.46933 -0.63999,1.19467 -0.23467,0.72533 -0.34134,1.51466 -0.10666,0.768 -0.10666,1.38667 v 3.34932 q 0,0.93867 0.512,1.19467 0.53333,0.23467 1.23733,0.23467 h 0.59733 v 0.89599 z"
           style="font-weight:normal;font-family:serif;-inkscape-font-specification:serif;text-align:center;text-anchor:middle"
           id="path214" />
        <path
           d="m 322.75493,388.72475 q -1.42934,0 -2.368,-0.832 -0.93867,-0.832 -0.93867,-2.58133 0,-1.70667 1.19467,-2.51733 1.216,-0.81067 3.66933,-0.896 l 1.77066,-0.064 v -1.28 q 0,-0.768 -0.128,-1.344 -0.128,-0.59733 -0.55467,-0.93866 -0.42666,-0.34133 -1.30133,-0.34133 -0.81066,0 -1.23733,0.29866 -0.42666,0.29867 -0.576,0.832 -0.128,0.512 -0.128,1.19467 -0.896,0 -1.36533,-0.29867 -0.448,-0.32 -0.448,-1.04533 0,-0.74667 0.512,-1.19467 0.53333,-0.448 1.408,-0.64 0.87466,-0.21333 1.92,-0.21333 1.96266,0 2.92266,0.832 0.98133,0.832 0.98133,2.85866 v 5.52533 q 0,0.896 0.29867,1.216 0.29866,0.32 1.02399,0.32 h 0.064 v 0.89599 h -2.87999 l -0.34133,-1.83466 h -0.17067 q -0.448,0.59733 -0.87467,1.06666 -0.42666,0.448 -1.00266,0.72534 -0.55467,0.256 -1.45066,0.256 z m 0.49066,-1.32267 q 1.30133,0 2.06933,-0.78933 0.768,-0.81067 0.768,-2.176 v -1.72799 l -1.36533,0.064 q -1.81333,0.0853 -2.51733,0.74666 -0.68267,0.64 -0.68267,1.89867 0,1.98399 1.728,1.98399 z"
           style="font-weight:normal;font-family:serif;-inkscape-font-specification:serif;text-align:center;text-anchor:middle"
           id="path216" />
        <path
           d="m 335.51223,388.72475 q -1.62133,0 -2.36799,-0.72534 -0.72533,-0.74666 -0.72533,-2.58132 v -7.12533 h -1.62134 v -0.85333 q 0.384,0 0.85334,-0.14933 0.46933,-0.17067 0.81066,-0.53333 0.36267,-0.384 0.59733,-0.93867 0.23467,-0.55467 0.384,-1.36533 h 0.98134 v 2.62399 h 2.79466 v 1.216 h -2.79466 v 7.18933 q 0,1.08799 0.44799,1.59999 0.448,0.512 1.17334,0.512 0.384,0 0.704,-0.0427 0.31999,-0.0427 0.66133,-0.10667 v 0.93866 q -0.27734,0.128 -0.832,0.23467 -0.55467,0.10667 -1.06667,0.10667 z"
           style="font-weight:normal;font-family:serif;-inkscape-font-specification:serif;text-align:center;text-anchor:middle"
           id="path218" />
        <path
           d="m 341.33621,374.94344 q -0.512,0 -0.87466,-0.29867 -0.34134,-0.29867 -0.34134,-1.024 0,-0.74667 0.34134,-1.024 0.36266,-0.29866 0.87466,-0.29866 0.49067,0 0.85333,0.29866 0.36267,0.27733 0.36267,1.024 0,0.72533 -0.36267,1.024 -0.36266,0.29867 -0.85333,0.29867 z m -2.94399,13.56797 v -0.89599 h 0.27733 q 0.704,0 1.216,-0.23467 0.53333,-0.256 0.53333,-1.19467 v -6.76265 q 0,-0.93867 -0.53333,-1.19467 -0.512,-0.256 -1.216,-0.256 h -0.064 v -0.896 h 3.81866 v 9.00266 q 0,1.00266 0.512,1.28 0.512,0.256 1.23733,0.256 h 0.27733 v 0.89599 z"
           style="font-weight:normal;font-family:serif;-inkscape-font-specification:serif;text-align:center;text-anchor:middle"
           id="path220" />
        <path
           d="m 350.85085,388.72475 q -2.32533,0 -3.64799,-1.536 -1.30133,-1.536 -1.30133,-4.30933 0,-2.98666 1.23733,-4.50132 1.23733,-1.51467 3.49866,-1.51467 2.06933,0 3.24266,1.28 1.19467,1.28 1.19467,3.81866 v 0.98133 h -7.10399 q 0.0427,2.32533 0.83199,3.392 0.81067,1.04533 2.34667,1.04533 1.10933,0 1.87733,-0.448 0.78933,-0.46933 1.17333,-1.04533 0.14933,0.064 0.27733,0.256 0.128,0.192 0.128,0.46933 0,0.42667 -0.40533,0.91733 -0.40533,0.49067 -1.23733,0.85333 -0.832,0.34134 -2.112,0.34134 z m 2.06933,-6.93333 q 0,-1.70666 -0.53333,-2.73066 -0.512,-1.04533 -1.792,-1.04533 -1.17333,0 -1.83466,0.98133 -0.64,0.96 -0.74667,2.79466 z"
           style="font-weight:normal;font-family:serif;-inkscape-font-specification:serif;text-align:center;text-anchor:middle"
           id="path222" />
        <path
           d="m 367.53349,388.72475 q -2.55999,0 -3.81866,-1.23733 -1.25866,-1.23734 -1.25866,-3.24267 0,-1.21599 0.42667,-2.02666 0.42666,-0.81067 1.19466,-1.36533 0.768,-0.55467 1.792,-0.98133 -0.81067,-0.96 -1.23733,-1.792 -0.40534,-0.832 -0.40534,-1.87733 0,-1.408 0.93867,-2.26133 0.96,-0.87467 3.09333,-0.87467 1.36533,0 2.19733,0.42667 0.832,0.40533 1.19466,1.088 0.384,0.68266 0.384,1.51466 0,0.91734 -0.36266,1.57867 -0.36267,0.66133 -1.152,1.19466 -0.78934,0.53333 -2.09067,1.088 l 3.88266,4.11733 q 0.29867,-0.96 0.384,-1.94133 0.10667,-0.98133 0.10667,-1.77067 v -0.832 h 3.83999 v 0.896 h -0.192 q -0.72533,0 -1.34399,0.23467 -0.61867,0.23467 -0.896,1.216 -0.192,0.68266 -0.448,1.49333 -0.23467,0.78933 -0.59733,1.6 l 1.98399,2.11199 q 0.29867,0.32 0.704,0.42667 0.42667,0.10667 1.28,0.10667 h 0.192 v 0.89599 h -3.41333 l -1.77066,-1.87733 q -0.768,0.87467 -1.87733,1.49333 -1.088,0.59734 -2.73067,0.59734 z m 0.17067,-9.57865 q 1.25867,-0.55467 1.856,-1.23734 0.59733,-0.68266 0.59733,-1.79199 0,-0.85334 -0.448,-1.42933 -0.448,-0.576 -1.536,-0.576 -0.93866,0 -1.45066,0.55466 -0.512,0.55467 -0.512,1.472 0,0.81067 0.34133,1.472 0.36267,0.64 1.152,1.536 z m 0.0213,8.38398 q 1.25867,0 2.15467,-0.49066 0.896,-0.49067 1.49333,-1.23734 l -4.71466,-5.05599 q -0.98133,0.53334 -1.55733,1.36533 -0.55467,0.81067 -0.55467,2.19733 0,1.55733 0.87467,2.38933 0.87466,0.832 2.30399,0.832 z"
           style="font-weight:normal;font-family:serif;-inkscape-font-specification:serif;text-align:center;text-anchor:middle"
           id="path224" />
        <path
           d="m 391.61882,388.72475 q -2.47467,0 -4.11733,-0.98134 -1.62133,-0.98133 -2.432,-2.73066 -0.78933,-1.77066 -0.78933,-4.13866 0,-2.30399 0.832,-4.05332 0.85333,-1.77067 2.51733,-2.752 1.664,-1.00267 4.11733,-1.00267 2.36799,0 3.54132,0.68267 1.17333,0.68267 1.17333,1.70666 0,0.68267 -0.57599,1.088 -0.576,0.40534 -1.408,0.40534 0,-0.66134 -0.27733,-1.28 -0.256,-0.64 -0.87467,-1.04533 -0.61867,-0.42667 -1.664,-0.42667 -2.70933,0 -3.86132,1.74933 -1.152,1.728 -1.152,4.92799 0,3.2 1.19466,4.92799 1.216,1.70667 4.11733,1.70667 0.61866,0 1.19466,-0.064 0.576,-0.064 1.024,-0.192 v -3.43466 q 0,-0.93867 -0.53333,-1.19467 -0.512,-0.256 -1.216,-0.256 h -0.0853 v -0.896 h 5.54666 v 0.896 h -0.0853 q -0.59733,0 -1.04533,0.27734 -0.42666,0.256 -0.42666,1.25866 v 3.83999 q -1.06667,0.49067 -2.19733,0.74667 -1.13067,0.23467 -2.51733,0.23467 z"
           style="font-weight:normal;font-family:serif;-inkscape-font-specification:serif;text-align:center;text-anchor:middle"
           id="path226" />
        <path
           d="m 399.00014,388.51141 v -0.89599 h 0.064 q 0.72533,0 1.23733,-0.256 0.512,-0.27734 0.512,-1.28 v -6.65599 q 0,-0.93867 -0.53333,-1.19467 -0.512,-0.256 -1.216,-0.256 h -0.064 v -0.896 h 3.28533 l 0.40533,2.112 h 0.10667 q 0.27733,-0.64 0.59733,-1.17333 0.32,-0.53333 0.85333,-0.832 0.53334,-0.32 1.472,-0.32 1.17333,0 1.728,0.40533 0.576,0.40534 0.576,1.152 0,0.66134 -0.46934,1.088 -0.448,0.42667 -1.51466,0.42667 0,-0.87467 -0.256,-1.25867 -0.256,-0.40533 -0.87467,-0.40533 -0.59733,0 -1.00266,0.46933 -0.40533,0.46933 -0.64,1.19467 -0.23467,0.72533 -0.34133,1.51466 -0.10667,0.768 -0.10667,1.38667 v 3.34932 q 0,0.93867 0.512,1.19467 0.53333,0.23467 1.23733,0.23467 h 0.59733 v 0.89599 z"
           style="font-weight:normal;font-family:serif;-inkscape-font-specification:serif;text-align:center;text-anchor:middle"
           id="path228" />
        <path
           d="m 414.16814,388.72475 q -1.68533,0 -2.60267,-0.98134 -0.91733,-1.00266 -0.91733,-3.19999 v -5.11999 q 0,-0.93867 -0.53333,-1.19467 -0.512,-0.256 -1.216,-0.256 h -0.064 v -0.896 h 3.81866 v 7.35999 q 0,1.38667 0.46934,2.15467 0.46933,0.768 1.77066,0.768 1.408,0 2.048,-0.93867 0.63999,-0.96 0.63999,-2.51733 v -4.39466 q 0,-1.00266 -0.51199,-1.25866 -0.512,-0.27734 -1.23734,-0.27734 h -0.064 v -0.896 h 3.81867 v 9.10932 q 0,0.93867 0.51199,1.19467 0.53334,0.23467 1.23734,0.23467 h 0.064 v 0.89599 h -3.392 l -0.27733,-1.72799 h -0.10667 q -0.66133,1.19466 -1.536,1.57866 -0.87466,0.36267 -1.91999,0.36267 z"
           style="font-weight:normal;font-family:serif;-inkscape-font-specification:serif;text-align:center;text-anchor:middle"
           id="path230" />
        <path
           d="m 422.48812,388.51141 v -0.89599 h 0.17067 q 0.72533,0 1.23733,-0.256 0.512,-0.27734 0.512,-1.28 v -6.65599 q 0,-0.93867 -0.512,-1.19467 -0.49066,-0.256 -1.19466,-0.256 h -0.10667 v -0.896 h 3.456 l 0.27733,1.728 h 0.10667 q 0.66133,-1.19466 1.47199,-1.55733 0.832,-0.384 1.856,-0.384 1.68533,0 2.624,1.00267 0.95999,0.98133 0.95999,3.17866 v 5.03466 q 0,1.00266 0.42667,1.28 0.448,0.256 1.17333,0.256 h 0.10667 v 0.89599 h -3.712 v -7.35998 q 0,-1.38667 -0.53333,-2.15467 -0.512,-0.768 -1.81333,-0.768 -0.96,0 -1.536,0.49067 -0.55466,0.46933 -0.81066,1.25866 -0.23467,0.78934 -0.23467,1.70667 v 4.50132 q 0,0.93867 0.49067,1.19467 0.512,0.23467 1.216,0.23467 h 0.10666 v 0.89599 z"
           style="font-weight:normal;font-family:serif;-inkscape-font-specification:serif;text-align:center;text-anchor:middle"
           id="path232" />
        <path
           d="m 441.17611,388.72475 q -2.112,0 -3.24266,-1.408 -1.10933,-1.42933 -1.10933,-4.50133 0,-3.09333 1.10933,-4.52266 1.13066,-1.42933 3.24266,-1.42933 1.23733,0 2.00533,0.53333 0.78933,0.512 1.25867,1.344 h 0.128 q -0.064,-0.53333 -0.10667,-1.17333 -0.0213,-0.66133 -0.0213,-1.17333 v -1.74933 q 0,-0.93867 -0.53334,-1.19467 -0.512,-0.256 -1.21599,-0.256 h -0.17067 v -0.89599 h 3.92533 v 13.86664 q 0,0.93867 0.512,1.19467 0.53333,0.256 1.23733,0.256 h 0.17066 v 0.89599 h -3.60532 l -0.23467,-1.91999 h -0.0853 q -0.46934,0.98133 -1.23734,1.55733 -0.76799,0.576 -2.02666,0.576 z m 0.36267,-1.36533 q 1.66399,0 2.28266,-1.10934 0.61867,-1.13066 0.61867,-3.43466 0,-2.21866 -0.61867,-3.39199 -0.61867,-1.19467 -2.304,-1.19467 -1.40799,0 -2.02666,1.19467 -0.59733,1.17333 -0.59733,3.41333 0,2.26133 0.59733,3.39199 0.61867,1.13067 2.048,1.13067 z"
           style="font-weight:normal;font-family:serif;-inkscape-font-specification:serif;text-align:center;text-anchor:middle"
           id="path234" />
        <path
           d="m 449.45343,388.51141 v -0.89599 h 0.064 q 0.72534,0 1.23734,-0.256 0.51199,-0.27734 0.51199,-1.28 v -6.65599 q 0,-0.93867 -0.53333,-1.19467 -0.512,-0.256 -1.216,-0.256 h -0.064 v -0.896 h 3.28533 l 0.40533,2.112 h 0.10667 q 0.27733,-0.64 0.59733,-1.17333 0.32,-0.53333 0.85334,-0.832 0.53333,-0.32 1.47199,-0.32 1.17333,0 1.728,0.40533 0.576,0.40534 0.576,1.152 0,0.66134 -0.46933,1.088 -0.448,0.42667 -1.51467,0.42667 0,-0.87467 -0.256,-1.25867 -0.256,-0.40533 -0.87466,-0.40533 -0.59733,0 -1.00267,0.46933 -0.40533,0.46933 -0.64,1.19467 -0.23466,0.72533 -0.34133,1.51466 -0.10667,0.768 -0.10667,1.38667 v 3.34932 q 0,0.93867 0.512,1.19467 0.53334,0.23467 1.23734,0.23467 h 0.59733 v 0.89599 z"
           style="font-weight:normal;font-family:serif;-inkscape-font-specification:serif;text-align:center;text-anchor:middle"
           id="path236" />
        <path
           d="m 464.9201,388.72475 q -2.32533,0 -3.648,-1.536 -1.30133,-1.536 -1.30133,-4.30933 0,-2.98666 1.23733,-4.50132 1.23733,-1.51467 3.49866,-1.51467 2.06933,0 3.24266,1.28 1.19467,1.28 1.19467,3.81866 v 0.98133 h -7.10399 q 0.0427,2.32533 0.832,3.392 0.81066,1.04533 2.34666,1.04533 1.10933,0 1.87733,-0.448 0.78933,-0.46933 1.17333,-1.04533 0.14934,0.064 0.27734,0.256 0.128,0.192 0.128,0.46933 0,0.42667 -0.40534,0.91733 -0.40533,0.49067 -1.23733,0.85333 -0.832,0.34134 -2.11199,0.34134 z m 2.06933,-6.93333 q 0,-1.70666 -0.53334,-2.73066 -0.512,-1.04533 -1.79199,-1.04533 -1.17334,0 -1.83467,0.98133 -0.64,0.96 -0.74666,2.79466 z"
           style="font-weight:normal;font-family:serif;-inkscape-font-specification:serif;text-align:center;text-anchor:middle"
           id="path238" />
        <path
           d="m 476.24806,388.72475 q -1.408,0 -2.51733,-0.59734 -1.088,-0.59733 -1.72799,-1.87733 -0.61867,-1.30133 -0.61867,-3.39199 0,-2.28266 0.61867,-3.584 0.63999,-1.32266 1.70666,-1.85599 1.088,-0.55467 2.432,-0.55467 0.89599,0 1.74933,0.23467 0.85333,0.23466 1.40799,0.72533 0.55467,0.46933 0.55467,1.216 0,0.72533 -0.49067,1.04533 -0.46933,0.29867 -1.40799,0.29867 0,-1.00267 -0.384,-1.728 -0.36267,-0.72533 -1.42933,-0.72533 -0.81067,0 -1.42934,0.42666 -0.59733,0.42667 -0.93866,1.49333 -0.32,1.06667 -0.32,2.98667 0,2.26133 0.74667,3.39199 0.76799,1.10933 2.47466,1.10933 1.00266,0 1.728,-0.40533 0.74666,-0.42667 1.10933,-1.088 0.36266,0.29867 0.36266,0.832 0,0.49067 -0.40533,0.96 -0.40533,0.46933 -1.216,0.78933 -0.78933,0.29867 -2.00533,0.29867 z"
           style="font-weight:normal;font-family:serif;-inkscape-font-specification:serif;text-align:center;text-anchor:middle"
           id="path240" />
        <path
           d="m 481.09074,388.51141 v -0.89599 h 0.17067 q 0.72533,0 1.23733,-0.256 0.512,-0.27734 0.512,-1.28 v -11.43465 q 0,-0.93867 -0.53334,-1.19467 -0.51199,-0.256 -1.21599,-0.256 h -0.17067 v -0.89599 h 3.92533 v 4.69332 q 0,0.384 -0.0213,0.81067 -0.0213,0.40533 -0.0427,0.704 -0.0213,0.29866 -0.0213,0.29866 h 0.10667 q 0.98133,-1.94133 3.136,-1.94133 1.83466,0 2.79466,1.00267 0.98133,0.98133 0.98133,3.17866 v 5.03466 q 0,1.00266 0.448,1.28 0.46933,0.256 1.19466,0.256 h 0.064 v 0.89599 h -3.71199 v -7.35998 q 0,-1.38667 -0.53333,-2.15467 -0.512,-0.768 -1.81333,-0.768 -1.32267,0 -1.96267,0.93867 -0.61866,0.93866 -0.61866,2.51733 v 4.50132 q 0,0.93867 0.512,1.19467 0.53333,0.23467 1.23733,0.23467 h 0.064 v 0.89599 z"
           style="font-weight:normal;font-family:serif;-inkscape-font-specification:serif;text-align:center;text-anchor:middle"
           id="path242" />
        <path
           d="m 499.37339,388.72475 q -1.62133,0 -2.36799,-0.72534 -0.72533,-0.74666 -0.72533,-2.58132 v -7.12533 h -1.62134 v -0.85333 q 0.384,0 0.85334,-0.14933 0.46933,-0.17067 0.81066,-0.53333 0.36267,-0.384 0.59733,-0.93867 0.23467,-0.55467 0.384,-1.36533 h 0.98134 v 2.62399 h 2.79466 v 1.216 h -2.79466 v 7.18933 q 0,1.08799 0.448,1.59999 0.44799,0.512 1.17333,0.512 0.384,0 0.704,-0.0427 0.31999,-0.0427 0.66133,-0.10667 v 0.93866 q -0.27734,0.128 -0.832,0.23467 -0.55467,0.10667 -1.06667,0.10667 z"
           style="font-weight:normal;font-family:serif;-inkscape-font-specification:serif;text-align:center;text-anchor:middle"
           id="path244" />
        <path
           d="m 507.88537,388.72475 q -2.32533,0 -3.648,-1.536 -1.30133,-1.536 -1.30133,-4.30933 0,-2.98666 1.23733,-4.50132 1.23733,-1.51467 3.49866,-1.51467 2.06933,0 3.24267,1.28 1.19466,1.28 1.19466,3.81866 v 0.98133 h -7.10399 q 0.0427,2.32533 0.832,3.392 0.81067,1.04533 2.34666,1.04533 1.10933,0 1.87733,-0.448 0.78934,-0.46933 1.17334,-1.04533 0.14933,0.064 0.27733,0.256 0.128,0.192 0.128,0.46933 0,0.42667 -0.40533,0.91733 -0.40534,0.49067 -1.23734,0.85333 -0.83199,0.34134 -2.11199,0.34134 z m 2.06933,-6.93333 q 0,-1.70666 -0.53334,-2.73066 -0.51199,-1.04533 -1.79199,-1.04533 -1.17333,0 -1.83467,0.98133 -0.64,0.96 -0.74666,2.79466 z"
           style="font-weight:normal;font-family:serif;-inkscape-font-specification:serif;text-align:center;text-anchor:middle"
           id="path246" />
      </g>
    </g>
  </g>
</svg>
