<?xml version="1.0" encoding="UTF-8"?>
<svg version="1.1" xmlns="http://www.w3.org/2000/svg" width="218" height="166">
<path d="M0 0 C71.94 0 143.88 0 218 0 C218 54.78 218 109.56 218 166 C146.06 166 74.12 166 0 166 C0 111.22 0 56.44 0 0 Z " fill="#FEFDFD" transform="translate(0,0)"/>
<path d="M0 0 C0.33 11.88 0.66 23.76 1 36 C2.32 35.67 3.64 35.34 5 35 C5.02578125 34.2265625 5.0515625 33.453125 5.078125 32.65625 C5.43662397 26.0729053 5.92709848 20.37881597 10 15 C13.08493867 12.31744463 15.03683654 11.15725118 19.0625 10.5 C22.85731117 11.14592531 24.46760855 12.09519805 27 15 C27.83899995 19.53059972 27.34505672 21.43536173 24.9375 25.375 C21.51898875 28.42983984 19.51263341 28.82303398 15 29 C15.99 31.31 16.98 33.62 18 36 C21.46328357 36.32216591 23.53962999 36.23830918 26.65625 34.625 C30.1881467 30.6692757 29.78011694 26.8881125 29.8125 21.75 C29.83763672 20.81414062 29.86277344 19.87828125 29.88867188 18.9140625 C29.9474757 16.60895268 29.98380267 14.30573826 30 12 C34 12 38 12 42 12 C43.010625 11.95875 44.02125 11.9175 45.0625 11.875 C48 12 48 12 50 14 C50.125 16.625 50.125 16.625 50 19 C48.35 19.33 46.7 19.66 45 20 C44.67 19.01 44.34 18.02 44 17 C42.02 17.495 42.02 17.495 40 18 C39.67 25.92 39.34 33.84 39 42 C36.03 42 33.06 42 30 42 C29.67 40.35 29.34 38.7 29 37 C28.401875 37.639375 27.80375 38.27875 27.1875 38.9375 C23.80419716 42.12747125 20.63594375 42.32607732 16.07421875 42.30078125 C12.65297043 41.80466803 10.66851932 40.13481546 8 38 C7.319375 38.66 6.63875 39.32 5.9375 40 C2.28670848 42.48564529 0.33453498 42.64215333 -4 42 C-5.9375 40 -5.9375 40 -7 38 C-7.9590625 39.0209375 -7.9590625 39.0209375 -8.9375 40.0625 C-13.18338074 42.74866944 -16.23417088 41.95524244 -21 41 C-21.33 40.01 -21.66 39.02 -22 38 C-22.66 38 -23.32 38 -24 38 C-24.33 38.99 -24.66 39.98 -25 41 C-28.09173752 42.54586876 -30.59429552 42.29359521 -34 42 C-36.36497439 40.13291495 -37.66030715 38.67938569 -39 36 C-39.23274209 33.12089412 -39.41972757 30.25853505 -39.5625 27.375 C-39.60568359 26.57320312 -39.64886719 25.77140625 -39.69335938 24.9453125 C-39.79951457 22.9637489 -39.90026855 20.98189729 -40 19 C-41.32 18.34 -42.64 17.68 -44 17 C-44.33 25.25 -44.66 33.5 -45 42 C-47.97 42 -50.94 42 -54 42 C-54.33 41.34 -54.66 40.68 -55 40 C-55.99 40.66 -56.98 41.32 -58 42 C-61.4375 42.375 -61.4375 42.375 -65 42 C-67.4375 40 -67.4375 40 -69 38 C-69.515625 38.66 -70.03125 39.32 -70.5625 40 C-73 42 -73 42 -76.4375 42.4375 C-80.10882431 41.98663561 -82.03986458 41.15282576 -85 39 C-85.350625 39.495 -85.70125 39.99 -86.0625 40.5 C-89.0340628 42.80056475 -91.35337051 42.38385574 -95 42 C-98.1850357 40.23984869 -98.83296972 39.50109084 -100 36 C-100.14403348 34.66636297 -100.24590423 33.32781954 -100.31640625 31.98828125 C-100.35830078 31.23095703 -100.40019531 30.47363281 -100.44335938 29.69335938 C-100.48267578 28.90767578 -100.52199219 28.12199219 -100.5625 27.3125 C-100.60568359 26.51521484 -100.64886719 25.71792969 -100.69335938 24.89648438 C-100.79927368 22.93118553 -100.90012551 20.96561504 -101 19 C-102.32 18.67 -103.64 18.34 -105 18 C-106.23060421 20.46120841 -106.2057723 22.25776866 -106.31640625 25.0078125 C-106.37924805 26.48701172 -106.37924805 26.48701172 -106.44335938 27.99609375 C-106.48267578 29.02863281 -106.52199219 30.06117187 -106.5625 31.125 C-106.62727539 32.68541016 -106.62727539 32.68541016 -106.69335938 34.27734375 C-106.7996288 36.85142528 -106.90166583 39.42560508 -107 42 C-111 42 -115 42 -119 42 C-119.9590625 42.05220703 -119.9590625 42.05220703 -120.9375 42.10546875 C-126.55169035 42.32876041 -126.55169035 42.32876041 -128.875 40.625 C-129.24625 40.08875 -129.6175 39.5525 -130 39 C-130.66 38.34 -131.32 37.68 -132 37 C-132.598125 37.639375 -133.19625 38.27875 -133.8125 38.9375 C-137.24051754 42.16963083 -140.39018767 42.29559289 -145.00390625 42.2109375 C-148.0332011 41.89081632 -149.6968285 40.974147 -152 39 C-155.55902776 33.96827109 -155.6971293 28.94444038 -155 23 C-153.82654971 18.51878042 -151.83225112 14.69293322 -148 12 C-143.87869049 10.74455908 -141.00202571 10.53096669 -137.0625 12.375 C-135 14 -135 14 -134 15 C-133.54769715 18.88980451 -133.87272369 20.76362972 -135.75 24.25 C-137.8521114 26.81924726 -138.88939021 28.02793444 -142 29 C-143.32 29 -144.64 29 -146 29 C-145.03223902 32.79547921 -145.03223902 32.79547921 -143 36 C-139.5087441 36.39673363 -137.48609969 36.25271457 -134.34765625 34.62109375 C-130.80869795 30.66994397 -131.21988617 26.88860623 -131.1875 21.75 C-131.16236328 20.81414062 -131.13722656 19.87828125 -131.11132812 18.9140625 C-131.05254658 16.6098259 -131.02338888 14.30486758 -131 12 C-128.03 12 -125.06 12 -122 12 C-121.505 23.385 -121.505 23.385 -121 35 C-119.02 34.505 -119.02 34.505 -117 34 C-116.67 26.74 -116.34 19.48 -116 12 C-112.33333333 12 -108.66666667 12 -105 12 C-103.6078125 11.6596875 -103.6078125 11.6596875 -102.1875 11.3125 C-98.32215759 10.93354486 -97.02236423 11.64927227 -94 14 C-91.9859044 17.0211434 -91.73163404 17.80660017 -91.5859375 21.23046875 C-91.52792969 22.43413086 -91.52792969 22.43413086 -91.46875 23.66210938 C-91.42234375 24.91217773 -91.42234375 24.91217773 -91.375 26.1875 C-91.31699219 27.4549707 -91.31699219 27.4549707 -91.2578125 28.74804688 C-91.16363721 30.83167524 -91.08073325 32.91580753 -91 35 C-89.02 35.495 -89.02 35.495 -87 36 C-87.04640625 35.154375 -87.0928125 34.30875 -87.140625 33.4375 C-87.42312185 24.55902746 -86.63040482 19.13462771 -80.75 12.4375 C-76.84324904 10.39533473 -74.29318258 11.24237955 -70 12 C-67.03 12 -64.06 12 -61 12 C-60.505 23.385 -60.505 23.385 -60 35 C-58.35 34.67 -56.7 34.34 -55 34 C-54.67 26.74 -54.34 19.48 -54 12 C-51.36 12 -48.72 12 -46 12 C-46 12.66 -46 13.32 -46 14 C-44.948125 13.2265625 -44.948125 13.2265625 -43.875 12.4375 C-40.33752209 10.66876105 -38.75246222 10.93952155 -35 12 C-32 14 -32 14 -31 17 C-30.85507877 18.40664926 -30.75371069 19.8181133 -30.68359375 21.23046875 C-30.64169922 22.03291016 -30.59980469 22.83535156 -30.55664062 23.66210938 C-30.51732422 24.49548828 -30.47800781 25.32886719 -30.4375 26.1875 C-30.39431641 27.03248047 -30.35113281 27.87746094 -30.30664062 28.74804688 C-30.20068482 30.83184433 -30.0998498 32.91590103 -30 35 C-28.68 35 -27.36 35 -26 35 C-25.96261719 34.05898437 -25.92523438 33.11796875 -25.88671875 32.1484375 C-25.78810547 30.28058594 -25.78810547 30.28058594 -25.6875 28.375 C-25.62949219 27.14523438 -25.57148438 25.91546875 -25.51171875 24.6484375 C-24.80758819 19.62814786 -23.17528246 16.27322267 -19.75 12.5625 C-16.11614696 10.49781077 -13.9818477 11.06309466 -10 12 C-9.67 8.37 -9.34 4.74 -9 1 C-6 0 -6 0 0 0 Z " fill="#EA4881" transform="translate(160,81)"/>
<path d="M0 0 C2.64 0 5.28 0 8 0 C8 2.97 8 5.94 8 9 C9.32 9 10.64 9 12 9 C12 9.66 12 10.32 12 11 C10.68 11 9.36 11 8 11 C8.33 18.26 8.66 25.52 9 33 C10.32 33 11.64 33 13 33 C12.125 37.875 12.125 37.875 11 39 C4.76470588 39.47058824 4.76470588 39.47058824 1.5625 37.5 C1.046875 37.005 0.53125 36.51 0 36 C-0.495 36.495 -0.99 36.99 -1.5 37.5 C-5.15912593 39.69547556 -7.76170548 39.27343836 -12 39 C-12.99 38.505 -12.99 38.505 -14 38 C-14 37.34 -14 36.68 -14 36 C-14.680625 36.495 -15.36125 36.99 -16.0625 37.5 C-19.77306506 39.39475662 -21.88370608 39.66154724 -26 39 C-29.748812 35.6024676 -31.26708339 33.32322585 -31.70703125 28.2578125 C-31.76623305 26.54753818 -31.80090261 24.83625936 -31.8125 23.125 C-31.83763672 22.24585937 -31.86277344 21.36671875 -31.88867188 20.4609375 C-31.94718195 18.3077668 -31.97654236 16.15383779 -32 14 C-35.11785113 14.64644661 -35.11785113 14.64644661 -36 17 C-36.15222973 18.66565749 -36.24917215 20.33656496 -36.31640625 22.0078125 C-36.35830078 22.99394531 -36.40019531 23.98007813 -36.44335938 24.99609375 C-36.48267578 26.02863281 -36.52199219 27.06117187 -36.5625 28.125 C-36.60568359 29.16527344 -36.64886719 30.20554687 -36.69335938 31.27734375 C-36.7996288 33.85142528 -36.90166583 36.42560508 -37 39 C-39.97 39 -42.94 39 -46 39 C-46.33 31.08 -46.66 23.16 -47 15 C-47.99 15 -48.98 15 -50 15 C-51.23060421 17.46120841 -51.2057723 19.25776866 -51.31640625 22.0078125 C-51.35830078 22.99394531 -51.40019531 23.98007813 -51.44335938 24.99609375 C-51.48267578 26.02863281 -51.52199219 27.06117187 -51.5625 28.125 C-51.60568359 29.16527344 -51.64886719 30.20554687 -51.69335938 31.27734375 C-51.7996288 33.85142528 -51.90166583 36.42560508 -52 39 C-54.97 39 -57.94 39 -61 39 C-61 29.1 -61 19.2 -61 9 C-57.33333333 9 -53.66666667 9 -50 9 C-49.071875 8.773125 -48.14375 8.54625 -47.1875 8.3125 C-43.34773584 7.93605253 -42.09773962 8.84879193 -39 11 C-38.34 11 -37.68 11 -37 11 C-36.34 10.34 -35.68 9.68 -35 9 C-32.94140625 8.69921875 -32.94140625 8.69921875 -30.5625 8.6875 C-29.38880859 8.66236328 -29.38880859 8.66236328 -28.19140625 8.63671875 C-25.48074592 9.08607955 -24.65279365 9.84176487 -23 12 C-22.07811539 14.76565382 -21.88214778 16.38283702 -21.90234375 19.23046875 C-21.90556641 20.03291016 -21.90878906 20.83535156 -21.91210938 21.66210938 C-21.92467773 22.91217773 -21.92467773 22.91217773 -21.9375 24.1875 C-21.94201172 25.03248047 -21.94652344 25.87746094 -21.95117188 26.74804688 C-21.96294597 28.83206155 -21.9808811 30.91603977 -22 33 C-20.35 32.34 -18.7 31.68 -17 31 C-16.67 23.74 -16.34 16.48 -16 9 C-13.03 9 -10.06 9 -7 9 C-7 16.92 -7 24.84 -7 33 C-4.525 32.505 -4.525 32.505 -2 32 C-0.85345518 29.70691037 -0.80270883 28.20090344 -0.68359375 25.6484375 C-0.62075195 24.37226562 -0.62075195 24.37226562 -0.55664062 23.0703125 C-0.51732422 22.18085937 -0.47800781 21.29140625 -0.4375 20.375 C-0.37272461 19.02921875 -0.37272461 19.02921875 -0.30664062 17.65625 C-0.20043139 15.43765717 -0.09838806 13.2189512 0 11 C-0.66 11 -1.32 11 -2 11 C-2 10.34 -2 9.68 -2 9 C-1.34 9 -0.68 9 0 9 C0 6.03 0 3.06 0 0 Z " fill="#7B83BF" transform="translate(131,44)"/>
<path d="M0 0 C1.01964844 -0.0309375 2.03929688 -0.061875 3.08984375 -0.09375 C7.29322339 0.74582123 8.63348837 1.96729512 11.0625 5.5 C11.65182102 8.96341706 11.5357792 12.31246051 11.375 15.8125 C11.35244141 16.74384766 11.32988281 17.67519531 11.30664062 18.63476562 C11.24792078 20.9248396 11.16586858 23.21157875 11.0625 25.5 C11.7225 25.5 12.3825 25.5 13.0625 25.5 C13.0625 26.16 13.0625 26.82 13.0625 27.5 C11.4125 27.83 9.7625 28.16 8.0625 28.5 C7.0725 27.18 6.0825 25.86 5.0625 24.5 C3.5775 25.5209375 3.5775 25.5209375 2.0625 26.5625 C-2.34300457 29.078652 -5.07689047 28.79616254 -9.9375 27.5 C-12 25.8125 -12 25.8125 -12.9375 23.5 C-12.81135482 20.40944316 -12.63415875 18.35547153 -10.65234375 15.921875 C-6.10029043 12.14750733 0.30513288 11.05712561 6.0625 11.5 C5.7325 8.86 5.4025 6.22 5.0625 3.5 C2.4225 3.17 -0.2175 2.84 -2.9375 2.5 C-3.9275 4.81 -4.9175 7.12 -5.9375 9.5 C-7.5875 9.17 -9.2375 8.84 -10.9375 8.5 C-10.62119942 5.57421963 -10.40309064 3.95473771 -8.26171875 1.86328125 C-5.35231533 0.15675723 -3.36018102 0.03389842 0 0 Z " fill="#595582" transform="translate(92.9375,134.5)"/>
<path d="M0 0 C3.63 0 7.26 0 11 0 C10.731875 0.886875 10.46375 1.77375 10.1875 2.6875 C9.23379289 8.76110841 12.63712127 14.56292611 15 20 C17.18521354 14.81011784 18.75658741 10.72844751 18 5 C16.14283813 2.09190457 16.14283813 2.09190457 14 0 C17.96 0 21.92 0 26 0 C25.34 1.65 24.68 3.3 24 5 C24.84036037 8.34332054 24.84036037 8.34332054 26.375 11.6875 C29 17.88502674 29 17.88502674 29 20 C29.66 20 30.32 20 31 20 C33.40383999 11.59072121 33.40383999 11.59072121 35 3 C34.34 2.67 33.68 2.34 33 2 C33 1.34 33 0.68 33 0 C36.3 0 39.6 0 43 0 C42.43796875 0.59167969 41.8759375 1.18335937 41.296875 1.79296875 C38.07043751 6.29790953 36.26801927 11.17542489 34.25 16.3125 C33.63318359 17.85260742 33.63318359 17.85260742 33.00390625 19.42382812 C31.99492675 21.94627687 30.99392835 24.47159136 30 27 C28.09277344 26.67016602 28.09277344 26.67016602 26 26 C23.8994254 22.14710396 22.55941869 18.11513266 21 14 C19.02 18.29 17.04 22.58 15 27 C14.01 27 13.02 27 12 27 C11.70754395 26.27820557 11.41508789 25.55641113 11.11376953 24.81274414 C9.79117385 21.55976735 8.45824108 18.31112738 7.125 15.0625 C6.66480469 13.92619141 6.20460938 12.78988281 5.73046875 11.61914062 C5.06337891 9.99975586 5.06337891 9.99975586 4.3828125 8.34765625 C3.97434082 7.34742432 3.56586914 6.34719238 3.14501953 5.31665039 C2.22009565 2.85851537 2.22009565 2.85851537 0 2 C0 1.34 0 0.68 0 0 Z " fill="#F18D10" transform="translate(26,16)"/>
<path d="M0 0 C1 1 1 1 1.0625 4.0625 C1.041875 5.031875 1.02125 6.00125 1 7 C-0.32 7.33 -1.64 7.66 -3 8 C-3.66 6.68 -4.32 5.36 -5 4 C-6.65 4 -8.3 4 -10 4 C-12.48713484 7.79511014 -12.33220864 11.68323934 -12.3125 16.0625 C-12.32861328 16.78244141 -12.34472656 17.50238281 -12.36132812 18.24414062 C-12.39854915 20.61051907 -12.39854915 20.61051907 -12 24 C-11.01 24.99 -10.02 25.98 -9 27 C-13.29 27 -17.58 27 -22 27 C-21.67 26.34 -21.34 25.68 -21 25 C-20.01 25 -19.02 25 -18 25 C-18.08060591 21.37407004 -18.19346817 17.74985598 -18.3125 14.125 C-18.33505859 13.09246094 -18.35761719 12.05992188 -18.38085938 10.99609375 C-18.41630859 10.00996094 -18.45175781 9.02382813 -18.48828125 8.0078125 C-18.51446533 7.09660645 -18.54064941 6.18540039 -18.56762695 5.24658203 C-18.71031006 4.50520996 -18.85299316 3.76383789 -19 3 C-19.99 2.34 -20.98 1.68 -22 1 C-19.04335481 -0.4783226 -16.25770263 -0.06032783 -13 0 C-12.67 0.99 -12.34 1.98 -12 3 C-11.566875 2.525625 -11.13375 2.05125 -10.6875 1.5625 C-7.23009294 -1.63880284 -4.30677036 -0.93625443 0 0 Z " fill="#F08805" transform="translate(108,16)"/>
<path d="M0 0 C0.99 0 1.98 0 3 0 C3 1.98 3 3.96 3 6 C5.31 6 7.62 6 10 6 C10 6.66 10 7.32 10 8 C7.69 8 5.38 8 3 8 C3.33 15.26 3.66 22.52 4 30 C5.98 30 7.96 30 10 30 C9.67 30.99 9.34 31.98 9 33 C2.74074074 34.44444444 2.74074074 34.44444444 -0.1875 32.6875 C-3.02428874 28.48122704 -2.67726791 24.2156182 -2.75 19.25 C-2.77964844 18.26644531 -2.80929688 17.28289062 -2.83984375 16.26953125 C-2.91042411 13.84627224 -2.96317701 11.42396846 -3 9 C-3.99 8.67 -4.98 8.34 -6 8 C-6 7.34 -6 6.68 -6 6 C-4.34997172 4.64613064 -2.6825613 3.31321858 -1 2 C-0.67 1.34 -0.34 0.68 0 0 Z " fill="#595683" transform="translate(113,129)"/>
<path d="M0 0 C1.134375 0.020625 2.26875 0.04125 3.4375 0.0625 C3.45208252 0.7738208 3.46666504 1.4851416 3.48168945 2.21801758 C3.55611006 5.43756332 3.65279 8.65606518 3.75 11.875 C3.77255859 12.99455078 3.79511719 14.11410156 3.81835938 15.26757812 C3.85380859 16.34072266 3.88925781 17.41386719 3.92578125 18.51953125 C3.95196533 19.50928955 3.97814941 20.49904785 4.00512695 21.51879883 C4.25191506 24.45553001 4.25191506 24.45553001 7.4375 27.0625 C3.1475 27.0625 -1.1425 27.0625 -5.5625 27.0625 C-5.2325 26.4025 -4.9025 25.7425 -4.5625 25.0625 C-3.5725 25.0625 -2.5825 25.0625 -1.5625 25.0625 C-1.67204408 21.43685813 -1.8027496 17.81228569 -1.9375 14.1875 C-1.9684375 13.15496094 -1.999375 12.12242188 -2.03125 11.05859375 C-2.06992188 10.07246094 -2.10859375 9.08632813 -2.1484375 8.0703125 C-2.1798584 7.15910645 -2.2112793 6.24790039 -2.24365234 5.30908203 C-2.36132511 2.86318814 -2.36132511 2.86318814 -4.5625 1.0625 C-3.5625 0.0625 -3.5625 0.0625 0 0 Z " fill="#F18B0D" transform="translate(76.5625,15.9375)"/>
<path d="M0 0 C2.0625 0.4375 2.0625 0.4375 4 1 C4.05379226 3.95857409 4.09357093 6.91617721 4.125 9.875 C4.14175781 10.71675781 4.15851563 11.55851562 4.17578125 12.42578125 C4.18222656 13.23144531 4.18867187 14.03710938 4.1953125 14.8671875 C4.20578613 15.61081543 4.21625977 16.35444336 4.22705078 17.12060547 C4 19 4 19 2 21 C-0.625 20.625 -0.625 20.625 -3 20 C-4.85605379 14.43183863 -4.7539167 8.86840225 -2.5625 3.4375 C-1 1 -1 1 0 0 Z " fill="#FDF8FA" transform="translate(86,96)"/>
<path d="M0 0 C2.0625 0.4375 2.0625 0.4375 4 1 C4.05379226 3.95857409 4.09357093 6.91617721 4.125 9.875 C4.14175781 10.71675781 4.15851563 11.55851562 4.17578125 12.42578125 C4.18222656 13.23144531 4.18867188 14.03710938 4.1953125 14.8671875 C4.20578613 15.61081543 4.21625977 16.35444336 4.22705078 17.12060547 C4 19 4 19 2 21 C0 20.8125 0 20.8125 -2 20 C-4.70559821 15.94160269 -4.53642523 12.76471821 -4 8 C-3.13067868 5.13760053 -2.15586174 2.15586174 0 0 Z " fill="#FDF7F9" transform="translate(147,96)"/>
<path d="M0 0 C0.48404255 6.29255319 0.48404255 6.29255319 -1.625 9.375 C-4.5062915 11.34640997 -6.52253835 11.85202291 -10 12 C-10.99 11.34 -11.98 10.68 -13 10 C-13.4375 7.0625 -13.4375 7.0625 -13 4 C-9.13706431 0.13706431 -5.26255833 -0.11694574 0 0 Z " fill="#F7F7F9" transform="translate(99,148)"/>
<path d="M0 0 C2.5625 0.3125 2.5625 0.3125 4.4375 1.5 C5.5625 3.3125 5.5625 3.3125 5.3125 5.9375 C4.5625 8.3125 4.5625 8.3125 3.5625 9.3125 C0.625 9.5 0.625 9.5 -2.4375 9.3125 C-4.4375 7.3125 -4.4375 7.3125 -4.6875 4.8125 C-4.34234788 1.3609788 -3.44095645 0.44114826 0 0 Z " fill="#EA4D84" transform="translate(32.4375,79.6875)"/>
<path d="M0 0 C3.29714793 0.32971479 4.6226839 0.6226839 7 3 C6.44444444 7.55555556 6.44444444 7.55555556 5 9 C2.0625 9.1875 2.0625 9.1875 -1 9 C-1.66 8.34 -2.32 7.68 -3 7 C-2.67028521 3.70285207 -2.3773161 2.3773161 0 0 Z " fill="#7C84BF" transform="translate(117,40)"/>
<path d="M0 0 C1 1 1 1 1.0625 4.0625 C1.041875 5.031875 1.02125 6.00125 1 7 C-0.32 7.33 -1.64 7.66 -3 8 C-3.3403125 7.0409375 -3.3403125 7.0409375 -3.6875 6.0625 C-4.85250896 3.72806339 -4.85250896 3.72806339 -7.625 3.25 C-8.40875 3.1675 -9.1925 3.085 -10 3 C-9.67 2.01 -9.34 1.02 -9 0 C-5.50340123 -1.16553292 -3.55568859 -0.77297578 0 0 Z " fill="#F1911A" transform="translate(108,16)"/>
<path d="M0 0 C1.32 0.33 2.64 0.66 4 1 C3.51098901 7.35714286 3.51098901 7.35714286 1.0625 10.4375 C-1 12 -1 12 -3 12 C-2.14285714 3.42857143 -2.14285714 3.42857143 0 0 Z " fill="#FCF0F4" transform="translate(178,96)"/>
<path d="M0 0 C1.32 0.33 2.64 0.66 4 1 C3.39169139 7.44807122 3.39169139 7.44807122 1.625 9.9375 C0 11 0 11 -3 11 C-2.53199289 6.94393835 -2.12046792 3.53411321 0 0 Z " fill="#FCF4F7" transform="translate(17,96)"/>
<path d="M0 0 C1.32 0 2.64 0 4 0 C4.625 2.375 4.625 2.375 5 5 C4.34 5.66 3.68 6.32 3 7 C0.875 6.625 0.875 6.625 -1 6 C-1.625 4.125 -1.625 4.125 -2 2 C-1.34 1.34 -0.68 0.68 0 0 Z " fill="#5A5683" transform="translate(72,156)"/>
<path d="M0 0 C1.65 0.33 3.3 0.66 5 1 C4.67 2.65 4.34 4.3 4 6 C2.35 5.67 0.7 5.34 -1 5 C-0.67 3.35 -0.34 1.7 0 0 Z " fill="#F19018" transform="translate(75,3)"/>
</svg>
