<?xml version="1.0" encoding="UTF-8" standalone="no"?>
<!-- Created with Inkscape (http://www.inkscape.org/) -->

<svg
   viewBox="0 0 344.28774 36.340257"
   version="1.1"
   id="svg5"
   xml:space="preserve"
   inkscape:version="1.2.2 (b0a8486541, 2022-12-01)"
   sodipodi:docname="2025-10-27-Nixon.svg"
   xmlns:inkscape="http://www.inkscape.org/namespaces/inkscape"
   xmlns:sodipodi="http://sodipodi.sourceforge.net/DTD/sodipodi-0.dtd"
   xmlns="http://www.w3.org/2000/svg"
   xmlns:svg="http://www.w3.org/2000/svg"><sodipodi:namedview
     id="namedview7"
     pagecolor="#ffffff"
     bordercolor="#000000"
     borderopacity="0.25"
     inkscape:showpageshadow="2"
     inkscape:pageopacity="0.0"
     inkscape:pagecheckerboard="0"
     inkscape:deskcolor="#d1d1d1"
     inkscape:document-units="mm"
     showgrid="false"
     inkscape:zoom="0.73673541"
     inkscape:cx="612.83874"
     inkscape:cy="71.260319"
     inkscape:window-width="1920"
     inkscape:window-height="1008"
     inkscape:window-x="0"
     inkscape:window-y="0"
     inkscape:window-maximized="1"
     inkscape:current-layer="layer1" /><defs
     id="defs2" /><g
     inkscape:label="Ebene 1"
     inkscape:groupmode="layer"
     id="layer1"
     transform="translate(65.142956,-129.91847)"><rect
       style="fill:#ffffff;stroke:#ffffff;stroke-width:0.465414"
       id="rect277"
       width="343.82233"
       height="35.874844"
       x="-64.910248"
       y="130.15117" /><g
       id="g209"
       transform="translate(9.6965031,4.668658)"><path
         style="fill:#e8989d;stroke-width:0.264583"
         d="m -28.960689,161.55814 -1.027105,-0.001 -0.851895,-0.51942 -0.851892,-0.51942 -0.786005,-1.08505 -0.786006,-1.08505 -0.662088,-2.03256 -0.662091,-2.03256 -0.418581,-2.71887 -0.418582,-2.71886 7.94e-4,-5.23466 7.94e-4,-5.23467 0.422111,-3.02668 0.422111,-3.02668 0.529547,-1.5875 0.529548,-1.5875 0.617958,-1.05833 0.617959,-1.05833 0.804984,-0.76526 0.804987,-0.76525 1.291471,-0.1241 1.291468,-0.12409 0.823889,0.42605 0.823888,0.42605 0.679003,0.89021 0.679,0.89022 0.6638,1.63362 0.663803,1.63363 0.564353,3.09883 0.564354,3.09884 0.02357,6.08541 0.02358,6.08542 -0.493041,2.77812 -0.49304,2.77813 -0.641919,1.71979 -0.641919,1.71979 -0.686588,0.99334 -0.686589,0.99334 -0.854342,0.52802 -0.854342,0.52801 -1.027102,-0.001 z m 0.347162,-6.72552 0.410401,-0.77339 0.21916,-3.59224 0.219159,-3.59224 0.0062,-4.49791 0.0062,-4.49792 -0.251312,-2.58351 -0.251312,-2.58352 -0.384408,-0.72377 -0.384408,-0.72378 -0.454802,1.05833 -0.454803,1.05833 -0.250958,5.95313 -0.250957,5.95312 0.271661,4.13186 0.271661,4.13186 0.434099,1.02752 0.434099,1.02751 0.410401,-0.77338 z m 43.635365,6.70974 -1.088798,-0.0168 -0.543631,-0.22017 -0.543634,-0.22017 -0.840481,-0.95725 -0.840483,-0.95726 -0.371737,-0.72403 -0.371737,-0.72403 -0.6597519,-2.11667 -0.6597518,-2.11667 -0.354756,-2.77812 -0.3547533,-2.77813 0.011589,-4.49791 0.011589,-4.49792 0.3255909,-2.64583 0.3255936,-2.64584 0.5300927,-1.9764 0.5300958,-1.97641 0.675516,-1.24115 0.675518,-1.24115 0.911527,-0.88349 0.911526,-0.88348 h 1.55811 1.558111 l 0.964689,0.92604 0.964692,0.92604 0.741682,1.45812 0.74168,1.45811 0.560628,2.58761 0.560626,2.58761 0.29864,4.06552 0.298641,4.06552 -0.285004,4.0868 -0.285007,4.08679 -0.58007,2.48634 -0.580072,2.48633 -0.753145,1.45521 -0.753147,1.45521 -0.33741,0.40309 -0.337409,0.40309 -0.763285,0.5891 -0.763287,0.58909 -1.088797,-0.0168 z m -0.146759,-6.06865 H 15.0719 l 0.305244,-0.85989 0.305245,-0.8599 0.244144,-3.70417 0.244144,-3.70416 0.0035,-4.23334 0.0035,-4.23333 -0.268454,-2.38125 -0.268454,-2.38125 -0.279062,-0.8599 -0.279058,-0.85989 h -0.190913 -0.190913 l -0.326969,0.90422 -0.32697,0.90421 -0.246438,2.73381 -0.246441,2.7338 -7.93e-4,5.42396 -7.94e-4,5.42396 0.251587,1.93757 0.251589,1.93757 0.311291,1.03899 0.31129,1.03899 h 0.196818 z m 36.628795,6.08344 h -1.058333 l -0.795793,-0.4853 -0.795792,-0.48531 -0.676717,-0.90277 -0.676717,-0.90277 -0.588386,-1.4712 -0.588385,-1.4712 -0.545124,-2.49755 -0.545124,-2.49755 -0.137665,-5.89392 -0.137663,-5.89393 0.45879,-3.2342 0.45879,-3.2342 0.490411,-1.5875 0.490408,-1.5875 0.868442,-1.44634 0.868442,-1.44633 0.899022,-0.60419 0.899025,-0.60418 0.953058,5.3e-4 0.953061,5.3e-4 0.926042,0.46261 0.926042,0.46261 0.855977,1.28081 0.855977,1.2808 0.63894,2.02649 0.638937,2.02648 0.46038,4.10104 0.460378,4.10105 -0.157784,4.49791 -0.157787,4.49792 -0.389803,2.32391 -0.389805,2.3239 -0.556927,1.67357 -0.556929,1.67357 -0.779161,1.22861 -0.779161,1.22861 -0.865365,0.52761 -0.865367,0.52762 h -1.058334 z m 0.356804,-6.64253 0.371155,-0.89612 0.253066,-2.24895 0.253066,-2.24896 -0.109495,-7.80521 -0.109493,-7.80521 -0.480343,-1.45521 -0.48034,-1.45521 -0.543899,1.19063 -0.543899,1.19062 -0.107071,8.61309 -0.107074,8.61308 0.293743,1.89321 0.29374,1.89321 0.322847,0.70857 0.322845,0.70857 z m 13.803445,6.64451 h -2.111626 l -0.1133,-0.59531 -0.1133,-0.59532 -0.703154,-6.08541 -0.703151,-6.08542 -0.649042,-5.42396 -0.649041,-5.42396 -0.545584,-4.36562 -0.545582,-4.36563 -0.147378,-1.52135 -0.147378,-1.52135 h 2.509821 2.509825 l 0.303178,3.77031 0.303181,3.77031 0.295759,4.89479 0.295759,4.89479 0.227232,0.39688 0.227232,0.39687 0.0079,-1.19062 0.0079,-1.19063 0.527897,-5.29166 0.527897,-5.29167 0.199869,-2.51354 0.199871,-2.51354 2.262881,-0.0757 2.262881,-0.0757 0.592399,6.42568 0.5924,6.42569 0.317886,3.175 0.317886,3.175 0.186394,-2.51354 0.186393,-2.51355 0.542325,-6.87916 0.542322,-6.87917 7.93e-4,-0.19844 7.94e-4,-0.19843 h 2.337152 2.337155 l 0.130212,0.13021 0.130212,0.13021 -0.209907,1.65573 -0.209905,1.65572 -0.670888,5.68854 -0.670886,5.68854 -0.668194,5.55625 -0.668197,5.55625 -0.592797,4.8948 -0.592799,4.89479 h -2.111518 -2.111515 l -0.200493,-1.85209 -0.200491,-1.85208 -0.659405,-6.09781 -0.659551,-6.09782 -0.02275,-1.04593 -0.02275,-1.04594 -0.222081,0.73928 -0.22208,0.73927 -0.30285,3.49406 -0.30285,3.49406 -0.509464,4.36562 -0.509463,4.36563 -0.0013,0.46302 -0.0013,0.46302 h -2.111626 z m 20.177938,-0.0209 -1.529853,-0.0209 -0.727604,-0.26574 -0.727604,-0.26575 v -2.47237 -2.47238 l 1.446525,0.1493 1.446524,0.14929 0.659752,-0.43229 0.659754,-0.43228 0.299115,-1.11083 0.299116,-1.11083 -0.421193,-2.26332 -0.42119,-2.26332 -0.948825,-2.51354 -0.948825,-2.51354 -0.951195,-2.91042 -0.951196,-2.91041 -0.01312,-3.70417 -0.01312,-3.70417 0.622028,-1.38685 0.62203,-1.38685 1.011706,-0.91402 1.011708,-0.91401 1.139476,-0.30833 1.139473,-0.30833 1.626026,0.12912 1.626029,0.12912 0.2922,0.18059 0.292204,0.18059 v 2.36057 2.36057 l -1.18364,-0.16223 -1.183643,-0.16224 -0.662935,0.43437 -0.662937,0.43438 -0.433128,0.83758 -0.433131,0.83757 0.121989,2.1365 0.121986,2.13649 1.388213,3.96875 1.388213,3.96875 0.803222,2.64583 0.80322,2.64583 0.02845,2.91042 0.02845,2.91042 -0.622964,1.38685 -0.622962,1.38685 -1.055923,0.95396 -1.05592,0.95397 -0.888325,0.37116 -0.888323,0.37117 -1.529853,-0.0209 z m 80.226979,0.0209 h -1.1118 l -1.03278,-0.74813 -1.03275,-0.74812 -0.76946,-1.56698 -0.76946,-1.56698 -0.61579,-2.38125 -0.61579,-2.38125 -0.26525,-2.91042 -0.26527,-2.91041 0.003,-2.77813 0.003,-2.77812 0.2522,-3.04271 0.25223,-3.04271 0.66196,-2.60948 0.66194,-2.60947 0.67905,-1.15873 0.67908,-1.15872 0.68151,-0.68152 0.68149,-0.68151 0.64873,-0.24664 0.64871,-0.24664 h 0.86968 0.86969 l 0.88866,0.59887 0.88868,0.59887 0.73403,1.05477 0.73401,1.05478 0.6351,1.98438 0.63511,1.98437 0.3561,1.98438 0.35611,1.98437 -0.006,7.14375 -0.006,7.14375 -0.34176,1.70811 -0.34179,1.7081 -0.64386,1.99606 -0.64389,1.99607 -0.73401,1.05478 -0.73403,1.05477 -0.88868,0.59887 -0.88866,0.59887 h -1.11178 z m 0.11486,-5.98562 0.2092,-0.23209 0.31777,-0.92604 0.31776,-0.92604 0.27287,-5.42396 0.27284,-5.42396 -0.16955,-3.83646 -0.16957,-3.83646 -0.40547,-1.78302 -0.40551,-1.78301 -0.22272,-0.13765 -0.2227,-0.13765 -0.30025,0.90978 -0.30025,0.90977 -0.24556,2.33381 -0.24553,2.33381 -0.003,6.35 -0.003,6.35 0.27471,1.71979 0.27469,1.71979 0.27173,1.02584 0.27173,1.02585 0.2092,-0.2321 z m 53.64078,5.97973 -1.01254,0.006 -0.7734,-0.7734 -0.7734,-0.7734 v -1.13035 -1.13035 l 0.71096,-0.74209 0.71096,-0.74208 h 1.16147 1.16146 l 0.77341,0.7734 0.7734,0.7734 v 0.83149 0.8315 l -0.29554,0.57792 -0.29556,0.57792 -0.56433,0.45713 -0.56436,0.45714 -1.01253,0.006 z m 13.50163,0.006 -1.11202,-2.1e-4 -1.12392,-0.55633 -1.12395,-0.55634 -0.74665,-0.96481 -0.74668,-0.96481 -0.55021,-0.92604 -0.55017,-0.92604 -0.65982,-2.11667 -0.65982,-2.11666 -0.34239,-2.51354 -0.34237,-2.51355 -0.007,-3.96875 -0.007,-3.96875 0.33147,-2.38125 0.3315,-2.38125 0.79234,-2.38125 0.79238,-2.38125 0.98374,-1.43593 0.98373,-1.43593 0.97242,-0.77715 0.97242,-0.77716 1.17901,-0.13289 1.17901,-0.13289 0.95742,0.31598 0.95742,0.31597 v 2.33556 2.33555 l -1.07174,-0.14375 -1.07178,-0.14376 -0.79078,0.75763 -0.79079,0.75762 -0.51287,1.72641 -0.51287,1.72641 -0.2704,2.24202 -0.27043,2.24201 0.005,3.31424 0.004,3.31423 0.26456,2.51249 0.26458,2.51249 0.42109,1.50073 0.42108,1.50074 0.7361,0.88157 0.7361,0.88156 1.21949,-0.0254 1.21949,-0.0254 v 2.4303 2.43029 l -0.67392,0.30705 -0.6739,0.30706 -1.11204,-2.1e-4 z m 9.70944,-7.9e-4 -1.08476,0.001 -1.07355,-0.77767 -1.07352,-0.77766 -0.81976,-1.66973 -0.81976,-1.66973 -0.72257,-3.04271 -0.72258,-3.04271 -0.003,-7.01146 -0.003,-7.01146 0.61502,-2.91041 0.61503,-2.91042 0.65227,-1.44405 0.65228,-1.44404 0.66461,-0.87134 0.66461,-0.87133 0.76692,-0.3966 0.76694,-0.3966 1.00532,10e-4 1.00533,0.001 0.83344,0.5082 0.83344,0.5082 0.78814,1.14551 0.78814,1.14551 0.69175,2.18982 0.69176,2.18982 0.39624,3.36537 0.39626,3.36538 0.003,3.83808 0.003,3.83808 -0.397,3.3939 -0.39701,3.3939 -0.69752,2.02844 -0.69755,2.02843 -0.78399,1.14446 -0.78401,1.14446 -0.83344,0.5082 -0.83343,0.5082 -1.0848,0.001 z m 0.34486,-6.5843 0.37465,-0.89674 0.2676,-1.44752 0.26757,-1.44753 -0.0998,-8.76823 -0.0998,-8.76823 -0.48639,-1.29596 -0.48641,-1.29595 -0.36237,0.6916 -0.36237,0.69161 -0.2884,2.85331 -0.28839,2.8533 0.12369,7.40834 0.12369,7.40833 0.47104,1.45521 0.47104,1.45521 z m -315.688675,6.32071 h -2.526604 V 143.43517 125.5758 h 2.351209 2.351206 l 0.169506,1.25677 0.169502,1.25677 0.686928,4.23333 0.686924,4.23333 0.622321,3.43959 0.622321,3.43958 -0.128029,-4.89479 -0.128026,-4.89479 -0.162111,-4.0349 -0.162107,-4.03489 h 2.545593 2.545596 v 17.85937 17.85938 h -2.227934 -2.227938 l -0.151347,-0.72761 -0.151347,-0.7276 -0.37756,-2.51354 -0.37756,-2.51355 -0.570974,-3.43958 -0.570973,-3.43958 -0.483934,-2.51354 -0.483931,-2.51355 0.104315,3.43959 0.104314,3.43958 0.148622,5.75469 0.148619,5.75469 z m 16.126521,0 h -2.513542 V 143.43517 125.5758 h 2.513542 2.513542 v 17.85937 17.85938 z m 8.180877,0 h -2.492335 v -0.41894 -0.41894 l 0.499668,-2.02846 0.499666,-2.02846 0.857104,-3.83645 0.857105,-3.83646 0.623189,-2.63052 0.623191,-2.63052 -0.7943,-3.4549 -0.7943,-3.4549 -0.516269,-2.24895 -0.516265,-2.24896 -0.669396,-2.86545 -0.669393,-2.86545 v -0.3757 -0.37569 h 2.492335 2.492333 l 0.395245,1.78593 0.395245,1.78594 0.339183,1.56451 0.33918,1.56451 0.06211,-0.24159 0.06211,-0.2416 0.717087,-3.10885 0.717087,-3.10885 h 2.476334 2.47633 v 0.24601 0.24602 l -0.803005,3.5243 -0.803002,3.52429 -0.378505,1.71979 -0.378505,1.71979 -0.781286,3.43094 -0.781283,3.43093 0.625245,2.78678 0.625248,2.78677 0.661458,2.91042 0.661458,2.91041 0.676087,3.01665 0.67609,3.01663 v 0.22451 0.22451 h -2.47633 -2.476334 l -0.717087,-3.10886 -0.717087,-3.10885 -0.06211,-0.2416 -0.06211,-0.24159 -0.33918,1.56451 -0.339183,1.56451 -0.395245,1.78594 -0.395245,1.78594 z m 31.416086,0 h -2.423004 V 143.42518 125.5555 l 2.296067,0.0765 2.296068,0.0764 0.742074,4.49791 0.742074,4.49792 0.660567,4.10104 0.660569,4.10104 0.114999,0.66146 0.114998,0.66146 -0.106881,-4.36562 -0.106878,-4.36563 -0.159565,-4.96094 -0.159565,-4.96093 h 2.5381531 2.5381533 v 17.85937 17.85938 H -9.066951 -11.29715 l -0.28067,-1.38907 -0.280668,-1.38906 -0.378267,-2.51354 -0.378267,-2.51354 -0.573026,-3.43959 -0.573024,-3.43958 -0.334703,-1.85208 -0.334704,-1.85209 0.134451,9.19427 0.134451,9.19428 z m 16.35411017,0 H -2.6200261 l -0.1263783,-0.33073 -0.1263782,-0.33073 0.068538,-17.4625 0.068535,-17.4625 4.1671876,-0.0729 4.1671875,-0.0729 v 2.38797 2.38797 H 3.8788735 2.1590818 v 5.55625 5.55625 h 1.7197917 1.7197917 v 2.38125 2.38125 H 3.8788735 2.1590818 v 7.54062 7.54063 z m 28.98017783,0 h -3.836458 v -17.86931 -17.8693 l 2.447396,0.0761 2.447396,0.0761 0.06829,15.27968 0.0683,15.27969 h 1.320765 1.320769 v 2.51354 2.51355 z m 11.254722,0 h -3.97868 V 143.43517 125.5758 h 2.513542 2.513541 v 15.332 15.33201 l 1.389063,0.08 1.389062,0.08 0.07608,2.4474 0.07607,2.4474 z m 61.241111,0 H 98.732 V 145.81642 130.3383 h -1.719792 -1.719791 v -2.38632 -2.38631 l 5.886983,0.0712 5.88698,0.0712 v 2.24896 2.24895 l -1.65365,0.0788 -1.65365,0.0788 v 15.46551 15.4655 z m 11.64167,0 h -2.51354 V 143.43517 125.5758 h 2.51354 2.51354 v 7.9375 7.9375 h 1.05833 1.05834 v -7.9375 -7.9375 h 2.51354 2.51354 v 17.85937 17.85938 h -2.51354 -2.51354 v -7.40834 -7.40833 h -1.05834 -1.05833 v 7.40833 7.40834 z m 17.79323,-0.0594 -4.16719,0.0729 v -17.87281 -17.87281 l 4.16719,0.0729 4.16719,0.0729 0.0764,2.3151 0.0764,2.31511 h -1.73009 -1.7301 v 5.54362 5.54363 l 1.65365,0.0788 1.65365,0.0788 0.0775,2.22629 0.0776,2.2263 -0.34213,0.21705 -0.34213,0.21704 -1.38906,0.004 -1.38907,0.004 v 5.02708 5.02709 h 1.7301 1.73009 l -0.0764,2.3151 -0.0764,2.3151 z m 9.59114,0.0594 h -2.38125 v -0.75686 -0.75687 l 0.38703,-3.54261 0.38702,-3.54262 0.67943,-6.48229 0.67943,-6.4823 0.50906,-4.49791 0.50905,-4.49792 0.15928,-1.98437 0.15927,-1.98438 0.12234,-0.59531 0.12234,-0.59531 h 1.98764 1.98764 l 0.0955,0.33072 0.0955,0.33073 0.32863,4.63021 0.32863,4.63021 0.30678,3.83646 0.30678,3.83646 0.17796,-1.32292 0.17796,-1.32292 0.27703,-3.43958 0.27704,-3.43958 0.2701,-3.175 0.2701,-3.175 0.1352,-0.8599 0.13519,-0.85989 h 1.94293 1.94294 l 0.14791,0.85989 0.1479,0.8599 0.41725,4.23333 0.41722,4.23333 0.51078,4.8948 0.51077,4.89479 0.16362,1.85208 0.16362,1.85208 0.50414,4.7625 0.50411,4.7625 0.147,1.25677 0.14698,1.25678 h -2.49513 -2.4951 l -0.15841,-2.05053 -0.1584,-2.05052 -0.2589,-3.57187 -0.25889,-3.57188 -0.18598,-2.38125 -0.186,-2.38125 -0.45639,3.175 -0.45639,3.175 -0.68765,4.7048 -0.68766,4.70479 v 0.12385 0.12386 h -0.90821 -0.90821 l -0.12929,-0.46303 -0.12928,-0.46302 -0.28651,-2.24895 -0.28651,-2.24896 -0.67253,-4.89479 -0.67253,-4.8948 -0.0768,-0.26458 -0.0769,-0.26458 -0.30921,4.10104 -0.30922,4.10104 -0.26323,3.55862 -0.26324,3.55862 v 0.21169 0.2117 z m 38.38949,0 h -2.40615 V 143.43517 125.5758 h 2.21901 2.21898 l 0.29403,1.65364 0.29403,1.65365 1.06214,6.74687 1.06215,6.74688 0.11697,0.39687 0.117,0.39688 -0.14756,-8.7974 -0.14756,-8.79739 h 2.40853 2.40853 v 17.85937 17.85938 l -2.18281,-1.6e-4 -2.18282,-1.6e-4 -1.17345,-7.07745 -1.17345,-7.07744 -0.46673,-2.77813 -0.46672,-2.77812 0.11258,2.24896 0.11255,2.24895 0.16346,7.60677 0.16343,7.60678 z m 17.96676,0 H 192.3945 V 143.43517 125.5758 h 4.23333 4.23334 v 2.38125 2.38125 h -1.71979 -1.7198 v 5.54362 5.54363 l 1.65365,0.0788 1.65365,0.0788 v 2.38125 2.38125 l -1.65365,0.0788 -1.65365,0.0788 v 5.01446 5.01446 h 1.7198 1.71979 v 2.38125 2.38125 z m 13.09688,0 h -2.51354 v -8.67567 -8.67566 l -0.36536,-1.44465 -0.36534,-1.44465 -0.98446,-4.63021 -0.98444,-4.63021 -0.47924,-1.98437 -0.47924,-1.98438 -0.17859,-1.12448 -0.1786,-1.12447 h 2.51487 2.51489 l 0.2998,1.38906 0.29983,1.38906 0.44,2.77813 0.43997,2.77812 0.23157,-1.19062 0.23156,-1.19063 0.59013,-2.91042 0.59012,-2.91041 2.45417,-0.0764 2.45417,-0.0764 -0.17693,1.13473 -0.17692,1.13474 -0.63675,2.77813 -0.63674,2.77812 -1.19571,5.49201 -1.19568,5.49201 v 8.46476 8.46477 z m 43.4984,0 h -2.36032 l 0.15237,-1.52136 0.15238,-1.52135 0.49405,-4.36563 0.49403,-4.36562 0.17042,-1.85209 0.17042,-1.85208 0.62103,-5.82083 0.62103,-5.82084 0.46405,-4.29948 0.46403,-4.29947 h 2.06917 2.06915 l 2.1e-4,0.46302 2.4e-4,0.46302 0.2544,2.77812 0.25439,2.77813 0.28099,4.36562 0.28101,4.36563 0.18704,1.19062 0.18706,1.19063 0.16163,-2.11667 0.16166,-2.11667 0.61952,-6.68073 0.61953,-6.68072 h 2.06803 2.06804 l 0.007,0.59531 0.007,0.59531 0.23577,2.38125 0.23579,2.38125 0.55936,5.42396 0.55935,5.42396 0.65956,6.48229 0.65953,6.48229 0.25794,2.42635 0.25794,2.42634 v 0.56015 0.56014 l -2.4474,-0.0761 -2.44739,-0.0761 -0.30618,-4.6302 -0.30617,-4.63021 -0.20024,-3.04271 -0.20026,-3.04271 -0.20995,0.66146 -0.20992,0.66146 -0.94586,6.61458 -0.94586,6.61458 -0.14155,0.46302 -0.14155,0.46303 h -0.85794 -0.85794 l -0.72173,-5.22553 -0.72173,-5.22552 -0.34039,-2.51354 -0.34036,-2.51354 -0.16909,1.19063 -0.16907,1.19062 -0.41553,5.55625 -0.41553,5.55625 -0.1466,0.99219 -0.14661,0.99219 h -2.36029 z"
         id="path223" /><path
         style="fill:#e27a80;stroke-width:0.264583"
         d="m -28.960689,161.55814 -1.027105,-0.001 -0.829249,-0.50565 -0.829249,-0.50565 -0.670981,-0.88242 -0.670978,-0.88242 -0.677352,-1.80354 -0.677349,-1.80353 -0.425056,-2.26838 -0.425053,-2.26837 -0.175493,-3.46872 -0.17549,-3.46865 0.17171,-3.70416 0.171709,-3.70417 0.423995,-2.40274 0.423997,-2.40275 0.685853,-1.6983 0.685853,-1.69829 0.667316,-0.88243 0.667319,-0.88242 0.829249,-0.52137 0.829249,-0.52136 1.245616,0.1071 1.245619,0.10711 0.917207,0.69959 0.91721,0.69959 0.845074,1.78772 0.845074,1.78772 0.483169,2.40009 0.483166,2.40009 0.279247,2.72117 0.279243,2.72117 -0.0046,2.94853 -0.0046,2.94853 -0.26044,2.51354 -0.26044,2.51354 -0.422757,2.11667 -0.422754,2.11667 -0.554386,1.32291 -0.554384,1.32292 -0.645245,0.99244 -0.645247,0.99244 -0.855798,0.52892 -0.855797,0.52891 -1.027102,-0.001 z m 0.385072,-6.62403 0.384098,-0.91561 0.21082,-3.57187 0.210823,-3.57188 0.0084,-4.6302 0.0084,-4.63021 -0.231671,-2.38125 -0.231672,-2.38125 -0.332796,-0.72761 -0.332795,-0.7276 h -0.177721 -0.177723 l -0.331452,0.99219 -0.331451,0.99218 -0.27182,6.04571 -0.271817,6.04572 0.26642,4.00845 0.266419,4.00846 0.475769,1.18018 0.475768,1.18019 0.384098,-0.9156 z m 43.808666,6.52758 -1.035425,0.1284 -0.926042,-0.50077 -0.926042,-0.50076 -0.855977,-1.25854 -0.855977,-1.25854 -0.6393078,-2.02649 -0.6393048,-2.02649 -0.4229471,-2.85228 -0.4229444,-2.85228 v -4.74094 -4.74094 l 0.4075351,-3.10884 0.4075324,-3.10884 0.6870066,-1.99794 0.687006,-1.99794 0.742567,-1.08423 0.742566,-1.08424 0.740659,-0.4853 0.740661,-0.4853 1.238798,-0.018 1.2388,-0.018 0.747496,0.55451 0.747498,0.55451 0.723667,1.03299 0.72367,1.03299 0.635093,1.98438 0.635092,1.98437 0.35914,1.98438 0.359138,1.98437 0.0019,7.01146 0.0019,7.01146 -0.364813,1.85208 -0.364813,1.85208 -0.631311,1.98438 -0.631309,1.98437 -0.72367,1.03299 -0.723667,1.03299 -0.684366,0.50775 -0.684364,0.50774 -1.035428,0.12839 z m -0.34449,-5.72339 h 0.220324 l 0.464921,-1.52136 0.46492,-1.52135 0.0055,-9.26042 0.0055,-9.26042 -0.470411,-1.52135 -0.470413,-1.52135 h -0.244756 -0.244755 l -0.286229,0.99218 -0.286226,0.99219 -0.279572,2.38125 -0.279569,2.38125 0.119954,7.40833 0.119954,7.40834 0.470276,1.52135 0.470275,1.52136 h 0.220324 z m 36.6946,5.7848 -0.608451,-0.036 -0.606341,-0.11611 -0.60634,-0.11611 -0.864116,-0.86412 -0.864116,-0.86411 -0.745723,-1.56343 -0.745723,-1.56344 -0.644421,-3.0427 -0.644425,-3.04271 -0.152286,-4.78513 -0.152284,-4.78513 0.311563,-3.02008 0.311563,-3.02008 0.50511,-2.14728 0.505111,-2.14727 0.68412,-1.4246 0.684117,-1.4246 0.650518,-0.7404 0.650515,-0.7404 0.970497,-0.4055 0.970495,-0.4055 0.899057,0.16866 0.899056,0.16867 1.005015,0.90797 1.005012,0.90796 0.724524,1.61446 0.724525,1.61445 0.498403,2.42357 0.498404,2.42356 0.312113,4.03838 0.312113,4.03837 -0.302033,3.91048 -0.302035,3.91049 -0.421145,2.22009 -0.421145,2.2201 -0.787302,1.73636 -0.787302,1.73636 -0.714632,0.75216 -0.714629,0.75216 -0.714465,0.37326 -0.714465,0.37325 z m 0.03499,-5.90596 0.210008,-0.1298 0.367025,-1.26358 0.367022,-1.26359 v -9.78958 -9.78959 l -0.563944,-1.19062 -0.563946,-1.19063 -0.460179,1.05834 -0.460177,1.05833 -0.259614,4.23333 -0.259617,4.23334 0.144687,5.42396 0.144685,5.42395 0.439303,1.45521 0.439301,1.45521 0.122722,0.20275 0.122719,0.20276 z m 14.129573,5.88698 -1.895731,0.0773 -0.147784,-0.23912 -0.147785,-0.23912 -0.259765,-2.21941 -0.259766,-2.21941 -0.94475,-7.80521 -0.944748,-7.80521 -0.527698,-4.49792 -0.527696,-4.49791 -0.391461,-2.99012 -0.391459,-2.99011 v -0.26096 -0.26096 l 2.447396,0.0761 2.447395,0.0761 0.291839,4.10104 0.291838,4.10104 0.341003,5.15938 0.341003,5.15937 0.185621,0.35609 0.185621,0.35609 0.176921,-2.73734 0.176924,-2.73734 0.53053,-5.55625 0.530526,-5.55625 0.146773,-1.38906 0.146769,-1.38906 h 2.085639 2.085639 l 0.142,0.85989 0.141999,0.8599 0.402331,4.49791 0.40233,4.49792 0.419857,4.36563 0.419854,4.36562 0.08009,0.0842 0.08009,0.0842 0.18501,-2.59773 0.18501,-2.59774 0.56864,-7.14375 0.56864,-7.14375 2.315104,-0.0764 2.315104,-0.0765 v 0.39172 0.39171 l -0.652539,5.50557 -0.652539,5.50556 -0.811872,6.74688 -0.811874,6.74687 -0.5241,4.63021 -0.5241,4.63021 -0.149177,0.7276 -0.149177,0.72761 H 73.712894 71.75458 l -0.122285,-0.59531 -0.122285,-0.59532 -0.287922,-3.175 -0.287925,-3.175 -0.60924,-5.82083 -0.60924,-5.82083 -0.172271,1.05833 -0.172267,1.05833 -0.428096,4.49792 -0.428099,4.49792 -0.435745,3.96875 -0.435747,3.96875 z m 20.713534,-0.0679 -1.355302,0.0965 -1.124479,-0.26697 -1.124479,-0.26697 v -2.32158 -2.32158 l 0.154784,-0.15479 0.154784,-0.15478 0.795938,0.27746 0.795935,0.27747 1.054161,-0.31584 1.054158,-0.31583 0.408443,-0.97542 0.40844,-0.97543 -0.149789,-1.79572 -0.149791,-1.79573 -1.217282,-3.49594 -1.217284,-3.49594 -0.940853,-2.91042 -0.940851,-2.91041 -0.02803,-3.175 -0.02802,-3.175 0.339757,-1.16182 0.339757,-1.16182 0.635299,-1.00638 0.635299,-1.00638 1.242073,-0.7279 1.242073,-0.72791 1.740398,-0.007 1.740395,-0.007 0.727604,0.19652 0.727604,0.19651 v 2.34371 2.34371 l -1.206521,-0.13599 -1.206521,-0.136 -0.668137,0.35758 -0.668134,0.35757 -0.392697,0.75939 -0.392697,0.7594 0.0057,1.80867 0.0057,1.80868 0.400706,1.54233 0.400706,1.54233 1.094243,3.04271 1.094242,3.0427 0.65695,2.11667 0.656953,2.11667 0.141248,3.078 0.141247,3.078 -0.430463,1.29601 -0.430464,1.296 -0.817264,0.99149 -0.817263,0.99148 -1.066504,0.54409 -1.066504,0.54409 -1.355299,0.0965 z m 79.743624,0.10611 -0.66559,-0.0168 -0.66146,-0.26298 -0.66145,-0.26299 -0.75227,-0.71243 -0.75229,-0.71243 -0.59814,-1.19063 -0.59812,-1.19062 -0.55745,-2.11667 -0.55745,-2.11666 -0.28117,-1.79305 -0.28117,-1.79305 0.005,-5.87987 0.005,-5.87987 0.38357,-2.51354 0.38354,-2.51354 0.54596,-1.75992 0.54594,-1.75993 0.85731,-1.26374 0.8573,-1.26374 0.7475,-0.54821 0.7475,-0.54821 1.26132,0.0184 1.26133,0.0184 0.83444,0.59416 0.83441,0.59416 0.69409,1.18436 0.69408,1.18436 0.62362,1.96385 0.62365,1.96385 0.40309,3.83844 0.4031,3.83843 v 3.11638 3.11638 l -0.41201,3.54099 -0.41201,3.54098 -0.6504,2.05891 -0.65043,2.05891 -0.86254,1.25165 -0.86257,1.25165 -0.91485,0.49065 -0.91485,0.49063 -0.66558,-0.0168 z m -0.006,-5.80406 h 0.17772 l 0.32298,-0.99219 0.32295,-0.99219 0.27683,-4.10104 0.27683,-4.10104 -0.12535,-5.42396 -0.12534,-5.42396 -0.46223,-1.78594 -0.4622,-1.78593 h -0.18997 -0.18994 l -0.31943,0.70111 -0.31946,0.70111 -0.28014,2.14316 -0.28012,2.14316 -0.0268,6.74687 -0.0268,6.74688 0.31303,2.02419 0.31302,2.02419 0.31338,0.68779 0.31337,0.68779 z m 53.94873,5.70426 -0.89784,0.12705 -0.52917,-0.30429 -0.52916,-0.30429 -0.45715,-0.56085 -0.45712,-0.56084 -0.006,-1.01254 -0.006,-1.01254 0.7734,-0.7734 0.7734,-0.7734 h 0.9261 0.92607 l 0.81407,0.68498 0.81404,0.68498 v 1.25327 1.25328 l -0.62352,0.58577 -0.62351,0.58576 -0.89784,0.12706 z m 13.72026,0.0193 -1.12435,0.10223 -1.02531,-0.37954 -1.02534,-0.37955 -0.90988,-0.87968 -0.90987,-0.87968 -0.74465,-1.32292 -0.74467,-1.32292 -0.55962,-1.71979 -0.55962,-1.71979 -0.3937,-2.77812 -0.3937,-2.77813 -0.005,-4.03664 -0.005,-4.03663 0.39706,-2.64357 0.39706,-2.64357 0.56099,-1.65417 0.561,-1.65417 0.80576,-1.43209 0.80579,-1.4321 1.04391,-1.01307 1.04389,-1.01308 1.07085,-0.28835 1.07087,-0.28835 0.95004,0.17751 0.95007,0.17751 0.33073,0.2733 0.33073,0.27331 v 2.19138 2.19139 l -1.02018,-0.13684 -1.02021,-0.13684 -0.56645,0.30315 -0.56644,0.30316 -0.53253,1.04384 -0.53253,1.04385 -0.45317,1.79158 -0.45318,1.79157 -0.007,6.4823 -0.007,6.48229 0.34989,1.85148 0.34988,1.85147 0.66731,1.22605 0.6673,1.22604 0.62198,0.33289 0.62199,0.33288 0.94051,-0.15263 0.94052,-0.15262 v 2.33222 2.33222 l -0.39701,0.32949 -0.39704,0.3295 -1.12432,0.10223 z m 9.63673,-0.004 -0.9715,0.10781 -0.79375,-0.36812 -0.79375,-0.36812 -0.71265,-0.75983 -0.71263,-0.75982 -0.66582,-1.45584 -0.66583,-1.45584 -0.52845,-2.24833 -0.52845,-2.24832 -0.27588,-2.74002 -0.27591,-2.74001 2.1e-4,-2.81624 2.4e-4,-2.81623 0.27405,-2.91042 0.27406,-2.91042 0.5534,-2.38125 0.55338,-2.38125 0.74181,-1.47813 0.74184,-1.47813 0.9384,-0.82392 0.93837,-0.82392 0.90461,-0.16971 0.90461,-0.16971 1.15157,0.50957 1.15157,0.50956 0.74459,1.07487 0.74457,1.07487 0.62801,1.81337 0.62804,1.81337 0.46329,3.0427 0.46331,3.04271 v 5.55625 5.55625 l -0.47437,2.90824 -0.47437,2.90824 -0.62907,1.67131 -0.62908,1.67131 -0.70604,0.9822 -0.70601,0.9822 -0.6436,0.48547 -0.6436,0.48548 -0.97152,0.1078 z m -0.31107,-5.87767 0.24389,-0.24389 0.45109,-1.71743 0.45109,-1.71742 0.0228,-8.46667 0.0228,-8.46667 -0.4739,-1.71743 -0.47387,-1.71742 -0.24389,-0.24389 -0.24389,-0.24389 -0.29438,0.77069 -0.2944,0.77069 -0.27577,1.45521 -0.27578,1.45521 -0.0217,7.9375 -0.0217,7.9375 0.29742,1.45521 0.29739,1.45521 0.2944,0.77068 0.29438,0.77069 0.24389,-0.24388 z m -315.373748,5.71395 h -2.40642 l -0.126378,-0.33073 -0.126378,-0.33073 0.06854,-17.4625 0.06853,-17.4625 2.252221,-0.0755 2.252218,-0.0755 0.900247,5.63178 0.900245,5.63178 0.616236,3.43958 0.616236,3.43958 -0.134887,-5.42395 -0.13489,-5.42396 -0.161999,-3.63802 -0.161999,-3.63802 h 2.547458 2.547456 v 17.85937 17.85938 h -2.248958 -2.248959 v -0.18177 -0.18176 l -1.081227,-6.63126 -1.081228,-6.63126 -0.493361,-2.51354 -0.493358,-2.51354 0.116176,3.83646 0.116176,3.83646 0.15236,5.4901 0.152361,5.49011 z m 16.122719,0 h -2.389555 l -0.126379,-0.33073 -0.126378,-0.33073 0.06854,-17.4625 0.06854,-17.4625 2.447396,-0.0761 2.447396,-0.0761 v 17.8693 17.86931 z m 8.051536,0 h -2.486983 v -0.40493 -0.40493 l 0.646131,-2.70393 0.646131,-2.70392 0.676785,-2.97657 0.676786,-2.97656 0.677683,-2.85372 0.677682,-2.85372 -0.662355,-2.76868 -0.662355,-2.76867 -0.692113,-3.04271 -0.692113,-3.04271 -0.646131,-2.70392 -0.646131,-2.70393 v -0.40493 -0.40492 h 2.471684 2.471688 l 0.593563,2.71197 0.593564,2.71198 0.181615,0.61248 0.181618,0.61247 0.762632,-3.32445 0.762633,-3.32445 h 2.472793 2.472793 v 0.2245 0.22451 l -0.645737,2.88434 -0.645739,2.88435 -1.323737,5.82084 -1.323739,5.82083 0.616241,2.77813 0.616241,2.77812 0.706985,3.04271 0.706985,3.04271 0.64625,2.88435 0.64625,2.88434 v 0.22451 0.22451 h -2.468483 -2.468483 l -0.794946,-3.37344 -0.794943,-3.37344 -0.312492,1.45521 -0.312489,1.45521 -0.419391,1.91823 -0.419391,1.91823 z m 31.421438,0 h -2.423004 v -17.86968 -17.86968 l 2.312471,0.0765 2.312469,0.0764 0.184227,1.19062 0.184227,1.19063 0.835353,5.15937 0.83535,5.15938 0.49633,2.91041 0.496329,2.91042 -0.128701,-5.55625 -0.128699,-5.55625 -0.163388,-3.77031 -0.163388,-3.77031 h 2.5491278 2.5491256 v 17.85937 17.85938 h -2.2279346 -2.2279368 l -0.146857,-0.72761 -0.146857,-0.7276 -1.084197,-6.74688 -1.084193,-6.74687 -0.34185,-1.71979 -0.34185,-1.7198 0.138425,9.19427 0.138425,9.19428 z m 16.3624128,0 h -2.38125 v -17.86627 -17.86627 l 4.0348959,0.073 4.0348959,0.073 0.076446,2.3151 0.076449,2.31511 H 3.8891738 2.1590818 v 5.54362 5.54363 l 1.6536459,0.0788 1.6536459,0.0788 0.076446,2.3151 0.076449,2.31511 H 3.8891738 2.1590818 v 7.54062 7.54063 z m 28.9718752,0 H 24.913249 V 143.43517 125.5758 h 2.379117 2.379118 l 0.06828,15.41197 0.06828,15.41198 1.389062,0.08 1.389063,0.08 v 2.36742 2.36743 z m 11.244792,0 h -3.704167 v -17.86968 -17.86968 l 2.315105,0.0765 2.315104,0.0764 0.06828,15.41198 0.06828,15.41198 h 1.320784 1.320784 v 2.38125 2.38125 z m 61.317195,-0.0558 -2.315111,0.0764 V 145.82672 130.3383 H 97.276792 95.557 v -2.38125 -2.38125 h 5.68854 5.68854 v 2.38125 2.38125 h -1.58536 -1.58537 l -0.0683,15.41197 -0.0683,15.41198 z m 11.56309,0.0558 h -2.25314 l -0.12638,-0.33073 -0.12637,-0.33073 0.0685,-17.4625 0.0685,-17.4625 2.3151,-0.0764 2.31511,-0.0765 v 7.94781 7.9478 h 1.32291 1.32292 v -7.9375 -7.9375 h 2.38125 2.38125 v 17.85937 17.85938 h -2.37713 -2.37713 l -0.0703,-7.47448 -0.0703,-7.47448 h -1.19063 -1.19062 l -0.0703,7.47448 -0.0703,7.47448 z m 17.8635,0 h -3.97705 l -0.12638,-0.33073 -0.12638,-0.33073 0.0685,-17.4625 0.0685,-17.4625 4.0349,-0.073 4.03489,-0.073 v 2.38814 2.38815 h -1.71979 -1.71979 v 5.54362 5.54363 l 1.65365,0.0788 1.65364,0.0788 0.0763,2.30221 0.0763,2.30222 -1.66376,0.079 -1.66376,0.079 -0.0719,5.09323 -0.0719,5.09323 h 1.72551 1.7255 v 2.38125 2.38125 z m 9.46716,-0.0558 -2.31511,0.0764 v -0.44707 -0.44707 l 0.39383,-3.46584 0.39381,-3.46583 0.66315,-6.28401 0.66314,-6.28401 0.66948,-6.2837 0.66949,-6.2837 0.15612,-1.38906 0.15612,-1.38906 h 1.95389 1.95389 v 0.35836 0.35835 l 0.5136,6.05779 0.5136,6.05779 0.18447,2.85176 0.18447,2.85175 0.0851,-0.0851 0.0851,-0.0851 0.27843,-2.8989 0.27842,-2.89891 0.39989,-4.89479 0.39988,-4.89479 0.16241,-1.38906 0.1624,-1.38906 h 1.91376 1.91379 l 0.17007,1.52135 0.17008,1.52135 0.38634,3.96875 0.38637,3.96875 0.53676,5.29167 0.53676,5.29167 0.5248,4.89479 0.52483,4.89479 0.17489,2.19368 0.17492,2.19368 -2.35405,-0.077 -2.35405,-0.077 -0.30708,-3.83645 -0.30707,-3.83646 -0.19294,-3.70417 -0.19291,-3.70417 -0.17647,-0.48779 -0.17645,-0.48779 -1.17002,8.09456 -1.17002,8.09457 h -0.8655 -0.8655 l -0.005,-0.0661 -0.005,-0.0661 -0.50061,-3.83645 -0.50062,-3.83646 -0.59639,-4.29993 -0.59639,-4.29994 -0.062,0.0666 -0.062,0.0666 -0.43092,5.55625 -0.43091,5.55625 -0.191,2.51354 -0.19099,2.51354 -2.3151,0.0764 z m 38.46621,0.0558 h -2.41673 V 143.43517 125.5758 h 2.24896 2.24895 v 0.33072 0.33073 l 0.6735,4.23334 0.6735,4.23333 0.66286,4.18236 0.66289,4.18235 0.23434,0.58015 0.23434,0.58014 -0.11269,-3.175 -0.11268,-3.175 -0.13851,-6.1619 -0.13849,-6.1619 2.31781,0.0765 2.3178,0.0765 v 17.72708 17.72708 l -2.04272,0.0771 -2.04271,0.0771 -0.13298,-0.6063 -0.13295,-0.6063 -1.47672,-8.99583 -1.47669,-8.99584 -0.11661,-0.26458 -0.11657,-0.26458 0.13509,5.82083 0.1351,5.82083 0.16365,4.0349 0.16361,4.0349 h -2.41673 z m 17.94788,0 h -3.97706 l -0.12637,-0.33073 -0.12639,-0.33073 0.0686,-17.4625 0.0685,-17.4625 4.0349,-0.073 4.03489,-0.073 v 2.38814 2.38815 h -1.71979 -1.71979 v 5.54362 5.54363 l 1.65365,0.0788 1.65364,0.0788 0.0763,2.30221 0.0763,2.30222 -1.66375,0.079 -1.66376,0.079 v 5.02708 5.02708 l 1.65365,0.0788 1.65364,0.0788 v 2.36863 2.36863 z m 13.17133,-0.0558 -2.31511,0.0764 v -8.21519 -8.21518 l -1.04714,-4.69356 -1.04717,-4.69355 -1.0695,-4.82655 -1.06952,-4.82656 v -0.13438 -0.13438 h 2.47311 2.47312 l 0.74287,4.23646 0.74284,4.23646 0.0853,-0.0853 0.0853,-0.0853 0.67603,-3.68812 0.67607,-3.68811 0.14152,-0.46302 0.14153,-0.46302 h 2.36341 2.36342 v 0.1319 0.13191 l -1.71926,7.87174 -1.71926,7.87174 -0.18227,0.52916 -0.1823,0.52917 -0.14896,9.26042 -0.14899,9.26041 z m 43.5901,0.0558 H 251.132 v -1.09629 -1.0963 l 0.65297,-5.84902 0.65294,-5.84902 0.67894,-6.48229 0.67892,-6.48229 0.39712,-3.83646 0.39708,-3.83646 0.12814,-0.59531 0.12814,-0.59531 h 1.97935 1.97932 v 0.62137 0.62137 l 0.40632,5.66248 0.40632,5.66248 0.24802,2.88127 0.24805,2.88127 0.0782,0.0782 0.0782,0.0782 0.63119,-7.19284 0.63119,-7.19283 0.15759,-1.98438 0.15756,-1.98437 1.91032,-0.0776 1.91031,-0.0776 0.12325,0.60675 0.12321,0.60674 0.15492,1.71979 0.15491,1.71979 0.78872,7.67292 0.78873,7.67292 0.66296,6.74687 0.66294,6.74688 0.16023,1.12448 0.16021,1.12448 h -2.39025 -2.39022 l -0.14925,-1.65365 -0.14928,-1.65365 -0.44934,-6.41186 -0.44934,-6.41186 -0.0946,0.0946 -0.0946,0.0946 -0.52835,3.40683 -0.52834,3.40684 -0.38436,2.8736 -0.38436,2.8736 -0.29692,1.70501 -0.29691,1.70501 -0.81926,-0.0807 -0.81928,-0.0807 -0.45837,-3.30729 -0.45836,-3.30729 -0.57631,-4.49792 -0.57632,-4.49791 -0.23302,-0.25136 -0.23302,-0.25135 -0.004,1.44198 -0.004,1.44198 -0.52324,6.48229 -0.52322,6.48229 -0.003,0.19844 -0.003,0.19844 h -2.24896 z"
         id="path221" /><path
         style="fill:#9d9d9d;stroke-width:0.264583"
         d="m -28.960689,161.55814 -1.027105,-0.001 -0.829249,-0.50565 -0.829249,-0.50565 -0.670981,-0.88242 -0.670978,-0.88242 -0.677352,-1.80354 -0.677349,-1.80353 -0.425056,-2.26838 -0.425053,-2.26837 -0.175493,-3.46872 -0.17549,-3.46865 0.17171,-3.70416 0.171709,-3.70417 0.423995,-2.40274 0.423997,-2.40275 0.685853,-1.6983 0.685853,-1.69829 0.667316,-0.88243 0.667319,-0.88242 0.829249,-0.52137 0.829249,-0.52136 1.245616,0.1071 1.245619,0.10711 0.917207,0.69959 0.91721,0.69959 0.845074,1.78772 0.845074,1.78772 0.483169,2.40009 0.483166,2.40009 0.279247,2.72117 0.279243,2.72117 -0.0046,2.94853 -0.0046,2.94853 -0.26044,2.51354 -0.26044,2.51354 -0.422757,2.11667 -0.422754,2.11667 -0.554386,1.32291 -0.554384,1.32292 -0.645245,0.99244 -0.645247,0.99244 -0.855798,0.52892 -0.855797,0.52891 -1.027102,-0.001 z m 0.385072,-6.62403 0.384098,-0.91561 0.21082,-3.57187 0.210823,-3.57188 0.0084,-4.6302 0.0084,-4.63021 -0.231671,-2.38125 -0.231672,-2.38125 -0.332796,-0.72761 -0.332795,-0.7276 h -0.177721 -0.177723 l -0.331452,0.99219 -0.331451,0.99218 -0.27182,6.04571 -0.271817,6.04572 0.26642,4.00845 0.266419,4.00846 0.475769,1.18018 0.475768,1.18019 0.384098,-0.9156 z m -43.604657,6.36044 h -2.40642 l -0.126378,-0.33073 -0.126378,-0.33073 0.06854,-17.4625 0.06853,-17.4625 2.252221,-0.0755 2.252218,-0.0755 0.900247,5.63178 0.900245,5.63178 0.616236,3.43958 0.616236,3.43958 -0.134887,-5.42395 -0.13489,-5.42396 -0.161999,-3.63802 -0.161999,-3.63802 h 2.547458 2.547456 v 17.85937 17.85938 h -2.248958 -2.248959 v -0.18177 -0.18176 l -1.081227,-6.63126 -1.081228,-6.63126 -0.493361,-2.51354 -0.493358,-2.51354 0.116176,3.83646 0.116176,3.83646 0.15236,5.4901 0.152361,5.49011 z m 16.122719,0 h -2.389555 l -0.126379,-0.33073 -0.126378,-0.33073 0.06854,-17.4625 0.06854,-17.4625 2.447396,-0.0761 2.447396,-0.0761 v 17.8693 17.86931 z m 8.051536,0 h -2.486983 v -0.40493 -0.40493 l 0.646131,-2.70393 0.646131,-2.70392 0.676785,-2.97657 0.676786,-2.97656 0.677683,-2.85372 0.677682,-2.85372 -0.662355,-2.76868 -0.662355,-2.76867 -0.692113,-3.04271 -0.692113,-3.04271 -0.646131,-2.70392 -0.646131,-2.70393 v -0.40493 -0.40492 h 2.471684 2.471688 l 0.593563,2.71197 0.593564,2.71198 0.181615,0.61248 0.181618,0.61247 0.762632,-3.32445 0.762633,-3.32445 h 2.472793 2.472793 v 0.2245 0.22451 l -0.645737,2.88434 -0.645739,2.88435 -1.323737,5.82084 -1.323739,5.82083 0.616241,2.77813 0.616241,2.77812 0.706985,3.04271 0.706985,3.04271 0.64625,2.88435 0.64625,2.88434 v 0.22451 0.22451 h -2.468483 -2.468483 l -0.794946,-3.37344 -0.794943,-3.37344 -0.312492,1.45521 -0.312489,1.45521 -0.419391,1.91823 -0.419391,1.91823 z m 31.421438,0 h -2.423004 v -17.86968 -17.86968 l 2.312471,0.0765 2.312469,0.0764 0.184227,1.19062 0.184227,1.19063 0.835353,5.15937 0.83535,5.15938 0.49633,2.91041 0.496329,2.91042 -0.128701,-5.55625 -0.128699,-5.55625 -0.163388,-3.77031 -0.163388,-3.77031 h 2.5491278 2.5491256 v 17.85937 17.85938 h -2.2279346 -2.2279368 l -0.146857,-0.72761 -0.146857,-0.7276 -1.084197,-6.74688 -1.084193,-6.74687 -0.34185,-1.71979 -0.34185,-1.7198 0.138425,9.19427 0.138425,9.19428 z m 16.3624128,0 h -2.38125 v -17.86627 -17.86627 l 4.0348959,0.073 4.0348959,0.073 0.076446,2.3151 0.076449,2.31511 H 3.8891738 2.1590818 v 5.68854 5.68854 h 1.7197917 1.7197917 v 2.24896 2.24896 H 3.8788735 2.1590818 v 7.54062 7.54063 z m 15.2593862,-10e-4 -1.368761,-0.001 -0.839025,-0.5116 -0.839026,-0.51159 -0.665036,-1.14106 -0.665032,-1.14106 -0.657281,-1.98438 -0.6572805,-1.98437 -0.4183486,-3.26542 -0.418346,-3.26529 0.00212,-4.01062 0.00212,-4.01062 0.2618687,-2.38125 0.2618687,-2.38125 0.4276672,-1.98437 0.4276646,-1.98438 0.7212019,-1.5875 0.721198,-1.5875 0.785175,-0.83341 0.785175,-0.83341 0.976919,-0.26974 0.976921,-0.26974 0.895424,0.24724 0.895421,0.24723 0.701839,0.55207 0.701837,0.55207 0.752181,1.49447 0.752181,1.49447 0.557668,2.24896 0.557667,2.24896 0.265626,3.04271 0.265629,3.0427 v 3.04271 3.04271 l -0.267044,3.01713 -0.267044,3.01712 -0.53974,2.11395 -0.539739,2.11395 -0.764434,1.51434 -0.764434,1.51434 -0.82807,0.69677 -0.828069,0.69678 -1.368763,-0.001 z m -0.200086,-5.55519 h 0.201594 l 0.319225,-0.70063 0.319225,-0.70062 0.244243,-1.87907 0.244242,-1.87906 0.0029,-7.27604 0.0029,-7.27604 -0.255222,-1.76445 -0.255222,-1.76445 -0.311171,-0.68294 -0.311174,-0.68295 H 14.842441 14.64621 l -0.300307,0.85989 -0.300305,0.8599 -0.257874,1.81473 -0.257871,1.81473 -0.0016,7.18111 -0.0016,7.18109 0.283113,1.5875 0.283112,1.5875 0.271203,0.8599 0.271203,0.8599 h 0.201597 z m 14.036564,5.55625 h -3.712472 l -0.126378,-0.33073 -0.126378,-0.33073 0.06854,-17.4625 0.06854,-17.4625 2.315104,-0.0764 2.315104,-0.0765 v 15.48843 15.48843 h 1.455208 1.455209 v 2.38125 2.38125 z m 11.120803,0 H 36.290332 V 143.43517 125.5758 h 2.246826 2.246826 l 0.06828,15.41197 0.06828,15.41198 1.389062,0.08 1.389063,0.08 v 2.36742 2.36743 z m 11.50093,0 H 50.05019 l -1.021562,-0.92292 -1.021561,-0.92292 -0.731642,-1.63032 -0.731642,-1.63031 -0.632179,-3.06916 -0.632177,-3.06917 -0.16305,-4.23333 -0.163049,-4.23333 0.303583,-3.27393 0.303583,-3.27392 0.506526,-2.32082 0.506526,-2.32082 0.786517,-1.549 0.786519,-1.54901 0.772522,-0.73282 0.77252,-0.73281 0.891535,-0.25569 0.891532,-0.25569 0.949923,0.25579 0.94992,0.25579 0.836284,0.865 0.836282,0.86501 0.686607,1.50263 0.686607,1.50263 0.575649,2.73071 0.575646,2.7307 0.004,7.54062 0.004,7.54063 -0.58012,2.63247 -0.580117,2.63247 -0.809519,1.64437 -0.809522,1.64437 -0.929812,0.81639 -0.929812,0.81639 h -1.445242 z m -0.0086,-5.55625 h 0.142242 l 0.424506,-0.99219 0.424505,-0.99219 0.266214,-4.23333 0.26621,-4.23334 -0.137933,-5.29166 -0.137932,-5.29167 -0.430586,-1.5875 -0.430588,-1.5875 -0.244866,-0.24528 -0.244867,-0.24528 -0.423397,1.01332 -0.423394,1.01333 -0.239435,2.27466 -0.239434,2.27467 -0.0047,6.13241 -0.0047,6.13242 0.287462,2.06678 0.287462,2.06677 0.360495,0.86279 0.360497,0.86279 h 0.14224 z m 14.171983,5.55625 h -2.010698 l -0.733642,-6.01928 -0.733642,-6.01927 -0.650336,-5.42395 -0.650335,-5.42396 -0.640501,-5.29167 -0.6405,-5.29167 -0.07889,-1.05833 -0.07889,-1.05833 2.307506,-0.0763 2.307505,-0.0763 0.125833,0.60551 0.125831,0.6055 0.153627,2.77813 0.153631,2.77812 0.407045,5.82083 0.407046,5.82084 0.205833,0.66146 0.205832,0.66145 0.193154,-2.77812 0.193156,-2.77813 0.641776,-6.61458 0.641779,-6.61458 1.19e-4,-0.46302 1.11e-4,-0.46302 h 2.086626 2.086623 l 0.164923,1.12447 0.16492,1.12448 0.393023,4.51743 0.39302,4.51742 0.397552,3.94925 0.39755,3.94924 5.29e-4,0.50712 5.29e-4,0.50711 0.129442,-0.12944 0.129442,-0.12944 0.414386,-5.80163 0.414387,-5.80164 0.317133,-4.10104 0.317132,-4.10104 2.31404,-0.0764 2.314038,-0.0765 v 0.32977 0.32976 l -0.388059,3.18627 -0.388059,3.18626 -0.682202,5.68855 -0.682199,5.68854 -0.381256,3.175 -0.381259,3.175 -0.53606,4.63021 -0.536056,4.6302 -0.158538,0.8599 -0.158536,0.8599 h -1.942941 -1.942939 l -0.128675,-0.8599 -0.128675,-0.8599 -0.670337,-6.48229 -0.670335,-6.48229 -0.176147,-2.05749 -0.176146,-2.05749 -0.114618,0.11462 -0.11462,0.11462 -0.483507,4.45641 -0.48351,4.45641 -0.476203,4.82865 -0.476202,4.82865 h -2.010699 z m 20.277148,-0.0209 -2.152912,-0.0209 -0.330729,-0.13346 -0.330729,-0.13345 v -2.35414 -2.35414 l 1.124479,0.15022 1.124479,0.15022 0.714931,-0.2762 0.714933,-0.27621 0.443725,-0.85807 0.443725,-0.85807 -0.13898,-2.02767 -0.138981,-2.02768 -1.112806,-3.14489 -1.112808,-3.1449 -0.914733,-2.75258 -0.914734,-2.75259 -0.194762,-2.22134 -0.194763,-2.22133 0.202968,-2.09958 0.202969,-2.09958 0.513453,-0.99629 0.513451,-0.99629 0.883081,-0.84367 0.883081,-0.84366 0.788324,-0.29735 0.788321,-0.29735 h 1.613273 1.61327 l 0.70726,0.17751 0.707261,0.17751 v 2.38088 2.38087 l -0.421455,-0.16173 -0.421455,-0.16172 -0.608383,-0.1527 -0.60838,-0.15269 -0.817769,0.42288 -0.817769,0.42289 -0.393784,0.76149 -0.393785,0.7615 -0.160671,1.01996 -0.160668,1.01996 0.533074,2.51355 0.533078,2.51354 1.0365,2.77812 1.036499,2.77813 0.766337,2.51354 0.766339,2.51354 v 3.30729 3.30729 l -0.816012,1.45521 -0.816012,1.45521 -1.264409,0.8599 -1.264412,0.85989 -2.15291,-0.0209 z m 15.30958,0.0209 H 98.996583 V 145.81642 130.3383 H 97.276792 95.557 v -2.38125 -2.38125 h 5.68854 5.68854 v 2.38125 2.38125 h -1.71979 -1.71979 v 15.47812 15.47813 z m 11.64167,0 h -2.24896 V 143.43517 125.5758 h 2.24508 2.24508 l 0.07,8.00364 0.07,8.00365 h 1.19062 1.19063 l 0.07,-8.00365 0.07,-8.00364 h 2.37737 2.37737 v 17.85937 17.85938 h -2.38125 -2.38125 v -7.54063 -7.54062 h -1.32292 -1.32291 v 7.54062 7.54063 z m 17.85937,0 h -3.96875 V 143.43517 125.5758 h 3.96875 3.96875 v 2.38125 2.38125 h -1.72505 -1.72505 l 0.0714,5.62239 0.0714,5.6224 1.65365,0.0788 1.65364,0.0788 v 2.23633 2.23634 h -1.71979 -1.71979 v 5.15937 5.15938 h 1.71979 1.71979 v 2.38125 2.38125 z m 9.35171,0 h -2.27988 l 0.15357,-1.12448 0.15357,-1.12448 0.40785,-3.83646 0.40785,-3.83646 0.66085,-6.21771 0.66085,-6.21771 0.67696,-6.35 0.67696,-6.35 0.1128,-0.33073 0.11281,-0.33072 h 1.86038 1.86039 v 0.4995 0.49951 l 0.51232,6.31351 0.51232,6.31352 0.17518,2.59774 0.17519,2.59773 0.093,-0.093 0.093,-0.093 0.41281,-4.22456 0.41281,-4.22457 0.39253,-4.89479 0.39254,-4.89479 0.002,-0.21003 0.002,-0.21003 1.91823,0.0777 1.91823,0.0777 0.31488,2.77812 0.31485,2.77813 0.68519,6.87916 0.68519,6.87917 0.6408,6.21771 0.64077,6.21771 0.17195,1.91823 0.17195,1.91823 h -2.2475 -2.2475 l -0.13724,-0.35762 -0.13722,-0.35761 -0.4582,-7.64603 -0.45818,-7.64604 -0.18629,-0.211 -0.1863,-0.211 -0.48248,3.386 -0.4825,3.386 -0.69404,4.7625 -0.69403,4.7625 -0.8188,0.0807 -0.8188,0.0807 -0.29392,-2.19739 -0.29392,-2.19738 -0.65691,-4.89479 -0.65692,-4.89479 -0.18329,-1.19063 -0.18329,-1.19062 -0.18049,1.32291 -0.18048,1.32292 -0.45563,6.35 -0.45563,6.35 -0.11628,0.59531 -0.11628,0.59532 h -2.27989 z m 26.04822,0 h -1.51484 l -0.88236,-0.77472 -0.88236,-0.77472 -0.70213,-1.40809 -0.70215,-1.4081 -0.54774,-2.11667 -0.54771,-2.11666 -0.29044,-2.64584 -0.29043,-2.64583 0.13727,-5.82083 0.13726,-5.82084 0.30523,-1.5875 0.30525,-1.5875 0.65719,-1.98437 0.6572,-1.98438 0.71845,-1.03298 0.71843,-1.03299 0.68966,-0.5117 0.68966,-0.5117 1.18409,-0.0179 1.18409,-0.0179 0.85275,0.50374 0.85278,0.50374 0.74838,1.19115 0.7484,1.19113 0.57113,1.68685 0.5711,1.68685 0.42352,2.81107 0.42354,2.81107 0.005,5.82083 0.005,5.82083 -0.4426,2.59828 -0.44259,2.59827 -0.54361,1.63506 -0.54362,1.63506 -0.63494,0.97348 -0.63492,0.97349 -0.73354,0.68016 -0.73353,0.68016 h -1.51484 z m 0.0998,-5.49599 0.24617,-0.24615 0.40405,-1.42841 0.40404,-1.42841 0.14602,-7.54341 0.146,-7.54341 -0.29742,-2.21008 -0.29744,-2.21008 -0.31028,-1.03564 -0.31027,-1.03563 -0.2652,0.0884 -0.26516,0.0884 -0.36592,1.04344 -0.36589,1.04344 -0.28663,5.82063 -0.28665,5.82063 0.29131,4.23354 0.29128,4.23354 0.43791,1.27769 0.43794,1.27768 z m 12.24196,5.49599 h -2.23335 V 143.42447 125.5544 l 2.18096,0.0768 2.18096,0.0768 0.18759,1.19062 0.18759,1.19063 0.66553,4.10104 0.66551,4.10104 0.57597,3.70417 0.57597,3.70416 0.23503,0.25997 0.23503,0.25997 -0.19963,-7.93288 -0.19965,-7.93289 -0.007,-1.32292 -0.007,-1.32291 h 2.24896 2.24896 v 17.72708 17.72708 l -2.0192,0.0767 -2.01917,0.0767 -0.13869,-0.60588 -0.13869,-0.60588 -1.54628,-9.39271 -1.54631,-9.39271 -0.0775,0.79375 -0.0775,0.79375 0.24456,8.99584 0.24458,8.99583 -0.11658,0.19844 -0.11655,0.19844 z m 18.13956,0 h -3.96875 V 143.43517 125.5758 h 3.96875 3.96875 v 2.38125 2.38125 h -1.72505 -1.72506 l 0.0714,5.62239 0.0714,5.6224 1.65365,0.0788 1.65364,0.0788 v 2.23633 2.23634 h -1.71979 -1.71979 v 5.15937 5.15938 h 1.71979 1.71979 v 2.38125 2.38125 z m 13.09688,0 h -2.24896 v -8.31349 -8.31348 l -0.50157,-2.20371 -0.5016,-2.2037 -0.70196,-3.175 -0.70199,-3.175 -0.88496,-3.96875 -0.88495,-3.96875 0.19489,-0.20981 0.1949,-0.20981 2.21313,0.0775 2.21313,0.0775 0.30965,1.5875 0.30966,1.5875 0.45662,2.59633 0.45662,2.59633 0.13568,-0.13567 0.13565,-0.13567 0.4658,-2.59295 0.4658,-2.59296 0.31588,-1.52135 0.31589,-1.52135 h 2.39117 2.39117 l -0.18393,0.7276 -0.18397,0.7276 -0.49366,2.24896 -0.49369,2.24896 -0.81375,3.70417 -0.81375,3.70416 -0.65262,3.04271 -0.6526,3.04271 -0.003,8.13594 -0.003,8.13594 h -2.24896 z m 10.19077,0 h -1.28019 l -0.68497,-0.81406 -0.68498,-0.81404 0.006,-0.8396 0.006,-0.8396 0.45712,-0.56434 0.45714,-0.56435 0.57793,-0.29555 0.57791,-0.29555 h 0.69921 0.69919 l 0.7734,0.7734 0.77341,0.7734 v 1.043 1.04301 l -0.54838,0.69714 -0.54837,0.69714 h -1.28019 z m 13.34627,0 h -1.62951 l -1.07498,-0.77871 -1.07497,-0.7787 -0.80648,-1.17218 -0.80648,-1.17218 -0.66328,-1.76219 -0.66329,-1.76219 -0.42965,-2.17391 -0.42963,-2.1739 -0.14388,-4.40645 -0.14388,-4.40644 0.3276,-2.6028 0.32761,-2.60281 0.47443,-1.85499 0.47445,-1.855 0.71786,-1.51619 0.7179,-1.51619 1.05976,-1.20396 1.05976,-1.20396 0.80936,-0.41853 0.80934,-0.41853 h 1.23737 1.23738 l 0.5688,0.30442 0.56883,0.30442 v 2.1368 2.13681 l -0.8599,-0.16049 -0.85989,-0.16049 -0.82378,0.50206 -0.82378,0.50207 -0.55444,1.15033 -0.55441,1.15033 -0.40774,2.34977 -0.40773,2.34976 0.005,5.05857 0.005,5.05857 0.26384,1.85208 0.26384,1.85209 0.38251,1.32291 0.38248,1.32292 0.80698,0.87989 0.80698,0.87988 1.12112,-0.0816 1.12114,-0.0816 0.0778,2.23944 0.0778,2.23945 -0.45915,0.33573 -0.45914,0.33573 h -1.62951 z m 9.80046,0 h -1.43679 l -0.95224,-0.83608 -0.95223,-0.83608 -0.6286,-1.24045 -0.6286,-1.24046 -0.53155,-2.09065 -0.53154,-2.09066 -0.28448,-1.79426 -0.28448,-1.79425 0.005,-6.01095 0.005,-6.01096 0.39092,-2.39648 0.39092,-2.39649 0.53888,-1.74468 0.53888,-1.74469 0.8573,-1.26374 0.8573,-1.26375 0.68967,-0.50539 0.68966,-0.5054 1.18409,-0.0179 1.18409,-0.0179 0.78417,0.46323 0.78417,0.46323 0.60918,0.88901 0.60915,0.88902 0.64931,1.60751 0.64929,1.6075 0.37391,2.12669 0.37391,2.12668 0.31766,3.93333 0.31768,3.93332 -0.30363,3.93127 -0.30364,3.93127 -0.42439,2.2376 -0.42437,2.2376 -0.85687,1.85209 -0.85688,1.85208 -0.98177,0.8599 -0.98176,0.85989 h -1.43679 z m 0.29342,-5.94784 0.34497,-0.47175 0.33332,-1.48656 0.33332,-1.48656 0.009,-8.33438 0.009,-8.33437 -0.36655,-1.65206 -0.36653,-1.65206 -0.34382,-0.46461 -0.3438,-0.46461 -0.44694,1.05834 -0.44693,1.05833 -0.2576,4.36563 -0.25757,4.36562 0.14811,5.29167 0.14814,5.29166 0.43471,1.45521 0.43471,1.45521 0.14481,0.23852 0.14483,0.23852 0.34494,-0.47175 z m 9.86486,5.94784 H 251.059 l 0.17495,-2.05053 0.17494,-2.05052 0.65654,-6.08541 0.65651,-6.08542 0.40222,-3.70417 0.40222,-3.70416 0.51837,-5.15938 0.51834,-5.15937 0.15066,-0.8712 0.15065,-0.87121 1.9041,0.0775 1.90413,0.0774 0.17986,2.51354 0.17984,2.51354 0.44429,5.95313 0.44426,5.95312 0.20918,0.92604 0.2092,0.92604 0.0299,-0.79375 0.0299,-0.79375 0.3932,-4.6302 0.39319,-4.63021 0.27435,-2.91042 0.27437,-2.91042 0.13904,-1.12448 0.13904,-1.12447 h 1.81967 1.81967 l 0.14844,1.12447 0.14845,1.12448 0.5239,5.15938 0.52388,5.15937 0.66138,6.4823 0.66138,6.48229 0.40632,4.10104 0.40629,4.10104 0.15153,0.99219 0.15153,0.99219 h -2.36813 -2.36813 l -0.16139,-2.18282 -0.16143,-2.18281 -0.45677,-6.05567 -0.4568,-6.05568 -0.18365,0.49943 -0.18365,0.49942 -0.71207,5.02708 -0.71205,5.02709 -0.40775,2.71198 -0.40775,2.71198 h -0.75552 -0.75551 l -0.12624,-0.59532 -0.12623,-0.59531 -0.68342,-5.15937 -0.68339,-5.15938 -0.28673,-2.11667 -0.28675,-2.11666 -0.19529,-0.3653 -0.19532,-0.36531 -0.17878,3.01114 -0.1788,3.01113 -0.39656,4.8948 -0.39656,4.89479 -0.11409,0.33073 -0.11406,0.33073 z"
         id="path219" /><path
         style="fill:#db5861;stroke-width:0.264583"
         d="m -28.53879,161.40913 -0.919837,0.10077 -0.616109,-0.1288 -0.616111,-0.12881 -1.011383,-1.04216 -1.011386,-1.04216 -0.666681,-1.66535 -0.666681,-1.66534 -0.403821,-1.96772 -0.403817,-1.96772 -0.27857,-2.24202 -0.278566,-2.24202 0.0021,-3.97569 0.0021,-3.97569 0.271558,-2.37053 0.271555,-2.37053 0.395057,-1.91259 0.395058,-1.9126 0.664773,-1.50316 0.664771,-1.50317 0.664477,-0.87118 0.664478,-0.87117 1.09842,-0.4395 1.09842,-0.4395 0.888082,0.1666 0.888082,0.16661 1.005015,0.90797 1.005012,0.90796 0.682193,1.52448 0.682194,1.52448 0.605407,2.77812 0.605409,2.77813 0.0067,7.40833 0.0067,7.40833 -0.457742,2.11702 -0.45774,2.11701 -0.404622,1.36251 -0.404622,1.36251 -0.857427,1.26393 -0.85743,1.26394 -0.667663,0.48897 -0.667663,0.48897 -0.919837,0.10077 z m -0.50981,-5.67083 h 0.193974 l 0.479251,-1.12448 0.479253,-1.12448 0.102955,-8.81377 0.102954,-8.81376 -0.297921,-1.71078 -0.29792,-1.71079 -0.298027,-0.6541 -0.298027,-0.65409 h -0.185245 -0.185246 l -0.461605,1.52135 -0.461603,1.52135 -0.135771,7.80521 -0.13577,7.80521 0.306906,1.98438 0.306906,1.98437 0.295481,0.99219 0.295481,0.99219 z m -43.245733,5.55625 h -2.275753 V 143.43517 125.5758 h 2.111626 2.111627 l 0.126965,0.59531 0.126969,0.59531 0.677537,4.23333 0.677537,4.23334 0.547023,3.43958 0.547024,3.43958 0.232031,1.05834 0.232032,1.05833 -0.148667,-9.32656 -0.148664,-9.32656 h 2.274313 2.274314 v 17.8705 17.87051 l -2.050521,-0.0773 -2.050521,-0.0773 -1.644113,-9.65729 -1.644113,-9.65729 0.149553,9.72344 0.149553,9.72344 z m 16.245081,0 h -2.38125 V 143.43517 125.5758 h 2.38125 2.38125 v 17.85937 17.85938 z m 7.984424,-0.0561 -2.44329,0.0762 0.147616,-0.60534 0.147619,-0.60534 0.892294,-3.96875 0.892294,-3.96875 0.992363,-4.35328 0.992362,-4.35329 -0.692714,-3.05504 -0.692713,-3.05506 -1.192922,-5.29166 -1.192924,-5.29167 -0.146638,-0.60534 -0.146637,-0.60534 2.44329,0.0762 2.443289,0.0762 0.730779,3.27675 0.730779,3.27676 0.102257,0.10225 0.102253,0.10225 0.717288,-3.11442 0.717288,-3.11443 0.106686,-0.33073 0.106682,-0.33072 h 2.407383 2.407386 l -0.136718,0.46302 -0.136716,0.46302 -1.865487,8.25089 -1.86549,8.2509 v 0.43515 0.43514 l 1.863738,8.24729 1.863739,8.24729 0.138467,0.46302 0.138467,0.46303 h -2.407386 -2.407383 l -0.106682,-0.33073 -0.106686,-0.33073 -0.717288,-3.11443 -0.717288,-3.11442 -0.102253,0.10225 -0.102257,0.10225 -0.730779,3.27676 -0.730779,3.27675 z m 31.589999,0.0561 h -2.268173 V 143.43517 125.5758 h 2.089179 2.089179 l 0.417838,2.3151 0.417841,2.3151 0.555482,3.57188 0.555485,3.57187 0.511223,3.28709 0.51122,3.2871 0.152153,0.15215 0.152154,0.15215 -0.193103,-9.32622 -0.193104,-9.32622 h 2.2880589 2.2880611 v 17.85937 17.85938 h -2.0672557 -2.0672533 l -0.987158,-6.01928 -0.987157,-6.01927 -0.555879,-3.43958 -0.555879,-3.43958 -0.245584,-0.26459 -0.245581,-0.26458 0.144973,1.85208 0.144973,1.85209 0.15824,7.87135 0.158239,7.87136 z m 16.2526608,0 h -2.38125 v -17.86627 -17.86627 l 4.0348959,0.073 4.0348959,0.073 0.076446,2.3151 0.076449,2.31511 H 3.8891738 2.1590818 v 5.68854 5.68854 h 1.7197917 1.7197917 v 2.24896 2.24896 H 3.8788735 2.1590818 v 7.54062 7.54063 z m 15.2593862,-10e-4 -1.368761,-0.001 -0.839025,-0.5116 -0.839026,-0.51159 -0.665036,-1.14106 -0.665032,-1.14106 -0.657281,-1.98438 -0.6572805,-1.98437 -0.4183486,-3.26542 -0.418346,-3.26529 0.00212,-4.01062 0.00212,-4.01062 0.2618687,-2.38125 0.2618687,-2.38125 0.4276672,-1.98437 0.4276646,-1.98438 0.7212019,-1.5875 0.721198,-1.5875 0.785175,-0.83341 0.785175,-0.83341 0.976919,-0.26974 0.976921,-0.26974 0.895424,0.24724 0.895421,0.24723 0.701839,0.55207 0.701837,0.55207 0.752181,1.49447 0.752181,1.49447 0.557668,2.24896 0.557667,2.24896 0.265626,3.04271 0.265629,3.0427 v 3.04271 3.04271 l -0.267044,3.01713 -0.267044,3.01712 -0.53974,2.11395 -0.539739,2.11395 -0.764434,1.51434 -0.764434,1.51434 -0.82807,0.69677 -0.828069,0.69678 -1.368763,-0.001 z m -0.200086,-5.55519 h 0.201594 l 0.319225,-0.70063 0.319225,-0.70062 0.244243,-1.87907 0.244242,-1.87906 0.0029,-7.27604 0.0029,-7.27604 -0.255222,-1.76445 -0.255222,-1.76445 -0.311171,-0.68294 -0.311174,-0.68295 H 14.842441 14.64621 l -0.300307,0.85989 -0.300305,0.8599 -0.257874,1.81473 -0.257871,1.81473 -0.0016,7.18111 -0.0016,7.18109 0.283113,1.5875 0.283112,1.5875 0.271203,0.8599 0.271203,0.8599 h 0.201597 z m 14.036564,5.55625 h -3.712472 l -0.126378,-0.33073 -0.126378,-0.33073 0.06854,-17.4625 0.06854,-17.4625 2.315104,-0.0764 2.315104,-0.0765 v 15.48843 15.48843 h 1.455208 1.455209 v 2.38125 2.38125 z m 11.120803,0 H 36.290332 V 143.43517 125.5758 h 2.246826 2.246826 l 0.06828,15.41197 0.06828,15.41198 1.389062,0.08 1.389063,0.08 v 2.36742 2.36743 z m 11.50093,0 H 50.05019 l -1.021562,-0.92292 -1.021561,-0.92292 -0.731642,-1.63032 -0.731642,-1.63031 -0.632179,-3.06916 -0.632177,-3.06917 -0.16305,-4.23333 -0.163049,-4.23333 0.303583,-3.27393 0.303583,-3.27392 0.506526,-2.32082 0.506526,-2.32082 0.786517,-1.549 0.786519,-1.54901 0.772522,-0.73282 0.77252,-0.73281 0.891535,-0.25569 0.891532,-0.25569 0.949923,0.25579 0.94992,0.25579 0.836284,0.865 0.836282,0.86501 0.686607,1.50263 0.686607,1.50263 0.575649,2.73071 0.575646,2.7307 0.004,7.54062 0.004,7.54063 -0.58012,2.63247 -0.580117,2.63247 -0.809519,1.64437 -0.809522,1.64437 -0.929812,0.81639 -0.929812,0.81639 h -1.445242 z m -0.0086,-5.55625 h 0.142242 l 0.424506,-0.99219 0.424505,-0.99219 0.266214,-4.23333 0.26621,-4.23334 -0.137933,-5.29166 -0.137932,-5.29167 -0.430586,-1.5875 -0.430588,-1.5875 -0.244866,-0.24528 -0.244867,-0.24528 -0.423397,1.01332 -0.423394,1.01333 -0.239435,2.27466 -0.239434,2.27467 -0.0047,6.13241 -0.0047,6.13242 0.287462,2.06678 0.287462,2.06677 0.360495,0.86279 0.360497,0.86279 h 0.14224 z m 14.171983,5.55625 h -2.010698 l -0.733642,-6.01928 -0.733642,-6.01927 -0.650336,-5.42395 -0.650335,-5.42396 -0.640501,-5.29167 -0.6405,-5.29167 -0.07889,-1.05833 -0.07889,-1.05833 2.307506,-0.0763 2.307505,-0.0763 0.125833,0.60551 0.125831,0.6055 0.153627,2.77813 0.153631,2.77812 0.407045,5.82083 0.407046,5.82084 0.205833,0.66146 0.205832,0.66145 0.193154,-2.77812 0.193156,-2.77813 0.641776,-6.61458 0.641779,-6.61458 1.19e-4,-0.46302 1.11e-4,-0.46302 h 2.086626 2.086623 l 0.164923,1.12447 0.16492,1.12448 0.393023,4.51743 0.39302,4.51742 0.397552,3.94925 0.39755,3.94924 5.29e-4,0.50712 5.29e-4,0.50711 0.129442,-0.12944 0.129442,-0.12944 0.414386,-5.80163 0.414387,-5.80164 0.317133,-4.10104 0.317132,-4.10104 2.31404,-0.0764 2.314038,-0.0765 v 0.32977 0.32976 l -0.388059,3.18627 -0.388059,3.18626 -0.682202,5.68855 -0.682199,5.68854 -0.381256,3.175 -0.381259,3.175 -0.53606,4.63021 -0.536056,4.6302 -0.158538,0.8599 -0.158536,0.8599 h -1.942941 -1.942939 l -0.128675,-0.8599 -0.128675,-0.8599 -0.670337,-6.48229 -0.670335,-6.48229 -0.176147,-2.05749 -0.176146,-2.05749 -0.114618,0.11462 -0.11462,0.11462 -0.483507,4.45641 -0.48351,4.45641 -0.476203,4.82865 -0.476202,4.82865 h -2.010699 z m 20.277148,-0.0209 -2.152912,-0.0209 -0.330729,-0.13346 -0.330729,-0.13345 v -2.35414 -2.35414 l 1.124479,0.15022 1.124479,0.15022 0.714931,-0.2762 0.714933,-0.27621 0.443725,-0.85807 0.443725,-0.85807 -0.13898,-2.02767 -0.138981,-2.02768 -1.112806,-3.14489 -1.112808,-3.1449 -0.914733,-2.75258 -0.914734,-2.75259 -0.194762,-2.22134 -0.194763,-2.22133 0.202968,-2.09958 0.202969,-2.09958 0.513453,-0.99629 0.513451,-0.99629 0.883081,-0.84367 0.883081,-0.84366 0.788324,-0.29735 0.788321,-0.29735 h 1.613273 1.61327 l 0.70726,0.17751 0.707261,0.17751 v 2.38088 2.38087 l -0.421455,-0.16173 -0.421455,-0.16172 -0.608383,-0.1527 -0.60838,-0.15269 -0.817769,0.42288 -0.817769,0.42289 -0.393784,0.76149 -0.393785,0.7615 -0.160671,1.01996 -0.160668,1.01996 0.533074,2.51355 0.533078,2.51354 1.0365,2.77812 1.036499,2.77813 0.766337,2.51354 0.766339,2.51354 v 3.30729 3.30729 l -0.816012,1.45521 -0.816012,1.45521 -1.264409,0.8599 -1.264412,0.85989 -2.15291,-0.0209 z m 15.30958,0.0209 H 98.996583 V 145.81642 130.3383 H 97.276792 95.557 v -2.38125 -2.38125 h 5.68854 5.68854 v 2.38125 2.38125 h -1.71979 -1.71979 v 15.47812 15.47813 z m 11.64167,0 h -2.24896 V 143.43517 125.5758 h 2.24508 2.24508 l 0.07,8.00364 0.07,8.00365 h 1.19062 1.19063 l 0.07,-8.00365 0.07,-8.00364 h 2.37737 2.37737 v 17.85937 17.85938 h -2.38125 -2.38125 v -7.54063 -7.54062 h -1.32292 -1.32291 v 7.54062 7.54063 z m 17.85937,0 h -3.96875 V 143.43517 125.5758 h 3.96875 3.96875 v 2.38125 2.38125 h -1.72505 -1.72505 l 0.0714,5.62239 0.0714,5.6224 1.65365,0.0788 1.65364,0.0788 v 2.23633 2.23634 h -1.71979 -1.71979 v 5.15937 5.15938 h 1.71979 1.71979 v 2.38125 2.38125 z m 9.35171,0 h -2.27988 l 0.15357,-1.12448 0.15357,-1.12448 0.40785,-3.83646 0.40785,-3.83646 0.66085,-6.21771 0.66085,-6.21771 0.67696,-6.35 0.67696,-6.35 0.1128,-0.33073 0.11281,-0.33072 h 1.86038 1.86039 v 0.4995 0.49951 l 0.51232,6.31351 0.51232,6.31352 0.17518,2.59774 0.17519,2.59773 0.093,-0.093 0.093,-0.093 0.41281,-4.22456 0.41281,-4.22457 0.39253,-4.89479 0.39254,-4.89479 0.002,-0.21003 0.002,-0.21003 1.91823,0.0777 1.91823,0.0777 0.31488,2.77812 0.31485,2.77813 0.68519,6.87916 0.68519,6.87917 0.6408,6.21771 0.64077,6.21771 0.17195,1.91823 0.17195,1.91823 h -2.2475 -2.2475 l -0.13724,-0.35762 -0.13722,-0.35761 -0.4582,-7.64603 -0.45818,-7.64604 -0.18629,-0.211 -0.1863,-0.211 -0.48248,3.386 -0.4825,3.386 -0.69404,4.7625 -0.69403,4.7625 -0.8188,0.0807 -0.8188,0.0807 -0.29392,-2.19739 -0.29392,-2.19738 -0.65691,-4.89479 -0.65692,-4.89479 -0.18329,-1.19063 -0.18329,-1.19062 -0.18049,1.32291 -0.18048,1.32292 -0.45563,6.35 -0.45563,6.35 -0.11628,0.59531 -0.11628,0.59532 h -2.27989 z m 26.04822,0 h -1.51484 l -0.88236,-0.77472 -0.88236,-0.77472 -0.70213,-1.40809 -0.70215,-1.4081 -0.54774,-2.11667 -0.54771,-2.11666 -0.29044,-2.64584 -0.29043,-2.64583 0.13727,-5.82083 0.13726,-5.82084 0.30523,-1.5875 0.30525,-1.5875 0.65719,-1.98437 0.6572,-1.98438 0.71845,-1.03298 0.71843,-1.03299 0.68966,-0.5117 0.68966,-0.5117 1.18409,-0.0179 1.18409,-0.0179 0.85275,0.50374 0.85278,0.50374 0.74838,1.19115 0.7484,1.19113 0.57113,1.68685 0.5711,1.68685 0.42352,2.81107 0.42354,2.81107 0.005,5.82083 0.005,5.82083 -0.4426,2.59828 -0.44259,2.59827 -0.54361,1.63506 -0.54362,1.63506 -0.63494,0.97348 -0.63492,0.97349 -0.73354,0.68016 -0.73353,0.68016 h -1.51484 z m 0.0998,-5.49599 0.24617,-0.24615 0.40405,-1.42841 0.40404,-1.42841 0.14602,-7.54341 0.146,-7.54341 -0.29742,-2.21008 -0.29744,-2.21008 -0.31028,-1.03564 -0.31027,-1.03563 -0.2652,0.0884 -0.26516,0.0884 -0.36592,1.04344 -0.36589,1.04344 -0.28663,5.82063 -0.28665,5.82063 0.29131,4.23354 0.29128,4.23354 0.43791,1.27769 0.43794,1.27768 z m 12.24196,5.49599 h -2.23335 V 143.42447 125.5544 l 2.18096,0.0768 2.18096,0.0768 0.18759,1.19062 0.18759,1.19063 0.66553,4.10104 0.66551,4.10104 0.57597,3.70417 0.57597,3.70416 0.23503,0.25997 0.23503,0.25997 -0.19963,-7.93288 -0.19965,-7.93289 -0.007,-1.32292 -0.007,-1.32291 h 2.24896 2.24896 v 17.72708 17.72708 l -2.0192,0.0767 -2.01917,0.0767 -0.13869,-0.60588 -0.13869,-0.60588 -1.54628,-9.39271 -1.54631,-9.39271 -0.0775,0.79375 -0.0775,0.79375 0.24456,8.99584 0.24458,8.99583 -0.11658,0.19844 -0.11655,0.19844 z m 18.13956,0 h -3.96875 V 143.43517 125.5758 h 3.96875 3.96875 v 2.38125 2.38125 h -1.72505 -1.72506 l 0.0714,5.62239 0.0714,5.6224 1.65365,0.0788 1.65364,0.0788 v 2.23633 2.23634 h -1.71979 -1.71979 v 5.15937 5.15938 h 1.71979 1.71979 v 2.38125 2.38125 z m 13.09688,0 h -2.24896 v -8.31349 -8.31348 l -0.50157,-2.20371 -0.5016,-2.2037 -0.70196,-3.175 -0.70199,-3.175 -0.88496,-3.96875 -0.88495,-3.96875 0.19489,-0.20981 0.1949,-0.20981 2.21313,0.0775 2.21313,0.0775 0.30965,1.5875 0.30966,1.5875 0.45662,2.59633 0.45662,2.59633 0.13568,-0.13567 0.13565,-0.13567 0.4658,-2.59295 0.4658,-2.59296 0.31588,-1.52135 0.31589,-1.52135 h 2.39117 2.39117 l -0.18393,0.7276 -0.18397,0.7276 -0.49366,2.24896 -0.49369,2.24896 -0.81375,3.70417 -0.81375,3.70416 -0.65262,3.04271 -0.6526,3.04271 -0.003,8.13594 -0.003,8.13594 h -2.24896 z m 10.19077,0 h -1.28019 l -0.68497,-0.81406 -0.68498,-0.81404 0.006,-0.8396 0.006,-0.8396 0.45712,-0.56434 0.45714,-0.56435 0.57793,-0.29555 0.57791,-0.29555 h 0.69921 0.69919 l 0.7734,0.7734 0.77341,0.7734 v 1.043 1.04301 l -0.54838,0.69714 -0.54837,0.69714 h -1.28019 z m 13.34627,0 h -1.62951 l -1.07498,-0.77871 -1.07497,-0.7787 -0.80648,-1.17218 -0.80648,-1.17218 -0.66328,-1.76219 -0.66329,-1.76219 -0.42965,-2.17391 -0.42963,-2.1739 -0.14388,-4.40645 -0.14388,-4.40644 0.3276,-2.6028 0.32761,-2.60281 0.47443,-1.85499 0.47445,-1.855 0.71786,-1.51619 0.7179,-1.51619 1.05976,-1.20396 1.05976,-1.20396 0.80936,-0.41853 0.80934,-0.41853 h 1.23737 1.23738 l 0.5688,0.30442 0.56883,0.30442 v 2.1368 2.13681 l -0.8599,-0.16049 -0.85989,-0.16049 -0.82378,0.50206 -0.82378,0.50207 -0.55444,1.15033 -0.55441,1.15033 -0.40774,2.34977 -0.40773,2.34976 0.005,5.05857 0.005,5.05857 0.26384,1.85208 0.26384,1.85209 0.38251,1.32291 0.38248,1.32292 0.80698,0.87989 0.80698,0.87988 1.12112,-0.0816 1.12114,-0.0816 0.0778,2.23944 0.0778,2.23945 -0.45915,0.33573 -0.45914,0.33573 h -1.62951 z m 9.80046,0 h -1.43679 l -0.95224,-0.83608 -0.95223,-0.83608 -0.6286,-1.24045 -0.6286,-1.24046 -0.53155,-2.09065 -0.53154,-2.09066 -0.28448,-1.79426 -0.28448,-1.79425 0.005,-6.01095 0.005,-6.01096 0.39092,-2.39648 0.39092,-2.39649 0.53888,-1.74468 0.53888,-1.74469 0.8573,-1.26374 0.8573,-1.26375 0.68967,-0.50539 0.68966,-0.5054 1.18409,-0.0179 1.18409,-0.0179 0.78417,0.46323 0.78417,0.46323 0.60918,0.88901 0.60915,0.88902 0.64931,1.60751 0.64929,1.6075 0.37391,2.12669 0.37391,2.12668 0.31766,3.93333 0.31768,3.93332 -0.30363,3.93127 -0.30364,3.93127 -0.42439,2.2376 -0.42437,2.2376 -0.85687,1.85209 -0.85688,1.85208 -0.98177,0.8599 -0.98176,0.85989 h -1.43679 z m 0.29342,-5.94784 0.34497,-0.47175 0.33332,-1.48656 0.33332,-1.48656 0.009,-8.33438 0.009,-8.33437 -0.36655,-1.65206 -0.36653,-1.65206 -0.34382,-0.46461 -0.3438,-0.46461 -0.44694,1.05834 -0.44693,1.05833 -0.2576,4.36563 -0.25757,4.36562 0.14811,5.29167 0.14814,5.29166 0.43471,1.45521 0.43471,1.45521 0.14481,0.23852 0.14483,0.23852 0.34494,-0.47175 z m 9.86486,5.94784 H 251.059 l 0.17495,-2.05053 0.17494,-2.05052 0.65654,-6.08541 0.65651,-6.08542 0.40222,-3.70417 0.40222,-3.70416 0.51837,-5.15938 0.51834,-5.15937 0.15066,-0.8712 0.15065,-0.87121 1.9041,0.0775 1.90413,0.0774 0.17986,2.51354 0.17984,2.51354 0.44429,5.95313 0.44426,5.95312 0.20918,0.92604 0.2092,0.92604 0.0299,-0.79375 0.0299,-0.79375 0.3932,-4.6302 0.39319,-4.63021 0.27435,-2.91042 0.27437,-2.91042 0.13904,-1.12448 0.13904,-1.12447 h 1.81967 1.81967 l 0.14844,1.12447 0.14845,1.12448 0.5239,5.15938 0.52388,5.15937 0.66138,6.4823 0.66138,6.48229 0.40632,4.10104 0.40629,4.10104 0.15153,0.99219 0.15153,0.99219 h -2.36813 -2.36813 l -0.16139,-2.18282 -0.16143,-2.18281 -0.45677,-6.05567 -0.4568,-6.05568 -0.18365,0.49943 -0.18365,0.49942 -0.71207,5.02708 -0.71205,5.02709 -0.40775,2.71198 -0.40775,2.71198 h -0.75552 -0.75551 l -0.12624,-0.59532 -0.12623,-0.59531 -0.68342,-5.15937 -0.68339,-5.15938 -0.28673,-2.11667 -0.28675,-2.11666 -0.19529,-0.3653 -0.19532,-0.36531 -0.17878,3.01114 -0.1788,3.01113 -0.39656,4.8948 -0.39656,4.89479 -0.11409,0.33073 -0.11406,0.33073 z"
         id="path217" /><path
         style="fill:#cc111d;stroke-width:0.264583"
         d="m -28.53879,161.40913 -0.919837,0.10077 -0.616109,-0.1288 -0.616111,-0.12881 -1.011383,-1.04216 -1.011386,-1.04216 -0.666681,-1.66535 -0.666681,-1.66534 -0.403821,-1.96772 -0.403817,-1.96772 -0.27857,-2.24202 -0.278566,-2.24202 0.0021,-3.97569 0.0021,-3.97569 0.271558,-2.37053 0.271555,-2.37053 0.395057,-1.91259 0.395058,-1.9126 0.664773,-1.50316 0.664771,-1.50317 0.664477,-0.87118 0.664478,-0.87117 1.09842,-0.4395 1.09842,-0.4395 0.888082,0.1666 0.888082,0.16661 1.005015,0.90797 1.005012,0.90796 0.682193,1.52448 0.682194,1.52448 0.605407,2.77812 0.605409,2.77813 0.0067,7.40833 0.0067,7.40833 -0.457742,2.11702 -0.45774,2.11701 -0.404622,1.36251 -0.404622,1.36251 -0.857427,1.26393 -0.85743,1.26394 -0.667663,0.48897 -0.667663,0.48897 -0.919837,0.10077 z m -0.50981,-5.67083 h 0.193974 l 0.479251,-1.12448 0.479253,-1.12448 0.102955,-8.81377 0.102954,-8.81376 -0.297921,-1.71078 -0.29792,-1.71079 -0.298027,-0.6541 -0.298027,-0.65409 h -0.185245 -0.185246 l -0.461605,1.52135 -0.461603,1.52135 -0.135771,7.80521 -0.13577,7.80521 0.306906,1.98438 0.306906,1.98437 0.295481,0.99219 0.295481,0.99219 z m -43.245733,5.55625 h -2.275753 V 143.43517 125.5758 h 2.111626 2.111627 l 0.126965,0.59531 0.126969,0.59531 0.677537,4.23333 0.677537,4.23334 0.547023,3.43958 0.547024,3.43958 0.232031,1.05834 0.232032,1.05833 -0.148667,-9.32656 -0.148664,-9.32656 h 2.274313 2.274314 v 17.8705 17.87051 l -2.050521,-0.0773 -2.050521,-0.0773 -1.644113,-9.65729 -1.644113,-9.65729 0.149553,9.72344 0.149553,9.72344 z m 16.245081,0 h -2.38125 V 143.43517 125.5758 h 2.38125 2.38125 v 17.85937 17.85938 z m 7.984424,-0.0561 -2.44329,0.0762 0.147616,-0.60534 0.147619,-0.60534 0.892294,-3.96875 0.892294,-3.96875 0.992363,-4.35328 0.992362,-4.35329 -0.692714,-3.05504 -0.692713,-3.05506 -1.192922,-5.29166 -1.192924,-5.29167 -0.146638,-0.60534 -0.146637,-0.60534 2.44329,0.0762 2.443289,0.0762 0.730779,3.27675 0.730779,3.27676 0.102257,0.10225 0.102253,0.10225 0.717288,-3.11442 0.717288,-3.11443 0.106686,-0.33073 0.106682,-0.33072 h 2.407383 2.407386 l -0.136718,0.46302 -0.136716,0.46302 -1.865487,8.25089 -1.86549,8.2509 v 0.43515 0.43514 l 1.863738,8.24729 1.863739,8.24729 0.138467,0.46302 0.138467,0.46303 h -2.407386 -2.407383 l -0.106682,-0.33073 -0.106686,-0.33073 -0.717288,-3.11443 -0.717288,-3.11442 -0.102253,0.10225 -0.102257,0.10225 -0.730779,3.27676 -0.730779,3.27675 z m 31.589999,0.0561 h -2.268173 V 143.43517 125.5758 h 2.089179 2.089179 l 0.417838,2.3151 0.417841,2.3151 0.555482,3.57188 0.555485,3.57187 0.511223,3.28709 0.51122,3.2871 0.152153,0.15215 0.152154,0.15215 -0.193103,-9.32622 -0.193104,-9.32622 h 2.2880589 2.2880611 v 17.85937 17.85938 h -2.0672557 -2.0672533 l -0.987158,-6.01928 -0.987157,-6.01927 -0.555879,-3.43958 -0.555879,-3.43958 -0.245584,-0.26459 -0.245581,-0.26458 0.144973,1.85208 0.144973,1.85209 0.15824,7.87135 0.158239,7.87136 z m 31.523141,-0.0209 -1.115272,-0.0209 -0.396875,-0.14442 -0.396875,-0.14441 -0.751834,-0.69459 -0.751838,-0.6946 -0.530931,-1.0326 -0.530932,-1.03261 -0.391549,-1.08406 -0.3915459,-1.08406 -0.5134398,-2.77812 -0.5134372,-2.77813 -0.1622557,-4.10104 -0.1622531,-4.10104 0.3201855,-3.30729 0.3201829,-3.3073 0.4065799,-1.98437 0.4065799,-1.98438 0.7743005,-1.71439 0.774301,-1.7144 0.584361,-0.62585 0.584359,-0.62584 0.714465,-0.37174 0.714465,-0.37173 h 0.877162 0.877163 l 0.883563,0.47386 0.883565,0.47385 0.888317,1.44438 0.888318,1.44436 0.648028,2.51875 0.648028,2.51875 0.324017,4.625 0.324019,4.625 -0.307827,4.36563 -0.307827,4.36562 -0.674962,2.51355 -0.67496,2.51354 -0.630674,1.08819 -0.630675,1.08819 -0.945361,0.83004 -0.945362,0.83004 z m -0.189651,-5.27076 h 0.207547 l 0.490165,-1.12448 0.490164,-1.12448 0.08637,-9.26042 0.08637,-9.26041 -0.302347,-1.55088 -0.302345,-1.55087 -0.287933,-0.63194 -0.28793,-0.63194 H 14.82686 14.614995 l -0.413568,1.38906 -0.413568,1.38907 -0.290208,4.10104 -0.290208,4.10104 0.144555,4.7625 0.144553,4.7625 0.399354,1.85208 0.399354,1.85209 0.177924,0.46302 0.177927,0.46302 z m 36.672233,5.27489 -1.085353,-0.0168 -0.529167,-0.21888 -0.529166,-0.21888 -0.575519,-0.62424 -0.575519,-0.62425 -0.67822,-1.35531 -0.678223,-1.35531 -0.730636,-2.87802 -0.730633,-2.87802 0.0028,-7.80521 0.0028,-7.80521 0.73515,-2.92337 0.73515,-2.92337 0.865785,-1.44226 0.865788,-1.44225 0.882772,-0.59531 0.882772,-0.59531 h 1.112369 1.112369 l 0.899025,0.60148 0.899023,0.60147 0.843708,1.58134 0.843706,1.58133 0.396764,1.5875 0.396764,1.5875 0.444667,3.04271 0.444664,3.04271 -0.139642,5.95312 -0.139642,5.95313 -0.672301,2.84674 -0.672301,2.84674 -0.873193,1.6457 -0.873194,1.6457 -0.899023,0.60079 -0.899025,0.60079 -1.08535,-0.0168 z m 0.09085,-5.43851 0.213963,-0.23326 0.492787,-1.4552 0.492786,-1.45521 -7.94e-4,-9.26042 -7.93e-4,-9.26042 -0.525735,-1.55183 -0.525738,-1.55183 -0.229521,-0.0357 -0.229518,-0.0357 -0.546317,1.32292 -0.546314,1.32292 -0.11116,8.53317 -0.111156,8.53317 0.295312,1.69581 0.295312,1.69581 0.411342,0.98448 0.411342,0.98448 0.213961,-0.23325 z m 14.030394,5.45529 H 63.81708 l -0.127402,-0.59532 -0.127405,-0.59531 -0.538445,-4.49792 -0.538449,-4.49791 -0.653732,-5.42396 -0.653733,-5.42396 -0.658881,-5.42396 -0.658881,-5.42396 -0.174064,-1.78593 -0.174067,-1.78594 h 2.263568 2.263569 l 0.137102,1.12448 0.137102,1.12448 0.148116,2.77812 0.148114,2.77813 0.415216,5.55625 0.415216,5.55625 0.186819,0.62874 0.18682,0.62875 0.316976,-3.80375 0.316979,-3.80374 0.597207,-6.28386 0.597209,-6.28385 h 2.026405 2.026404 l 0.162655,1.25677 0.162655,1.25677 0.381087,4.63021 0.38109,4.63021 0.46014,4.36562 0.460139,4.36563 0.180592,-0.87182 0.180591,-0.87182 0.172866,-3.09693 0.172863,-3.09693 0.393628,-5.15938 0.393631,-5.15937 0.142156,-1.12448 0.142155,-1.12448 h 2.253769 2.253768 l -0.145746,0.7276 -0.145745,0.72761 -0.416844,3.70416 -0.416843,3.70417 -0.382209,2.91042 -0.382209,2.91041 -0.53199,4.63021 -0.531992,4.63021 -0.654905,5.55625 -0.654904,5.55625 -0.006,0.19844 -0.006,0.19844 H 73.78206 71.85088 l -0.726054,-6.81303 -0.726054,-6.81302 -0.29868,-2.84287 -0.29868,-2.84287 -0.09378,0.0938 -0.09378,0.0938 -0.503531,4.33659 -0.503531,4.33659 -0.16084,1.98438 -0.160841,1.98437 -0.261905,2.38125 -0.261906,2.38125 -0.13706,0.8599 -0.137059,0.8599 z m 20.247573,-0.0418 -1.5875,-0.0302 -0.595312,-0.11466 -0.595313,-0.11466 v -2.31847 -2.31847 l 1.443747,0.11973 1.443749,0.11972 0.805209,-0.80521 0.805212,-0.80521 v -2.1122 -2.11219 l -1.02924,-3.00139 -1.029242,-3.00138 -0.834605,-2.38125 -0.834604,-2.38125 -0.385112,-1.80324 -0.385114,-1.80323 0.0041,-2.29781 0.0041,-2.29781 0.362654,-1.54134 0.362654,-1.54135 0.77303,-0.97219 0.773028,-0.9722 1.165207,-0.59531 1.165203,-0.59531 h 1.366073 1.366073 l 0.826823,0.16536 0.826823,0.16536 v 2.21902 2.21901 l -0.992188,-0.15658 -0.992187,-0.15657 -0.926042,0.62563 -0.926041,0.62563 -0.315796,0.91688 -0.315797,0.91688 -0.01492,1.11423 -0.01492,1.11424 0.521245,2.19305 0.521243,2.19306 0.954701,2.51355 0.954702,2.51354 0.826791,2.77812 0.826791,2.77813 0.01172,3.04271 0.01172,3.0427 -0.606557,1.23259 -0.606558,1.23259 -0.715711,0.72351 -0.715708,0.72351 -1.058334,0.48549 -1.058333,0.48549 -1.5875,-0.0302 z m 80.412539,0.0374 -1.30212,-0.004 -0.85276,-0.54617 -0.85275,-0.54617 -0.77562,-1.3676 -0.7756,-1.3676 -0.58918,-1.98438 -0.5892,-1.98437 -0.35068,-2.91042 -0.35068,-2.91042 -0.009,-3.96875 -0.009,-3.96875 0.38587,-3.43958 0.38587,-3.43958 0.66749,-1.95742 0.66746,-1.95743 0.78166,-1.21809 0.78163,-1.21809 0.78299,-0.46251 0.78295,-0.4625 h 0.96451 0.96449 l 0.76695,0.39659 0.76692,0.3966 0.679,0.89022 0.679,0.89021 0.6418,1.57947 0.6418,1.57947 0.47011,2.49153 0.47011,2.49153 0.009,7.01146 0.009,7.01146 -0.36375,2.24896 -0.36372,2.24895 -0.78994,2.07634 -0.78991,2.07634 -1.11609,1.16481 -1.1161,1.16481 -1.30212,-0.004 z m -0.13592,-5.28721 h 0.18269 l 0.31975,-0.88422 0.31973,-0.88422 0.25442,-1.96005 0.2544,-1.96005 0.008,-7.09307 0.008,-7.09307 -0.29379,-1.90277 -0.29377,-1.90276 -0.40137,-0.77964 -0.4014,-0.77964 -0.53359,1.0401 -0.53361,1.04009 -0.21063,3.84059 -0.21066,3.84058 -0.007,3.96875 -0.007,3.96875 0.24085,2.66962 0.24087,2.66961 0.4404,1.1007 0.44043,1.1007 h 0.18269 z m 53.56056,5.29167 h -0.92475 l -0.7734,-0.7734 -0.7734,-0.7734 v -0.7938 -0.7938 l 0.68498,-0.81405 0.68497,-0.81405 h 1.17912 1.17914 l 0.64945,0.64943 0.64942,0.64943 v 0.81892 0.81891 l -0.38709,0.74855 -0.38708,0.74855 -0.42831,0.16435 -0.42831,0.16436 z m 13.61927,-0.0103 -1.14187,-0.0103 -0.82264,-0.35809 -0.82264,-0.35808 -0.93491,-0.9349 -0.9349,-0.93491 -0.83003,-1.7568 -0.83005,-1.7568 -0.39282,-1.50392 -0.39283,-1.50392 -0.39304,-2.99011 -0.39301,-2.99011 0.005,-2.83073 0.005,-2.83071 0.37922,-2.77813 0.37921,-2.77812 0.4182,-1.56819 0.41822,-1.56819 0.77245,-1.60681 0.77243,-1.60681 0.83182,-0.99987 0.83183,-0.99987 1.02219,-0.52148 1.02219,-0.52149 h 1.08627 1.08627 l 0.51176,0.27389 0.51179,0.27389 v 2.09072 2.09073 l -0.85998,-0.13956 -0.85997,-0.13955 -0.73491,0.57807 -0.73491,0.57808 -0.53914,1.05681 -0.53914,1.05682 -0.42386,2.29161 -0.42387,2.29161 -0.013,5.02709 -0.013,5.02708 0.35134,2.38125 0.35132,2.38125 0.52107,1.23074 0.52104,1.23074 0.65501,0.61533 0.65497,0.61533 h 1.04344 1.04341 v 2.17952 2.17951 l -0.51178,0.2739 -0.51176,0.27389 -1.14189,-0.0103 z m 10.04263,-0.0545 -1.39491,0.11197 -0.92604,-0.62504 -0.92605,-0.62505 -0.82931,-1.55556 -0.82933,-1.55556 -0.72001,-2.91453 -0.71999,-2.91452 -0.1357,-5.31333 -0.13571,-5.31334 0.29049,-3.30729 0.29049,-3.30729 0.63055,-2.16361 0.63056,-2.16362 0.79094,-1.40826 0.79095,-1.40826 0.87206,-0.59531 0.87207,-0.59531 h 1.03232 1.03236 l 0.76694,0.39659 0.76692,0.3966 0.64913,0.86017 0.64913,0.86018 0.67868,1.62479 0.67869,1.62479 0.56819,3.91917 0.56819,3.91918 -0.13949,5.96541 -0.13948,5.96541 -0.52724,2.52611 -0.52723,2.52611 -0.81098,1.71644 -0.81097,1.71644 -0.79566,0.76228 -0.79563,0.76228 z m -0.19098,-5.36735 0.23752,-0.1468 0.44225,-1.37769 0.44222,-1.3777 0.12235,-8.18409 0.12234,-8.1841 -0.3203,-2.00236 -0.32031,-2.00237 -0.38976,-0.92604 -0.38978,-0.92604 -0.53084,1.02226 -0.53083,1.02226 -0.27014,2.68191 -0.27014,2.6819 0.11547,7.40834 0.11546,7.40833 0.59349,1.5245 0.59348,1.52449 z M -0.08987653,161.02996 H -2.3388349 v -17.59479 -17.59479 h 3.8364584 3.8364584 v 2.24896 2.24896 h -1.5875 -1.5875001 v 5.68854 5.68854 h 1.5875001 1.5875 v 2.24896 2.24896 h -1.5875 -1.5875001 v 7.40833 7.40833 z m 28.97187553,0 h -3.704167 v -17.59479 -17.59479 h 2.248959 2.248958 v 15.34583 15.34584 h 1.455208 1.455209 v 2.24895 2.24896 z m 11.1125,0 h -3.704167 v -17.59479 -17.59479 h 2.248959 2.248958 v 15.34583 15.34584 h 1.455208 1.455209 v 2.24895 2.24896 z m 61.251041,0 h -2.244692 l -0.06828,-15.41198 -0.06828,-15.41198 -1.653646,-0.0788 -1.653646,-0.0788 v -2.10404 -2.10404 h 5.688544 5.68854 v 2.10404 2.10404 l -1.65364,0.0788 -1.65365,0.0788 -0.0683,15.41198 -0.0683,15.41198 z m 11.64167,0 h -2.24896 v -17.59479 -17.59479 h 2.24896 2.24896 v 7.9375 7.9375 h 1.32291 1.32292 v -7.9375 -7.9375 h 2.38125 2.38125 v 17.59479 17.59479 h -2.38125 -2.38125 v -7.40833 -7.40833 h -1.32292 -1.32291 v 7.40833 7.40833 z m 17.87007,0 h -3.97945 v -17.59479 -17.59479 h 3.96875 3.96875 v 2.24896 2.24896 h -1.71979 -1.71979 v 5.68854 5.68854 h 1.71979 1.71979 v 2.24896 2.24896 h -1.71979 -1.71979 v 5.14674 5.14676 l 1.65365,0.0788 1.65364,0.0788 0.0768,2.18281 0.0768,2.18281 z m 9.33227,0 h -2.25658 l 0.141,-0.59531 0.14101,-0.59531 0.5589,-5.29167 0.5589,-5.29167 0.37785,-3.43958 0.37784,-3.43958 0.27261,-2.64584 0.2726,-2.64583 0.54263,-5.02708 0.54262,-5.02709 0.12512,-0.59531 0.12511,-0.59531 h 1.79092 1.79091 l 0.3383,4.16719 0.3383,4.16718 0.37349,5.15938 0.37349,5.15937 0.006,0.24254 0.006,0.24253 0.13029,-0.13029 0.13029,-0.13028 0.64578,-6.85912 0.64578,-6.85913 0.17467,-2.57968 0.17466,-2.57969 h 1.95968 1.95969 v 0.61188 0.61188 l 0.40399,4.34906 0.40399,4.34905 0.25442,1.98438 0.25443,1.98437 0.40285,4.49792 0.40286,4.49792 0.37454,3.175 0.37452,3.175 0.16555,2.24896 0.16552,2.24895 0.13949,0.72761 0.13946,0.7276 h -2.24671 -2.24673 l -0.15775,-0.99219 -0.15777,-0.99218 -0.25397,-4.49792 -0.254,-4.49792 -0.1809,-2.84427 -0.18087,-2.84427 h -0.18404 -0.18405 l -0.58419,4.16719 -0.58419,4.16719 -0.52871,3.43958 -0.52871,3.43958 -0.13908,0.72761 -0.13908,0.7276 h -0.75369 -0.75369 l -0.16152,-1.52135 -0.16152,-1.52136 -0.64294,-4.6302 -0.64295,-4.63021 -0.17819,-1.71979 -0.1782,-1.7198 -0.18531,-0.51333 -0.18531,-0.51334 -0.16921,1.70396 -0.1692,1.70396 -0.40367,5.02709 -0.40366,5.02708 -0.15134,1.65365 -0.15134,1.65364 h -2.25658 z m 38.45206,0 h -2.28669 v -17.59479 -17.59479 h 2.21125 2.21128 l 0.16899,1.65364 0.16899,1.65365 0.51605,2.91042 0.51604,2.91041 0.71186,4.49792 0.71186,4.49792 0.25054,0.26458 0.25053,0.26458 -0.19113,-9.32656 -0.19114,-9.32656 h 2.15326 2.15328 v 17.59479 17.59479 h -1.94042 -1.94043 l -0.56123,-3.24114 -0.56124,-3.24115 -0.66455,-3.96875 -0.66456,-3.96875 -0.31371,-2.11667 -0.31369,-2.11666 -0.22069,-0.52917 -0.22069,-0.52917 0.16647,9.85573 0.16645,9.85573 z m 18.08622,0 h -3.96875 v -17.59479 -17.59479 h 3.96875 3.96875 v 2.24896 2.24896 h -1.71979 -1.71979 v 5.68854 5.68854 h 1.71979 1.71979 v 2.24896 2.24896 h -1.71979 -1.71979 v 5.15937 5.15938 h 1.71979 1.71979 v 2.24895 2.24896 z m 13.10701,0 h -2.23879 l -0.085,-8.79739 -0.085,-8.7974 -0.70167,-3.04271 -0.70168,-3.04271 -0.70577,-3.175 -0.70575,-3.175 -0.49935,-2.38125 -0.49935,-2.38125 -0.003,-0.20873 -0.003,-0.20874 2.30584,0.0764 2.30585,0.0764 0.18817,0.92604 0.1882,0.92604 0.582,3.28098 0.58203,3.28098 0.20378,-0.37056 0.20379,-0.37056 0.44463,-2.64584 0.44463,-2.64583 0.26622,-1.25677 0.2662,-1.25677 h 2.31693 2.31691 l -0.89456,3.9026 -0.89456,3.90261 -0.5045,2.38125 -0.50451,2.38125 -0.67519,3.16911 -0.67519,3.16911 v 8.14183 8.14182 H 209.735 Z m 43.57812,0 h -2.24104 l 0.15509,-1.12448 0.15513,-1.12448 0.15555,-1.71979 0.15555,-1.71979 0.63169,-5.82083 0.63167,-5.82084 0.66423,-6.35 0.66421,-6.35 0.15391,-1.71979 0.15391,-1.71979 0.1511,-0.8599 0.15111,-0.85989 h 1.81758 1.81761 l 0.11744,0.59531 0.11743,0.59531 0.30218,4.8948 0.30218,4.89479 0.3751,3.94262 0.37507,3.94261 0.10144,0.10142 0.10142,0.10142 0.31564,-3.91174 0.31568,-3.91175 0.3851,-4.10104 0.38507,-4.10104 0.15394,-1.52136 0.15393,-1.52135 h 1.8261 1.82611 l 0.003,0.46302 0.003,0.46302 0.3929,3.30729 0.39294,3.30729 0.26408,2.91042 0.2641,2.91042 0.55126,5.29166 0.55124,5.29167 0.5879,5.63192 0.58788,5.63191 -2.26147,-0.0757 -2.26148,-0.0757 -0.16833,-2.11667 -0.16832,-2.11666 -0.46985,-6.14069 -0.46985,-6.14068 -0.18695,0.11554 -0.18696,0.11554 -0.18449,1.9241 -0.18449,1.9241 -0.61786,3.96875 -0.61788,3.96875 -0.31814,2.31511 -0.31816,2.3151 h -0.76634 -0.76634 v -0.14136 -0.14135 l -0.50657,-3.49667 -0.50654,-3.49666 -0.58878,-4.36562 -0.58878,-4.36563 -0.21955,-0.39687 -0.21952,-0.39688 -0.0138,0.66146 -0.0135,0.66146 -0.38357,5.38111 -0.38354,5.38111 -0.17801,2.35795 -0.17801,2.35795 h -2.24103 z"
         id="path215" /><path
         style="fill:#525252;stroke-width:0.264583"
         d="m -28.53879,161.40913 -0.919837,0.10077 -0.616109,-0.1288 -0.616111,-0.12881 -1.011383,-1.04216 -1.011386,-1.04216 -0.666681,-1.66535 -0.666681,-1.66534 -0.403821,-1.96772 -0.403817,-1.96772 -0.27857,-2.24202 -0.278566,-2.24202 0.0021,-3.97569 0.0021,-3.97569 0.271558,-2.37053 0.271555,-2.37053 0.395057,-1.91259 0.395058,-1.9126 0.664773,-1.50316 0.664771,-1.50317 0.664477,-0.87118 0.664478,-0.87117 1.09842,-0.4395 1.09842,-0.4395 0.888082,0.1666 0.888082,0.16661 1.005015,0.90797 1.005012,0.90796 0.682193,1.52448 0.682194,1.52448 0.605407,2.77812 0.605409,2.77813 0.0067,7.40833 0.0067,7.40833 -0.457742,2.11702 -0.45774,2.11701 -0.404622,1.36251 -0.404622,1.36251 -0.857427,1.26393 -0.85743,1.26394 -0.667663,0.48897 -0.667663,0.48897 -0.919837,0.10077 z m -0.50981,-5.67083 h 0.193974 l 0.479251,-1.12448 0.479253,-1.12448 0.102955,-8.81377 0.102954,-8.81376 -0.297921,-1.71078 -0.29792,-1.71079 -0.298027,-0.6541 -0.298027,-0.65409 h -0.185245 -0.185246 l -0.461605,1.52135 -0.461603,1.52135 -0.135771,7.80521 -0.13577,7.80521 0.306906,1.98438 0.306906,1.98437 0.295481,0.99219 0.295481,0.99219 z m -43.245733,5.55625 h -2.275753 V 143.43517 125.5758 h 2.111626 2.111627 l 0.126965,0.59531 0.126969,0.59531 0.677537,4.23333 0.677537,4.23334 0.547023,3.43958 0.547024,3.43958 0.232031,1.05834 0.232032,1.05833 -0.148667,-9.32656 -0.148664,-9.32656 h 2.274313 2.274314 v 17.8705 17.87051 l -2.050521,-0.0773 -2.050521,-0.0773 -1.644113,-9.65729 -1.644113,-9.65729 0.149553,9.72344 0.149553,9.72344 z m 16.245081,0 h -2.38125 V 143.43517 125.5758 h 2.38125 2.38125 v 17.85937 17.85938 z m 7.984424,-0.0561 -2.44329,0.0762 0.147616,-0.60534 0.147619,-0.60534 0.892294,-3.96875 0.892294,-3.96875 0.992363,-4.35328 0.992362,-4.35329 -0.692714,-3.05504 -0.692713,-3.05506 -1.192922,-5.29166 -1.192924,-5.29167 -0.146638,-0.60534 -0.146637,-0.60534 2.44329,0.0762 2.443289,0.0762 0.730779,3.27675 0.730779,3.27676 0.102257,0.10225 0.102253,0.10225 0.717288,-3.11442 0.717288,-3.11443 0.106686,-0.33073 0.106682,-0.33072 h 2.407383 2.407386 l -0.136718,0.46302 -0.136716,0.46302 -1.865487,8.25089 -1.86549,8.2509 v 0.43515 0.43514 l 1.863738,8.24729 1.863739,8.24729 0.138467,0.46302 0.138467,0.46303 h -2.407386 -2.407383 l -0.106682,-0.33073 -0.106686,-0.33073 -0.717288,-3.11443 -0.717288,-3.11442 -0.102253,0.10225 -0.102257,0.10225 -0.730779,3.27676 -0.730779,3.27675 z m 31.589999,0.0561 h -2.268173 V 143.43517 125.5758 h 2.089179 2.089179 l 0.417838,2.3151 0.417841,2.3151 0.555482,3.57188 0.555485,3.57187 0.511223,3.28709 0.51122,3.2871 0.152153,0.15215 0.152154,0.15215 -0.193103,-9.32622 -0.193104,-9.32622 h 2.2880589 2.2880611 v 17.85937 17.85938 h -2.0672557 -2.0672533 l -0.987158,-6.01928 -0.987157,-6.01927 -0.555879,-3.43958 -0.555879,-3.43958 -0.245584,-0.26459 -0.245581,-0.26458 0.144973,1.85208 0.144973,1.85209 0.15824,7.87135 0.158239,7.87136 z"
         id="path213" /><path
         style="fill:#010101;stroke-width:0.264583"
         d="m -28.978212,161.27777 -1.009582,-0.0168 -0.529166,-0.22032 -0.529167,-0.22033 -0.713227,-0.75509 -0.713226,-0.75509 -0.695497,-1.57336 -0.695495,-1.57335 -0.499673,-2.3954 -0.499674,-2.39539 -0.272246,-2.38125 -0.272245,-2.38125 -0.0021,-2.94853 -0.0021,-2.94853 0.278998,-2.74002 0.278998,-2.74001 0.51,-2.34709 0.510001,-2.34709 0.681497,-1.48859 0.681498,-1.48859 0.580025,-0.62123 0.580025,-0.62123 0.714465,-0.37173 0.714465,-0.37174 h 1.010055 1.010052 l 0.937636,0.63714 0.937636,0.63714 0.814046,1.54567 0.814043,1.54568 0.575982,2.48762 0.575982,2.48763 0.242994,2.93633 0.24299,2.93633 -0.0046,3.04271 -0.0046,3.04271 -0.24638,2.73312 -0.24638,2.73311 -0.577043,2.29397 -0.577043,2.29397 -0.596998,1.19062 -0.596995,1.19063 -0.621192,0.69523 -0.621191,0.69522 -0.577919,0.29696 -0.577919,0.29696 -1.009581,-0.0168 z m -0.0754,-5.27489 h 0.198985 l 0.461063,-1.12448 0.461061,-1.12448 0.215101,-3.43958 0.215098,-3.43959 0.01185,-4.6302 0.01185,-4.63021 -0.265539,-2.31756 -0.265538,-2.31757 -0.422476,-1.05587 -0.422479,-1.05588 h -0.185354 -0.185351 l -0.460018,1.38906 -0.460018,1.38907 -0.288581,5.78767 -0.288584,5.78767 0.292656,3.86962 0.292653,3.86962 0.442312,1.52135 0.442312,1.52136 h 0.198988 z m -43.249573,5.02708 h -2.266902 v -17.59479 -17.59479 h 2.083049 2.083051 l 0.425225,2.32424 0.425228,2.32425 0.282789,2.10753 0.282792,2.10752 0.494906,2.77813 0.494906,2.77812 0.163631,1.32292 0.163632,1.32291 0.143293,0.72761 0.143293,0.7276 h 0.238614 0.238615 l -0.12433,-3.63802 -0.124328,-3.63802 -0.13398,-5.6224 -0.13398,-5.62239 h 2.247631 2.24763 v 17.60592 17.60592 l -2.050521,-0.0773 -2.050521,-0.0773 -0.07366,-0.66146 -0.07366,-0.66146 -0.661371,-3.96875 -0.661371,-3.96875 -0.647102,-3.83645 -0.647099,-3.83646 -0.168857,-1.25407 -0.16886,-1.25407 -0.253016,0.15637 -0.253018,0.15638 0.147383,4.53728 0.147387,4.53727 0.153215,5.09323 0.153214,5.09323 z m 16.12164,0 h -2.248958 v -17.59479 -17.59479 h 2.248958 2.248958 v 17.59479 17.59479 z m 8.210386,0 h -2.257261 v -0.29664 -0.29665 l 0.798714,-3.47367 0.798713,-3.47366 0.516268,-2.24896 0.516266,-2.24896 0.653664,-2.80017 0.653663,-2.80018 -0.481549,-1.96232 -0.481552,-1.96233 -0.684123,-3.04271 -0.684125,-3.04271 -0.802968,-3.47366 -0.802971,-3.47367 v -0.29665 -0.29664 h 2.257261 2.257264 l 0.09787,0.33073 0.09787,0.33073 0.718355,3.15325 0.718354,3.15325 0.202404,-0.37513 0.202403,-0.37512 0.427062,-2.11667 0.427058,-2.11667 0.278233,-0.99218 0.278234,-0.99219 h 2.23652 2.236523 v 0.20244 0.20244 l -0.810869,3.56787 -0.810866,3.56787 -0.66022,2.91042 -0.66022,2.91042 -0.465288,2.11666 -0.465286,2.11667 0.309737,1.45521 0.30974,1.45521 0.695042,3.04271 0.695039,3.0427 0.931596,4.08366 0.931595,4.08365 v 0.21583 0.21582 h -2.236523 -2.23652 l -0.278234,-0.99219 -0.278233,-0.99218 -0.427058,-2.11667 -0.427062,-2.11667 -0.202403,-0.37512 -0.202404,-0.37513 -0.718354,3.15325 -0.718355,3.15325 -0.09787,0.33073 -0.09787,0.33073 z m 31.496977,0 h -2.268821 v -17.59479 -17.59479 h 2.080109 2.080112 l 0.461113,2.84427 0.461114,2.84427 0.620233,3.83646 0.620231,3.83646 0.160676,1.19062 0.160677,1.19063 0.274372,1.41735 0.274373,1.41735 0.213392,-0.22673 0.213395,-0.22672 -0.224264,-6.08542 -0.224261,-6.08542 -0.01376,-2.97656 -0.01376,-2.97656 h 2.2489587 2.2489583 v 17.59479 17.59479 h -2.0825804 -2.0825806 l -0.170429,-1.38906 -0.170431,-1.38906 -0.68135,-4.10104 -0.681349,-4.10105 -0.637517,-3.63616 -0.637513,-3.63617 v -0.5154 -0.51541 l -0.288613,-0.17837 -0.288615,-0.17838 0.161438,7.50495 0.161438,7.50494 0.14704,2.31511 0.147039,2.3151 z"
         id="path211" /></g></g></svg>
