<?xml version="1.0" encoding="UTF-8" standalone="no"?>
<svg
   version="1.1"
   id="Layer_1"
   x="0px"
   y="0px"
   viewBox="0 0 999.98999 426.00001"
   xml:space="preserve"
   sodipodi:docname="2025-10-05-LMP-Logo.svg"
   width="999.98999"
   height="426"
   inkscape:version="1.2.2 (b0a8486541, 2022-12-01)"
   xmlns:inkscape="http://www.inkscape.org/namespaces/inkscape"
   xmlns:sodipodi="http://sodipodi.sourceforge.net/DTD/sodipodi-0.dtd"
   xmlns="http://www.w3.org/2000/svg"
   xmlns:svg="http://www.w3.org/2000/svg"><defs
   id="defs85" /><sodipodi:namedview
   id="namedview83"
   pagecolor="#ffffff"
   bordercolor="#000000"
   borderopacity="0.25"
   inkscape:showpageshadow="2"
   inkscape:pageopacity="0.0"
   inkscape:pagecheckerboard="0"
   inkscape:deskcolor="#d1d1d1"
   showgrid="false"
   inkscape:zoom="1.317"
   inkscape:cx="482.91572"
   inkscape:cy="273.72817"
   inkscape:window-width="1920"
   inkscape:window-height="1052"
   inkscape:window-x="0"
   inkscape:window-y="0"
   inkscape:window-maximized="1"
   inkscape:current-layer="Layer_1" />
<style
   type="text/css"
   id="style2">
	.st0{fill:#51184E;}
	.st1{fill:#F9BB03;stroke:#F4EA12;stroke-width:0.5;stroke-miterlimit:10;}
	.st2{fill:#F9BB03;}
</style>
<path
   class="st0"
   d="M 966.47,426 H 33.52 C 15,426 0,410.99 0,392.48 V 33.52 C 0,15 15.01,0 33.52,0 h 932.95 c 18.52,0 33.52,15.01 33.52,33.52 v 358.95 c 0.01,18.52 -15,33.53 -33.52,33.53 z"
   id="path4" />

<g
   id="g60"
   transform="translate(0.11,0.36)">
	<g
   id="g26">
		<polygon
   class="st1"
   points="217.91,74.2 217.91,184.23 230.49,184.23 230.49,94.32 270.26,166.63 279.69,166.63 319.46,94.32 319.46,184.23 332.03,184.23 332.03,74.2 316.78,74.2 274.97,150.44 233.16,74.2 "
   id="polygon8" />
		<path
   class="st1"
   d="m 382.01,89.92 -40.28,94.31 h 12.26 l 10.75,-25.46 h 48.56 l 10.75,25.46 h 12.26 L 396.02,89.92 Z m -12.96,58.61 19.96,-47.29 19.96,47.29 z"
   id="path10" />
		<path
   class="st1"
   d="m 480.12,89.92 h -34.76 v 94.31 h 34.76 c 13.11,0 24.19,-4.47 33.21,-13.41 9.03,-8.94 13.54,-20.23 13.54,-33.88 0,-13.65 -4.52,-24.9 -13.54,-33.75 -9.03,-8.84 -20.1,-13.27 -33.21,-13.27 z m 25.12,73.56 c -7.23,6.92 -16.06,10.37 -26.47,10.37 H 456.14 V 100.3 h 22.63 c 10.42,0 19.24,3.44 26.47,10.31 7.23,6.87 10.85,15.65 10.85,26.34 0,10.77 -3.62,19.62 -10.85,26.53 z"
   id="path12" />
		<polygon
   class="st1"
   points="601.36,173.72 549.62,173.72 549.62,142.2 598.13,142.2 598.13,131.69 549.62,131.69 549.62,100.43 601.36,100.43 601.36,89.92 538.85,89.92 538.85,184.23 601.36,184.23 "
   id="polygon14" />
		<polygon
   class="st1"
   points="612.76,184.23 675.27,184.23 675.27,173.72 623.53,173.72 623.53,89.92 612.76,89.92 "
   id="polygon16" />
		<polygon
   class="st1"
   points="746.7,173.72 694.97,173.72 694.97,142.2 743.47,142.2 743.47,131.69 694.97,131.69 694.97,100.43 746.7,100.43 746.7,89.92 684.19,89.92 684.19,184.23 746.7,184.23 "
   id="polygon18" />
		<rect
   x="758.35999"
   y="89.919998"
   class="st1"
   width="10.78"
   height="94.309998"
   id="rect20" />
		<polygon
   class="st1"
   points="785.53,89.92 785.53,184.23 796.31,184.23 796.31,105.55 849.39,184.23 862.33,184.23 862.33,89.92 851.55,89.92 851.55,167.66 798.33,89.92 "
   id="polygon22" />
		<polygon
   class="st1"
   points="878.68,89.92 878.68,184.23 941.2,184.23 941.2,173.72 889.46,173.72 889.46,142.2 937.96,142.2 937.96,131.69 889.46,131.69 889.46,100.43 941.2,100.43 941.2,89.92 "
   id="polygon24" />
	</g>
	<g
   id="g44">
		<path
   class="st2"
   d="m 309.41,226.71 c -9.14,-8.55 -20.66,-12.89 -34.22,-12.89 h -57.73 v 137.24 h 16.68 v -46.08 h 39.1 c 13.82,0 25.73,-4.5 35.38,-13.37 9.67,-8.89 14.57,-19.82 14.57,-32.5 0.01,-12.93 -4.63,-23.83 -13.78,-32.4 z m -12.43,53.47 c -6.35,5.65 -14.33,8.51 -23.74,8.51 h -39.1 v -58.57 h 39.1 c 9.4,0 17.39,2.77 23.74,8.22 6.32,5.44 9.53,12.43 9.53,20.77 0.01,8.35 -3.2,15.44 -9.53,21.07 z"
   id="path28" />
		<polygon
   class="st2"
   points="403.73,338.27 346.29,338.27 346.29,304.4 400.14,304.4 400.14,291.6 346.29,291.6 346.29,258.03 403.73,258.03 403.73,245.24 333.2,245.24 333.2,351.07 403.73,351.07 "
   id="polygon30" />
		<polygon
   class="st2"
   points="445.53,351.07 458.62,351.07 458.62,258.03 493.02,258.03 493.02,245.24 411.12,245.24 411.12,258.03 445.53,258.03 "
   id="polygon32" />
		<path
   class="st2"
   d="m 574.04,301.09 c 6.16,-6.17 9.29,-13.8 9.29,-22.69 0,-9.59 -3.36,-17.6 -9.97,-23.82 -6.61,-6.21 -15.02,-9.35 -24.99,-9.35 h -46.63 v 105.83 h 13.09 v -39.19 h 22.05 l 30.95,38.97 0.17,0.21 h 15.94 L 552.18,310.9 c 8.6,-0.6 15.96,-3.9 21.86,-9.81 z m -4.25,-22.83 c 0,5.89 -2.2,10.88 -6.55,14.84 -4.36,3.97 -9.87,5.98 -16.37,5.98 h -32.04 v -41.05 h 32.04 c 6.61,0 12.14,1.94 16.45,5.77 4.3,3.81 6.47,8.68 6.47,14.46 z"
   id="path34" />
		<path
   class="st2"
   d="m 682.54,257.74 c -4.81,-4.76 -10.58,-8.58 -17.15,-11.34 -6.57,-2.76 -13.61,-4.16 -20.93,-4.16 -7.32,0 -14.37,1.4 -20.93,4.16 -6.57,2.76 -12.34,6.57 -17.16,11.34 -4.82,4.77 -8.69,10.7 -11.49,17.61 -2.81,6.92 -4.23,14.44 -4.23,22.35 0,8.01 1.42,15.61 4.23,22.57 2.8,6.96 6.67,12.96 11.49,17.84 4.81,4.86 10.59,8.73 17.16,11.49 6.57,2.76 13.61,4.16 20.93,4.16 7.32,0 14.36,-1.4 20.93,-4.16 6.57,-2.76 12.35,-6.63 17.16,-11.49 4.81,-4.87 8.68,-10.87 11.49,-17.84 2.81,-6.97 4.23,-14.56 4.23,-22.57 0,-7.91 -1.42,-15.43 -4.23,-22.35 -2.82,-6.92 -6.69,-12.84 -11.5,-17.61 z m 2.63,39.96 c 0,12.55 -3.97,22.96 -11.81,30.94 -7.83,7.98 -17.56,12.02 -28.91,12.02 -11.36,0 -21.09,-4.04 -28.91,-12.02 -7.83,-7.98 -11.8,-18.39 -11.8,-30.94 0,-12.25 3.97,-22.49 11.8,-30.42 7.83,-7.93 17.56,-11.95 28.92,-11.95 11.35,0 21.08,4.02 28.92,11.95 7.82,7.94 11.79,18.17 11.79,30.42 z"
   id="path36" />
		<polygon
   class="st2"
   points="712.03,245.24 697.19,245.24 742.1,350.72 742.24,351.07 758.84,351.07 803.56,246.02 803.9,245.24 789.06,245.24 750.4,335.6 712.17,245.58 "
   id="polygon38" />
		<rect
   x="812.53003"
   y="245.24001"
   class="st2"
   width="13.09"
   height="105.83"
   id="rect40" />
		<path
   class="st2"
   d="m 932.17,314.04 -0.21,0.5 c -3.43,8.04 -8.73,14.47 -15.73,19.12 -7,4.65 -14.87,7.01 -23.39,7.01 -11.56,0 -21.43,-4.07 -29.36,-12.1 -7.93,-8.03 -11.95,-18.34 -11.95,-30.64 0,-12.3 4.02,-22.58 11.95,-30.56 7.93,-7.98 17.81,-12.02 29.36,-12.02 8.32,0 16.02,2.23 22.88,6.64 6.86,4.41 12.12,10.52 15.65,18.16 l 0.22,0.48 12.57,-4.9 -0.25,-0.55 c -4.71,-10.12 -11.68,-18.23 -20.69,-24.09 -9.03,-5.87 -19.25,-8.84 -30.37,-8.84 -9.92,0 -19.15,2.39 -27.42,7.1 -8.28,4.72 -14.92,11.43 -19.73,19.96 -4.81,8.53 -7.28,18.18 -7.33,28.69 -0.05,10.52 2.39,20.18 7.25,28.7 4.86,8.52 11.52,15.24 19.8,19.95 8.27,4.71 17.5,7.1 27.42,7.1 11.33,0 21.78,-3.13 31.05,-9.29 9.27,-6.17 16.21,-14.63 20.62,-25.16 l 0.23,-0.54 z"
   id="path42" />
	</g>
	<g
   id="g56">
		<polygon
   class="st2"
   points="56.24,350.31 109.23,350.31 109.23,313.22 99.54,313.22 99.54,340.47 56.24,340.47 "
   id="polygon46" />
		<rect
   x="56.240002"
   y="274.69"
   class="st2"
   width="52.990002"
   height="9.8400002"
   id="rect48" />
		<path
   class="st2"
   d="m 71,244.86 c 4.29,0 7.86,-1.58 10.71,-4.73 2.85,-3.15 4.81,-7.71 5.87,-13.66 0.61,-3.48 1.45,-6.04 2.54,-7.68 1.09,-1.64 2.49,-2.46 4.2,-2.46 1.82,0 3.33,0.81 4.54,2.42 1.21,1.62 1.82,3.68 1.82,6.21 0,2.42 -0.69,4.62 -2.08,6.59 -1.39,1.97 -3.32,3.43 -5.79,4.39 l 4.54,9.54 c 3.89,-1.67 6.98,-4.39 9.27,-8.17 2.3,-3.79 3.44,-7.97 3.44,-12.57 0,-5.45 -1.46,-9.93 -4.39,-13.44 -2.93,-3.51 -6.66,-5.26 -11.2,-5.26 -4.24,0 -7.84,1.63 -10.79,4.88 -2.95,3.26 -4.98,7.84 -6.09,13.74 -0.66,3.53 -1.51,6.08 -2.57,7.65 -1.06,1.56 -2.45,2.35 -4.16,2.35 -1.82,0 -3.3,-0.74 -4.47,-2.23 -1.16,-1.49 -1.74,-3.42 -1.74,-5.79 0,-2.32 0.64,-4.43 1.93,-6.32 1.29,-1.89 3.04,-3.32 5.26,-4.28 l -3.48,-9.46 c -3.99,1.62 -7.17,4.27 -9.54,7.95 -2.37,3.68 -3.56,7.82 -3.56,12.41 0,5.2 1.48,9.49 4.43,12.87 2.95,3.36 6.72,5.05 11.31,5.05 z"
   id="path50" />
		<polygon
   class="st2"
   points="109.23,155.38 65.93,155.38 65.93,139.26 56.24,139.26 56.24,181.42 65.93,181.42 65.93,165.22 109.23,165.22 "
   id="polygon52" />
		<polygon
   class="st2"
   points="99.54,100.8 87.5,100.8 87.5,75.37 77.82,75.37 77.82,100.8 65.93,100.8 65.93,73.55 56.24,73.55 56.24,110.64 109.23,110.64 109.23,73.55 99.54,73.55 "
   id="polygon54" />
	</g>
	<rect
   x="159.46001"
   y="71.5"
   class="st2"
   width="6.7399998"
   height="282.92999"
   id="rect58" />
</g>

</svg>
