<?xml version="1.0" encoding="UTF-8" standalone="no"?>
<!-- Created with Inkscape (http://www.inkscape.org/) -->

<svg
   width="100%"
   height="100%"
   viewBox="0 0 65.704178 106.80102"
   version="1.1"
   id="svg5"
   xml:space="preserve"
   inkscape:version="1.2.2 (b0a8486541, 2022-12-01)"
   sodipodi:docname="2025-10-02-Eiche.svg"
   xmlns:inkscape="http://www.inkscape.org/namespaces/inkscape"
   xmlns:sodipodi="http://sodipodi.sourceforge.net/DTD/sodipodi-0.dtd"
   xmlns="http://www.w3.org/2000/svg"
   xmlns:svg="http://www.w3.org/2000/svg"><sodipodi:namedview
     id="namedview7"
     pagecolor="#ffffff"
     bordercolor="#000000"
     borderopacity="0.25"
     inkscape:showpageshadow="2"
     inkscape:pageopacity="0.0"
     inkscape:pagecheckerboard="0"
     inkscape:deskcolor="#d1d1d1"
     inkscape:document-units="mm"
     showgrid="false"
     inkscape:zoom="0.77593294"
     inkscape:cx="391.14205"
     inkscape:cy="269.99756"
     inkscape:window-width="1920"
     inkscape:window-height="1052"
     inkscape:window-x="0"
     inkscape:window-y="0"
     inkscape:window-maximized="1"
     inkscape:current-layer="layer1" /><defs
     id="defs2" /><g
     inkscape:label="Ebene 1"
     inkscape:groupmode="layer"
     id="layer1"
     transform="translate(105.6342,-50.240101)"><path
       style="fill:#008000;stroke-width:0.352778"
       d="m -77.351541,152.22595 c -10.8593,-7.50759 -16.983709,-11.89696 -19.366994,-13.88035 -4.031655,-3.35518 -7.059685,-8.3475 -8.345975,-13.76001 -0.58497,-2.4615 -0.62212,-5.11593 -0.53327,-38.099996 0.0706,-26.21812 0.20107,-35.521684 0.50073,-35.713347 0.59303,-0.379297 34.881392,-0.319965 35.484082,0.0614 0.43251,0.273677 0.4067,0.542422 -0.17639,1.836792 -0.57217,1.27015 -0.683016,2.328518 -0.683016,6.521635 0,2.75298 -0.11122,5.11761 -0.247156,5.25473 -0.714333,0.72055 -3.375332,0.56267 -5.485451,-0.32546 -2.727756,-1.1481 -3.087529,-1.14501 -4.181937,0.0359 -1.087413,1.17334 -1.055885,1.32827 1.470466,7.22611 1.565405,3.65448 1.917689,4.84217 1.917689,6.46533 0,1.72737 -0.135385,2.12382 -1.031198,3.01963 -0.861268,0.86127 -1.318217,1.0312 -2.772992,1.0312 -1.988001,0 -3.32855,-0.7588 -6.333066,-3.58475 -2.063651,-1.941 -2.420483,-1.9344 -4.112193,0.0761 -1.111109,1.32047 -1.140562,2.19772 -0.189078,5.63127 1.383749,4.99344 3.440221,7.63411 7.9083,10.15492 3.272483,1.84627 4.483054,3.36122 4.691161,5.870696 0.08791,1.06007 0.05422,2.49038 -0.07487,3.17847 l -0.234703,1.25108 h -2.083177 c -1.497658,0 -3.046215,-0.34861 -5.509486,-1.24027 -3.64019,-1.3177 -4.418005,-1.31643 -5.286223,0.009 -0.722874,1.10324 -0.73352,1.08611 5.157629,8.29682 5.508395,6.74223 5.989341,7.4962 5.989341,9.38931 0,1.14446 -0.264277,1.57201 -1.986252,3.21343 l -1.986252,1.89332 1.016113,1.07515 c 0.558863,0.59133 2.844708,2.47376 5.079661,4.18318 6.881763,5.26358 9.36825,8.40053 10.19239,12.8587 0.41523,2.2462 0.51312,9.41368 0.15791,11.56269 -0.35839,2.16824 -1.2767,1.80975 -8.945793,-3.49228 z m 9.525003,-6.25238 V 134.906 l -1.56665,-1.44408 c -0.86166,-0.79425 -2.012597,-1.54036 -2.557639,-1.65801 -3.096077,-0.66836 -5.047936,-2.25016 -5.047936,-4.0909 0,-1.32081 0.694912,-1.31676 3.390032,0.0197 1.142912,0.56677 2.554274,1.11064 3.136357,1.20862 l 1.058336,0.17814 -0.11889,-1.68804 c -0.10349,-1.46944 -7e-4,-1.78099 0.79375,-2.40591 1.40624,-1.10615 1.22327,-2.56087 -0.65276,-5.18989 -2.769377,-3.88094 -4.901707,-5.33045 -9.268888,-6.30078 -3.468335,-0.77062 -5.693022,-1.97596 -7.636312,-4.13737 -3.015075,-3.35349 -1.576564,-4.87146 1.964178,-2.07266 2.551546,2.01688 3.847775,2.59858 7.767225,3.48562 3.725661,0.84319 5.890694,2.1041 7.769057,4.52468 l 0.97014,1.25018 v -3.05542 c 0,-1.89033 -0.14064,-3.05542 -0.36881,-3.05542 -0.20285,0 -0.75848,-0.38966 -1.23473,-0.86591 -1.239795,-1.2398 -1.239795,-4.08394 0,-5.32374 0.47625,-0.47625 1.03188,-0.86591 1.23473,-0.86591 0.20981,0 0.36881,-0.79984 0.36881,-1.85531 0,-1.697146 -0.16003,-2.065546 -1.87724,-4.321526 -2.655918,-3.4892 -4.795618,-4.88658 -8.921714,-5.82654 -3.738908,-0.85175 -6.369879,-2.35915 -8.227486,-4.71387 -2.347518,-2.97575 -0.63348,-4.1738 2.38259,-1.66535 2.26478,1.8836 4.097256,2.73801 7.648014,3.56594 3.920031,0.91403 5.360804,1.67772 7.359846,3.90114 1.53322,1.70531 1.63599,1.76181 1.63599,0.89951 0,-0.50605 -0.16597,-0.9201 -0.36881,-0.9201 -0.20285,0 -0.75848,-0.38966 -1.23473,-0.86591 -0.66898,-0.66898 -0.865907,-1.23586 -0.865907,-2.49263 0,-1.95962 0.458527,-2.915 1.608947,-3.35239 0.84514,-0.32132 0.8605,-0.40156 0.8605,-4.49577 v -4.16862 l -1.49931,-1.44726 c -1.048214,-1.01182 -2.102272,-1.61852 -3.50341,-2.0165 -2.437034,-0.69221 -4.169505,-2.25695 -4.169505,-3.76583 0,-0.85979 0.143997,-1.0312 0.866278,-1.0312 0.476454,0 1.431071,0.38328 2.121376,0.85173 0.690301,0.46846 1.927662,0.96348 2.749691,1.10005 0.822029,0.13658 1.93116,0.47175 2.46474,0.74483 1.2032,0.61579 1.22763,0.41518 0.0882,-0.72426 -0.64475,-0.64475 -0.88194,-1.25888 -0.88194,-2.28349 0,-1.07479 0.20561,-1.56327 0.88194,-2.09528 l 0.88195,-0.69373 v -7.29457 c 0,-6.140778 0.0871,-7.381677 0.55075,-7.845321 0.44345,-0.443447 0.72163,-0.472905 1.42771,-0.15119 0.48233,0.219762 1.2627,0.399567 1.73417,0.399567 1.79687,0 2.64604,3.2884 2.00268,7.755404 -0.34437,2.39106 -0.009,4.23904 0.76962,4.23904 0.23028,0 1.36568,-0.33338 2.52313,-0.74085 2.51185,-0.88428 5.40467,-0.79239 6.50869,0.20674 0.57784,0.52293 0.71102,1.08544 0.71102,3.003 0,2.56052 -0.56497,4.49266 -2.61054,8.92774 -0.6985,1.51446 -1.27001,3.03257 -1.27001,3.37358 0,0.58404 1.70186,2.5159 2.21636,2.5159 0.13062,0 1.51896,-1.10555 3.08519,-2.45678 3.12969,-2.70004 4.44981,-3.19583 6.708,-2.51926 2.8141,0.84312 3.63412,3.44695 2.66404,8.45913 -1.16504,6.0195 -3.80971,9.98157 -8.22159,12.31704 -2.7563,1.45908 -4.24394,2.93314 -4.53707,4.495656 -0.48954,2.60945 0.24362,2.80906 4.32022,1.17623 1.5874,-0.63581 3.68942,-1.18042 4.94595,-1.28145 2.0725,-0.16662 2.2409,-0.12006 3.2632,0.90223 1.23182,1.23182 1.44736,3.13815 0.57802,5.11228 -0.27495,0.62436 -2.66624,3.75457 -5.31399,6.95603 -2.64776,3.20146 -5.05872,6.28151 -5.35771,6.84456 -0.50409,0.9493 -0.49605,1.04963 0.11052,1.37985 0.35978,0.19587 1.32882,1.02399 2.15344,1.84027 1.11907,1.10776 1.49931,1.76012 1.49931,2.5723 0,1.90122 -0.73003,2.85116 -3.50272,4.55791 -10.01769,6.16645 -13.78339,12.32699 -13.78339,22.54904 v 4.00051 h -1.5875 -1.5875 z m 2.14492,-39.64423 c -0.29335,-0.50366 -0.35958,-0.38996 -0.35958,0.61736 0,1.00732 0.0662,1.12102 0.35958,0.61736 0.24425,-0.41936 0.24425,-0.81536 0,-1.23472 z m 0.0547,-17.803766 c -0.36433,-0.75624 -0.3894,-0.73117 -0.41182,0.41183 -0.0182,0.92772 0.074,1.11917 0.38795,0.80526 0.3045,-0.3045 0.31072,-0.62168 0.0239,-1.21709 z"
       id="path239" /></g></svg>
