<?xml version="1.0" encoding="UTF-8" standalone="no"?>
<!-- Created with Inkscape (http://www.inkscape.org/) -->

<svg
   viewBox="0 0 201.69356 167.48547"
   version="1.1"
   id="svg5"
   inkscape:version="1.2.2 (b0a8486541, 2022-12-01)"
   sodipodi:docname="2025-10-06-demokratie-at-logo.svg"
   inkscape:export-filename="/home/oliver/Dokumente/github/demokratie/minimal-mistakes/assets/images/2023-04-08-Demokratie.png"
   inkscape:export-xdpi="96"
   inkscape:export-ydpi="96"
   xmlns:inkscape="http://www.inkscape.org/namespaces/inkscape"
   xmlns:sodipodi="http://sodipodi.sourceforge.net/DTD/sodipodi-0.dtd"
   xmlns="http://www.w3.org/2000/svg"
   xmlns:svg="http://www.w3.org/2000/svg">
  <sodipodi:namedview
     id="namedview7"
     pagecolor="#ffffff"
     bordercolor="#666666"
     borderopacity="1.0"
     inkscape:pageshadow="2"
     inkscape:pageopacity="1"
     inkscape:pagecheckerboard="0"
     inkscape:document-units="mm"
     showgrid="false"
     fit-margin-top="0"
     fit-margin-left="0"
     fit-margin-right="0"
     fit-margin-bottom="0"
     inkscape:zoom="2.8939464"
     inkscape:cx="3.6282635"
     inkscape:cy="96.580918"
     inkscape:window-width="1920"
     inkscape:window-height="1052"
     inkscape:window-x="0"
     inkscape:window-y="0"
     inkscape:window-maximized="1"
     inkscape:current-layer="layer1"
     units="px"
     inkscape:showpageshadow="2"
     inkscape:deskcolor="#d1d1d1" />
  <defs
     id="defs2" />
  <g
     inkscape:label="Ebene 1"
     inkscape:groupmode="layer"
     id="layer1"
     transform="translate(17.452145,-70.007403)">
    <rect
       style="fill:#ffffff;stroke-width:0.264583"
       id="rect29"
       width="26.246666"
       height="18.302338"
       x="70.271301"
       y="130.58824" />
    <path
       style="fill:#4b0082;fill-opacity:1;stroke-width:0.645161"
       d="m -16.605368,206.89075 v -2.58059 H 25.330085 67.26553 v 2.58059 2.58067 H 25.330085 -16.605368 Z m 85.16127,1.61293 c 0,-0.83219 2.078815,-0.96775 14.838674,-0.96775 12.759859,0 14.838674,0.13564 14.838674,0.96775 0,0.83218 -2.078815,0.96774 -14.838674,0.96774 -12.759859,0 -14.838674,-0.13564 -14.838674,-0.96774 z m 30.444836,-1.45162 0.200406,-2.41935 42.096746,-0.16612 42.09674,-0.16611 v 2.58532 2.58531 H 141.09764 98.800713 Z m -30.444836,-1.41884 c 0,-1.29563 0.307849,-1.32306 14.838674,-1.32306 12.253281,0 14.838674,0.15697 14.838674,0.8987 0,0.49454 -0.375666,1.04272 -0.834086,1.21874 -0.458724,0.17603 -7.136139,0.36729 -14.838674,0.42444 -13.724019,0.10211 -14.004588,0.0777 -14.004588,-1.21875 z m -81.935468,-4.54892 v -2.58059 H 26.94299 67.26553 v 2.58059 2.58067 H 26.94299 -13.379566 Z m 81.935468,1.61293 c 0,-0.83218 2.078815,-0.96774 14.838674,-0.96774 12.759859,0 14.838674,0.13563 14.838674,0.96774 0,0.83218 -2.078815,0.96774 -14.838674,0.96774 -12.759859,0 -14.838674,-0.13564 -14.838674,-0.96774 z m 30.322535,-1.61293 v -2.58059 h 40.645133 40.64513 v 2.58059 2.58067 H 139.52357 98.878437 Z m -30.322535,-1.61285 c 0,-0.83218 2.078815,-0.96774 14.838674,-0.96774 12.759859,0 14.838674,0.13563 14.838674,0.96774 0,0.8321 -2.078815,0.96774 -14.838674,0.96774 -12.759859,0 -14.838674,-0.13564 -14.838674,-0.96774 z m -39.838723,-2.09672 -38.2257798,-0.17145 v -2.25294 -2.25293 H 28.878472 67.26553 v 2.5806 c 0,1.41937 -0.0762,2.51041 -0.161544,2.42461 -0.08916,-0.0861 -17.362955,-0.23318 -38.387111,-0.32766 z m 39.838723,-1.12914 c 0,-0.8321 2.078815,-0.96774 14.838674,-0.96774 12.759859,0 14.838674,0.13564 14.838674,0.96774 0,0.83219 -2.078815,0.96775 -14.838674,0.96775 -12.759859,0 -14.838674,-0.13564 -14.838674,-0.96775 z m 30.322535,-1.29029 v -2.25804 h 38.709653 38.70965 v 2.25804 2.25804 H 137.58809 98.878437 Z M 68.555902,193.665 c 0,-0.83218 2.078815,-0.96774 14.838674,-0.96774 12.759859,0 14.838674,0.13564 14.838674,0.96774 0,0.83211 -2.078815,0.96774 -14.838674,0.96774 -12.759859,0 -14.838674,-0.13563 -14.838674,-0.96774 z M -0.25843446,176.72953 c 1.12539166,-39.65781 1.26483786,-54.15976 0.52517109,-54.61688 -0.40873733,-0.25298 -0.74310337,-1.02276 -0.74310337,-1.71153 0,-1.15085 0.49171924,-1.2522 6.07526634,-1.2522 6.4067444,0 7.5774374,0.55855 5.6979464,2.71768 -0.844412,0.97018 -0.873093,4.46952 -0.235306,28.70968 0.871447,33.12 0.900967,40.83061 0.156286,40.83061 -0.310058,0 -0.77945,-15.38709 -1.043019,-34.1935 -0.2811021,-20.0596 -0.7248153,-34.1935 -1.0733165,-34.1935 -0.3538732,0 -0.4561338,5.41242 -0.2529081,13.38706 0.8838678,34.67829 1.0223539,54.99994 0.3748283,54.99994 -0.432969,0 -0.6999741,-4.25105 -0.7597912,-12.09677 -0.051054,-6.65318 -0.2851408,-22.11289 -0.5208277,-34.35481 L 7.5141662,122.69726 7.3898839,157.05207 c -0.080315,22.18703 -0.3508253,34.35482 -0.7638222,34.35482 -0.4123949,0 -0.7008885,-12.20032 -0.8122245,-34.35482 L 5.6410916,122.69726 5.4855672,157.05207 c -0.1133096,25.02488 -0.3535685,34.35482 -0.8848584,34.35482 -0.5367535,0 -0.6537969,-9.02811 -0.4431798,-34.1935 0.1573532,-18.80641 0.050292,-34.1935 -0.2384301,-34.1935 -0.2884936,0 -0.5245615,11.42178 -0.5245615,25.38179 0,27.38624 -0.5115313,43.00521 -1.4084979,43.00521 -0.3098296,0 -0.4140714,-3.41125 -0.2316483,-7.58062 0.5950466,-13.60118 0.9077261,-61.17138 0.3911351,-59.51608 -0.276835,0.88712 -0.5426209,6.69356 -0.590627,12.90319 -0.2199897,28.45814 -0.97264853,54.19351 -1.58487824,54.19351 -0.42336775,0 -0.50193005,-5.04544 -0.2286003,-14.67736 z m 22.06239046,3.22578 c 1.345343,-41.62194 1.494924,-56.61294 0.575082,-57.63143 -0.505969,-0.56007 -0.919926,-1.50374 -0.919926,-2.09672 0,-0.93567 0.853121,-1.07824 6.451611,-1.07824 5.59849,0 6.451611,0.1425 6.451611,1.07824 0,0.59283 -0.407899,1.53657 -0.906392,2.09672 -0.777363,0.87356 -0.782987,5.83784 -0.03962,34.87534 0.476784,18.62117 0.739445,33.98402 0.583845,34.1397 -0.155677,0.15545 -0.455982,0.11049 -0.667285,-0.10135 -0.211379,-0.21107 -0.658445,-15.56174 -0.993565,-34.11189 -0.335128,-18.55015 -0.778315,-33.88527 -0.984902,-34.07805 -0.206578,-0.19279 -0.165735,15.10918 0.09076,34.00429 0.337338,24.85 0.269901,34.35482 -0.243688,34.35482 -0.505131,0 -0.728549,-8.33249 -0.774132,-28.87093 -0.03505,-15.87903 -0.304801,-31.33866 -0.599085,-34.35481 -0.316993,-3.24895 -0.426188,8.51711 -0.267996,28.87092 0.173431,22.31337 0.0442,34.35482 -0.368656,34.35482 -0.4095,0 -0.635738,-12.16672 -0.635738,-34.1935 0,-22.36557 -0.22319,-34.1935 -0.645186,-34.1935 -0.421996,0 -0.645186,11.82793 -0.645186,34.1935 0,22.02678 -0.226238,34.1935 -0.635738,34.1935 -0.412852,0 -0.543687,-12.0445 -0.373151,-34.35482 0.153162,-20.04063 0.04496,-31.80112 -0.259843,-28.22574 -0.287274,3.37094 -0.554813,18.83057 -0.594513,34.35482 -0.05105,20.06402 -0.277521,28.22574 -0.782308,28.22574 -0.51176,0 -0.621031,-9.59413 -0.391135,-34.35482 0.189204,-20.37979 0.116357,-29.76208 -0.179071,-23.06447 -0.273863,6.20969 -0.534696,18.40323 -0.579501,27.09675 -0.09449,18.32308 -0.679096,30.32254 -1.477216,30.32254 -0.308458,0 -0.393268,-5.13551 -0.189128,-11.45158 z m 22.228697,5.16126 c -0.0039,-3.45964 0.325069,-18.86615 0.731063,-34.23663 0.550165,-20.8197 0.551689,-28.13277 0.0071,-28.67745 -0.402336,-0.40234 -0.731064,-1.25357 -0.731064,-1.89228 0,-1.03678 0.65715,-1.16129 6.129079,-1.16129 5.471853,0 6.129003,0.12421 6.129003,1.16129 0,0.63856 -0.336805,1.49772 -0.747523,1.90897 -0.566929,0.56693 -0.550927,8.95778 0.06858,34.68644 0.447294,18.66635 0.638557,34.11371 0.425196,34.32761 -0.214122,0.21412 -0.515874,0.26136 -0.671322,0.10592 -0.155449,-0.15545 -0.483109,-14.50233 -0.727711,-31.88174 -0.244603,-17.37942 -0.673609,-32.76026 -0.953416,-34.17964 -0.523495,-2.65572 -0.220218,43.22207 0.382524,57.90316 0.187453,4.56614 0.08535,8.22581 -0.230124,8.22581 -0.869824,0 -1.414731,-16.97868 -1.414731,-44.081 0,-13.48658 -0.217932,-24.30326 -0.483871,-24.03694 -0.265938,0.26594 -0.37719,15.70172 -0.246888,34.30102 0.17145,24.46808 0.0381,33.81692 -0.477774,33.81692 -0.512827,0 -0.764287,-9.73937 -0.888036,-34.35482 l -0.172975,-34.35481 -0.155448,34.35481 c -0.101346,22.36945 -0.380238,34.35482 -0.800634,34.35482 -0.420625,0 -0.688849,-11.96456 -0.769545,-34.35482 l -0.124206,-34.35481 -0.429007,22.25804 c -0.235458,12.24193 -0.470154,27.70164 -0.520447,34.35482 -0.06096,7.93571 -0.324612,12.09677 -0.767563,12.09677 -0.656845,0 -0.573787,-11.66754 0.383286,-53.38701 0.203455,-8.87785 0.103632,-14.99999 -0.245364,-14.99999 -0.3429,0 -0.790347,14.32706 -1.068783,34.1935 -0.265938,18.99234 -0.732283,34.1935 -1.049046,34.1935 -0.313183,0 -0.573101,-2.83061 -0.576988,-6.29032 z m 21.955382,3.54841 c 0.007,-1.50808 0.282702,-12.61287 0.612649,-24.6774 0.994259,-36.34745 1.010642,-40.87976 0.150876,-41.73983 -0.42672,-0.42672 -0.77625,-1.29883 -0.77625,-1.93754 0,-1.04089 0.669037,-1.16129 6.451634,-1.16129 5.161261,0 6.451557,0.18441 6.451557,0.92164 0,0.50673 -0.444246,1.36604 -0.987553,1.9092 -0.876682,0.87668 -0.913868,4.12334 -0.330709,28.91702 0.361189,15.36126 0.778994,30.77547 0.928575,34.25393 0.19812,4.60789 0.06858,6.25694 -0.475489,6.07581 -0.842697,-0.28041 -0.848869,-0.45263 -1.453136,-40.65709 -0.227838,-15.18638 -0.57912,-27.44759 -0.779603,-27.24703 -0.416052,0.41606 -0.310134,17.84942 0.290323,47.60068 0.307086,15.19194 0.222504,20.48381 -0.324613,20.48381 -0.535687,0 -0.762077,-5.26139 -0.824561,-19.19351 -0.04572,-10.55646 -0.293371,-26.01609 -0.547117,-34.35482 -0.353568,-11.63232 -0.446532,-7.16479 -0.397764,19.19382 0.0381,18.89526 -0.153925,34.35497 -0.420625,34.35481 -0.265938,-1.5e-4 -0.514351,-9.79864 -0.551689,-21.77448 -0.09373,-30.18766 -0.377952,-45.98341 -0.834696,-46.44015 -0.21336,-0.21336 -0.387858,15.04769 -0.387858,33.91331 0,25.33257 -0.193548,34.30102 -0.738379,34.30102 -0.551689,0 -0.618745,-8.68392 -0.264414,-34.26757 0.341376,-24.68182 0.277368,-34.14595 -0.229363,-33.83284 -0.493014,0.3048 -0.703327,10.54144 -0.703327,34.26756 0,25.12074 -0.191262,33.83285 -0.743713,33.83285 -0.557022,0 -0.65913,-8.64536 -0.40767,-34.35482 0.185166,-18.89511 0.119634,-31.30643 -0.14478,-27.58062 -0.264415,3.7258 -0.516637,13.04187 -0.560071,20.70242 -0.116586,20.60055 -0.853441,41.23302 -1.471957,41.23302 -0.298705,0 -0.536449,-1.23383 -0.529591,-2.74191 z m 22.2819,-3.54841 c 0.16764,-3.45964 0.601981,-18.91561 0.963931,-34.34651 0.586741,-24.98479 0.550165,-28.13552 -0.332232,-28.78078 -0.544831,-0.39852 -0.99083,-1.20061 -0.99083,-1.78247 0,-0.90991 0.902514,-1.05789 6.451558,-1.05789 5.782598,0 6.451638,0.1204 6.451638,1.16129 0,0.63856 -0.35586,1.51738 -0.79142,1.95263 -0.874928,0.87501 -0.874547,0.95403 0.20803,42.59212 0.61341,23.59773 0.56388,27.39226 -0.348237,26.48045 -0.157734,-0.15773 -0.578359,-15.48157 -0.934823,-34.05314 -0.356616,-18.57156 -0.829057,-33.94729 -1.050113,-34.16835 -0.220981,-0.22098 -0.191263,15.0544 0.06858,33.94554 0.351282,25.77979 0.28194,34.34743 -0.275845,34.34743 -0.55245,0 -0.743713,-8.71211 -0.743713,-33.83285 0,-23.33643 -0.214122,-33.9652 -0.690373,-34.25956 -0.489204,-0.30252 -0.554736,9.55115 -0.224028,33.83292 0.350521,25.71266 0.281179,34.25949 -0.277368,34.25949 -0.552451,0 -0.743713,-8.80972 -0.743713,-34.2316 0,-18.82737 -0.217932,-34.09673 -0.483871,-33.93198 -0.265938,0.16459 -0.48387,15.56829 -0.48387,34.23 0,22.18893 -0.223267,33.93106 -0.645415,33.93228 -0.422911,0.001 -0.622555,-11.83517 -0.579883,-34.35321 0.05334,-26.17893 -0.04572,-30.82363 -0.399289,-19.51637 -0.25527,8.16126 -0.50292,23.62089 -0.549402,34.35481 -0.06096,14.17513 -0.286513,19.51607 -0.82319,19.51607 -0.547879,0 -0.631699,-5.29187 -0.324612,-20.48381 0.59055,-29.26975 0.70866,-47.18272 0.313182,-47.57827 -0.33909,-0.33909 -1.140487,35.3999 -1.249758,55.74822 -0.05334,10.58038 -0.235458,12.31386 -1.267741,12.31386 -0.301752,0 -0.41148,-2.83061 -0.24384,-6.29032 z m 22.211495,3.87096 c -0.005,-1.3306 0.33147,-16.60925 0.7498,-33.95247 0.57684,-23.95038 0.57913,-31.8217 0.008,-32.73313 -1.76007,-2.81834 -1.15473,-3.15301 5.70221,-3.15301 3.54833,0 6.45156,0.22556 6.45156,0.5014 0,0.27584 -0.46787,1.17013 -1.04051,1.98715 -0.94588,1.35049 -0.97468,4.04698 -0.317,29.65967 0.86808,33.78941 0.89048,40.1096 0.1425,40.1096 -0.31623,0 -0.78296,-15.20116 -1.04913,-34.1935 -0.27584,-19.6834 -0.72771,-34.1935 -1.06451,-34.1935 -0.34366,0 -0.44501,6.33215 -0.24536,15.32254 0.95372,43.02845 1.02428,53.06446 0.37338,53.06446 -0.43358,0 -0.70028,-3.92477 -0.75743,-11.12903 -0.0457,-6.12092 -0.28347,-21.58063 -0.52197,-34.35481 l -0.43511,-23.22579 -0.12268,34.35481 c -0.0793,22.1881 -0.349,34.35482 -0.7623,34.35482 -0.41225,0 -0.70105,-12.20033 -0.81222,-34.35482 l -0.17298,-34.35481 -0.15544,34.35481 c -0.11278,24.86722 -0.3551,34.35482 -0.87928,34.35482 -0.52883,0 -0.65303,-9.19675 -0.46101,-34.1935 0.14478,-18.80642 0.0381,-34.1935 -0.24384,-34.1935 -0.27889,0 -0.50825,11.68543 -0.50978,25.9677 -0.003,27.68921 -0.48996,42.4193 -1.4036,42.4193 -0.30937,0 -0.41301,-3.84674 -0.23089,-8.54836 0.60427,-15.59275 0.90099,-60.18871 0.39015,-58.54835 -0.27661,0.88712 -0.54255,6.40325 -0.59055,12.25808 -0.2187,26.44022 -0.98893,54.83863 -1.48674,54.83863 -0.30023,0 -0.55093,-1.08868 -0.55627,-2.41936 z m 22.29279,-9.03222 c 1.31316,-40.33957 1.47219,-56.61469 0.56312,-57.63143 -0.50063,-0.56007 -0.91059,-1.50374 -0.91059,-2.09672 0,-0.93567 0.85306,-1.07824 6.45156,-1.07824 5.5985,0 6.45163,0.1425 6.45163,1.07824 0,0.59283 -0.40843,1.53657 -0.90808,2.09672 -0.77929,0.87409 -0.78699,5.82412 -0.0533,34.88951 0.4694,18.62902 0.73305,33.99187 0.58522,34.13978 -0.14706,0.14782 -0.4412,0.096 -0.65227,-0.11583 -0.21108,-0.21107 -0.65837,-15.56173 -0.99357,-34.11189 -0.33528,-18.55015 -0.77831,-33.88527 -0.98497,-34.07805 -0.2065,-0.19279 -0.16535,15.10918 0.0907,34.00429 0.33757,24.85 0.26975,34.35482 -0.24384,34.35482 -0.50444,0 -0.73228,-8.07599 -0.78585,-27.90318 -0.0381,-15.34678 -0.30861,-30.80641 -0.59284,-34.35482 -0.29946,-3.74059 -0.40691,7.9844 -0.25603,27.90318 0.16916,22.30895 0.0381,34.35482 -0.3749,34.35482 -0.40996,0 -0.63551,-12.16672 -0.63551,-34.1935 0,-22.36557 -0.22327,-34.1935 -0.64542,-34.1935 -0.42215,0 -0.64541,11.82793 -0.64541,34.1935 0,22.02678 -0.22632,34.1935 -0.63551,34.1935 -0.41301,0 -0.54407,-12.0445 -0.37338,-34.35482 0.15316,-20.04062 0.0457,-31.80112 -0.25984,-28.22573 -0.28728,3.37094 -0.55474,18.83056 -0.59437,34.35481 -0.0533,20.15096 -0.2766,28.22574 -0.78592,28.22574 -0.51664,0 -0.62561,-9.49004 -0.39548,-34.35482 0.17678,-19.08789 0.10363,-29.62416 -0.16459,-23.70966 -0.26518,5.85484 -0.52274,17.7851 -0.57227,26.51162 -0.10515,18.72419 -0.71171,31.55286 -1.49138,31.55286 -0.30785,0 -0.39091,-5.14221 -0.18593,-11.45158 z m 22.23009,4.8387 c -0.002,-3.6371 0.32385,-19.04682 0.7239,-34.24379 0.53721,-20.42467 0.53797,-27.81974 0.003,-28.35482 -0.39852,-0.39852 -0.7239,-1.24648 -0.7239,-1.88519 0,-1.03678 0.65685,-1.16129 6.12901,-1.16129 5.47192,0 6.12907,0.12421 6.12907,1.16129 0,0.63856 -0.33832,1.49932 -0.75133,1.91255 -0.5715,0.5715 -0.55931,8.87137 0.0533,34.70084 0.44196,18.67222 0.63475,34.11798 0.42901,34.32395 -0.20574,0.20574 -0.50445,0.24461 -0.66371,0.0854 -0.15925,-0.15926 -0.4953,-14.94124 -0.74676,-32.84941 -0.25222,-17.90824 -0.68351,-33.28618 -0.96004,-34.1733 -0.51435,-1.65233 -0.18669,45.86857 0.40996,59.51608 0.18211,4.16937 0.0777,7.58062 -0.23165,7.58062 -0.91517,0 -1.40269,-14.71272 -1.40544,-42.4193 -0.001,-14.28226 -0.2385,-25.9677 -0.5273,-25.9677 -0.2888,0 -0.39548,15.38709 -0.23851,34.1935 0.20955,25.00918 0.0914,34.1935 -0.43739,34.1935 -0.52349,0 -0.77145,-9.49918 -0.89642,-34.35482 l -0.17297,-34.35481 -0.15545,34.35481 c -0.10134,22.36946 -0.38024,34.35482 -0.80071,34.35482 -0.42062,0 -0.68808,-11.96327 -0.76756,-34.35482 l -0.12268,-34.35481 -0.43587,22.90323 c -0.24003,12.59679 -0.47473,28.05642 -0.52273,34.35482 -0.0533,7.37868 -0.32309,11.45158 -0.7521,11.45158 -0.64312,0 -0.53263,-16.61863 0.36272,-54.35475 0.19431,-8.20294 0.0899,-14.03225 -0.25223,-14.03225 -0.33604,0 -0.78844,14.53555 -1.06398,34.1935 -0.26365,18.80641 -0.73304,34.1935 -1.04302,34.1935 -0.31014,0 -0.56541,-2.97577 -0.56693,-6.61288 z M -0.47634388,114.31022 v -3.54841 H 83.394576 167.26551 v 3.54841 3.54833 H 83.394576 -0.47634388 Z m 0,-8.70967 v -4.51616 H 83.394576 167.26551 v 4.51616 4.51607 H 83.394576 -0.47634388 Z M -8.743026,98.363518 -8.5408672,96.287827 37.436353,83.147577 83.41355,70.007403 129.37181,83.148568 175.33,96.289656 l 0.20193,2.074776 0.20193,2.074778 H 83.394576 -8.9451925 Z M 161.45906,95.882519 C 160.57194,95.561716 142.63634,90.377442 121.60207,84.362816 L 83.358077,73.427035 45.150508,84.36815 C 24.136395,90.385748 6.2171948,95.569641 5.3301037,95.887853 c -0.9670783,0.34671 30.2908583,0.578358 78.0644723,0.578358 48.304694,0 79.042284,-0.230124 78.064484,-0.583692 z M 11.136551,95.336164 c 0.532258,-0.303276 17.008053,-5.126895 36.612914,-10.719068 l 35.645111,-10.16776 35.645114,10.16776 c 19.60484,5.592173 36.08067,10.412591 36.61293,10.711905 0.53264,0.299467 -31.98385,0.547879 -72.258044,0.551689 -40.835831,0.0039 -72.797712,-0.236982 -72.258025,-0.544069 z"
       id="path67" />
    <text
       xml:space="preserve"
       style="font-size:26.6667px;font-family:sans-serif;-inkscape-font-specification:'sans-serif, Normal';fill:#4b0082;fill-opacity:1;stroke:#4b0082;stroke-opacity:1"
       x="-17.565479"
       y="236.99287"
       id="text308"><tspan
         sodipodi:role="line"
         id="tspan306"
         x="-17.565479"
         y="236.99287"
         style="font-style:normal;font-variant:normal;font-weight:600;font-stretch:normal;font-size:26.6667px;font-family:Orbitron;-inkscape-font-specification:'Orbitron Semi-Bold'">demokratie.at</tspan></text>
  </g>
</svg>
