<?xml version="1.0" encoding="UTF-8" standalone="no"?>
<!-- Created with Inkscape (http://www.inkscape.org/) -->

<svg
   viewBox="0 0 53.103523 16.316151"
   version="1.1"
   id="svg5"
   xml:space="preserve"
   inkscape:version="1.2.2 (b0a8486541, 2022-12-01)"
   sodipodi:docname="2025-10-29-GHR.svg"
   xmlns:inkscape="http://www.inkscape.org/namespaces/inkscape"
   xmlns:sodipodi="http://sodipodi.sourceforge.net/DTD/sodipodi-0.dtd"
   xmlns="http://www.w3.org/2000/svg"
   xmlns:svg="http://www.w3.org/2000/svg"><sodipodi:namedview
     id="namedview7"
     pagecolor="#ffffff"
     bordercolor="#000000"
     borderopacity="0.25"
     inkscape:showpageshadow="2"
     inkscape:pageopacity="0.0"
     inkscape:pagecheckerboard="0"
     inkscape:deskcolor="#d1d1d1"
     inkscape:document-units="mm"
     showgrid="false"
     inkscape:zoom="2.9469416"
     inkscape:cx="135.22494"
     inkscape:cy="29.691799"
     inkscape:window-width="1920"
     inkscape:window-height="1008"
     inkscape:window-x="0"
     inkscape:window-y="0"
     inkscape:window-maximized="1"
     inkscape:current-layer="layer1" /><defs
     id="defs2" /><g
     inkscape:label="Ebene 1"
     inkscape:groupmode="layer"
     id="layer1"
     transform="translate(-34.585509,-65.887358)"><g
       id="g115"
       transform="translate(-35.912938,-74.698912)"><path
         style="fill:#a5cee1;stroke-width:0.169333"
         d="m 78.609256,156.89133 -1.022756,-0.0112 -0.912313,-0.24535 -0.912313,-0.24535 -0.997981,-0.53192 -0.997982,-0.53192 -0.976504,-1.04388 -0.976504,-1.04389 -0.461957,-0.97567 -0.461957,-0.97567 -0.195271,-1.25603 -0.195271,-1.25603 0.195271,-1.25603 0.195271,-1.25603 0.461957,-0.97567 0.461957,-0.97567 1.001814,-1.07094 1.001815,-1.07095 1.221066,-0.60348 1.221066,-0.60348 1.214251,-0.18795 1.214252,-0.18795 1.185413,0.18349 1.185414,0.18348 1.106954,0.51801 1.106954,0.518 0.994736,0.94882 0.994735,0.94882 0.60688,1.15489 0.60688,1.1549 0.200377,1.28887 0.200376,1.28887 -0.197526,1.27054 -0.197526,1.27053 -0.528824,1.0476 -0.528824,1.04759 -0.919333,0.96383 -0.919333,0.96382 -0.980803,0.52276 -0.980803,0.52277 -0.995451,0.25928 -0.99545,0.25928 z m 0.02173,-1.18756 0.197817,0.0134 0.275063,-0.10556 0.275062,-0.10555 0.346254,-0.67871 0.346253,-0.67871 0.237367,-0.78207 0.237367,-0.78207 0.0018,-0.21167 0.0018,-0.21166 h -1.93181 -1.93181 l 0.296335,0.97366 0.296336,0.97367 0.360947,0.70405 0.360948,0.70404 0.216194,0.0869 0.216193,0.0869 0.197818,0.0134 z m -2.197006,-0.33318 0.202145,0.008 -0.358675,-0.80433 -0.358674,-0.80434 -0.184571,-0.90886 -0.18457,-0.90887 -1.212694,-0.30797 -1.212695,-0.30796 -0.520539,-0.26919 -0.520539,-0.26918 v 0.17931 0.17931 l 0.4374,0.86317 0.437401,0.86317 0.809603,0.8096 0.809604,0.80961 0.82733,0.43038 0.827329,0.43038 0.202145,0.008 z m 4.469673,0.008 h 0.165441 l 0.863168,-0.4374 0.863167,-0.4374 0.81047,-0.81047 0.810469,-0.81047 0.437401,-0.86317 0.4374,-0.86317 v -0.17931 -0.17931 l -0.520539,0.26918 -0.520539,0.26919 -1.212695,0.30796 -1.212694,0.30797 -0.18457,0.90887 -0.184571,0.90886 -0.358674,0.80434 -0.358675,0.80433 z m -2.216484,-4.40267 h 0.508 v -0.84666 -0.84667 h 0.846666 0.846667 v -0.508 -0.508 h -0.846667 -0.846666 v -0.84667 -0.84666 h -0.508 -0.508001 v 0.84666 0.84667 H 77.3325 76.485833 v 0.508 0.508 h 0.846667 0.846666 v 0.84667 0.84666 z m -3.429001,-0.17844 0.04233,0.009 v -2.02287 -2.02288 l -0.889,0.26097 -0.889,0.26096 -0.800865,0.43227 -0.800865,0.43226 -0.09955,0.31365 -0.09955,0.31364 0.09792,0.30852 0.09792,0.30852 0.705138,0.39631 0.705139,0.39631 0.944018,0.30206 0.944019,0.30207 0.04233,0.009 z m 7.813583,-0.32408 0.997915,-0.30215 0.693575,-0.38981 0.693575,-0.38981 0.09792,-0.30852 0.09792,-0.30852 -0.09792,-0.30852 -0.09792,-0.30852 -0.693575,-0.38981 -0.693575,-0.38981 -0.997915,-0.30215 -0.997916,-0.30214 v 2.00095 2.00095 z m -10.468044,-3.99129 0.520539,-0.26919 1.212695,-0.30796 1.212694,-0.30797 0.18457,-0.90887 0.184571,-0.90886 0.358674,-0.80434 0.358675,-0.80433 h -0.165441 -0.165441 l -0.863168,0.4374 -0.863167,0.4374 -0.81047,0.81047 -0.810469,0.81047 -0.437401,0.86317 -0.4374,0.86316 v 0.17932 0.17931 z m 12.654772,0.0909 0.05198,-0.14225 -0.447043,-0.8822 -0.447045,-0.8822 -0.810469,-0.81047 -0.81047,-0.81047 -0.863167,-0.4374 -0.863168,-0.4374 H 80.903651 80.73821 l 0.358675,0.80433 0.358674,0.80434 0.184571,0.90886 0.18457,0.90887 1.216936,0.30904 1.216936,0.30905 0.473964,0.25008 0.473964,0.25008 z m -6.640454,-1.18506 h 1.93181 l -0.0018,-0.21166 -0.0018,-0.21167 -0.237367,-0.78207 -0.237367,-0.78207 -0.350627,-0.68728 -0.350627,-0.68729 -0.341506,-0.10839 -0.341506,-0.10839 -0.341507,0.10839 -0.341506,0.10839 -0.362635,0.70736 -0.362635,0.70735 -0.296336,0.97367 -0.296335,0.97366 z m 31.323535,10.49867 h -0.2139 l -0.29551,-0.32653 -0.29551,-0.32653 0.1114,-0.35099 0.1114,-0.35098 0.31493,-0.16854 0.31493,-0.16855 0.26627,0.10218 0.26627,0.10217 v 0.14922 0.14922 l -0.38046,-0.0403 -0.38045,-0.0403 -0.0548,0.38176 -0.0547,0.38175 0.27317,0.10483 0.27319,0.10483 0.11969,-0.12877 0.1197,-0.12877 -0.21167,-0.0756 -0.21166,-0.0756 v -0.15522 -0.15522 h 0.33866 0.33867 v 0.40522 0.40521 l -0.26785,0.10279 -0.26785,0.10278 z m 1.08828,0 h -0.16934 v -0.762 -0.762 h 0.16934 0.16933 v 0.254 0.254 h 0.33867 0.33866 v -0.254 -0.254 h 0.16934 0.16933 v 0.762 0.762 h -0.16933 -0.16934 v -0.33867 -0.33866 h -0.33866 -0.33867 v 0.33866 0.33867 z m 1.78669,-0.23725 -0.18732,0.25618 -0.12236,-0.12236 -0.12235,-0.12235 v -0.64911 -0.64911 h 0.59798 0.59798 l 0.0983,0.25616 0.0983,0.25615 -0.18425,0.22201 -0.18425,0.222 0.19635,0.19635 0.19635,0.19635 -0.11975,0.11974 -0.11974,0.11975 -0.27896,-0.27897 -0.27897,-0.27896 z m 0.23531,-0.60942 h 0.15934 l 0.10466,-0.16933 0.10465,-0.16933 h -0.26399 -0.264 v 0.16933 0.16933 z m 1.026,0.84667 h -0.16934 v -0.15934 -0.15934 l 0.16934,-0.10465 0.16933,-0.10466 v 0.264 0.26399 z m 0.49658,0 h -0.18074 l 0.11753,-0.381 0.11753,-0.381 0.23976,-0.4712 0.23976,-0.47121 0.13271,0.082 0.13272,0.082 0.3099,0.68724 0.3099,0.68724 -0.13434,0.12527 -0.13435,0.12528 -0.0756,-0.21167 -0.0756,-0.21167 h -0.40922 -0.40922 v 0.16934 0.16933 z m 0.6323,-0.73378 0.11289,-0.11289 -0.11289,-0.11289 -0.11288,-0.11288 v 0.22577 0.22578 z m 1.50818,0.73378 h -0.21391 l -0.29551,-0.32653 -0.2955,-0.32653 0.11139,-0.35099 0.1114,-0.35098 0.31493,-0.16854 0.31494,-0.16855 0.26626,0.10218 0.26627,0.10217 v 0.14922 0.14922 l -0.38045,-0.0403 -0.38046,-0.0403 -0.0547,0.38176 -0.0548,0.38175 0.27318,0.10483 0.27318,0.10483 0.1197,-0.12877 0.11969,-0.12877 -0.21166,-0.0756 -0.21167,-0.0756 v -0.15522 -0.15522 h 0.33867 0.33866 v 0.40522 0.40521 l -0.26785,0.10279 -0.26785,0.10278 z m 1.5116,0 h -0.59266 v -0.762 -0.762 h 0.59266 0.59267 v 0.15809 0.15808 l -0.46567,0.0705 -0.46566,0.0705 0.46566,0.0254 0.46567,0.0254 v 0.16933 0.16934 h -0.42333 -0.42334 v 0.16933 0.16933 h 0.42334 0.42333 v 0.16934 0.16933 z m 1.12429,-0.0993 -0.14572,0.0901 -0.10828,-0.10828 -0.10829,-0.10829 v -0.64911 -0.64911 h 0.2444 0.2444 l 0.2636,0.37634 0.2636,0.37635 v -0.37635 -0.37634 h 0.254 0.254 v 0.64911 0.64911 l -0.11443,0.11444 -0.11444,0.11444 -0.39356,-0.36974 -0.39357,-0.36973 v 0.27353 0.27352 z m 1.94373,0.0993 h -0.20628 l -0.2032,-0.2032 -0.2032,-0.2032 v -0.46414 -0.46414 l 0.19636,-0.12136 0.19637,-0.12136 0.69263,0.0262 0.69264,0.0262 0.207,0.28047 0.20701,0.28047 0.10744,-0.27999 0.10745,-0.27999 h 0.25661 0.25662 l -0.20182,0.24317 -0.20181,0.24318 -0.12744,0.47649 -0.12743,0.47649 h -0.13493 -0.13493 l -0.19155,-0.58498 -0.19156,-0.58497 -0.46566,0.0177 -0.46567,0.0177 -0.18111,0.0169 -0.18111,0.0169 0.0543,0.381 0.0543,0.381 0.4655,-0.0319 0.46549,-0.0319 v 0.14076 0.14076 l -0.26785,0.10279 -0.26785,0.10278 z m -22.54135,-0.67733 h -9.567334 v -0.16934 -0.16933 h 9.567334 9.56733 v 0.16933 0.16934 z m 2.96333,-1.80553 -0.42333,0.0907 -0.55162,-0.23563 -0.55163,-0.23563 -0.17503,-0.46039 -0.17504,-0.46038 0.104661,-0.47652 0.104659,-0.47652 0.43317,-0.34073 0.43317,-0.34073 h 0.57752 0.57753 l 0.41564,0.41564 0.41563,0.41564 v 0.59092 0.59092 l -0.381,0.41598 -0.381,0.41598 z m -0.28894,-0.59758 0.53522,-0.0522 0.20101,-0.40548 0.20102,-0.40548 -0.13102,-0.35652 -0.13102,-0.35652 -0.442,-0.15788 -0.44201,-0.15789 -0.3438,0.31113 -0.34379,0.31113 v 0.32356 0.32355 l 0.18058,0.33742 0.18059,0.33743 z m -11.987724,0.54044 h -0.254 v -1.43933 -1.43934 h 0.808988 0.80899 l 0.376344,0.26361 0.376345,0.2636 v 0.40163 0.40164 l -0.254,0.254 -0.254,0.254 v 0.16069 0.1607 l 0.254,0.2108 0.254,0.2108 v 0.1486 0.1486 H 91.2725 90.988497 l -0.447946,-0.53657 -0.447946,-0.53656 -0.199385,0.12322 -0.199386,0.12323 v 0.41334 0.41334 z m 0.858444,-1.524 h 0.604444 l -0.05411,-0.381 -0.05411,-0.381 -0.550334,-0.0531 -0.550333,-0.0531 v 0.43406 0.43406 z m 2.866889,1.524 h -1.100666 v -1.43933 -1.43934 h 1.100666 1.100667 v 0.254 0.254 h -0.762 -0.762 v 0.33867 0.33867 h 0.677333 0.677334 v 0.254 0.254 h -0.677334 -0.677333 v 0.33866 0.33867 h 0.762 0.762 v 0.254 0.254 z m 2.540001,0 h -0.720532 l -0.188599,-0.22725 -0.188598,-0.22724 0.109254,-0.10926 0.109255,-0.10925 0.630008,0.10074 0.63001,0.10074 0.116776,-0.18894 0.116774,-0.18895 -0.748394,-0.3208 -0.748393,-0.3208 -0.112955,-0.29435 -0.112956,-0.29436 0.261746,-0.39947 0.261745,-0.39948 h 0.556397 0.556399 l 0.328698,0.24862 0.328698,0.24861 -0.169333,0.0329 -0.169334,0.0329 -0.576676,0.0148 -0.576677,0.0148 -0.0596,0.17315 -0.0596,0.17315 0.720938,0.33485 0.720939,0.33485 0.05533,0.39032 0.05533,0.39032 -0.203066,0.24468 -0.203066,0.24468 z m 1.947333,0 h -0.338667 v -1.43933 -1.43934 h 0.846667 0.846667 l 0.338666,0.33867 0.338667,0.33867 -0.0026,0.29633 -0.0026,0.29633 -0.124406,0.18632 -0.124413,0.18632 -0.369868,0.19468 -0.369868,0.19468 h -0.349799 -0.349798 v 0.42334 0.42333 z m 0.6566,-1.35467 h 0.317932 l 0.210801,-0.254 0.210802,-0.254 -0.210802,-0.254 -0.210801,-0.254 H 98.309103 97.99117 v 0.508 0.508 z m 5.430547,1.35467 h -0.32982 v -1.43933 -1.43934 l 0.29634,0.005 0.29633,0.005 0.71967,0.94972 0.71966,0.94972 v -0.95482 -0.95483 h 0.254 0.254 v 1.43934 1.43933 h -0.25071 -0.25072 l -0.63828,-0.85703 -0.63829,-0.85704 -0.0512,0.85704 -0.0512,0.85703 z m 3.81885,0 h -0.72053 l -0.1886,-0.22725 -0.1886,-0.22724 0.10926,-0.10926 0.10925,-0.10925 0.63001,0.10074 0.63001,0.10074 0.11678,-0.18894 0.11677,-0.18895 -0.74839,-0.3208 -0.7484,-0.3208 -0.11295,-0.29435 -0.11296,-0.29436 0.26175,-0.39947 0.26174,-0.39948 h 0.5564 0.5564 l 0.3287,0.24862 0.3287,0.24861 -0.16934,0.0329 -0.16933,0.0329 -0.57668,0.0148 -0.57667,0.0148 -0.0596,0.17315 -0.0596,0.17315 0.72094,0.33485 0.72094,0.33485 0.0553,0.39032 0.0553,0.39032 -0.20307,0.24468 -0.20307,0.24468 z m 1.94734,0 h -0.33867 v -1.43933 -1.43934 h 0.33867 0.33866 v 1.43934 1.43933 z m 1.99813,0 h -0.98213 v -1.43933 -1.43934 h 0.77313 0.77313 l 0.32753,0.17529 0.32754,0.1753 v 0.40738 0.40738 l -0.19108,0.11809 -0.19108,0.1181 0.27575,0.15431 0.27574,0.15431 v 0.38106 0.38105 l -0.2032,0.2032 -0.2032,0.2032 z m 0.0903,-0.508 h 0.56444 l 0.10123,-0.10122 0.10122,-0.10122 -0.0911,-0.23745 -0.0911,-0.23744 h -0.57455 -0.57454 v 0.33866 0.33867 z m -0.044,-1.18533 h 0.52042 l -0.0562,-0.29634 -0.0562,-0.29633 -0.46422,-0.0536 -0.46421,-0.0536 v 0.34991 0.34992 z m 2.19577,1.69333 h -0.34552 v -1.45175 -1.45175 l 0.29634,0.0566 0.29633,0.0566 0.0492,1.39512 0.0492,1.39513 z m 1.94048,0 h -1.10066 v -1.43933 -1.43934 h 0.33866 0.33867 v 1.18534 1.18533 h 0.762 0.762 v 0.254 0.254 z m 1.778,0 h -0.33866 v -1.43933 -1.43934 h 0.33866 0.33867 v 1.43934 1.43933 z m 1.95507,0 h -0.24626 l -0.0501,-1.143 -0.0501,-1.143 -0.46567,-0.0536 -0.46566,-0.0536 v -0.24275 -0.24276 l 1.651,0.002 1.651,0.002 0.35261,0.61459 0.35261,0.6146 0.38087,-0.61625 0.38086,-0.61625 h 0.33485 0.33485 l -0.12805,0.21166 -0.12804,0.21167 -0.47462,0.75282 -0.47461,0.75282 v 0.47484 0.47485 h -0.254 -0.254 v -0.52668 -0.52667 l -0.54564,-0.84207 -0.54564,-0.84207 -0.0611,0.18341 -0.0611,0.18341 h -0.49388 -0.49389 v 1.18534 1.18533 z M 89.439834,148.9438 h -0.254 v -1.43933 -1.43933 h 0.254 0.254 v 0.59266 0.59267 h 0.677333 0.677334 v -0.59267 -0.59266 h 0.254 0.254 v 1.43933 1.43933 h -0.254 -0.254 v -0.59266 -0.59267 h -0.677334 -0.677333 v 0.59267 0.59266 z m 3.894667,0 h -1.100667 v -1.43933 -1.43933 H 93.346916 94.46 l -0.05892,0.29633 -0.05892,0.29633 -0.395174,-0.0561 -0.395173,-0.0561 -0.404986,0.10165 -0.404986,0.10164 v 0.25078 0.25077 h 0.762 0.762 v 0.254 0.254 h -0.762 -0.762 v 0.33867 0.33866 h 0.846667 0.846666 v 0.254 0.254 z m 1.675965,0 h -0.259455 l 0.117423,-0.381 0.117422,-0.381 0.482067,-1.07163 0.482067,-1.07163 0.269153,0.0556 0.269154,0.0556 0.582102,1.3406 0.582102,1.34059 v 0.0564 0.0564 H 97.325246 96.99799 l -0.107489,-0.33866 -0.107489,-0.33867 h -0.575297 -0.575298 l -0.181249,0.33867 -0.18125,0.33866 z m 1.152005,-1.18533 h 0.340931 l -0.102784,-0.26785 -0.102784,-0.26785 v -0.16548 -0.16547 l -0.148893,0.092 -0.148895,0.092 -0.08925,0.3413 -0.08925,0.34131 z m 3.01403,1.18533 h -1.016 v -1.43933 -1.43933 h 0.254 0.254 v 1.18533 1.18533 h 0.762 0.761999 v 0.254 0.254 z m 2.031999,0 h -0.33867 v -1.10066 -1.10067 h -0.42333 -0.42333 v -0.33867 -0.33866 h 1.19775 1.19775 l -0.0565,0.29633 -0.0565,0.29633 -0.37927,0.0541 -0.37927,0.0541 v 1.08889 1.08889 z m 1.86267,0 h -0.33867 v -1.43933 -1.43933 h 0.33867 0.33866 v 0.59266 0.59267 h 0.59267 0.59267 v -0.59267 -0.59266 h 0.33866 0.33867 v 1.43933 1.43933 h -0.33867 -0.33866 v -0.59266 -0.59267 h -0.59267 -0.59267 v 0.59267 0.59266 z M 90.43484,144.71047 H 90.006449 L 89.511475,144.2155 89.0165,143.72052 v -0.53405 -0.53405 l 0.494975,-0.49498 0.494974,-0.49497 h 0.488662 0.48866 l 0.328698,0.2426 0.328698,0.2426 -0.193487,0.19642 -0.193487,0.19642 -0.368202,-0.19705 -0.368201,-0.19706 -0.411978,0.26994 -0.411978,0.26994 v 0.47785 0.47785 l 0.331844,0.30032 0.331843,0.30031 0.430157,-0.10796 0.430156,-0.10797 v -0.25077 -0.25077 h -0.338667 -0.338666 v -0.254 -0.254 h 0.592666 0.592667 v 0.65015 0.65015 l -0.431301,0.19652 -0.431302,0.19651 z m 2.939945,-0.0338 -0.975714,0.0508 -0.09057,-0.23602 -0.09057,-0.23603 0.05029,-1.25415 0.05029,-1.25415 h 0.254 0.254 l 0.04986,1.13363 0.04986,1.13363 0.712144,0.0517 0.712143,0.0517 v 0.254 0.254 z m 2.635125,0.0231 -0.304742,-0.0107 -0.381168,-0.1532 -0.381166,-0.15321 -0.279407,-0.58592 -0.279405,-0.58592 0.218757,-0.52812 0.218758,-0.52813 0.475739,-0.24602 0.47574,-0.24601 h 0.270818 0.270818 l 0.481232,0.24885 0.481234,0.24886 0.178882,0.51314 0.178884,0.51315 -0.178884,0.51315 -0.178882,0.51314 -0.481234,0.24886 -0.481232,0.24885 z m 0.06629,-0.49727 h 0.221635 l 0.338667,-0.33867 0.338667,-0.33866 v -0.30631 -0.3063 l -0.211667,-0.26926 -0.211667,-0.26927 -0.34755,-0.10256 -0.347548,-0.10256 -0.315673,0.23083 -0.315673,0.23082 v 0.55594 0.55594 l 0.314586,0.23003 0.314588,0.23003 z m 2.745298,0.508 h -0.671625 l -0.08731,-0.22751 -0.08731,-0.22752 0.05029,-1.25415 0.05029,-1.25415 0.733498,-0.0528 0.7335,-0.0527 0.4095,0.26831 0.409499,0.26832 v 0.32477 0.32477 l -0.18036,0.11147 -0.18036,0.11147 0.28029,0.30972 0.28029,0.30972 -0.11442,0.3605 -0.11442,0.3605 -0.419863,0.15964 -0.419867,0.15963 z m 0.312671,-0.57295 0.465666,-0.0765 0.127,-0.0139 0.127001,-0.0139 v -0.23589 -0.23588 l -0.26785,-0.10278 -0.267848,-0.10279 h -0.324819 -0.324817 v 0.42913 0.42913 z m 0.04233,-1.28972 h 0.508 v -0.254 -0.254 h -0.508 -0.508 v 0.254 0.254 z m 1.871231,1.86267 h -0.15791 l -0.0758,-0.127 -0.0758,-0.127 0.64742,-1.397 0.64743,-1.397 h 0.24158 0.24157 l 0.55197,1.31233 0.55197,1.31234 0.0823,0.21166 0.0823,0.21167 h -0.26616 -0.26616 l -0.18125,-0.33867 -0.18125,-0.33866 h -0.63064 -0.63065 l -0.2115,0.33866 -0.2115,0.33867 z m 1.16982,-1.30378 0.34562,-0.0904 -0.003,-0.10725 -0.003,-0.10725 -0.15753,-0.24909 -0.15753,-0.2491 -0.0728,0.0798 -0.0728,0.0798 -0.11266,0.36696 -0.11266,0.36697 z m 3.01057,1.26996 -0.97571,0.0508 -0.0906,-0.23602 -0.0906,-0.23603 0.0503,-1.25415 0.0503,-1.25415 h 0.254 0.254 l 0.0499,1.13363 0.0499,1.13363 0.71214,0.0517 0.71214,0.0517 v 0.254 0.254 z"
         id="path129" /><path
         style="fill:#9ca1a6;stroke-width:0.169333"
         d="m 78.517833,156.88139 -0.254,-0.0185 -0.931333,-0.1527 -0.931334,-0.15269 -1.239821,-0.58694 -1.239822,-0.58693 -0.908025,-0.93006 -0.908024,-0.93005 -0.646154,-1.30741 -0.646154,-1.3074 v -2.13423 -2.13423 l 0.646154,-1.3074 0.646154,-1.30741 0.908024,-0.93005 0.908025,-0.93006 1.324488,-0.63242 1.324489,-0.63243 h 2.125449 2.125449 l 1.314561,0.64969 1.314562,0.64969 0.905631,0.90563 0.905632,0.90564 0.602523,1.23867 0.602523,1.23868 0.145234,1.143 0.145234,1.143 -0.145234,1.143 -0.145234,1.143 -0.602523,1.23868 -0.602523,1.23867 -0.905632,0.90564 -0.905631,0.90563 -1.238677,0.60377 -1.238677,0.60378 -1.100667,0.17164 -1.100667,0.17163 z m 0.220037,-0.99492 h 0.144681 l 0.467748,-0.46775 0.467747,-0.46775 0.345315,-0.92925 0.345314,-0.92925 0.109747,-0.50957 0.109746,-0.50957 h -2.036501 -2.036501 l 0.002,0.0862 0.002,0.0862 0.226165,0.84667 0.226164,0.84667 0.362226,0.70847 0.362225,0.70848 0.378611,0.26519 0.378612,0.26519 z m -2.065025,-0.33867 h 0.132918 l -0.399155,-0.889 -0.399156,-0.889 -0.207172,-0.95616 -0.207173,-0.95617 -0.950637,-0.18863 -0.950637,-0.18862 -0.89948,-0.41861 -0.899479,-0.4186 0.117076,0.37806 0.117076,0.37807 0.383428,0.762 0.383427,0.762 0.822309,0.81128 0.82231,0.81128 1.000713,0.50105 1.000713,0.50105 z m 4.262837,-0.0965 0.376151,-0.11626 0.664909,-0.33564 0.664909,-0.33564 0.919849,-0.86996 0.919849,-0.86995 0.382979,-0.76235 0.382979,-0.76234 0.117076,-0.37807 0.117076,-0.37806 -0.899479,0.4186 -0.89948,0.41861 -0.950637,0.18862 -0.950637,0.18863 -0.207173,0.95617 -0.207172,0.95616 -0.403676,0.89888 -0.403675,0.89887 z m -2.248515,-4.30614 h 0.508 v -0.93134 -0.93133 h 0.931333 0.931333 v -0.508 -0.508 H 80.1265 79.195167 v -0.93133 -0.93134 h -0.508 -0.508001 v 0.93134 0.93133 H 77.247833 76.3165 v 0.508 0.508 h 0.931333 0.931333 v 0.93133 0.93134 z m -3.471334,-0.34778 0.169333,0.009 v -2.03616 -2.03615 l -0.508,0.1094 -0.508,0.1094 -0.891641,0.33124 -0.891641,0.33125 -0.505359,0.42523 -0.505359,0.42523 v 0.2941 0.29409 l 0.381,0.34703 0.381,0.34702 0.423333,0.22062 0.423334,0.22063 0.931333,0.29943 0.931334,0.29943 0.169333,0.009 z m 7.279766,-0.0916 0.509568,-0.10974 0.929252,-0.34532 0.929253,-0.34531 0.467747,-0.46775 0.467748,-0.46775 v -0.19538 -0.19538 l -0.467748,-0.46775 -0.467747,-0.46775 -0.929253,-0.34531 -0.929252,-0.34532 -0.509568,-0.10975 -0.509568,-0.10974 v 2.041 2.041 z m -9.703246,-4.21839 0.89948,-0.41861 0.950637,-0.18862 0.950637,-0.18863 0.207173,-0.95617 0.207172,-0.95616 0.403676,-0.89888 0.403675,-0.89887 -0.376152,0.11371 -0.376151,0.1137 -0.782979,0.41946 -0.782978,0.41946 -0.801331,0.78904 -0.801331,0.78904 -0.383427,0.762 -0.383428,0.762 -0.117076,0.37807 -0.117076,0.37806 z m 12.64111,0.32902 0.05763,-0.048 -0.458837,-1.02242 -0.458836,-1.02243 -0.961011,-0.91665 -0.961011,-0.91664 -0.669782,-0.33813 -0.669783,-0.33813 -0.376151,-0.11626 -0.376152,-0.11627 0.403675,0.89887 0.403676,0.89888 0.207172,0.95616 0.207173,0.95617 0.950637,0.18916 0.950637,0.18916 0.846667,0.39729 0.846667,0.39729 z m -6.746296,-1.34074 h 2.032 v -0.0978 -0.0978 l -0.27268,-0.91974 -0.272679,-0.91973 -0.322166,-0.63252 -0.322165,-0.63253 -0.421155,-0.27595 -0.421155,-0.27595 -0.421156,0.27595 -0.421155,0.27595 -0.366671,0.71719 -0.36667,0.71719 -0.226165,0.84667 -0.226164,0.84667 -0.002,0.0862 -0.002,0.0862 h 2.032 z m 31.390603,10.41086 h -0.23327 l -0.33468,-0.33468 -0.33468,-0.33469 0.14128,-0.38498 0.14129,-0.38498 0.53206,-0.0531 0.53207,-0.0531 v 0.19148 0.19147 l -0.31477,-0.0999 -0.31475,-0.0999 -0.19617,0.23636 -0.19616,0.23636 0.10571,0.27546 0.1057,0.27546 h 0.32055 0.32055 v -0.15522 -0.15522 l -0.2031,-0.0677 -0.20311,-0.0677 0.29418,-0.11289 0.29419,-0.11289 0.0972,0.2533 0.0972,0.2533 -0.20901,0.25185 -0.20902,0.25184 z m 1.09084,-0.32259 -0.0541,0.35474 -0.127,-0.12896 -0.127,-0.12897 v -0.64911 -0.64911 h 0.16934 0.16933 v 0.254 0.254 h 0.33867 0.33866 v -0.254 -0.254 h 0.16934 0.16933 v 0.66734 0.66734 l -0.16933,0.10465 -0.16934,0.10466 v -0.34866 -0.34866 h -0.32689 -0.32689 z m 1.50195,0.11092 -0.0774,0.29634 -0.0196,-0.80434 -0.0196,-0.80433 h 0.51331 0.51331 l 0.0983,0.25616 0.0983,0.25615 -0.18425,0.22201 -0.18425,0.222 0.19635,0.19635 0.19635,0.19635 -0.12956,0.12956 -0.12955,0.12955 -0.21649,-0.29606 -0.21649,-0.29607 h -0.18059 -0.18058 z m 0.39128,-0.635 h 0.36688 l -0.0705,-0.21166 -0.0706,-0.21167 h -0.22577 -0.22578 l -0.0706,0.21167 -0.0705,0.21166 z m 1.11066,0.84667 h -0.0747 l -0.10465,-0.16933 -0.10465,-0.16934 h 0.17932 0.17933 v 0.16934 0.16933 z m 1.73276,-0.0919 -0.0494,0.0351 -0.42143,-0.21903 -0.42143,-0.21903 -0.16277,0.16278 -0.16277,0.16277 h -0.13891 -0.13891 l 0.34555,-0.67734 0.34555,-0.67733 h 0.1475 0.14751 l 0.27947,0.69847 0.27947,0.69847 z m -0.64209,-0.58539 h 0.16933 v -0.0747 -0.0747 l -0.16933,-0.10465 -0.16933,-0.10466 v 0.17933 0.17933 z m 1.51015,0.67733 h -0.15548 l -0.33469,-0.33468 -0.33468,-0.33469 0.14128,-0.38498 0.14129,-0.38498 0.53206,-0.0531 0.53207,-0.0531 v 0.17807 0.17806 l -0.381,-0.0403 -0.381,-0.0403 -0.0536,0.46567 -0.0536,0.46566 h 0.34991 0.34992 v -0.16933 -0.16933 l -0.21167,-0.003 -0.21167,-0.003 0.24592,-0.15557 0.24591,-0.15556 0.13509,0.0835 0.13508,0.0835 v 0.31056 0.31055 l -0.26785,0.10279 -0.26785,0.10278 z m 1.56607,0 h -0.47978 l -0.11288,-0.11289 -0.11289,-0.11289 v -0.64911 -0.64911 l 0.635,0.0254 0.635,0.0254 -0.46567,0.0705 -0.46567,0.0705 v 0.15808 0.15809 h 0.32867 0.32868 l 0.10465,0.16933 0.10466,0.16934 h -0.43333 -0.43333 v 0.16933 0.16933 h 0.42334 0.42333 v 0.16934 0.16933 z m 1.00253,-0.0938 -0.18408,0.11377 v -0.772 -0.77199 h 0.16337 0.16338 l 0.18125,0.33867 0.18125,0.33866 h 0.18312 0.18312 l -0.0886,-0.33866 -0.0886,-0.33867 h 0.15348 0.15348 l -0.005,0.80433 -0.005,0.80434 -0.40986,-0.46567 -0.40986,-0.46567 h -0.0769 -0.0769 l 0.0836,0.31956 0.0836,0.31955 z m 2.04573,0.0886 -0.11315,-0.005 -0.29633,-0.1726 -0.29633,-0.1726 v -0.38105 -0.38105 l 0.2032,-0.2032 0.2032,-0.2032 h 0.37947 0.37947 l 0.0985,0.15941 0.0985,0.1594 -0.46953,-0.0324 -0.46952,-0.0324 v 0.42333 0.42334 l 0.46567,-0.0319 0.46566,-0.0319 v 0.14076 0.14076 l -0.26785,0.10279 -0.26785,0.10278 z m 1.49828,-0.0812 -0.17209,0.10636 v -0.31099 -0.31098 l -0.27128,-0.38729 -0.27127,-0.3873 0.10369,-0.10369 0.10369,-0.10368 0.22814,0.312 0.22815,0.31201 0.18074,-0.32296 0.18073,-0.32296 0.12031,0.12031 0.12031,0.1203 -0.28398,0.4334 -0.28398,0.43341 0.0945,0.15285 0.0945,0.15285 z m -24.132762,-0.59096 h -9.567334 v -0.16934 -0.16933 h 9.567334 9.567332 v 0.16933 0.16934 z m -9.313334,-1.86267 h -0.254 v -1.43933 -1.43934 h 0.808988 0.80899 l 0.376344,0.26361 0.376345,0.2636 v 0.38748 0.38749 l -0.340039,0.30773 -0.340036,0.30773 0.229614,0.26885 0.229614,0.26885 0.120417,0.21166 0.120416,0.21167 -0.306326,-4.9e-4 -0.306327,-4.8e-4 -0.338667,-0.50703 -0.338666,-0.50703 -0.296334,-4.9e-4 -0.296333,-4.8e-4 v 0.508 0.508 z m 0.858444,-1.524 h 0.604444 l -0.05411,-0.381 -0.05411,-0.381 -0.550334,-0.0531 -0.550333,-0.0531 v 0.43406 0.43406 z m 2.866889,1.524 h -1.100666 v -1.43933 -1.43934 h 1.100666 1.100667 v 0.254 0.254 h -0.846667 -0.846666 v 0.33867 0.33867 h 0.762 0.762 v 0.254 0.254 h -0.762 -0.762 v 0.33866 0.33867 h 0.846666 0.846667 v 0.254 0.254 z m 2.633134,-0.005 -0.601133,-0.005 -0.299895,-0.17459 -0.299894,-0.17459 0.0956,-0.15468 0.0956,-0.15468 0.754632,0.10344 0.754632,0.10343 v -0.26095 -0.26094 l -0.719666,-0.22774 -0.719667,-0.22773 v -0.58859 -0.58859 l 0.441887,-0.1554 0.441887,-0.15541 0.447113,0.11222 0.447113,0.11222 v 0.25277 0.25278 l -0.694445,-0.11105 -0.694444,-0.11104 0.05944,0.30853 0.05944,0.30853 0.476492,0.12743 0.476494,0.12743 0.243173,0.20182 0.243174,0.20181 v 0.36874 0.36873 l -0.2032,0.2032 -0.2032,0.2032 z m 1.769533,0.005 h -0.254 v -1.43933 -1.43934 h 0.724322 0.724323 l 0.376344,0.26361 0.376345,0.2636 v 0.48879 0.4888 l -0.376345,0.2636 -0.376344,0.2636 h -0.470323 -0.470322 v 0.42334 0.42333 z m 0.804334,-1.38627 0.550333,-0.0531 v -0.42334 -0.42333 l -0.550333,-0.0531 -0.550334,-0.0531 v 0.52945 0.52946 z m 3.055692,1.38088 -0.64269,-0.005 -0.28968,-0.22008 -0.28967,-0.22008 -0.17627,-0.46362 -0.176269,-0.46362 0.103972,-0.41426 0.103977,-0.41426 0.42714,-0.33599 0.42714,-0.33599 0.52749,0.004 0.5275,0.004 0.39272,0.30213 0.39272,0.30214 0.0935,0.69722 0.0935,0.69723 -0.4362,0.43621 -0.43621,0.4362 -0.6427,-0.005 z m -0.0201,-0.50261 h 0.47023 l 0.29016,-0.44285 0.29016,-0.44284 -0.24926,-0.44616 -0.24927,-0.44615 -0.43904,-0.0515 -0.43903,-0.0515 -0.27529,0.27529 -0.27529,0.27528 v 0.46204 0.46204 l 0.2032,0.2032 0.2032,0.2032 z m 2.35637,0.508 h -0.35434 v -1.43933 -1.43934 h 0.25489 0.25489 l 0.71878,0.9308 0.71878,0.9308 0.0508,-0.9308 0.0508,-0.9308 h 0.24554 0.24555 v 1.43934 1.43933 h -0.2334 -0.23341 l -0.71852,-0.93133 -0.71852,-0.93134 -0.0217,-2.3e-4 -0.0217,-2.4e-4 0.058,0.93156 0.058,0.93158 z m 3.88746,-0.005 -0.60113,-0.005 -0.29989,-0.17459 -0.2999,-0.17459 0.0956,-0.15468 0.0956,-0.15468 0.75464,0.10344 0.75463,0.10343 v -0.26095 -0.26094 l -0.71967,-0.22774 -0.71967,-0.22773 v -0.58859 -0.58859 l 0.44189,-0.1554 0.44189,-0.15541 0.44711,0.11222 0.44712,0.11222 v 0.25277 0.25278 l -0.69445,-0.11105 -0.69444,-0.11104 0.0594,0.30853 0.0594,0.30853 0.4765,0.12743 0.47649,0.12743 0.24317,0.20182 0.24318,0.20181 v 0.36874 0.36873 l -0.2032,0.2032 -0.2032,0.2032 z m 1.85421,0.005 h -0.35237 l 0.0492,-1.397 0.0492,-1.397 h 0.254 0.254 l 0.0492,1.397 0.0492,1.397 z m 1.93523,0 h -0.91923 v -1.43933 -1.43934 h 0.77313 0.77313 l 0.32753,0.17529 0.32754,0.1753 v 0.40738 0.40738 l -0.17063,0.10546 -0.17064,0.10545 0.2553,0.2553 0.2553,0.2553 v 0.22981 0.22981 l -0.26609,0.26609 -0.2661,0.2661 z m 0.22377,-0.54011 0.635,-0.0526 v -0.254 -0.254 l -0.635,-0.0525 -0.635,-0.0526 v 0.35911 0.35911 z m -0.0847,-1.18483 0.55033,-0.0531 v -0.254 -0.254 l -0.55033,-0.0531 -0.55033,-0.0531 v 0.36012 0.36012 z m 2.07433,1.72494 h -0.254 v -1.43933 -1.43934 h 0.254 0.254 v 1.43934 1.43933 z m 1.94049,0 h -1.02285 l 0.0492,-1.39513 0.0492,-1.39512 0.29634,-0.0566 0.29633,-0.0566 v 1.19775 1.19775 h 0.67733 0.67734 v 0.254 0.254 z m 1.87636,0 h -0.34551 v -1.45175 -1.45175 l 0.29633,0.0566 0.29633,0.0566 0.0492,1.39512 0.0492,1.39513 z m 1.94049,0 h -0.254 v -1.18533 -1.18534 h -0.52211 -0.52212 l 0.0699,-0.21166 0.0699,-0.21167 1.12951,-0.0501 1.1295,-0.0501 v 0.26174 0.26173 h -0.42333 -0.42333 v 1.18534 1.18533 z m 2.70933,0 h -0.254 l -6.8e-4,-0.55033 -6.8e-4,-0.55034 -0.50664,-0.762 -0.50655,-0.762 -7.3e-4,-0.127 -7.2e-4,-0.127 h 0.24019 0.24019 l 0.38162,0.61748 0.38163,0.61749 0.26718,-0.34341 0.26719,-0.3434 0.17355,-0.29384 0.17355,-0.29383 0.29506,0.0621 0.29506,0.0621 -0.59561,0.88232 -0.59561,0.88232 v 0.51468 0.51468 z M 89.439834,148.9438 h -0.254 v -1.43933 -1.43933 h 0.254 0.254 v 0.59266 0.59267 h 0.677333 0.677334 v -0.59267 -0.59266 h 0.254 0.254 v 1.43933 1.43933 h -0.254 -0.254 v -0.59266 -0.59267 h -0.677334 -0.677333 v 0.59267 0.59266 z m 3.908777,0 h -1.114777 v -1.44741 -1.44741 l 1.044893,0.0504 1.044894,0.0504 0.06988,0.21167 0.06988,0.21167 h -0.860779 -0.860777 v 0.32893 0.32893 l 0.706506,0.0521 0.706506,0.0521 0.0696,0.21166 0.06961,0.21167 h -0.776112 -0.776111 v 0.32939 0.32939 l 0.791097,0.0516 0.791096,0.0516 0.06968,0.21167 0.06968,0.21166 z m 1.673266,0 h -0.248043 v -0.0683 -0.0683 l 0.566803,-1.32868 0.566803,-1.32869 0.251573,-0.0493 0.251574,-0.0493 0.551716,1.23464 0.551716,1.23463 0.08736,0.21167 0.08736,0.21166 H 97.351705 97.01467 l -0.08856,-0.33866 -0.08856,-0.33867 h -0.602562 -0.602561 l -0.181249,0.33867 -0.18125,0.33866 z m 1.111938,-1.18533 h 0.333353 l -0.0026,-0.21167 -0.0026,-0.21166 -0.145572,-0.22975 -0.145575,-0.22974 -0.07972,0.14507 -0.07972,0.14508 -0.105461,0.29634 -0.105463,0.29633 h 0.333352 z m 3.056797,1.18533 h -1.030111 v -1.43933 -1.43933 h 0.254 0.254 v 1.17559 1.1756 l 0.706506,0.0521 0.706503,0.0521 0.0696,0.21167 0.0696,0.21166 z m 1.925488,0 h -0.24627 v -1.18533 -1.18533 h -0.42333 -0.42333 v -0.26174 -0.26174 l 1.1295,0.0501 1.12951,0.0501 0.0659,0.19945 0.0659,0.19945 -0.4757,0.0546 -0.47571,0.0546 -0.0501,1.143 -0.0501,1.143 z m 1.94822,0 h -0.34551 l 0.0492,-1.397 0.0492,-1.397 h 0.254 0.254 l 0.0531,0.55034 0.0531,0.55033 h 0.57121 0.57121 l 0.0531,-0.55033 0.0531,-0.55034 h 0.254 0.254 l 0.0492,1.397 0.0492,1.397 h -0.34552 -0.34551 v -0.59266 -0.59267 h -0.59267 -0.59267 v 0.59267 0.59266 z m -12.591421,-4.24406 -0.186398,-0.0107 -0.371128,-0.14949 -0.37113,-0.14949 -0.282856,-0.43169 -0.282858,-0.4317 0.106965,-0.57017 0.106964,-0.57016 0.348879,-0.31573 0.348881,-0.31574 h 0.65919 0.659189 l 0.193064,0.19307 0.193065,0.19306 -0.104513,0.1691 -0.10451,0.16911 -0.498784,-0.18827 -0.498785,-0.18827 -0.34715,0.31416 -0.34715,0.31417 v 0.46966 0.46966 l 0.266095,0.26609 0.266096,0.2661 h 0.228055 0.228056 l 0.267848,-0.10278 0.26785,-0.10279 v -0.23588 -0.23588 h -0.338667 -0.338666 v -0.254 -0.254 h 0.592666 0.592667 v 0.66076 0.66077 l -0.533268,0.1859 -0.53327,0.1859 -0.186397,-0.0107 z m 5.539734,0.006 -0.307465,-0.005 -0.338667,-0.18523 -0.338667,-0.18524 -0.211666,-0.26531 -0.211667,-0.26532 v -0.62991 -0.62992 l 0.520993,-0.43838 0.520991,-0.43839 h 0.336808 0.336805 l 0.369868,0.19699 0.369868,0.197 0.206282,0.26867 0.20628,0.26867 v 0.59267 0.59267 l -0.20628,0.26867 -0.206282,0.26867 -0.369868,0.197 -0.369868,0.19699 -0.307465,-0.005 z m 0.0312,-0.50285 h 0.254 l 0.338667,-0.33867 0.338667,-0.33866 v -0.33867 -0.33867 l -0.338667,-0.33866 -0.338667,-0.33867 h -0.254 -0.254 l -0.338666,0.33867 -0.338667,0.33866 v 0.33867 0.33867 l 0.338667,0.33866 0.338666,0.33867 z m -2.624667,0.33867 h -1.016 v -1.35467 -1.35467 h 0.254 0.254 v 1.18534 1.18533 h 0.762 0.762 v 0.16933 0.16934 z m 5.751377,0 H 98.1605 v -1.35467 -1.35467 h 0.925376 0.925374 l 0.18245,0.34091 0.18245,0.34091 -0.15909,0.28428 -0.15909,0.28427 0.24864,0.37946 0.24863,0.37946 -0.18733,0.35002 -0.18732,0.35003 z m 0.04829,-0.37027 0.550334,-0.0531 v -0.33866 -0.33867 l -0.550334,-0.0531 -0.550333,-0.0531 v 0.44479 0.44479 z m -0.08467,-1.18482 0.465666,-0.0536 v -0.33867 -0.33866 l -0.465666,-0.0536 -0.465667,-0.0536 v 0.44583 0.44583 z m 1.948937,1.55509 h -0.21327 v -0.15996 -0.15995 l 0.58304,-1.27938 0.58302,-1.27938 h 0.16897 0.16899 l 0.13639,0.21167 0.1364,0.21166 0.53864,1.22767 0.53864,1.22767 h -0.28565 -0.28565 l -0.2115,-0.33867 -0.2115,-0.33867 h -0.50513 -0.50513 l -0.2115,0.33867 -0.2115,0.33867 z m 1.1414,-1.016 h 0.33866 l -0.003,-0.21167 -0.003,-0.21167 -0.16674,-0.254 -0.16674,-0.254 -0.16675,0.254 -0.16674,0.254 -0.003,0.21167 -0.003,0.21167 z m 2.87867,1.016 h -1.016 v -1.35467 -1.35467 h 0.33866 0.33866 v 1.18534 1.18533 h 0.67733 0.67734 v 0.16933 0.16934 z"
         id="path127" /><path
         style="fill:#747c83;stroke-width:0.169333"
         d="m 78.517833,156.88139 -0.254,-0.0185 -0.931333,-0.1527 -0.931334,-0.15269 -1.239821,-0.58694 -1.239822,-0.58693 -0.908025,-0.93006 -0.908024,-0.93005 -0.646154,-1.30741 -0.646154,-1.3074 v -2.13423 -2.13423 l 0.646154,-1.3074 0.646154,-1.30741 0.908024,-0.93005 0.908025,-0.93006 1.324488,-0.63242 1.324489,-0.63243 h 2.125449 2.125449 l 1.314561,0.64969 1.314562,0.64969 0.905631,0.90563 0.905632,0.90564 0.602523,1.23867 0.602523,1.23868 0.145234,1.143 0.145234,1.143 -0.145234,1.143 -0.145234,1.143 -0.602523,1.23868 -0.602523,1.23867 -0.905632,0.90564 -0.905631,0.90563 -1.238677,0.60377 -1.238677,0.60378 -1.100667,0.17164 -1.100667,0.17163 z m 0.220037,-0.99492 h 0.144681 l 0.467748,-0.46775 0.467747,-0.46775 0.345315,-0.92925 0.345314,-0.92925 0.109747,-0.50957 0.109746,-0.50957 h -2.036501 -2.036501 l 0.002,0.0862 0.002,0.0862 0.226165,0.84667 0.226164,0.84667 0.362226,0.70847 0.362225,0.70848 0.378611,0.26519 0.378612,0.26519 z m -2.065025,-0.33867 h 0.132918 l -0.399155,-0.889 -0.399156,-0.889 -0.207172,-0.95616 -0.207173,-0.95617 -0.950637,-0.18863 -0.950637,-0.18862 -0.89948,-0.41861 -0.899479,-0.4186 0.117076,0.37806 0.117076,0.37807 0.383428,0.762 0.383427,0.762 0.822309,0.81128 0.82231,0.81128 1.000713,0.50105 1.000713,0.50105 z m 4.262837,-0.0965 0.376151,-0.11626 0.664909,-0.33564 0.664909,-0.33564 0.919849,-0.86996 0.919849,-0.86995 0.382979,-0.76235 0.382979,-0.76234 0.117076,-0.37807 0.117076,-0.37806 -0.899479,0.4186 -0.89948,0.41861 -0.950637,0.18862 -0.950637,0.18863 -0.207173,0.95617 -0.207172,0.95616 -0.403676,0.89888 -0.403675,0.89887 z m -2.248515,-4.30614 h 0.508 v -0.93134 -0.93133 h 0.931333 0.931333 v -0.508 -0.508 H 80.1265 79.195167 v -0.93133 -0.93134 h -0.508 -0.508001 v 0.93134 0.93133 H 77.247833 76.3165 v 0.508 0.508 h 0.931333 0.931333 v 0.93133 0.93134 z m -3.471334,-0.34778 0.169333,0.009 v -2.03616 -2.03615 l -0.508,0.1094 -0.508,0.1094 -0.891641,0.33124 -0.891641,0.33125 -0.505359,0.42523 -0.505359,0.42523 v 0.2941 0.29409 l 0.381,0.34703 0.381,0.34702 0.423333,0.22062 0.423334,0.22063 0.931333,0.29943 0.931334,0.29943 0.169333,0.009 z m 7.279766,-0.0916 0.509568,-0.10974 0.929252,-0.34532 0.929253,-0.34531 0.467747,-0.46775 0.467748,-0.46775 v -0.19538 -0.19538 l -0.467748,-0.46775 -0.467747,-0.46775 -0.929253,-0.34531 -0.929252,-0.34532 -0.509568,-0.10975 -0.509568,-0.10974 v 2.041 2.041 z m -9.703246,-4.21839 0.89948,-0.41861 0.950637,-0.18862 0.950637,-0.18863 0.207173,-0.95617 0.207172,-0.95616 0.403676,-0.89888 0.403675,-0.89887 -0.376152,0.11371 -0.376151,0.1137 -0.782979,0.41946 -0.782978,0.41946 -0.801331,0.78904 -0.801331,0.78904 -0.383427,0.762 -0.383428,0.762 -0.117076,0.37807 -0.117076,0.37806 z m 12.64111,0.32902 0.05763,-0.048 -0.458837,-1.02242 -0.458836,-1.02243 -0.961011,-0.91665 -0.961011,-0.91664 -0.669782,-0.33813 -0.669783,-0.33813 -0.376151,-0.11626 -0.376152,-0.11627 0.403675,0.89887 0.403676,0.89888 0.207172,0.95616 0.207173,0.95617 0.950637,0.18916 0.950637,0.18916 0.846667,0.39729 0.846667,0.39729 z m -6.746296,-1.34074 h 2.032 v -0.0978 -0.0978 l -0.27268,-0.91974 -0.272679,-0.91973 -0.322166,-0.63252 -0.322165,-0.63253 -0.421155,-0.27595 -0.421155,-0.27595 -0.421156,0.27595 -0.421155,0.27595 -0.366671,0.71719 -0.36667,0.71719 -0.226165,0.84667 -0.226164,0.84667 -0.002,0.0862 -0.002,0.0862 h 2.032 z m 31.295463,10.40571 -0.0535,-0.005 -0.29633,-0.1726 -0.29634,-0.1726 v -0.38105 -0.38105 l 0.2032,-0.2032 0.2032,-0.2032 h 0.38947 0.38947 v 0.18074 0.18075 l -0.31477,-0.0999 -0.31475,-0.0999 -0.21219,0.25566 -0.21218,0.25567 0.0983,0.25616 0.0983,0.25615 h 0.34398 0.34398 v -0.15522 -0.15522 l -0.21166,-0.0854 -0.21167,-0.0854 0.381,-0.0134 0.381,-0.0134 v 0.24805 0.24804 l -0.32754,0.17529 -0.32753,0.17529 z m 6.77334,0 -0.0535,-0.005 -0.29633,-0.1726 -0.29633,-0.1726 v -0.38105 -0.38105 l 0.2032,-0.2032 0.2032,-0.2032 h 0.38946 0.38947 v 0.15348 0.15348 l -0.30816,-0.0806 -0.30817,-0.0806 -0.21878,0.26361 -0.21878,0.26362 0.0983,0.25616 0.0983,0.25615 h 0.34399 0.34398 v -0.15522 -0.15522 l -0.21167,-0.0854 -0.21167,-0.0854 0.381,-0.0134 0.381,-0.0134 v 0.24805 0.24804 l -0.32753,0.17529 -0.32754,0.17529 z m 4.89953,-0.12889 -0.21166,0.0715 -0.29622,-0.0658 -0.29622,-0.0658 -0.10369,-0.41314 -0.10369,-0.41314 0.20897,-0.2518 0.20898,-0.2518 h 0.4026 0.4026 v 0.14044 0.14045 l -0.381,-0.0134 -0.381,-0.0135 v 0.42333 0.42334 l 0.381,-0.0135 0.381,-0.0134 v 0.12233 0.12232 l -0.21167,0.0715 z m -10.62566,-0.0353 h -0.16934 v -0.67734 -0.67733 h 0.16934 0.16933 v 0.254 0.254 h 0.33867 0.33866 v -0.254 -0.254 h 0.16934 0.16933 v 0.67733 0.67734 h -0.16933 -0.16934 v -0.254 -0.254 h -0.33866 -0.33867 v 0.254 0.254 z m 1.71381,-0.22404 -0.17952,0.3087 -0.005,-0.71966 -0.005,-0.71967 h 0.51331 0.51331 l 0.10184,0.26538 0.10184,0.26538 -0.17859,0.17859 -0.17858,0.17858 0.10014,0.2757 0.10015,0.2757 -0.35204,-0.3087 -0.35205,-0.3087 z m 0.31819,-0.4533 h 0.33866 v -0.254 -0.254 h -0.33866 -0.33867 v 0.254 0.254 z m 1.016,0.67734 h -0.22578 l 0.11289,-0.11289 0.11289,-0.11289 0.11288,0.11289 0.11289,0.11289 z m 0.7112,-0.13547 -0.2032,0.2032 v -0.21161 -0.21161 l 0.25834,-0.49959 0.25835,-0.49959 h 0.1393 0.1393 l 0.26606,0.67733 0.26607,0.67734 h -0.15571 -0.15571 v -0.16934 -0.16933 h -0.3048 -0.3048 z m 0.38946,-0.37253 h 0.24337 l -0.0975,-0.254 -0.0975,-0.254 h -0.0484 -0.0484 l -0.0975,0.254 -0.0975,0.254 z m 3.175,0.48262 -0.55033,0.0254 v -0.67734 -0.67733 l 0.55033,0.0254 0.55034,0.0254 -0.46567,0.0705 -0.46567,0.0705 v 0.15808 0.15809 h 0.33867 0.33867 v 0.16933 0.16934 h -0.33867 -0.33867 v 0.15808 0.15809 l 0.46567,0.0705 0.46567,0.0705 z m 0.95215,-0.39283 -0.10774,0.50287 -0.02,-0.71966 -0.02,-0.71967 h 0.10263 0.10262 l 0.36227,0.46054 0.36226,0.46054 0.10774,-0.50287 0.10774,-0.50288 0.02,0.71967 0.02,0.71967 h -0.10263 -0.10263 l -0.36226,-0.46055 -0.36226,-0.46054 z m 3.78583,-0.25091 -0.29969,0.58783 -0.28793,-0.58529 -0.28793,-0.5853 0.0923,-0.0923 0.0923,-0.0923 0.17197,0.30729 0.17197,0.30729 0.32333,-0.29261 0.32333,-0.29261 v 0.0751 0.0751 z m -24.328318,0.16112 h -9.577328 v -0.16934 -0.16933 h 9.472673 9.472673 l 0.10466,0.16933 0.10465,0.16934 z m -9.323328,-1.86267 h -0.254 v -1.4603 -1.4603 l 0.95671,0.0793 0.956709,0.0793 0.228624,0.31266 0.228624,0.31267 v 0.22163 0.22164 l -0.345401,0.3454 -0.345403,0.3454 0.356932,0.50126 0.356933,0.50127 h -0.313688 -0.313687 l -0.300084,-0.508 -0.300082,-0.508 h -0.329095 -0.329092 v 0.508 0.508 z m 0.644969,-1.35467 h 0.390968 l 0.295582,-0.21613 0.29558,-0.21613 -0.111999,-0.29187 -0.112001,-0.29187 h -0.574549 -0.57455 v 0.508 0.508 z m 3.087627,1.35467 h -1.121625 l 0.04918,-1.397 0.04918,-1.397 h 1.00189 1.001888 l 0.07056,0.21167 0.07056,0.21166 h -0.860779 -0.860777 v 0.33867 0.33867 h 0.677333 0.677333 v 0.254 0.254 H 93.24984 92.572507 v 0.32939 0.32938 l 0.791096,0.0516 0.791097,0.0516 0.06968,0.21166 0.06968,0.21167 z m 2.553007,0 H 95.17723 l -0.312017,-0.22815 -0.312017,-0.22815 0.180775,-0.11173 0.180777,-0.11173 0.436073,0.1658 0.436072,0.16579 0.255471,-0.098 0.25547,-0.098 v -0.21288 -0.21288 l -0.762,-0.29101 -0.762,-0.29101 v -0.49763 -0.49762 l 0.430156,-0.19599 0.430156,-0.196 0.447248,0.15729 0.44725,0.15729 -0.07307,0.16934 -0.07307,0.16933 -0.565636,-0.0573 -0.565636,-0.0573 0.05764,0.29729 0.05764,0.29729 0.508,0.16376 0.508,0.16377 0.211667,0.16733 0.211666,0.16733 v 0.30584 0.30584 l -0.266095,0.26609 -0.266096,0.2661 z m 1.83555,0 h -0.260848 l 0.04918,-1.397 0.04918,-1.397 0.790052,0.01 0.790052,0.01 0.268281,0.22266 0.268282,0.22265 v 0.46653 0.46654 l -0.238891,0.19826 -0.23889,0.19826 -0.607776,0.0986 -0.607777,0.0986 v 0.40117 0.40118 z m 0.811181,-1.38627 0.550333,-0.0531 v -0.42334 -0.42333 l -0.550333,-0.0531 -0.550334,-0.0531 v 0.52945 0.52946 z m 3.014652,1.38627 h -0.47131 l -0.44617,-0.35096 -0.44617,-0.35095 v -0.64629 -0.64628 l 0.29633,-0.36258 0.29633,-0.36257 0.62715,-0.1004 0.62714,-0.1004 0.51586,0.51586 0.51585,0.51585 v 0.3601 0.3601 l -0.24773,0.47908 -0.24774,0.47907 -0.27411,0.10518 -0.27411,0.10519 z m 0.23982,-0.44081 0.34386,-0.10139 0.21167,-0.26926 0.21166,-0.26927 v -0.26862 -0.26863 l -0.2636,-0.37634 -0.2636,-0.37635 h -0.46453 -0.46453 l -0.2032,0.2032 -0.2032,0.2032 v 0.5492 0.5492 l 0.3758,0.26322 0.37581,0.26323 z m 2.0219,0.44081 h -0.2524 l 0.0492,-1.38337 0.0492,-1.38337 0.19877,-0.0658 0.19878,-0.0658 0.73256,0.97208 0.73256,0.97208 0.0508,-0.96227 0.0508,-0.96227 h 0.24554 0.24555 v 1.43934 1.43933 h -0.21389 -0.2139 l -0.75977,-0.97367 -0.75977,-0.97366 -0.0508,0.97366 -0.0508,0.97367 z m 3.93023,0 h -0.54821 l -0.31201,-0.22815 -0.31202,-0.22815 0.18078,-0.11173 0.18077,-0.11173 0.43607,0.1658 0.43608,0.16579 0.25547,-0.098 0.25547,-0.098 v -0.21288 -0.21288 l -0.762,-0.29101 -0.762,-0.29101 v -0.39723 -0.39724 l 0.26609,-0.26609 0.2661,-0.2661 h 0.3377 0.33771 l 0.33227,0.17783 0.33228,0.17783 -0.0925,0.14969 -0.0925,0.14969 -0.60679,-0.0985 -0.60678,-0.0985 0.0596,0.30725 0.0596,0.30726 0.508,0.16376 0.50801,0.16377 0.21166,0.16733 0.21167,0.16733 v 0.30584 0.30584 l -0.2661,0.26609 -0.26609,0.2661 z m 1.92707,0 h -0.16934 v -1.43933 -1.43934 h 0.16934 0.16933 v 1.43934 1.43933 z m 1.92108,0 h -0.90508 v -1.43933 -1.43934 h 0.74324 0.74324 l 0.39367,0.31878 0.39367,0.31877 -0.20195,0.44323 -0.20195,0.44322 h 0.15429 0.1543 l 0.11134,0.3508 0.11134,0.35081 -0.29551,0.32653 -0.29551,0.32653 z m 0.23792,-0.54011 0.635,-0.0526 v -0.254 -0.254 l -0.635,-0.0525 -0.635,-0.0526 v 0.35911 0.35911 z m -0.0847,-1.18483 0.55033,-0.0531 v -0.254 -0.254 l -0.55033,-0.0531 -0.55033,-0.0531 v 0.36012 0.36012 z m 2.06748,1.72494 h -0.26084 l 0.0492,-1.38337 0.0492,-1.38337 0.21167,-0.0701 0.21166,-0.0701 v 1.45345 1.45344 z m 2.03885,0 h -0.93133 v -1.43933 -1.43934 h 0.16933 0.16934 v 1.18534 1.18533 h 0.762 0.762 v 0.254 0.254 z m 1.68649,0 h -0.26085 l 0.0492,-1.38337 0.0492,-1.38337 0.21167,-0.0701 0.21167,-0.0701 v 1.45345 1.45344 z m 2.03885,0 h -0.254 v -1.18533 -1.18534 h -0.42334 -0.42333 v -0.254 -0.254 h 1.10067 1.10066 v 0.254 0.254 h -0.42333 -0.42333 v 1.18534 1.18533 z m 2.70933,0 h -0.254 v -0.60449 -0.60449 l -0.508,-0.73835 -0.508,-0.73836 v -0.0965 -0.0965 h 0.24019 0.24019 l 0.382,0.6181 0.38201,0.6181 0.39296,-0.4911 0.39297,-0.4911 8.4e-4,-0.127 8.4e-4,-0.127 h 0.254 0.254 l -6.8e-4,0.127 -6.8e-4,0.127 -0.50664,0.762 -0.50655,0.762 -6.8e-4,0.55034 -7.7e-4,0.55033 z M 89.439834,148.9438 h -0.254 v -1.35466 -1.35467 h 0.254 0.254 v 0.508 0.508 h 0.677333 0.677334 v -0.508 -0.508 h 0.254 0.254 v 1.35467 1.35466 h -0.254 -0.254 v -0.59266 -0.59267 h -0.677334 -0.677333 v 0.59267 0.59266 z m 3.894667,0 h -1.100667 v -1.35466 -1.35467 h 1.100667 1.100666 v 0.16933 0.16934 h -0.846666 -0.846667 v 0.33866 0.33867 h 0.677333 0.677334 v 0.254 0.254 h -0.677334 -0.677333 v 0.42333 0.42334 h 0.846667 0.846666 v 0.16933 0.16933 z m 1.663805,0 H 94.7376 l 0.08284,-0.21166 0.08284,-0.21167 0.550617,-1.22767 0.55062,-1.22766 h 0.136669 0.136669 l 0.136398,0.21166 0.1364,0.21167 0.538639,1.22767 0.538641,1.22766 h -0.235755 -0.235754 l -0.181249,-0.33866 -0.18125,-0.33867 H 96.133953 95.47399 l -0.107489,0.33867 -0.10749,0.33866 z m 1.214862,-1.016 h 0.423333 v -0.0652 -0.0652 l -0.224194,-0.5332 -0.224196,-0.5332 -0.199137,0.43706 -0.19914,0.43706 v 0.16137 0.16136 z m 2.973327,1.016 h -1.025994 v -1.35466 -1.35467 h 0.254 0.254 v 1.18533 1.18534 h 0.667339 0.66734 l 0.10465,0.16933 0.10466,0.16933 z m 1.937335,0 h -0.254 v -1.18533 -1.18533 h -0.42333 -0.42333 v -0.16934 -0.16933 h 1.10066 1.10067 v 0.16933 0.16934 h -0.42333 -0.42334 v 1.18533 1.18533 z m 1.905,3.9e-4 -0.21166,3.9e-4 0.0552,-1.35506 0.0552,-1.35505 h 0.15644 0.15644 v 0.508 0.508 h 0.67733 0.67734 v -0.508 -0.508 h 0.254 0.254 v 1.35467 1.35466 h -0.254 -0.254 v -0.59266 -0.59267 h -0.67734 -0.67733 v 0.59267 0.59266 z m -12.150609,-4.33478 -0.422387,0.0955 -0.512105,-0.22697 -0.512104,-0.22696 -0.213653,-0.46892 -0.213653,-0.46892 0.193964,-0.58772 0.193965,-0.58771 0.549439,-0.22957 0.549441,-0.22958 0.490352,0.13115 0.490354,0.13114 v 0.24181 0.24182 l -0.254,-0.0655 -0.254,-0.0655 -0.338667,-0.0714 -0.338666,-0.0714 -0.324557,0.23992 -0.324554,0.23992 v 0.55594 0.55594 l 0.324402,0.23721 0.324402,0.2372 0.422038,-0.0495 0.42204,-0.0495 0.0562,-0.29633 0.0562,-0.29633 h -0.351084 -0.351082 v -0.254 -0.254 h 0.592666 0.592667 v 0.57193 0.57193 l -0.212613,0.17646 -0.212615,0.17645 z m 5.419613,1.7e-4 -0.423333,0.0812 -0.254,-0.0964 -0.254,-0.0964 -0.381,-0.34663 -0.381,-0.34663 v -0.6183 -0.6183 l 0.427511,-0.40162 0.42751,-0.40163 0.626065,0.0178 0.626064,0.0177 0.385758,0.44847 0.385759,0.44848 v 0.48911 0.48911 l -0.381,0.42641 -0.381,0.4264 z m -0.283421,-0.40711 h 0.341421 l 0.309667,-0.28024 0.309667,-0.28025 v -0.42609 -0.42609 l -0.280245,-0.30966 -0.280245,-0.30967 h -0.341422 -0.341422 l -0.309666,0.28024 -0.309667,0.28025 v 0.42609 0.42609 l 0.280245,0.30966 0.280245,0.30967 z m -2.679912,0.33867 h -0.931334 v -1.35467 -1.35467 h 0.254 0.254 v 1.18534 1.18533 h 0.677334 0.677333 v 0.16933 0.16934 z m 5.723467,0 h -0.897467 v -1.36312 -1.36312 l 0.973667,0.0508 0.973662,0.0508 0.0121,0.63299 0.0121,0.63299 0.1149,0.1149 0.11489,0.1149 v 0.36124 0.36125 l -0.2032,0.2032 -0.203195,0.2032 h -0.897467 z m 0.08467,-0.33867 h 0.474134 l 0.199171,-0.19917 0.199167,-0.19917 -0.186035,-0.22416 -0.186038,-0.22417 h -0.487265 -0.487267 v 0.42334 0.42333 z m -0.08467,-1.18533 h 0.389466 l 0.199172,-0.19917 0.19917,-0.19918 -0.186038,-0.22416 -0.186038,-0.22416 h -0.402599 -0.4026 v 0.42333 0.42334 z m 2.036342,1.524 h -0.26071 l 0.084,-0.21167 0.084,-0.21167 0.4722,-1.143 0.47219,-1.143 h 0.27305 0.27305 l 0.54356,1.26408 0.54357,1.26408 v 0.0906 0.0906 h -0.24259 -0.24259 l -0.10749,-0.33867 -0.10749,-0.33867 h -0.65451 -0.65451 l -0.10749,0.33867 -0.10749,0.33867 z m 1.13609,-1.016 h 0.48448 l -0.17708,-0.508 -0.1771,-0.508 h -0.11564 -0.11564 l -0.19175,0.508 -0.19175,0.508 z m 2.95743,1.016 h -0.93133 v -1.35467 -1.35467 h 0.1616 0.16159 l 0.0501,1.143 0.0501,1.143 0.71967,0.0521 0.71967,0.0521 v 0.1596 0.1596 z"
         id="path125" /><path
         style="fill:#0a8dc9;stroke-width:0.169333"
         d="m 78.517833,156.88139 -0.254,-0.0185 -0.931333,-0.1527 -0.931334,-0.15269 -1.239821,-0.58694 -1.239822,-0.58693 -0.908025,-0.93006 -0.908024,-0.93005 -0.646154,-1.30741 -0.646154,-1.3074 v -2.13423 -2.13423 l 0.646154,-1.3074 0.646154,-1.30741 0.908024,-0.93005 0.908025,-0.93006 1.324488,-0.63242 1.324489,-0.63243 h 2.125449 2.125449 l 1.314561,0.64969 1.314562,0.64969 0.905631,0.90563 0.905632,0.90564 0.602523,1.23867 0.602523,1.23868 0.145234,1.143 0.145234,1.143 -0.145234,1.143 -0.145234,1.143 -0.602523,1.23868 -0.602523,1.23867 -0.905632,0.90564 -0.905631,0.90563 -1.238677,0.60377 -1.238677,0.60378 -1.100667,0.17164 -1.100667,0.17163 z m 0.220037,-0.99492 h 0.144681 l 0.467748,-0.46775 0.467747,-0.46775 0.345315,-0.92925 0.345314,-0.92925 0.109747,-0.50957 0.109746,-0.50957 h -2.036501 -2.036501 l 0.002,0.0862 0.002,0.0862 0.226165,0.84667 0.226164,0.84667 0.362226,0.70847 0.362225,0.70848 0.378611,0.26519 0.378612,0.26519 z m -2.065025,-0.33867 h 0.132918 l -0.399155,-0.889 -0.399156,-0.889 -0.207172,-0.95616 -0.207173,-0.95617 -0.950637,-0.18863 -0.950637,-0.18862 -0.89948,-0.41861 -0.899479,-0.4186 0.117076,0.37806 0.117076,0.37807 0.383428,0.762 0.383427,0.762 0.822309,0.81128 0.82231,0.81128 1.000713,0.50105 1.000713,0.50105 z m 4.262837,-0.0965 0.376151,-0.11626 0.664909,-0.33564 0.664909,-0.33564 0.919849,-0.86996 0.919849,-0.86995 0.382979,-0.76235 0.382979,-0.76234 0.117076,-0.37807 0.117076,-0.37806 -0.899479,0.4186 -0.89948,0.41861 -0.950637,0.18862 -0.950637,0.18863 -0.207173,0.95617 -0.207172,0.95616 -0.403676,0.89888 -0.403675,0.89887 z m -2.248515,-4.30614 h 0.508 v -0.93134 -0.93133 h 0.931333 0.931333 v -0.508 -0.508 H 80.1265 79.195167 v -0.93133 -0.93134 h -0.508 -0.508001 v 0.93134 0.93133 H 77.247833 76.3165 v 0.508 0.508 h 0.931333 0.931333 v 0.93133 0.93134 z m -3.471334,-0.34778 0.169333,0.009 v -2.03616 -2.03615 l -0.508,0.1094 -0.508,0.1094 -0.891641,0.33124 -0.891641,0.33125 -0.505359,0.42523 -0.505359,0.42523 v 0.2941 0.29409 l 0.381,0.34703 0.381,0.34702 0.423333,0.22062 0.423334,0.22063 0.931333,0.29943 0.931334,0.29943 0.169333,0.009 z m 7.279766,-0.0916 0.509568,-0.10974 0.929252,-0.34532 0.929253,-0.34531 0.467747,-0.46775 0.467748,-0.46775 v -0.19538 -0.19538 l -0.467748,-0.46775 -0.467747,-0.46775 -0.929253,-0.34531 -0.929252,-0.34532 -0.509568,-0.10975 -0.509568,-0.10974 v 2.041 2.041 z m -9.703246,-4.21839 0.89948,-0.41861 0.950637,-0.18862 0.950637,-0.18863 0.207173,-0.95617 0.207172,-0.95616 0.403676,-0.89888 0.403675,-0.89887 -0.376152,0.11371 -0.376151,0.1137 -0.782979,0.41946 -0.782978,0.41946 -0.801331,0.78904 -0.801331,0.78904 -0.383427,0.762 -0.383428,0.762 -0.117076,0.37807 -0.117076,0.37806 z m 12.64111,0.32902 0.05763,-0.048 -0.458837,-1.02242 -0.458836,-1.02243 -0.961011,-0.91665 -0.961011,-0.91664 -0.669782,-0.33813 -0.669783,-0.33813 -0.376151,-0.11626 -0.376152,-0.11627 0.403675,0.89887 0.403676,0.89888 0.207172,0.95616 0.207173,0.95617 0.950637,0.18916 0.950637,0.18916 0.846667,0.39729 0.846667,0.39729 z m -6.746296,-1.34074 h 2.032 v -0.0978 -0.0978 l -0.27268,-0.91974 -0.272679,-0.91973 -0.322166,-0.63252 -0.322165,-0.63253 -0.421155,-0.27595 -0.421155,-0.27595 -0.421156,0.27595 -0.421155,0.27595 -0.366671,0.71719 -0.36667,0.71719 -0.226165,0.84667 -0.226164,0.84667 -0.002,0.0862 -0.002,0.0862 h 2.032 z m 31.354893,10.24153 h -0.47978 l -0.11289,-0.11289 -0.11289,-0.11289 v -0.36125 -0.36124 l 0.2032,-0.2032 0.2032,-0.2032 h 0.29481 0.29481 l 0.082,0.13269 0.082,0.1327 -0.45301,-0.006 -0.45302,-0.006 v 0.42333 0.42334 l 0.381,0.0541 0.381,0.0541 v -0.167 -0.167 l -0.21166,-0.0854 -0.21167,-0.0854 0.29633,-0.0134 0.29634,-0.0134 v 0.33867 0.33867 z m 1.1045,-0.21167 -0.0774,0.29633 0.003,-0.762 0.003,-0.762 0.0734,0.381 0.0734,0.381 h 0.31511 0.31511 l 0.0734,-0.381 0.0734,-0.381 0.003,0.762 0.003,0.762 -0.0774,-0.29633 -0.0774,-0.29633 h -0.31383 -0.31384 z m 1.524,0 -0.0774,0.29633 -0.0196,-0.71966 -0.0196,-0.71967 h 0.48988 0.48988 l 0.10571,0.27546 0.1057,0.27547 -0.18683,0.22511 -0.18683,0.22512 0.12835,0.21909 0.12835,0.21908 -0.33877,-0.29633 -0.33878,-0.29633 h -0.10125 -0.10125 z m 0.39128,-0.46567 h 0.33866 v -0.254 -0.254 h -0.33866 -0.33867 v 0.254 0.254 z m 1.016,0.67734 h -0.22578 l 0.11289,-0.11289 0.11289,-0.11289 0.11288,0.11289 0.11289,0.11289 z m 0.62014,-0.127 -0.0854,0.21166 -0.0134,-0.13244 -0.0134,-0.13243 0.24535,-0.58723 0.24536,-0.58723 h 0.089 0.089 l 0.26864,0.51948 0.26863,0.51948 -0.0816,0.20019 -0.0816,0.20018 -0.0134,-0.21166 -0.0134,-0.21167 h -0.40923 -0.40922 z m 0.48584,-0.381 h 0.24868 v -0.15934 -0.15934 l -0.15159,-0.0937 -0.15159,-0.0937 -0.0971,0.25303 -0.0971,0.25303 z m 1.68054,0.47369 -0.5127,0.0504 -0.12091,-0.12092 -0.12091,-0.12091 v -0.36125 -0.36124 l 0.2032,-0.2032 0.2032,-0.2032 h 0.38946 0.38947 v 0.13368 0.13367 l -0.46567,-0.007 -0.46566,-0.007 v 0.42333 0.42334 l 0.381,0.0541 0.381,0.0541 v -0.167 -0.167 l -0.21167,-0.0854 -0.21167,-0.0854 0.39342,-0.0134 0.39342,-0.0134 -0.0561,0.29634 -0.0561,0.29633 -0.5127,0.0504 z m 1.48914,0.009 -0.55033,0.0254 v -0.67734 -0.67733 l 0.55033,0.0254 0.55034,0.0254 -0.46567,0.0705 -0.46567,0.0705 v 0.23097 0.23098 l 0.381,0.0734 0.381,0.0734 -0.381,0.0231 -0.381,0.0231 v 0.15808 0.15809 l 0.46567,0.0705 0.46567,0.0705 z m 0.95215,-0.39283 -0.10774,0.50287 -0.02,-0.75134 -0.02,-0.75135 0.4949,0.47415 0.49491,0.47415 0.0724,-0.4848 0.0724,-0.48481 0.0254,0.71967 0.0254,0.71967 h -0.10263 -0.10263 l -0.36226,-0.46055 -0.36226,-0.46054 z m 2.20125,0.39283 -0.44493,0.0254 -0.21496,-0.25902 -0.21496,-0.25901 0.19059,-0.41832 0.1906,-0.41832 h 0.42697 0.42696 v 0.15348 0.15348 l -0.30816,-0.0806 -0.30817,-0.0806 -0.20275,0.24431 -0.20276,0.24431 0.10192,0.2656 0.10192,0.26559 0.45133,0.0692 0.45134,0.0692 z m 1.3282,-0.14396 -0.0945,0.254 -0.0134,-0.30229 -0.0134,-0.30229 -0.28969,-0.45971 -0.28969,-0.45971 0.34153,0.29288 0.34153,0.29287 0.30523,-0.29287 0.30523,-0.29288 -0.24917,0.508 -0.24917,0.508 z m -24.180709,-0.34126 -9.553224,-0.003 0.195494,-0.12441 0.195492,-0.1244 9.237047,0.006 9.23705,0.006 0.12068,0.12068 0.12068,0.12069 z m -9.221405,-1.86007 h -0.260848 l 0.04918,-1.397 0.04918,-1.397 0.677333,0.045 0.677333,0.045 0.381,0.0852 0.381,0.0852 v 0.58103 0.58102 l -0.280372,0.15691 -0.280372,0.1569 0.376569,0.52885 0.37657,0.52884 h -0.254 -0.254 l -0.361728,-0.508 -0.361728,-0.508 h -0.327135 -0.327137 v 0.508 0.508 z m 0.748115,-1.35467 h 0.487265 l 0.209011,-0.25184 0.209012,-0.25184 -0.0983,-0.25616 -0.0983,-0.25616 h -0.597982 -0.59798 v 0.508 0.508 z m 3.111066,1.35467 h -1.001889 l -0.112888,-0.11289 -0.112889,-0.11289 v -1.24178 -1.24177 l 0.211666,-0.022 0.211667,-0.022 0.804333,-0.0242 0.804334,-0.0242 v 0.21559 0.21559 h -0.762 -0.762 v 0.33867 0.33867 h 0.677333 0.677333 v 0.254 0.254 h -0.677333 -0.677333 v 0.32939 0.32938 l 0.791096,0.0516 0.791097,0.0516 0.06968,0.21166 0.06968,0.21167 z m 2.527905,-0.006 -0.453571,-0.006 -0.403877,-0.22387 -0.403877,-0.22387 0.17952,-0.11095 0.179523,-0.11095 0.425223,0.19375 0.425224,0.19374 0.264799,-0.10161 0.264798,-0.10161 v -0.22136 -0.22137 l -0.719666,-0.33428 -0.719667,-0.33429 -0.05271,-0.3703 -0.05271,-0.37029 0.446832,-0.29278 0.44683,-0.29277 0.440949,0.15507 0.440949,0.15507 -0.03494,0.16709 -0.03494,0.16708 -0.499966,-0.0524 -0.499966,-0.0525 -0.181385,0.1121 -0.181387,0.11211 0.189257,0.22804 0.189257,0.22804 0.497708,0.10931 0.497707,0.10932 0.167926,0.31377 0.167924,0.31377 v 0.16837 0.16837 l -0.266095,0.26609 -0.266096,0.2661 -0.453571,-0.006 z m 1.832429,0.006 h -0.169333 v -1.44409 -1.44409 l 0.804333,0.10711 0.804333,0.1071 0.211667,0.17238 0.211667,0.17239 v 0.46653 0.46654 l -0.211667,0.17491 -0.211667,0.17491 -0.635,0.11867 -0.635,0.11866 v 0.40449 0.40449 z m 0.719667,-1.38627 0.550333,-0.0531 v -0.42334 -0.42333 l -0.550333,-0.0531 -0.550334,-0.0531 v 0.52945 0.52946 z m 3.040302,1.38088 -0.55803,0.005 -0.41563,-0.41564 -0.41564,-0.41563 v -0.60037 -0.60036 l 0.33436,-0.33436 0.33436,-0.33436 0.45824,-0.11501 0.45824,-0.11501 0.43506,0.24385 0.43507,0.24386 0.22515,0.46836 0.22515,0.46837 -0.18207,0.52226 -0.18206,0.52227 -0.29709,0.2255 -0.29708,0.2255 -0.55803,0.005 z m 0.0423,-0.33328 h 0.26169 l 0.33867,-0.33866 0.33866,-0.33867 v -0.36767 -0.36766 l -0.28024,-0.30967 -0.28025,-0.30967 h -0.46102 -0.46102 l -0.16934,0.21167 -0.16934,0.21167 -0.11591,0.37818 -0.11591,0.37818 0.42615,0.42615 0.42616,0.42615 z m 2.29369,0.33867 h -0.16933 v -1.43933 -1.43934 h 0.14899 0.14899 l 0.74001,0.97367 0.74001,0.97367 0.0847,-0.93134 0.0847,-0.93133 h 0.16933 0.16934 l 0.0492,1.397 0.0492,1.397 h -0.23124 -0.23124 l -0.66461,-0.92768 -0.66461,-0.92768 -0.127,-0.004 -0.127,-0.004 v 0.93134 0.93133 z m 3.92491,-0.006 -0.45358,-0.006 -0.40387,-0.22387 -0.40388,-0.22387 0.17952,-0.11095 0.17952,-0.11095 0.42523,0.19375 0.42522,0.19374 0.2648,-0.10161 0.2648,-0.10161 v -0.22136 -0.22137 l -0.71967,-0.33428 -0.71967,-0.33429 -0.0527,-0.3703 -0.0527,-0.37029 0.44683,-0.29278 0.44683,-0.29277 0.44095,0.15507 0.44095,0.15507 -0.0349,0.16709 -0.035,0.16708 -0.49996,-0.0524 -0.49997,-0.0525 -0.18138,0.1121 -0.18139,0.11211 0.18926,0.22804 0.18925,0.22804 0.49771,0.10931 0.49771,0.10932 0.16792,0.31377 0.16793,0.31377 v 0.16837 0.16837 l -0.2661,0.26609 -0.26609,0.2661 -0.45357,-0.006 z m 1.83243,0.006 h -0.16934 v -1.43933 -1.43934 h 0.16934 0.16933 v 1.43934 1.43933 z m 1.85581,0 h -0.85351 l 0.0492,-1.38923 0.0492,-1.38923 0.42334,0.0104 0.42333,0.0104 0.45971,0.0241 0.45971,0.0241 0.18245,0.34091 0.18245,0.34091 -0.15909,0.28427 -0.15909,0.28428 0.24836,0.37905 0.24836,0.37904 -0.35043,0.35044 -0.35043,0.35043 z m 0.28183,-0.39394 0.61365,-0.0996 0.0846,-0.0846 0.0846,-0.0846 -0.10027,-0.2613 -0.10027,-0.2613 h -0.59798 -0.59798 v 0.44549 0.44549 z m -0.23264,-1.13265 0.381,-0.003 0.23634,-0.14965 0.23634,-0.14965 -0.10403,-0.27109 -0.10403,-0.27109 h -0.51331 -0.51331 v 0.42334 0.42333 l 0.381,-0.003 z m 2.24366,1.52659 h -0.26769 l 0.0492,-1.397 0.0492,-1.397 0.16933,0.0412 0.16934,0.0412 0.0492,1.35579 0.0492,1.35579 z m 2.032,0 h -0.93133 v -1.34467 -1.34468 l 0.16181,-0.1 0.1618,-0.1 0.0499,1.23301 0.0499,1.23301 0.71967,-0.0569 0.71967,-0.0569 v 0.26856 0.26856 z m 1.778,0 h -0.16933 v -1.43933 -1.43934 h 0.16933 0.16934 v 1.43934 1.43933 z m 1.94734,0 h -0.254 v -1.18533 -1.18534 h -0.42334 -0.42333 v -0.15121 -0.15122 l 0.21167,-0.0723 0.21166,-0.0723 0.83256,0.0118 0.83256,0.0118 0.0705,0.21167 0.0706,0.21166 h -0.43745 -0.43744 v 1.18534 1.18533 h -0.254 z m 2.70933,0 h -0.254 v -0.61044 -0.61045 l -0.50227,-0.74422 -0.50227,-0.74422 0.20593,-0.002 0.20594,-0.002 0.46698,0.55186 0.46697,0.55186 0.16128,-0.26924 0.16128,-0.26925 0.33084,-0.40809 0.33083,-0.40809 0.10792,0.10745 0.10791,0.10745 -0.51667,0.8147 -0.51667,0.81471 v 0.55951 0.55951 h -0.254 z m -32.681296,-4.4028 h -0.254 v -1.35466 -1.35467 h 0.254 0.254 v 0.59267 0.59266 h 0.677333 0.677334 v -0.59266 -0.59267 h 0.254 0.254 v 1.35467 1.35466 h -0.254 -0.254 v -0.59266 -0.59267 h -0.677334 -0.677333 v 0.59267 0.59266 z m 3.904661,0 h -1.110661 v -1.35466 -1.35467 h 1.016 1.016 v 0.16933 0.16934 h -0.762 -0.762 v 0.42333 0.42333 h 0.677333 0.677334 v 0.16934 0.16933 h -0.677334 -0.677333 v 0.42333 0.42334 h 0.752006 0.752008 l 0.104653,0.16933 0.104653,0.16933 z m 1.678906,0 h -0.235612 l 0.559826,-1.31233 0.559825,-1.31233 0.248276,-0.0487 0.248277,-0.0487 0.612079,1.361 0.612079,1.361 h -0.257678 -0.257678 l -0.08856,-0.33866 -0.08856,-0.33867 H 96.20483 95.47399 l -0.107489,0.33867 -0.10749,0.33866 z m 1.201178,-1.016 h 0.434745 l -0.116563,-0.381 -0.11656,-0.381 -0.136942,-0.254 -0.136943,-0.254 -0.181241,0.47669 -0.181241,0.47669 v 0.15831 0.15831 z m 2.867255,1.016 h -0.931333 v -1.35466 -1.35467 h 0.254 0.254 v 1.18533 1.18534 h 0.677333 0.677336 v 0.16933 0.16933 z m 2.031996,0 h -0.254 v -1.18533 -1.18533 h -0.42333 -0.42333 v -0.16934 -0.16933 h 1.10066 1.10067 v 0.16933 0.16934 h -0.42333 -0.42334 v 1.18533 1.18533 z m 1.94734,0 h -0.16934 v -1.35466 -1.35467 h 0.15861 0.1586 l 0.0531,0.55033 0.0531,0.55034 h 0.67733 0.67733 l 0.0531,-0.55034 0.0531,-0.55033 h 0.1586 0.15861 v 1.35467 1.35466 h -0.16934 -0.16933 v -0.59266 -0.59267 h -0.762 -0.762 v 0.59267 0.59266 z m -12.604204,-4.40266 h -0.603799 l -0.338666,-0.33867 -0.338667,-0.33867 v -0.64781 -0.64782 l 0.391913,-0.36818 0.391914,-0.36819 h 0.52557 0.525572 l 0.266876,0.10241 0.266876,0.10241 -0.0868,0.14044 -0.0868,0.14044 -0.570501,-0.0926 -0.570501,-0.0926 -0.35773,0.35773 -0.357728,0.35773 v 0.30099 0.30099 l 0.270266,0.38586 0.270268,0.38586 0.534065,-0.0519 0.534067,-0.0519 0.05411,-0.381 0.05411,-0.381 h -0.350444 -0.350443 v -0.16933 -0.16933 h 0.592666 0.592667 v 0.58671 0.5867 l -0.327535,0.1753 -0.327534,0.17529 z m 2.867535,0 h -0.931334 v -1.35467 -1.35467 h 0.169334 0.169333 v 1.18534 1.18533 h 0.762 0.762 v 0.16933 0.16934 z m 2.709333,0 h -0.737419 l -0.350957,-0.44617 -0.350957,-0.44617 v -0.46233 -0.46233 l 0.350957,-0.44617 0.350957,-0.44617 h 0.737419 0.73742 l 0.350957,0.44617 0.350957,0.44617 v 0.46233 0.46233 l -0.350957,0.44617 -0.350957,0.44617 z m -0.04357,-0.33867 h 0.355571 l 0.309667,-0.28024 0.309667,-0.28025 v -0.42609 -0.42609 l -0.280245,-0.30966 -0.280245,-0.30967 h -0.341422 -0.341422 l -0.309666,0.28024 -0.309667,0.28025 v 0.46966 0.46966 l 0.266095,0.26609 0.266096,0.2661 z m 3.057705,0.33867 h -0.897467 v -1.35467 -1.35467 l 0.804333,0.003 0.804334,0.003 0.233641,0.14798 0.23364,0.14798 -0.0784,0.53422 -0.0784,0.53421 0.1411,0.0872 0.1411,0.0872 v 0.37947 0.37948 l -0.2032,0.2032 -0.203194,0.2032 z m -0.06465,-0.33867 h 0.494152 l 0.267848,-0.10278 0.267851,-0.10279 v -0.21776 -0.21777 l -0.267851,-0.10278 -0.267848,-0.10279 h -0.494152 -0.49415 v 0.42334 0.42333 z m -0.08467,-1.18533 h 0.409486 l 0.267848,-0.10279 0.26785,-0.10278 v -0.21777 -0.21776 l -0.26785,-0.10279 -0.267848,-0.10278 h -0.409486 -0.409483 v 0.42333 0.42334 z m 2.195441,1.524 h -0.23426 v -0.0753 -0.0753 l 0.58304,-1.27939 0.58303,-1.27938 0.2213,0.002 0.2213,0.002 0.55494,1.29133 0.55495,1.29134 -0.10779,0.10339 -0.10778,0.10338 -0.25615,-0.381 -0.25614,-0.381 h -0.67254 -0.67253 l -0.0886,0.33867 -0.0886,0.33867 z m 1.12922,-1.016 h 0.49919 v -0.0767 -0.0767 l -0.19651,-0.4313 -0.19652,-0.4313 h -0.12558 -0.12559 l -0.17709,0.508 -0.17709,0.508 z m 2.95452,1.016 h -0.93133 v -1.35467 -1.35467 h 0.16933 0.16934 v 1.18534 1.18533 h 0.762 0.762 v 0.16933 0.16934 z"
         id="path123" /><path
         style="fill:#5c656d;stroke-width:0.169333"
         d="m 110.04206,155.71714 h -0.47978 l -0.11289,-0.11289 -0.11289,-0.11289 v -0.36125 -0.36124 l 0.2032,-0.2032 0.2032,-0.2032 h 0.29481 0.29481 l 0.082,0.13269 0.082,0.1327 -0.45301,-0.006 -0.45302,-0.006 v 0.42333 0.42334 l 0.381,0.0541 0.381,0.0541 v -0.167 -0.167 l -0.21166,-0.0854 -0.21167,-0.0854 0.29633,-0.0134 0.29634,-0.0134 v 0.33867 0.33867 z m 1.1045,-0.21167 -0.0774,0.29633 0.003,-0.762 0.003,-0.762 0.0734,0.381 0.0734,0.381 h 0.31511 0.31511 l 0.0734,-0.381 0.0734,-0.381 0.003,0.762 0.003,0.762 -0.0774,-0.29633 -0.0774,-0.29633 h -0.31383 -0.31384 z m 1.524,0 -0.0774,0.29633 -0.0196,-0.71966 -0.0196,-0.71967 h 0.48988 0.48988 l 0.10571,0.27546 0.1057,0.27547 -0.18683,0.22511 -0.18683,0.22512 0.12835,0.21909 0.12835,0.21908 -0.33877,-0.29633 -0.33878,-0.29633 h -0.10125 -0.10125 z m 0.39128,-0.46567 h 0.33866 v -0.254 -0.254 h -0.33866 -0.33867 v 0.254 0.254 z m 1.016,0.67734 h -0.22578 l 0.11289,-0.11289 0.11289,-0.11289 0.11288,0.11289 0.11289,0.11289 z m 0.62014,-0.127 -0.0854,0.21166 -0.0134,-0.13244 -0.0134,-0.13243 0.24535,-0.58723 0.24536,-0.58723 h 0.089 0.089 l 0.26864,0.51948 0.26863,0.51948 -0.0816,0.20019 -0.0816,0.20018 -0.0134,-0.21166 -0.0134,-0.21167 h -0.40923 -0.40922 z m 0.48584,-0.381 h 0.24868 v -0.15934 -0.15934 l -0.15159,-0.0937 -0.15159,-0.0937 -0.0971,0.25303 -0.0971,0.25303 z m 1.68054,0.47369 -0.5127,0.0504 -0.12091,-0.12092 -0.12091,-0.12091 v -0.36125 -0.36124 l 0.2032,-0.2032 0.2032,-0.2032 h 0.38946 0.38947 v 0.13368 0.13367 l -0.46567,-0.007 -0.46566,-0.007 v 0.42333 0.42334 l 0.381,0.0541 0.381,0.0541 v -0.167 -0.167 l -0.21167,-0.0854 -0.21167,-0.0854 0.39342,-0.0134 0.39342,-0.0134 -0.0561,0.29634 -0.0561,0.29633 -0.5127,0.0504 z m 1.48914,0.009 -0.55033,0.0254 v -0.67734 -0.67733 l 0.55033,0.0254 0.55034,0.0254 -0.46567,0.0705 -0.46567,0.0705 v 0.23097 0.23098 l 0.381,0.0734 0.381,0.0734 -0.381,0.0231 -0.381,0.0231 v 0.15808 0.15809 l 0.46567,0.0705 0.46567,0.0705 z m 0.95215,-0.39283 -0.10774,0.50287 -0.02,-0.75134 -0.02,-0.75135 0.4949,0.47415 0.49491,0.47415 0.0724,-0.4848 0.0724,-0.48481 0.0254,0.71967 0.0254,0.71967 h -0.10263 -0.10263 l -0.36226,-0.46055 -0.36226,-0.46054 z m 2.20125,0.39283 -0.44493,0.0254 -0.21496,-0.25902 -0.21496,-0.25901 0.19059,-0.41832 0.1906,-0.41832 h 0.42697 0.42696 v 0.15348 0.15348 l -0.30816,-0.0806 -0.30817,-0.0806 -0.20275,0.24431 -0.20276,0.24431 0.10192,0.2656 0.10192,0.26559 0.45133,0.0692 0.45134,0.0692 z m 1.3282,-0.14396 -0.0945,0.254 -0.0134,-0.30229 -0.0134,-0.30229 -0.28969,-0.45971 -0.28969,-0.45971 0.34153,0.29288 0.34153,0.29287 0.30523,-0.29287 0.30523,-0.29288 -0.24917,0.508 -0.24917,0.508 z m -24.180709,-0.34126 -9.553224,-0.003 0.195494,-0.12441 0.195492,-0.1244 9.237047,0.006 9.23705,0.006 0.12068,0.12068 0.12068,0.12069 z m -9.221405,-1.86007 h -0.260848 l 0.04918,-1.397 0.04918,-1.397 0.677333,0.045 0.677333,0.045 0.381,0.0852 0.381,0.0852 v 0.58103 0.58102 l -0.280372,0.15691 -0.280372,0.1569 0.376569,0.52885 0.37657,0.52884 h -0.254 -0.254 l -0.361728,-0.508 -0.361728,-0.508 h -0.327135 -0.327137 v 0.508 0.508 z m 0.748115,-1.35467 h 0.487265 l 0.209011,-0.25184 0.209012,-0.25184 -0.0983,-0.25616 -0.0983,-0.25616 h -0.597982 -0.59798 v 0.508 0.508 z m 3.111066,1.35467 h -1.001889 l -0.112888,-0.11289 -0.112889,-0.11289 v -1.24178 -1.24177 l 0.211666,-0.022 0.211667,-0.022 0.804333,-0.0242 0.804334,-0.0242 v 0.21559 0.21559 h -0.762 -0.762 v 0.33867 0.33867 h 0.677333 0.677333 v 0.254 0.254 h -0.677333 -0.677333 v 0.32939 0.32938 l 0.791096,0.0516 0.791097,0.0516 0.06968,0.21166 0.06968,0.21167 z m 2.527905,-0.006 -0.453571,-0.006 -0.403877,-0.22387 -0.403877,-0.22387 0.17952,-0.11095 0.179523,-0.11095 0.425223,0.19375 0.425224,0.19374 0.264799,-0.10161 0.264798,-0.10161 v -0.22136 -0.22137 l -0.719666,-0.33428 -0.719667,-0.33429 -0.05271,-0.3703 -0.05271,-0.37029 0.446832,-0.29278 0.44683,-0.29277 0.440949,0.15507 0.440949,0.15507 -0.03494,0.16709 -0.03494,0.16708 -0.499966,-0.0524 -0.499966,-0.0525 -0.181385,0.1121 -0.181387,0.11211 0.189257,0.22804 0.189257,0.22804 0.497708,0.10931 0.497707,0.10932 0.167926,0.31377 0.167924,0.31377 v 0.16837 0.16837 l -0.266095,0.26609 -0.266096,0.2661 -0.453571,-0.006 z m 1.832429,0.006 h -0.169333 v -1.44409 -1.44409 l 0.804333,0.10711 0.804333,0.1071 0.211667,0.17238 0.211667,0.17239 v 0.46653 0.46654 l -0.211667,0.17491 -0.211667,0.17491 -0.635,0.11867 -0.635,0.11866 v 0.40449 0.40449 z m 0.719667,-1.38627 0.550333,-0.0531 v -0.42334 -0.42333 l -0.550333,-0.0531 -0.550334,-0.0531 v 0.52945 0.52946 z m 3.040302,1.38088 -0.55803,0.005 -0.41563,-0.41564 -0.41564,-0.41563 v -0.60037 -0.60036 l 0.33436,-0.33436 0.33436,-0.33436 0.45824,-0.11501 0.45824,-0.11501 0.43506,0.24385 0.43507,0.24386 0.22515,0.46836 0.22515,0.46837 -0.18207,0.52226 -0.18206,0.52227 -0.29709,0.2255 -0.29708,0.2255 -0.55803,0.005 z m 0.0423,-0.33328 h 0.26169 l 0.33867,-0.33866 0.33866,-0.33867 v -0.36767 -0.36766 l -0.28024,-0.30967 -0.28025,-0.30967 h -0.46102 -0.46102 l -0.16934,0.21167 -0.16934,0.21167 -0.11591,0.37818 -0.11591,0.37818 0.42615,0.42615 0.42616,0.42615 z m 2.29369,0.33867 h -0.16933 v -1.43933 -1.43934 h 0.14899 0.14899 l 0.74001,0.97367 0.74001,0.97367 0.0847,-0.93134 0.0847,-0.93133 h 0.16933 0.16934 l 0.0492,1.397 0.0492,1.397 h -0.23124 -0.23124 l -0.66461,-0.92768 -0.66461,-0.92768 -0.127,-0.004 -0.127,-0.004 v 0.93134 0.93133 z m 3.92491,-0.006 -0.45358,-0.006 -0.40387,-0.22387 -0.40388,-0.22387 0.17952,-0.11095 0.17952,-0.11095 0.42523,0.19375 0.42522,0.19374 0.2648,-0.10161 0.2648,-0.10161 v -0.22136 -0.22137 l -0.71967,-0.33428 -0.71967,-0.33429 -0.0527,-0.3703 -0.0527,-0.37029 0.44683,-0.29278 0.44683,-0.29277 0.44095,0.15507 0.44095,0.15507 -0.0349,0.16709 -0.035,0.16708 -0.49996,-0.0524 -0.49997,-0.0525 -0.18138,0.1121 -0.18139,0.11211 0.18926,0.22804 0.18925,0.22804 0.49771,0.10931 0.49771,0.10932 0.16792,0.31377 0.16793,0.31377 v 0.16837 0.16837 l -0.2661,0.26609 -0.26609,0.2661 -0.45357,-0.006 z m 1.83243,0.006 h -0.16934 v -1.43933 -1.43934 h 0.16934 0.16933 v 1.43934 1.43933 z m 1.85581,0 h -0.85351 l 0.0492,-1.38923 0.0492,-1.38923 0.42334,0.0104 0.42333,0.0104 0.45971,0.0241 0.45971,0.0241 0.18245,0.34091 0.18245,0.34091 -0.15909,0.28427 -0.15909,0.28428 0.24836,0.37905 0.24836,0.37904 -0.35043,0.35044 -0.35043,0.35043 z m 0.28183,-0.39394 0.61365,-0.0996 0.0846,-0.0846 0.0846,-0.0846 -0.10027,-0.2613 -0.10027,-0.2613 h -0.59798 -0.59798 v 0.44549 0.44549 z m -0.23264,-1.13265 0.381,-0.003 0.23634,-0.14965 0.23634,-0.14965 -0.10403,-0.27109 -0.10403,-0.27109 h -0.51331 -0.51331 v 0.42334 0.42333 l 0.381,-0.003 z m 2.24366,1.52659 h -0.26769 l 0.0492,-1.397 0.0492,-1.397 0.16933,0.0412 0.16934,0.0412 0.0492,1.35579 0.0492,1.35579 z m 2.032,0 h -0.93133 v -1.34467 -1.34468 l 0.16181,-0.1 0.1618,-0.1 0.0499,1.23301 0.0499,1.23301 0.71967,-0.0569 0.71967,-0.0569 v 0.26856 0.26856 z m 1.778,0 h -0.16933 v -1.43933 -1.43934 h 0.16933 0.16934 v 1.43934 1.43933 z m 1.94734,0 h -0.254 v -1.18533 -1.18534 h -0.42334 -0.42333 v -0.15121 -0.15122 l 0.21167,-0.0723 0.21166,-0.0723 0.83256,0.0118 0.83256,0.0118 0.0705,0.21167 0.0706,0.21166 h -0.43745 -0.43744 v 1.18534 1.18533 h -0.254 z m 2.70933,0 h -0.254 v -0.61044 -0.61045 l -0.50227,-0.74422 -0.50227,-0.74422 0.20593,-0.002 0.20594,-0.002 0.46698,0.55186 0.46697,0.55186 0.16128,-0.26924 0.16128,-0.26925 0.33084,-0.40809 0.33083,-0.40809 0.10792,0.10745 0.10791,0.10745 -0.51667,0.8147 -0.51667,0.81471 v 0.55951 0.55951 h -0.254 z M 89.439834,148.9438 h -0.254 v -1.35466 -1.35467 h 0.254 0.254 v 0.59267 0.59266 h 0.677333 0.677334 v -0.59266 -0.59267 h 0.254 0.254 v 1.35467 1.35466 h -0.254 -0.254 v -0.59266 -0.59267 h -0.677334 -0.677333 v 0.59267 0.59266 z m 3.904661,0 h -1.110661 v -1.35466 -1.35467 h 1.016 1.016 v 0.16933 0.16934 h -0.762 -0.762 v 0.42333 0.42333 h 0.677333 0.677334 v 0.16934 0.16933 h -0.677334 -0.677333 v 0.42333 0.42334 h 0.752006 0.752008 l 0.104653,0.16933 0.104653,0.16933 z m 1.678906,0 h -0.235612 l 0.559826,-1.31233 0.559825,-1.31233 0.248276,-0.0487 0.248277,-0.0487 0.612079,1.361 0.612079,1.361 h -0.257678 -0.257678 l -0.08856,-0.33866 -0.08856,-0.33867 H 96.20483 95.47399 l -0.107489,0.33867 -0.10749,0.33866 z m 1.201178,-1.016 h 0.434745 l -0.116563,-0.381 -0.11656,-0.381 -0.136942,-0.254 -0.136943,-0.254 -0.181241,0.47669 -0.181241,0.47669 v 0.15831 0.15831 z m 2.867255,1.016 h -0.931333 v -1.35466 -1.35467 h 0.254 0.254 v 1.18533 1.18534 h 0.677333 0.677336 v 0.16933 0.16933 z m 2.031996,0 h -0.254 v -1.18533 -1.18533 h -0.42333 -0.42333 v -0.16934 -0.16933 h 1.10066 1.10067 v 0.16933 0.16934 h -0.42333 -0.42334 v 1.18533 1.18533 z m 1.94734,0 h -0.16934 v -1.35466 -1.35467 h 0.15861 0.1586 l 0.0531,0.55033 0.0531,0.55034 h 0.67733 0.67733 l 0.0531,-0.55034 0.0531,-0.55033 h 0.1586 0.15861 v 1.35467 1.35466 h -0.16934 -0.16933 v -0.59266 -0.59267 h -0.762 -0.762 v 0.59267 0.59266 z m -12.604204,-4.40266 h -0.603799 l -0.338666,-0.33867 -0.338667,-0.33867 v -0.64781 -0.64782 l 0.391913,-0.36818 0.391914,-0.36819 h 0.52557 0.525572 l 0.266876,0.10241 0.266876,0.10241 -0.0868,0.14044 -0.0868,0.14044 -0.570501,-0.0926 -0.570501,-0.0926 -0.35773,0.35773 -0.357728,0.35773 v 0.30099 0.30099 l 0.270266,0.38586 0.270268,0.38586 0.534065,-0.0519 0.534067,-0.0519 0.05411,-0.381 0.05411,-0.381 h -0.350444 -0.350443 v -0.16933 -0.16933 h 0.592666 0.592667 v 0.58671 0.5867 l -0.327535,0.1753 -0.327534,0.17529 z m 2.867535,0 h -0.931334 v -1.35467 -1.35467 h 0.169334 0.169333 v 1.18534 1.18533 h 0.762 0.762 v 0.16933 0.16934 z m 2.709333,0 h -0.737419 l -0.350957,-0.44617 -0.350957,-0.44617 v -0.46233 -0.46233 l 0.350957,-0.44617 0.350957,-0.44617 h 0.737419 0.73742 l 0.350957,0.44617 0.350957,0.44617 v 0.46233 0.46233 l -0.350957,0.44617 -0.350957,0.44617 z m -0.04357,-0.33867 h 0.355571 l 0.309667,-0.28024 0.309667,-0.28025 v -0.42609 -0.42609 l -0.280245,-0.30966 -0.280245,-0.30967 h -0.341422 -0.341422 l -0.309666,0.28024 -0.309667,0.28025 v 0.46966 0.46966 l 0.266095,0.26609 0.266096,0.2661 z m 3.057705,0.33867 h -0.897467 v -1.35467 -1.35467 l 0.804333,0.003 0.804334,0.003 0.233641,0.14798 0.23364,0.14798 -0.0784,0.53422 -0.0784,0.53421 0.1411,0.0872 0.1411,0.0872 v 0.37947 0.37948 l -0.2032,0.2032 -0.203194,0.2032 z m -0.06465,-0.33867 h 0.494152 l 0.267848,-0.10278 0.267851,-0.10279 v -0.21776 -0.21777 l -0.267851,-0.10278 -0.267848,-0.10279 h -0.494152 -0.49415 v 0.42334 0.42333 z m -0.08467,-1.18533 h 0.409486 l 0.267848,-0.10279 0.26785,-0.10278 v -0.21777 -0.21776 l -0.26785,-0.10279 -0.267848,-0.10278 h -0.409486 -0.409483 v 0.42333 0.42334 z m 2.195441,1.524 h -0.23426 v -0.0753 -0.0753 l 0.58304,-1.27939 0.58303,-1.27938 0.2213,0.002 0.2213,0.002 0.55494,1.29133 0.55495,1.29134 -0.10779,0.10339 -0.10778,0.10338 -0.25615,-0.381 -0.25614,-0.381 h -0.67254 -0.67253 l -0.0886,0.33867 -0.0886,0.33867 z m 1.12922,-1.016 h 0.49919 v -0.0767 -0.0767 l -0.19651,-0.4313 -0.19652,-0.4313 h -0.12558 -0.12559 l -0.17709,0.508 -0.17709,0.508 z m 2.95452,1.016 h -0.93133 v -1.35467 -1.35467 h 0.16933 0.16934 v 1.18534 1.18533 h 0.762 0.762 v 0.16933 0.16934 z"
         id="path121" /><path
         style="fill:#2e3944;stroke-width:0.169333"
         d="m 110.01706,155.71714 h -0.50477 l -0.10681,-0.42554 -0.1068,-0.42553 0.20898,-0.2518 0.20898,-0.2518 0.36026,0.0169 0.36027,0.0169 -0.42333,0.11775 -0.42334,0.11776 v 0.4157 0.4157 l 0.381,0.0541 0.381,0.0541 v -0.167 -0.167 l -0.21166,-0.0854 -0.21167,-0.0854 0.29633,-0.0134 0.29634,-0.0134 v 0.33867 0.33867 z m 1.1295,-0.21167 -0.0774,0.29633 0.003,-0.762 0.003,-0.762 0.0756,0.39806 0.0756,0.39807 0.40932,-0.0782 0.40932,-0.0782 v 0.14585 0.14586 h -0.41092 -0.41092 z m 1.524,0 -0.0774,0.29633 -0.0196,-0.71966 -0.0196,-0.71967 h 0.38946 0.38947 l 0.19527,0.19527 0.19528,0.19528 -0.16924,0.31622 -0.16924,0.31623 0.10505,0.20817 0.10506,0.20816 -0.24289,-0.29633 -0.24289,-0.29633 h -0.18059 -0.18058 z m 0.43361,-0.49622 0.381,-0.0541 v -0.16934 -0.16933 l -0.381,-0.0541 -0.381,-0.0541 v 0.27755 0.27756 z m 1.05833,0.70789 h -0.0847 v -0.0847 -0.0847 h 0.0847 0.0847 v 0.0847 0.0847 z m 0.55868,-0.15019 -0.16729,0.23485 0.10064,-0.31018 0.10064,-0.31018 v -0.055 -0.055 l 0.36134,0.0945 0.36133,0.0945 -0.0862,-0.23734 -0.0862,-0.23735 -0.1844,0.0403 -0.18441,0.0403 0.0963,-0.251 0.0963,-0.251 0.13492,0.0834 0.13492,0.0834 0.16779,0.48135 0.1678,0.48135 -0.42313,-0.0809 -0.42314,-0.0809 z m 2.18452,0.15019 h -0.38946 l -0.2032,-0.2032 -0.2032,-0.2032 v -0.27094 -0.27093 l 0.2032,-0.2032 0.2032,-0.2032 0.34713,0.0169 0.34713,0.0169 -0.42333,0.11775 -0.42333,0.11776 v 0.4157 0.4157 l 0.40483,0.0572 0.40483,0.0572 -0.10318,-0.2689 -0.10319,-0.2689 h 0.16402 0.16402 v 0.33867 0.33867 z m 1.4478,-0.0254 -0.55033,0.0254 v -0.67734 -0.67733 l 0.55033,0.0254 0.55034,0.0254 -0.46567,0.0705 -0.46567,0.0705 v 0.22864 0.22864 l 0.21167,0.0854 0.21167,0.0854 -0.21167,0.0134 -0.21167,0.0134 v 0.15808 0.15809 l 0.46567,0.0705 0.46567,0.0705 z m 0.92562,-0.35562 -0.0705,0.46566 -0.02,-0.762 -0.02,-0.762 0.40986,0.46567 0.40986,0.46567 h 0.0815 0.0815 l 0.0705,-0.46567 0.0705,-0.46567 0.02,0.762 0.02,0.762 -0.40986,-0.46566 -0.40986,-0.46567 h -0.0815 -0.0815 z m 2.21301,0.35794 -0.45971,0.0231 -0.18463,-0.381 -0.18464,-0.381 0.22765,0.27987 0.22764,0.27988 0.4167,0.0781 0.4167,0.0781 z m 1.3595,-0.22389 -0.07,0.33161 -0.0935,-0.4573 -0.0935,-0.45731 0.1323,0.034 0.13231,0.034 0.28381,-0.33867 0.28382,-0.33867 -0.25266,0.43039 -0.25265,0.4304 z M 98.753168,155.13 l -9.482667,-4e-5 4.795689,-0.0477 4.79569,-0.0477 4.68698,0.0478 4.68698,0.0478 z m 19.812002,0.0791 h -0.0847 v -0.0847 -0.0847 h 0.0847 0.0847 v 0.0847 0.0847 z m 2.5103,-0.48461 -0.27937,0.23061 0.0829,-0.254 0.0829,-0.254 0.45261,-0.0536 0.45261,-0.0536 v 0.17527 0.17527 l -0.25616,-0.0983 -0.25615,-0.0983 z m 1.39436,-0.0234 h -0.0747 l -0.12083,-0.1955 -0.12082,-0.1955 0.1955,0.12083 0.19549,0.12082 v 0.0747 0.0747 z m -33.029996,-1.35467 h -0.254 v -1.35467 -1.35466 h 0.897467 0.897466 l 0.2032,0.2032 0.2032,0.2032 v 0.46572 0.46571 l -0.285318,0.15968 -0.285318,0.15967 0.298848,0.4561 0.298849,0.4561 -0.111226,0.11123 -0.111225,0.11122 -0.452638,-0.55078 -0.452638,-0.55077 -0.296334,0.002 -0.296333,0.002 v 0.508 0.508 z m 0.719667,-1.35726 0.465666,-0.003 0.228328,-0.1447 0.228329,-0.1447 -0.0604,-0.31837 -0.0604,-0.31838 -0.633593,-0.0526 -0.633591,-0.0525 v 0.51822 0.51822 l 0.465667,-0.003 z m 3.005666,1.35726 h -0.931333 v -1.35467 -1.35466 h 0.931333 0.931334 v 0.16933 0.16933 h -0.773777 -0.773778 l 0.05411,0.381 0.05411,0.381 0.635,0.0526 0.635,0.0525 v 0.15911 0.15912 H 93.249833 92.5725 v 0.42333 0.42333 h 0.762 0.762 v 0.16934 0.16933 z m 2.630787,0 h -0.44939 l -0.328433,-0.24016 -0.328432,-0.24015 0.09557,-0.0956 0.09557,-0.0956 0.525592,0.19838 0.525592,0.19839 0.274751,-0.22802 0.274751,-0.22802 -0.183972,-0.18498 -0.183974,-0.18498 -0.531537,-0.18062 -0.531539,-0.18063 -0.165281,-0.26202 -0.16528,-0.26203 0.106863,-0.27848 0.106863,-0.27848 0.390552,-0.17795 0.390552,-0.17794 0.471057,0.17909 0.471056,0.1791 -0.100851,0.16318 -0.10085,0.16318 -0.446666,-0.16983 -0.446666,-0.16982 -0.259749,0.25975 -0.25975,0.25975 0.162077,0.15009 0.162076,0.15008 0.626909,0.20026 0.626909,0.20025 0.10802,0.34034 0.108021,0.34034 -0.295507,0.32653 -0.295509,0.32653 z m 1.856547,0 h -0.169333 v -1.35467 -1.35466 h 0.749904 0.749905 l 0.266095,0.26609 0.266096,0.2661 v 0.31447 0.31448 l -0.266096,0.26609 -0.266095,0.2661 h -0.580571 -0.580572 v 0.508 0.508 z m 0.6566,-1.35467 h 0.487265 l 0.210802,-0.254 0.210801,-0.254 -0.210801,-0.254 -0.210802,-0.254 h -0.487265 -0.487267 v 0.508 0.508 z m 3.038199,1.35467 h -0.49286 l -0.41563,-0.41564 -0.41564,-0.41563 v -0.50626 -0.50625 l 0.40139,-0.46664 0.40139,-0.46665 h 0.63642 0.63643 l 0.31685,0.3913 0.31685,0.39129 v 0.64628 0.64629 l -0.44617,0.35095 -0.44617,0.35096 z m 0.005,-0.33867 h 0.28889 l 0.37634,-0.2636 0.37635,-0.2636 v -0.46603 -0.46604 l -0.21167,-0.27465 -0.21166,-0.27466 -0.254,-0.0318 -0.254,-0.0318 -0.29243,0.0201 -0.29243,0.0201 -0.27195,0.41505 -0.27194,0.41504 0.1098,0.34595 0.1098,0.34596 0.25501,0.255 0.255,0.255 h 0.28889 z m 2.38817,0.33867 h -0.16126 v -1.35467 -1.35466 l 0.21167,0.008 0.21167,0.008 0.71966,0.95497 0.71967,0.95496 v -0.96311 -0.96311 h 0.254 0.254 v 1.26 1.26001 l -0.1642,0.10149 -0.16421,0.10148 -0.80946,-1.04397 -0.80946,-1.04397 -0.0504,1.03715 -0.0504,1.03714 h -0.16126 z m 3.90886,0 h -0.44939 l -0.32843,-0.24016 -0.32843,-0.24015 0.0956,-0.0956 0.0956,-0.0956 0.5256,0.19838 0.52559,0.19839 0.27475,-0.22802 0.27475,-0.22802 -0.18397,-0.18498 -0.18398,-0.18498 -0.53153,-0.18062 -0.53154,-0.18063 -0.16528,-0.26202 -0.16528,-0.26203 0.10686,-0.27848 0.10686,-0.27848 0.39055,-0.17795 0.39056,-0.17794 0.47105,0.17909 0.47106,0.1791 -0.10085,0.16318 -0.10085,0.16318 -0.44667,-0.16983 -0.44666,-0.16982 -0.25975,0.25975 -0.25975,0.25975 0.16207,0.15009 0.16208,0.15008 0.62691,0.20026 0.62691,0.20025 0.10802,0.34034 0.10802,0.34034 -0.29551,0.32653 -0.2955,0.32653 h -0.44939 z m 1.85656,0 h -0.16934 v -1.35467 -1.35466 h 0.16934 0.16933 v 1.35466 1.35467 z m 1.78913,0 h -0.77313 v -1.36312 -1.36311 l 0.97366,0.0508 0.97367,0.0508 v 0.62062 0.62063 l 0.127,0.12726 0.127,0.12727 v 0.38915 0.38916 l -0.32754,0.17529 -0.32753,0.17529 z m 0.22875,-0.34126 0.43745,-0.003 0.23634,-0.14965 0.23634,-0.14965 -0.10403,-0.27109 -0.10402,-0.27109 h -0.68265 -0.68265 v 0.31044 0.31045 l 0.11289,0.11288 0.11289,0.11289 0.43744,-0.003 z m -0.14085,-1.18274 h 0.2966 l 0.26785,-0.10278 0.26785,-0.10279 v -0.32055 -0.32055 h -0.67733 -0.67734 v 0.31045 0.31044 l 0.11289,0.11289 0.11289,0.11289 z m 2.3563,1.524 h -0.16933 v -1.35467 -1.35466 h 0.16933 0.16933 v 1.35466 1.35467 z m 1.94733,0 h -0.93133 v -1.35467 -1.35466 h 0.1616 0.16159 l 0.0501,1.143 0.0501,1.143 0.71967,0.0521 0.71967,0.0521 v 0.15959 0.1596 z m 1.778,0 h -0.16933 v -1.35467 -1.35466 h 0.16933 0.16934 v 1.35466 1.35467 z m 1.86267,0 h -0.16933 v -1.18533 -1.18534 h -0.42334 -0.42333 v -0.16933 -0.16933 h 1.10067 1.10066 v 0.16933 0.16933 h -0.508 -0.508 v 1.18534 1.18533 z m 2.87867,0 h -0.16934 v -0.51982 -0.51983 l -0.52432,-0.76207 -0.52432,-0.76208 0.11556,-0.1151 0.11557,-0.1151 0.28176,0.36092 0.28175,0.36093 0.17966,0.30352 0.17966,0.30352 0.38448,-0.62211 0.38449,-0.62211 h 0.24832 0.24833 l -0.51614,0.75017 -0.51613,0.75018 v 0.60449 0.60449 z M 89.439834,148.9438 h -0.254 v -1.35466 -1.35467 h 0.254 0.254 v 0.59267 0.59266 h 0.677333 0.677334 v -0.59266 -0.59267 h 0.169333 0.169333 v 1.35467 1.35466 h -0.169333 -0.169333 v -0.59266 -0.59267 h -0.677334 -0.677333 v 0.59267 0.59266 z m 3.81,0 h -1.016 v -1.35466 -1.35467 h 1.016 1.016 v 0.16933 0.16934 h -0.762 -0.762 v 0.42333 0.42333 h 0.677333 0.677334 v 0.16934 0.16933 h -0.677334 -0.677333 v 0.42333 0.42334 h 0.762 0.762 v 0.16933 0.16933 z m 1.69165,0 h -0.1591 l 0.588393,-1.29114 0.588391,-1.29114 v -0.0635 -0.0635 h 0.223398 0.223398 l 0.53902,1.22767 0.53902,1.22766 -3.38e-4,0.127 -4.98e-4,0.127 h -0.157922 -0.157922 l -0.10749,-0.33866 -0.107489,-0.33867 h -0.74463 -0.744631 l -0.18125,0.33867 -0.181249,0.33866 z m 1.187017,-1.016 h 0.508 l -0.006,-0.21166 -0.006,-0.21167 -0.227912,-0.41144 -0.227913,-0.41143 -0.274088,0.53003 -0.274098,0.53002 v 0.0931 0.0931 z m 2.963333,1.016 h -0.931333 v -1.35466 -1.35467 h 0.161597 0.161596 l 0.05007,1.143 0.05007,1.143 0.719667,0.0521 0.719669,0.0521 v 0.1596 0.15959 z m 2.116666,0 h -0.16933 v -1.18533 -1.18533 h -0.508 -0.508 v -0.16934 -0.16933 h 1.10066 1.10067 v 0.16933 0.16934 h -0.42333 -0.42334 v 1.18533 1.18533 z m 1.86267,0 h -0.16934 v -1.35466 -1.35467 h 0.16934 0.16933 v 0.59267 0.59266 h 0.762 0.762 v -0.59266 -0.59267 h 0.16933 0.16934 v 1.35467 1.35466 h -0.16934 -0.16933 v -0.59266 -0.59267 h -0.762 -0.762 v 0.59267 0.59266 z m -12.574686,-4.40266 h -0.574282 l -0.368185,-0.39192 -0.368183,-0.39191 v -0.59457 -0.59457 l 0.391913,-0.36818 0.391914,-0.36819 h 0.52557 0.525572 l 0.266876,0.10241 0.266876,0.10241 -0.08372,0.13548 -0.08373,0.13547 -0.654248,-0.0877 -0.654248,-0.0878 -0.277053,0.39555 -0.277053,0.39555 v 0.35941 0.35941 l 0.309666,0.28025 0.309667,0.28024 h 0.4316 0.431599 l 0.204646,-0.24658 0.204644,-0.24658 -0.109239,-0.17676 -0.109236,-0.17675 h -0.328675 -0.328672 v -0.16933 -0.16933 h 0.592666 0.592667 v 0.58671 0.5867 l -0.327535,0.1753 -0.327534,0.17529 z m 2.838017,0 h -0.931334 v -1.35467 -1.35467 h 0.169334 0.169333 v 1.18534 1.18533 h 0.762 0.762 v 0.16933 0.16934 z m 2.654559,0 h -0.500373 l -0.395912,-0.32059 -0.395911,-0.32059 v -0.71349 -0.71349 l 0.395911,-0.32059 0.395912,-0.32059 h 0.500373 0.500372 l 0.30431,0.16287 0.304311,0.16286 0.213101,0.51447 0.213101,0.51447 -0.213101,0.51447 -0.213101,0.51447 -0.304311,0.16286 -0.30431,0.16287 z m -0.0014,-0.34382 0.282486,0.005 0.28082,-0.10776 0.280821,-0.10776 0.152425,-0.40091 0.152426,-0.40091 -0.194427,-0.42672 -0.194429,-0.42673 -0.406789,-0.10209 -0.40679,-0.1021 -0.410846,0.18719 -0.410901,0.1872 v 0.67255 0.67254 l 0.296333,0.1726 0.296334,0.1726 0.282483,0.005 z m 3.070263,0.34382 h -0.897467 v -1.36352 -1.36352 l 0.87156,0.0512 0.871559,0.0512 0.185535,0.29575 0.18554,0.29575 -0.20285,0.32481 -0.202843,0.32481 0.246423,0.20451 0.2464,0.2045 v 0.28407 0.28407 l -0.20319,0.2032 -0.2032,0.2032 z m 0.160866,-0.37127 0.719667,-0.0521 v -0.33866 -0.33867 l -0.719667,-0.0521 -0.719666,-0.0521 v 0.44281 0.4428 z m -0.08467,-1.18484 0.635,-0.0526 v -0.33867 -0.33866 l -0.635,-0.0526 -0.635,-0.0526 v 0.44377 0.44378 z m 1.903231,1.55611 h -0.15918 l 0.14666,-0.381 0.14667,-0.381 0.43249,-0.97367 0.43249,-0.97367 0.22099,0.003 0.22098,0.003 0.54848,1.29729 0.54848,1.29728 -0.10132,0.0969 -0.10132,0.0969 -0.25615,-0.381 -0.25614,-0.381 h -0.65073 -0.65072 l -0.18125,0.33867 -0.18124,0.33867 z m 1.1871,-1.016 h 0.54424 l -0.122,-0.29634 -0.122,-0.29633 -0.0852,-0.29633 -0.0852,-0.29634 h -0.12984 -0.12983 l -0.0852,0.29634 -0.0852,0.29633 -0.122,0.29633 -0.12199,0.29634 z m 2.96333,1.016 h -0.93133 v -1.35467 -1.35467 h 0.16933 0.16934 v 1.18534 1.18533 h 0.762 0.762 v 0.16933 0.16934 z"
         id="path119" /><path
         style="fill:#1f2b37;stroke-width:0.169333"
         d="m 109.75984,155.71714 h -0.0847 v -0.0847 -0.0847 h 0.0847 0.0847 v 0.0847 0.0847 z m 0.59266,0 h -0.22578 l 0.11289,-0.11289 0.11289,-0.11289 0.11289,0.11289 0.11289,0.11289 z m 0.79684,-0.29634 -0.0734,0.381 v -0.762 -0.762 l 0.0734,0.381 0.0734,0.381 z m 1.5289,-0.27158 -0.0675,0.65258 -0.0285,-0.71966 -0.0285,-0.71967 h 0.41333 0.41335 l 0.0895,0.14487 0.0895,0.14487 -0.40694,-0.0778 -0.40694,-0.0778 z m 0.80693,0.56792 h -0.0847 v -0.0847 -0.0847 h 0.0847 0.0847 v 0.0847 0.0847 z m 0.67733,0 h -0.0847 v -0.0847 -0.0847 h 0.0847 0.0847 v 0.0847 0.0847 z m 0.508,0 h -0.0847 v -0.0847 -0.0847 h 0.0847 0.0847 v 0.0847 0.0847 z m 1.86267,0 h -0.0847 v -0.0847 -0.0847 h 0.0847 0.0847 v 0.0847 0.0847 z m 0.59267,0 h -0.22578 l 0.11289,-0.11289 0.11289,-0.11289 0.11289,0.11289 0.11288,0.11289 z m 1.143,-0.0231 -0.46567,0.0231 v -0.67734 -0.67733 l 0.46567,0.0231 0.46566,0.0231 -0.381,0.0734 -0.381,0.0734 v 0.48444 0.48445 l 0.381,0.0734 0.381,0.0734 z m 0.95514,0.0231 h -0.0661 v -0.68733 -0.68733 l 0.13653,0.0844 0.13653,0.0844 -0.0704,0.60295 -0.0704,0.60295 z m 1.05526,0 h -0.0639 l -0.2324,-0.28651 -0.2324,-0.2865 0.2007,0.12038 0.2007,0.12039 0.0685,-0.55355 0.0685,-0.55355 0.0271,0.71967 0.0271,0.71967 z m 0.92059,0 h -0.15934 l -0.10346,-0.1674 -0.10345,-0.16739 0.26279,0.10084 0.2628,0.10085 v 0.0666 0.0666 z m 0.49801,0 h -0.22578 l 0.11289,-0.11289 0.11289,-0.11289 0.11289,0.11289 0.11288,0.11289 z m 1.08092,0 h -0.0649 v -0.32868 -0.32867 l 0.14487,-0.0895 0.14487,-0.0895 -0.0799,0.41821 -0.0799,0.41821 z m -7.05524,-0.19471 -0.037,-0.0254 -0.46566,-0.0705 -0.46567,-0.0705 v -0.11575 -0.11575 h 0.42146 0.42146 l 0.0812,0.21167 0.0812,0.21166 z m -6.28471,-0.18982 -0.10231,0.1023 0.0134,-0.32455 0.0134,-0.32456 0.0889,0.22225 0.0889,0.22225 -0.10231,0.10231 z m 6.77333,0 -0.1023,0.1023 0.0134,-0.32455 0.0134,-0.32456 0.0889,0.22225 0.0889,0.22225 -0.10231,0.10231 z m -5.77497,-0.12347 h -0.0847 v -0.0847 -0.0847 h 0.0847 0.0847 v 0.0847 0.0847 z m 1.524,0 h -0.0847 v -0.0847 -0.0847 h 0.0847 0.0847 v 0.0847 0.0847 z m 1.35467,0 h -0.0847 v -0.0847 -0.0847 h 0.0847 0.0847 v 0.0847 0.0847 z m 3.89466,0 h -0.0847 v -0.0847 -0.0847 h 0.0847 0.0847 v 0.0847 0.0847 z m -7.25184,-0.64762 -0.4785,0.0976 0.16418,-0.16418 0.16419,-0.16419 0.31432,0.0666 0.31432,0.0666 z m 5.24806,0.0832 -0.11288,0.11289 v -0.22578 -0.22577 l 0.11288,0.11288 0.11289,0.11289 z m 1.52528,-0.0832 -0.47851,0.0976 0.16419,-0.16418 0.16418,-0.16419 0.31432,0.0666 0.31432,0.0666 z m 5.73783,0.13962 h -0.0747 l -0.12083,-0.1955 -0.12082,-0.1955 0.1955,0.12083 0.19549,0.12082 v 0.0747 0.0747 z m -1.0401,-0.18271 -0.32456,-0.0134 0.22225,-0.0889 0.22225,-0.0889 0.10231,0.10231 0.1023,0.1023 z m 1.87677,0.0134 h -0.0847 v -0.0847 -0.0847 h 0.0847 0.0847 v 0.0847 0.0847 z M 91.334183,153.3465 h -0.08624 l -0.427455,-0.508 -0.427453,-0.508 h -0.423019 -0.423018 l -0.07054,0.46567 -0.07054,0.46566 -0.02537,-1.32118 -0.02537,-1.32118 0.885719,0.0512 0.88572,0.0512 0.169201,0.48339 0.169203,0.48339 -0.3617,0.29289 -0.361699,0.29289 0.339407,0.53605 0.339406,0.53606 z m -1.090016,-1.38726 0.719667,-0.0521 0.05358,-0.46567 0.05358,-0.46567 H 90.297747 89.5245 v 0.51774 0.51774 z m 3.81,1.35594 -0.04233,-0.0313 -0.889,-0.0622 -0.889,-0.0622 v -1.26115 -1.26115 h 0.931333 0.931334 v 0.16933 0.16933 H 93.23806 92.379616 l 0.05411,0.381 0.05411,0.381 0.762,0.0737 0.762,0.0737 -0.762,0.0956 -0.762,0.0956 v 0.42333 0.42334 l 0.804333,0.0516 0.804334,0.0516 v 0.16005 0.16006 z m 1.704466,0.0206 -0.222799,-0.0107 -0.381,-0.15314 -0.381,-0.15314 v -0.0869 -0.0869 l 0.736397,0.10093 0.736399,0.10094 0.103176,-0.26888 0.103177,-0.26887 -0.369252,-0.25863 -0.369252,-0.25864 h -0.280255 -0.280255 l -0.214964,-0.25901 -0.214962,-0.25902 0.190599,-0.41831 0.190598,-0.41832 h 0.497781 0.497782 l 0.266876,0.10241 0.266876,0.10241 -0.09397,0.15204 -0.09397,0.15205 -0.334786,-0.17917 -0.334787,-0.17917 -0.341899,0.10851 -0.341901,0.10852 0.05403,0.28186 0.05403,0.28187 0.505937,0.16933 0.505938,0.16934 0.211666,0.13699 0.211667,0.13699 v 0.40739 0.40738 l -0.327535,0.17529 -0.327534,0.17529 z m 1.893868,0.0107 h -0.169333 v -1.35467 -1.35466 h 0.728133 0.728133 l 0.2032,0.2032 0.2032,0.2032 v 0.44026 0.44027 l -0.2032,0.2032 -0.2032,0.2032 h -0.5588 -0.5588 v 0.508 0.508 z m 0.560302,-1.18533 h 0.390969 l 0.304778,-0.22286 0.304778,-0.22286 -0.06216,-0.32748 -0.06215,-0.32747 -0.633592,-0.0526 -0.633592,-0.0525 v 0.60289 0.60289 z m 3.419027,1.09525 -0.508,0.0803 -0.36168,-0.18169 -0.36168,-0.18168 -0.18865,-0.41404 -0.18865,-0.41405 v -0.30786 -0.30786 l 0.35095,-0.44617 0.35096,-0.44617 h 0.65845 0.65845 l 0.34526,0.37059 0.34526,0.3706 v 0.54198 0.54197 l -0.29633,0.35692 -0.29634,0.35692 z m -0.225,-0.24859 h 0.36767 l 0.30967,-0.28024 0.30966,-0.28025 v -0.56251 -0.56252 l -0.4054,-0.26563 -0.4054,-0.26563 -0.44573,0.11187 -0.44573,0.11187 -0.16487,0.30806 -0.16487,0.30805 v 0.3498 0.3498 l 0.33867,0.33867 0.33867,0.33866 z m 4.31618,0.33867 h -0.0575 l -0.8315,-1.05833 -0.83151,-1.05834 -0.0508,0.97367 -0.0508,0.97367 h -0.16088 -0.16088 v -1.27 -1.27 h 0.16385 0.16384 l 0.70317,0.93133 0.70316,0.93133 h 0.14054 0.14054 l 0.0611,-0.97366 0.0611,-0.97367 0.032,1.397 0.032,1.397 z m 1.88896,-0.0107 -0.2228,-0.0107 -0.381,-0.15314 -0.381,-0.15314 v -0.0869 -0.0869 l 0.7364,0.10093 0.73639,0.10094 0.10318,-0.26888 0.10318,-0.26887 -0.36926,-0.25863 -0.36925,-0.25864 h -0.28025 -0.28026 l -0.21496,-0.25901 -0.21496,-0.25902 0.1906,-0.41831 0.19059,-0.41832 h 0.49778 0.49779 l 0.26687,0.10241 0.26688,0.10241 -0.094,0.15204 -0.094,0.15205 -0.33479,-0.17917 -0.33478,-0.17917 -0.3419,0.10851 -0.34191,0.10852 0.054,0.28186 0.054,0.28187 0.50593,0.16933 0.50594,0.16934 0.21167,0.13699 0.21167,0.13699 v 0.40739 0.40738 l -0.32754,0.17529 -0.32753,0.17529 -0.2228,-0.0107 z m 1.89387,0.0107 h -0.16934 v -1.35467 -1.35466 h 0.16934 0.16933 v 1.35466 1.35467 z m 7.06966,-0.0313 -0.0423,-0.0313 -0.889,-0.0622 -0.889,-0.0622 v -1.26115 -1.26115 h 0.16933 0.16934 v 1.18533 1.18533 h 0.762 0.762 v 0.16934 0.16933 z m 2.88609,-1.13887 -0.0498,1.20047 -0.127,-0.12803 -0.127,-0.12803 v -1.07244 -1.07245 h -0.42334 -0.42333 v -0.16933 -0.16933 h 1.10067 1.10066 v 0.16933 0.16933 h -0.50058 -0.50058 z m -7.79675,0.96697 -0.97367,0.0508 v -1.28773 -1.28773 l 0.78699,0.0516 0.78698,0.0516 0.18545,0.29575 0.18544,0.29575 -0.20246,0.32419 -0.20246,0.3242 0.25737,0.0988 0.25737,0.0988 -0.0537,0.46663 -0.0537,0.46663 z m -0.0969,-0.16745 0.73192,-0.0527 0.0533,-0.37502 0.0533,-0.37501 -0.42094,-0.10565 -0.42093,-0.10565 -0.30973,0.0588 -0.30972,0.0588 -0.0546,0.47455 -0.0546,0.47455 z m -0.0861,-1.18471 0.6459,-0.0533 0.0604,-0.31837 0.0604,-0.31838 -0.21468,-0.13268 -0.21468,-0.13268 -0.43698,0.0456 -0.43698,0.0456 -0.0546,0.45876 -0.0546,0.45876 z m 2.21113,0.84019 -0.0662,0.63052 0.001,-1.35466 0.001,-1.35467 0.065,0.72414 0.065,0.72415 -0.0661,0.63052 z m 3.77158,0.54586 h -0.16933 v -1.27 -1.27 h 0.16933 0.16934 v 1.27 1.27 z m 4.74134,0 h -0.16934 v -0.42384 -0.42383 l -0.49785,-0.79987 -0.49785,-0.79987 0.0944,-0.0886 0.0944,-0.0886 0.1918,0.31641 0.19181,0.31641 0.27344,0.35113 0.27345,0.35114 0.40389,-0.62312 0.40389,-0.62311 0.14309,-0.002 0.14309,-0.002 -0.43943,0.74982 -0.43942,0.74982 v 0.52018 0.52018 z m -32.727319,-4.78367 -0.06642,0.635 v -1.43933 -1.43934 l 0.06695,0.64384 0.06695,0.64384 0.793586,-0.0512 0.793584,-0.0512 0.104709,-0.59267 0.104709,-0.59267 -0.0062,1.43934 -0.0062,1.43933 -0.06642,-0.635 -0.06641,-0.635 h -0.826223 -0.826223 z m 3.85598,0.55033 h -0.931334 v -1.35466 -1.35467 h 0.931334 0.931333 v 0.16933 0.16934 h -0.846667 -0.846666 v 0.42333 0.42333 h 0.762 0.762 v 0.16934 0.16933 h -0.762 -0.762 v 0.42333 0.42334 h 0.846666 0.846667 v 0.16933 0.16933 z m 1.614884,0 h -0.151201 l 0.609231,-1.35466 0.609231,-1.35467 h 0.14487 0.144868 l 0.588393,1.29114 0.588391,1.29114 v 0.0635 0.0635 H 97.333584 97.184 l -0.08856,-0.33866 -0.08856,-0.33867 H 96.234984 95.46309 l -0.18125,0.33867 -0.181249,0.33866 z m 1.246152,-1.016 h 0.611269 l -0.219849,-0.53878 -0.219848,-0.53879 -0.18241,-0.0608 -0.182411,-0.0608 -0.08701,0.30326 -0.08701,0.30326 -0.121997,0.29633 -0.121994,0.29633 z m 2.896297,1.016 h -0.931333 v -1.35466 -1.35467 h 0.169333 0.169334 v 1.18533 1.18534 h 0.762 0.762002 v 0.16933 0.16933 z m 2.073066,-1.143 -0.0584,1.22767 -0.0336,-1.22767 -0.0336,-1.22766 h -0.42334 -0.42333 v -0.16934 -0.16933 h 1.016 1.016 v 0.16933 0.16934 h -0.50058 -0.50058 z m 1.90627,1.143 h -0.16934 v -1.35466 -1.35467 h 0.16934 0.16933 v 0.59267 0.59266 h 0.762 0.762 v -0.59266 -0.59267 h 0.16933 0.16934 v 1.35467 1.35466 h -0.16934 -0.16933 v -0.59266 -0.59267 h -0.762 -0.762 v 0.59267 0.59266 z m -12.552246,-4.40266 h -0.631176 l -0.350957,-0.44617 -0.350957,-0.44617 v -0.49286 -0.49286 l 0.425716,-0.42572 0.425716,-0.42572 0.619528,0.0524 0.619528,0.0524 0.06659,0.20283 0.06659,0.20284 -0.607665,-0.0986 -0.607664,-0.0986 -0.334835,0.30303 -0.334836,0.30302 v 0.45551 0.45551 l 0.296333,0.25451 0.296333,0.2545 0.254,0.0882 0.254,0.0882 0.381,-0.14162 0.381,-0.14163 v -0.34412 -0.34413 h -0.423333 -0.423333 v -0.158 -0.15801 l 0.508,0.0144 0.508,0.0145 v 0.53303 0.53303 l -0.2032,0.2032 -0.2032,0.2032 h -0.631177 z m 2.815577,0 h -0.931334 v -1.35467 -1.35467 h 0.169334 0.169333 v 1.18534 1.18533 h 0.762 0.762 v 0.16933 0.16934 z m 2.694281,0 h -0.577614 l -0.338667,-0.33867 -0.338667,-0.33867 v -0.67073 -0.67074 l 0.370596,-0.34526 0.370597,-0.34527 h 0.53122 0.531219 l 0.355632,0.381 0.355631,0.381 0.108847,0.43886 0.108848,0.43885 -0.450014,0.53482 -0.450015,0.53481 z m 0.06815,-0.37174 0.61359,-0.0516 0.25932,-0.46566 0.259321,-0.46567 -0.259321,-0.46567 -0.25932,-0.46566 -0.61359,-0.0516 -0.613589,-0.0516 -0.27009,0.38561 -0.27009,0.38561 v 0.26331 0.26331 l 0.27009,0.38561 0.27009,0.38561 z m 2.836696,0.37174 h -0.773132 v -1.36352 -1.36352 l 0.87156,0.0512 0.871559,0.0512 0.185535,0.29575 0.18554,0.29575 -0.20285,0.32481 -0.202843,0.32481 0.246413,0.20451 0.24641,0.2045 v 0.31198 0.31197 l -0.32753,0.1753 -0.32753,0.17529 z m 0.285201,-0.37127 0.719667,-0.0521 v -0.33866 -0.33867 l -0.719667,-0.0521 -0.719666,-0.0521 v 0.44281 0.4428 z m -0.08467,-1.18484 0.635,-0.0526 v -0.33867 -0.33866 l -0.635,-0.0526 -0.635,-0.0526 v 0.44377 0.44378 z m 2.111671,1.25977 -0.18375,0.381 -0.0115,-0.18979 -0.0115,-0.18979 0.53321,-1.20721 0.53321,-1.20721 h 0.14412 0.14412 v 0.0635 0.0635 l 0.5884,1.29114 0.58839,1.29114 h -0.18091 -0.18091 l -0.0886,-0.33867 -0.0886,-0.33867 h -0.80104 -0.80104 z m 1.06059,-0.71966 h 0.58993 l -0.28263,-0.59267 -0.28262,-0.59267 h -0.11079 -0.11079 l -0.19651,0.4313 -0.19652,0.43131 v 0.16136 0.16137 z m 2.8814,1.016 h -0.93133 v -1.35467 -1.35467 h 0.16933 0.16934 v 1.18534 1.18533 h 0.762 0.762 v 0.16933 0.16934 z"
         id="path117" /></g></g></svg>
