<?xml version="1.0" encoding="UTF-8" standalone="no"?>
<!-- Created with Inkscape (http://www.inkscape.org/) -->

<svg
   viewBox="0 0 94.191666 28.222219"
   version="1.1"
   id="svg5"
   xml:space="preserve"
   inkscape:version="1.2.2 (b0a8486541, 2022-12-01)"
   sodipodi:docname="2025-10-02-plattform-respekt.svg"
   xmlns:inkscape="http://www.inkscape.org/namespaces/inkscape"
   xmlns:sodipodi="http://sodipodi.sourceforge.net/DTD/sodipodi-0.dtd"
   xmlns="http://www.w3.org/2000/svg"
   xmlns:svg="http://www.w3.org/2000/svg"><sodipodi:namedview
     id="namedview7"
     pagecolor="#ffffff"
     bordercolor="#000000"
     borderopacity="0.25"
     inkscape:showpageshadow="2"
     inkscape:pageopacity="0.0"
     inkscape:pagecheckerboard="0"
     inkscape:deskcolor="#d1d1d1"
     inkscape:document-units="mm"
     showgrid="false"
     inkscape:zoom="0.77593294"
     inkscape:cx="233.91197"
     inkscape:cy="231.33442"
     inkscape:window-width="1920"
     inkscape:window-height="1052"
     inkscape:window-x="0"
     inkscape:window-y="0"
     inkscape:window-maximized="1"
     inkscape:current-layer="layer1" /><defs
     id="defs2" /><g
     inkscape:label="Ebene 1"
     inkscape:groupmode="layer"
     id="layer1"
     transform="translate(-96.630346,-28.00082)"><g
       id="g295"
       transform="translate(47.397245,-106.72905)"><path
         style="fill:#fdfdfc;stroke-width:0.352778"
         d="m 49.233101,148.84098 v -14.11111 h 47.095833 47.095836 v 6.87917 6.87916 h -3.88056 -3.88055 v 0.88195 c 0,0.79375 0.14111,0.88194 1.41111,0.88194 h 1.41111 v 3.35139 3.35139 h 1.05833 1.05833 v -3.35139 -3.35139 h 1.41112 1.41111 v 6.35 6.35 H 96.328934 49.233101 Z m 11.581386,12.34423 c 0.839971,-0.38118 2.515679,-1.68739 3.723796,-2.90267 3.039096,-3.05713 3.913523,-5.40091 3.917341,-10.49989 0.0025,-3.37374 -0.08825,-3.88965 -1.01762,-5.78344 -1.216583,-2.47905 -3.030725,-4.37837 -5.576459,-5.83828 -2.212405,-1.26875 -3.715,-1.3575 -5.810312,-0.34318 -4.930913,2.38701 -7.443831,10.09452 -5.412846,16.60204 0.753606,2.41465 1.74467,4.04749 4.239158,6.98428 2.26795,2.67008 3.297455,2.97895 5.936942,1.78114 z m -5.889979,-5.15393 c -0.910694,-0.77952 -1.98497,-2.25576 -2.759746,-3.79236 -1.654439,-3.28123 -1.777122,-6.0798 -0.398062,-9.08042 1.656127,-3.60347 4.306194,-5.5995 7.519923,-5.66401 1.812264,-0.0364 2.996375,0.78225 4.675851,3.2326 2.169726,3.16563 2.565006,7.37323 1.011462,10.76661 -1.923997,4.20257 -3.79661,5.81044 -6.769697,5.81263 -1.54623,0.001 -1.990634,-0.17163 -3.279731,-1.27505 z m 7.492901,-2.17883 c 0.09524,-0.15411 -0.107769,-0.90817 -0.451139,-1.67569 -0.343371,-0.76753 -0.896878,-2.21672 -1.230018,-3.22043 -0.333139,-1.00372 -0.830181,-2.01123 -1.104539,-2.23893 -0.41656,-0.34571 -0.297006,-0.60434 0.724889,-1.56811 1.61754,-1.52554 1.64327,-2.76565 0.07719,-3.72051 -1.962487,-1.19655 -5.98802,-0.77307 -6.414214,0.67477 -0.334027,1.13473 -0.970667,9.23487 -0.767449,9.76445 0.143415,0.37374 0.571696,0.51091 1.358405,0.4351 1.146397,-0.11048 1.149345,-0.11582 1.325342,-2.40062 0.190979,-2.4793 0.634207,-2.91837 1.940277,-1.92205 0.584505,0.44588 0.710715,0.97442 0.735627,3.08064 0.01654,1.39832 0.05623,2.66147 0.08819,2.80699 0.07793,0.35476 3.497409,0.3404 3.717431,-0.0156 z m -5.511391,-8.92028 c -0.808636,-0.47099 -0.789883,-1.61848 0.03365,-2.05922 0.468585,-0.25078 0.864011,-0.19922 1.411111,0.18398 0.943137,0.6606 0.974,1.41142 0.07773,1.89108 -0.812105,0.43463 -0.747938,0.4353 -1.522496,-0.0158 z m 7.586181,5.23173 c 0.317507,-0.24254 0.678064,-0.85963 0.801238,-1.37132 0.171709,-0.71331 0.04462,-1.05595 -0.544775,-1.46878 -1.029536,-0.72112 -2.736482,-0.15545 -3.027288,1.00322 -0.25026,0.99711 0.03246,1.52028 1.041576,1.92743 1.027914,0.41474 1.070692,0.4125 1.729249,-0.0905 z m -1.147987,-1.22728 c 0.291042,-0.11079 0.639597,-0.37147 0.774568,-0.57929 0.317067,-0.48821 0.782135,-0.0373 0.47466,0.46018 -0.127894,0.20694 -0.580353,0.36372 -1.005465,0.3484 -0.526024,-0.019 -0.603892,-0.0922 -0.243763,-0.22929 z m 11.641667,-1.15397 c 0,-7.76111 -0.12451,-11.99445 -0.352778,-11.99445 -0.228268,0 -0.352778,4.23334 -0.352778,11.99445 0,7.76111 0.12451,11.99444 0.352778,11.99444 0.228268,0 0.352778,-4.23333 0.352778,-11.99444 z m 30.850991,9.0257 c 3.07579,-1.28515 1.98865,-4.79237 -1.48549,-4.79237 -0.55463,0 -1.31658,-0.23812 -1.69321,-0.52917 -0.67685,-0.52303 -0.67661,-0.53548 0.0208,-1.07406 0.39974,-0.30871 1.04961,-0.46162 1.49931,-0.35278 0.43656,0.10567 1.16911,0.28331 1.62788,0.39476 0.59337,0.14414 0.90218,0.0253 1.0699,-0.41177 0.33479,-0.87246 -0.19644,-1.25523 -2.02874,-1.46176 -1.97739,-0.22288 -3.21271,0.0694 -4.1176,0.97431 -1.58058,1.58058 -0.30257,3.58432 2.56248,4.01759 2.09561,0.31691 2.64949,0.6982 2.05492,1.41461 -0.54445,0.65602 -2.43508,0.72748 -3.72291,0.14071 -0.75485,-0.34393 -1.01187,-0.31505 -1.49491,0.16799 -0.698103,0.6981 -0.559165,0.8716 1.20051,1.49913 1.75391,0.62548 3.03208,0.62911 4.5071,0.0128 z m -21.325991,-1.44098 c 0,-1.41544 0.08683,-1.5875 0.801119,-1.5875 0.585812,0 1.034186,0.42665 1.668325,1.5875 0.756624,1.38506 1.015506,1.5875 2.030162,1.5875 1.157457,0 1.160537,-0.005 0.651616,-0.97014 -0.281238,-0.53357 -0.73931,-1.27471 -1.01794,-1.64696 -0.45363,-0.60604 -0.42145,-0.75359 0.307766,-1.41111 1.385708,-1.24945 1.26406,-2.78564 -0.29591,-3.73677 -0.863868,-0.52671 -1.777075,-0.69937 -3.704166,-0.70037 l -2.557639,-0.001 v 4.23334 4.23333 h 1.058333 c 1.019136,0 1.058334,-0.0588 1.058334,-1.5875 z m 0,-4.01049 c 0,-1.07021 0.04851,-1.10479 1.549756,-1.10479 1.121209,0 1.61217,0.16264 1.775453,0.58816 0.315002,0.82088 -0.182178,1.19984 -1.871384,1.42641 -1.435273,0.19251 -1.453825,0.1809 -1.453825,-0.90978 z m 14.111111,4.89244 c 0,-0.63836 -0.235187,-0.70556 -2.469445,-0.70556 -2.385476,0 -2.469444,-0.0294 -2.469444,-0.86434 0,-0.80479 0.13976,-0.87163 2.028472,-0.97014 1.796941,-0.0937 2.041338,-0.1964 2.141202,-0.89955 0.106282,-0.74834 -0.0097,-0.79375 -2.028472,-0.79375 -2.048764,0 -2.141202,-0.0381 -2.141202,-0.88194 0,-0.85675 0.07056,-0.88195 2.469444,-0.88195 2.408291,0 2.469445,-0.0222 2.469445,-0.89472 v -0.89472 l -3.439584,0.10097 -3.439583,0.10097 -0.09939,4.14514 -0.09939,4.14514 h 3.538972 c 3.303788,0 3.538975,-0.0469 3.538975,-0.70555 z m 12.7,-0.70556 c 0,-1.37996 0.0275,-1.41111 1.24605,-1.41111 3.92877,0 5.78686,-3.182 2.88962,-4.94851 -0.85356,-0.52044 -1.77475,-0.69363 -3.6947,-0.69462 l -2.55764,-0.001 v 4.23334 4.23333 h 1.05834 c 0.99953,0 1.05833,-0.0784 1.05833,-1.41111 z m 0,-4.23333 c 0,-0.99397 0.0832,-1.05834 1.36792,-1.05834 1.62698,0 2.49311,0.76089 1.80708,1.5875 -0.2522,0.30389 -1.02153,0.52917 -1.80708,0.52917 -1.28472,0 -1.36792,-0.0644 -1.36792,-1.05833 z m 14.04504,5.02708 c -0.097,-0.50828 -0.56905,-0.63568 -2.6717,-0.72101 -2.43373,-0.0988 -2.5539,-0.14359 -2.5539,-0.95254 0,-0.78597 0.15034,-0.85672 2.02848,-0.95468 1.79694,-0.0937 2.04133,-0.1964 2.1412,-0.89955 0.10628,-0.74834 -0.01,-0.79375 -2.02847,-0.79375 -2.03858,0 -2.14121,-0.0415 -2.14121,-0.86649 0,-0.83092 0.10498,-0.87074 2.55764,-0.97014 2.28791,-0.0927 2.55764,-0.17806 2.55764,-0.8092 0,-0.65041 -0.26884,-0.71345 -3.43958,-0.80653 l -3.43959,-0.10097 v 4.24611 4.24611 h 3.55365 c 3.19412,0 3.54172,-0.0625 3.43584,-0.61736 z m 3.59385,-0.56269 c 0,-0.73322 0.26798,-1.42256 0.70772,-1.82052 0.38924,-0.35226 0.75859,-0.5753 0.82077,-0.49565 0.0622,0.0797 0.64374,0.89889 1.29236,1.82053 1.00604,1.42948 1.35252,1.67569 2.35816,1.67569 h 1.17885 l -1.81534,-2.49586 -1.81534,-2.49587 1.45863,-1.48624 c 0.80225,-0.81743 1.45863,-1.59929 1.45863,-1.73747 0,-0.13817 -0.41062,-0.25123 -0.9125,-0.25123 -0.6411,0 -1.47507,0.57622 -2.80389,1.93728 l -1.89139,1.93728 -0.10653,-1.84909 c -0.0993,-1.72419 -0.17204,-1.85662 -1.07666,-1.9607 l -0.97014,-0.11163 v 4.25676 4.25677 h 1.05833 c 0.965,0 1.05834,-0.10407 1.05834,-1.18005 z M 83.805323,143.02015 c 0,-1.1869 0.05016,-1.23472 1.295139,-1.23472 1.560174,0 2.585417,-0.83307 2.585417,-2.10079 0,-1.39252 -0.629423,-1.77977 -2.892778,-1.77977 H 82.74699 v 3.175 c 0,2.58704 0.09799,3.175 0.529166,3.175 0.369577,0 0.529167,-0.37238 0.529167,-1.23472 z m 0,-3.15371 c 0,-0.82116 0.130449,-0.90324 1.435647,-0.90324 1.287035,0 1.423977,0.0822 1.322916,0.79375 -0.09055,0.63759 -0.373002,0.81529 -1.435646,0.90324 -1.212753,0.10038 -1.322917,0.0343 -1.322917,-0.79375 z m 6.35,1.21343 c 0,-2.58704 -0.09799,-3.175 -0.529167,-3.175 -0.431172,0 -0.529166,0.58796 -0.529166,3.175 0,2.58704 0.09799,3.175 0.529166,3.175 0.431172,0 0.529167,-0.58796 0.529167,-3.175 z m 5.644444,1.19645 c 0,-1.6207 -0.123595,-1.96672 -0.879372,-2.46193 -1.260821,-0.82612 -3.323848,-0.20947 -3.34856,1.0009 -0.0028,0.14552 0.232724,0.26458 0.523766,0.26458 0.291041,0 0.529166,-0.16929 0.529166,-0.37621 0,-0.20692 0.401811,-0.32598 0.892913,-0.26458 1.198178,0.14979 1.137994,0.78778 -0.08819,0.93489 -1.059215,0.12708 -2.215829,0.97806 -2.215829,1.6303 0,0.84369 0.901506,1.24274 2.713165,1.20098 l 1.872946,-0.0432 z m -3.351798,0.91956 c -0.120138,-0.19439 0.198325,-0.5119 0.707704,-0.70556 1.384417,-0.52635 1.661351,-0.44697 1.232983,0.35344 -0.396885,0.74159 -1.568587,0.95418 -1.940687,0.35212 z m 6.879576,0.69514 c 0,-0.20012 -0.238125,-0.45523 -0.529167,-0.56691 -0.344977,-0.13238 -0.529166,-0.68109 -0.529166,-1.57643 0,-0.98558 0.149415,-1.37337 0.529166,-1.37337 0.671446,0 0.690348,-0.56821 0.02738,-0.82262 -0.275992,-0.10591 -0.553805,-0.5157 -0.617361,-0.91065 -0.08437,-0.52426 -0.251686,-0.63291 -0.619908,-0.40255 -0.372699,0.23317 -0.486548,0.97833 -0.436147,2.85467 0.03751,1.39653 0.154782,2.67923 0.26059,2.85043 0.2693,0.43574 1.914631,0.39056 1.914631,-0.0526 z m 2.822225,0.0319 c 0,-0.18258 -0.15875,-0.43007 -0.35278,-0.54998 -0.5079,-0.3139 -0.43535,-2.90128 0.0882,-3.14561 0.35278,-0.16463 0.35278,-0.24694 0,-0.41157 -0.24253,-0.11318 -0.44097,-0.60266 -0.44097,-1.08773 0,-1.0285 -0.81145,-0.95785 -1.01095,0.088 -0.071,0.37197 -0.30908,0.80747 -0.529163,0.96776 -0.293151,0.2135 -0.282236,0.33929 0.04081,0.47037 0.265773,0.10784 0.440973,0.84468 0.440973,1.85462 0,0.92164 0.10583,1.78153 0.23518,1.91088 0.35583,0.35583 1.52871,0.28159 1.52871,-0.0968 z m 2.46944,-1.57892 c 0,-1.18377 0.1678,-1.98918 0.44097,-2.11667 0.35278,-0.16463 0.35278,-0.24694 0,-0.41157 -0.63318,-0.29549 -0.54442,-1.20532 0.1176,-1.20532 0.30721,0 0.49242,-0.19844 0.41157,-0.44098 -0.0808,-0.24253 -0.43762,-0.44097 -0.79283,-0.44097 -0.74892,0 -2.24276,2.36892 -1.62391,2.57521 0.21879,0.0729 0.38827,0.96351 0.38827,2.0403 0,1.46337 0.12392,1.91088 0.52917,1.91088 0.40524,0 0.52916,-0.44751 0.52916,-1.91088 z m 5.35209,1.32704 c 0.98713,-0.89335 0.84241,-2.73755 -0.28439,-3.62389 -1.16881,-0.91939 -2.0496,-0.92703 -2.95103,-0.0256 -0.86266,0.86266 -0.92501,2.70057 -0.12171,3.58819 0.72747,0.80385 2.50083,0.83623 3.35713,0.0613 z m -2.45931,-0.54505 c -0.62828,-0.62828 -0.52625,-2.38154 0.15378,-2.64249 1.29728,-0.49781 2.45117,1.43823 1.52344,2.55608 -0.51504,0.62058 -1.11228,0.65135 -1.67722,0.0864 z m 5.22111,-0.43779 c 0,-1.46129 0.3809,-2.11901 1.23472,-2.13208 0.19403,-0.003 0.35278,-0.24353 0.35278,-0.53457 0,-0.37279 -0.36488,-0.52419 -1.23472,-0.5123 l -1.23472,0.0169 -0.10432,2.36439 c -0.0857,1.94254 -0.007,2.36438 0.44098,2.36438 0.41,0 0.54528,-0.38868 0.54528,-1.56668 z m 3.52778,0.30877 c 0,-1.50037 0.53367,-2.62265 1.24713,-2.62265 0.39119,0 0.51676,0.47149 0.51676,1.94028 0,1.48951 0.12293,1.94028 0.52916,1.94028 0.38833,0 0.52917,-0.40373 0.52917,-1.51694 0,-1.52945 0.46066,-2.36362 1.30528,-2.36362 0.32071,0 0.45861,0.58344 0.45861,1.94028 0,1.48951 0.12294,1.94028 0.52917,1.94028 0.41034,0 0.52916,-0.46557 0.52916,-2.07347 0,-2.51226 -0.56143,-3.20766 -2.11597,-2.62089 -0.60927,0.22997 -1.12809,0.25085 -1.3256,0.0533 -0.17848,-0.17849 -0.98527,-0.21886 -1.79286,-0.0897 l -1.46835,0.23479 v 2.24797 c 0,1.76301 0.11416,2.24797 0.52917,2.24797 0.37144,0 0.52917,-0.37495 0.52917,-1.25791 z"
         id="path311" /><path
         style="fill:#cdcdce;stroke-width:0.352778"
         d="m 57.34699,161.64462 c -0.694562,-0.2539 -2.116667,-1.5554 -2.116667,-1.93715 0,-0.16468 0.357188,-0.0754 0.79375,0.19828 0.436563,0.27374 1.399263,0.60401 2.139334,0.73393 1.699687,0.29839 3.611682,-0.74814 5.966723,-3.26587 2.784561,-2.97692 3.456382,-5.31638 3.072242,-10.69838 -0.292412,-4.09683 -1.050897,-6.12494 -3.240143,-8.66378 l -1.147184,-1.33038 1.411111,1.10614 c 3.092973,2.4245 4.683055,6.77735 4.260191,11.66228 -0.338264,3.90765 -1.383662,6.24396 -3.952305,8.83285 -2.84403,2.86644 -5.343878,4.03586 -7.187052,3.36208 z m -3.925554,-3.896 c -0.43881,-0.55952 -0.426333,-0.572 0.133193,-0.13319 0.339548,0.26629 0.617361,0.5441 0.617361,0.61736 0,0.29035 -0.289696,0.10347 -0.750554,-0.48417 z m 49.702584,-0.69048 c 0.43882,-0.0844 1.07382,-0.0812 1.41111,0.007 0.33729,0.0883 -0.0218,0.15734 -0.79786,0.15342 -0.77611,-0.004 -1.05207,-0.0762 -0.61325,-0.16054 z M 84.259,155.36737 c 0.0026,-0.97014 0.07116,-1.32514 0.152247,-0.7889 0.08109,0.53625 0.07892,1.33 -0.0048,1.76389 -0.08374,0.43389 -0.15008,-0.005 -0.147432,-0.97499 z m 7.440844,-2.29306 c 0,-2.23131 0.05728,-3.14413 0.127289,-2.02847 0.07001,1.11566 0.07001,2.94129 0,4.05695 -0.07001,1.11566 -0.127289,0.20284 -0.127289,-2.02848 z m 19.411156,2.38387 0.0346,-1.50192 1.5875,-0.0388 1.5875,-0.0388 -1.47997,0.14632 c -1.4344,0.14181 -1.48434,0.18925 -1.6221,1.54071 l -0.14214,1.39439 0.0346,-1.50193 z m 13.99717,0.93813 c 0.0169,-0.41097 0.10052,-0.49456 0.21314,-0.21314 0.10191,0.25466 0.0894,0.55893 -0.0278,0.67616 -0.11722,0.11722 -0.2006,-0.0911 -0.18528,-0.46302 z m 13.45025,-2.68435 -0.0725,-3.4193 -1.49931,-0.13504 -1.4993,-0.13504 1.51037,-0.0616 c 0.97797,-0.0399 1.57381,0.10365 1.69031,0.40726 0.099,0.25789 0.12663,1.88508 0.0615,3.61597 l -0.11845,3.14708 z m -84.585012,1.74361 -1.03614,-1.14653 1.146527,1.03614 c 1.068725,0.96583 1.308683,1.25691 1.036141,1.25691 -0.06071,0 -0.576651,-0.51593 -1.146528,-1.14652 z m 8.136082,0.44097 c 0.351185,-0.38806 0.717894,-0.70556 0.814908,-0.70556 0.09701,0 -0.110945,0.3175 -0.46213,0.70556 -0.351186,0.38805 -0.717894,0.70555 -0.814908,0.70555 -0.09701,0 0.110944,-0.3175 0.46213,-0.70555 z m 37.570833,0.10199 c 0,-0.20261 0.277812,-0.58625 0.617357,-0.85255 0.57107,-0.44785 0.57855,-0.43125 0.0998,0.22139 -0.28465,0.38806 -0.562459,0.7717 -0.617362,0.85255 -0.0549,0.0808 -0.09982,-0.0188 -0.09982,-0.22139 z m 3.792357,-0.33563 c 0.24254,-0.0979 0.63941,-0.0979 0.88195,0 0.24253,0.0979 0.0441,0.17794 -0.44097,0.17794 -0.48507,0 -0.68351,-0.0801 -0.44098,-0.17794 z m 3.99661,-1.03048 c 0.0169,-0.41097 0.10052,-0.49456 0.21313,-0.21314 0.10191,0.25466 0.0894,0.55893 -0.0278,0.67616 -0.11723,0.11722 -0.20061,-0.0911 -0.18529,-0.46302 z m -48.926548,-1.00328 c -0.106268,-0.27693 -0.134072,-0.87225 -0.06179,-1.32292 0.09669,-0.60281 0.178588,-0.46972 0.309838,0.50351 0.184711,1.36964 0.08698,1.69248 -0.248051,0.81941 z m 36.116816,-0.10494 c 0.634065,-0.0785 1.586565,-0.0769 2.116666,0.004 0.530102,0.0805 0.01132,0.14473 -1.152846,0.14275 -1.164166,-0.002 -1.597885,-0.0678 -0.96382,-0.14635 z m 26.458332,0 c 0.63407,-0.0785 1.58657,-0.0769 2.11667,0.004 0.5301,0.0805 0.0113,0.14473 -1.15285,0.14275 -1.16417,-0.002 -1.59788,-0.0678 -0.96382,-0.14635 z m -67.364824,-1.39643 c 0.254662,-0.10191 0.558933,-0.0894 0.676158,0.0279 0.117225,0.11723 -0.09114,0.20061 -0.463021,0.18529 -0.410966,-0.0169 -0.494559,-0.10052 -0.213137,-0.21314 z m 30.493229,-0.90554 c 0.08088,-1.05138 0.190655,-1.14914 1.322917,-1.17807 1.186028,-0.0303 1.190329,-0.026 0.109051,0.10824 -0.920698,0.11434 -1.161588,0.32886 -1.322917,1.17808 -0.18809,0.99009 -0.193152,0.98506 -0.109051,-0.10825 z m 26.811115,0 c 0.0777,-1.01059 0.21367,-1.15043 1.14652,-1.17942 0.95492,-0.0297 0.96557,-0.019 0.109,0.109 -0.72313,0.10808 -0.99633,0.3891 -1.14653,1.17942 -0.1878,0.98812 -0.19299,0.98293 -0.10899,-0.109 z m 5.61195,0.0882 c 0,-0.48507 0.0801,-0.68351 0.17793,-0.44098 0.0979,0.24254 0.0979,0.63941 0,0.88195 -0.0979,0.24253 -0.17793,0.0441 -0.17793,-0.44097 z m -55.832092,0.0882 c -0.02062,-0.14552 -0.06031,-0.58123 -0.08819,-0.96824 -0.03155,-0.43788 -0.304157,-0.70438 -0.721732,-0.70556 -0.36907,-0.001 -0.712211,-0.27971 -0.762535,-0.61926 -0.09933,-0.67022 0.373851,-0.83763 0.731573,-0.25882 0.121873,0.19719 0.352432,0.27766 0.512355,0.17882 0.159923,-0.0988 0.386402,0.20133 0.503286,0.66703 0.116884,0.4657 0.309553,1.09961 0.428153,1.40867 0.1186,0.30907 0.0399,0.56194 -0.174884,0.56194 -0.214787,0 -0.407397,-0.11906 -0.428021,-0.26458 z m 2.771527,-1.60493 c -1.026906,-0.40579 -1.332871,-1.30549 -0.443961,-1.30549 0.289397,0 0.719419,-0.30943 0.955603,-0.68762 0.318886,-0.51061 0.546679,-0.59031 0.884934,-0.30958 0.611938,0.50787 0.576025,1.22825 -0.07366,1.47756 -0.291042,0.11168 -0.529167,0.37616 -0.529167,0.58773 0,0.21156 0.183279,0.27139 0.407285,0.13295 0.252342,-0.15596 0.311525,-0.0968 0.155569,0.15557 -0.138444,0.224 -0.282034,0.39039 -0.31909,0.36975 -0.03706,-0.0206 -0.503937,-0.21003 -1.037514,-0.42087 z m 0.984645,-0.97618 c 0.307475,-0.4975 -0.157593,-0.94839 -0.47466,-0.46018 -0.134971,0.20782 -0.483526,0.4685 -0.774568,0.57929 -0.360129,0.13709 -0.282261,0.21033 0.243763,0.22929 0.425112,0.0153 0.877571,-0.14146 1.005465,-0.3484 z m 30.236188,1.1776 c 0.727605,-0.0761 1.91823,-0.0761 2.645834,0 0.727604,0.0761 0.132291,0.13838 -1.322917,0.13838 -1.455208,0 -2.050521,-0.0623 -1.322917,-0.13838 z m 28.045832,4.2e-4 c 1.60772,-0.0936 2.20486,-0.26393 2.20486,-0.62871 0,-0.38825 -0.75067,-0.52742 -3.3522,-0.62147 l -3.35222,-0.12119 3.44041,0.0202 c 3.19848,0.0188 3.4404,0.0698 3.4404,0.72577 0,0.63071 -0.24322,0.70811 -2.29305,0.72968 l -2.29306,0.0241 2.20486,-0.12843 z m 8.73125,-0.44899 c 0.35119,-0.38806 0.7179,-0.70556 0.81491,-0.70556 0.097,0 -0.11094,0.3175 -0.46213,0.70556 -0.35119,0.38805 -0.7179,0.70555 -0.81491,0.70555 -0.097,0 0.11094,-0.3175 0.46213,-0.70555 z m 9.6132,0.45659 c 0.43656,-0.0841 1.15093,-0.0841 1.5875,0 0.43656,0.0841 0.0794,0.15288 -0.79375,0.15288 -0.87313,0 -1.23032,-0.0688 -0.79375,-0.15288 z m -88.078403,-0.66238 c 0.01693,-0.41097 0.100521,-0.49456 0.213137,-0.21314 0.101907,0.25466 0.08937,0.55894 -0.02785,0.67616 -0.117225,0.11723 -0.200604,-0.0911 -0.185286,-0.46302 z m 2.510368,-0.32338 c 0.0072,-0.58208 0.08625,-0.7775 0.175698,-0.43426 0.08944,0.34324 0.08356,0.81949 -0.01307,1.05834 -0.09663,0.23884 -0.169817,-0.042 -0.162628,-0.62408 z m 28.074579,-0.43515 c 0.829746,-0.0745 2.099746,-0.0735 2.822221,0.002 0.722474,0.0758 0.04359,0.13678 -1.50863,0.13549 -1.552222,-0.001 -2.143338,-0.0633 -1.313591,-0.13782 z m 9.880277,-0.002 c 1.025151,-0.0715 2.612651,-0.0707 3.527778,0.002 0.915127,0.0724 0.07637,0.1309 -1.863908,0.12998 -1.940278,-9.2e-4 -2.689021,-0.0602 -1.66387,-0.13165 z m 16.930829,0.002 c 0.82975,-0.0745 2.09975,-0.0735 2.82223,0.002 0.72247,0.0758 0.0436,0.13678 -1.50863,0.13549 -1.55223,-0.001 -2.14334,-0.0633 -1.3136,-0.13782 z m 16.75434,0.0143 c 0.34324,-0.0894 0.81949,-0.0836 1.05833,0.0131 0.23884,0.0966 -0.042,0.16982 -0.62407,0.16263 -0.58209,-0.007 -0.77751,-0.0863 -0.43426,-0.1757 z m 5.99722,0 c 0.34324,-0.0894 0.81949,-0.0836 1.05833,0.0131 0.23884,0.0966 -0.042,0.16982 -0.62407,0.16263 -0.58209,-0.007 -0.7775,-0.0863 -0.43426,-0.1757 z m 4.22662,-0.0162 c 1.11566,-0.07 2.94128,-0.07 4.05694,0 1.11566,0.07 0.20285,0.12729 -2.02847,0.12729 -2.23132,0 -3.14413,-0.0573 -2.02847,-0.12729 z M 58.758101,147.7827 c 0,-0.19403 0.15875,-0.35278 0.352778,-0.35278 0.194027,0 0.352777,0.15875 0.352777,0.35278 0,0.19403 -0.15875,0.35278 -0.352777,0.35278 -0.194028,0 -0.352778,-0.15875 -0.352778,-0.35278 z m 0.660557,-0.97014 c -0.43881,-0.55953 -0.426332,-0.572 0.133193,-0.13319 0.587639,0.46085 0.774516,0.75055 0.484168,0.75055 -0.07326,0 -0.351069,-0.27781 -0.617361,-0.61736 z m 6.4507,-0.44097 c 0,-0.48507 0.08007,-0.68351 0.177936,-0.44098 0.09787,0.24254 0.09787,0.63941 0,0.88195 -0.09786,0.24253 -0.177936,0.0441 -0.177936,-0.44097 z M 55.654139,146.0898 c -0.394789,-0.39479 -0.810401,-0.6252 -0.923584,-0.51201 -0.113183,0.11318 -0.205787,0.0206 -0.205787,-0.20579 0,-0.22637 0.119062,-0.4248 0.264583,-0.44097 0.145521,-0.0162 0.627167,-0.0694 1.070326,-0.11832 0.443158,-0.0489 1.078158,0.13183 1.411111,0.40164 0.539475,0.43716 0.518969,0.44869 -0.188382,0.1059 -0.468177,-0.22688 -0.793749,-0.24692 -0.793749,-0.0489 0,0.18469 0.153662,0.38871 0.341472,0.45339 0.19764,0.0681 0.215179,0.32087 0.04164,0.6002 -0.24248,0.3903 -0.437135,0.34531 -1.01763,-0.23518 z m 4.162295,-0.55701 c 0,-0.0733 0.277813,-0.35107 0.617361,-0.61736 0.559526,-0.43881 0.572003,-0.42634 0.133193,0.13319 -0.460858,0.58764 -0.750554,0.77452 -0.750554,0.48417 z m 23.725076,-2.51264 c 0.0039,-0.77611 0.07616,-1.05207 0.160541,-0.61325 0.08438,0.43882 0.08118,1.07382 -0.0071,1.41111 -0.0883,0.33729 -0.157338,-0.0217 -0.153422,-0.79786 z m 13.831251,0.85847 c -0.127892,-0.20693 -0.156873,-0.45191 -0.0644,-0.54438 0.09247,-0.0925 0.262135,0.0768 0.377031,0.37625 0.238541,0.62163 0.03524,0.73098 -0.312631,0.16813 z m 7.002989,-1.56403 c 0.002,-1.16416 0.0678,-1.59788 0.14635,-0.96382 0.0785,0.63407 0.0769,1.58657 -0.004,2.11667 -0.0805,0.5301 -0.14473,0.0113 -0.14275,-1.15285 z m 7.34706,-0.24376 c -0.0264,-1.29824 0.071,-2.43425 0.21654,-2.52446 0.14552,-0.0902 0.21874,0.65447 0.16272,1.65487 -0.16842,3.00709 -0.3283,3.37367 -0.37926,0.86959 z m 3.5955,-0.10902 c 0.001,-1.35819 0.0653,-1.87059 0.14169,-1.13865 0.0764,0.73193 0.0751,1.84318 -0.003,2.46944 -0.078,0.62626 -0.14044,0.0274 -0.13887,-1.33079 z m 2.80736,0.70556 c 0.003,-0.97014 0.0712,-1.32514 0.15224,-0.7889 0.0811,0.53625 0.0789,1.33 -0.005,1.76389 -0.0838,0.43389 -0.1501,-0.005 -0.14745,-0.97499 z m -19.50368,0.88194 c -0.317956,-0.20547 -0.361467,-0.34413 -0.109016,-0.34737 0.231084,-0.003 0.518266,0.15335 0.638182,0.34737 0.270687,0.43799 0.148562,0.43799 -0.529166,0 z m -3.074102,-1.5875 c 0.0028,-0.97013 0.07116,-1.32514 0.152248,-0.78889 0.08109,0.53624 0.07892,1.32999 -0.0048,1.76388 -0.08375,0.4339 -0.150096,-0.005 -0.14745,-0.97499 z m -11.952996,-2.29305 c 0.02933,-0.75985 0.204977,-0.88631 1.268764,-0.91349 1.184649,-0.0303 1.189098,-0.0259 0.109697,0.10821 -0.821048,0.10199 -1.163865,0.34881 -1.268765,0.91349 -0.118302,0.63682 -0.137713,0.61767 -0.109696,-0.10821 z m 29.409298,-0.0594 c 0.205,-0.205 0.58096,-0.30331 0.83547,-0.21848 0.26422,0.0881 0.1043,0.24799 -0.37273,0.37273 -0.58679,0.15345 -0.72452,0.10754 -0.46274,-0.15425 z m -19.762062,-0.17421 c 0.242535,-0.0979 0.63941,-0.0979 0.881945,0 0.242535,0.0979 0.0441,0.17794 -0.440972,0.17794 -0.48507,0 -0.683507,-0.0801 -0.440973,-0.17794 z m 14.463892,0 c 0.24253,-0.0979 0.63941,-0.0979 0.88194,0 0.24254,0.0979 0.0441,0.17794 -0.44097,0.17794 -0.48507,0 -0.68351,-0.0801 -0.44097,-0.17794 z m 9.525,0 c 0.24253,-0.0979 0.63941,-0.0979 0.88194,0 0.24254,0.0979 0.0441,0.17794 -0.44097,0.17794 -0.48507,0 -0.68351,-0.0801 -0.44097,-0.17794 z m 2.82222,0 c 0.24253,-0.0979 0.63941,-0.0979 0.88194,0 0.24254,0.0979 0.0441,0.17794 -0.44097,0.17794 -0.48507,0 -0.68351,-0.0801 -0.44097,-0.17794 z m -58.165138,-1.08928 c -0.43881,-0.55952 -0.426332,-0.572 0.133193,-0.13319 0.587639,0.46086 0.774517,0.75055 0.484168,0.75055 -0.07326,0 -0.351068,-0.27781 -0.617361,-0.61736 z m 42.664968,-0.68196 c 0.25466,-0.1019 0.55893,-0.0894 0.67615,0.0279 0.11723,0.11723 -0.0911,0.20061 -0.46302,0.18529 -0.41096,-0.0169 -0.49456,-0.10052 -0.21313,-0.21314 z M 58.691955,137.3111 c 0.254662,-0.1019 0.558932,-0.0894 0.676158,0.0279 0.117224,0.11722 -0.09114,0.2006 -0.463021,0.18528 -0.410966,-0.0169 -0.494559,-0.10052 -0.213137,-0.21314 z"
         id="path309" /><path
         style="fill:#98a9d2;stroke-width:0.352778"
         d="m 58.691955,157.41944 c 0.254662,-0.10191 0.558932,-0.0894 0.676158,0.0279 0.117224,0.11723 -0.09114,0.2006 -0.463021,0.18529 -0.410966,-0.0169 -0.494559,-0.10052 -0.213137,-0.21314 z m -3.81441,-0.46457 c 0,-0.19403 0.15875,-0.35278 0.352778,-0.35278 0.194028,0 0.352778,0.15875 0.352778,0.35278 0,0.19403 -0.15875,0.35278 -0.352778,0.35278 -0.194028,0 -0.352778,-0.15875 -0.352778,-0.35278 z m 4.072324,-3.15012 c -0.111457,-0.18034 -0.139069,-1.09111 -0.06136,-2.02394 0.07771,-0.93282 0.0026,-2.06094 -0.167001,-2.50691 -0.22841,-0.60077 -0.172202,-0.86309 0.216929,-1.01241 0.288871,-0.11085 0.52522,-0.3603 0.52522,-0.55433 0,-0.19403 -0.233041,-0.26335 -0.517868,-0.15405 -0.284828,0.1093 -0.607412,0.0538 -0.716854,-0.12324 -0.109441,-0.17708 -0.432025,-0.23254 -0.716853,-0.12324 -0.48771,0.18715 -0.572703,0.0552 -0.65898,-1.02329 -0.0944,-1.17996 -2.328333,-2.01814 -2.328333,-0.8736 0,0.20561 0.0926,0.28123 0.205787,0.16805 0.113183,-0.11319 0.539823,0.12825 0.94809,0.53651 0.482233,0.48224 0.595531,0.79123 0.32338,0.88195 -0.230408,0.0768 -0.418924,0.29453 -0.418924,0.48384 0,0.18931 0.183278,0.23093 0.407285,0.0925 0.254367,-0.15721 0.311441,-0.0966 0.152012,0.16133 -0.1404,0.22717 -0.403052,0.3217 -0.583673,0.21007 -0.180621,-0.11163 -0.328402,-0.0518 -0.328402,0.13289 0,0.18472 -0.205685,0.41479 -0.45708,0.51125 -0.300396,0.11528 -0.483711,-0.17411 -0.53477,-0.8442 -0.0477,-0.62606 0.09468,-1.02168 0.368886,-1.025 0.353076,-0.004 0.354864,-0.0636 0.0085,-0.28358 -0.258911,-0.16443 -0.40317,-0.87279 -0.352777,-1.73224 0.06897,-1.17627 0.276674,-1.56757 1.08721,-2.04821 0.715651,-0.42438 1.094509,-0.48312 1.325857,-0.20558 0.178145,0.21372 0.224304,0.31809 0.102575,0.23193 -0.293582,-0.20779 -1.195663,0.71 -1.195663,1.21648 0,0.21934 0.15875,0.30069 0.352778,0.18077 0.194028,-0.11991 0.352778,-0.006 0.352778,0.25356 0,0.25937 0.319314,0.74499 0.709588,1.07915 0.816516,0.69912 1.210255,0.79253 0.844224,0.20028 -0.155956,-0.25234 -0.09677,-0.31152 0.155569,-0.15556 0.224007,0.13844 0.407285,0.45364 0.407285,0.70045 0,0.2468 0.391457,0.65823 0.869905,0.91429 0.478447,0.25606 0.786578,0.60038 0.684735,0.76517 -0.101843,0.16478 -0.01705,0.29961 0.188429,0.29961 0.205479,0 0.373598,0.26987 0.373598,0.59972 0,0.46645 -0.09407,0.50565 -0.423334,0.17639 -0.602403,-0.60241 -0.940236,-0.5238 -0.83385,0.19402 0.05032,0.33955 0.393465,0.61822 0.762535,0.61926 0.427927,0.001 0.678248,0.25683 0.690939,0.70556 0.01095,0.38701 0.222245,1.07444 0.469554,1.52762 0.247309,0.45318 0.36336,0.91026 0.257891,1.01573 -0.10547,0.10547 -0.381939,-0.22563 -0.614375,-0.73577 -0.518076,-1.13705 -1.212633,-1.19908 -1.49812,-0.13378 -0.364277,1.35929 -0.252711,1.62423 0.747788,1.77579 l 0.970138,0.14696 -0.949319,0.0529 c -0.522125,0.0291 -1.040511,-0.0947 -1.151968,-0.27504 z m -5.808362,-2.34733 c 0.01693,-0.41097 0.100521,-0.49456 0.213137,-0.21314 0.101907,0.25466 0.08937,0.55893 -0.02785,0.67616 -0.117225,0.11722 -0.200604,-0.0911 -0.185286,-0.46302 z m 0.677705,-1.71367 c 0,-0.3025 0.15875,-0.54999 0.352778,-0.54999 0.194028,0 0.352778,0.14938 0.352778,0.33196 0,0.18257 -0.15875,0.43007 -0.352778,0.54998 -0.194028,0.11992 -0.352778,-0.0295 -0.352778,-0.33195 z m 8.819444,0.13474 c 0,-0.20547 -0.156931,-0.2766 -0.348737,-0.15806 -0.208517,0.12887 -0.253408,-0.0329 -0.111646,-0.40232 0.145731,-0.37977 0.291439,-0.4548 0.378135,-0.19471 0.07758,0.23273 0.365941,0.42314 0.640813,0.42314 0.274873,0 0.499769,0.15875 0.499769,0.35277 0,0.19403 -0.238125,0.35278 -0.529167,0.35278 -0.291042,0 -0.529167,-0.16812 -0.529167,-0.3736 z m 1.751262,-0.27397 c 0.232413,-0.45318 0.519321,-0.72722 0.637572,-0.60896 0.118251,0.11825 -0.07191,0.48903 -0.42257,0.82396 -0.609513,0.58216 -0.618975,0.5727 -0.215002,-0.215 z m -13.717855,-0.26377 c 0.01693,-0.41097 0.100521,-0.49456 0.213137,-0.21314 0.101907,0.25466 0.08937,0.55894 -0.02785,0.67616 -0.117225,0.11723 -0.200604,-0.0911 -0.185286,-0.46302 z m 13.060343,-1.45386 c 0.256873,-0.42774 0.542977,-0.70177 0.635786,-0.60897 0.09281,0.0928 -0.117359,0.44278 -0.467042,0.77771 -0.607462,0.58183 -0.614979,0.57432 -0.168744,-0.16874 z m 2.48973,-0.45702 c 0,-0.48507 0.08007,-0.68351 0.177936,-0.44097 0.09786,0.24253 0.09786,0.63941 0,0.88194 -0.09786,0.24254 -0.177936,0.0441 -0.177936,-0.44097 z m -12.7,-1.05833 c 0,-0.48507 0.08007,-0.68351 0.177936,-0.44098 0.09786,0.24254 0.09786,0.63941 0,0.88195 -0.09786,0.24253 -0.177936,0.0441 -0.177936,-0.44097 z m 5.235965,-0.35278 c 0,-0.19403 0.168119,-0.35278 0.373598,-0.35278 0.205478,0 0.275484,0.15875 0.155569,0.35278 -0.119916,0.19403 -0.288035,0.35278 -0.373598,0.35278 -0.08556,0 -0.155569,-0.15875 -0.155569,-0.35278 z m -5.046216,-7.40997 c 1.464436,-1.3726 1.951901,-1.37135 0.636494,0.002 -0.557671,0.58208 -1.182685,1.05759 -1.388918,1.0567 -0.206234,-8.9e-4 0.132357,-0.47715 0.752424,-1.05834 z m 5.193365,-2.06772 c 0.175637,-0.28419 1.969518,-0.12916 1.969518,0.1702 0,0.0744 -0.485619,0.13527 -1.079154,0.13527 -0.593534,0 -0.994198,-0.13746 -0.890364,-0.30547 z"
         id="path307" /><path
         style="fill:#a1a2a4;stroke-width:0.352778"
         d="m 57.523379,160.48265 -1.058334,-0.2693 1.160582,-0.0417 c 2.682329,-0.0965 6.193402,-3.15463 8.070549,-7.02949 0.782751,-1.61577 1.015534,-2.69729 1.191531,-5.53586 l 0.218729,-3.52778 0.123685,2.82222 c 0.06803,1.55223 0.0923,3.29848 0.05393,3.88056 -0.207449,3.14757 -2.761382,6.97961 -6.03738,9.05878 -1.629136,1.03395 -1.960551,1.09115 -3.723294,0.64261 z m 16.833222,-12.4146 c -0.04195,-6.53699 0.04279,-11.95921 0.188305,-12.04939 0.145521,-0.0902 0.224124,3.35326 0.174674,7.6521 -0.170646,14.83455 -0.286952,16.24354 -0.362979,4.39729 z m -19.876832,10.7389 c -0.43881,-0.55952 -0.426332,-0.572 0.133193,-0.13319 0.587639,0.46086 0.774516,0.75056 0.484168,0.75056 -0.07326,0 -0.351069,-0.27782 -0.617361,-0.61737 z m 54.858961,-5.73264 c 0,-2.23131 0.0573,-3.14413 0.12729,-2.02847 0.07,1.11566 0.07,2.94129 0,4.05695 -0.07,1.11566 -0.12729,0.20284 -0.12729,-2.02848 z m 17.64016,-0.17638 c 7e-4,-2.32834 0.0578,-3.23493 0.12687,-2.01465 0.0691,1.22028 0.0685,3.12528 -0.001,4.23333 -0.0696,1.10806 -0.12616,0.10965 -0.12546,-2.21868 z m 1.71817,2.82222 c 0.004,-0.77611 0.0762,-1.05207 0.16055,-0.61325 0.0844,0.43883 0.0812,1.07383 -0.007,1.41111 -0.0883,0.33729 -0.15734,-0.0217 -0.15342,-0.79786 z m 11.68155,-2.11667 c 0.001,-1.94028 0.0602,-2.68902 0.13165,-1.66387 0.0715,1.02515 0.0707,2.61265 -0.002,3.52778 -0.0723,0.91513 -0.1308,0.0764 -0.12988,-1.86391 z m -45.548982,2.03607 c 0.727605,-0.0761 1.91823,-0.0761 2.645834,0 0.727604,0.0761 0.132291,0.13838 -1.322917,0.13838 -1.455208,0 -2.050521,-0.0623 -1.322917,-0.13838 z m 26.458332,0 c 0.72761,-0.0761 1.91823,-0.0761 2.64583,0 0.72761,0.0761 0.1323,0.13838 -1.32291,0.13838 -1.45521,0 -2.05052,-0.0623 -1.32292,-0.13838 z m 8.45827,-2.06384 c 0.33493,-0.34968 0.6849,-0.55985 0.7777,-0.46704 0.0928,0.0928 -0.18122,0.37891 -0.60896,0.63578 -0.74306,0.44624 -0.75057,0.43872 -0.16874,-0.16874 z m -44.970768,-0.0295 c 0.242535,-0.0979 0.63941,-0.0979 0.881944,0 0.242535,0.0979 0.0441,0.17794 -0.440972,0.17794 -0.485069,0 -0.683507,-0.0801 -0.440972,-0.17794 z m 3.96875,-0.60511 c 0,-0.0733 0.277812,-0.35107 0.617361,-0.61736 0.559527,-0.43881 0.572004,-0.42633 0.133195,0.13319 -0.460859,0.58764 -0.750556,0.77452 -0.750556,0.48417 z m 22.842358,-0.46855 c 0.43657,-0.0841 1.15094,-0.0841 1.5875,0 0.43657,0.0841 0.0794,0.15288 -0.79375,0.15288 -0.87312,0 -1.23031,-0.0688 -0.79375,-0.15288 z m 17.13085,-1.69131 c 0.002,-1.16417 0.0678,-1.59789 0.14635,-0.96382 0.0785,0.63406 0.0769,1.58656 -0.004,2.11667 -0.0805,0.5301 -0.14473,0.0113 -0.14275,-1.15285 z m 2.8673,1.55192 c -0.13201,-0.2136 0.13054,-0.72954 0.58345,-1.14653 l 0.82346,-0.75817 -0.63882,0.77152 c -0.35135,0.42434 -0.53453,0.94028 -0.40706,1.14653 0.12747,0.20625 0.15239,0.37501 0.0554,0.37501 -0.097,0 -0.2844,-0.17477 -0.41641,-0.38836 z m -36.925162,-0.22009 c 0.634065,-0.0785 1.586565,-0.0769 2.116666,0.004 0.530102,0.0805 0.01132,0.14473 -1.152846,0.14275 -1.164166,-0.002 -1.597885,-0.0678 -0.96382,-0.14635 z m 26.452012,4.6e-4 c 0.63059,-0.0783 1.66247,-0.0783 2.29306,0 0.63059,0.0782 0.11465,0.14228 -1.14653,0.14228 -1.26118,0 -1.77712,-0.064 -1.14653,-0.14228 z m -21.05062,-1.00892 c 0.0169,-0.41097 0.10052,-0.49456 0.21314,-0.21314 0.1019,0.25466 0.0894,0.55893 -0.0278,0.67616 -0.11723,0.11722 -0.2006,-0.0911 -0.18528,-0.46302 z m -46.919443,-0.70556 c 0.01693,-0.41096 0.100521,-0.49456 0.213137,-0.21314 0.101907,0.25467 0.08937,0.55894 -0.02785,0.67616 -0.117225,0.11723 -0.200604,-0.0911 -0.185286,-0.46302 z m 49.982513,-1.80759 c 0.43882,-0.0844 1.07382,-0.0812 1.41111,0.007 0.33729,0.0883 -0.0218,0.15734 -0.79786,0.15343 -0.77611,-0.004 -1.05207,-0.0762 -0.61325,-0.16054 z m -53.157513,-2.77851 c 0.01693,-0.41096 0.100521,-0.49456 0.213137,-0.21313 0.101907,0.25466 0.08937,0.55893 -0.02785,0.67615 -0.117225,0.11723 -0.200603,-0.0911 -0.185286,-0.46302 z m 44.448216,-2.05586 c -0.31828,-0.3835 -0.307947,-0.55844 0.045,-0.76211 0.251957,-0.1454 0.340416,-0.13445 0.196582,0.0243 -0.143838,0.15878 -0.08471,0.50173 0.131388,0.76212 0.216101,0.26039 0.313539,0.47343 0.216525,0.47343 -0.09701,0 -0.362285,-0.22399 -0.589492,-0.49776 z m -4.486956,-2.85363 c -0.0011,-1.74625 0.05858,-2.5051 0.132563,-1.68634 0.07399,0.81877 0.07487,2.24752 0.0021,3.175 -0.07307,0.92749 -0.133607,0.25759 -0.13468,-1.48866 z m 31.020123,1.41111 c 0.003,-0.97014 0.0712,-1.32514 0.15225,-0.7889 0.0811,0.53625 0.0789,1.33 -0.005,1.76389 -0.0838,0.4339 -0.1501,-0.005 -0.14745,-0.97499 z m -54.400827,0.67616 c 0.01693,-0.41097 0.100521,-0.49456 0.213136,-0.21314 0.101908,0.25466 0.08938,0.55894 -0.02785,0.67616 -0.117226,0.11723 -0.200604,-0.0911 -0.185286,-0.46302 z m 30.752779,-1.02894 c 0.0039,-0.77611 0.07616,-1.05207 0.160542,-0.61324 0.08438,0.43882 0.08118,1.07382 -0.0071,1.41111 -0.0883,0.33728 -0.157339,-0.0217 -0.153423,-0.79787 z m 3.853228,-0.045 c -0.0392,-0.92698 0.13066,-1.6157 0.46753,-1.89528 0.36561,-0.30343 0.52917,-0.31678 0.52917,-0.0432 0,0.21779 -0.14963,0.39597 -0.3325,0.39597 -0.18287,0 -0.39326,0.67469 -0.46753,1.49931 l -0.13504,1.49931 z m 9.17936,0.045 c 0.007,-0.58208 0.0862,-0.7775 0.1757,-0.43425 0.0894,0.34324 0.0836,0.81949 -0.0131,1.05833 -0.0966,0.23884 -0.1698,-0.042 -0.16261,-0.62408 z m -3.5687,-0.0294 c 0.0169,-0.41097 0.10052,-0.49456 0.21313,-0.21314 0.10191,0.25466 0.0894,0.55893 -0.0278,0.67616 -0.11723,0.11722 -0.2006,-0.0911 -0.18529,-0.46302 z m -22.517435,-0.39017 c 0.339549,-0.0887 0.895174,-0.0887 1.234722,0 0.339549,0.0887 0.06174,0.16133 -0.617361,0.16133 -0.679097,0 -0.956909,-0.0726 -0.617361,-0.16133 z m -0.172276,-0.71189 c 0.438825,-0.0844 1.073824,-0.0812 1.411112,0.007 0.337287,0.0883 -0.02177,0.15734 -0.797864,0.15343 -0.776111,-0.004 -1.052072,-0.0762 -0.613248,-0.16055 z m 9.190158,-0.69703 c 0.25466,-0.10191 0.558931,-0.0894 0.676159,0.0279 0.117224,0.11722 -0.09114,0.2006 -0.463021,0.18528 -0.410969,-0.0169 -0.494559,-0.10052 -0.213138,-0.21313 z m 14.816663,0 c 0.25466,-0.10191 0.55893,-0.0894 0.67616,0.0279 0.11723,0.11722 -0.0911,0.2006 -0.46302,0.18528 -0.41097,-0.0169 -0.49456,-0.10052 -0.21314,-0.21313 z m -10.84211,-1.02314 c 0.01693,-0.41096 0.100521,-0.49455 0.213134,-0.21313 0.101907,0.25466 0.08938,0.55893 -0.02783,0.67616 -0.117228,0.11722 -0.200603,-0.0911 -0.185286,-0.46303 z m 3.9084,-0.14699 c 0,-0.48507 0.0801,-0.6835 0.17794,-0.44097 0.0979,0.24254 0.0979,0.63941 0,0.88195 -0.0979,0.24253 -0.17794,0.0441 -0.17794,-0.44098 z m -42.830001,-3.76141 c 0.242534,-0.0979 0.639409,-0.0979 0.881944,0 0.242535,0.0979 0.0441,0.17793 -0.440972,0.17793 -0.48507,0 -0.683507,-0.0801 -0.440972,-0.17793 z"
         id="path305" /><path
         style="fill:#7189c0;stroke-width:0.352778"
         d="m 55.053934,158.71876 c -0.119916,-0.19403 -0.05928,-0.35278 0.134749,-0.35278 0.194028,0 0.450891,0.15875 0.570807,0.35278 0.119916,0.19403 0.05928,0.35278 -0.134749,0.35278 -0.194028,0 -0.450891,-0.15875 -0.570807,-0.35278 z m -0.501316,-1.82831 c -0.01532,-0.32647 -0.347655,-0.69509 -0.738529,-0.81915 -0.390872,-0.12406 -0.624551,-0.36492 -0.519286,-0.53524 0.225165,-0.36432 -1.04736,-1.12516 -1.359614,-0.81291 -0.236782,0.23678 -0.938199,-1.40871 -0.938199,-2.20097 0,-0.27841 0.207535,-0.5062 0.46119,-0.5062 0.294951,0 0.434407,0.38685 0.386888,1.07322 -0.06553,0.94656 -0.0055,1.0208 0.508949,0.62899 0.320788,-0.24432 0.47723,-0.31698 0.347649,-0.16146 -0.234949,0.28199 0.353984,1.15123 1.596713,2.35669 0.360556,0.34974 0.571526,0.84621 0.468823,1.10326 -0.128135,0.3207 -0.195472,0.28109 -0.214584,-0.12623 z m 8.967983,-1.34669 c 0.119916,-0.19403 0.288034,-0.35278 0.373598,-0.35278 0.08556,0 0.155569,0.15875 0.155569,0.35278 0,0.19403 -0.16812,0.35278 -0.373598,0.35278 -0.205479,0 -0.275485,-0.15875 -0.155569,-0.35278 z m 0.754371,-1.23472 c 0.111683,-0.29104 0.364264,-0.52917 0.56129,-0.52917 0.206483,0 0.172196,0.22416 -0.08094,0.52917 -0.241543,0.29104 -0.494124,0.52916 -0.56129,0.52916 -0.06717,0 -0.03075,-0.23812 0.08094,-0.52916 z M 61.1614,153.89166 c 0.254661,-0.10191 0.558932,-0.0894 0.676157,0.0279 0.117225,0.11723 -0.09113,0.20061 -0.463021,0.18529 -0.410966,-0.0169 -0.494559,-0.10052 -0.213136,-0.21314 z m -2.045704,-0.55276 c 0.01072,-0.98102 0.45565,-2.02847 0.861646,-2.02847 0.237268,0 0.600912,0.37204 0.808098,0.82677 0.350923,0.77019 0.312548,0.81458 -0.560735,0.64869 -0.839951,-0.15957 -0.887088,-0.11714 -0.453269,0.40795 0.416671,0.50433 0.404376,0.58603 -0.08819,0.58603 -0.314799,0 -0.570194,-0.19844 -0.567545,-0.44097 z m 2.464627,-0.23573 c 0,-0.17816 -0.09233,-0.61472 -0.205188,-0.97014 -0.187762,-0.59133 -0.157802,-0.58806 0.352778,0.0386 0.638966,0.7842 0.71599,1.25549 0.205188,1.25549 -0.194028,0 -0.352778,-0.14576 -0.352778,-0.32392 z m 3.527778,-0.9108 c 0,-0.29104 0.06239,-0.52917 0.138645,-0.52917 0.07626,0 0.230023,0.23813 0.341706,0.52917 0.111684,0.29104 0.04929,0.52917 -0.138645,0.52917 -0.187938,0 -0.341706,-0.23813 -0.341706,-0.52917 z m -9.476958,-0.63225 c -0.04422,-0.58195 -0.251293,-0.9163 -1.311456,-2.11751 -0.209809,-0.23773 -0.490056,-0.9069 -0.622772,-1.48707 -0.224723,-0.98236 -0.20535,-1.00885 0.281975,-0.3855 0.287802,0.36813 0.440742,0.80287 0.339866,0.96609 -0.100876,0.16323 0.06296,0.20223 0.364078,0.0867 0.405671,-0.15567 0.547489,0.0205 0.547489,0.6802 0,0.48966 0.174312,0.94839 0.387361,1.01941 0.213048,0.071 0.314042,0.5208 0.224431,0.99953 -0.09841,0.52572 -0.181955,0.62004 -0.210972,0.23817 z m -5.015591,0.0149 c -0.01576,-0.0485 -0.0757,-0.48507 -0.133203,-0.97014 -0.0575,-0.48507 -0.224929,-1.63601 -0.372068,-2.55764 -0.170629,-1.06876 -0.138588,-1.67569 0.08846,-1.67569 0.195794,0 0.369785,0.68737 0.386649,1.5275 0.01686,0.84012 0.195746,1.96171 0.397518,2.49241 0.201772,0.5307 0.366858,1.03395 0.366858,1.11833 0,0.15954 -0.683825,0.2203 -0.734216,0.0652 z m 3.118256,-0.68166 c 0.25237,-0.96506 0.594828,-1.03633 1.099172,-0.22875 0.24808,0.39724 0.279714,0.61477 0.07061,0.48553 -0.208352,-0.12877 -0.378821,-0.0925 -0.378821,0.0807 0,0.17314 -0.216344,0.3148 -0.480765,0.3148 -0.293986,0 -0.414497,-0.2534 -0.310195,-0.65226 z m 12.186665,0.13389 c -0.26985,-0.16906 -0.308621,-0.44862 -0.107376,-0.77424 0.377738,-0.6112 0.81701,-0.27868 0.649105,0.49136 -0.07108,0.32599 -0.29025,0.44044 -0.541729,0.28288 z m -3.680084,-1.21612 c -0.02502,-0.0485 -0.07176,-0.50136 -0.103858,-1.00634 -0.04621,-0.72691 0.0752,-0.88322 0.582875,-0.75045 0.594551,0.15547 0.598189,0.19917 0.04996,0.60004 -0.325205,0.23779 -0.478284,0.61519 -0.340176,0.83865 0.138107,0.22346 0.16236,0.40629 0.05389,0.40629 -0.108464,0 -0.217679,-0.0397 -0.242698,-0.0882 z m -4.187844,-1.85208 c -0.249326,-0.30042 -0.373944,-0.6256 -0.276931,-0.72261 0.09701,-0.097 0.380383,0.0694 0.629709,0.36983 0.249326,0.30042 0.373945,0.62559 0.276931,0.72261 -0.09701,0.097 -0.380383,-0.0694 -0.629709,-0.36983 z m 0.352778,-1.60832 c 0,-0.20548 0.15875,-0.27549 0.352778,-0.15557 0.194028,0.11991 0.352778,0.28803 0.352778,0.3736 0,0.0856 -0.15875,0.15556 -0.352778,0.15556 -0.194028,0 -0.352778,-0.16811 -0.352778,-0.37359 z m 7.960181,-0.0826 c 0.132479,-0.34792 0.329739,-0.54371 0.438354,-0.43509 0.108616,0.10861 2.24e-4,0.39327 -0.240871,0.63257 -0.348408,0.34582 -0.38893,0.3053 -0.197483,-0.19748 z m -8.989116,-0.3492 c 0.08085,-0.0549 0.464491,-0.33271 0.852546,-0.61736 0.652641,-0.47872 0.669245,-0.47123 0.221388,0.0998 -0.266292,0.33955 -0.649938,0.61736 -0.852546,0.61736 -0.202608,0 -0.302233,-0.0449 -0.221388,-0.0998 z m 2.061054,-0.34114 c -0.194791,-0.65533 -0.295695,-1.76242 -0.147088,-1.61382 0.253248,0.25325 0.533665,1.70201 0.329436,1.70201 -0.08587,0 -0.16793,-0.0397 -0.182348,-0.0882 z m 6.431916,-0.97014 c 0,-0.48507 0.08007,-0.68351 0.177936,-0.44097 0.09787,0.24253 0.09787,0.63941 0,0.88194 -0.09786,0.24254 -0.177936,0.0441 -0.177936,-0.44097 z m -12.050146,-0.68474 c 0,-0.74222 0.171718,-1.07915 0.549987,-1.07915 0.325895,0 0.447425,-0.16595 0.29827,-0.40729 -0.166376,-0.2692 -0.09551,-0.31074 0.209012,-0.12254 0.373152,0.23063 0.364308,0.35833 -0.04653,0.67187 -0.278991,0.21292 -0.453,0.65014 -0.386688,0.97159 0.06631,0.32146 -0.04697,0.68802 -0.251743,0.81457 -0.230236,0.1423 -0.37231,-0.1817 -0.37231,-0.84905 z m 1.763889,-0.39442 c 0,-0.20547 0.15875,-0.27548 0.352778,-0.15556 0.194028,0.11991 0.352778,0.28803 0.352778,0.37359 0,0.0856 -0.15875,0.15557 -0.352778,0.15557 -0.194028,0 -0.352778,-0.16812 -0.352778,-0.3736 z m 5.672295,-0.53774 c 0.01693,-0.41097 0.100521,-0.49456 0.213137,-0.21314 0.101907,0.25466 0.08937,0.55894 -0.02785,0.67616 -0.117225,0.11723 -0.200604,-0.0911 -0.185286,-0.46302 z M 51.09451,142.49793 c -0.02894,-0.38424 0.09861,-0.79208 0.28346,-0.90632 0.184846,-0.11424 0.223646,-0.39518 0.08622,-0.62431 -0.137424,-0.22913 0.02625,-0.19248 0.363722,0.0814 0.423348,0.34362 0.489689,0.5746 0.213977,0.745 -0.219784,0.13583 -0.386048,0.34828 -0.369476,0.47211 0.08396,0.62736 0.0033,0.9307 -0.247575,0.9307 -0.152738,0 -0.301386,-0.31438 -0.33033,-0.69861 z m 5.319533,0.21836 c 0.18577,-0.51822 0.104404,-0.611 -0.385969,-0.44011 -0.524268,0.1827 -0.514357,0.13371 0.06343,-0.3135 0.811464,-0.62808 2.519715,-0.70032 2.877335,-0.12168 0.175574,0.28408 0.0022,0.34291 -0.569856,0.19333 -0.58578,-0.15319 -1.023255,0.008 -1.521279,0.56179 -0.584509,0.64952 -0.66048,0.66921 -0.463657,0.12017 z m 1.99128,0.12747 c -0.317956,-0.20548 -0.361468,-0.34413 -0.109014,-0.34738 0.231084,-0.003 0.518265,0.15335 0.638181,0.34738 0.270688,0.43798 0.148563,0.43798 -0.529167,0 z m 6.919957,-1.25564 c -0.281777,-0.73429 -0.160901,-0.90953 0.391777,-0.56795 0.238465,0.14738 0.292011,0.44907 0.127071,0.71595 -0.221267,0.35802 -0.337382,0.3249 -0.518848,-0.148 z M 52.316645,139.8719 c 0.09554,-0.49978 0.299904,-0.9087 0.454144,-0.9087 0.382235,0 0.211281,0.97826 -0.251897,1.44143 -0.266088,0.26609 -0.325191,0.11041 -0.202247,-0.53273 z m 1.164127,-0.0718 c -0.0079,-0.21878 0.222039,-0.59395 0.510945,-0.83372 0.288905,-0.23977 0.435855,-0.58064 0.326556,-0.75749 -0.1093,-0.17686 0.0043,-0.27793 0.252432,-0.22462 0.248137,0.0533 0.458374,-0.13109 0.467194,-0.4098 0.0088,-0.27871 0.524157,-0.63841 1.145196,-0.79934 0.621038,-0.16093 1.225719,-0.44883 1.343736,-0.63979 0.370429,-0.59936 2.525469,-0.37947 3.397049,0.34663 0.720827,0.60051 0.747005,0.6954 0.194651,0.70556 -0.350999,0.006 -0.551287,-0.12886 -0.445084,-0.3007 0.106204,-0.17184 -0.20593,-0.38872 -0.693631,-0.48195 -0.567584,-0.1085 -0.995039,0.024 -1.187663,0.36823 -0.165513,0.29576 -0.598073,0.56206 -0.961243,0.5918 -0.36317,0.0297 -1.017497,0.24833 -1.454059,0.48578 -0.436563,0.23745 -0.79375,0.31308 -0.79375,0.16806 0,-0.14502 -0.469798,0.28596 -1.043996,0.95773 -0.574198,0.67177 -1.050448,1.0424 -1.058333,0.82362 z m -0.367115,-1.6757 c 0,-0.0733 0.277812,-0.35106 0.617361,-0.61736 0.559525,-0.43881 0.572003,-0.42633 0.133193,0.1332 -0.460858,0.58764 -0.750554,0.77451 -0.750554,0.48416 z"
         id="path303" /><path
         style="fill:#536eab;stroke-width:0.352778"
         d="m 54.28015,158.19709 c -1.029627,-1.06304 -1.872049,-2.17429 -1.872049,-2.46945 0,-0.29516 -0.168119,-0.53666 -0.373598,-0.53666 -0.205478,0 -0.275219,-0.15918 -0.154979,-0.35373 0.145075,-0.23474 0.45209,-0.22878 0.912645,0.0177 0.381714,0.20429 0.6079,0.51079 0.502634,0.68111 -0.105265,0.17032 0.128414,0.41118 0.519286,0.53524 0.390874,0.12406 0.710679,0.38495 0.710679,0.57976 0,0.19482 0.254651,0.60886 0.565892,0.9201 0.45518,0.45518 0.696744,0.48417 1.234722,0.1482 0.385626,-0.24083 0.66883,-0.27174 0.66883,-0.073 0,0.18959 0.240147,0.25255 0.533659,0.13992 0.293513,-0.11264 0.769763,-0.009 1.058334,0.23065 0.414123,0.34369 0.524674,0.34406 0.524674,0.002 0,-0.2652 0.235694,-0.34328 0.606608,-0.20094 0.333634,0.12802 0.489741,0.11591 0.346903,-0.0269 -0.262755,-0.26276 1.799087,-1.35291 2.335905,-1.23506 0.159943,0.0351 0.191773,-0.0964 0.07073,-0.29224 -0.12104,-0.19585 0.277113,-0.65844 0.884785,-1.02799 0.672448,-0.40894 0.925264,-0.73177 0.645974,-0.82486 -0.323966,-0.10799 -0.234103,-0.34543 0.305643,-0.80757 0.42049,-0.36004 0.68504,-0.78323 0.587888,-0.94042 -0.09715,-0.15719 0.06973,-0.19127 0.370849,-0.0757 0.301119,0.11555 0.547489,0.29343 0.547489,0.39529 0,0.50784 -1.511049,2.54141 -1.769643,2.38159 -0.164049,-0.10138 -0.397984,-0.023 -0.519856,0.17419 -0.121871,0.1972 -0.02886,0.35854 0.206689,0.35854 0.812034,0 -0.752777,1.32559 -1.815778,1.53819 -0.646712,0.12934 -1.0403,0.42794 -1.0403,0.78924 0,0.50277 0.0833,0.51585 0.617361,0.097 0.548221,-0.42994 0.567597,-0.4204 0.173017,0.0852 -0.363081,0.46525 -0.717922,0.51011 -1.940278,0.24531 -1.982722,-0.42952 -2.685488,-0.4094 -3.292361,0.0943 -0.38311,0.31796 -0.408506,0.53605 -0.105005,0.90175 0.220178,0.2653 0.270808,0.48236 0.112511,0.48236 -0.158297,0 -1.130235,-0.86975 -2.159863,-1.93278 z m 1.47934,0.52167 c -0.119916,-0.19403 -0.376779,-0.35278 -0.570807,-0.35278 -0.194027,0 -0.254665,0.15875 -0.134749,0.35278 0.119916,0.19403 0.376779,0.35278 0.570807,0.35278 0.194028,0 0.254665,-0.15875 0.134749,-0.35278 z m 9.172222,-4.58611 c 0.119916,-0.19403 0.04991,-0.35278 -0.155569,-0.35278 -0.205479,0 -0.373598,0.15875 -0.373598,0.35278 0,0.19403 0.07001,0.35278 0.155569,0.35278 0.08556,0 0.253682,-0.15875 0.373598,-0.35278 z m 28.480455,0.35278 c 0,-0.6791 0.0726,-0.95691 0.161336,-0.61737 0.08873,0.33955 0.08873,0.89518 0,1.23473 -0.08873,0.33955 -0.161336,0.0617 -0.161336,-0.61736 z m -41.611349,-1.38172 c -0.02524,-0.50124 0.04302,-0.67321 0.151679,-0.38217 0.10866,0.29104 0.332477,0.70114 0.497372,0.91134 0.181588,0.23148 0.121778,0.38218 -0.15168,0.38218 -0.248319,0 -0.472136,-0.41011 -0.497371,-0.91135 z m 7.985391,0.11057 c -0.325414,-0.39209 -0.27402,-0.49164 0.251613,-0.48734 0.363306,0.003 0.872414,0.1397 1.131351,0.30383 0.359047,0.2276 0.299325,0.34328 -0.251613,0.48735 -0.40036,0.1047 -0.904712,-0.0308 -1.131351,-0.30384 z m 5.67467,-1.55108 c 0,-0.74403 0.51325,-0.94933 0.881944,-0.35277 0.119916,0.19402 0.04054,0.35277 -0.176389,0.35277 -0.21693,0 -0.296305,0.15875 -0.176389,0.35278 0.119916,0.19403 0.04991,0.35278 -0.155569,0.35278 -0.205478,0 -0.373597,-0.3175 -0.373597,-0.70556 z m 27.938218,-0.52916 c 0.0072,-0.58209 0.08625,-0.7775 0.175697,-0.43426 0.08944,0.34324 0.08356,0.81949 -0.01305,1.05833 -0.09665,0.23884 -0.169835,-0.042 -0.162645,-0.62407 z m -39.800623,0.0116 c -0.109227,-0.28465 -0.130514,-0.72121 -0.04731,-0.97014 0.08321,-0.24894 0.23492,-0.0161 0.337135,0.51753 0.199579,1.04183 0.03494,1.29894 -0.28983,0.45261 z m 1.014488,-0.34552 c 0,-0.73228 0.07349,-0.78955 0.48507,-0.37798 0.266788,0.26679 0.485069,0.65516 0.485069,0.86305 0,0.20788 -0.218281,0.37797 -0.485069,0.37797 -0.27939,0 -0.48507,-0.36595 -0.48507,-0.86304 z m -4.199792,-0.0341 c -0.114895,-0.29941 -0.130074,-0.6232 -0.03373,-0.71954 0.09634,-0.0964 0.259842,0.14863 0.363333,0.54438 0.219833,0.84064 -0.02442,0.97045 -0.3296,0.17516 z m 16.136043,-0.86673 c -0.230099,-1.96244 -0.189588,-3.82807 0.07733,-3.56135 0.156047,0.15594 0.225752,1.21947 0.154899,2.36341 -0.07085,1.14394 -0.175358,1.68301 -0.232232,1.19794 z m -11.237044,-0.70555 c 0,-0.6791 0.0726,-0.95691 0.161333,-0.61736 0.08873,0.33955 0.08873,0.89517 0,1.23472 -0.08873,0.33955 -0.161333,0.0617 -0.161333,-0.61736 z m 6.711502,-0.70556 c 0.07936,-0.29104 0.448631,-0.58722 0.820608,-0.65817 0.371977,-0.0709 0.80747,-0.30907 0.967763,-0.52916 0.192401,-0.26418 0.242408,-0.22034 0.147155,0.129 -0.07936,0.29104 -0.44863,0.58722 -0.820607,0.65817 -0.371978,0.0709 -0.807471,0.30908 -0.967763,0.52917 -0.192401,0.26417 -0.242409,0.22033 -0.147156,-0.12901 z m -6.169478,-1.11776 c 0.205,-0.20499 0.580961,-0.30331 0.83547,-0.21847 0.264211,0.0881 0.104299,0.24798 -0.372728,0.37272 -0.586791,0.15345 -0.724527,0.10754 -0.462742,-0.15425 z m -1.946016,-1.17529 c 0.0039,-0.77611 0.07616,-1.05207 0.160541,-0.61325 0.08438,0.43882 0.08118,1.07382 -0.0071,1.41111 -0.0883,0.33729 -0.157338,-0.0217 -0.153422,-0.79786 z m -3.551405,-0.52917 c 0.0298,-1.44881 0.461481,-3.02598 0.717437,-2.62119 0.131257,0.20759 0.01945,1.08071 -0.248464,1.94028 -0.321183,1.03049 -0.480933,1.26243 -0.468973,0.68091 z m 8.509676,-0.63037 c 0.756095,-0.83547 0.406981,-2.07513 -0.769972,-2.73407 l -0.925875,-0.51836 1.022757,0.22896 c 0.723418,0.16195 0.949638,0.11066 0.77293,-0.17526 -0.388077,-0.62793 -2.037738,-0.47291 -3.206798,0.30132 -1.295346,0.85788 -1.673984,0.886 -1.525173,0.11329 0.06273,-0.32576 0.200419,-0.52419 0.305965,-0.44098 0.105548,0.0832 0.581798,-0.0932 1.058334,-0.39208 1.304416,-0.81808 3.564114,-0.54361 4.806721,0.58384 0.833089,0.75588 1.115747,1.89982 0.469431,1.89982 -0.194028,0 -0.352778,0.23254 -0.352778,0.51676 0,0.53125 -1.030579,1.24713 -1.795373,1.24713 -0.28684,0 -0.240146,-0.2105 0.139831,-0.63037 z m 1.13571,-0.35983 c -0.108616,-0.10862 -0.393275,-2.2e-4 -0.632576,0.24087 -0.345816,0.34841 -0.305295,0.38893 0.197484,0.19748 0.347916,-0.13248 0.543708,-0.32973 0.435092,-0.43835 z m 0.51443,-1.74383 c -0.0031,-0.35231 -0.118437,-0.4659 -0.268687,-0.26458 -0.144808,0.19403 -0.40696,0.47184 -0.582561,0.61736 -0.175602,0.14552 -0.05469,0.26458 0.268687,0.26458 0.326837,0 0.585564,-0.27418 0.582561,-0.61736 z m 5.690634,1.64106 c -0.479971,-1.37684 -0.51559,-2.90464 -0.06117,-2.62379 0.370144,0.22876 0.912902,3.29461 0.632838,3.57468 -0.09796,0.0979 -0.355205,-0.32995 -0.571668,-0.95089 z m 23.008375,-3.49314 c 0,-1.45521 0.06227,-2.05052 0.138381,-1.32292 0.07611,0.72761 0.07611,1.91823 0,2.64584 -0.07611,0.7276 -0.138381,0.13229 -0.138381,-1.32292 z m 11.271183,0.88194 c 0.003,-0.97013 0.0712,-1.32514 0.15224,-0.78889 0.0811,0.53624 0.0789,1.32999 -0.005,1.76388 -0.0838,0.4339 -0.1501,-0.005 -0.14745,-0.97499 z m -48.677342,-1.02183 c 0.349833,-0.27192 0.508583,-0.56379 0.352778,-0.6486 -0.155805,-0.0848 -0.104189,-0.11326 0.114703,-0.0632 0.218891,0.05 0.576079,-0.0871 0.79375,-0.30477 0.217671,-0.21767 0.395765,-0.2733 0.395765,-0.12362 0,0.41502 -0.799431,1.11443 -1.5875,1.38888 -0.66652,0.23212 -0.670365,0.21836 -0.0695,-0.24869 z m 12.262546,-1.13471 c -0.444132,-0.64817 -0.676951,-1.34445 -0.529387,-1.58321 0.172613,-0.2793 0.11473,-0.33432 -0.167928,-0.15962 -0.237234,0.14661 -0.339607,0.50562 -0.227495,0.79778 0.112113,0.29216 -0.324251,0.0777 -0.969697,-0.47666 -0.645445,-0.55432 -1.026902,-1.10708 -0.847682,-1.22834 0.189572,-0.12827 0.162559,-0.32141 -0.06459,-0.46179 -0.214743,-0.13272 -0.390441,-0.39832 -0.390441,-0.59022 0,-0.19189 0.714375,0.1426 1.5875,0.74333 0.913181,0.62828 1.5875,1.36869 1.5875,1.74309 0,0.35798 0.22774,0.73826 0.506089,0.84507 0.27835,0.10681 0.66665,0.49421 0.86289,0.86089 0.630508,1.17812 -0.480756,0.77353 -1.346763,-0.49032 z m -1.293277,-1.8416 c 0.09993,-0.16169 -0.04247,-0.29399 -0.316439,-0.29399 -0.273972,0 -0.41637,0.1323 -0.31644,0.29399 0.09993,0.16169 0.242328,0.29398 0.31644,0.29398 0.07411,0 0.21651,-0.13229 0.316439,-0.29398 z m -9.98843,0.91134 c 0.08084,-0.0485 0.623241,-0.48507 1.205324,-0.97014 l 1.058333,-0.88194 -0.855244,0.97013 c -0.470384,0.53358 -1.01278,0.97014 -1.205324,0.97014 -0.192544,0 -0.283934,-0.0397 -0.203089,-0.0882 z m 6.41551,-1.92017 c 0.343241,-0.0894 0.819491,-0.0836 1.058334,0.0131 0.238841,0.0966 -0.04199,0.16982 -0.624076,0.16263 -0.582083,-0.007 -0.777499,-0.0863 -0.434258,-0.1757 z m -3.355905,-0.34267 c 0.243744,-0.0983 0.362587,-0.30906 0.264097,-0.46842 -0.09849,-0.15936 0.163469,-0.20017 0.582133,-0.0907 0.567092,0.1483 0.688259,0.081 0.475146,-0.26379 -0.201333,-0.32577 -0.149599,-0.37852 0.174667,-0.17811 0.359728,0.22232 0.318229,0.38894 -0.189308,0.76006 -0.357519,0.26142 -0.897506,0.46278 -1.19997,0.44747 -0.366886,-0.0186 -0.402423,-0.0873 -0.106765,-0.20652 z"
         id="path301" /><path
         style="fill:#35539a;stroke-width:0.352778"
         d="m 56.327502,159.64751 c -0.73536,-0.88605 0.400869,-1.36551 2.588335,-1.09221 1.619025,0.20229 1.958931,0.15243 1.958931,-0.28732 0,-0.50382 0.697382,-0.96033 1.467031,-0.96033 0.425744,0 -1.329288,1.49377 -2.444461,2.08057 -0.440572,0.23182 -0.981038,0.31026 -1.201035,0.17429 -0.245223,-0.15156 -0.302596,-0.0896 -0.148278,0.16008 0.367778,0.59507 -1.723012,0.52438 -2.220523,-0.0751 z m -0.744401,-1.98708 c 0.69087,-0.44648 1.157881,-0.44648 0.881944,0 -0.119915,0.19402 -0.486472,0.35034 -0.814569,0.34737 -0.514095,-0.005 -0.523406,-0.0527 -0.06737,-0.34737 z m 5.386575,-4.12503 c 0.343241,-0.0894 0.819491,-0.0836 1.058333,0.0131 0.238842,0.0966 -0.04199,0.16982 -0.624075,0.16263 -0.582083,-0.007 -0.777499,-0.0863 -0.434258,-0.1757 z m -7.062269,-1.7626 c 0.339548,-0.0887 0.895173,-0.0887 1.234722,0 0.339548,0.0887 0.06174,0.16134 -0.617361,0.16134 -0.679098,0 -0.95691,-0.0726 -0.617361,-0.16134 z m 8.378472,-4.1254 c 0,-0.0744 0.3175,-0.21827 0.705555,-0.31975 0.388056,-0.10148 0.705556,-0.0406 0.705556,0.13525 0,0.17586 -0.3175,0.31975 -0.705556,0.31975 -0.388055,0 -0.705555,-0.0609 -0.705555,-0.13525 z m 3.908406,-2.18721 c 0.01693,-0.41096 0.100521,-0.49455 0.213137,-0.21313 0.101907,0.25466 0.08937,0.55893 -0.02785,0.67616 -0.117225,0.11722 -0.200604,-0.0911 -0.185287,-0.46303 z m -5.672295,-1.20532 c 0,-0.19403 0.168119,-0.35278 0.373597,-0.35278 0.205479,0 0.275485,0.15875 0.155569,0.35278 -0.119915,0.19403 -0.288034,0.35278 -0.373597,0.35278 -0.08556,0 -0.155569,-0.15875 -0.155569,-0.35278 z m -0.85665,-0.97014 c 0.175601,-0.14552 0.437753,-0.42333 0.582561,-0.61736 0.15025,-0.20132 0.265604,-0.0877 0.268687,0.26458 0.003,0.34318 -0.255724,0.61736 -0.582561,0.61736 -0.32338,0 -0.444289,-0.11906 -0.268687,-0.26458 z m 5.823389,-0.37741 c -0.01532,-0.25608 -0.477085,-1.12921 -1.026149,-1.94028 -1.29254,-1.90932 -1.548752,-2.35661 -1.34988,-2.35661 0.389102,0 2.735908,3.94315 2.578293,4.33209 -0.12803,0.31595 -0.181819,0.30658 -0.202264,-0.0352 z m -5.163896,-0.96497 c -0.657587,-0.52683 -0.653258,-0.53335 0.108962,-0.16397 0.436563,0.21155 0.79375,0.45844 0.79375,0.54862 0,0.26996 -0.182953,0.192 -0.902712,-0.38465 z m -5.367493,-0.36108 c 0.334929,-0.34969 0.684897,-0.55986 0.777707,-0.46705 0.09281,0.0928 -0.181224,0.37892 -0.608962,0.63579 -0.743059,0.44624 -0.750577,0.43872 -0.168745,-0.16874 z m 9.092428,-2.63889 c 0,-0.20548 0.15875,-0.27548 0.352777,-0.15557 0.194028,0.11992 0.352778,0.28804 0.352778,0.3736 0,0.0856 -0.15875,0.15557 -0.352778,0.15557 -0.194027,0 -0.352777,-0.16812 -0.352777,-0.3736 z m -10.260187,-1.16136 c 1.208294,-1.31594 3.542879,-2.35381 5.168095,-2.29755 0.872909,0.0302 1.060663,0.0982 0.50598,0.18333 -0.485069,0.0744 -1.394254,0.21806 -2.020411,0.31921 -0.626157,0.10116 -1.896157,0.75527 -2.822222,1.45358 -1.278967,0.96443 -1.478853,1.04651 -0.831442,0.34143 z"
         id="path299" /><path
         style="fill:#4c4c4e;stroke-width:0.352778"
         d="m 74.791233,147.78265 c 0,-6.49993 0.04763,-9.159 0.105852,-5.90903 0.05822,3.24997 0.05822,8.56809 0,11.81806 -0.05822,3.24996 -0.105852,0.5909 -0.105852,-5.90903 z m 7.602979,5.11528 v -4.05695 h 2.838256 c 2.54309,0 2.928309,0.09 3.704166,0.86591 1.104611,1.10461 1.099344,2.07426 -0.01605,2.95162 -0.485069,0.38156 -0.881944,0.79311 -0.881944,0.91456 0,0.12145 0.396875,0.84951 0.881944,1.61791 1.07678,1.70573 1.079779,1.76551 0.0882,1.75739 -0.558688,-0.005 -1.107169,-0.50081 -1.852084,-1.67569 -0.779522,-1.22946 -1.31391,-1.69861 -2.028472,-1.78083 -0.945348,-0.10877 -0.970121,-0.066 -0.970121,1.6757 0,1.67129 -0.05725,1.78732 -0.881945,1.78732 h -0.881944 z m 5.587114,-1.54761 c 0.151314,-1.07016 -0.441328,-1.43882 -2.32392,-1.4456 -1.483522,-0.005 -1.499305,0.008 -1.499305,1.24775 v 1.25316 l 1.852083,-0.10663 c 1.647243,-0.0948 1.865253,-0.19976 1.971142,-0.94868 z m 3.937886,1.56084 v -4.07018 h 3.351389 c 2.699014,0 3.351389,0.1 3.351389,0.51371 0,0.393 -0.601017,0.53807 -2.557639,0.61736 l -2.557639,0.10365 v 1.05834 c 0,1.04095 0.0333,1.06007 2.028472,1.16413 1.488235,0.0776 2.028472,0.24204 2.028472,0.61736 0,0.39065 -0.505569,0.51156 -2.139018,0.51156 h -2.139019 l 0.110546,1.14653 0.110547,1.14653 2.581723,0.10413 c 1.82052,0.0734 2.540204,0.22946 2.440908,0.52917 -0.09277,0.28003 -1.244346,0.45964 -3.375473,0.52646 l -3.234658,0.10144 z m 9.066388,3.64664 c -0.54328,-0.20847 -0.92409,-0.5616 -0.84624,-0.78473 0.14899,-0.42707 0.5484,-0.43123 2.97717,-0.031 1.64513,0.27108 2.56102,-0.18527 2.56102,-1.27604 0,-0.6704 -0.34192,-0.82732 -2.64584,-1.21434 -1.77355,-0.29793 -2.64583,-1.06565 -2.64583,-2.32868 0,-1.37332 1.15765,-2.082 3.40103,-2.082 2.15493,0 2.94897,0.24618 2.94897,0.91428 0,0.38135 -0.43903,0.44013 -2.03854,0.27295 -1.65127,-0.1726 -2.1314,-0.10119 -2.52733,0.37589 -0.70247,0.84642 0.0238,1.40035 2.53868,1.93616 2.05873,0.43862 2.73274,1.03552 2.73274,2.42008 0,1.19977 -1.27614,1.96696 -3.4528,2.07577 -1.10839,0.0554 -2.45975,-0.0698 -3.00303,-0.27831 z m 8.5725,-3.65987 v -4.05695 h 2.59826 c 3.05414,0 4.4573,0.76823 4.4573,2.44037 0,1.49036 -1.11468,2.25567 -3.541,2.43117 l -2.10345,0.15215 v 1.5451 c 0,1.30992 -0.10739,1.5451 -0.70555,1.5451 -0.66466,0 -0.70556,-0.23518 -0.70556,-4.05694 z m 5.07734,-0.97014 c 0.65884,-1.05072 -0.15415,-1.83681 -2.02667,-1.95961 l -1.63956,-0.10752 v 1.44977 1.44977 l 1.63956,-0.10753 c 1.09291,-0.0717 1.76862,-0.31336 2.02667,-0.72488 z m 3.7421,0.97014 v -4.05695 h 3.35139 c 2.74383,0 3.35139,0.0959 3.35139,0.52917 0,0.41997 -0.50956,0.52916 -2.46944,0.52916 h -2.46945 v 1.23473 1.23472 h 2.11667 c 1.6463,0 2.11667,0.11759 2.11667,0.52917 0,0.41157 -0.47037,0.52916 -2.11667,0.52916 h -2.11667 v 1.23472 1.23473 h 2.46945 c 1.95988,0 2.46944,0.10919 2.46944,0.52916 0,0.43324 -0.60756,0.52917 -3.35139,0.52917 h -3.35139 z m 8.81945,0 c 0,-3.82176 0.0409,-4.05695 0.70555,-4.05695 0.62331,0 0.70556,0.23519 0.70556,2.01743 v 2.01743 l 2.0387,-2.01743 c 1.499,-1.48336 2.29869,-2.01743 3.02077,-2.01743 0.96811,0 0.95823,0.0219 -0.69491,1.53993 l -1.67698,1.53993 1.06125,1.37049 c 0.58368,0.75377 1.41854,1.88642 1.85523,2.51701 l 0.79399,1.14653 h -0.87593 c -0.65245,0 -1.21552,-0.47252 -2.20704,-1.85208 -0.73211,-1.01865 -1.38126,-1.91886 -1.44255,-2.00047 -0.0613,-0.0816 -0.50767,0.22388 -0.99198,0.67886 -0.59654,0.56042 -0.88055,1.20564 -0.88055,2.00046 0,0.93805 -0.14144,1.17323 -0.70556,1.17323 -0.66465,0 -0.70555,-0.23518 -0.70555,-4.05694 z m 11.64167,0.52916 v -3.52778 h -1.41112 c -1.01913,0 -1.41111,-0.14699 -1.41111,-0.52916 0,-0.43677 0.64676,-0.52917 3.70417,-0.52917 2.99179,0 3.70417,0.0979 3.70417,0.50888 0,0.34649 -0.47847,0.54351 -1.49931,0.61737 l -1.4993,0.10847 -0.10097,3.43959 c -0.0924,3.14898 -0.1595,3.43958 -0.79375,3.43958 -0.64234,0 -0.69278,-0.25687 -0.69278,-3.52778 z m -46.831254,-9.57355 c -0.919762,-0.92887 -0.505802,-1.68885 1.146528,-2.10491 0.943666,-0.23762 1.5875,-0.60186 1.5875,-0.8981 0,-0.72362 -1.040553,-1.00982 -1.844971,-0.50745 -0.381251,0.2381 -0.792184,0.33389 -0.913194,0.21289 -0.337626,-0.33763 0.710477,-0.87576 1.717471,-0.88181 1.306082,-0.008 1.74625,0.62551 1.74625,2.51267 0,1.3555 -0.116689,1.67198 -0.617362,1.67439 -0.339548,0.002 -1.014236,0.10079 -1.499305,0.22032 -0.517536,0.12754 -1.064151,0.0333 -1.322917,-0.228 z m 2.051664,-0.31664 c 0.84455,-0.45199 0.958734,-1.93301 0.124344,-1.61283 -0.30691,0.11777 -0.788141,0.21413 -1.069404,0.21413 -0.714622,0 -1.048582,1.06385 -0.452455,1.44132 0.619273,0.39212 0.583145,0.39322 1.397515,-0.0426 z m 3.945558,0.48433 c -0.265299,-0.10705 -0.440972,-0.84081 -0.440972,-1.84187 0,-0.91516 -0.1905,-1.85443 -0.423333,-2.08727 -0.329258,-0.32926 -0.329258,-0.42333 0,-0.42333 0.232833,0 0.423333,-0.3175 0.423333,-0.70556 0,-0.38805 0.15875,-0.70555 0.352778,-0.70555 0.194028,0 0.352778,0.30427 0.352778,0.67616 0,0.37188 0.198437,0.75622 0.440972,0.85409 0.352778,0.14235 0.352778,0.18351 0,0.20579 -0.535873,0.0338 -0.623228,3.55562 -0.08819,3.55562 0.194027,0 0.352777,0.15875 0.352777,0.35278 0,0.37532 -0.257027,0.40689 -0.970139,0.11914 z m 2.969212,-0.002 c -0.12935,-0.12935 -0.23518,-0.9931 -0.23518,-1.91945 0,-0.92635 -0.16646,-1.78715 -0.36991,-1.91289 -0.23961,-0.14808 -0.25017,-0.37289 -0.03,-0.63818 0.18695,-0.22526 0.34018,-0.54186 0.34051,-0.70355 3.3e-4,-0.16169 0.0932,-0.38658 0.20639,-0.49977 0.11317,-0.11318 0.20577,0.13817 0.20577,0.55857 0,0.42039 0.1905,0.76435 0.42334,0.76435 0.32926,0 0.32926,0.0941 0,0.42333 -0.65548,0.65548 -0.55284,3.45722 0.12665,3.45722 0.30249,0 0.45187,0.15875 0.33196,0.35278 -0.25179,0.4074 -0.66153,0.45561 -0.99954,0.11759 z m 5.93431,-0.47492 c -0.84288,-0.93138 -0.83596,-2.77618 0.0127,-3.39677 1.57428,-1.15112 3.34278,-0.18877 3.34278,1.81902 0,1.99718 -2.08761,2.97877 -3.35551,1.57775 z m 2.70756,-0.86294 c 0.31651,-0.69469 0.27825,-1.04606 -0.19209,-1.76389 -0.32304,-0.49302 -0.81047,-0.89639 -1.08317,-0.89639 -0.65292,0 -1.60457,0.97023 -1.60457,1.63589 0,1.86292 2.1494,2.62749 2.87983,1.02439 z m -26.86872,-1.77834 v -2.99861 h 1.685393 c 1.877662,0 3.253496,0.74371 3.253496,1.75869 0,1.1138 -0.989376,1.76909 -2.671033,1.76909 -1.550301,0 -1.562301,0.009 -1.562301,1.23472 0,0.6791 -0.15875,1.23472 -0.352778,1.23472 -0.207516,0 -0.352777,-1.23472 -0.352777,-2.99861 z m 3.724934,-0.33211 c 1.062331,-0.78886 0.265744,-1.75799 -1.556,-1.89303 -1.462081,-0.10839 -1.463379,-0.10737 -1.463379,1.14652 0,1.1853 0.06484,1.25501 1.167296,1.25501 0.642013,0 1.475451,-0.22883 1.852083,-0.5085 z m 2.858255,0.48124 c 0.07697,-3.86147 0.472366,-4.03552 0.472366,-0.20793 0,1.68158 -0.119062,3.05747 -0.264583,3.05755 -0.145521,8e-5 -0.239025,-1.28225 -0.207783,-2.84962 z m 14.230701,0.9092 c 0,-1.31415 -0.1423,-1.94202 -0.44097,-1.94568 -0.2731,-0.003 -0.30668,-0.10407 -0.0882,-0.26458 0.19403,-0.14255 0.52854,-0.57668 0.74337,-0.96474 0.4241,-0.76608 1.54969,-1.16922 1.54969,-0.55503 0,0.20826 -0.23813,0.37865 -0.52917,0.37865 -0.73811,0 -0.66477,0.97116 0.0882,1.16793 0.58796,0.15365 0.58796,0.16328 0,0.20225 -0.50817,0.0337 -0.61737,0.3841 -0.61737,1.9812 0,1.06716 -0.15875,1.94028 -0.35277,1.94028 -0.19403,0 -0.35278,-0.87312 -0.35278,-1.94028 z m 8.46737,-0.0882 c 7e-4,-2.00175 0.0146,-2.02945 1.05833,-2.10246 1.18725,-0.0831 1.43892,0.42116 0.35208,0.70537 -0.57639,0.15073 -0.70556,0.4812 -0.70556,1.80504 0,0.89129 -0.15875,1.62052 -0.35278,1.62052 -0.19436,0 -0.35246,-0.91087 -0.35207,-2.02847 z m 3.52865,0 0.001,-2.02847 1.30904,-0.0684 c 0.71997,-0.0376 1.49887,0.0892 1.7309,0.28172 0.28081,0.23305 0.4983,0.22643 0.65048,-0.0198 0.38477,-0.62258 1.90151,-0.41575 2.29123,0.31245 0.4675,0.8732 0.47685,3.55097 0.0126,3.55097 -0.19402,0 -0.35277,-0.69493 -0.35277,-1.5443 0,-1.80069 -0.72152,-2.70218 -1.5875,-1.98348 -0.3229,0.26799 -0.52917,1.04113 -0.52917,1.98348 0,0.84937 -0.15875,1.5443 -0.35278,1.5443 -0.19403,0 -0.35278,-0.77676 -0.35278,-1.72614 0,-1.2687 -0.15208,-1.78451 -0.57388,-1.94637 -0.9405,-0.3609 -1.54278,0.46992 -1.54278,2.12821 0,0.84937 -0.15875,1.5443 -0.35278,1.5443 -0.19446,0 -0.35207,-0.91029 -0.3512,-2.02847 z"
         id="path297" /></g></g></svg>
