<?xml version="1.0" encoding="UTF-8" standalone="no"?>
<svg
   id="Layer_1"
   data-name="Layer 1"
   viewBox="0 0 289.99998 90"
   version="1.1"
   sodipodi:docname="2025-10-12-Nixon-Logo.svg"
   inkscape:version="1.2.2 (b0a8486541, 2022-12-01)"
   xmlns:inkscape="http://www.inkscape.org/namespaces/inkscape"
   xmlns:sodipodi="http://sodipodi.sourceforge.net/DTD/sodipodi-0.dtd"
   xmlns="http://www.w3.org/2000/svg"
   xmlns:svg="http://www.w3.org/2000/svg">
  <sodipodi:namedview
     id="namedview47"
     pagecolor="#ffffff"
     bordercolor="#000000"
     borderopacity="0.25"
     inkscape:showpageshadow="2"
     inkscape:pageopacity="0"
     inkscape:pagecheckerboard="0"
     inkscape:deskcolor="#d1d1d1"
     showgrid="false"
     inkscape:zoom="2.5410973"
     inkscape:cx="120.42042"
     inkscape:cy="35.221005"
     inkscape:window-width="1920"
     inkscape:window-height="1052"
     inkscape:window-x="0"
     inkscape:window-y="0"
     inkscape:window-maximized="1"
     inkscape:current-layer="Layer_1" />
  <defs
     id="defs4">
    <style
       id="style2">.cls-1{fill:#fff;}.cls-2{fill:#1d1d1b;}</style>
  </defs>
  <rect
     style="fill:#ff0000;fill-opacity:1;stroke:#ff0000;stroke-width:2.57789;stroke-opacity:1"
     id="rect186"
     width="287.42212"
     height="87.422112"
     x="1.2889252"
     y="1.2889442" />
  <g
     id="g212">
    <path
       class="cls-1"
       d="M 0,40.620274 V 0.53027397 h 4.19 l 8.88,24.78000003 0.12,-0.06 V 0.53027397 h 4.74 V 40.620274 h -4.19 l -8.87,-25 H 4.75 v 25 z"
       id="path6" />
    <path
       class="cls-1"
       d="M 24.85,40.620274 V 0.53027397 H 30 V 40.620274 Z"
       id="path8" />
    <path
       class="cls-1"
       d="m 33.84,40.620274 7,-21.31 -6,-18.76000003 h 5.54 l 3.5,13.26000003 0.11,-0.05 3.61,-13.21000003 h 5.59 l -6.12,18.74000003 7.12,21.33 H 48.6 l -4.61,-14.87 h -0.12 l -4.49,14.87 z"
       id="path10" />
    <path
       class="cls-1"
       d="m 67.44,41.130274 q -4.74,0 -7.73,-5.49 -2.99,-5.49 -3,-15.08 0,-9 2.83,-14.8 2.83,-5.80000003 7.89,-5.7600000274 4.92,0 7.84,5.7400000274 2.92,5.74 2.92,14.82 0,9.68 -3.08,15.12 -3.08,5.44 -7.67,5.45 z m -0.06,-36.33 c -1.69,0 -3,1.4 -3.91,4.2 a 39.17,39.17 0 0 0 -1.36,11.56 q 0,7.64 1.41,11.7 1.41,4.06 4,4.07 c 1.64,0 2.94,-1.39 3.88,-4.16 0.94,-2.77 1.42,-6.63 1.42,-11.61 0,-4.98 -0.47,-8.93 -1.43,-11.66 -0.96,-2.73 -2.31,-4.1 -4.01,-4.1 z"
       id="path12" />
    <path
       class="cls-1"
       d="M 83.76,40.620274 V 0.53027397 h 4.19 l 8.88,24.78000003 0.12,-0.06 V 0.53027397 h 4.74 V 40.620274 H 97.5 l -8.88,-25 h -0.11 v 25 z"
       id="path14" />
  </g>
  <g
     id="g221"
     transform="translate(-108.72,48.824096)">
    <path
       class="cls-2"
       d="M 108.72,40.620274 V 0.53027397 h 12.47 V 5.330274 h -7.32 v 11.92 h 6.82 v 4.81 h -6.82 v 18.56 z"
       id="path16" />
    <path
       class="cls-2"
       d="m 137.58,41.130274 q -4.74,0 -7.73,-5.49 -2.99,-5.49 -3,-15.08 0,-9 2.82,-14.8 2.82,-5.80000003 7.9,-5.7600000274 4.92,0 7.84,5.7400000274 2.92,5.74 2.91,14.82 0,9.68 -3.07,15.12 c -2.06,3.63 -4.6,5.45 -7.67,5.45 z m -0.06,-36.33 q -2.55,0 -3.91,4.2 a 38.84,38.84 0 0 0 -1.36,11.56 q 0,7.64 1.4,11.7 1.4,4.06 4,4.07 2.46,0 3.88,-4.16 1.42,-4.16 1.42,-11.61 0,-7.56 -1.43,-11.66 -1.43,-4.1 -4,-4.1 z"
       id="path18" />
    <path
       class="cls-2"
       d="M 153.9,40.620274 V 0.53027397 h 5.15 V 35.800274 h 9.91 v 4.82 z"
       id="path20" />
    <path
       class="cls-2"
       d="M 172.68,40.620274 V 0.53027397 h 5.15 V 35.800274 h 9.91 v 4.82 z"
       id="path22" />
    <path
       class="cls-2"
       d="m 200.74,41.130274 q -4.74,0 -7.73,-5.49 -2.99,-5.49 -3,-15.08 0,-9 2.83,-14.8 2.83,-5.80000003 7.89,-5.7600000274 4.94,0 7.84,5.7400000274 2.9,5.74 2.92,14.82 0,9.68 -3.08,15.12 -3.08,5.44 -7.67,5.45 z m -0.05,-36.33 q -2.55,0 -3.92,4.2 a 39.17,39.17 0 0 0 -1.36,11.56 q 0,7.64 1.41,11.7 c 0.94,2.71 2.26,4.07 4,4.07 1.74,0 2.94,-1.39 3.88,-4.16 a 37.13,37.13 0 0 0 1.43,-11.61 q 0,-7.56 -1.44,-11.66 -1.44,-4.1 -4,-4.1 z"
       id="path24" />
    <path
       class="cls-2"
       d="M 220.9,41.130274 212.32,0.53027397 h 5.42 l 4.73,26.94000003 h 0.12 l 5.4,-26.94000003 h 3.72 L 236.8,28.070274 h 0.12 l 5,-27.54000003 h 5.42 L 238.76,41.130274 h -3.54 l -5.38,-26.81 h -0.12 l -5.27,26.81 z"
       id="path26" />
    <path
       class="cls-2"
       d="m 249.9,39.620274 v -5.37 a 6.72,6.72 0 0 0 4.49,2.19 3.88,3.88 0 0 0 3.89,-3.82 11,11 0 0 0 -0.64,-3.34 57.3,57.3 0 0 0 -3.45,-7.29 51.73,51.73 0 0 1 -3.68,-8 16.22,16.22 0 0 1 -0.85,-4.8 9.54,9.54 0 0 1 2.3,-6.61 7.52,7.52 0 0 1 5.87,-2.56000003 10.34,10.34 0 0 1 4.31,1.05000003 v 4.85 a 7.53,7.53 0 0 0 -3.6,-1.23 q -3.9,0 -3.9,3.8 a 11,11 0 0 0 0.66,3.39 56.06,56.06 0 0 0 3.49,7.21 49.11,49.11 0 0 1 3.66,8 16.82,16.82 0 0 1 0.83,4.85 9.58,9.58 0 0 1 -2.3,6.67 7.63,7.63 0 0 1 -6,2.56 9.47,9.47 0 0 1 -5.08,-1.55 z"
       id="path28" />
  </g>
  <g
     id="g244"
     transform="translate(94.0724,-83.565267)">
    <path
       class="cls-2"
       d="M 87.4076,123.65527 V 88.365267 h -6.15 v -4.8 h 17.46 v 4.8 h -6.15 v 35.290003 z"
       id="path30" />
    <path
       class="cls-2"
       d="M 103.0176,123.65527 V 83.565267 h 5.13 v 17.630003 h 7.67 V 83.565267 h 5.13 v 40.090003 h -5.13 v -17.65 h -7.67 v 17.65 z"
       id="path32" />
    <path
       class="cls-2"
       d="M 127.9276,123.65527 V 83.565267 h 14.27 v 4.8 h -9.11 v 12.000003 h 8.35 v 4.79 h -8.35 v 13.68 h 9.61 v 4.82 z"
       id="path34" />
  </g>
  <g
     id="g251"
     transform="translate(25.5224,-34.16527)">
    <path
       class="cls-2"
       d="m 160.0176,98.265267 5.95,-14.7 h 4.42 v 40.090003 h -5 l 0.33,-29.000003 -0.15,-0.12 -5,13.190003 h -0.94 l -5,-13.190003 -0.14,0.12 0.32,29.000003 h -5 V 83.565267 h 4.21 z"
       id="path36" />
    <path
       class="cls-2"
       d="m 186.5776,124.16527 q -4.74,0 -7.73,-5.49 -2.99,-5.49 -3,-15.08 0,-9.000003 2.83,-14.800003 2.83,-5.8 7.89,-5.76 4.94,0 7.84,5.74 2.9,5.74 2.92,14.820003 0,9.68 -3.08,15.12 -3.08,5.44 -7.67,5.45 z m -0.05,-36.330003 q -2.55,0 -3.92,4.2 a 39.17,39.17 0 0 0 -1.36,11.560003 q 0,7.64 1.41,11.7 c 0.94,2.71 2.26,4.07 4,4.07 1.74,0 2.94,-1.39 3.88,-4.16 a 37.13,37.13 0 0 0 1.43,-11.61 q 0,-7.560003 -1.44,-11.660003 -1.44,-4.1 -4,-4.1 z"
       id="path38" />
    <path
       class="cls-2"
       d="M 202.8976,123.65527 V 83.565267 h 4.19 l 8.93,24.780003 0.12,-0.06 V 83.565267 h 4.74 v 40.090003 h -4.19 l -8.87,-25.000003 h -0.12 v 25.000003 z"
       id="path40" />
    <path
       class="cls-2"
       d="M 227.8576,123.65527 V 83.565267 h 14.27 v 4.8 h -9.11 v 12.000003 h 8.35 v 4.79 h -8.35 v 13.68 h 9.61 v 4.82 z"
       id="path42" />
    <path
       class="cls-2"
       d="m 252.9076,123.65527 v -18.33 l -6.3,-21.760003 h 5.31 l 3.43,15.64 h 0.13 l 3.63,-15.64 h 5.37 l -6.41,21.760003 v 18.33 z"
       id="path44" />
  </g>
</svg>
