<?xml version="1.0" encoding="UTF-8"?>
<svg xmlns="http://www.w3.org/2000/svg" xmlns:xlink="http://www.w3.org/1999/xlink" version="1.1" id="Layer_1" x="0px" y="0px" viewBox="0 0 1000 425.93" style="enable-background:new 0 0 1000 425.93;" xml:space="preserve">
<style type="text/css">
	.st0{fill:#51184E;}
	.st1{fill:#F9BB03;stroke:#F4EA12;stroke-width:0.5;stroke-miterlimit:10;}
	.st2{fill:#F9BB03;}
</style>
<path class="st0" d="M966.36,425.64H33.41c-18.52,0-33.52-15.01-33.52-33.52V33.16c0-18.52,15.01-33.52,33.52-33.52h932.95  c18.52,0,33.52,15.01,33.52,33.52v358.95C999.89,410.63,984.88,425.64,966.36,425.64z"></path>
<rect x="1056.89" y="-378.36" class="st0" width="512" height="512"></rect>
<g>
	<g>
		<polygon class="st1" points="274.97,150.44 233.16,74.2 217.91,74.2 217.91,184.23 230.49,184.23 230.49,94.32 270.26,166.63     279.69,166.63 319.46,94.32 319.46,184.23 332.03,184.23 332.03,74.2 316.78,74.2   "></polygon>
		<path class="st1" d="M382.01,89.92l-40.28,94.31h12.26l10.75-25.46h48.56l10.75,25.46h12.26l-40.29-94.31H382.01z M369.05,148.53    l19.96-47.29l19.96,47.29H369.05z"></path>
		<path class="st1" d="M480.12,89.92h-34.76v94.31h34.76c13.11,0,24.19-4.47,33.21-13.41c9.03-8.94,13.54-20.23,13.54-33.88    c0-13.65-4.52-24.9-13.54-33.75C504.3,94.35,493.23,89.92,480.12,89.92z M505.24,163.48c-7.23,6.92-16.06,10.37-26.47,10.37    h-22.63V100.3h22.63c10.42,0,19.24,3.44,26.47,10.31c7.23,6.87,10.85,15.65,10.85,26.34    C516.09,147.72,512.47,156.57,505.24,163.48z"></path>
		<polygon class="st1" points="538.85,184.23 601.36,184.23 601.36,173.72 549.62,173.72 549.62,142.2 598.13,142.2 598.13,131.69     549.62,131.69 549.62,100.43 601.36,100.43 601.36,89.92 538.85,89.92   "></polygon>
		<polygon class="st1" points="623.53,89.92 612.76,89.92 612.76,184.23 675.27,184.23 675.27,173.72 623.53,173.72   "></polygon>
		<polygon class="st1" points="684.19,184.23 746.7,184.23 746.7,173.72 694.97,173.72 694.97,142.2 743.47,142.2 743.47,131.69     694.97,131.69 694.97,100.43 746.7,100.43 746.7,89.92 684.19,89.92   "></polygon>
		<rect x="758.36" y="89.92" class="st1" width="10.78" height="94.31"></rect>
		<polygon class="st1" points="851.55,167.66 798.33,89.92 785.53,89.92 785.53,184.23 796.31,184.23 796.31,105.55 849.39,184.23     862.33,184.23 862.33,89.92 851.55,89.92   "></polygon>
		<polygon class="st1" points="941.2,100.43 941.2,89.92 878.68,89.92 878.68,184.23 941.2,184.23 941.2,173.72 889.46,173.72     889.46,142.2 937.96,142.2 937.96,131.69 889.46,131.69 889.46,100.43   "></polygon>
	</g>
	<g>
		<path class="st2" d="M309.41,226.71c-9.14-8.55-20.66-12.89-34.22-12.89h-57.73v137.24h16.68v-46.08h39.1    c13.82,0,25.73-4.5,35.38-13.37c9.67-8.89,14.57-19.82,14.57-32.5C323.2,246.18,318.56,235.28,309.41,226.71z M296.98,280.18    c-6.35,5.65-14.33,8.51-23.74,8.51h-39.1v-58.57h39.1c9.4,0,17.39,2.77,23.74,8.22c6.32,5.44,9.53,12.43,9.53,20.77    C306.52,267.46,303.31,274.55,296.98,280.18z"></path>
		<polygon class="st2" points="333.2,351.07 403.73,351.07 403.73,338.27 346.29,338.27 346.29,304.4 400.14,304.4 400.14,291.6     346.29,291.6 346.29,258.03 403.73,258.03 403.73,245.24 333.2,245.24   "></polygon>
		<polygon class="st2" points="411.12,258.03 445.53,258.03 445.53,351.07 458.62,351.07 458.62,258.03 493.02,258.03     493.02,245.24 411.12,245.24   "></polygon>
		<path class="st2" d="M574.04,301.09c6.16-6.17,9.29-13.8,9.29-22.69c0-9.59-3.36-17.6-9.97-23.82    c-6.61-6.21-15.02-9.35-24.99-9.35h-46.63v105.83h13.09v-39.19h22.05l30.95,38.97l0.17,0.21h15.94l-31.76-40.15    C560.78,310.3,568.14,307,574.04,301.09z M569.79,278.26c0,5.89-2.2,10.88-6.55,14.84c-4.36,3.97-9.87,5.98-16.37,5.98h-32.04    v-41.05h32.04c6.61,0,12.14,1.94,16.45,5.77C567.62,267.61,569.79,272.48,569.79,278.26z"></path>
		<path class="st2" d="M682.54,257.74c-4.81-4.76-10.58-8.58-17.15-11.34c-6.57-2.76-13.61-4.16-20.93-4.16    c-7.32,0-14.37,1.4-20.93,4.16c-6.57,2.76-12.34,6.57-17.16,11.34c-4.82,4.77-8.69,10.7-11.49,17.61    c-2.81,6.92-4.23,14.44-4.23,22.35c0,8.01,1.42,15.61,4.23,22.57c2.8,6.96,6.67,12.96,11.49,17.84    c4.81,4.86,10.59,8.73,17.16,11.49c6.57,2.76,13.61,4.16,20.93,4.16c7.32,0,14.36-1.4,20.93-4.16    c6.57-2.76,12.35-6.63,17.16-11.49c4.81-4.87,8.68-10.87,11.49-17.84c2.81-6.97,4.23-14.56,4.23-22.57    c0-7.91-1.42-15.43-4.23-22.35C691.22,268.43,687.35,262.51,682.54,257.74z M685.17,297.7c0,12.55-3.97,22.96-11.81,30.94    c-7.83,7.98-17.56,12.02-28.91,12.02c-11.36,0-21.09-4.04-28.91-12.02c-7.83-7.98-11.8-18.39-11.8-30.94    c0-12.25,3.97-22.49,11.8-30.42c7.83-7.93,17.56-11.95,28.92-11.95c11.35,0,21.08,4.02,28.92,11.95    C681.2,275.22,685.17,285.45,685.17,297.7z"></path>
		<polygon class="st2" points="750.4,335.6 712.17,245.58 712.03,245.24 697.19,245.24 742.1,350.72 742.24,351.07 758.84,351.07     803.56,246.02 803.9,245.24 789.06,245.24   "></polygon>
		<rect x="812.53" y="245.24" class="st2" width="13.09" height="105.83"></rect>
		<path class="st2" d="M932.17,314.04l-0.21,0.5c-3.43,8.04-8.73,14.47-15.73,19.12c-7,4.65-14.87,7.01-23.39,7.01    c-11.56,0-21.43-4.07-29.36-12.1c-7.93-8.03-11.95-18.34-11.95-30.64c0-12.3,4.02-22.58,11.95-30.56    c7.93-7.98,17.81-12.02,29.36-12.02c8.32,0,16.02,2.23,22.88,6.64c6.86,4.41,12.12,10.52,15.65,18.16l0.22,0.48l12.57-4.9    l-0.25-0.55c-4.71-10.12-11.68-18.23-20.69-24.09c-9.03-5.87-19.25-8.84-30.37-8.84c-9.92,0-19.15,2.39-27.42,7.1    c-8.28,4.72-14.92,11.43-19.73,19.96c-4.81,8.53-7.28,18.18-7.33,28.69c-0.05,10.52,2.39,20.18,7.25,28.7    c4.86,8.52,11.52,15.24,19.8,19.95c8.27,4.71,17.5,7.1,27.42,7.1c11.33,0,21.78-3.13,31.05-9.29    c9.27-6.17,16.21-14.63,20.62-25.16l0.23-0.54L932.17,314.04z"></path>
	</g>
	<g>
		<polygon class="st2" points="99.54,340.47 56.24,340.47 56.24,350.31 109.23,350.31 109.23,313.22 99.54,313.22   "></polygon>
		<rect x="56.24" y="274.69" class="st2" width="52.99" height="9.84"></rect>
		<path class="st2" d="M71,244.86c4.29,0,7.86-1.58,10.71-4.73c2.85-3.15,4.81-7.71,5.87-13.66c0.61-3.48,1.45-6.04,2.54-7.68    c1.09-1.64,2.49-2.46,4.2-2.46c1.82,0,3.33,0.81,4.54,2.42c1.21,1.62,1.82,3.68,1.82,6.21c0,2.42-0.69,4.62-2.08,6.59    c-1.39,1.97-3.32,3.43-5.79,4.39l4.54,9.54c3.89-1.67,6.98-4.39,9.27-8.17c2.3-3.79,3.44-7.97,3.44-12.57    c0-5.45-1.46-9.93-4.39-13.44c-2.93-3.51-6.66-5.26-11.2-5.26c-4.24,0-7.84,1.63-10.79,4.88c-2.95,3.26-4.98,7.84-6.09,13.74    c-0.66,3.53-1.51,6.08-2.57,7.65c-1.06,1.56-2.45,2.35-4.16,2.35c-1.82,0-3.3-0.74-4.47-2.23c-1.16-1.49-1.74-3.42-1.74-5.79    c0-2.32,0.64-4.43,1.93-6.32c1.29-1.89,3.04-3.32,5.26-4.28l-3.48-9.46c-3.99,1.62-7.17,4.27-9.54,7.95    c-2.37,3.68-3.56,7.82-3.56,12.41c0,5.2,1.48,9.49,4.43,12.87C62.64,243.17,66.41,244.86,71,244.86z"></path>
		<polygon class="st2" points="65.93,165.22 109.23,165.22 109.23,155.38 65.93,155.38 65.93,139.26 56.24,139.26 56.24,181.42     65.93,181.42   "></polygon>
		<polygon class="st2" points="109.23,73.55 99.54,73.55 99.54,100.8 87.5,100.8 87.5,75.37 77.82,75.37 77.82,100.8 65.93,100.8     65.93,73.55 56.24,73.55 56.24,110.64 109.23,110.64   "></polygon>
	</g>
	<rect x="159.46" y="71.5" class="st2" width="6.74" height="282.93"></rect>
</g>
<g>
	<polygon class="st1" points="1406.76,-191.3 1360.06,-276.44 1343.03,-276.44 1343.03,-153.55 1357.08,-153.55 1357.08,-253.97    1401.49,-173.21 1412.03,-173.21 1456.44,-253.97 1456.44,-153.55 1470.49,-153.55 1470.49,-276.44 1453.46,-276.44  "></polygon>
	<path class="st2" d="M1450.41-106.11c-10.21-9.55-23.07-14.39-38.22-14.39h-64.48V32.78h18.63v-51.47h43.67   c15.44,0,28.73-5.02,39.52-14.93c10.8-9.92,16.28-22.14,16.28-36.3C1465.81-84.36,1460.62-96.54,1450.41-106.11z M1436.53-46.39   c-7.09,6.31-16.01,9.51-26.51,9.51h-43.67v-65.41h43.67c10.5,0,19.42,3.09,26.52,9.19c7.06,6.07,10.64,13.88,10.64,23.19   C1447.17-60.59,1443.59-52.68,1436.53-46.39z"></path>
	<g>
		<polygon class="st2" points="1204.75,20.05 1156.38,20.05 1156.38,31.04 1215.57,31.04 1215.57,-10.39 1204.75,-10.39   "></polygon>
		<rect x="1156.38" y="-53.42" class="st2" width="59.18" height="10.99"></rect>
		<path class="st2" d="M1172.87-86.74c4.79,0,8.78-1.76,11.96-5.28c3.19-3.52,5.37-8.61,6.55-15.26c0.68-3.89,1.62-6.75,2.83-8.58    c1.21-1.83,2.78-2.75,4.69-2.75c2.03,0,3.72,0.9,5.07,2.71c1.35,1.8,2.03,4.12,2.03,6.93c0,2.71-0.77,5.16-2.33,7.36    c-1.55,2.2-3.71,3.83-6.47,4.9l5.07,10.65c4.34-1.86,7.79-4.9,10.36-9.13c2.57-4.23,3.84-8.91,3.84-14.04    c0-6.09-1.63-11.09-4.9-15.01c-3.27-3.92-7.44-5.88-12.51-5.88c-4.74,0-8.75,1.82-12.05,5.45c-3.3,3.64-5.57,8.75-6.81,15.35    c-0.73,3.95-1.69,6.79-2.88,8.54c-1.18,1.75-2.73,2.62-4.65,2.62c-2.03,0-3.69-0.83-4.99-2.49c-1.29-1.66-1.94-3.82-1.94-6.47    c0-2.59,0.72-4.95,2.16-7.06c1.44-2.11,3.4-3.71,5.88-4.78l-3.89-10.57c-4.45,1.8-8,4.76-10.65,8.88    c-2.65,4.12-3.97,8.74-3.97,13.87c0,5.81,1.65,10.6,4.95,14.37C1163.53-88.62,1167.74-86.74,1172.87-86.74z"></path>
		<polygon class="st2" points="1167.21,-175.68 1215.57,-175.68 1215.57,-186.67 1167.21,-186.67 1167.21,-204.68 1156.38,-204.68     1156.38,-157.59 1167.21,-157.59   "></polygon>
		<polygon class="st2" points="1215.57,-278.07 1204.75,-278.07 1204.75,-247.63 1191.3,-247.63 1191.3,-276.04 1180.48,-276.04     1180.48,-247.63 1167.21,-247.63 1167.21,-278.07 1156.38,-278.07 1156.38,-236.64 1215.57,-236.64   "></polygon>
	</g>
	<rect x="1271.67" y="-280.36" class="st2" width="7.52" height="316"></rect>
</g>
</svg>
